/* XPM */
static char *result[] = {
/* columns rows colors chars-per-pixel */
"50 50 247 2 ",
"   c #010000",
".  c #00000D",
"X  c #1B0000",
"o  c #160009",
"O  c #07001A",
"+  c #19001A",
"@  c #1F1D12",
"#  c #240205",
"$  c #2B0000",
"%  c #370201",
"&  c #330C13",
"*  c #24231E",
"=  c #050024",
"-  c #000033",
";  c #02003B",
":  c #150631",
">  c #290F31",
",  c #33282F",
"<  c #4B0002",
"1  c #4A130E",
"2  c #650100",
"3  c #750700",
"4  c #512603",
"5  c #583500",
"6  c #752409",
"7  c #673D00",
"8  c #4A1137",
"9  c #51322C",
"0  c #4D3A3B",
"q  c #76302C",
"w  c #724D00",
"e  c #774C00",
"r  c #59413A",
"t  c #6E5136",
"y  c #002155",
"u  c #2A375A",
"i  c #32355A",
"p  c #3D3E61",
"a  c #4E344E",
"s  c #702855",
"d  c #274565",
"f  c #3A4565",
"g  c #4F4245",
"h  c #574B4E",
"j  c #6C5652",
"k  c #54546C",
"l  c #445B76",
"z  c #4B5D7C",
"x  c #725376",
"c  c #53627C",
"v  c #726B74",
"b  c #8C1600",
"n  c #832800",
"m  c #863400",
"M  c #983A00",
"N  c #96320B",
"B  c #AA3C00",
"V  c #8F3C26",
"C  c #AB3D23",
"Z  c #944C06",
"A  c #AE4D15",
"S  c #996F07",
"D  c #B46C0D",
"F  c #A87902",
"G  c #91493C",
"H  c #B55527",
"J  c #A9583A",
"K  c #B05630",
"L  c #936F34",
"P  c #BB682A",
"I  c #C07300",
"U  c #C27132",
"Y  c #843443",
"T  c #A55643",
"R  c #8C7153",
"E  c #BB6946",
"W  c #A87549",
"Q  c #AC6256",
"!  c #885B6C",
"~  c #8F6E71",
"^  c #A9706A",
"/  c #D27450",
"(  c #B58608",
")  c #B98C20",
"_  c #CB9802",
"`  c #DDA500",
"'  c #EBB309",
"]  c #CD9334",
"[  c #CA9C32",
"{  c #D5A428",
"}  c #D7A63B",
"|  c #DBAB3B",
" . c #EAB535",
".. c #EBB839",
"X. c #A5855A",
"o. c #97846A",
"O. c #8C847D",
"+. c #A38967",
"@. c #AD9174",
"#. c #B39D79",
"$. c #BDA47C",
"%. c #D6A848",
"&. c #E4B341",
"*. c #EAB741",
"=. c #ECB942",
"-. c #EDBA49",
";. c #F1BE45",
":. c #F1BE4A",
">. c #ECBD57",
",. c #D5966E",
"<. c #C79074",
"1. c #F3C046",
"2. c #F6C34A",
"3. c #F3C051",
"4. c #ECC270",
"5. c #385C82",
"6. c #78578A",
"7. c #4B6285",
"8. c #536583",
"9. c #586784",
"0. c #556A8D",
"q. c #5A6E8B",
"w. c #5C718F",
"e. c #556C91",
"r. c #586E94",
"t. c #4C739B",
"y. c #5E7392",
"u. c #567699",
"i. c #5D769C",
"p. c #676D8B",
"a. c #64728E",
"s. c #627693",
"d. c #6B7794",
"f. c #647995",
"g. c #627699",
"h. c #657A9B",
"j. c #697D9D",
"k. c #797490",
"l. c #657CA1",
"z. c #6A7EA1",
"x. c #836B87",
"c. c #92698B",
"v. c #8F708D",
"b. c #967598",
"n. c #A17A9C",
"m. c #9571A1",
"M. c #AA7FAB",
"N. c #6B819E",
"B. c #75849C",
"V. c #79879D",
"C. c #5F80A5",
"Z. c #6C81A4",
"A. c #6984AB",
"S. c #6C84AB",
"D. c #7685A4",
"F. c #7B8AA4",
"G. c #7087AB",
"H. c #7289AD",
"J. c #7C8DAA",
"K. c #7E90AF",
"L. c #6C8AB3",
"P. c #758DB3",
"I. c #798FB3",
"U. c #738EBA",
"Y. c #7991B6",
"T. c #7892BB",
"R. c #7C94BC",
"E. c #7798C2",
"W. c #8B8986",
"Q. c #978F8B",
"!. c #9C9893",
"~. c #B68B90",
"^. c #BEA684",
"/. c #A7A49D",
"(. c #818DA3",
"). c #828BA8",
"_. c #8390A7",
"`. c #8493AC",
"'. c #8394B2",
"]. c #8698B6",
"[. c #8599BA",
"{. c #8D9EBB",
"}. c #B38CAF",
"|. c #AD86B4",
" X c #8FA0BD",
".X c #92A1BF",
"XX c #AEA9A4",
"oX c #B3ACA5",
"OX c #B9B2A8",
"+X c #BCB8B3",
"@X c #C7978E",
"#X c #CFAE90",
"$X c #E1B88F",
"%X c #CD9CA3",
"&X c #CFB7AB",
"*X c #E9CA93",
"=X c #D6C7B2",
"-X c #EBD1A3",
";X c #E9D0A5",
":X c #EDD5A9",
">X c #EBD7B4",
",X c #F2DDB8",
"<X c #899EC2",
"1X c #8EA1C1",
"2X c #92A3C3",
"3X c #99A9C7",
"4X c #A6B3CB",
"5X c #C59BC9",
"6X c #C99DD5",
"7X c #CDA2CE",
"8X c #D4B1C7",
"9X c #CDA1D5",
"0X c #D4AAD9",
"qX c #D7ADE2",
"wX c #DDB4E4",
"eX c #E3B7EA",
"rX c #E4BAEB",
"tX c #E9BDF1",
"yX c #CBC9C4",
"uX c #D1CDC5",
"iX c #DCD6C8",
"pX c #DAD1D5",
"aX c #E9DBC6",
"sX c #EAC5D3",
"dX c #E5DDD3",
"fX c #EFE4CD",
"gX c #F5E6CA",
"hX c #EAE4D7",
"jX c #F2E7D6",
"kX c #F5E9D3",
"lX c #F3ECDC",
"zX c #E8D4E8",
"xX c #EDC1F4",
"cX c #F4C7FB",
"vX c #EDECE6",
"bX c #ECE9E8",
"nX c #F2EDE4",
"mX c #F2ECEC",
"MX c #EFF0EB",
"NX c #F5F2E5",
"BX c #F6F5EE",
"VX c #FAF7EC",
"CX c #F7F7F0",
"ZX c #F9F4F4",
"AX c #F7F8F3",
"SX c #FAFBF4",
"DX c #FEFFFA",
/* pixels */
"3X1X1X1X1X2X2X2X2X2X2X2X2X2X{..X1X.X2X.X.X.X2X[.'. X1X{.1X1X<X{.2X2X2X2X2X2X2X2X2X2X2X2X1X2X1X<X<X4X",
"1XU.R.R.R.T.T.E.T.T.T.E.'.J 8 - - - ; N n.E.Y.u.t.A.E.U.T.T.E.R.T.U.E.T.T.E.E.U.'.U.U.E.T.U.E.'.U.3X",
"2XT.[.R.[.R.R.<XE.E.<Xz.s C ] [ [ ] [ D Y 5.z.l.h.i.L.<XT.<X'.E.<XT.<X[.<X<XE.E.U.<X<X<X<XT.E.<XE.3X",
"1XT.R.R.T.T.R.T.<XE.z.v F ] ..-.;.;.;.} D L 7.I.P.l.g.S.U.I.T.I.I.T.U.E.z.<XT.'.<XE.<Xz.E.'.E.E.U.2X",
"].L.P.I.P.T.P.P.I.).a F :.=.=.*.=.=...-.2.| $ J.E.z.l.l.z.U.I.P.P.Y.I.Y.H.P.U.I.z.U.E.<Xz.E.m.E.z..X",
"'.S.G.S.H.H.P.H.D.J C ] :.-.*.*.=.=.=.=.;.} > l.z.z.l.l.i.z.H.U.P.P.P.H.z.P.I.P.U.z.z.z.<Xz.E.z.z.].",
"].U.I.P.H.P.T.I.J.8 _ _ 7 w &.;...=.=.=...*.} t r.L.L.z.i.i.H.Y.U.T.T.P.U.I.I.I.<X<Xz.<XE.U.z.z.E.2X",
"[.I.T.I.T.I.T.T.J.= ~.}.c.m.L { :.=.-.=.=.-.-.7 0.z.z.z.z.i.l.z.'.Y.Y.I.T.<XE.'.E.z.E.z.z.<X<XE.I.1X",
"[.I.T.I.Y.Y.Y.Y.P.@ }.qX0X9X6.W | -...........7 7.z.Z.S.S.l.g.l.L.U.T.I.j.h.d.l.N.Y.T.Y.Y.Y.I.R.P.1X",
"[.I.Y.I.Y.Y.Y.Y.K.X 7XcXtX6X9Xx.S 3.>.>.>.>.>.e r.z.z.z.l.S.l.i.i.l.I.D.4 4 4 4 4 D.Y.Y.Y.Y.I.I.z.2X",
"[.P.Y.I.Y.P.P.Y.J.# 7XcXtXtX6X6.w -.nXNXNXBXNX4.S - > = g.U.S.S.l.k O r &.&.&.&.&.0   9.[.I.T.I.H.{.",
"].L.I.I.P.P.Y.Y.P.# }.tXtXtXeXpXiXkXCXAXAXAXCX:X,.[ ] { j y i u i q D } *.*.=.=.*.[ [ W d T.I.I.H.1X",
"].P.I.P.I.P.L.L.H.c x.}.tXsXzXZXDXAXAXAXCXCXCX>X4...1.2.) S F F 6 P | 2.=.=.=.*.*.1.2.{ L p.P.I.P.{.",
"].L.I.H.P.F.m.).I.[.i ! 8X:XNXCXBXBXCXVXCXCXVXaX4. .=.*.:.3.1.1.U | ....=.=.=.=.*.=.&.1.&.% z.I.z.{.",
"'.H.I.I.P.Q A ~ L.J.i +.,XBXCXBXCXBXCXCXCXCXCXSX:X' -.=.=.*.*.*.=.=...=.=.=.=.=.=.-.-.=.| % z.I.L.{.",
"Y.S.S.H.S.D.b.W.Q ^ % !.SXDXgX>XkXDXBXCXCXCXCXSX-X' -.=.=.=.=.*.=.=.=.=.=.=.2.| 5 w 5 ) ;.} j 0.L.].",
"H.l.Z.Z.A.L.u.h 3 3 X.iXVX%X@.+.@.+XAXAXCXCXVXAXjX-X .=.=.=.=.=.=.=.=.=.=.] D W b.b.m.~ ( :.e z A.`.",
"J.A.P.S.S.h.x x v.x.#.aXNX@.<     $ yXBXCXAXCXVXSXkX' -...=.=.=.=.=.=.=...U s c.9X7X0XM.j %.7 8.A.'.",
"'.S.P.G.H.* b.wXcXcX6.Q.DXSXO.9 h 0   uXCXCXCXBXAXgX=.-.=.=.=.=.=.=.=.=.;.I @X9X5X6X6X6X}.O < p.L.'.",
"'.S.H.S.U.* }.cXtX6Xs /.DXBXvXBX=XX ZXW.XXDXBXCXCXCXlX-.=.=.=.=.=.=.=.=.-. .%X6XxXtXtXqX|.9 M v.A.].",
"Y.S.H.H.l.* m.wXmXmX^ %XDXCXAXSXmXyXQ.# XXDXBXBXCXAXNX*X-...=.*.*.=...*.-.' &X6X0XxXxXcX0X% x.F.A.'.",
"`.S.G.l.y.+ ~.zXCXDX@X#XSXBXBXBXCXBXXX% /.DXCXCXCXCXBXfX*X3.=.;.;.=.;.=.=. .$X%X~.xXrX9X}.k Z.L.A.'.",
"Y.A.Z.0.h.. +XDXCXSX@X&XSXCXCXCXCXBXDX!.OXDXnXNXBXCXCXAXfX*X{ &.%.} | | =.=...` C 0X7Xc.  l.S.G.S.'.",
"'.h.e.r.R.: +XSXBXAX>X,XSXCXCXCXCXAXCXAXAXNX-X-XjXAXCXNXDX+X  % 1 & 6 P *.-.1.%.+ # M ^ u.0.r.G.S.`.",
"B.0.g.H.z.  +XDXBXAX>XaXAXCXCXAXNX>XE dXSXBXNXj #X>X>XAX!.  v hX0 # 9 q P ' ' ` + 9.p.f.i.g.e.y.e.V.",
"f.7.g.P.g.  &XDXBXAXlXlXAXAXAXSXdX+.=XnXAXBXAXyXiXfXfXAXyX+X=XfX$.t   X 2 =XkX=Xo i.C.t.u.y.e.0.7.B.",
"D.e.e.g.j.O OXAXBXCXAXAXVXCXVXSXuX  NXAXAXCXlXSXSXAXSXAXSXDXAX>XgXOXW.Q.W.hXnX&X$ k.x.~ 6.w.0.z.u.D.",
"'.l.r.0.h.: @.aXCXCXCXCXCXCXBXSXiX9 $XhXCXhX*XnXAXCXCXNXCXBXCXAXAXSXSXSXSX,X,.n & A K A T 0.g.'.A.).",
"J.S.z.0.y.; #.gXAXCXCXCXBXAXBXSXlX$Xh r g r r bXAXCXNXE dXSXAXCXCXCXBXBXCXCXDXpXX d.d.p.9.g.I.Z.z.].",
").l.Z.z.e.G D #XAXCXCXCXAXBXAXBXVXjX0 6 Z 6 o >XVXDXBX< pXDXBXCXCXCXCXCXBXgX&X^ , r.t.7.l.J.S.Z.l.`.",
"J.Z.Z.Z.l.~ b n.SXCXCXCXCXCXAXBXSXMXr Z P H V +.OX=XOXo.hXSXBXCXCXCXBXAXBXkX*XW % ! ! k.H.S.Z.Z.l.`.",
"J.l.Z.Z.Z.C.y o.SXBXCXCXCXCXBXAXAXvXr M K A H 2   X ~ >XNXAXCXCXAXBXAXBXAXSXjX^.8 J J ~ H.N.Z.S.z.`.",
"K.l.S.Z.z.H.p O.SXVXCXCXCXCXCXCXSXnXr Z H A H P 3 !.DXmXCXCXCXCXCXCXCXCXCXSXoX  w.y.G.S.z.Z.Z.Z.l.`.",
"J.l.Z.N.j.G.p O.DXAXVXAXCXCXCXCXAXvXg J / / / < +XmXAXAXCXCXCXCXCXCXCXCXCXgX^.; g.G.Z.z.z.z.z.Z.l.`.",
"J.l.Z.j.l.G.p R gXCXCXAXCXCXCXBXAXMX> E ,./ n OXbXAXCXCXCXCXCXCXCXCXAXVXCX#Xm y I.z.z.z.Z.l.z.Z.h.`.",
"B.r.g.s.u.Z.f R :XNXCXCXCXCXCXBXAXvXo.J H Q Q.NXAXCXCXCXCXCXCXCXCXCXCXCXCX#X~.W.9.h.h.g.f.f.g.d.y.F.",
"D.g.g.h.f.j.f R ;XNXAXVXCXAXVXCXCXBX,Xo.. O.SXVXCXCXCXCXCXCXCXCXCXCXCXCXCXAXDXpX1 d.l.h.g.g.i.h.u.(.",
"J.h.j.z.z.,   2 E BXAXZXCXBXCXCXCXCXBXNXMXBXCXCXCXCXCXCXCXCXCXVXCXBXCXCXBXSXpX6XeXa 9.z.h.h.j.z.h._.",
"F.l.z.f.u 7X0X5X}.<.lXDXAXZXCXCXCXCXCXAXCXCXCXCXCXCXCXCXCXCXCXAXCXCXSXDXSXzXrXrX0X1 8.z.j.z.z.z.u._.",
"F.h.z.d.n |.wXcXqXb !.iXkXkXAXAXCXAXCXCXCXCXCXCXCXCXCXCXCXCXCXBXAXlXaX+X+Xb.|.}.m.k a.j.j.j.j.j.N._.",
"F.i.N.k.Q < n.eX0Xk   R *X#XdXdXlXNXVXCXCXCXCXAXCXCXCXCXCXCXCXCXVXkX$.  o , @   , z.z.h.j.j.h.j.u.(.",
"V.i.N.N.C.Q m   < d.D.c # & %   R :XBXCXCXBXBXAXBXCXBXCXCXCXCXVXBXDXyXX B.j.N.Z.z.h.h.j.j.h.j.j.N._.",
"F.i.f.f.f.k.d.a.g.h.h.f.a.s.g.s.c t j =X,XfXSXAXAXAXCXCXBXBXZXBXDXoXk d.h.h.h.h.h.h.j.h.f.j.h.h.w.F.",
"V.f.N.f.f.C.f.h.h.f.f.N.h.h.h.j.N.f u R X.+.XXaXgXgXkXDXSXSXZXfXOXv z N.f.f.f.h.d.h.d.h.j.h.h.d.N.(.",
"V.y.y.y.h.f.f.w.y.w.f.f.s.w.f.f.N.N.w.u ; ; = $.#X$.#XuXdXaX=X<.$ z Z.f.f.f.f.f.h.f.f.f.f.f.f.f.w.F.",
"B.0.w.w.w.w.w.q.w.w.y.y.q.w.y.y.y.y.w.9.8.0.q.>   + o   b B C i 9 k s.q.y.w.f.f.w.y.w.f.s.s.f.f.q.V.",
"B.w.y.w.y.f.f.y.w.w.w.y.f.y.s.s.y.w.y.y.q.l z 9.q.9.z w.9 v.0XeX, N ^ e.s.f.s.w.y.w.w.w.w.q.w.w.q.F.",
"B.w.N.f.f.f.f.f.y.f.f.y.f.f.s.f.f.y.f.N.y.q.z 7.8.z 8.f.s.k b.cXeX~ a h.y.f.f.f.f.f.w.s.y.s.w.f.w.(.",
"B.y.N.a.s.N.w.s.N.w.s.w.N.c N.c N.N.N.N.a.w.c c c c y.N.N.c v }.5Xx.l f.f.f.s.s.f.f.f.N.a.N.N.s.q.(.",
"B.y.s.s.s.s.N.s.a.w.a.N.N.N.N.c N.c c N.w.N.y.c l y.N.y.w.N.q.    c j.a.a.f.s.s.s.s.a.s.s.w.s.a.w.V."
};
