/* XPM */
static char *result[] = {
/* columns rows colors chars-per-pixel */
"50 50 240 2 ",
"   c black",
".  c #0B0001",
"X  c #1B0002",
"o  c #000019",
"O  c #15001A",
"+  c #260101",
"@  c #350004",
"#  c #3D0000",
"$  c #35120C",
"%  c #00002A",
"&  c #040037",
"*  c #170036",
"=  c #2F0028",
"-  c #280336",
";  c #1D3329",
":  c #282B33",
">  c #460200",
",  c #550700",
"<  c #451703",
"1  c #471D13",
"2  c #640000",
"3  c #78140C",
"4  c #572D11",
"5  c #6F2700",
"6  c #4A2D2F",
"7  c #563825",
"8  c #764C00",
"9  c #784900",
"0  c #78560B",
"q  c #705235",
"w  c #776537",
"e  c #0E1A4F",
"r  c #2E1746",
"t  c #14254D",
"y  c #2E2D4F",
"u  c #29335A",
"i  c #343B5B",
"p  c #2F3B62",
"a  c #470849",
"s  c #4F3649",
"d  c #673851",
"f  c #643F66",
"g  c #394659",
"h  c #3C4669",
"j  c #4D495B",
"k  c #654B51",
"l  c #6C655A",
"z  c #4C556E",
"x  c #555D79",
"c  c #6C516D",
"v  c #79577A",
"b  c #54627E",
"n  c #73686B",
"m  c #726E6D",
"M  c #8C3600",
"N  c #972418",
"B  c #865D00",
"V  c #AE4A09",
"C  c #8F6905",
"Z  c #A47901",
"A  c #835F25",
"S  c #B1552F",
"D  c #99722A",
"F  c #AD752D",
"G  c #C06B17",
"H  c #8E495A",
"J  c #A85B4D",
"K  c #866A49",
"L  c #8F6B4C",
"P  c #876E52",
"I  c #AC6E52",
"U  c #8E746E",
"Y  c #AC746F",
"T  c #B88A05",
"R  c #BD9126",
"E  c #B58B34",
"W  c #C8960B",
"Q  c #D6A716",
"!  c #EAB404",
"~  c #E9B319",
"^  c #C29629",
"/  c #C89B36",
"(  c #CFA135",
")  c #D4A538",
"_  c #DAAA3C",
"`  c #ECB82D",
"'  c #E4B23E",
"]  c #ECB83B",
"[  c #9B805A",
"{  c #B2894F",
"}  c #9A8468",
"|  c #8E847E",
" . c #B18D6D",
".. c #CA974D",
"X. c #DBAC42",
"o. c #E0AF40",
"O. c #E5B341",
"+. c #E9B741",
"@. c #EBB942",
"#. c #EDBB4A",
"$. c #F1BE44",
"%. c #F1BD49",
"&. c #EBBB51",
"*. c #C28C78",
"=. c #C69077",
"-. c #D7AD72",
";. c #EABD66",
":. c #F8C347",
">. c #F5C24B",
",. c #F2C155",
"<. c #ECC475",
"1. c #F2C774",
"2. c #4B5D82",
"3. c #505F83",
"4. c #704E82",
"5. c #4C648A",
"6. c #526384",
"7. c #576886",
"8. c #556B8D",
"9. c #5A6D8B",
"0. c #5D718E",
"q. c #4E6B97",
"w. c #566C91",
"e. c #586E92",
"r. c #5D7394",
"t. c #5E759A",
"y. c #5C779D",
"u. c #636C87",
"i. c #6C728B",
"p. c #627693",
"a. c #657996",
"s. c #6B7995",
"d. c #61779A",
"f. c #657A9B",
"g. c #697D9C",
"h. c #707E97",
"j. c #647CA1",
"k. c #6A7EA1",
"l. c #886887",
"z. c #8E718D",
"x. c #997698",
"c. c #A67AA7",
"v. c #6E819E",
"b. c #708097",
"n. c #73839B",
"m. c #79889F",
"M. c #6C81A4",
"N. c #6681A9",
"B. c #6883A9",
"V. c #6C84AA",
"C. c #7284A4",
"Z. c #7B8AA4",
"A. c #7187AB",
"S. c #7289AD",
"D. c #7D8DAA",
"F. c #7F91AF",
"G. c #6E89B3",
"H. c #758DB3",
"J. c #798FB2",
"K. c #758FB9",
"L. c #7991B6",
"P. c #7690BA",
"I. c #7B94BB",
"U. c #7D95BB",
"Y. c #948D8C",
"T. c #948F8E",
"R. c #A8978B",
"E. c #B1A492",
"W. c #8794A9",
"Q. c #8995AC",
"!. c #8294B2",
"~. c #8D9BB5",
"^. c #8097BE",
"/. c #879AB9",
"(. c #A883AA",
"). c #AA88AB",
"_. c #B588B7",
"`. c #BA93BB",
"'. c #92A1BC",
"]. c #ACA8A4",
"[. c #B6ABA7",
"{. c #B7B1AF",
"}. c #C79685",
"|. c #D19084",
" X c #D5B38F",
".X c #CDA89A",
"XX c #D7B6AA",
"oX c #D5AAB4",
"OX c #CDB4B4",
"+X c #F5CF88",
"@X c #E8CB9A",
"#X c #C7C3BE",
"$X c #DAC7B3",
"%X c #E4CBA7",
"&X c #EBD3A8",
"*X c #EFD6B2",
"=X c #EBD9B9",
"-X c #849CC3",
";X c #BD92C1",
":X c #8EA0C1",
">X c #95A6C4",
",X c #97A8C7",
"<X c #9CACC9",
"1X c #A9B5CD",
"2X c #C59BC9",
"3X c #C89CD4",
"4X c #CDA4D4",
"5X c #D3A6D7",
"6X c #D3B2D2",
"7X c #E7BDC6",
"8X c #D9ACE5",
"9X c #E5B9EA",
"0X c #EABFF2",
"qX c #D5CACE",
"wX c #D8D7D2",
"eX c #E5CFC5",
"rX c #E8D8C8",
"tX c #E5DBD6",
"yX c #F6E6C7",
"uX c #E9E4DB",
"iX c #F5EAD3",
"pX c #F3ECDB",
"aX c #F9F0DC",
"sX c #EED2EE",
"dX c #EDC2F4",
"fX c #EFC3F9",
"gX c #F5C9FC",
"hX c #EDEBE4",
"jX c #EDEDE8",
"kX c #F3EEE3",
"lX c #F3EFE8",
"zX c #F5F1E6",
"xX c #F5F5EE",
"cX c #F9F7EA",
"vX c #FFEDFD",
"bX c #F7F7F0",
"nX c #F7F8F3",
"mX c #FAFBF4",
"MX c #FFF2FE",
"NX c #FDFEFA",
/* pixels */
"1X:X>X>X>X>X,X,X>X,X,X,X>X>X>X,X,X,X,X,X,X>X>X/.~.>X>X>X>X>X:X'.,X<X,X,X>X>X,X>X,X,X,X>X>X>X>X>X-X1X",
":XG.P.P.K.K.P.P.I.P.K.K.K.K.K.K.K.K.K.K.K.P.G.y.q.N.P.K.K.K.K.K.K.K.K.K.K.P.K.K.P.K.K.P.K.L.K.U.K.<X",
":XP.^.^.^.U.^.^.U.U.^.-X-X-X-X-X^.U.U.^.^.U.N.d.j.j.S.^.^.^.^.-X-X-X-X-X-XU.^.^.^.U.^.^.^.^.^.^.P.<X",
":XP.^.U.I.I.U.U.U.-XH.2.3.6.3.3.K.-XU.U.K.j.t.I.G.y.j.B.J.L.U.8.2.3.5.x j.^.^.U.U.U.U.U.L.U.^.^.K.<X",
"/.G.H.H.H.K.J.H.M.V.i.8 8 8 8 8 s.C.M.G.N.y.K.U.P.k.j.j.j.k.k.q 9 9 8 9 n V.k.H.J.H.H.L.K.J.H.H.V.'.",
"!.k.S.V.S.S.H.S.6   A >.#.#.#.@.0   s j.y.S.-XV.k.k.j.j.j X @ o.%.#.#.%.E   # k.L.V.V.S.J.S.A.A.k.'.",
"/.K.L.H.S.!.k.y ..) _ @.] @.@.@.X.) ..6 M.-XM.V.k.G.A.e E _ _ +.] @.@.@.' ( _ q 5.-XV.L.U.K.H.L.K.>X",
"/.K.L.L.U.j.n Z @.$.@.+.@.@.@.+.#.>.' > x s.V.V.G.j.x D ) %.%.@.@.+.@.+.@.$.#.W P q.L.P.L.L.K.L.K.:X",
"/.H.J.J.L.j T >.@.] @.+.@.@.@.@.+.] ( 6 @ j v.a.k.3., +.>.] +.+.@.+.@.+.+.+.O.>.W 7 C.J.L.I.H.I.H.>X",
"/.H.U.H.- E #.@.>.@.+.+.@.@.@.+.:.E   + O O O O = O 7 ' +.+.@.+.@.@.+.%.%.%.#.O.%.O.< a.U.S.L.L.S.'.",
"!.H.L.D.o ) o.8 8 ( >.#.] @.#.#.D D ( ( ( ( / / ( F   ' >.+.@.@.+.+.%.Z 9 B B 8 ^ &.> p.I.S.L.L.V.'.",
"/.H.J.A.- Z { 4.4.[ W / ' ] ` ` D / $.>.] >.>.>.>._ D ] ] +.@.+.#.o.W U 4.l.v 4.U T > a.I.J.H.D.G.'.",
"/.G.J.A.6 + l.4X5Xz.  = X.,.<.&.>.] @.+.' ' +.] +.@.>.@.+.@.@.+.@...- _.5X4X5X5X).= > s.I.S.H.L.G.'.",
"/.V.L.S.+ ;XdX9X2X2X).  Q *XxXzX<.! #.@.>.+.>.' @.+.O.@.+.@.+.>.Z s 2X2X;X3X0X0XdX6X6 d.I.S.S.L.V.'.",
"/.G.H.S.  4XgXdX0X_.z.qX=XaXnXnXpX@X~ @.] ] ' >.+.>.@.@.@.@.+.>.Q *.3X9X9X8X0X0XgX0X> u.I.S.H.H.G.'.",
"!.k.S.M.j ).8XdX8Xc U mXmXnXbXcXNXyX+.#.' >.+.+.] ' @.@.@.@.@.O.` ;.oX7XdX0X0X0X9X2Xj a.S.V.M.V.j.~.",
"Z.N.B.B.A.t l.9Xs   Y.nXcXbXbXxXnXiX@X&.+.+.>.+.>.' >.' >.@.@.@.+.] ] ! %X0X9XfX`.  S.k.k.M.M.M.N.Q.",
"F.B.S.V.M.S.i.k   {.zXxXxXxXbXbXxXbXpX~ ' &.O.+.@.' ] ' ' ' @.@.@.@.@.+.&.-.k d x k.V.V.V.H.H.B.N.~.",
"!.V.S.S.V.L.8.$ {.jXNXmXmXmXxXbXbXnXzXyX,.! ] ' >.:.@.:.@.@.@.@.@.@.+.$.) B > s 6.t.V.S.S.S.S.S.N.Q.",
"F.V.S.V.V.v.z 7 kXpXwXwXwXhXmXxXbXbXbXnX*X<.,.>.) ( ( ( ' @.@.@.@.@.+.$./ 7 < 0.j.e.r.V.S.V.S.S.B.~.",
"!.V.S.S.d.t.6.# @X}   1   {.NXcXbXbXxXxXnXpX@X,.C   $   R >.' ' +.@.@.+.$.o.< u.k.d.e.r.M.G.V.S.B.~.",
"F.V.V.N.p.u U @Xw _.9XuX9X(.Y.cXbXxXbXbXxXbXhX0 _.sXuX9Xx.Z >.>.#.#.#.+.$._   7.B.j.d.w.t.M.S.S.N.~.",
"!.B.v.5.g.i w E.  2XnXnXMX).k mXbXxXbXbXxXmXjX+ 6XMXnXvXT.# E Q ~ ~ ~ ] $.' E n 7.k.j.t.w.r.B.S.N.~.",
"!.y.8.t.F.z +     #XNXjXNXE.l mXbXbXbXbXxXmXhX$ qXNXjXMX].  * <.+X<.<.&.] @.%.B u B.d.j.r.w.r.V.N.W.",
"n.5.d.H.j.j @ 6   ;XgXcXgX(.n mXbXbXbXbXcXmXpX; 2XsXxXgXx.  7 uXMXbXmX+X] #.] B p f.r.t.d.t.8.r.5.Z.",
"h.5.y.Z.J 5 f ).tX].v Y.i.N I bXxXxXbXbXxXmXkXV c z.| v #XwXc.bXcX%X .G M B @XK u k.d.r.r.t.w.8.5.m.",
"Z.w.w.d.Y , l.tXhXY.    > Y $XmXmXmXbXbXxXnXjXXXS #     {.sX9X#X.X.....XOX].&XK p k.d.d.r.w.w.M.t.Z.",
"!.j.r.5.j.* T.NX4Xx.l m J rXNXxXhXkXcXxXxXxXbXNXXXI n l c.qXcX*.S *.=XzXmXbX*XP p k.d.d.e.8.f.D.B.W.",
"F.k.k.u.S , T.nXxXxXzXxXzXxXkX&Xq } *XbXbXbXxXbXxXxXxXlXnXbXbXnXNXmXmXnXmXNXmX| e k.j.w.8.g.H.C.f.~.",
"F.j.V.g.z.@ T.NXxXnXnXmXNXmXzXzXqXwXaXbXbXnXmXbXbXbXbXbXnXnXxX.X .}.}.|.Y T.bX XZ h e.5.M.J.M.M.v.~.",
"D.j.M.k.M.t U rXjXmXbXbXeXuXnXnXcXbXnXnXnXpXeXxXbXbXxXbXbXnXxX.X}.}.}.}.R.E.bX+XW % 7.k.S.M.M.M.y.Q.",
"D.j.M.v.C.z 2 S hXnXxXbXS XXmXzX%X=XnXzXNXXXV xXnXlXbXbXbXbXbXmXNXNXNXNXmXnXlX+XT & k.S.B.v.M.M.N.Q.",
"W.j.k.M.k.A.x 4 xXmXcXzXs  .yXNXm } yXNXiX=.@ jXnXmXmXcXxXmXxXmXxXxXnXmXpX@X<.>.R & C.M.k.M.v.M.N.D.",
"D.j.C.M.k.M.g.7.T.$XaXNXwXR.L T.#XE.K R.P R.wXmXeXR..XzXnXnXxXxXbXzX=XrX@X&.~ @.R * C.C.V.N.M.M.v.W.",
"Z.j.k.k.k.k.M.M.e L XXrXmXqXm m lXwXm U m {.uXwX|.F }.lXnXxXbXxXbXzX=X=X@X&.;.%.R % u.9.i.z.g.k.N.D.",
"C.e.d.r.p.d.f.f.k.z , V uXmXmXNXbXnXNXmXNX#X     XyXNXxXxXbXbXbXxXmXnXNXiX%X*X1.R o 1 + 5 S i.d.0.W.",
"Z.d.f.g.f.d.d.f.k.g.x 4 J  X*XbXbXbXxXmXY.x.9X_.tXnXxXbXxXbXbXbXbXbXxXbXcXzXcX+XT r _.2Xc.> r.v.q.D.",
"!.d.k.k.k.k.f.g.g.C.i.$ { %XpXbXbXxXbXmXm x.gX8XtXpXmXmXnXbXbXbXxXbXxXxXbXnXnX&XE a 4X(.v b f.M.v.F.",
"Z.f.k.k.g.k.k.k.k.M.9.1 %XcXnXbXbXxXcXbX} x.0XgX7X&XzXuXpXzXbXbXbXbXbXxXxXxXxXiXE.= `.c g A.v.v.v.Z.",
"Z.d.g.g.g.g.g.g.f.C.9.1 tXbXxXbXbXbXbXvX*.Y 5X0X5X6X%XV -.rXbXbXxXnXbXmXbXxXxXNX#X. # 9.B.f.g.g.b.F.",
"Z.t.v.t.t.v.t.v.f.M.7.> %XaXnXxXxXbXnXxXjXXXN d a 3 F rXkXzXxXcXbXxXxXxXmXmXmX].q $ 9.g.g.g.g.g.r.F.",
"Z.r.v.v.v.a.v.v.f.v.0.x } %XzXnXnXbXxXxXNXuX.X[.].OXOXmXnXnXnXbXbXnXnXMXtX{.tXl   7.f.v.g.f.f.v.b.W.",
"m.t.b.t.t.v.v.t.g.f.g.v.% I %XuXjXcXnXnXxXnXNXNXmXmXbXzXzXzXzXzXzXlXuXkX].a 3Xl.x s.a.f.g.f.a.g.r.D.",
"m.t.v.r.b.a.b.r.a.a.g.s.; M V V  XiXNXnXnXnXmXnXrX@X&X&X&X&X&X&X&X@XS , l.5XdX5Xx.$ a.b.a.a.a.g.b.W.",
"m.0.r.r.t.b.0.r.0.p.7.s c.5X9X9X|. .| U Y.| | | P K P P l K K K P l 5 . ).gXgXgX`.  0.v.a.v.a.a.0.D.",
"n.8.0.0.r.0.0.8.0.0.7.j x.;X2X;XH 2 t : % % & & t y e t t g g u y i j i z.2X`.2X(.g 0.a.r.0.a.a.b m.",
"v.r.b.0.r.b.a.r.0.0.p.a.:       + x v.v.a.7.8.0.0.8.b u.N.b.v.v.a.g.g.a.z   X   g v.9.0.0.9.8.0.0.W.",
"m.0.b.r.r.b.a.a.a.a.a.a.s.a.a.s.p.p.a.a.a.8.b b b x 7.v.v.b.0.b.p.a.p.p.a.g.a.a.a.0.p.a.a.p.p.a.0.W.",
"n.0.b.0.0.b.0.r.r.0.b.w.b.w.b.q.b.8.0.b.w.w.5.b b 5.b.v.8.r.r.r.p.p.0.p.p.0.a.r.a.r.p.p.p.r.p.b.5.Z.",
"Z.b.b.b.b.b.b.b.b.b.b.b.b.b.b.b.b.b.b.b.b.b.b.9.b b.v.b.b.b.b.b.b.b.b.b.b.b.b.b.b.b.b.b.b.b.b.n.b.Q."
};
