/* XPM */
static char *result[] = {
/* columns rows colors chars-per-pixel */
"50 50 234 2 ",
"   c black",
".  c #000016",
"X  c #3C0000",
"o  c #390B00",
"O  c #290A12",
"+  c #000026",
"@  c #07072B",
"#  c #14023F",
"$  c #2A1539",
"%  c #1F272E",
"&  c #303239",
"*  c #420000",
"=  c #4D0100",
"-  c #570000",
";  c #5A0000",
":  c #461802",
">  c #4B1113",
",  c #670300",
"<  c #740500",
"1  c #572D0D",
"2  c #6E3300",
"3  c #5C202A",
"4  c #493335",
"5  c #523231",
"6  c #744F0E",
"7  c #725230",
"8  c #7E663D",
"9  c #180742",
"0  c #0A104C",
"q  c #151B4C",
"w  c #1A2B55",
"e  c #12235A",
"r  c #262B55",
"t  c #2B3356",
"y  c #303450",
"u  c #343B62",
"i  c #4C184B",
"p  c #4A334D",
"a  c #6B374C",
"s  c #6D3D65",
"d  c #3A4658",
"f  c #355278",
"g  c #454759",
"h  c #584955",
"j  c #62504B",
"k  c #716459",
"l  c #47546A",
"z  c #475B78",
"x  c #555471",
"c  c #6F556A",
"v  c #7C5876",
"b  c #4C607E",
"n  c #54627D",
"m  c #717070",
"M  c #8F1905",
"N  c #892A00",
"B  c #9B3903",
"V  c #925402",
"C  c #A74902",
"Z  c #A94C19",
"A  c #B45212",
"S  c #956E0A",
"D  c #A87D0E",
"F  c #924729",
"G  c #A34C28",
"H  c #AE4D2B",
"J  c #B5582B",
"K  c #B35B35",
"L  c #906E35",
"P  c #BB613E",
"I  c #C46C37",
"U  c #885050",
"Y  c #AB5E4C",
"T  c #99774A",
"R  c #8C7052",
"E  c #B87055",
"W  c #865B6E",
"Q  c #986367",
"!  c #89667A",
"~  c #8F7270",
"^  c #837B78",
"/  c #BA6A6B",
"(  c #C96B46",
")  c #D77A57",
"_  c #A78000",
"`  c #B88A06",
"'  c #B88D28",
"]  c #C88C07",
"[  c #EBB60D",
"{  c #C89A29",
"}  c #CC9535",
"|  c #D5A22D",
" . c #DAA73A",
".. c #ECB729",
"X. c #E4AE3E",
"o. c #E9B73D",
"O. c #9D825B",
"+. c #A08856",
"@. c #99846D",
"#. c #8C837D",
"$. c #B29072",
"%. c #CC9544",
"&. c #E5B242",
"*. c #EAB743",
"=. c #ECB942",
"-. c #ECBA49",
";. c #F1BE45",
":. c #F2BF4D",
">. c #D29B64",
",. c #F6C34A",
"<. c #F0C055",
"1. c #EAC272",
"2. c #4D5F81",
"3. c #795087",
"4. c #4B6488",
"5. c #526583",
"6. c #566786",
"7. c #556C8D",
"8. c #5A6E8C",
"9. c #5D718E",
"0. c #4C6D93",
"q. c #566D91",
"w. c #596E92",
"e. c #5C7292",
"r. c #567399",
"t. c #5E759B",
"y. c #636A86",
"u. c #776E86",
"i. c #617594",
"p. c #647996",
"a. c #617699",
"s. c #667B9B",
"d. c #697D9C",
"f. c #537CA4",
"g. c #647CA1",
"h. c #697EA1",
"j. c #865E8A",
"k. c #8A6886",
"l. c #947191",
"z. c #A27AAB",
"x. c #77849B",
"c. c #5E82A9",
"v. c #6C82A4",
"b. c #6A84AB",
"n. c #6C84AA",
"m. c #7D8CA3",
"M. c #7186AA",
"N. c #7289AD",
"B. c #7889A8",
"V. c #6F89B0",
"C. c #758DB2",
"Z. c #788FB3",
"A. c #7991B6",
"S. c #7792BA",
"D. c #7D95BC",
"F. c #8C8582",
"G. c #908E93",
"H. c #9C9995",
"J. c #AE938B",
"K. c #A49D97",
"L. c #B7A68B",
"P. c #A7A199",
"I. c #818EA5",
"U. c #8491A6",
"Y. c #8392AC",
"T. c #8595B2",
"R. c #8698B6",
"E. c #899AB6",
"W. c #8097BE",
"Q. c #8098BF",
"!. c #8B9DBB",
"~. c #959FB0",
"^. c #AD86B2",
"/. c #B28BB1",
"(. c #8FA0BE",
"). c #97A1B1",
"_. c #B2ADA7",
"`. c #BCBAB4",
"'. c #BEBEBA",
"]. c #C99988",
"[. c #C29E94",
"{. c #CCB38F",
"}. c #E8B787",
"|. c #C991B3",
" X c #D5B5A7",
".X c #C0BFBA",
"XX c #F0CB86",
"oX c #E5C998",
"OX c #D7C3AA",
"+X c #C4C2BD",
"@X c #D7CCB8",
"#X c #E5CBA6",
"$X c #EBD2A6",
"%X c #E2CAB8",
"&X c #EBD7B7",
"*X c #F2DDB9",
"=X c #F5E1BE",
"-X c #829AC1",
";X c #BD94C0",
":X c #8FA2C3",
">X c #91A4C3",
",X c #C59AC9",
"<X c #CC99D5",
"1X c #CDAACF",
"2X c #CCA3D4",
"3X c #D3A9DA",
"4X c #DAAEE2",
"5X c #DDB3E3",
"6X c #E4B9EA",
"7X c #EABEF1",
"8X c #D3CEC7",
"9X c #D5D2CC",
"0X c #D8CDD4",
"qX c #E8DAC6",
"wX c #E6DED5",
"eX c #ECE1CC",
"rX c #F4E4C6",
"tX c #E7E2D9",
"yX c #F5E9D4",
"uX c #F3ECDC",
"iX c #F9F0DC",
"pX c #DBC3E0",
"aX c #EDC1F3",
"sX c #F4C8FB",
"dX c #EEEAE1",
"fX c #F3EEE5",
"gX c #FAF5E7",
"hX c #F5F5EE",
"jX c #FAF5EB",
"kX c #F7F7F0",
"lX c #FAF7F4",
"zX c #F7F8F3",
"xX c #FAFBF4",
"cX c #FEFFF9",
/* pixels */
":XS.D.S.D.W.W.D.-XW.W.A.l.C 7 6 7 V 6 5 v.S.D.n.b.Z.D.S.S.D.S.C.S.-X-X-XW.W.S.-XW.-XW.W.S.W.S.S.S.>X",
">XS.W.W.D.D.D.W.D.S.-Xl < I =.=.;.;.&.H - g.W.g.t.n.Q.Q.D.D.D.-X-XS.W.S.A.W.W.W.W.S.W.S.-XD.W.W.S.>X",
":XS.D.D.D.D.D.D.D.T.u %.-.*.*.=.=.=.*.&.&.L f n.t.t.b.Q.-XD.D.D.W.W.S.W.W.-XS.S.W.S.S.W.D.D.D.W.S.>X",
":XS.D.D.D.D.D.D.D.D.y 6 S _ ,.o.*.=.=.=.-.| L 5.C.g.g.h.C.C.S.S.Z.A.W.W.Z.C.W.W.W.W.Z.W.D.D.D.W.S.>X",
"W.V.C.C.C.Z.Z.C.V.i.2 U 3.k.` *.=.o.=.=.*.,.` q A.h.g.a.h.S.C.C.N.A.S.S.C.A.A.Z.Z.N.C.Z.Z.C.Z.C.N.!.",
"R.h.N.n.N.V.C.C.g.o / |.4X;Xp %.o.=.=.o.o.;.' q V.b.h.g.t.h.C.C.Z.Z.h.h.g.h.h.s.S.h.n.V.C.C.n.V.h.!.",
"-XA.A.C.C.C.Z.S.v.> 5XsX4X;X,Xi { ,.:.:.-.,.' r M.h.h.M.t.t.h.S.S.h.X : : : : 5 Z.Z.N.A.D.A.C.Z.C.:X",
"-XZ.A.A.Z.A.A.S.C.O 5XsXaX6X,X4 N ] =.oXfXXX` + $ 9 + 2.C.g.g.S.w.> H  .X.X.&. .p + y.-XZ.A.A.A.S.:X",
"(.C.A.A.A.A.A.D.M.> 6XsXaX6X,Xz.].#XyXuXzXfXoX] } } { T e u e d T | %.=.;.=.=.=.{ { T 4.S.A.A.A.C.:X",
"(.C.D.Z.A.A.C.A.v.* |.aXsXaX,XpXwXiXxXzXhXxXrX<.,.,.,.| S _ D O D ,.;.;.=.=.=.=.:.<.] 3 G.Z.Z.A.V.:X",
"!.C.Z.Z.Z.Z.Z.A.M.h M |.6X3X1XhXzXkXhXkXhXzXuX#Xo.*.*.=.;.,.,.L ' :.*.=.=.=.=.=.=.;. .A G Z.A.A.N.!.",
"E.C.Z.C.C.Z.C.Z.C.N.y V N m xXjXhXhXhXhXhXhXlXuXo.=.=.=.=.=.o.;.o.*.=.=.o.*.-.*.*.*.<.| $ Z.C.Z.V.:X",
"!.V.C.C.C.C.D.i.o O 5   H.hXkXF.5 +XfXE fXlXlXfXoX:.=.=.=.=.=.=.=.=.=.*.,.' o 1 2 o ' &.# Z.Z.A.V.:X",
"!.V.C.C.C.A.8.v ^.;XO O.qXjX&X:   h F.2 ].tXxXhXuX*...;.=.=.=.=.=.=.=.;._ ~ ^.^.z.z.~ 6 p Z.N.A.V.!.",
"!.V.Z.C.N.D.d k.aXsX/.J.@XhXqX_._.J.L   < 9XxXkXkX*X1...-.=.=.o.=.o.=.:.` J.2X<X4X6X;Xk.& B.C.C.V.!.",
"R.b.n.C.N.A.d l.aX7XsX3.H.cXzXxXcXgX#X^   8XxXkXkXlX$X..=.=.=.=.=.=.=.*.o.}.,X3XaXaXsX3XO N.N.N.h.!.",
"A.g.v.v.h.N.d j.3X7X3Xs P.cXhXhXkXhXkXkX7 8XlXhXzXzXqXXXo.*.=.*.=.=.o.=.*.[ }.7X7X7XsX2XO b.h.v.t.Y.",
"T.h.N.n.h.Z.t K.lXhXlXF.H.cXhXkXkXkXzXhXZ 8XcXlXzXhXhXwX1.,.-.[ ..;.=.=.=.=. ./ 7X7X6X/.o N.V.n.v.R.",
"R.b.C.n.N.S.r P.cXkXcX$.L.cXhXhXxXuXqXkXqXhX8XH.lXkXkXzXeXL V qXOXV %.-.=.,.| H sXsX,Xs s.V.N.N.b.E.",
"R.n.N.N.N.N.9 P.cXhXcX X XcXhXkXwX%XyXkXxXcX9X_.zXkXlXwXH.    P.G.  F %.*.=.X.%././.l.f Z.N.N.C.b.E.",
"R.b.N.n.v.t.@ P.cXhXkXeXyXzXhXcX$.[.cXhXhXfXgXcXlXhXcX+Xj #.#.k 7 - O M  .o.o.o.:   l h.n.V.n.V.b.E.",
"R.v.N.n.w.t.9 P.cXhXhXlXkXkXhXcXF.K.xXhXkX&XqXlXhXhXzXkXxXxXzXcX%XB 5 O  .<.-.o.1 9.a.7.a.N.M.N.b.E.",
"R.b.n.w.7.S.u K.cXhXlXhXkXkXhXcXk.T yXzXcX]. XcXhXhXhXxXxXhXhXhXlXqXM   8XxXiX$X1 q.c.f.w.t.n.M.b.R.",
"R.g.e.q.C.C.$ P.cXhXkXkXkXkXhXkXtX_.R G.H.5 L.yXcXcXcX9XH.cXhXhXzXgXqX9XqX X/ E 1 U Y Q r.q.g.M.b.Z.",
"B.r.w.h.M.h.9 K.cXhXkXkXkXkXkXhXcX+X  < < < T L.`.`.'.J.L.zXhXzXhXzXcXcXuX%X X X5 U Q ! t.w.q.s.t.m.",
"d.4.g.A.i.g.9 K.cXhXkXkXkXkXkXhXcX+X- P J J B X =   p L.rXhXzXzXkXkXjXhXhXuXdXwX5 4.f.r.a.a.q.8.4.x.",
"m.2.t.h.i.a.9 K.xXhXkXkXkXkXkXhXcX+X* K H Z J J K = 9XcXzXhXhXzXkXkXhXzX=X>.B C = 6.d.i.w.w.q.w.0.x.",
"T.r.7.w.a.d.r @.qXhXkXkXkXkXkXhXcX'.* K A Z H Z 5 }.uXxXhXhXzXhXkXkXkXkXhXhXuXoX5 B ! f.i.q.8.B.v.B.",
"R.h.a.7.w.g.r T *XkXkXkXkXkXkXhXcX.X* J ( ( I B . tXgXkXhXkXkXkXhXzXkXkXlXcXtXR n u.Q Q 0.8.M.C.v.T.",
"T.h.h.a.7.t.r @.*XkXkXkXkXkXkXkXcX.X= ( ) ) P F $.fXzXkXzXkXkXkXzXkXkXkXkXhX@X  p.c.m W r.v.N.v.g.T.",
"T.g.M.h.e.w.q O.*XkXkXkXkXkXkXhXcX'.- ) ( ) F k rXgXkXkXkXkXkXkXkXkXkXkXxXqX$.g a.p.7.0.v.N.v.n.g.Y.",
"Y.g.v.h.h.a.q O.*XkXkXkXkXkXkXkXcX+X- ) ) %.G ^ zXhXkXkXkXkXkXkXkXkXkXkXcX_.. h.w.w.6.v.B.v.v.v.g.T.",
"Y.g.h.h.h.h.t @.*XlXhXkXkXkXkXhXcX1X- ) ) F O.&XkXkXkXkXkXkXkXkXkXkXkXxX].M g e.7.7.h.N.v.v.v.v.v.Z.",
"T.g.h.h.h.B.u T *XlXlXhXkXkXkXhXcX'.- %.) ; K.jXkXkXkXkXzXjXkXkXkXkXkXkXtXH.  p.5.h.M.v.h.v.h.v.s.Y.",
"Y.g.h.M.h.Z.t +.*XlXlXlXkXkXkXhXcX'.; ) Y T @XlXhXkXkXkXkXkXkXkXkXkXkXhXcXtXH.t s.N.v.h.h.h.v.v.v.Y.",
"I.a.h.h.8.i.x ~ #XlXhXhXkXkXkXhXcX+X; >.   XiXkXhXkXkXkXkXkXkXkXkXkXzXkXhXkXwXv d.a.h.d.d.h.h.d.t.Y.",
"B.w.w.6.5 * ^./.E hXkXlXkXkXkXhXcX+X, ) 1 9XcXhXzXzXkXkXkXkXkXkXkXkXkXkXxX0X<XaX3 5.h.i.p.a.a.a.q.m.",
"I.g.z c 7X6X7X5X|.E fXcXzXkXhXhXkXyX>.o wXkXhXkXkXhXkXkXkXkXkXhXzXiX$XxXpX4XsX6X5 6.h.a.p.a.i.h.t.m.",
"Y.h.z a 4X7XsX3Xa C #.^ {.yXcXzXxXhXtX9XjXlXhXkXkXkXkXkXkXkXkXhXcXtXR #.c v ! ! y.g.h.h.s.s.s.h.p.U.",
"I.g.i.c k.^.|.l.x ~ l w k $.`.yXyXgXcXcXkXkXkXkXkXkXkXkXkXkXkXzXgX@X  u x l d l g.h.d.h.h.h.h.h.c.U.",
"U.e.v.p.& %   l B.s.n.B.6.+ @ >.{.OXwXiXzXzXkXkXkXkXkXzXhXzXzXzX&X$.g B.B.v.v.v.d.d.d.p.d.d.d.d.9.U.",
"m.p.d.d.v.v.v.v.d.d.s.d.v.v.h.$ O   7 OXuXhXhXlXkXhXkXzXhXfXhX&X@.0 B.p.p.d.p.v.d.d.d.d.d.d.d.d.c.U.",
"Y.t.v.p.d.d.p.p.d.p.d.d.d.d.d.e.b b b 7 & {.yXcXxXxXzXzXkX$Xk : k b.s.v.v.p.p.p.s.d.d.d.s.d.d.d.9.m.",
"m.e.d.p.p.d.v.s.p.d.d.p.s.d.d.d.9.b b z z k R F.#.#.#.#.^ 8 C c t.v.p.p.v.p.v.p.s.d.d.p.s.p.p.d.c.G.",
"U.e.v.p.p.s.p.p.p.p.p.p.p.p.s.p.v.8.b n 9.f t y y y   i j.j.M u.n.p.p.v.p.v.p.p.p.p.d.p.p.d.p.d.c.x.",
"m.e.p.9.p.p.p.9.9.9.p.p.e.e.p.p.9.v.8.b n 9.e.e.8.p.& l.6X3Xk.y.9.p.p.9.p.p.p.p.p.p.p.p.p.p.p.p.9.m.",
"x.4.9.8.9.9.9.8.9.9.9.9.9.9.e.i.9.9.e.n b b n 5.n 8.% ^.aX7XsXk.y p.9.8.9.9.p.p.e.i.i.p.i.e.p.d.b x.",
"m.e.p.9.p.p.p.p.p.9.i.p.p.i.i.p.9.9.v.v.9.b b 8.9.n b y k.sX3Xv d v.p.e.9.p.p.i.p.9.9.9.9.9.9.9.c.m.",
"x.7.e.q.e.e.q.e.7.7.9.e.e.q.e.e.7.e.c.9.7.b z f z f b n n v j x n 9.9.7.e.c.8.7.9.9.7.9.7.7.c.n 5.m.",
").m.U.U.U.U.U.m.U.U.m.U.U.m.U.U.U.m.U.m.m.U.x.x.x.x.m.~.m.m m m.U.U.U.U.m.U.U.m.U.U.m.U.U.m.U.U.m.)."
};
