/* XPM */
static char *result[] = {
/* columns rows colors chars-per-pixel */
"50 50 240 2 ",
"   c #000001",
".  c #0B0000",
"X  c #160000",
"o  c #000018",
"O  c #240000",
"+  c #2C0002",
"@  c #360300",
"#  c #381505",
"$  c #0A072D",
"%  c #060037",
"&  c #240F2E",
"*  c #28272C",
"=  c #450200",
"-  c #570E07",
";  c #451909",
":  c #441A17",
">  c #431C14",
",  c #640000",
"<  c #771000",
"1  c #552E0C",
"2  c #712F0A",
"3  c #603500",
"4  c #633B00",
"5  c #4B1329",
"6  c #7F1035",
"7  c #492726",
"8  c #573834",
"9  c #684300",
"0  c #78540C",
"q  c #79561D",
"w  c #534632",
"e  c #6F4D21",
"r  c #000046",
"t  c #001B52",
"y  c #112E54",
"u  c #313052",
"i  c #4E384C",
"p  c #5C3456",
"a  c #294659",
"s  c #354252",
"d  c #3C4556",
"f  c #3F536D",
"g  c #4D4653",
"h  c #534856",
"j  c #745B58",
"k  c #7A6047",
"l  c #514D66",
"z  c #455168",
"x  c #455877",
"c  c #4C5D7C",
"v  c #545D77",
"b  c #694D66",
"n  c #7C566A",
"m  c #6F5573",
"M  c #785972",
"N  c #4D617E",
"B  c #52607C",
"V  c #6E646F",
"C  c #9B0509",
"Z  c #912A00",
"A  c #A83C00",
"S  c #9E2A24",
"D  c #8E5412",
"F  c #A94300",
"G  c #B34C02",
"H  c #936800",
"J  c #A77D1B",
"K  c #904B2D",
"L  c #B45730",
"P  c #8C682E",
"I  c #9C7528",
"U  c #B86A2B",
"Y  c #A67D29",
"T  c #B96D32",
"R  c #C17137",
"E  c #975655",
"W  c #B0584B",
"Q  c #AE7953",
"!  c #905E62",
"~  c #825D77",
"^  c #8D6C70",
"/  c #87647C",
"(  c #BC6A6F",
")  c #C5716C",
"_  c #B4890E",
"`  c #AE842E",
"'  c #AA8336",
"]  c #BF9337",
"[  c #CB9108",
"{  c #DFA900",
"}  c #EAB200",
"|  c #EBB411",
" . c #C8972C",
".. c #D58F39",
"X. c #C89A36",
"o. c #CFA138",
"O. c #D1A33A",
"+. c #D6A639",
"@. c #DCAB3D",
"#. c #E7AF39",
"$. c #EAB73A",
"%. c #F4C034",
"&. c #A38866",
"*. c #B38D77",
"=. c #B99E74",
"-. c #D9A941",
";. c #DCAF52",
":. c #E5B444",
">. c #E9B742",
",. c #ECB942",
"<. c #EBBA4B",
"1. c #F1BE44",
"2. c #F1BE49",
"3. c #EBBD5A",
"4. c #C89570",
"5. c #D0AC7A",
"6. c #EAB86C",
"7. c #F5C145",
"8. c #F8C349",
"9. c #F1C15D",
"0. c #EBC272",
"q. c #3E5D84",
"w. c #7C5A8C",
"e. c #4B6487",
"r. c #526583",
"t. c #556986",
"y. c #586887",
"u. c #546B8C",
"i. c #5A6E8C",
"p. c #55708E",
"a. c #5C718E",
"s. c #566D93",
"d. c #5A6E92",
"f. c #4B769F",
"g. c #5E7392",
"h. c #587799",
"j. c #5E759A",
"k. c #736C88",
"l. c #67738B",
"z. c #617694",
"x. c #657996",
"c. c #697995",
"v. c #627799",
"b. c #657A9B",
"n. c #697D9D",
"m. c #737D9B",
"M. c #5B7EA6",
"N. c #657CA2",
"B. c #697EA1",
"V. c #8B6888",
"C. c #84758B",
"Z. c #937388",
"A. c #987395",
"S. c #A572A0",
"D. c #A37CA6",
"F. c #6D819F",
"G. c #75849A",
"H. c #78859B",
"J. c #6C81A5",
"K. c #6683AA",
"L. c #6C84AA",
"P. c #7586A4",
"I. c #7C8BA4",
"U. c #7187AB",
"Y. c #7289AD",
"T. c #778DAF",
"R. c #7D8DAA",
"E. c #758DB2",
"W. c #788FB4",
"Q. c #758FBA",
"!. c #7991B6",
"~. c #7492B9",
"^. c #7C94BB",
"/. c #888483",
"(. c #96918D",
"). c #AB968B",
"_. c #A8A39E",
"`. c #838EA8",
"'. c #8E98A7",
"]. c #8291AC",
"[. c #8395B2",
"{. c #8598B9",
"}. c #8399BE",
"|. c #8A9CBA",
" X c #AE86B4",
".X c #B28AB6",
"XX c #B6B2AC",
"oX c #CEAD8D",
"OX c #D7BA8A",
"+X c #D7BC91",
"@X c #C99DBD",
"#X c #CEB8AC",
"$X c #DAC296",
"%X c #EAC787",
"&X c #E8CA98",
"*X c #F0D099",
"=X c #DBC5B7",
"-X c #D1C8B6",
";X c #ECD3A7",
":X c #ECD4A9",
">X c #EAD8B8",
",X c #F3DDB8",
"<X c #849BC1",
"1X c #BC91C0",
"2X c #8DA1C4",
"3X c #93A5C4",
"4X c #C59ACA",
"5X c #CA9FD1",
"6X c #D4AFCD",
"7X c #CDA3D3",
"8X c #D6AADB",
"9X c #D4AAE0",
"0X c #DEB3E7",
"qX c #E7BBED",
"wX c #EABFF1",
"eX c #D3CBC4",
"rX c #DCDAD5",
"tX c #E8D9C8",
"yX c #F2DFC0",
"uX c #E7DCD4",
"iX c #EEE3CC",
"pX c #F3E3C5",
"aX c #F6E8CB",
"sX c #E9E4DA",
"dX c #F5EAD5",
"fX c #F2E9D8",
"gX c #ECC0E9",
"hX c #EDC2F4",
"jX c #EDC3F8",
"kX c #F1C5FA",
"lX c #F6C9FB",
"zX c #EBEAE4",
"xX c #F2EEE3",
"cX c #F6F5EE",
"vX c #F8F4E8",
"bX c #F7F7F0",
"nX c #F7F8F3",
"mX c #FAFBF5",
"MX c #F7FBF9",
"NX c #FDFEFA",
/* pixels */
"3X^.}.^.}.}.<X}.<X<X<X<X}.}.}.}.<X<X}.<X<X<X<XE.U.!.<X^.<X<X!.!.<X<X<X<X<X<X<X<X<X<X<X}.<X<X}.}.^.3X",
"3X~.}.^.^.^.^.^.^.^.^.^.^.^.^.^.^.^.^.Q.Q.^.E.N.j.B.^.^.Q.^.^.<X^.^.^.^.^.^.^.^.^.^.^.^.^.^.^.^.Q.2X",
"3XQ.}.^.^.^.^.^.^.}.^.}.^.^.}.}.^.Q.<X<X<X<XB.B.N.M.N.^.<X<X<X<X<X<X}.^.^.^.^.^.<X^.^.^.^.^.^.<X^.3X",
"3X~.^.^.^.^.^.^.^.^.^.^.Q.^.Q.^.}.<XU.d.d.e.e.d.s.V.m.N.d.d.d.d.g.d.E.^.Q.W.<X^.^.^.!.^.^.^.^.^.Q.2X",
"}.L.Y.E.E.Q.E.E.Y.E.W.~.^.!.!.Y.U.Y.V 1 3 3 4 3 1 G / r.2 3 3 3 3 3 k.E.B.B.E.Q.E.E.E.W.E.E.E.E.L.{.",
"{.L.U.L.U.Y.E.Y.L.L.U.E.W.E.^.J.& o ' ,.:.:.:.,.<.2 o P :.:.:.-.:.,.P o i E.E.Q.E.U.L.Y.E.E.U.U.L.[.",
"|.E.^.E.E.E.W.Q.W.E.E.E.Y.^.j.j .. .@.1.,.,.8.@.q X.X.+.1.,.,.1.$.1.+.X.] l B.<XQ.W.Y.W.^.!.W.W.E.<X",
"|.Q.!.W.W.!.~.W.~.~.E.!.!.F.p D 1.1.1.>.>.,.+.Y I >.1.1.>.>.>.>.>.1.7.8.<.< ! '.Q.W.Q.!.Q.!.Q.W.Q.|.",
"|.E.~.W.W.!.W.!.!.!.!.!.^.u Z ..>.>.>.,.$.7.P e 8.$.>.>.,.<.$.,.:.@.@.@.+.R G ^ ~.W.!.!.W.W.!.!.E.{.",
"|.E.!.W.W.W.!.!.W.W.W.~.}.y _ <.>.,.,.7.,.7.Y q ,.,.,.,.,.$.<.7.:.3 @ + 4 <.H x ^.W.W.W.W.W.R.!.E.{.",
"{.Y.!.W.W.W.E.!.W.W.T.~.Q.u _ 7.7.8.] 1 q q Z T ,.,.,.,.>.7._ 9 q  X X XD.0 = v ^.T.W.W.W.W.!.!.E.|.",
"|.E.W.W.W.E.W.E.~.W.Y.W.E.t _ <.` ` ` I I I ` ..,.,.,.,.,. .^ w.V.4X5X8X8X Xi v !.~.W.Y.~.~.Y.!.Y.{.",
"{.Y.W.E.E.E.W.E.T.~.~.E.N.r J o.1 > ] 8.1.7.1.1.>.,.,.>.-.X D.8X5X5X5X9XlXlXV.d ^.T.~.Y.W.E.E.W.Y.{.",
"{.Y.W.Y.Y.E.E.E.Y.Y.Y.j.j.i   q 7.,.$.$.>.>.$.,.,.>.1.X.o O D.5X4XwXwXwXhXhX/ z !.T.~.T.E.W.Y.W.E.{.",
"|.E.E.E.E.Y.E.Y.T.Y.J.g.r ] +.O.,.,.,.,.>.>.,.,.,.,.,.:.o.-.P A.hXhXhXwXwXkX/ z !.Y.Y.Y.E.Y.E.E.L.{.",
"].K.L.L.U.U.L.Y.U.J.e.l ` #.7.7.,.,.,.,.1.>.,.>.,.,.>.>.1.3.[ ).0XwXwXhXhXqX~ d W.L.Y.Y.L.K.J.J.K.W.",
"R.N.J.K.N.L.Y.B.v.u.V H 2.1.>.>.,.,.,.,.,.>.,.,.,.,.,.,.$.:.%.6.@XwXwXqX8X.Xb z B.U.L.N.J.K.J.J.N.R.",
"[.L.Y.L.L.Y.Y.N.z.t J 2.:.>.>.,.,.,.,.>.,.>.,.,.,.,.>.,.,.,.:.$.3.qXlX6XA - r.N.s.B.U.U.U.Y.Y.L.K.!.",
"{.K.E.U.Y.Y.v.u.i =.>XdX} >.2.,.,.,.,.,.>.>.>.$.,.,.,.,.,.,.,.,.>.( ( E @ = a.B.s.s.B.Q.Y.Y.Y.Y.L.[.",
"{.J.U.U.E.v.g.v.  -XvXcX,X3.} $.,.,.>.,.1.1.1.1.>.,.,.,.,.,.,.,.#.[ [  .Y @ d.B.N.j.s.B.Y.U.Y.Y.K.[.",
"[.J.Y.Y.v.s.v.z.k rXNXcXNX;X6.3.$.$.7.:.o.o.O.@.,.,.1.>.,.,.,.,.,.<.7.8.$.2 v g.N.v.g.s.K.Y.L.Y.K.[.",
"[.K.U.b.u.K.y.e ;XfXnXnXcXmXfX&X<.>.7.-.. +   D ,.,.<.<.<.<.<.<.<.,.>.,.#.L , f B.N.v.p.g.N.Y.L.J.[.",
"{.N.N.s.j.~.q.8 xXbXcXbXbXbXcXxXxX,X&.X 8 7 7 * 3 { } } } } } } } $.,.,.$.>.H f J.K.K.K.d.s.J.Y.L.R.",
"[.j.d.g.Q.C.Q oXcXbXcXbXbXcXbXcXdX=.XXXX    - D =.>XpXpXpXaXaXpX,X%X<.$.,.7.D r l u ! k.f.d.s.J.K.P.",
"P.e.v.E.N.S *.dXcXbXbXbXbXcXmXxXOXO _.rX^ Z.).+XpXMXbXxXgXiXuXzXmXtX%X<.,.,.` 4 - / K E k.v.s.i.s.n.",
"m.e.v.U.b.$ _.NXcXbXcXbXbXcXNXsXO h X ^ NXnXcXbXbXbXtX6.F L , (.mXbXiX%X$.,.8._ p wXV.< W g.s.u.e.c.",
"R.s.s.j.n.% _.nXcXbXbXbXcXMX=XZ   eXxXzXnXnXcXbXcX) A ).xXzXzXzXbXcXnX,X} <.7._ u 5X4XV.7 h.u.U.N.m.",
"[.N.d.u.b.$ _.NXbXbXcXbXbXnXuX#XeXcXmXbXbXnXbXbXbXeX=XsXNXNXNXmXbXbXMXpX} <.2. .6 w.4XD.  d.n.Y.L.R.",
"].N.J.a.g.% (.iXfXcXbXbXbXbXbXNXMXcXcXcXbXbXbXbXcXvXsXuXtXtXeXrXmXcXMXpX} <.$.@.U O A.V.s n.E.P.N.].",
"[.N.J.J.d.u < T &XxXbXbXbXbXvXcXcXcXcXcXcXnXbXbXvX:X4.A L L , (.mXvXbXyX} <.>.7.@.7 X g F.T.J.J.N.R.",
"].N.J.J.J.% Q >XxXcXbXbXbXcXbXNXNXMXfX;X:XxXbXbXbXvXxXxXxXxXzXbXnXmXiX%X$.<.>.,.@.; e.U.I.U.K.J.B.R.",
"].N.J.J.J.h.V *.NXmXcXbXNXNXtX).(.&.).:XfXvXbXbXbXnXmXmXMXnXnXMXvXyX%X$.| $.,.2.@.> * u s y ! Z.M.R.",
"].N.J.J.B.Y.u.h 6XsXvXcXeXtXoXQ (./.#XdXnXbXcXbXbXcXcXcXcXcXcXbXvXpX;X*X*X0.$.$.@.; V.Z.A.A.D ^ K.I.",
"].b.J.J.B.B.U.b.  =.pXuX& C 4.pXmXNXnXbXbXbXbXbXbXbXbXbXbXbXbXbXnXbXMXnXcX>X0.9.;.@ 8XlXjXhXm x K.R.",
"`.v.J.n.B.B.B.B.F.h 1 V wXwX8X6XbXvXvXbXcXbXcXbXbXcXbXbXbXcXbXbXbXbXcXcXbXvXcXaXOX@ 7XlX0X5 y.m.v.I.",
"P.s.z.g.z.v.b.b.b.i.& i 0XwXwXwX0XbXNXbXmXbXbXbXbXbXbXbXbXbXbXbXbXbXbXbXbXbXnXbXtX# 4X4Xn r.g.b.s.P.",
"`.j.b.b.N.b.v.b.n.U.i.l S..X4X.XS.#XiXdXiXcXbXcXbXbXbXcXnXcXnXcXbXbXbXcXbXbXcXcXtX# V./ a n.v.n.h.P.",
"R.N.B.n.B.B.b.B.B.n.m.g.+   X 0 U L oX;X:XvXbXbXbXbXbXcXbXbXcXnXbXcXbXbXnXvXnXuX5.8 O B U.x.n.B.F.P.",
"`.v.J.n.n.B.n.B.B.B.F.n.c.$ *.:X&XzXcXbXbXbXbXcXbXbXbXbXbXcXcXcXbXcXbXcXcXcXNXeX= G k.J.n.B.B.B.F.I.",
"R.v.F.n.n.n.n.n.n.n.n.n.F.a.V ).vXMXMXcXbXbXcXcXvXcXcXnXnXnXnXnXnXnXnXnXmXNXXXw + C.m.n.n.n.n.n.j.I.",
"I.j.F.F.F.b.b.b.n.n.n.n.F.y.5 K tX=XtXxXmXmXmXmXmXmXvXdXdXdXdXdXdXdXdXtXeX=XZ.M C.r.x.n.n.n.n.n.h.I.",
"`.h.b.x.x.n.n.F.n.n.n.b.z.g E ) W S ) :XzXsXzXsXsXsX=XOX$X+X+X+X+X+X$X4.C L 4X8X1X= y.B.n.n.b.n.F.H.",
"I.g.F.x.b.b.F.n.n.n.n.l.@  X0XkXwX9XA.. 7 > > > > > > > > 7 > ; > > 7 + b wXlX0X.X: y.n.b.n.x.n.h.H.",
"I.g.F.g.F.x.x.x.z.z.x.x.y.b n / ~ b K K x c v c N B B B x f B i.i.a.u.! A ~ M n b i.c.c.x.x.b.c.F.H.",
"I.p.x.a.x.x.a.a.a.a.z.x.v.z s s s a j ^ r.p.i.p.t.p.a.t.N a.F.F.x.x.F.k.! s s d z x.x.x.x.x.n.x.p.G.",
"H.t.a.a.g.a.a.a.a.a.a.z.a.g.v.n.n.x.v.p.N N N t.t.t.N N t.F.F.p.l.g.a.p.h.x.F.F.x.a.a.z.z.a.z.v.p.G.",
"H.a.x.a.x.x.x.x.a.a.a.z.x.z.a.z.a.a.z.n.a.N N t.i.r.N t.F.x.F.g.a.a.x.g.z.z.z.a.z.a.p.a.a.i.p.a.a.H.",
"I.a.F.x.x.x.x.x.x.x.x.x.x.x.x.x.c.x.z.x.x.a.N N N N t.F.F.x.x.x.x.x.x.F.z.F.x.c.x.x.x.x.x.v.l.c.g.H.",
"H.p.g.g.g.g.g.g.g.g.g.g.F.p.a.l.g.a.F.p.p.a.p.N x e.F.h.g.g.g.g.a.g.a.a.g.g.g.g.g.g.g.g.g.F.a.a.p.G.",
"'.G.H.H.H.H.H.H.H.H.H.H.G.G.G.G.H.H.H.H.G.G.H.l.V G.P.G.H.H.H.H.H.H.H.H.H.H.H.H.H.H.H.H.G.G.G.G.G.'."
};
