/* XPM */
static char *result[] = {
/* columns rows colors chars-per-pixel */
"50 50 236 2 ",
"   c #000000",
".  c #050204",
"X  c #010018",
"o  c #230000",
"O  c #2D0000",
"+  c #370301",
"@  c #340B16",
"#  c #3A2D00",
"$  c #000026",
"%  c #1E0020",
"&  c #020036",
"*  c #18043A",
"=  c #300D2B",
"-  c #302C35",
";  c #490000",
":  c #451C06",
">  c #6D120F",
",  c #582E10",
"<  c #6C3706",
"1  c #411A22",
"2  c #4A282B",
"3  c #673334",
"4  c #5C4718",
"5  c #724B08",
"6  c #6C4C31",
"7  c #101446",
"8  c #1A2A51",
"9  c #2F3357",
"0  c #08396D",
"q  c #333E65",
"w  c #470E46",
"e  c #583B4E",
"r  c #394658",
"t  c #3A456A",
"y  c #574548",
"u  c #484758",
"i  c #6A5555",
"p  c #766B57",
"a  c #494865",
"s  c #55556B",
"d  c #45597A",
"f  c #4A5C7B",
"g  c #695066",
"h  c #4C617E",
"j  c #56637C",
"k  c #776B65",
"l  c #706973",
"z  c #8C0000",
"x  c #A91E0B",
"c  c #8F3107",
"v  c #924E0C",
"b  c #AD4D00",
"n  c #906600",
"m  c #9D7204",
"M  c #A37700",
"N  c #B07B0F",
"B  c #99542F",
"V  c #A9512E",
"C  c #B45526",
"Z  c #B45D35",
"A  c #A67A29",
"S  c #B86931",
"D  c #C4723A",
"F  c #9C3C51",
"G  c #834C4D",
"H  c #8E714F",
"J  c #8D7353",
"K  c #B76847",
"L  c #AF6753",
"P  c #9A5066",
"I  c #896876",
"U  c #907370",
"Y  c #BB7463",
"T  c #CE7351",
"R  c #B88C17",
"E  c #BC902D",
"W  c #B48B3A",
"Q  c #CB9415",
"!  c #D4A204",
"~  c #EAB303",
"^  c #EDB60E",
"/  c #C69929",
"(  c #CB9D33",
")  c #D59637",
"_  c #D6A52C",
"`  c #D7A73B",
"'  c #E2AA3A",
"]  c #ECB730",
"[  c #EAB73C",
"{  c #948573",
"}  c #AC9370",
"|  c #BBA17C",
" . c #DCAB40",
".. c #E5B243",
"X. c #EAB741",
"o. c #EBB942",
"O. c #EBBA4A",
"+. c #F1BD44",
"@. c #F1BE49",
"#. c #EABA52",
"$. c #F3BF51",
"%. c #D19165",
"&. c #E9BE68",
"*. c #F7C347",
"=. c #F4C14B",
"-. c #FDC851",
";. c #EDC472",
":. c #39749E",
">. c #4A5E84",
",. c #4C6588",
"<. c #546785",
"1. c #556B8D",
"2. c #5A6D8B",
"3. c #5C708D",
"4. c #566D92",
"5. c #5A6E91",
"6. c #5D7293",
"7. c #527099",
"8. c #5E759B",
"9. c #656B85",
"0. c #7B6984",
"q. c #60738F",
"w. c #617693",
"e. c #687292",
"r. c #647996",
"t. c #6D7D95",
"y. c #61769A",
"u. c #657A9B",
"i. c #697D9D",
"p. c #707C98",
"a. c #587AA2",
"s. c #647CA2",
"d. c #697EA1",
"f. c #647EA8",
"g. c #926E8B",
"h. c #977499",
"j. c #B8718F",
"k. c #A37CA6",
"l. c #6D819E",
"z. c #74839C",
"x. c #6C82A5",
"c. c #6984AB",
"v. c #6C85AB",
"b. c #7485A6",
"n. c #7989A4",
"m. c #7186AA",
"M. c #7289AD",
"N. c #7C8DAA",
"B. c #7F91AF",
"V. c #6E8AB1",
"C. c #758DB2",
"Z. c #798FB4",
"A. c #738EBA",
"S. c #7A91B6",
"D. c #7791BA",
"F. c #7D94BC",
"G. c #958D88",
"H. c #999790",
"J. c #B59689",
"K. c #B2A798",
"L. c #818DA2",
"P. c #8994A8",
"I. c #8A96AB",
"U. c #8295B4",
"Y. c #8D9BB3",
"T. c #8196BB",
"R. c #8399BD",
"E. c #8999B8",
"W. c #919FB9",
"Q. c #A982AB",
"!. c #AF8EB0",
"~. c #B28BB5",
"^. c #BC93BB",
"/. c #93A2BC",
"(. c #ABA9A7",
"). c #B6B0AD",
"_. c #B6B3AD",
"`. c #CB9F8F",
"'. c #D3B08D",
"]. c #C79BB5",
"[. c #D5B6A9",
"{. c #CAB9B0",
"}. c #DDC397",
"|. c #EBC886",
" X c #EECB93",
".X c #CAC5BE",
"XX c #DCC8BA",
"oX c #E6CDA9",
"OX c #E9D2AB",
"+X c #ECD4AC",
"@X c #EBD8B7",
"#X c #F1DCB9",
"$X c #849CC2",
"%X c #BE8BC5",
"&X c #BC95C2",
"*X c #8EA1C2",
"=X c #99A9C5",
"-X c #A1B0CA",
";X c #C69DC9",
":X c #D49CCA",
">X c #D0A8CC",
",X c #CDA3D3",
"<X c #D3A9D7",
"1X c #EBBED2",
"2X c #D7ADE3",
"3X c #DDB3E4",
"4X c #E4B9EC",
"5X c #EABFF3",
"6X c #CBC9C4",
"7X c #D9C8C7",
"8X c #D9D3C8",
"9X c #DADBD5",
"0X c #E2CFC2",
"qX c #E7D8C9",
"wX c #E3DDD7",
"eX c #EDE1CB",
"rX c #F4E5C9",
"tX c #E9E4DB",
"yX c #F3E7D1",
"uX c #F4EAD4",
"iX c #F3EBDB",
"pX c #FCF0D9",
"aX c #EEC3F4",
"sX c #F6CAFD",
"dX c #F0D6F4",
"fX c #EBE9E5",
"gX c #F3EEE4",
"hX c #F2EEE9",
"jX c #F5F1E5",
"kX c #F5F5EE",
"lX c #FAF6EA",
"zX c #F6F7F0",
"xX c #F8F7F0",
"cX c #F7F8F3",
"vX c #FAFBF4",
"bX c #FEFFFB",
/* pixels */
"*XF.T.F.T.$XR.T.$X$XT.$XT.S.T.U.T.U.U.T.U.T.T.V.m.T.T.Z.T.T.Z.Z.R.*XR.$XR.F.$XR.R.$XR.T.R.R.F.R.D.-X",
"*XD.F.F.F.F.F.F.F.F.F.F.$X$X2.. * * & 3 L $XA.s.7.m.$XT.F.F.F.F.F.F.D.F.F.F.F.F.F.F.F.F.F.F.F.F.A.=X",
"*XD.F.F.F.F.F.F.T.F.$XZ.a 0 J Q / / / Q x a 4.b.s.8.f.$X$XF.F.F.F.F.F.F.F.F.F.F.F.F.F.F.F.F.F.R.A.-X",
"*XD.T.F.D.F.F.F.T.$Xf.9.n n ` -.O.@.$. ./ M g f.C.s.s.f.V.C.F.D.Z.F.F.F.D.D.F.F.F.D.F.F.F.F.F.T.F.=X",
"T.v.C.C.Z.C.C.C.V.C.j n $.@.+.....o.X.o.+.-.M a U.f.s.y.f.Z.Z.V.C.C.Z.C.C.C.Z.C.C.C.C.C.C.C.C.C.v./.",
"U.v.m.v.M.C.C.V.A.8 A o.[ [ X.o.o.o.[ ..X.[ O./ = d.f.s.y.f.Z.Z.C.C.C.C.C.Z.S.S.S.C.c.M.C.C.v.m.c./.",
"T.S.S.C.C.C.Z.C.Z.7 R -.@.@.+...o.o.O.+.X.+.*._ = f.C.d.8.8.f.U.D.F.R.w.8 q q q q q M.F.D.S.C.S.V.=X",
"E.C.D.Z.Z.D.Z.D.S.9 n E Q Q ' +.X.[ ] ] ..) ) A & >.>.y.f.s.s.f.C.e.4.I m m m M m m 9.v.F.S.S.S.A.*X",
"E.Z.S.S.S.S.C.S.S.u @ w w F %.X.O.#.#.;.[ S C V < 5 < i s.i.e.6.e.> ; E *.+.@.@.=.=.v 9.Z.Z.Z.T.C./.",
"R.C.Z.Z.S.Z.Z.S.S.- g.,X].;XY N [ |.iXyX~ [ [ X... .=.W $ % % % 1 V ` X.X.X.X.X.[ ' =.m 0 T.Z.Z.V./.",
"R.C.Z.Z.Z.Z.C.Z.D.- Q.aX4XaX;X].uXiXcXiX;.#.o.o.o.o.+.' ( ( _ A v ' X.o.X.o.X.X.[ ..o.' W a C.Z.V./.",
"E.V.Z.C.C.Z.C.C.S.. !.sX5X:X>XfXcXcXcXjXeXO.] o.o.o.o.o.@.+.*. .) o.o.X.X.o.+.+.o.=.o.*.( o m.S.V./.",
"E.V.C.C.C.S.C.C.S.r k.4X4XY XXbXkXzXzXcXzX|.O.o.o.o.o.X.o.[ X.+.o.o.o.o.o.o... .` ` ` o.( = m.S.v./.",
"U.V.C.C.C.M.C.C.C.C.h g ,XgXxXkXzXzXzXkXzXxX X^ O.o.o.o.o.o.X.X.o.o.o.o.o.@.5 o # :   ( ` $ m.Z.V./.",
"U.V.M.C.C.M.C.C.C.V.U c w wXcXkXcXzXkXzXzXcX#X&.O.o.o.o.o.o.X.+.o.o.o.+.` 5 k.k.k.~.~.U < - m.C.v.W.",
"B.c.m.m.m.m.m.M.m.c.g B ).gXbXcXkXkXcXkXzXkXgX+X~ o.o.o.o.o.X.X.o.o.o.O. .A <X4X3X2X<Xk.g 1 i.M.f.Y.",
"N.d.b.f.x.v.m.v.y.2.s { hXfX9XwXzXzXkXcXzXkXcXuX;.o.o.o.o.o.o.o.o.o.o.o.o.*.1XaXaXaX,X2X^.O u.x.c.I.",
"U.f.V.b.c.V.M.r.6.7 | }.b 6 . { cXzXkXzXzXzXzXxXjX=.[ O.[ o.o.o.o.X.o.X.[ [ ].<XaX5X4XsX,Xo v.m.c.Y.",
"U.v.C.b.L V U :.N.  (.tXO   (.8XU +XjXzXkXzXzXzXkXjX;.~ O.o.o.X.X.X.o.o.o.O.#.1XsX5XsX^.g l.M.M.c.B.",
"U.f.m.n.U I P I d (.tXhX).(.eXXX  H 8XvXkXzXzXkXcXcXuX X[ o.*.o.+.+.o.X.o.o.^ `.%X3X^.0.,.C.m.M.c.Y.",
"U.v.m.V.s.:.g.c 6 qXlXkXvXbXuX[.l 4 .XbXkXzXzXzXzXzXhXOX! ` ` ` ` ` [ [ X.[ =.m * ~.= h Z.m.v.m.c.Y.",
"U.d.v.u.5.f.d 6 OXb [.bXkXkXzXzXcX+XyXcXzXzXzXzXzXbX`.z - + @ - 3 C ' +.X.[ =.W X : 6.7.6.x.M.m.c.I.",
"Z.v.s.9.Z L < p cXiXfXxXzXkXvXbXxXlXK.U @XkXzXzXhX} >   y tXI   . ; @ W =...=.A O Z i.8.4.6.v.M.c.Y.",
"U.8.4.e.g.P i y [.jXvXkXzXbXqX[.cXbX6X{.yXkXzXzXlX[.{.(.| yX.X_._.} A ! ^ ^ ] ` A c e.s.6.4.5.v.c.B.",
"t.,.u.C.a.a.d , Y yXcXzXzXtX'.`.cXkXcXbXcXzXxXkXxXvXbXjX#X+XjXbXxXrX X|.|. X;.*.` X 2.y.w.8.1.6.,.n.",
"u.,.y.m.5.u.a p zXvXzXzXcXy _.vXkXkXkXkXzXkXzXzXxXkXhXxXxXcXzXzXcXcXxXxXvXvXqX;._ @ 5.y.6.8.1.1.,.n.",
"N.4.1.y.y.s.t 6 #XpXzXxXxXy } rXcXbXuXrXvXzXzXzXxXbXxXxXzXkXcXiX}.K Z T K y qXlX7XO 5.i.8.1.1.m.8.n.",
"U.s.5.4.w.s.5.g { tXvXzXzX6XH.{ (.(.} J.uXzXzXxXhX[.tXvXkXzXxXgXqXXX1X[.{._.gXbX9XO 6.u.4.1.l.S.c.P.",
"U.d.d.y.1.5.d.5.. 8XlXzXkXbX6Xe   ; ; G '.tXkXxXuXz 7XbXkXxXxXkXiXwXtXgXbXbXxXlX8X+ e.8.1.u.C.x.l.Y.",
"L.f.d.d.5.1.y.5.= '.rXvXkXkXvXwX1 Z D v 1 |.iXiX}.2 8XbXkXkXcXyX}.C x [.cXhXxXrX| @ <.1.x.M.x.x.8.Y.",
"Z.s.d.d.s.1.<.5.r.: .XbXkXkXcXgX'.K D T T i y # 6 9XkXzXzXzXzXkXhXhXoX} 2 Z gXXXc 2 f f.m.x.x.x.x.I.",
"L.d.b.d.d.u.4.4.8.>.l _.vXzXxXlXuXB Z T T   H.6X6XcXxXkXzXzXzXxXcXxXjXqX{.0XqX|.N = i.Z.c.x.l.x.l.E.",
"N.d.f.d.d.b.d.5.<.s.t g 9XkXzXzXzXH.L Z K U wXbXcXkXzXzXzXzXzXzXzXzXzXvXbXjXOX;._ > 9.l.b.x.x.x.l.B.",
"N.d.b.d.d.d.d.s.1.<.e.2.  wXcXzXkXbX(.. s hXxXkXcXcXzXzXzXzXzXzXkXhXkXcXiXoXOX|.` S ; j b.i.i.x.l.I.",
"n.u.d.d.s.d.d.d.y.<.1.>.2 '.uXcXkXxXhXfXgXkXxXxXzXzXzXzXzXzXhXcXhXC wXvXkXjXkXeX|...6   . + V g.l.B.",
"p.5.y.y.y.u.u.u.s.e.1.d + 8XkXzXkXzXxXvXxXxXcXkXzXzXzXzXzXzXbX9XG.0XhXxXkXcXzXkX#X[ < h.;Xk.< l 7.n.",
"N.y.u.u.i.y.y.u.d.d.i.f + fXcXzXzXzXkXkXzXzXzXzXzXzXzXkXzXzXwX(.h.hXkXxXxXzXkXcXiX&., &X4Xk.a 2.7.P.",
"N.s.i.d.d.d.u.i.d.d.d.<.; wXcXzXzXzXzXzXzXzXzXxXzXzXzXzXzXvXp k.5X;XdXhXjXxXkXzXiXoX4 h.Q.. r.b.l.B.",
"n.s.d.d.d.d.d.d.d.i.x.q.+ }.uXcXzXzXzXzXzXzXzXzXzXzXzXzXzXvXp h.sX4X2Xg.k zXzXkXcXkXk + g i.i.i.l.N.",
"n.u.d.i.i.i.i.i.i.i.i.r.9.p 8XbXzXxXhXzXzXzXxXzXkXzXkXkXkXzXwX(.g.g.F ].9XkXcXbXgX`., u 3.x.i.i.l.P.",
"n.r.l.u.u.u.u.l.i.i.i.i.x.X G.8XyXxXxXxXxXxXxXxXcXcXcXcXcXzXbX9X{ H.J.qXbXcXqXtX7Xz e 3.x.u.l.l.3.B.",
"n.8.u.l.l.l.u.u.i.i.i.i.r.y o J oXgXhXkXxXxXxXxXjXkXjXzXkXjXgXzXbXvXlXgXhXhXL j.~.o r.x.u.u.u.u.l.P.",
"z.8.r.u.r.u.l.r.i.i.i.i.l.. ~.4X].L ;.rXvXxXbXlX+X+X+X+X+X+X XrXvXcXrX'.V # !.;X!.+ w.i.r.l.u.l.3.B.",
"z.l.l.6.l.r.r.l.r.r.r.r.i.  ^.sX3Xi 5 { G.G.G.U J J J J J J p { G.G.U 5 G <X4XaX,Xo q.l.u.r.r.u.l.I.",
"z.6.6.6.l.3.3.3.3.3.6.l.w.r h.;X^.j 9 & $ $ & & 8 8 7 7 7 r 9 8 7 7 9 8 l ,X;X;X!.u 3.l.r.u.r.l.3.B.",
"z.<.3.3.3.3.3.3.3.3.3.3.2.r.a   . 2.l.3.3.3.3.3.2.2.3.j h l.l.l.t.i.u.e.<.      - l.3.w.3.q.r.w.h n.",
"z.3.l.3.6.l.r.3.6.3.3.r.r.3.r.r.3.3.6.6.3.h h <.1.h h <.l.l.l.j 3.3.q.q.3.w.6.3.6.3.3.3.3.3.2.3.4.P.",
"z.3.l.6.6.l.r.l.3.l.r.3.l.r.6.l.l.3.l.l.6.2.h h h h <.l.l.3.l.l.r.r.r.u.l.w.l.l.6.l.w.w.r.w.w.w.4.H.",
"z.3.3.3.l.l.3.3.j l.3.j l.l.j l.l.j q.l.j l.h d d j l.l.j l.l.2.q.r.q.q.r.3.q.w.3.q.w.q.q.w.6.l.,.N.",
"n.l.z.l.l.l l.l.l.l.l.l.l.q.z.q.l.z.q.l.z.l.z.j j l.l.l.l.l.z.j t.l.t.t.l.t.l.z.t.t.z.l.l.z.l z.l.P."
};
