/* XPM */
static char *result[] = {
/* columns rows colors chars-per-pixel */
"50 50 245 2 ",
"   c #000001",
".  c #0B0003",
"X  c #180703",
"o  c #0A091B",
"O  c #16131E",
"+  c #260402",
"@  c #360102",
"#  c #290014",
"$  c #0E2C0C",
"%  c #322C0F",
"&  c #1A1A25",
"*  c #1C1C25",
"=  c #030731",
"-  c #280C2F",
";  c #1B2533",
":  c #26262B",
">  c #362A2A",
",  c #2D3C2A",
"<  c #363A29",
"1  c #3D392C",
"2  c #2B2C34",
"3  c #28353B",
"4  c #333235",
"5  c #3B3737",
"6  c #36353A",
"7  c #3C3B3C",
"8  c #4C090B",
"9  c #7C0000",
"0  c #5A340A",
"q  c #6F340A",
"w  c #401B28",
"e  c #443929",
"r  c #512D31",
"t  c #4A3736",
"y  c #423D33",
"u  c #423E3C",
"i  c #31412D",
"p  c #3A433A",
"a  c #765412",
"s  c #5C452D",
"d  c #43403B",
"f  c #4A443C",
"g  c #694C32",
"h  c #7C693A",
"j  c #000748",
"k  c #281D40",
"l  c #022A48",
"z  c #16364C",
"x  c #273749",
"c  c #2C3B4A",
"v  c #373C44",
"b  c #313352",
"n  c #473C47",
"m  c #394346",
"M  c #3C434B",
"N  c #384654",
"B  c #364855",
"V  c #3D4568",
"C  c #444444",
"Z  c #4A4544",
"A  c #494845",
"S  c #43454A",
"D  c #44494C",
"F  c #4B4B4C",
"G  c #554948",
"H  c #585249",
"J  c #484D55",
"K  c #554D54",
"L  c #4E5154",
"P  c #485455",
"I  c #4E535A",
"U  c #545254",
"Y  c #52555B",
"T  c #595859",
"R  c #6E574D",
"E  c #645A48",
"W  c #776648",
"Q  c #6F6655",
"!  c #796959",
"~  c #4C5768",
"^  c #575A67",
"/  c #5B5D64",
"(  c #545C6B",
")  c #495673",
"_  c #565C74",
"`  c #655963",
"'  c #765472",
"]  c #59616D",
"[  c #4C627F",
"{  c #5B6474",
"}  c #59667B",
"|  c #686564",
" . c #6C6C6C",
".. c #756A67",
"X. c #72716D",
"o. c #676B75",
"O. c #7C6777",
"+. c #6F7072",
"@. c #767575",
"#. c #8F2D00",
"$. c #8C5106",
"%. c #AE6704",
"&. c #92492E",
"*. c #AA5630",
"=. c #896932",
"-. c #AA6C2D",
";. c #8F4846",
":. c #88744C",
">. c #8C7753",
",. c #B17653",
"<. c #897B6A",
"1. c #867A74",
"2. c #907372",
"3. c #AA7569",
"4. c #B68E31",
"5. c #DA921E",
"6. c #CD9734",
"7. c #EBB636",
"8. c #ECB83C",
"9. c #9C834B",
"0. c #998251",
"q. c #A98B49",
"w. c #B3934D",
"e. c #BD9B4C",
"r. c #AC8C57",
"t. c #88827B",
"y. c #978871",
"u. c #998A79",
"i. c #AD9274",
"p. c #BDA379",
"a. c #C39F4D",
"s. c #CA855F",
"d. c #C7A24B",
"f. c #D6AB46",
"g. c #C4A253",
"h. c #E8B744",
"j. c #EEBB41",
"k. c #F0BE44",
"l. c #EFBF5A",
"z. c #CF9469",
"x. c #CBAB72",
"c. c #F7C244",
"v. c #EDC87B",
"b. c #596A86",
"n. c #546A8D",
"m. c #5D718E",
"M. c #5D7293",
"N. c #5F779C",
"B. c #626D85",
"V. c #657186",
"C. c #63748C",
"Z. c #69758A",
"A. c #74798B",
"S. c #637693",
"D. c #667A96",
"F. c #6B7B93",
"G. c #637799",
"H. c #667B9B",
"J. c #6A7E9C",
"K. c #5F79A0",
"L. c #667DA2",
"P. c #6A7FA1",
"I. c #987692",
"U. c #A67790",
"Y. c #A17FA3",
"T. c #6D809E",
"R. c #72829C",
"E. c #6D82A4",
"W. c #6D85AA",
"Q. c #6D86AC",
"!. c #7086AA",
"~. c #7689A8",
"^. c #7289AD",
"/. c #6D88B0",
"(. c #758DB2",
"). c #798EB1",
"_. c #738EB9",
"`. c #7790B5",
"'. c #7A91B6",
"]. c #7691BD",
"[. c #7C94BA",
"{. c #898886",
"}. c #928B86",
"|. c #98948E",
" X c #848A94",
".X c #96819B",
"XX c #989794",
"oX c #9F9F9B",
"OX c #A8928D",
"+X c #9FA19F",
"@X c #B1A694",
"#X c #8894A8",
"$X c #9694AF",
"%X c #8296B9",
"&X c #8196BC",
"*X c #A689AA",
"=X c #B597B9",
"-X c #97A1B0",
";X c #A9A8A5",
":X c #B3AFAB",
">X c #B5B2AC",
",X c #BABAB5",
"<X c #CA958E",
"1X c #CBAC94",
"2X c #EAB38B",
"3X c #CDBBAE",
"4X c #EFCC87",
"5X c #D0C4AD",
"6X c #C6C3BB",
"7X c #D5C8BA",
"8X c #EDD1AC",
"9X c #ECD8B7",
"0X c #F1DDB9",
"qX c #F6E1BE",
"wX c #829AC2",
"eX c #95A5C3",
"rX c #98AAC9",
"tX c #CA9CD3",
"yX c #C9A6CE",
"uX c #CEA2D6",
"iX c #DCB5E3",
"pX c #E6BCF0",
"aX c #BEC1C0",
"sX c #CACAC5",
"dX c #D5CDC0",
"fX c #D4D4CE",
"gX c #DDD1C8",
"hX c #D5D5D1",
"jX c #DADBD7",
"kX c #E9DAC4",
"lX c #E9D5DB",
"zX c #F6E6C8",
"xX c #E6E4DC",
"cX c #F3E9D5",
"vX c #FBF1D7",
"bX c #E5DCE1",
"nX c #EFC3F6",
"mX c #F2C5F9",
"MX c #EEEDE6",
"NX c #F4F4ED",
"BX c #F8F4E8",
"VX c #F5F6F1",
"CX c #F7F8F2",
"ZX c #FAFAF3",
"AX c #FEFFFA",
/* pixels */
"eXeXeXeX-X@.@.eXrXrX-X@.A.-XeXrX$X+.{.eXeXeXrX#XX. XrX&XeXeX#XX. XrXrXrX#X.. XrXeXrX#X.. XeX-XeXeXeX",
"_._._.].M.  ~ [._.].G.  _ ]._.].P.. ) _._.`._.n.X ~ ].`.].[.~.X I ]._.].!.X J ]._._.T.X M ).].]._._.",
"[.[.%X&Xo.e R.&X&X%XV.< F.&X%X%XA.e Z.wX[.[.W.F.f ] ^.[.&X&X).H ^ %X%X&X%XK L [.&X&X%X] f ~.wX&X&XwX",
"[.[.[.'.I y '.wXP.- Z D v = #.OXD.% F.&X(.L.K.R.y ( E.E.(.(.).L N 3.&.= - n A w Q.wX&X{ % F.[.[.[.[.",
"^.^.(.E.f Y ) ' 3.6.H m 4.6.%.;.~ e S.`.E.N.'.~.e ( P.N.E./.).Y m ;.%.6.6.W l 4.3.' [ Z.% B.`.^.^.(.",
"W.!.^.F.1 / =.%.5.h.H A h.k.6.-.g 7 S.W.N./.wXT.1 _ W.L.N.Q.!.Y N -.6.k.k.q.j w.5.%.=.b.d ^ /.W.W.Q.",
"(.'.].Z.7 s f.c.j.f.v E h.h.8.j.>.3 } N.!.&XW.D.y ] W.P.G.G.B.t m f.8.h.8.w.j 9.c.h.h.0 m U ~.(.(.[.",
"_._.&Xo.3 R 7.h.j.f.z R h.h.h.j.W B g { wXQ./.J.e ] /.W./.) =.:.l d.j.8.8.e.l >.c.8.f.*.G C ~.[._.'.",
")._.%Xo.3 w.8.8.c.d.l :.j.8.j.k.W D g r _ ( _ / d U ` ( _ - %.0.j d.c.c.c.a.l :.j.j.7.f.W 7 ~.'.)._.",
").).'.Y p >.q.>.q.:.c E 9.q.9.9.H C G f r e r t S A t t r u E Q x >.r.r.9.:.m H 9.9.9.9.E 7 J.[.).).",
"^.(.).Y Z b x c x c G n l x x x D F F F F F F F A A F F F D M M A Y J I B x F D x c x x S u F.'.(.).",
").(.'.Y C , , < i C , A T m < > > 2 : : v c c x c c c c c c m m N ( I Y  .H , p p < i % M u J.'.~.).",
"^.).).Y C *XyX=X=X*XY.2.s x.3XsXsXsXsX5Xx.g.g.g.a.a.d.d.g.g.a.a.g.g.d.g.h 2.Y.*X=XyX=X=Xo.% J.'.(.(.",
"^.(.).] A iXmXnXpXuXuXY.<.8XMXAXCXZXZXNX8Xl.7.j.8.j.k.8.8.j.8.8.j.8.k.j.a I.uXuXpXmXmXmXI.$ F.'.~.(.",
"^.(.)./ A iXmXnXmXmXuXlXZXCXZXAXZXZXCXZXCXv.7.k.k.j.8.k.k.8.k.k.j.j.j.h.7.2XuXmXnXnXmXmXI.$ F.(.(.^.",
"W.W.~./ A 2.=X=X*X*XOX;X,X:X,X,X,X,X>X,X,X@Xp.4.w.q.q.w.w.q.w.w.w.q.w.r.4.r.u.*X=X=X*XU.| A F.Q.W.W.",
"E.E.!./ A m p , $ p p p & 2 4 , 2   * 7 4 c N B z l B N N N c B B c N b c N p i i i $ i L F Z.W.L.E.",
"E.W.~.] F K T T Y J / D 4 7 M D Y U S v 7 4 5 Z U d M J m N L U H C N N N L U L U T Y F U H F.^.E.W.",
"Q./.~./ F Z.G @ >.}.c I.3XaX3Xy.J 7 ;XsX,XsX6X;X2 | p.4.w.a.q.v J >.a.e.e.q.D Q R r G F.o.f F.(.W.^.",
"!.W.!./ F S.b.= u.6X  ;XAXcX<Xg K F X.3XAXZXAXjX  }.vXzX4Xw.q 5 U h 4.c.c.f.B ! $.k b.W.V.f F.(.W.W.",
"W.W.~.( Z b.(.) }.sX  {.6Xp.0 K  .T   1.CXNXCXsX  }.CXVXcX..K 1.F k 0 4.4.4.D ! a V H.M.{ d F.^.W.!.",
"W.~.~.Y C D._.b u.yX7 A . n @ |.t.U R }.CXNXZXfX  .XVXNXAX1.oX;X* H r n o =.U ! a ) L.M.{ A F./.W.!.",
"W.W.H.L C !.(.= t.sX2 7 | VXt.  F T G {.ZXVXZXfX   XCXNXCX1.XX;X:   1.ZX..t.T X.Q b /.L.( y Z.~.W.W.",
"W.G.M.P Z S.) y.7X6X= g #.}.sXdXH D 9 i.CXVXcX3X= <.cXVXCXi.&.+.  >XsX}.#.OXY o.5Xu.V P.{ 1 b.W.!.H.",
"M.n.H.^ n C.- ,.9X3Xo 2.<Xa 3XsXH m 3.3XVXVXcX1X= <.cXVXVX5X3.r : :X6Xa p.1XD | 8Xr.. H._ y b.M.M.M.",
"n.n.D.Y C B.v 9 s.@X  +XZX9X>.  U + gXAXNXVXAXfX  {.ZXVXNXAXlXq P + >.9XZXbX4 | ,.#.6 F.( y } M.n.n.",
"P.N.M.I Z &.8 :XAX3X  oXBXBXMXMXX.O jXAXVXNXAXfX  }.CXNXNXNXBX|.  ,XNXMXZXjX2  .ZXyX+ *.R 7 { E.P.M.",
"!.L.M.J S 2.> 2.8X>X  oXZXVXZXVXX.p 1X5XkXNXvX5X  {.VXNXZXZXAXXX  sXAXNXZXjX4 | 3X3.# 1.` 1 V.^.^.P.",
"P.P.P.L F V.t #.z.@X. oXZXNXNXMX .P &.,.0XVXkXy.= {.CXBXfXgXMXXX  sXCXMXCXjX3 | z.$.> B.` 1 F.~.P.W.",
"!.P.!.I n *.8 i.vXsX  ;XZXZXZXVX .L | }.CXZX;X8 6 t.CXxXt #.3X;X  sXAXCXAXxX: +.zXp.8 *.R 3 Z.~.P.E.",
"P.P.!.U n o.b.G }.;X  {.hXfXhXfX| 4 :X:XQ | i.u.3 T ..1.,X6XdXI.  ;XhXfXhX,X6 | <.` { A.| 5 Z.!.P.E.",
"E.P.P.Y Z D D S 6 6 F A 6 7 6 6 F L F A C v P U F F v C F L m C L C 7 7 6 C F n v n D Z D u Z.!.E.E.",
"!.!.P.Y C Z u u Z F 3 ; O : * * O o o O * * & o O O * & o O O O o & * * * ; 3 S d d u u A u C.!.E.E.",
"!.P.E.Y Z _ { { ~ t y.OX+XoXoXoXoXoX+XoXoX+XoX+XoXoXoXoXoX+XoXoXoXoXoXoX+XOXy.y ( { _ { I y Z.!.E.E.",
"P.P.J.Y Z H.E.E.C.@ f.v.0XZXZXBXCXZXZXCXCXZXCXCXCXCXCXCXVXCXZXZXZXCXCXCXqX4Xf.@ J.^.P.E._ 1 V.E.L.J.",
"S.G.D.K C D.H.L.m.@ x.8XcXZXZXZXCXcXBXZXZXZXZXZXZXZXZXZXZXAXBXzXCXZXZXCXzX8Xx.@ B.P.H.L.( y B.H.M.N.",
"P.H.P.U C B.F.F.B.t @X7XjXfXfXhXfX1X6XjXhXfXfXfXhXfXfXfXhXhX7X1XfXhXhXhXjX7X@Xr o.F.F.F.( y B.E.H.H.",
"P.P.P.U S F F F F A n v 7 m 6 7 7 v 7 1 C C m 7 4 7 C v C 7 v v 6 5 6 u u v M F F F F F F d V.E.T.L.",
"P.P.P.U C C u 5 u C S 7 & 3 S C C A m m * : * 4 F C : * & v m n A F S x * 2 A Z v u 7 7 S d V.E.T.T.",
"P.P.R.Y C ] o.{ / Z v | |.y.H ` U C R ! XX}.|.{.7 / |.|.XX! ..` d D E <.XXt.C A ( o.{ o.Y y V.E.T.H.",
"T.H.T.I A F.E.E.F.G   +XNX9X>.I.O.m 3.1XAXBXZXhX  }.ZXBXAX<X<XI., G y.8XBX5X% F Z.!.T.E.{ 1 V.E.H.T.",
"T.J.T.L C S.T.H.P.Z.  oXAXVX9Xp.3 > 6XZXVXNXZXsX  {.CXVXVXVXdXq z i.0XVXqXp.= T F.J.H.T.] 1 V.E.T.H.",
"D.H.J.I C S.T.H.E.Z.y T u.4XzXxX| X xXZX0XkXzX3Xo 1.zXkXkXBXCXt.  6XvXv.9.a C I J.J.H.J.] 1 V.T.D.T.",
"T.J.T.I A Z.H.D.D.^ d ` U.2XlXbXQ 2 ,X6Xp.x.1Xi.z ..x.@Xx.3XfXt.  aXbX2XI.I.G F F.J.J.J.] 1 V.H.D.T.",
"S.M.D.L C C.S.S.b.t $ Y.nXpXtXU.s D +   . .   > A n #     .   5 m I.tXpXnXuXC Z C.T.m.T.] 1 V.H.m.S.",
"C.m.m.L C C.M.m.S.} C Z r r 8 ` Y d B.m.b._ b.} u Y b.} b.T.T./ C G r r r t C U C.m.m.N.] 1 V.H.m.m.",
"S.D.D.L A C.H.S.D.o.y I { ) _ b.I d C.J.C.[ n.} d ~ b.b.T.T.T.( u ^ ( ~ _ ~ d I C.M.m.M.] 1 } m.m.T.",
"T.D.T.Y A S.J.D.H.C.e { W.J.J.R.U C C.H.G.S.b.} f I m.H.T.N.H.] y Z.!.H.T.J.A I T.T.D.T.] y V.T.Z.R.",
"m.m.C.m 5 b.Z.m.D.} % ~ C.C.m.C.S 4 b.Z.m.C.m._ > P S.S.Z.C.S.I > { Z.m.C.b.5 D C.C.C.Z.~ % { D.m.M.",
"XXR. . . .X.+.+.+. . .o.+.X.+.+. . . .X.+.+.+. . .o.+.+.+.+.+.+. . .+.+.+.+. . .+.+.+.+. .o.o.+.R.#X"
};
