/* XPM */
static char *result[] = {
/* columns rows colors chars-per-pixel */
"50 50 244 2 ",
"   c #000000",
".  c #060404",
"X  c #190400",
"o  c #040519",
"O  c #0E1010",
"+  c #260100",
"@  c #310707",
"#  c #2A0115",
"$  c #1E331A",
"%  c #2F2B14",
"&  c #1D1C25",
"*  c #131C29",
"=  c #050C31",
"-  c #3E002C",
";  c #211F26",
":  c #1B212B",
">  c #122933",
",  c #24242A",
"<  c #303229",
"1  c #353A28",
"2  c #2A2C34",
"3  c #29323C",
"4  c #353737",
"5  c #3E3D3B",
"6  c #501009",
"7  c #6D0400",
"8  c #4D280C",
"9  c #421E22",
"0  c #532F26",
"q  c #413B2B",
"w  c #473535",
"e  c #423D33",
"r  c #423D3B",
"t  c #70392F",
"y  c #31412A",
"u  c #3C423A",
"i  c #6F4405",
"p  c #785300",
"a  c #47443B",
"s  c #44423D",
"d  c #5B4733",
"f  c #654935",
"g  c #745438",
"h  c #061046",
"j  c #022747",
"k  c #17344A",
"l  c #253647",
"z  c #2C3B4C",
"x  c #363B47",
"c  c #2D3552",
"v  c #453B48",
"b  c #2B4248",
"n  c #3B4345",
"m  c #3B424B",
"M  c #394656",
"N  c #3B466A",
"B  c #444343",
"V  c #4C4945",
"C  c #45464A",
"Z  c #494648",
"A  c #4B4B4C",
"S  c #554847",
"D  c #524D4B",
"F  c #4A5249",
"G  c #59524A",
"H  c #454B53",
"J  c #4C4D52",
"K  c #524D55",
"L  c #485156",
"P  c #4D535B",
"I  c #545253",
"U  c #51565D",
"Y  c #59585A",
"T  c #685849",
"R  c #71524A",
"E  c #675A57",
"W  c #7B6747",
"Q  c #736751",
"!  c #444A65",
"~  c #4B5465",
"^  c #545A64",
"/  c #565A65",
"(  c #555D6B",
")  c #505572",
"_  c #6A5C6A",
"`  c #56616E",
"'  c #5C626C",
"]  c #586479",
"[  c #646364",
"{  c #68686B",
"}  c #766965",
"|  c #6A6D71",
" . c #656979",
".. c #757471",
"X. c #797875",
"o. c #94280C",
"O. c #855100",
"+. c #A1590F",
"@. c #B05B35",
"#. c #BB6E3A",
"$. c #C77726",
"%. c #9B5A46",
"&. c #836C45",
"*. c #816C48",
"=. c #8D734B",
"-. c #927A4A",
";. c #897657",
":. c #A5625B",
">. c #B36C52",
",. c #865D6C",
"<. c #8B716B",
"1. c #857D76",
"2. c #C2784E",
"3. c #B48F34",
"4. c #CE9F00",
"5. c #E5AC00",
"6. c #CA8B3A",
"7. c #D7A739",
"8. c #E4AE3D",
"9. c #ECB83D",
"0. c #F2BD3F",
"q. c #F7C23C",
"w. c #9B824C",
"e. c #A88A4A",
"r. c #B69448",
"t. c #BB994D",
"y. c #AC8E59",
"u. c #B79855",
"i. c #878177",
"p. c #9D8472",
"a. c #AF9169",
"s. c #AA9779",
"d. c #C59E4A",
"f. c #CBA349",
"g. c #D6AB48",
"h. c #EEBB42",
"j. c #E9B845",
"k. c #F1BD42",
"l. c #D29B73",
"z. c #F4C143",
"x. c #F0C97C",
"c. c #505E81",
"v. c #5E6C83",
"b. c #556A89",
"n. c #536A8D",
"m. c #5C718D",
"M. c #5D7393",
"N. c #5E7499",
"B. c #616E85",
"V. c #677489",
"C. c #65748B",
"Z. c #76758A",
"A. c #637593",
"S. c #657995",
"D. c #6A7A94",
"F. c #647699",
"G. c #657B9B",
"H. c #6A7E9C",
"J. c #657DA2",
"K. c #697EA1",
"L. c #917694",
"P. c #987CA0",
"I. c #A37FA4",
"U. c #6D819E",
"Y. c #768296",
"T. c #71829C",
"R. c #5F81A6",
"E. c #6D82A4",
"W. c #6B84AA",
"Q. c #6F88AF",
"!. c #7285A4",
"~. c #7688A6",
"^. c #7389AD",
"/. c #7A8DAC",
"(. c #7D90AF",
"). c #6D8BB8",
"_. c #748CB3",
"`. c #738EB7",
"'. c #7C91B4",
"]. c #7590BB",
"[. c #7C94BB",
"{. c #7995C1",
"}. c #8A8886",
"|. c #958C87",
" X c #95928C",
".X c #938A98",
"XX c #939491",
"oX c #9A9996",
"OX c #AE9185",
"+X c #9FA19F",
"@X c #B7A386",
"#X c #B4A898",
"$X c #8B96A8",
"%X c #9399A4",
"&X c #8296B5",
"*X c #8398BB",
"=X c #A787A7",
"-X c #AD90AC",
";X c #B799B9",
":X c #9BA7BB",
">X c #B7B1A6",
",X c #BBBAB6",
"<X c #CA9582",
"1X c #C9B292",
"2X c #C395AB",
"3X c #D2B4AE",
"4X c #C6BCB3",
"5X c #E3C99B",
"6X c #C5C2B9",
"7X c #D5C6B1",
"8X c #EBD3AB",
"9X c #F0DBB8",
"0X c #F5E1BD",
"qX c #849BC1",
"wX c #BC9FC2",
"eX c #8AA1C6",
"rX c #9DABC6",
"tX c #A0AECA",
"yX c #AAAFCA",
"uX c #CC9BDA",
"iX c #CEABCB",
"pX c #D6AFE3",
"aX c #E6BAEC",
"sX c #C8C8C4",
"dX c #CECECB",
"fX c #D2D2CD",
"gX c #D9D6CE",
"hX c #D9D9D3",
"jX c #DBDBD5",
"kX c #E9D9D0",
"lX c #EFE3CB",
"zX c #F6E7CB",
"xX c #E8E3DA",
"cX c #F4EBD8",
"vX c #F1C4EE",
"bX c #EEC2F5",
"nX c #F2C6F9",
"mX c #F1EEE5",
"MX c #FAF5E7",
"NX c #F5F4ED",
"BX c #F6F7F1",
"VX c #F7F9F3",
"CX c #FAFAF3",
"ZX c #FEFEFA",
/* pixels */
"yXrXrXrX:X}.}.:XtXtXrX}.}.rXtXtX:X}.}.rXtXrXrX:X1..XtXrXrXrX:XX..XyXrXrX%XY.%XrXrXtX%XX.%XrXrXrXrXtX",
"*X).).].F.  M `.).{.G.  ~ ].).).K.  ! ].)._.).n.  ~ ].).).].H.  ! {.{.{.H.. ! ]._.`.G.  H `.).].).*X",
"eX[.*XqX .q Y.eX_.] ( V ^ c.<.I.~.0 V.qX*X[.^.A.V ' ^.*X*XqX/.D ( .X1.) ` A I v.].qX*XY G &X*X*X].qX",
"*X[.[.'./ q D.~..Xp f x g p +.:.v.% V.[.`.J.J.H.a ~ G.W._.]./.A C :.+.p O.G B p L.~.!.` % T.{.[.[.*X",
"'.Q._.~.A J 5 7 $.j.&.j f.z.r.o.a u A.'.W.F.'.~.e ( J.N.K.Q./.U n %.#.0.j.*.j f.$.7 H V.% V.].^._.&X",
"(.W.Q.U.a A 7.8.g.j.T x g.9.8.7.-.> A.W.N.W.qXH.q ` W.G.N._.A.v F f.8.8.z.w.h e.9.8.6.Z r [ ^.W.W.(.",
"&X'.'.C.s S g.k.h.j.C D j.j.9.z.-.l [ c._.qXQ.G.q ( Q.W.E.b.} T m g.z.8.z.e.h e.k.h.8.t B Y ^._._.*X",
"&X_.[.V.2 %.8.h.k.g.b T j.h.j.j.&.m i C ^.F.F.B.s / F.A.S.= +.-.j f.9.j.0.r.j w.k.h.j.#.Z J '.'.`.&X",
"*X_.'.| > u.0.9.9.f.j W z.j.z.z.W m R 8 8 8 8 0 C S 8 8 8 @ #.w.j f.k.9.q.f.j =.h.h.j.j.T m /.[._.&X",
"*X_.[.' 4 =.=.W &.W n T e.e.e.e.T n W &.&.W &.Q x G *.*.&.&.w.T l -.u.a.y.-.n G &.W =.e.T n T.'.^.&X",
"&X^.'.` a M c x z M A C l l l b A F H A Z V C C V Z A C C A b n S ^ L ~ M l D C z M b l C s T.'._.&X",
"&XQ.'.^ s u 1 1 1 u y n A x 2 % , & & : 3 l l b l l l l l l z b z ^ P U [ B 4 u 1 1 1 1 B B U.'.^.'.",
"&XQ.'.` 4 =XwXwX;X.X=XZ.8 s.,X6X6X6XsX,X@Xu.u.u.t.t.t.t.t.t.t.t.t.d.u.u.w Z.=XI.;X;X;XwX[ < U.].^.(.",
"&XQ.'.{ u pXnXvXaXaXuXiXgXcXCXVXVXVXVXBXmXz.5.z.0.h.9.h.9.h.9.h.h.9.k.h.4.2XuXaXbXbXnXnXL.% T./.Q.'.",
"'.Q.(.' u 2XaXnXnXaXiXkXZXZXZXVXVXCXCXZXVX0Xx.9.j.q.h.0.9.0.h.z.h.h.h.k.q.5X3XaXnXnXbX3X} < T.`.^.(.",
"(.Q.^.' F p ;XwX;XP.@X3X,X,XiX6XsX6X,X6X6XsX1X3.r.r.r.t.t.r.t.t.d.r.t.r.3.6.u..X;XwX-Xo.T F D.^.W./.",
"/.J.E.' Z L n < < F x x , 2 4 2 2 . o 4 x < x M k k M M H M z M M z M m z M m u u y $ M I D D.E.K.W.",
"/.W.^.' Z D I A J v / I 2 x L P Y I Y U 4 4 4 v I r < 5 x A Y I I F P z b H Y J U Y A F I D U.W.J./.",
"(.W.^.{ Z V.v.v }  Xx X.4X>XOX,.I A E |.,X,X,XoX4 { >X#Xs.;.g D L W >.e.u.w.C Q T J  .D.' D H._.W./.",
"(.W.^.[ V A.J.c i.gX  oXMX8Xl.+.I Y + |.ZXCXZXhX  }.ZXMX0X;.+ G L %.6.j.z.f.z } p N U.~. .S D.^.Q./.",
"(.W.^.' Z ] Q.! 1.dXo |.8X8 gXgX# Y X }.BXmXCXdX  }.BXNXMXi.. S ; fXkX6 z.7.b Q p ! N.N.` Z H./.W./.",
"/.W.^./ r D.[.N } sX2 } <.  }.#XE Y w }.VXBXVXfXo .XBXNXCX1... X; |.|.  -.s.M X.f N J.M.( S H.^.W./.",
"'.J.E.L r !.J.Y @XsX2 S 7 |.+ ;.i.C Q p.VXNXVXfX  }.VXBXCX<.#X+X; @ 9 |.6 |.F X.|.| A.J.^ a D.^.W.^.",
"(.G.M.U v Z.= y.zXsX= g 2.CX X}.}.b >.<XVXNXVXfX  }.BXBXVXl.1XoX4 9 oXBX2.<XM X.0Xa.o K.( 4 B.!.E.E.",
"K.n.G./ B %.@.o.2.1X   XxX>.7   G & 6XNXNXBXzX1X= 1.zXBXNXNX7Xt J X 7 >.cXfX, } >.o.0 @.R n v.N.n.D.",
"D.n.G./ s ,.o.s.lX6X  oXMX7X4X,X[ X gXCXNXNXMX6Xo i.mXVXNXVXxX<.> oX4X3XCXjXo ..7XOX@ <.E 5 v.n.n.A.",
"~.n.N.~ a F.- #XCXsX. XXCXCXZXVXX.. jXCXNXNXCXfX  }.CXNXNXNXCXoX  fXZXBXCXgXo X.MX>X  R.~ q v.W.J.S.",
"(.J.N.K B V.>.o.#.@X. XXCXMXNXNXX.O hXVXNXNXCXdX  }.CXNXNXNXVXXX  sXCXmXCXgX> } @.o.x G.^ e C./.W.!.",
"/.J.K.U B %.7 y.9X6X. XXNXNXNXNX..> 7XzXVXNXCXfX  }.VXNXVXlXzXXX  sXZXNXZXjXo X.8Xp.@ @.R 4 T.^.J.~.",
"/.J.!.^ B ,.) } 3XfX. XXZXCXCXCXX.x OX1XcXCXMX7Xo i.MXVXcX@X7X+X  dXZXNXZXjXo X.1X<.) :.E 5 V.W.K.~.",
"&XG.!.^ r b.G.c } >X  }.jXjXjXhX[ A J R 1XjX7Xs.j Q 7XhX1Xf }.XX  ,XjXhXjX6X, | S ! N.G.` q D.W.K.~.",
"~.J.!.U B Z Z A A x V Z s C C C D J A I H C J J D I A Z L I J A J C A Z n B S v K A C D A s V.^.K.~.",
"&XK.!.^ B Z r s B A x l 3 & & , & & & * & , , & & & & : & & & & * & & : l l x C B r v r B B D.!.K.~.",
"~.H.K./ B / ( ( ^ r &.-.1. XXX XXXXX XXX X XXXXXXX XXXXX X XXXXX X XXXXX1.-.&.w / ` ` ` J r A.!.K.~.",
"~.J.!.U B D.K.E.A.# 7.x.9XNXVXNXMXNXBXBXBXNXCXNXCXBXCXNXBXCXBXBXBXBXBXBX9Xx.7.# H.K.K.K./ e V.!.G.!.",
"H.M.F.U r A.K.K.A.+ 1XzXVXCXCXCXCX8XcXZXCXVXCXCXCXCXCXCXCXZXcX8XMXCXCXCXCXzX1X+ A.K.K.G.( r C.G.M.H.",
"$XF.H.U v V.D.G.V.9 4XhXjXjXjXjXhX<.6XxXjXjXjXjXjXjXjXjXjXxX4X;.jXjXjXjXjXjX4X% V.D.D.D.~ r B.E.G.U.",
"~.J.K.^ s D D A A Z Z A A A B Z C 3 r a A A A C B B A Z A C v x B B v Z A A H A D J J D Z B V.E.E.!.",
"~.K.K.Y B B r 5 5 A V r , 3 C n n V n n , , , 4 A B , , & m b s Z Z Z l , 2 Z C x e 5 5 C B V.W.G.!.",
"~.G.K./ B / ' ' / B x Y }.<.r U / C f T }.i.}.X.5 U }.}.}.R E _ B x S ;.}...s Z / ' ' ' J s V.!.U.!.",
"~.G.U.U a D.U.U.H. ..  XZXmX7Xa.P < 2XlXBXNXCXfX. }.BXBXBXkX3XR b p.7XmXzX@X* Y T.!.U.!.( e C.E.G.T.",
"~.G.U.U s A.U.G.!.D.; X.gXlXzX7XJ + hXZXxXcXMX6X  }.mXcXcXZXcXR > 1XzXlX1X;.3 / H.H.G.E.^ e V.E.G.!.",
"T.G.U.U s C.U.G.H.B.V 4 6 5.lXNX..  hXmX5X5X5X1X= <.5X5X5XxXVXXX  dXzX5.t t S U H.G.H.H.^ q V.E.S.T.",
"T.G.U.~ a C.G.G.B.S $ L.vXvXpX2Xf n E T f f f f C V f d f R E S 3 -XaXbXbXiX4 Z A.H.D.H.^ 5 C.H.F.T.",
"T.M.U.P a C.F.M.C./ u _ =X=XL.,.D B ~ M N M N ~ B L ~ N M ~ ) L u _ L.I.=XL.5 J C.U.C.U./ q V.U.m.T.",
"Y.m.C.P B v.M.m.M.v.s s . . + ~ U s C.M.b.b.m.b.s ^ v.b.m.!.W.^ B A ; X   < V U M.M.m.G.( 5 C.G.m.A.",
"T.M.G.P s m.G.A.A.v.q ( U.H.S.H.P s v.G.v.] ] ] s U c.b.U.H.G.^ a B.H.D.U.m.s P A.M.m.M.U u ] M.M.T.",
"T.S.U.U a C.U.G.G.V.e ` G.S.F.H.U B C.U.M.M.b.] B P m.U.G.G.U.( s V.H.A.U.C.B ^ S.U.C.H.` a B.U.A.H.",
"T.M.Y.M 1 v.S.A.C. .< ~ Y.m.m.Y.m 1 m.A.A.C.m.` < P D.D.A.C.D.P <  .A.A.D.v.1 L D.S.A.D.P < B.D.m.D.",
"$XX.| ' [ | | | | { [ [ | | | | [ [ | | | |  .{ ' { | | | | | { [ [ | | | { [ [ | | | | [ [ { | Y.$X"
};
