/* XPM */
static char *result[] = {
/* columns rows colors chars-per-pixel */
"50 50 174 2 ",
"   c #2A0000",
".  c #3B0000",
"X  c #360017",
"o  c #0E0027",
"O  c #0C0037",
"+  c #1A0038",
"@  c #39072D",
"#  c #3F1728",
"$  c #2E0037",
"%  c #2C003A",
"&  c #390D3B",
"*  c #460200",
"=  c #480200",
"-  c #480B00",
";  c #440D08",
":  c #461300",
">  c #491300",
",  c #4B1A00",
"<  c #4D2101",
"1  c #562B00",
"2  c #5A3500",
"3  c #4C2515",
"4  c #4E2C23",
"5  c #44292E",
"6  c #4E393D",
"7  c #593A37",
"8  c #735301",
"9  c #7D6A17",
"0  c #735722",
"q  c #6B4937",
"w  c #775B3C",
"e  c #1C0042",
"r  c #330043",
"t  c #351E51",
"y  c #3A2B51",
"u  c #483544",
"i  c #574347",
"p  c #5C4F50",
"a  c #5D525A",
"s  c #6C5846",
"d  c #6F5E51",
"f  c #4A4561",
"g  c #575465",
"h  c #5C5B6C",
"j  c #4A5E7C",
"k  c #545872",
"l  c #5B5D71",
"z  c #625F6D",
"x  c #4C607E",
"c  c #5E6279",
"v  c #68656E",
"b  c #626373",
"n  c #63667A",
"m  c #65697C",
"M  c #696C7A",
"N  c #816604",
"B  c #896A1F",
"V  c #8F6E2D",
"C  c #857122",
"Z  c #917627",
"A  c #9C7D2E",
"S  c #896A36",
"D  c #987B31",
"F  c #A37C30",
"G  c #8B8025",
"H  c #928125",
"J  c #958829",
"K  c #9D9225",
"L  c #9E922B",
"P  c #A49B2C",
"I  c #A68C32",
"U  c #A89A34",
"Y  c #B69C37",
"T  c #B19C3A",
"R  c #AFA533",
"E  c #B4A936",
"W  c #BCAD3A",
"Q  c #BEB13F",
"!  c #C5B33D",
"~  c #8F834C",
"^  c #AB9A40",
"/  c #BEAF40",
"(  c #BFB140",
")  c #C2B540",
"_  c #C3BB40",
"`  c #C9BB40",
"'  c #CFC343",
"]  c #D1C443",
"[  c #D5CA43",
"{  c #DACD46",
"}  c #DED347",
"|  c #DFDA4C",
" . c #E0D747",
".. c #E3DB4A",
"X. c #E4E04B",
"o. c #EBE64E",
"O. c #EEEB4F",
"+. c #F5F453",
"@. c #FBFB55",
"#. c #FFFF58",
"$. c #445F87",
"%. c #4E6282",
"&. c #4F6788",
"*. c #516585",
"=. c #5F6781",
"-. c #546986",
";. c #5E6880",
":. c #526689",
">. c #566A8C",
",. c #596D8C",
"<. c #5C718E",
"1. c #4F6890",
"2. c #566D92",
"3. c #5A6E92",
"4. c #536F99",
"5. c #5D7294",
"6. c #5E7599",
"7. c #5F789F",
"8. c #636B83",
"9. c #616E8A",
"0. c #657087",
"q. c #6D7283",
"w. c #65728B",
"e. c #69768E",
"r. c #757D8B",
"t. c #627694",
"y. c #697791",
"u. c #647895",
"i. c #6C7B95",
"p. c #61769A",
"a. c #657A9C",
"s. c #697D9D",
"d. c #707C93",
"f. c #5F79A1",
"g. c #657CA1",
"h. c #697EA1",
"j. c #6C819E",
"k. c #72829C",
"l. c #7A879D",
"z. c #78889F",
"x. c #6B81A4",
"c. c #6781A9",
"v. c #6D85AA",
"b. c #6D88AF",
"n. c #7185A3",
"m. c #7689A4",
"M. c #7B8BA3",
"N. c #7087AB",
"B. c #7289AD",
"V. c #7E90A9",
"C. c #6F89B0",
"Z. c #6D8BB8",
"A. c #758DB2",
"S. c #788FB4",
"D. c #7991B6",
"F. c #7791BA",
"G. c #7C94BB",
"H. c #818EA3",
"J. c #818FA9",
"K. c #8391A7",
"L. c #8593AB",
"P. c #8596B3",
"I. c #8896B0",
"U. c #8A9AB5",
"Y. c #8299BE",
"T. c #8C9DBB",
"R. c #909FBB",
"E. c #8FA0BC",
"W. c #829AC0",
"Q. c #8D9FC0",
"!. c #8EA1C2",
"~. c #90A3C4",
"^. c #99A9C6",
"/. c #A6B3CB",
/* pixels */
"!.Q.Q.Q.Q.~.~.~.!.~.!.!.!.!.!.!.~.~.!.~.~.!.Q.D.J.Q.Q.Q.Q.Q.Q.W.~.~.~.~.~.~.Q.~.Q.Q.~.~.Q.Q.~.~.W./.",
"F.F.F.F.F.F.F.F.G.F.G.F.F.F.F.F.F.F.F.F.F.F.A.f.4.c.G.F.F.F.G.G.F.F.F.F.F.F.F.S.G.G.F.F.F.F.F.G.Z.^.",
"Y.G.Y.Y.Y.G.Y.Y.Y.G.G.G.Y.G.Y.Y.Y.Y.G.Y.W.F.g.g.g.g.b.W.W.G.G.G.Y.G.Y.G.Y.Y.G.Y.W.G.W.G.W.Y.Y.Y.F.^.",
"G.G.G.G.D.G.G.G.G.Y.G.G.G.G.F.G.G.G.G.G.Z.g.6.Y.C.g.f.h.A.S.G.F.D.G.G.F.S.D.Y.G.G.G.G.G.D.G.G.Y.F.^.",
"B.A.A.A.A.S.S.A.A.A.S.F.G.G.D.A.A.S.S.A.g.f.F.G.Z.h.g.7.h.C.F.A.A.S.S.S.B.A.S.S.S.A.A.S.A.A.S.A.b.R.",
"v.B.v.v.B.B.A.C.v.v.v.S.A.D.D.A.A.A.v.g.6.A.W.c.h.h.h.g.g.h.A.A.A.S.A.B.B.A.A.A.A.b.N.B.A.A.N.N.h.U.",
"S.F.S.A.A.B.S.S.A.A.C.A.B.A.D.D.A.A.g.6.A.W.h.v.C.h.h.b.g.6.b.F.D.D.S.A.C.S.G.D.F.A.N.D.G.F.A.S.Z.~.",
"D.G.F.S.S.F.F.S.D.F.D.D.D.D.D.A.A.g.4.A.Y.h.c.v.C.h.N.h.h.a.p.h.D.G.F.S.G.S.D.F.F.F.D.D.F.D.S.D.S.Q.",
"D.D.D.D.D.D.D.D.D.D.D.D.D.D.G.A.g.2.F.F.v.h.h.v.h.A.8.4 r $ 5 y.A.F.S.F.S.S.S.S.D.D.D.D.D.D.D.D.A.!.",
"S.D.D.D.D.D.A.D.D.D.D.D.A.D.A.c.2.A.G.b.h.v.c.c.h.A.8.= U L 8 v 9.N.S.S.S.F.F.S.V.A.D.D.A.D.D.D.C.R.",
"A.D.A.D.A.D.A.D.A.D.A.A.D.C.7.6.C.G.c.v.v.v.v.h.h.A.8.= +.o.F 8 u s.N.A.S.S.S.S.D.A.D.A.A.D.A.D.C.R.",
"A.A.A.A.A.D.A.A.A.A.A.D.A.g.6.N.W.h.h.v.c.h.h.v.h.Z.=.= ' ..o.C t n.g.b.S.S.S.A.A.A.A.D.A.A.D.V.C.R.",
"V.S.A.A.A.B.A.A.S.A.A.A.7.4.N.G.h.h.c.v.x.c.c.c.h.B.w.p ^ [ #.L i d.p.p.B.A.A.A.D.A.A.A.A.A.A.D.C.T.",
"A.A.A.A.A.A.B.A.A.A.C.j.2.B.D.x.h.h.h.h.c.x.x.x.x.n.N.V.e K @.W V : 8.g.5.v.S.A.A.A.A.A.A.A.B.D.b.R.",
"A.A.B.A.A.B.A.A.A.B.7.2.B.D.v.x.v.B.c.v.c.h.h.x.v.x.n.M.r K @.[ E , ;.j.5.6.c.A.A.B.A.A.B.A.B.B.b.T.",
"v.v.N.N.N.N.N.B.N.j.2.v.A.x.u.k.d.d.s.c.h.g.h.h.h.s.s.m.r L @. ._ . m c.6.3.5.x.N.B.N.v.N.v.N.N.g.U.",
"h.c.x.x.x.v.v.c.a.4.h.F.h.u.i X o   f N.j.a.a.a.a.j.x.m.+ K #.} / = 8.x.6.6.3.6.g.v.v.c.c.x.c.v.f.L.",
"v.C.v.v.v.v.A.g.2.h.G.h.h.s.@ G _ P ~ k k.N.j.x.N.m.e.b q R #. .) = 8.x.a.a.6.3.6.v.v.x.N.B.B.v.c.U.",
"B.B.N.A.B.B.7.>.h.F.h.h.h.x.+ E #. .Q * r.M.z.M.z.V.M 1 J ! @.} Q : 8.v.g.g.c.7.3.3.v.B.N.A.B.B.c.U.",
"B.N.N.B.B.a.2.h.A.x.g.h.h.h.# N T O.| S 7 + $ % $ O q A ..+.@.) D = m v.g.h.a.h.f.3.5.x.B.N.B.B.c.U.",
"N.N.N.N.p.2.h.B.x.a.h.g.g.a.l d B  .X.) R P P P P P E ` +.+.o.U w g e.x.g.g.g.g.h.7.2.6.x.N.N.B.c.P.",
"N.N.b.g.2.g.A.x.a.h.a.g.g.a.B.=.: (  .@.@.#.@.@.@.@.@.+.@.o.` 9 y N.x.a.g.a.g.g.g.g.7.2.6.x.B.N.c.E.",
"N.v.a.2.p.S.c.6.g.g.g.g.g.g.x.c , I `  .} | +.+.@.+.+.@.X.] Y 8 u x.h.p.a.g.g.g.a.g.g.6.>.5.c.B.c.P.",
"v.g.>.6.S.h.a.g.p.6.g.a.a.g.h.9.i S I ( ! ' O.O.O.O.O.X._ T V s g h.g.g.g.a.a.g.a.g.7.a.6.>.5.v.c.V.",
"5.2.p.A.p.p.a.p.6.6.p.6.5.p.p.h.s.6 = * Z E [ [ [ { ! A 2 . > 9.h.6.p.p.6.p.a.p.6.6.6.6.p.p.>.t.1.z.",
"2.&.a.N.3.3.6.6.5.6.6.6.3.6.6.p.p.8.8.8.s 8 J G H H C 0 n m l t.p.3.5.5.2.6.6.5.3.p.p.6.3.6.2.2.%.z.",
"h.2.2.a.p.6.6.6.p.6.6.6.p.p.6.p.p.x.n.N.g # X @ & & @ ; i.x.h.a.p.6.p.p.p.6.6.6.p.p.p.p.6.2.2.h.7.M.",
"B.g.2.2.p.a.p.p.p.p.a.a.p.p.p.p.a.a.h.d.h.y.< M M.n.m , i.n.x.h.a.g.p.p.p.a.p.a.p.a.g.u.2.>.a.J.c.K.",
"B.h.h.5.>.6.p.p.p.g.p.p.6.a.a.p.p.a.s.s.x.y.- m m.v.n = l n l y.s.u.p.a.a.p.p.p.p.p.g.2.>.a.S.N.g.I.",
"h.h.h.h.>.1.5.p.p.p.p.p.a.p.p.p.p.p.a.s.x.e.= m j.k.n > , , = 9.h.p.p.p.p.p.p.p.p.g.>.:.s.A.h.n.g.L.",
"h.h.h.h.g.>.1.5.p.6.p.t.6.t.t.p.t.6.y.a.j.y.= c n.k.j.i.j.8.- w.h.t.p.p.p.p.p.p.p.3.:.h.B.x.x.v.g.L.",
"h.B.h.h.h.g.>.>.5.p.6.6.t.6.6.6.t.6.t.a.j.y.= n m.k.y.8.9.h - 0.s.p.3.t.p.t.p.6.3.:.g.N.v.x.j.v.g.L.",
"h.B.h.h.h.h.h.3.:.5.p.5.p.5.p.p.p.t.p.u.h.y.= m n.n.b * = > , 9.j.5.t.t.p.p.5.3.:.p.h.h.h.A.h.h.7.L.",
"h.h.B.h.h.h.h.h.>.:.5.5.5.p.5.5.5.5.3.t.s.e.* m n.k.i.w.d.m = 0.s.6.p.5.5.5.>.:.t.B.h.h.h.h.h.M.j.L.",
"h.h.h.h.h.h.h.h.a.:.:.3.5.9.3.3.,.3.t.,.t.9.= M k.k.i.w.i.m = 0.s.t.5.,.5.>.*.5.B.h.h.h.h.h.h.h.7.K.",
"p.p.p.y.p.p.a.a.a.5.:.:.>.>.3.3.>.3.3.>.t.9.= m k.k.c * * - , 8.u.>.,.2.3.*.t.N.i.a.a.p.p.i.p.h.2.M.",
"i.a.p.a.a.p.p.a.h.i.p.:.:.>.3.5.3.5.3.3.u.<.- m z.k.i.q.q.z - =.p.3.5.>.%.p.N.s.p.a.a.p.p.p.p.s.5.V.",
"h.h.h.g.h.h.g.i.h.h.h.t.:.:.3.5.5.t.t.3.u.0.* m z.k.l.l.M.q.* =.s.3.>.%.p.h.h.a.a.h.h.h.a.a.s.h.j.V.",
"h.h.h.h.h.h.h.h.h.h.h.h.3.:.:.9.5.2.5.,.a.e.= q.K.V.M - < , = 8.u.:.%.3.h.n.h.h.h.h.h.i.h.h.h.h.6.V.",
"i.h.h.i.i.g.s.s.i.h.h.i.h.5.:.:.<.<.5.5.i.0.: a m M p > g h h w.5.*.,.n.h.s.s.s.i.h.h.h.i.h.i.h.j.K.",
"a.j.j.j.j.a.u.j.g.s.s.s.a.s.t.$.*.<.<.<.j.;.3 , * * , 3 j.j.j.<.-.,.v.a.a.j.j.j.h.i.s.i.a.s.a.h.<.V.",
"a.u.7.u.a.j.a.a.g.i.s.s.s.s.i.t.x *.,.<.5.5.e.e.e.e.u.e.<.<.-.x <.j.j.j.j.a.u.a.a.h.s.s.a.s.s.s.j.V.",
"j.u.6.j.u.j.u.j.s.a.a.a.a.a.s.u.<.x -.<.<.<.u.<.6.5.e.<.<.x x <.a.j.j.u.a.u.j.a.i.g.a.s.s.u.i.s.,.M.",
"u.u.j.u.a.u.u.j.p.y.i.s.a.y.s.a.j.<.x x <.<.,.,.,.,.<.<.-.x x j.j.u.a.u.u.j.u.a.p.i.a.p.u.s.a.i.j.V.",
"u.u.5.5.u.u.5.<.<.<.t.u.5.<.u.u.<.j.-.x x <.,.,.-.,.<.-.x x j.j.u.u.u.u.u.u.a.u.u.u.u.u.u.u.u.s.j.z.",
"<.<.<.<.t.<.<.<.<.<.<.t.<.<.5.t.j.<.<.-.x x x -.-.x x x x j.j.<.5.<.5.<.<.<.u.u.5.t.<.t.t.t.y.a.x l.",
"u.u.<.<.t.t.u.t.<.5.<.t.t.t.t.t.<.<.<.j.<.x x -.,.-.x -.j.j.j.<.<.t.t.<.t.t.t.5.<.<.<.<.<.,.2.<.<.M.",
"u.u.u.u.u.u.u.u.t.t.t.u.u.t.t.u.<.<.j.<.j.-.x x x x x j.j.j.<.e.t.t.u.u.u.u.u.u.u.u.5.t.t.t.5.y.<.H.",
"t.t.e.u.u.<.u.u.<.j.<.j.<.e.<.j.<.<.j.<.j.j.x x j x j.j.e.<.j.<.u.u.u.t.u.u.<.u.u.j.<.<.<.j.j.j.x M.",
"u.u.u.u.u.u.e.u.u.u.j.<.<.j.j.e.M j.<.j.,.<.j.x j <.j.<.<.j.<.j.u.u.e.u.u.u.u.u.u.e.e.j.j.<.<.e.<.H."
};
