/* XPM */
static char *result[] = {
/* columns rows colors chars-per-pixel */
"50 50 169 2 ",
"   c black",
".  c #190000",
"X  c #210000",
"o  c #2C0001",
"O  c #310000",
"+  c #3F0000",
"@  c #2C0027",
"#  c #24002B",
"$  c #280034",
"%  c #450100",
"&  c #490100",
"*  c #400B01",
"=  c #4A1500",
"-  c #4A1B00",
";  c #421616",
":  c #4D2504",
">  c #532300",
",  c #532C00",
"<  c #593500",
"1  c #5C3C00",
"2  c #4D2714",
"3  c #613D0E",
"4  c #4E312B",
"5  c #563629",
"6  c #4A2E34",
"7  c #4F3738",
"8  c #4D393D",
"9  c #503633",
"0  c #503837",
"q  c #513B3B",
"w  c #5D4000",
"e  c #6B4A00",
"r  c #685204",
"t  c #7F5F00",
"y  c #654617",
"u  c #7F6B0C",
"i  c #786310",
"p  c #7F6C10",
"a  c #68492F",
"s  c #7B5821",
"d  c #71502B",
"f  c #625034",
"g  c #775A3A",
"h  c #412F4D",
"j  c #4D3B40",
"k  c #44354D",
"l  c #4B3B4B",
"z  c #523E43",
"x  c #443552",
"c  c #463851",
"v  c #4D414C",
"b  c #544145",
"n  c #534148",
"m  c #534752",
"M  c #544A55",
"N  c #584A53",
"B  c #554D59",
"V  c #57505C",
"C  c #59515D",
"Z  c #6F5D4C",
"A  c #6A5B56",
"S  c #6C605B",
"D  c #4C4864",
"F  c #544F63",
"G  c #555365",
"H  c #5A5563",
"J  c #555469",
"K  c #5B5868",
"L  c #5B5B6B",
"P  c #575A76",
"I  c #4B607E",
"U  c #5E6277",
"Y  c #5C637B",
"T  c #63616B",
"R  c #7E7762",
"E  c #616376",
"W  c #686A77",
"Q  c #64697A",
"!  c #6E727F",
"~  c #846E00",
"^  c #856615",
"/  c #8F672D",
"(  c #8D7128",
")  c #977729",
"_  c #9B7B2B",
"`  c #9D7D31",
"'  c #97851C",
"]  c #93822A",
"[  c #9E862A",
"{  c #A18C27",
"}  c #A6942E",
"|  c #A78A35",
" . c #A9973A",
".. c #B39737",
"X. c #A8A137",
"o. c #B3A636",
"O. c #B7B03A",
"+. c #C2B43F",
"@. c #C9B63E",
"#. c #BDAF43",
"$. c #C4B540",
"%. c #CABC41",
"&. c #D2C443",
"*. c #D4C946",
"=. c #DACD46",
"-. c #D0CE48",
";. c #DCD246",
":. c #DAD64A",
">. c #E3DD4B",
",. c #E7E14B",
"<. c #E9E44D",
"1. c #EEEA4E",
"2. c #E3E250",
"3. c #ECEB52",
"4. c #F5F452",
"5. c #FBFB54",
"6. c #4E6282",
"7. c #4D658A",
"8. c #516585",
"9. c #5D6D87",
"0. c #526689",
"q. c #556A8D",
"w. c #5A6E8D",
"e. c #5C718D",
"r. c #566D92",
"t. c #596E92",
"y. c #5D7294",
"u. c #5E759A",
"i. c #626C85",
"p. c #636E8A",
"a. c #6A7285",
"s. c #63738E",
"d. c #6A758B",
"f. c #6D7A8C",
"g. c #727A8A",
"h. c #627694",
"j. c #687590",
"k. c #647895",
"l. c #6A7B94",
"z. c #61769A",
"x. c #647A9C",
"c. c #697D9C",
"v. c #667CA1",
"b. c #697EA1",
"n. c #6E819C",
"m. c #738296",
"M. c #72839B",
"N. c #7A899E",
"B. c #6780A5",
"V. c #6B81A5",
"C. c #6C84AA",
"Z. c #7285A3",
"A. c #7588A5",
"S. c #798AA6",
"D. c #7187AB",
"F. c #7289AD",
"G. c #798DAC",
"H. c #7D90AF",
"J. c #758DB2",
"K. c #788FB3",
"L. c #768FB9",
"P. c #7690B7",
"I. c #7991B6",
"U. c #7D94BC",
"Y. c #8295B5",
"T. c #8097BC",
"R. c #849ABD",
"E. c #849BC1",
"W. c #8C9FC0",
/* pixels */
"R.U.U.U.U.U.U.U.U.U.U.E.U.U.U.U.U.U.U.U.U.U.U.C.B.L.U.L.U.U.L.L.U.E.U.E.U.U.U.E.U.U.E.U.U.U.U.U.L.W.",
"E.U.U.U.U.U.U.U.U.U.U.U.U.U.U.U.U.U.U.E.U.U.L.v.u.C.U.U.U.U.E.U.U.U.U.U.E.U.U.U.U.U.U.U.T.U.U.E.L.W.",
"E.U.U.U.U.U.U.U.U.U.U.U.U.U.U.U.U.U.U.U.L.L.v.v.v.u.C.U.U.U.L.U.U.U.U.U.U.U.U.U.U.U.U.U.U.U.U.U.U.W.",
"R.U.U.U.U.U.U.U.U.U.U.U.U.U.U.U.U.U.U.U.L.v.u.U.L.u.v.B.L.J.U.L.J.U.U.U.L.L.U.U.U.U.U.U.U.U.T.T.L.W.",
"I.F.J.J.J.J.J.J.J.F.J.U.U.I.I.J.L.J.L.F.v.u.L.U.F.C.v.u.B.J.J.J.F.J.J.J.C.J.J.J.L.J.F.J.J.J.J.J.C.Y.",
"J.C.C.C.F.J.J.F.C.C.F.J.I.J.I.I.J.J.F.v.u.L.E.C.v.C.C.u.u.B.J.J.J.J.J.J.C.J.J.J.J.F.C.J.J.J.C.D.C.I.",
"Y.U.K.J.J.J.L.J.J.J.F.J.F.J.I.I.J.J.v.u.J.E.B.C.C.C.C.C.u.u.C.J.U.U.U.J.J.K.I.U.L.K.J.K.U.K.J.J.L.R.",
"U.J.U.J.J.K.U.L.I.U.I.I.P.P.P.P.L.v.r.J.E.v.C.B.v.C.C.C.C.u.u.C.J.U.J.J.U.U.U.I.L.L.K.L.L.U.I.U.I.R.",
"T.J.I.I.I.K.I.I.I.K.I.I.P.P.I.P.v.r.L.L.C.C.C.C.C.C.C.C.v.v.v.u.B.L.L.P.I.I.I.I.I.I.I.I.I.I.I.I.J.R.",
"U.K.I.I.I.I.K.K.P.K.P.I.P.P.P.x.r.L.U.F.v.C.v.v.C.v.v.C.C.C.v.u.u.B.P.I.P.I.L.I.J.I.J.I.I.J.I.I.J.R.",
"U.J.I.G.I.J.J.I.K.K.J.J.P.J.B.y.L.L.C.v.C.C.C.C.v.v.C.v.v.C.C.C.v.u.C.J.I.J.I.I.J.H.J.I.J.J.J.I.J.Y.",
"I.J.J.J.J.J.J.I.J.J.J.I.F.B.t.D.U.B.v.C.C.v.v.C.C.C.C.C.C.C.v.C.v.u.u.B.J.J.J.J.P.I.J.I.J.J.I.J.J.Y.",
"I.H.J.J.J.J.I.F.J.K.F.J.B.r.D.U.B.B.C.B.C.C.v.C.C.C.v.C.C.v.C.v.C.B.u.u.C.I.J.J.F.J.J.J.J.J.J.J.J.Y.",
"I.F.J.J.G.J.F.P.J.J.F.B.r.C.U.B.C.v.v.C.b.C.C.v.v.b.C.b.v.C.v.C.B.C.B.u.y.V.J.J.J.J.J.J.J.G.J.J.F.Y.",
"I.F.I.F.J.F.P.F.F.F.B.r.F.P.C.B.B.C.C.v.v.C.b.v.C.v.v.C.b.v.C.v.u.n.B.u.y.y.B.J.F.J.F.J.J.J.J.G.F.U.",
"G.C.C.D.D.C.D.D.F.n.q.C.J.B.u.B.v.v.v.b.v.v.v.v.v.v.v.p.p.p.t.u.B.x.u.u.u.y.y.B.D.D.D.D.C.C.B.D.B.G.",
"Z.B.C.B.v.C.C.B.x.t.B.I.C.z.v.x.v.u.u.v.c.x.u.u.x.v.l.> + O % H D.x.x.x.x.u.y.r.v.C.C.B.B.B.B.V.B.S.",
"G.C.F.C.C.F.J.v.r.v.U.C.v.v.v.x.x.v.x.u.v.v.x.v.v.C.c.@ X.2.{ g m h.B.v.v.x.z.t.u.C.C.C.C.J.J.C.B.I.",
"I.C.F.F.F.J.x.r.v.U.v.b.v.v.v.v.b.B.v.v.v.v.B.v.v.V.M.# O.5.$.| % f.C.v.v.v.B.v.t.t.V.F.F.F.F.F.C.I.",
"J.F.F.F.F.u.q.B.J.v.b.v.v.v.v.v.v.v.v.v.v.v.v.v.v.B.l.o { =.4.-.  l.F.v.v.v.v.v.v.y.y.B.F.D.F.F.C.H.",
"G.C.F.F.u.q.B.G.V.v.v.v.x.v.v.v.v.v.v.v.v.v.x.v.x.n.n.i.R ' 4.:.s S Y V.x.v.v.x.v.u.r.y.B.F.C.F.C.H.",
"G.C.F.u.r.v.F.C.x.v.v.x.v.v.v.x.v.v.x.x.x.v.v.v.v.V.V.G.P O 3.>.| e l A.v.v.v.v.v.v.u.t.u.v.F.F.C.H.",
"I.C.v.r.v.J.B.v.v.v.x.v.v.v.B.C.Z.D.Z.V.v.v.x.v.v.V.V.Z.E , 3.1.%.^ x Z.v.v.v.v.v.v.v.u.t.r.C.F.C.H.",
"F.u.q.u.K.v.z.u.x.x.v.x.x.x.p.U Y Y Y c.V.c.x.v.c.V.n.A.U = 3.1.*.p h Z.x.z.v.x.x.x.x.v.y.t.t.B.C.Z.",
"k.q.x.J.z.u.x.z.y.u.x.u.y.v.H & = - , j.n.l.z.z.x.c.c.Z.E , 3.<.&.u h Z.z.z.v.z.u.y.u.u.z.z.w.t.r.l.",
"y.7.z.F.t.y.u.y.y.y.u.y.y.u.D r 3.:.#.f P S.n.n.M.Z.M.k g ) 1.1.*.p h c.y.t.z.t.y.z.x.u.y.y.t.q.7.z.",
"Z.t.t.z.z.z.u.z.u.z.u.z.u.x.D r :.,.:.~ A d.a.a.a.d.! y { @.4.,.$.i c M.z.z.z.z.z.z.x.z.u.r.0.V.x.c.",
"K.v.t.0.z.z.z.z.x.x.z.x.z.v.G < / *.5. .s . o o O X & ) -.5.5.:.` e l c.z.z.x.z.z.x.z.z.t.q.x.K.F.A.",
"K.b.b.u.r.u.z.z.x.z.z.z.u.x.s.Q 5 o.2.>.,.:.:.:.:.;.:.>.1.4.,.+.3 W h.x.z.x.z.z.z.x.x.t.q.z.K.Z.v.G.",
"G.b.b.b.r.0.u.z.z.z.z.x.x.k.B.n.@ [ &.3.4.4.5.5.5.5.5.5.4.1.&. .o d.V.z.x.z.h.v.z.z.t.0.c.K.V.Z.V.S.",
"S.b.b.b.x.r.0.t.z.u.u.k.u.y.n.s.+ ^ ..&.=.&.1.5.4.4.4.5.<.&...( % p.c.z.z.z.h.z.z.t.0.v.F.V.V.Z.v.G.",
"S.b.Z.b.b.x.r.q.y.k.u.u.u.k.u.y.9.A t ) } o.;.,.,.,.>.&.o.] u Z P h.z.y.z.y.h.u.r.0.v.D.Z.V.V.V.v.S.",
"b.b.b.b.b.b.b.t.q.y.u.y.y.z.y.z.V.P ; $ a { #.%.%.%.$._ d $ ; J V.z.y.z.h.h.u.q.0.h.G.b.b.b.b.S.n.A.",
"G.b.b.b.b.b.b.b.q.0.t.u.z.y.y.y.h.h.l.n.E > 3 y 1 1 w < T c.j.j.k.z.z.y.y.y.t.0.z.D.b.b.b.b.b.b.B.S.",
"b.b.b.b.b.b.b.b.x.0.0.p.y.t.t.t.w.h.k.x.p.G 6 6 L G F * L v.l.x.z.h.y.w.y.t.0.y.D.b.b.b.b.b.b.b.u.S.",
"c.z.z.x.z.j.x.x.x.z.0.0.q.t.p.t.q.t.h.s.h.c.z n Z.b.h.: L x.k.k.t.w.w.q.t.0.y.Z.z.c.x.z.z.x.z.b.y.n.",
"b.c.z.x.x.j.z.x.b.b.z.0.0.q.t.t.y.y.y.h.k.u.b z l.l.j.- 2 q 7 G h.h.t.q.6.h.Z.v.j.x.x.z.z.z.y.b.u.M.",
"b.b.b.b.b.b.x.b.b.b.c.u.0.0.t.j.y.y.y.h.k.k.b z c.c.l.B m m = B x.t.q.6.h.b.b.x.b.b.b.b.j.b.b.b.B.M.",
"Y.b.b.b.b.b.b.b.c.b.b.b.y.0.0.t.y.y.e.k.k.n.n z c.c.c.n.v.v.9 B c.w.8.w.b.Z.b.b.b.b.b.b.c.b.b.b.B.M.",
"l.l.c.c.b.x.c.c.c.c.c.c.b.j.8.0.e.e.y.y.s.n.b z M.M.l.N N M - C l.8.q.Z.b.c.b.c.c.x.c.c.c.c.c.c.B.M.",
"n.n.u.n.u.n.n.n.c.x.c.c.c.c.z.6.8.e.e.e.y.n.b z M.n.f.0 4 9 - B e.w.B.n.u.n.n.x.x.c.c.c.c.c.c.b.n.n.",
"n.u.n.n.n.n.u.u.c.c.c.x.c.c.c.t.6.8.w.e.e.n.b z M.M.n.n.Z.M.9 v k.n.n.n.n.n.u.n.c.x.c.x.z.c.x.c.B.A.",
"n.n.n.u.u.n.k.n.c.c.c.l.x.x.c.c.e.6.I e.y.m.j z M.M.l.L L T : C A.n.n.k.x.x.k.x.x.x.c.c.x.x.c.c.e.n.",
"n.u.n.y.n.u.n.k.h.z.z.c.l.k.x.x.n.e.I I e.n.b j M.M.l.2 = - % K Z.n.y.n.u.n.n.x.l.x.l.x.l.l.z.l.n.N.",
"n.y.y.y.n.s.y.e.h.e.z.k.h.s.k.x.k.n.9.I 8.j.z b m.M.m.m.m.m.5 V n.n.y.y.k.k.k.k.l.k.k.k.x.k.x.k.e.n.",
"n.8.e.e.y.y.e.e.e.e.e.e.w.w.y.e.y.y.e.q.I e.8 b m.m.m.W Q g.4 B n.e.e.e.y.e.k.k.y.y.e.h.h.h.x.k.q.m.",
"k.n.e.e.y.k.z.k.e.e.e.k.k.y.h.k.e.y.k.z.s.9.j b N.N.f.- % % + M n.e.y.y.y.k.k.y.e.e.e.e.e.q.q.p.y.n.",
"m.y.k.n.k.k.k.k.y.k.k.k.z.h.k.k.k.y.k.k.l.l.8 - b q 0 % C m.d.m.n.n.y.n.k.k.k.k.k.z.h.h.h.h.h.h.y.M.",
"n.e.e.n.e.e.n.e.e.n.e.n.e.e.m.e.n.e.e.e.n.m.C j 8 b M b Q n.m.n.e.n.e.y.n.n.e.m.n.e.n.e.n.e.e.n.e.m.",
"m.e.n.y.e.n.e.m.e.n.m.e.e.n.e.n.n.e.n.e.n.e.n.e.e.m.N.n.n.n.y.y.m.e.m.e.e.e.n.e.e.e.e.m.e.n.e.n.e.m."
};
