/* XPM */
static char *result[] = {
/* columns rows colors chars-per-pixel */
"50 50 181 2 ",
"   c #350002",
".  c #3D0000",
"X  c #3A000C",
"o  c #3C001B",
"O  c #290023",
"+  c #380029",
"@  c #3C1221",
"#  c #330039",
"$  c #440000",
"%  c #480100",
"&  c #490D00",
"*  c #491300",
"=  c #4C1D00",
"-  c #521800",
";  c #4B2304",
":  c #522800",
">  c #4B271B",
",  c #603700",
"<  c #613A00",
"1  c #431C2D",
"2  c #4C2A25",
"3  c #4F312D",
"4  c #53372E",
"5  c #472C34",
"6  c #523733",
"7  c #634600",
"8  c #644C00",
"9  c #6C4E00",
"0  c #6C5400",
"q  c #6D5900",
"w  c #725700",
"e  c #785615",
"r  c #776200",
"t  c #7E6902",
"y  c #7A592C",
"u  c #634B36",
"i  c #6B5334",
"p  c #7A6621",
"a  c #3C2A51",
"s  c #46364C",
"d  c #533F44",
"f  c #45375A",
"g  c #554246",
"h  c #584545",
"j  c #53424A",
"k  c #58494E",
"l  c #4C415C",
"z  c #574B59",
"x  c #524C5E",
"c  c #57505E",
"v  c #6F5A4B",
"b  c #655757",
"n  c #4C4B6B",
"m  c #504760",
"M  c #595463",
"N  c #5F5862",
"B  c #56536D",
"V  c #58556E",
"C  c #5B586A",
"Z  c #465B7A",
"A  c #5D5E71",
"S  c #5A5E78",
"D  c #615965",
"F  c #655F69",
"G  c #615F74",
"H  c #4C617E",
"J  c #5A6279",
"K  c #5D647C",
"L  c #66646D",
"P  c #616274",
"I  c #6B6771",
"U  c #62667B",
"Y  c #63697E",
"T  c #716B76",
"R  c #77737F",
"E  c #806C0A",
"W  c #8C6D1E",
"Q  c #897014",
"!  c #875F2D",
"~  c #876826",
"^  c #906D2D",
"/  c #857821",
"(  c #947E28",
")  c #866634",
"_  c #99862D",
"`  c #9E8B32",
"'  c #A78A34",
"]  c #A88F37",
"[  c #A99A35",
"{  c #B39835",
"}  c #B59E3B",
"|  c #B3A438",
" . c #B6A639",
".. c #B6A83A",
"X. c #C6B23B",
"o. c #CABB3F",
"O. c #BAB441",
"+. c #C5B741",
"@. c #CABC45",
"#. c #CCC141",
"$. c #D2C444",
"%. c #D6C946",
"&. c #DACE45",
"*. c #DCD247",
"=. c #D6D248",
"-. c #DED648",
";. c #E0D648",
":. c #E2DC4A",
">. c #E7E14B",
",. c #EAE64E",
"<. c #EEE94E",
"1. c #EEED52",
"2. c #F1EF50",
"3. c #F4F353",
"4. c #F8F753",
"5. c #FAFA54",
"6. c #FBFC5B",
"7. c #4E6382",
"8. c #4B648A",
"9. c #516585",
"0. c #546886",
"q. c #5A6B85",
"w. c #526689",
"e. c #566A8C",
"r. c #596D8D",
"t. c #5C708E",
"y. c #566D91",
"u. c #5A6E92",
"i. c #5D7293",
"p. c #5E7599",
"a. c #616780",
"s. c #636D86",
"d. c #616E89",
"f. c #736F81",
"g. c #66728C",
"h. c #6A738A",
"j. c #717789",
"k. c #617694",
"l. c #6A7791",
"z. c #647996",
"x. c #6B7C95",
"c. c #61769A",
"v. c #647A9C",
"b. c #697D9D",
"n. c #737D93",
"m. c #707F9A",
"M. c #667CA1",
"N. c #697EA1",
"B. c #6D819E",
"V. c #778194",
"C. c #7D8296",
"Z. c #73839C",
"A. c #7B899E",
"S. c #6C81A4",
"D. c #6D85AA",
"F. c #6F88AF",
"G. c #7285A4",
"H. c #7688A4",
"J. c #7A8AA5",
"K. c #7187AB",
"L. c #7289AD",
"P. c #7A8DAB",
"I. c #7D90AD",
"U. c #758DB2",
"Y. c #798FB3",
"T. c #718DB9",
"R. c #7790B6",
"E. c #7A91B5",
"W. c #7791BB",
"Q. c #7C94BB",
"!. c #8192AA",
"~. c #8396B6",
"^. c #8197BB",
"/. c #8499BB",
"(. c #899CB9",
"). c #91A0BC",
"_. c #849BC1",
"`. c #8C9EC0",
"'. c #8EA1C2",
"]. c #90A3C4",
"[. c #99A9C7",
/* pixels */
"].'.'.'.`.].].].].].].].'.'.`.].].].'.'.'.'.'.Q.E.).).R R f.T C.[.[.`.].].'.'.'.'.].].].'.'.'.'.`.[.",
"Q.W.W.W.W.W.W.W.W.W.W.W.W.W.W.W.W.W.W.W.W.W.T.p.y.F.Y.. : 8 - F E.Y.W.W.W.W.W.T.W.W.W.W.W.T.W.Q.T.`.",
"/.Q.Q.^.^.Q.^.^.^.^.Q.^._.^.Q.^.Q.^._.Q._.W.N.M.v.S.G.# O.6.] ) 4 !./.Q._.Q._._._.Q._.^.^.^.Q.Q.Q.'.",
"/.Q.Q.Q.Q.Q.Q.Q.Q.Q.Q.Q.W.Q.Q.Q.Q.Q.Q.Q.T.M.p.Q.T.M.b.O | <.&.|   P._.Q.U.E.Q.Q.W.Q.Q.Q.W.Q._._.W.`.",
"Y.F.F.U.U.U.U.U.L.U.U.W.Q.Q.W.U.E.U.U.U.N.c.W.W.L.K.b.+ ` $.5.=.  A.^.U.U.U.Y.Y.Y.U.U.U.Y.T.U.U.F.~.",
"L.F.F.D.F.U.U.F.D.D.F.U.Y.U.Y.U.F.U.F.M.p.T.Q.F.N.L.H.B.L w 2.-.^ i C E.F.L.U.U.W.N.F.F.Y.L.D.K.N.~.",
"~.W.E.U.T.F.E.Y.U.U.U.U.U.L.Y.E.Y.Y.M.c.U._.N.D.K.K.L.E.S $ 1.:.} w l ~.K.U.E.Q.Q.Y.F.Y.Q.Y.U.Y.T.`.",
"Q.E.E.E.Y.E.E.E.W.E.Y.E.W.E.^.^./.G.M.Y.^.D.N.D.D.K.G.Y.Y : 1.2.%.E l /.E.W.W.E.Y.Y.Q.Y.W.W.Y.~.Y./.",
"Y.Y.E.E.E.E.E.E.E.E.E.E.W.Q.h.z f a x Y.U.S.D.D.D.K.L.E.a.% 1.<.$.t f ~.E.E.W.E.R.E.E.E.E.E.E.E.U./.",
"~.Y.E.R.E.R.R.R.R.E.R.R.U.Q.G = / E p n.b.G.D.G.G.K.J.Z.I 9 1.<.$.E l (.E.Y.Y.W.E.Y.R.E.R.E.R.E.U.^.",
"Q.U.U.Y.U.E.U.E.U.E.U.U.U.U.n q 6.,.@.7 V ~.P.E.P.E.J.@ e ' 2.<.%.E f /.Y.Y.E.U.L.E.E.U.U.R.E.E.U.~.",
"Y.U.U.U.E.U.U.U.U.U.U.E.U.D.l 7 +.*.,._ v C B B V B D y  .;.4.:. .w s L.U.U.U.R.U.R.R.U.U.U.L.E.U.~.",
"E.U.U.U.Y.U.U.U.U.E.U.U.M.p.A u ! #.4..._ 8 0 0 q 8 r ' =.5.4.*.^ i x v.D.R.U.U.L.E.R.L.U.R.U.R.F.~.",
"Y.U.U.L.U.L.L.U.U.U.U.v.y.D./.m.1 ] -.2.3.3.3.1.3.3.3.2.3.3.;...$ x.S.p.p.S.U.U.E.L.L.R.U.U.L.U.F.^.",
"P.U.U.U.U.L.U.U.L.U.v.y.F.R.K.b.+ ( X.:.,.>.3.5.3.4.4.5.2.:.o.`   g.D.p.i.y.S.U.R.L.U.L.U.F.U.U.F.~.",
"L.D.D.K.K.K.K.L.L.M.y.D.U.N.M.b.5 y ' @.$.o.<.3.3.3.3.4.:.+.] ) > t.S.p.p.p.i.S.F.L.K.L.D.S.D.D.D.Y.",
"S.S.S.S.S.D.D.D.v.i.D.W.N.c.M.c.b.L , 8 Q { %.-.*.;.*. .( 8 < b v.c.M.v.p.p.y.p.M.D.D.M.S.S.S.S.B.L.",
"K.F.F.D.D.L.F.M.y.M.W.M.N.N.M.c.S.s.x n v ~ [ | |  .[ W v n m K N.M.M.M.v.M.v.y.p.D.D.D.D.L.U.D.S.I.",
"L.L.L.L.F.L.p.y.M.W.N.M.M.M.M.M.M.S.D.L.g.. o       X $ U L.D.S.M.N.N.M.M.M.M.M.i.y.D.F.F.L.L.L.D.R.",
"L.F.K.F.F.v.e.S.R.M.D.M.M.M.M.M.M.B.B.B.b.l.h h n.x.h.= P L.S.S.S.N.M.M.M.N.M.M.M.y.y.N.L.F.L.L.D.R.",
"L.K.L.L.p.y.S.L.D.v.M.M.M.M.M.M.M.S.S.S.B.D.j j L.H.B.> N x.g.x.N.M.M.M.M.M.M.M.M.v.y.p.M.F.D.L.D.I.",
"L.K.F.v.y.M.F.D.v.v.M.M.M.M.M.M.M.v.M.S.B.S.j g G.G.x.= % * $ C G.M.M.M.M.v.M.M.M.M.p.y.y.D.L.K.D.I.",
"L.D.v.e.v.U.D.p.M.M.v.M.M.M.M.M.M.M.M.S.B.D.g g G.G.B.s.s.s.> M D.v.M.M.M.M.M.M.M.M.M.p.y.y.D.F.D.P.",
"L.v.y.p.Y.M.p.M.p.v.M.v.c.c.M.M.v.v.p.M.B.G.j g H.Z.G.B.S.B.3 M G.c.M.M.c.c.M.c.v.c.M.M.p.y.y.D.D.G.",
"i.y.c.U.c.p.v.c.p.p.c.c.p.c.v.c.p.p.p.c.z.B.d d G.B.l.; * ; & M S.z.c.c.c.c.M.c.p.p.p.p.c.c.y.u.y.B.",
"r.w.p.U.i.u.p.p.i.i.p.i.i.i.p.p.i.c.c.c.v.S.j g A.G.V.J A J ; c b.k.u.i.u.p.i.p.i.c.c.p.i.p.y.e.8.i.",
"S.u.u.c.c.c.p.c.p.p.p.c.p.p.p.c.c.v.v.c.v.G.j g G.Z.G.G.H.J.3 c S.c.p.c.p.c.p.c.c.c.v.p.i.y.e.S.B.B.",
"U.M.u.w.p.c.c.c.M.c.v.c.M.p.c.c.c.c.v.c.b.S.j j J.J.Z.3 2 3 * M G.v.c.v.c.v.c.v.M.c.v.c.u.e.v.Y.D.D.",
"K.K.N.u.y.c.c.c.c.v.c.v.p.v.v.p.v.v.v.c.v.G.g h J.J.Z.D b N = M S.v.c.c.v.c.c.v.c.c.M.y.r.v.U.G.B.P.",
"N.N.N.N.y.w.i.c.c.c.c.c.z.p.v.v.p.c.v.c.v.S.j h J.J.A.!.I.!.6 M G.z.k.v.c.v.c.c.c.c.y.w.v.P.S.S.M.J.",
"H.N.N.K.M.e.w.i.c.c.c.c.p.k.k.k.k.k.p.p.z.Z.g h !.!.A.z k k & x N.v.k.c.k.k.c.c.c.i.w.M.L.D.S.S.M.L.",
"L.N.N.N.N.M.y.y.u.v.p.p.k.p.p.p.c.i.p.p.z.B.j d V.V.j.= 2 j d A b.c.i.c.p.k.c.p.y.w.v.L.D.S.S.S.S.J.",
"m.N.N.N.N.N.N.u.e.u.c.c.c.p.i.c.p.p.p.p.z.B.d $ $ $ $ % G G.m.x.v.c.k.c.l.c.p.u.w.k.N.L.N.N.N.P.B.D.",
"L.N.N.L.N.N.N.N.e.e.u.u.p.p.i.i.i.i.i.i.z.x.s.Y Y Y Y K s.b.c.c.z.k.c.u.u.i.y.w.i.K.m.N.N.N.N.N.B.L.",
"N.N.N.N.N.N.N.N.c.w.w.d.u.u.u.u.r.y.i.u.r.i.b.b.b.b.b.z.k.u.i.i.i.i.u.u.u.u.w.u.L.N.N.N.N.N.N.N.B.S.",
"l.p.c.l.k.v.v.v.M.p.w.w.e.d.u.u.r.u.r.e.y.r.e.r.e.w.r.e.r.u.u.u.y.r.r.u.u.w.k.P.v.v.v.c.c.c.c.N.y.B.",
"N.M.l.M.M.c.c.v.N.N.c.w.w.e.u.i.i.i.u.i.t.r.t.y.r.r.u.i.i.r.e.r.e.i.u.e.7.k.N.N.c.c.N.k.c.c.c.b.B.B.",
"N.M.M.N.N.M.v.M.N.N.N.k.w.w.u.i.i.p.p.i.i.y.i.i.y.u.i.i.u.u.r.u.u.i.r.7.k.N.N.N.N.N.M.N.v.b.v.N.B.G.",
"m.N.N.N.N.N.b.N.b.N.N.N.i.w.w.d.i.t.i.t.i.i.i.i.i.u.k.i.i.k.u.i.i.e.7.k.N.N.N.N.N.N.m.N.N.N.m.N.B.B.",
"N.N.m.b.b.b.b.b.b.b.b.N.m.k.w.w.t.t.t.i.i.t.i.t.i.i.r.i.i.d.i.i.r.7.r.N.N.N.m.N.b.v.b.b.b.b.b.N.B.B.",
"B.B.B.B.B.v.v.v.b.b.b.b.b.b.k.7.9.t.t.t.y.t.t.y.y.t.t.t.t.r.B.0.H e.D.B.v.B.B.v.b.b.b.b.v.b.b.b.B.B.",
"B.v.p.v.z.B.v.B.b.v.b.b.b.b.v.k.H H t.t.t.t.t.t.t.t.t.t.t.r.8.H t.S.B.v.v.v.v.B.b.v.b.v.b.v.b.b.B.Z.",
"x.p.B.z.v.z.B.v.v.b.v.v.z.b.b.z.0.H H r.y.t.t.t.t.t.t.t.t.0.H r.B.B.v.x.B.z.v.v.l.b.l.b.v.v.v.x.0.B.",
"B.B.z.p.B.x.z.x.l.c.x.v.z.z.z.b.B.B.H H t.t.t.e.t.t.r.r.0.H H B.B.z.z.B.z.z.x.z.v.v.v.v.b.x.v.b.B.B.",
"z.i.i.i.z.z.k.t.t.t.p.x.k.k.z.z.t.B.H H H t.r.0.9.0.t.0.H 0.B.B.i.z.z.z.l.z.z.v.z.z.z.z.z.z.x.z.B.B.",
"t.q.t.t.k.t.t.q.t.t.t.t.r.t.t.i.B.t.B.H H H H 0.9.0.H H H B.B.r.i.t.t.t.t.i.z.z.i.k.t.k.k.r.z.z.0.V.",
"z.t.z.t.z.z.z.k.t.i.i.k.z.i.k.k.0.t.t.t.t.H H 0.r.0.H 9.B.t.B.t.t.t.z.i.i.z.k.k.t.t.r.t.t.q.r.t.H B.",
"B.B.t.B.z.z.z.z.k.z.k.z.z.z.l.z.B.t.B.B.B.t.H H H Z 0.B.B.B.t.B.B.z.z.z.l.z.z.z.z.z.k.z.z.k.k.z.B.B.",
"g.t.t.t.t.t.B.q.t.B.q.t.B.Y t.B.q.B.q.B.r.0.H H Z H B.B.q.t.q.t.t.z.t.i.z.t.t.i.q.t.B.Y t.B.t.V.0.B.",
"V.B.V.B.B.B.B.V.t.B.V.B.B.B.t.V.V.B.B.q.B.B.B.Y H B.B.B.B.B.B.V.l.B.z.V.V.B.B.V.B.V.B.B.B.B.B.q.V.A."
};
