/* XPM */
static char *result[] = {
/* columns rows colors chars-per-pixel */
"50 50 198 2 ",
"   c #2C000E",
".  c #340000",
"X  c #3C0000",
"o  c #430000",
"O  c #470700",
"+  c #451203",
"@  c #491500",
"#  c #4C1A00",
"$  c #4B2004",
"%  c #522E00",
"&  c #553400",
"*  c #492014",
"=  c #4B241D",
"-  c #54301F",
";  c #4D2A23",
":  c #4D2B2B",
">  c #4B2E39",
",  c #5D4729",
"<  c #5C4E30",
"1  c #3F337C",
"2  c #492951",
"3  c #52424C",
"4  c #565243",
"5  c #564A57",
"6  c #5E555A",
"7  c #644940",
"8  c #685A5A",
"9  c #72635C",
"0  c #4B516C",
"q  c #58596E",
"w  c #475C7C",
"e  c #4C617E",
"r  c #5F6774",
"t  c #596A7B",
"y  c #69636A",
"u  c #746767",
"i  c #676A7B",
"p  c #746E76",
"a  c #75747B",
"s  c #2C228C",
"d  c #3E3C98",
"f  c #303CA7",
"g  c #394CBB",
"h  c #3F53BC",
"j  c #5D5982",
"k  c #50508C",
"l  c #4E6282",
"z  c #49628A",
"x  c #516584",
"c  c #546986",
"v  c #52668A",
"b  c #556A8B",
"n  c #596D8E",
"m  c #5C718E",
"M  c #557D8F",
"N  c #566D92",
"B  c #596E91",
"V  c #5D7293",
"C  c #5B7A94",
"Z  c #5E7499",
"A  c #656E83",
"S  c #697389",
"D  c #757A88",
"F  c #747B8C",
"G  c #617695",
"H  c #687794",
"J  c #647996",
"K  c #6B7B96",
"L  c #617699",
"P  c #647A9C",
"I  c #697D9C",
"U  c #747D93",
"Y  c #797F91",
"T  c #737F9A",
"R  c #5E79A1",
"E  c #667CA1",
"W  c #697EA1",
"Q  c #344DC2",
"!  c #3D56C4",
"~  c #3254D2",
"^  c #1B49EC",
"/  c #2454EE",
"(  c #2759EF",
")  c #2B5DEF",
"_  c #2E61EE",
"`  c #3A65E2",
"'  c #3163EE",
"]  c #366AEF",
"[  c #3C75EF",
"{  c #2E65F2",
"}  c #3267F4",
"|  c #326AFA",
" . c #57808F",
".. c #7C818A",
"X. c #66869B",
"o. c #6D819E",
"O. c #74839A",
"+. c #79869B",
"@. c #788899",
"#. c #6680A7",
"$. c #6C81A4",
"%. c #6781A9",
"&. c #6D85AA",
"*. c #6F88AE",
"=. c #7285A4",
"-. c #7A87A1",
";. c #7C8CA4",
":. c #7187AB",
">. c #7289AD",
",. c #7B8DAC",
"<. c #6F89B0",
"1. c #758DB2",
"2. c #788FB4",
"3. c #748FB9",
"4. c #6794B3",
"5. c #7A91B6",
"6. c #7690BA",
"7. c #7D95BC",
"8. c #39BAF2",
"9. c #6FB4DC",
"0. c #72B5D7",
"q. c #4883EF",
"w. c #5999ED",
"e. c #4B8BF6",
"r. c #538FF0",
"t. c #5697F0",
"y. c #5DA3F3",
"u. c #75BCE6",
"i. c #61A4F0",
"p. c #63ABF1",
"a. c #6CB4F1",
"s. c #6BBDF1",
"d. c #73BEF1",
"f. c #5CC1F1",
"g. c #64C1F2",
"h. c #6AC2F1",
"j. c #74C4F1",
"k. c #7BC6F1",
"l. c #75C9F6",
"z. c #7BCBF2",
"x. c #928683",
"c. c #848A97",
"v. c #8B8D96",
"b. c #928D91",
"n. c #8E929C",
"m. c #91959E",
"M. c #A09999",
"N. c #818EA4",
"B. c #808FAA",
"V. c #8592A5",
"C. c #8291AC",
"Z. c #8D99AA",
"A. c #8495B3",
"S. c #8698B4",
"D. c #8B9CB5",
"F. c #8097BC",
"G. c #8299BE",
"H. c #8B9DBA",
"J. c #939EB0",
"K. c #99A1AD",
"L. c #96A3B4",
"P. c #93A3BB",
"I. c #9FABBA",
"U. c #ABA8A9",
"Y. c #B1AAA7",
"T. c #A1A7B1",
"R. c #B7B4B5",
"E. c #869CC2",
"W. c #93A5C4",
"Q. c #96A9C6",
"!. c #A0AEC2",
"~. c #A8B4C3",
"^. c #88C9F1",
"/. c #93CEF1",
"(. c #99CEF1",
"). c #A8D0EC",
"_. c #B8D8EF",
"`. c #A9D3F0",
"'. c #B6D8F0",
"]. c #C7C6C8",
"[. c #D1CECD",
"{. c #D4D3D4",
"}. c #D8D7D8",
"|. c #C8DAE9",
" X c #C6DEF0",
".X c #CEE1EF",
"XX c #D4E3EF",
"oX c #DBE5ED",
"OX c #D5EBFC",
"+X c #E6E5E5",
"@X c #E3E9EE",
"#X c #ECECED",
"$X c #F1EFEE",
"%X c #F4F1EE",
"&X c #FBF4EE",
"*X c #EFF1F2",
"=X c #F3F4F4",
"-X c #F9FBFD",
/* pixels */
"Q.6.7.7.7.F.F.F.7.G.F.E.7.7.7.7.E.7.7.E.G.G.7.1.*.5.G.5.A.7.5.2.7.E.E.7.E.7.F.F.F.E.7.E.7.F.7.7.7.E.",
"Q.6.F.7.7.7.7.7.7.7.7.7.7.7.7.7.7.2.7.7.7.7.5.G V $.A.H.P.H.G.E.7.7.7.7.7.7.7.7.7.7.7.7.7.7.7.7.7.E.",
"W.3.7.7.7.7.7.7.7.7.7.7.7.7.7.7.7.7.F.H.P.D.> X = X + K.~.I.H.S.7.7.7.7.7.7.7.7.7.7.7.6.7.7.7.7.7.G.",
"W.3.7.7.7.7.7.7.7.7.7.7.7.7.7.7.7.S.Q.F   5 ].{.[.{.[.u . a ~.H.A.7.7.7.6.3.7.F.7.7.7.7.7.7.7.7.7.F.",
"G.&.1.1.1.2.1.1.1.>.3.7.7.7.5.2.F.H.A b.Y.R.#X=X=X=X=XR.Y.M.a L.D.2.3.2.<.1.1.1.1.1.1.1.1.1.1.1.>.2.",
"S.%.:.&.*.<.1.<.&.%.:.1.2.2.2.2.A.N.u ].=X=X$XoX@X$X#X=X-X}.u m.D.A.1.>.*.1.1.1.1.<.&.:.1.1.&.:.&.2.",
"H.6.2.1.1.1.2.2.1.1.1.1.1.:.1.F.-.- }.*X#X#X$X(.`.%X#X#X#X=X#X7 c.P.5.1.<.2.2.7.2.2.1.3.7.7.1.3.2.F.",
"H.1.7.2.6.2.2.2.7.2.2.2.2.7.3.E.;.X {.=X$X$X$X#X X^./.#X$X=X+Xo v.!.A.7.2.2.7.2.2.2.2.7.2.2.6.2.7.A.",
"H.1.2.6.5.5.5.5.5.5.5.5.2.2.7.W p R.+X=XXX'.#X&X_.8.j.(.@X@X).[.x.Y H.2.2.2.2.7.2.5.2.2.5.2.5.5.3.A.",
"H.1.2.2.2.2.2.2.1.5.5.1.2.2.7.q 9 oX#X%X.Xg. X#XoX`.k.f.'.'.h.OXD 5 H.1.2.2.2.2.2.2.2.2.2.2.2.2.1.5.",
"H.1.2.2.1.2.2.2.1.5.1.1.6.<.E 0 u |.oX%XXXh.s. X#XXXj.d.s.h.j.g.e 8 5.2.2.2.2.2.2.2.2.2.2.2.2.2.2.5.",
"S.>.2.3.2.1.1.1.1.1.1.5.3.E R r r k.g.XXoXg.z.z.k.k.l.[ i.z.j.z.c 6 $.W 6.3.1.1.1.1.1.1.1.2.1.5.1.5.",
"H.<.1.1.1.1.1.1.1.5.1.1.E N 1.U r l.h.^./.h.q.p.l.s.q.( y.z.j.e.1 6 $.B &.1.1.5.1.1.1.1.1.1.1.1.1.5.",
"S.<.1.1.1.1.1.>.1.>.1.E N &.7.J m 4.u.l.s.t.) a.d.r._ / p.j.r.h t F :.L V $.5.>.1.1.1.1.1.1.>.1.>.5.",
"H.<.1.1.>.1.<.1.>.1.P N *.5.$.*.K O 9.l.w./ ) i.t.^ ] / w.i.^ O D ,.E E Z V #.>.>.4.1.1.1.>.1.>.>.5.",
"A.E *.&.:.:.:.:.>.E N &.1.$.L %.K 2 0.t./ ] ' _ ' } ' ' ' ' ` 2 S &.P Z Z Z Z $.:.=.*.=.&.&.$.&.&.>.",
",.E &.$.$.$.*.&.P N #.6.$.R E L I J 4 ! } } ' ' _ ' _ } | ~ > T =.W P E L Z Z N E :.&.W $.$.#.$.E :.",
"A.%.>.&.%.>.>.E N E 7.&.E W E P I $.A k d f ' | } } { f s k D ;.=.E W W E E R N N %.*.&.&.>.>.*.%.,.",
"A.&.>.>.1.>.P N E 5.E E W W E E #.$.>.i < 6 h Q g Q ! p 9 a D.;.$.W W W E W E E N N W 1.:.>.>.>.:.2.",
"S.%.&.*.1.P v #.1.#.E W E E E E P E $.=.>.=.% % , & # U.R.J.N.=.W E E E E E W E E Z B W >.*.*.:.:.>.",
"A.%.>.*.P v W >.&.E E P E E E E X.E E W =.O.: Y L.c.= m.K.V.;.o.E E E P E E E E E P N V W <.*.:.&.>.",
"A.&.:.P N E <.&.P P E E E E E E E E E E =.I ; Y D.@.= Z.Z.;.@.#.E E E E E P E E E E E N Z E :.&.&.,.",
"A.%.P N P 1.&.Z W E E E E E E E E E E E $.O.; F A.O.o y p S &.o.E E E E E E E E E E E Z N N #.*.&.>.",
"A.Z N Z 3.$.Z E Z P P P P L E E P P P P $.K = F A.c.6 5 # 3 =.P L E L E E L E P L E Z E Z N B $.:.o.",
"=.z P 1.L Z L L Z Z P L Z Z P L Z Z Z Z I K = D V.V.V.D.y 5 =.I Z Z G L Z L P L Z L Z Z L L N N N G ",
"T z L :.Z B Z Z B Z Z Z B Z Z Z Z L P Z I K = Y D.c.* = @ 5 o.J Z Z V V B Z Z Z Z L L L Z V N n z S ",
"B.N B Z E L L Z L Z L Z L Z L Z L P P P I K = ..L.K.v.n.8 5 $.I Z Z L C Z Z L Z L L P L Z N n W %.L ",
"A.E Z v Z L P L E L L E L P L P P L P P I T = c.T.T.n.n.8 3 =.I E P P P E L L P L E P L B v P ,.:.=.",
"A.W W Z v Z L L E L L P L P P L Z P P Z P O.= D K.v.X + ; q O.I P L P L L P L L L E L B n P 1.:.W >.",
"A.W W W B v Z L L L L L P L L L P L L Z I K : # ; # $ U -.o.o.P L L L P P L L L L L N j P 2.W W W =.",
"C.E =.W E B v B L L L G G G G L L L L Z P o.H ..c.c...=.O.o.K L G G L G G L L L L Z v E >.$.$.$.W =.",
"B.E W :.W E B v B L L L L C Z G Z G G Z G J X.X.=.@.X.P C G C Z Z V Z Z G G L Z N v E <.:.$.$.$.%.-.",
"C.E W W W W W Z j Z Z Z G G Z G L G L L L G Z C M  .M C Z V Z C Z Z C G L L V n v L :.:.T W W W W =.",
"C.E W W W W W W B v B Z Z Z V V V V B G G G L T T o.K G L L G G G G G Z V V n v H :.W W W W W :.W =.",
"B.E W W W W W W E v j N G B n n n n G B N N V B N B V b n B V V G B V n V B x G :.W W W W W W W E $.",
"T N P L V P P P L L N v b b n Z N B B v n n B n n n n n B n V B N n B n N v V >.P P P L L H L L Z K ",
"B.E P P I L L P I W P b x b B G B G B G B n B n b N B B V n n n n B V b l G =.P L P W L L L L P P o.",
"B.E W W W W I W W W W L v x N G V G G B B B G B B B G B G B n n B V n l L W $.P W I W W I E I W P =.",
"B.L W W W W I W W W W W C b j N G B G n G G V V G n G V V G n G V c z m $.$.I W W W W I W W W W #.=.",
"B.Z W I I I I I I I o.I I L b l n m n G B n m V B G n G B V G n n j m &.$.I I I I I I I I I I I P O.",
"N.L I P P I K I I I K I P I L c l n m m V n m m V m n V V m m b l B =.W I P I P I P I P W I I I P o.",
"N.P I P I I P I I I X.I I I I L x x n m V m m m n V m m m m b e n =.P K I I I K P I P P I P I P P O.",
";.Z X.K P I J X.K I P P I P P I G e e c n n m n m m n m n c e n o.I P X.P P P X.H P P P J I K P P o.",
";.Z J J I J J J L G P K J J I J K C c e n m n m n n m n c e n I o.P K P J K P K I K K K I P P K L O.",
";.V G m J J G m m m G C m G J J H J m e e c b c c c n c e m X.I G G J G C G J J G H J J J J J I V J ",
"@.c m m G m m m m m m S m m m m G m G m e e x c c c e e c o.K n m G m m m S G J G C m G G m G J m H ",
"+.V G m G J J G G m G G J G G J G m G P G w e c n x e x o.P J J G m J G G J J G m m m m m c n n V K ",
";.C K J H J J J J J J J J J J J J J J J L S e t e e c o.I J J J H J J J J J J H J J J J J H G H J X.",
"+.b V V V m C V m G m V G m G m G m m G V V c w w l Z L Z V m m m G m C G m S C m C G m V G m m m J ",
"Z.O.@.O.@.O.O.@.O.O.@.O.O.@.O.O.O.@.O.O.O.O.+.S A T +.O.O.O.O.@.O.O.O.O.O.O.O.O.O.O.O.@.O.@.O.O.@.c."
};
