/* XPM */
static char *result[] = {
/* columns rows colors chars-per-pixel */
"50 50 189 2 ",
"   c #2F0000",
".  c #390000",
"X  c #38132A",
"o  c #420000",
"O  c #4B0800",
"+  c #4B1600",
"@  c #4C1D00",
"#  c #460B14",
"$  c #532800",
"%  c #533400",
"&  c #4C2212",
"*  c #4E291C",
"=  c #52342E",
"-  c #4C2830",
";  c #563D3B",
":  c #3E2A6D",
">  c #45326E",
",  c #402270",
"<  c #473B73",
"1  c #55434A",
"2  c #574B55",
"3  c #544956",
"4  c #5E5053",
"5  c #675944",
"6  c #6C5B58",
"7  c #5A5364",
"8  c #54546F",
"9  c #59596B",
"0  c #5A596D",
"q  c #485A76",
"w  c #4A5F7D",
"e  c #545A76",
"r  c #625E6C",
"t  c #605970",
"y  c #4D617E",
"u  c #58667B",
"i  c #6B6064",
"p  c #636368",
"a  c #68626C",
"s  c #7B6A63",
"d  c #766C6C",
"f  c #756F6F",
"g  c #666977",
"h  c #787379",
"j  c #8B7A72",
"k  c #392C83",
"l  c #3E52BB",
"z  c #48438B",
"x  c #4E6382",
"c  c #4C648A",
"v  c #516585",
"b  c #546886",
"n  c #52668A",
"m  c #556A8C",
"M  c #596E8D",
"N  c #5A748B",
"B  c #5B718E",
"V  c #547C8E",
"C  c #576D92",
"Z  c #5A6E92",
"A  c #5D7393",
"S  c #5D7890",
"D  c #5D749A",
"F  c #636D87",
"G  c #66738B",
"H  c #6B758C",
"J  c #7A7C87",
"K  c #747B8C",
"L  c #617595",
"P  c #6B7790",
"I  c #647996",
"U  c #6C7B93",
"Y  c #617699",
"T  c #647A9C",
"R  c #697D9D",
"E  c #707F99",
"W  c #4054BA",
"Q  c #657CA1",
"!  c #697EA1",
"~  c #3C68DF",
"^  c #1D52F3",
"/  c #2755E9",
"(  c #2456EF",
")  c #2A5DEF",
"_  c #2F63EF",
"`  c #3361E7",
"'  c #3165EF",
"]  c #3569EF",
"[  c #3A70EF",
"{  c #3267F1",
"}  c #326AF4",
"|  c #477DEA",
" . c #678293",
".. c #6D819E",
"X. c #728097",
"o. c #7B8292",
"O. c #74839A",
"+. c #7A889E",
"@. c #6780A6",
"#. c #6B81A5",
"$. c #6C84AA",
"%. c #6F88AF",
"&. c #7385A3",
"*. c #7588A7",
"=. c #7B8AA3",
"-. c #7187AB",
";. c #7289AD",
":. c #7B8DAB",
">. c #7D90AE",
",. c #758DB2",
"<. c #788FB4",
"1. c #7991B6",
"2. c #7791BA",
"3. c #7D94BC",
"4. c #6BA1BC",
"5. c #4B86EE",
"6. c #4C8DF8",
"7. c #5393F0",
"8. c #4EBDF1",
"9. c #52BEF1",
"0. c #68B2EF",
"q. c #73BBE6",
"w. c #64A7F0",
"e. c #64ABF0",
"r. c #62B6F1",
"t. c #6BB4F2",
"y. c #65BFF1",
"u. c #6EBBF2",
"i. c #73BBF2",
"p. c #5FC0F1",
"a. c #64C1F1",
"s. c #6CC5F2",
"d. c #74C4F1",
"f. c #7AC6F2",
"g. c #7BCCF2",
"h. c #94918F",
"j. c #818692",
"k. c #858A97",
"l. c #898B94",
"z. c #818A9C",
"x. c #89929F",
"c. c #939298",
"v. c #828EA1",
"b. c #8490A4",
"n. c #8D97A6",
"m. c #8393AD",
"M. c #8896AA",
"N. c #8B99AC",
"B. c #939AA6",
"V. c #8295B3",
"C. c #8799B7",
"Z. c #8F9EB0",
"A. c #8197BC",
"S. c #8299BE",
"D. c #899CBB",
"F. c #9AA1AC",
"G. c #99A5B6",
"H. c #A9A7A8",
"J. c #B6B0AF",
"K. c #A4ADB9",
"L. c #869DC3",
"P. c #899EC1",
"I. c #92A4C4",
"U. c #8CCAF1",
"Y. c #95CCF0",
"T. c #9BD0F1",
"R. c #B2D1E8",
"E. c #BBD9EF",
"W. c #A8D3F2",
"Q. c #B5D8F0",
"!. c #BADAF0",
"~. c #D0D4DB",
"^. c #DCDCDD",
"/. c #E1E0DF",
"(. c #C9DFEF",
"). c #DBDDE2",
"_. c #C5DEF0",
"`. c #CCE0EF",
"'. c #D3E3EF",
"]. c #DBE6EF",
"[. c #E1E2E3",
"{. c #E6E9ED",
"}. c #ECECED",
"|. c #F1EFEE",
" X c #F4F1EF",
".X c #F9F3EE",
"XX c #EEEFF0",
"oX c #EFF0F2",
"OX c #F3F4F4",
/* pixels */
"P.3.3.3.3.S.S.S.S.S.S.S.S.3.3.S.S.L.3.3.L.3.3.%.$.2.3.2.3.3.2.2.L.L.3.L.L.3.L.3.L.L.A.3.3.L.3.3.1.I.",
"P.2.S.3.3.3.3.3.3.3.3.3.3.3.3.3.3.3.3.3.2.3.2.Q D %.3.3.3.3.3.3.3.3.3.2.3.2.3.3.2.3.3.3.3.3.3.3.2.I.",
"P.2.3.3.3.3.3.3.3.3.3.3.3.3.3.3.3.3.3.3.2.2.Q Q D D %.3.3.3.3.3.3.3.3.3.3.3.3.2.3.3.3.3.3.3.3.3.2.I.",
"P.2.3.3.3.2.3.3.3.3.3.3.3.3.3.3.3.3.3.3.2.Q D 3.,.Q D $.,.2.3.2.<.3.3.3.<.<.3.L.3.2.3.3.3.3.A.3.2.I.",
"1.%.,.,.,.<.,.,.;.,.,.2.3.3.1.,.,.,.2.,.Q Q 3.3.%.Q Q D ! ,.,.%.%.<.<.<.%.,.,.<.<.,.,.<.2.,.,.,.%.D.",
"<.$.$.$.;.%.,.%.$.$.%.,.,.,.2.,.,.,.%.D D ,.3.%.Q %.$.Q D $.,.2.,.,.,.%.%.,.,.,.<.! ! %.,.,.-.$.! V.",
"C.1.1.,.,.,.1.<.,.,.,.,.;.,.<.1.,.,.Q D ,.L.Q Q %.%.%.Q Q D $.<.1.3.1.,.,.,.1.2.2.<.%.<.3.1.2.2.2.P.",
"S.,.<.<.<.2.2.<.2.1.1.1.1.1.1.1.,.Q D ,.3.! $.$.Q Q $.Q Q Q D ! 1.3.2.1.1.1.1.1.3.<.2.3.<.1.<.<.2.D.",
"A.,.<.1.1.1.1.<.1.1.1.1.1.2.1.2.Q Z <.3.@.@.;.;.2.,.1.:.*.$.T D @.2.1.2.1.1.1.1.1.1.,.1.1.1.1.1.%.D.",
"C.,.1.<.<.<.<.<.<.<.1.<.,.2.;.Q C ,.1.,.:.*.u q e q t Z.G.V.*.Q D $.<.<.<.1.1.1.1.1.>.1.<.<.<.<.,.D.",
"V.,.<.,.1.<.1.,.,.1.<.,.2.,.T D ,.3.m.O.O.O.s s d s s c.B.B.N.*.T D $.,.<.<.,.1.,.,.1.,.,.1.<.<.%.D.",
"1.,.<.,.,.,.,.,.,.,.,.1.%.Q D $.S.*.V.a   6 ).{.{.|.[.i   f G.M.-.T D $.,.2.,.,.,.1.,.,.,.,.,.<.%.C.",
"V.,.<.,.,.,.,.,.,.,.,.,.Q C -.A.:.V.X H.^.^.XX X|.XX|.^.].J.X F.M.#.D D -.1.,.,.,.,.,.,.,.,.,.<.,.C.",
"1.,.,.;.,.;.,.;.,.,.,.T C %.3.-.O.h H.).OXoX|.!.'..X|.oXOX/.H.h v.:.@.D D @.,.,.,.,.,.:.<.,.;.<.%.C.",
"1.,.,.,.,.,.;.,.,.,.D C %.1.@.;.H O ).OX}.|.|.W.Q.'.'.XX|.OX}.o j.N.Q T D A @.,.:.,.,.,.;.;.;.,.%.A.",
":.#.$.-.$.-.-.;.-. .C %.,.@.T &.H 6 ^.|.}.{.XX.XE.p.f.].|.oX^.6 l.M.R Y D A V @.$.-.$.$.$.$.$.*.! V.",
"*.Q $.$.! $.;.@.T Z #.1.@.Y @.8 f ~.[.|.`.U. X.XE.9.g.d.].'.U.}.j 0 *.D D D C D Q -.$.@.@.$.@.@.Q :.",
":.$.;.@.$.;.%.Q C ! 3.@.R @.@.8 j ).|. X`.a.T.{.}.(.d.s.T.Y.d.W.a 7 :...T @.D D C $.$.$.-.;.;.-.Q V.",
"<.$.,.;.;.%.T C Q 2.! Q @.R $.e g R.E.XX'.a.s.Q.'._.d.w.r.s.d.s.y r :.Q @.Q @.T C C #.;.%.-.%.;.$.V.",
"<.$.$.;.;.T m #.<.@.Q ! Q Q $.0 b d.8._.(.a.i.y.9.y.t.) w.g.d.u.8 r ;.Q @...T Q T A A @.;.-.%.;.$.V.",
":.$.-.;.Y m @.;.#.Q Q Q Q T @.0 F f.d.d.f.u.' t.U.t.) ) w.f.u.} , p *.T Q Q Q Q @.Y C A @.%.-.-.@.V.",
"<.$.$.T C Q ,.@.T Q Q R Q Q Q Q G u q.g.t.[ ) u.e.] ] ( 0.u.~ < H &.! Q Q T Q Q Q Q Q C D @.-.%.$.V.",
"<.$.T C Q ,.@.D Q Q Q Q Q Q T @.F + q.t.| ( ' 7.5.( ] ) 5.6./ o K :.! Q Q Q Q Q Q Q Q D M C @.;.$.m.",
"*.D C D <.Q T Q T Y T T T T Q ! L 9 4.| ^ } ' ( ) _ ' } ) / W 7 K ! R Q T T Q T T T T T D m A @.Q *.",
"R n T <.Y D Y Y D D T Y Y Y T T T R % l ] ` ' { _ _ _ ` ] l % =.E T Y Y Y Y Q Y D Y D D Y Y C Z C ! ",
"L n Y -.D Z D A Z D D Z Z D D D L R #.8 # > _ } } } _ : . r b.O.R Y D Z Z D Y Z A Y Y D A A Z C c E ",
"*.Z C Y Y Y D Y Y Y Y D Y Y Y D Y T &.H g F z k k : z c.h.k.m.O.I Y Y Y Y Y Y Y Y Y Y Y Y m m ! Q &.",
"<.Q Z m Y T Y Y Y T Y Q T Y Y T Y Y R #.*.E @ 5 f 5 $ K.K.n.=...Q Y T T T Y T Y T Q Q Y Z m R <.$.*.",
"V.! ! Y m D Y Y T Y Y T T T Y Y T T Y R ..U - z.G.+.- c.n.=.O...I Y T Y T Y T Y Y Q Y Z m R <.&.T m.",
",.! ! ! Z n Z Y Y Y Y T Y Y Y Y Y Y Y T ..U & K >.K = x.M.+...T Y Y Y Y Y T Y Y Y Y Z n Q <.! ! Q m.",
"! ! ! ! ! Z m Z Y Y D I Y Y L L L Y Y I ..P & K m.K . = ; r ..T Y Y Y Y Y Y Y Y Y Z n Q ,.! ! &.Q m.",
"m.! ! ! ! Q C m Z D I D D I D I D L D I ..U & K M.+.J K ; 3 &.I L D L A Y L Y Y Z m ! ! -.! #.! Q :.",
"! ! ! ! ! ! ! Z n D Y Y L L Y L Y I L L R U & K N.b.j.j.6 3 #.U Y I D L L Y L m n T *.! ! ! ! *.Q m.",
"m.! ! ! E ! ! ! Z n Z L Z L Z D Z L D L R U & o.Z.k.@ * O 4 ..T D D D A D A M n Y *.! ! ! ! ! ! Q m.",
"E T ! ! ! ! ! ! Y n n Z Z Z Z Z C Z Z Z L H & o.F.H.F.G.r 2 R T L D B M Z M v Y -.! ! ! ! ! ! ! T *.",
"E D Y T L T T T T Y n n Z Z F Z F Z Z m L G & k.G.B.i i $ 3 R L m M Z M M n Y -.T T T Y Y Y P ! Z &.",
"! ! ! ! T Y Y T Q E T n n m Z Z Z L Z Z Y G @ p J d . 3 9 g I F M Z Z m x T &.T Y T ! Y Y Y Y T T =.",
":.! ! ! ! ! T ! Q ! ! Y n v Z L A A L Z I G 1 ; ; ; 2 X.&.R L Z Z L m x Y ! ! R ! ! ! ! ! Q ! ! R =.",
"E ! ! ! ! ! ! ! ! ! ! ! Y n n Z A Z A A D U O.v.n.M.+...U T L D L m x Z -.! R ! ! ! ! E ! Q ! ! T :.",
"! ! E ! E T R R ! E ! E ! P v v M A B A M A S V  .V V V V N N A b x N &.! R ! R R T T ! R E T E T :.",
"&.T ..R  .T R T R R R R R R L v x M B A A L B I  .I S N B A B b y B #...T ..T ..R R R R R R R R Y =.",
"O.I T T R ..T R T R R R R T R L v x M M B M L G L I I G L B m y B #.R R ..T R T R T R T T R T R Y =.",
"&.I R R T R R R R T R R R R R R L x y M B M M M N M M M B b w M ....T R I T T R T U T I R R U T D =.",
"O.T I I T T I I P Y R I L L U L T G v y m B B M M M M N b y B R ..I T  .T U I U T U R R I I R T S =.",
"..A L G I I B G B B L I L G I Y I I B w y b N b v b M b y N R R L I I L I L I I I I I L I T T U N +.",
" .m M N L B B B B B B A M M B L L B L N y w v b b b y y b ..R B A B A N B L I L B L B L L F L Y m O.",
"U L I A L L I I L B G L L L L I B A I I B y y b m u y b ..T I I A G L L L I L L G A N A B M M M C +.",
"O.I I I U I I I I I I I I I I I I I I T U B y y v y b ..R I I I I I I I I I I I I I G I I I I I A +.",
"R M L B L L B L S N G A L A L G S A B A S A m q q n D I D B G A A L B L L S N G A S L B L L S S M O.",
"b.O.O.O.O.O.O.O.O.O.O.O.O.O.O.O.O.O.O.O.O.O.O.G F X.+.O.O.O.O.O.O.O.X.O.O.O.O.O.O.O.O.O.O.O.O.o.O.n."
};
