/* XPM */
static char *result[] = {
/* columns rows colors chars-per-pixel */
"50 50 196 2 ",
"   c black",
".  c #270000",
"X  c #390000",
"o  c #3A111F",
"O  c #350B2D",
"+  c #490400",
"@  c #450408",
"#  c #4A1A00",
"$  c #4D2000",
"%  c #563600",
"&  c #4D2618",
"*  c #4E291C",
"=  c #4E2820",
"-  c #49202B",
";  c #533427",
":  c #482E36",
">  c #4E3739",
",  c #553C3A",
"<  c #553D3B",
"1  c #5C4B00",
"2  c #614300",
"3  c #57423D",
"4  c #52384C",
"5  c #3F5577",
"6  c #5A4849",
"7  c #45455D",
"8  c #564955",
"9  c #5D5258",
"0  c #674F46",
"q  c #645759",
"w  c #77635B",
"e  c #5C5968",
"r  c #5C5C6E",
"t  c #43587A",
"y  c #5D5E70",
"u  c #575278",
"i  c #635C66",
"p  c #44677E",
"a  c #4E617F",
"s  c #5E6779",
"d  c #6A636A",
"f  c #756A6F",
"g  c #6A6976",
"h  c #757379",
"j  c #82726D",
"k  c #857875",
"l  c #3133B7",
"z  c #3345B9",
"x  c #3E52BC",
"c  c #474B99",
"v  c #4E6383",
"b  c #486A85",
"n  c #4C658B",
"m  c #516586",
"M  c #556A84",
"N  c #596C86",
"B  c #52678A",
"V  c #556A8D",
"C  c #596D8D",
"Z  c #467584",
"A  c #5B7587",
"S  c #5C718D",
"D  c #566D92",
"F  c #5A6E92",
"G  c #5D7393",
"H  c #5E759A",
"J  c #5F789E",
"K  c #636C82",
"L  c #616F8C",
"P  c #647389",
"I  c #6B778F",
"U  c #69788B",
"Y  c #777B87",
"T  c #737A8C",
"R  c #617595",
"E  c #647996",
"W  c #6C7B93",
"Q  c #61769A",
"!  c #647A9C",
"~  c #697D9C",
"^  c #4457BF",
"/  c #5D7AA1",
"(  c #657CA1",
")  c #697EA1",
"_  c #354EC3",
"`  c #355CDB",
"'  c #184AEF",
"]  c #2D5EEB",
"[  c #345EE0",
"{  c #2F62EB",
"}  c #3164ED",
"|  c #386EEF",
" . c #3E74ED",
".. c #3F78EF",
"X. c #2F66F4",
"o. c #2C66FB",
"O. c #3268F5",
"+. c #3570FC",
"@. c #447CEB",
"#. c #807D85",
"$. c #67839D",
"%. c #6C819E",
"&. c #74839A",
"*. c #7B8A9D",
"=. c #6780A3",
"-. c #6B81A5",
";. c #6782A9",
":. c #6C84AA",
">. c #658EAC",
",. c #7285A3",
"<. c #7588A5",
"1. c #7B8AA3",
"2. c #7087AC",
"3. c #7289AD",
"4. c #7C8DAA",
"5. c #7E91AE",
"6. c #6F89B0",
"7. c #758DB2",
"8. c #788FB4",
"9. c #748FB9",
"0. c #7790B7",
"q. c #7991B6",
"w. c #789AB3",
"e. c #7790B9",
"r. c #7D95BC",
"t. c #568CDE",
"y. c #659FC2",
"u. c #70B3D8",
"i. c #4A85EF",
"p. c #518DEC",
"a. c #4C87F2",
"s. c #40BBF1",
"d. c #74BAE3",
"f. c #60A3F0",
"g. c #65B4F1",
"h. c #6DBDF6",
"j. c #72BEF1",
"k. c #5FC1F1",
"l. c #75C5EF",
"z. c #79C5EF",
"x. c #63C1F1",
"c. c #6CC3F1",
"v. c #6CCCFF",
"b. c #74C2F1",
"n. c #79C8F5",
"m. c #898487",
"M. c #968984",
"N. c #838996",
"B. c #9C9797",
"V. c #818EA2",
"C. c #8491A4",
"Z. c #8994A4",
"A. c #8D99A7",
"S. c #8593AA",
"D. c #8996AD",
"F. c #8B99AB",
"G. c #9098A4",
"H. c #939EAC",
"J. c #8294B3",
"K. c #8797B4",
"L. c #8B9AB4",
"P. c #8097BE",
"I. c #8298BE",
"U. c #8F9EB9",
"Y. c #9BA2AB",
"T. c #9AA4B2",
"R. c #A9A6A7",
"E. c #B1ACAB",
"W. c #A0A9B5",
"Q. c #B6B3B3",
"!. c #869DC3",
"~. c #8EA1C2",
"^. c #99A9C5",
"/. c #B9C3CC",
"(. c #82C9F1",
"). c #91CDF0",
"_. c #92CCF1",
"`. c #9DCFF1",
"'. c #A5D1EF",
"]. c #A1CFF0",
"[. c #A3D2F0",
"{. c #ABD4F0",
"}. c #B5D9F3",
"|. c #DAD9D9",
" X c #C8DEEF",
".X c #DDDEE2",
"XX c #DAE5ED",
"oX c #DBE8F3",
"OX c #E4EAEF",
"+X c #ECECED",
"@X c #F1EFEE",
"#X c #F3F1EE",
"$X c #F9F3EE",
"%X c #EEEFF0",
"&X c #F2F3F4",
"*X c #F7F9FA",
/* pixels */
"~.e.P.r.r.P.P.P.I.!.P.P.r.r.r.P.!.!.r.P.!.P.P.) 6.!.!.) !.e.#.t.r.!.!.!.r.r.P.P.P.!.P.P.P.P.r.r.) ^.",
"~.r.r.r.r.r.r.r.r.r.r.r.r.r.r.r.e.r.r.r.e.P.7.H H ) !.y.!.9.!.~.r.r.r.r.r.r.!.K.P.e.e.P.r.r.r.P.!.^.",
"~.e.r.r.r.r.r.r.r.r.r.r.r.r.r.r.r.r.r.r.y.J.( ( / J ) !.t.!.!.9.r.r.r.r.r.r.r.y.e.!.P.e.P.P.#.!.9.^.",
"~.e.r.r.e.r.r.r.r.r.r.r.r.r.r.r.r.r.e.r.7./ H r.9.J ( ) !.) !.#.8.r.r.r.8.9.r.r.e.e.J.P.P.y.!.!.9.^.",
"J.6.3.7.8.8.7.7.3.7.8.e.r.r.0.8.8.7.8.7.( ( e.r.t.) ( ( ) #.t.P.7.7.8.8.3.7.7.7.8.) y.J.#.y.t.!.) ~.",
"J.:.2.2.2.7.8.:.:.2.:.8.7.8.7.7.7.7.:.( / 7.!.:.) ) ) ( Q ) ) J.3.7.7.3.2.7.7.7.7.9.) ) r.9.) ) ) ~.",
"I.8.q.7.7.7.9.8.7.7.7.7.7.3.8.0.7.7.( H 6.!.( :.#.y.) ) J J ) !.q.r.q.7.7.8.q.r.J.7.) 8.r.9.#.!.r.^.",
"I.8.0.8.8.0.0.0.q.q.0.q.q.0.0.e.7.( D 9.P.) ) :.) ) ) ) ) ( ( ) r.q.q.e.e.8.q.e.e.e.!.e.r.9.!.) ) ~.",
"K.8.e.0.q.q.q.0.q.q.q.q.0.8.e.8.( J r.!.) ) ) ) ) ) ) y.) ) ( ( :.e.8.8.e.8.9.8.q.q.q.q.q.0.q.q.r.^.",
"K.9.q.q.q.7.5.7.q.7.q.q.7.8.7.( H ) r.) ) ) 9.) ) ) ) #.) ) ( ( H :.8.e.8.e.8.8.7.7.7.w.q.0.4.q.) ^.",
"K.6.q.4.7.w.7.q.q.q.7.7.8.7./ H ) P.) ) ) ) ) ) ) t.#.t.#.@.) ) / H :.9.8.8.8.8.q.4.7.7.3.q.q.q.) ~.",
"K.7.8.7.7.7.7.7.4.7.7.q.7.( H 2.!.) ) 9.y.) ) y.) ) ) ) ) ) ) ) ) H H :.8.8.8.7.7.0.0.q.3.0.7.q.) !.",
"K.6.q.4.7.7.0.7.7.7.7.7.( D 2.r.( ) ) ) S.) ) ) ) ) ) ) y.) ) ) ;.) H H :.q.7.7.7.7.7.7.7.7.7.7.!.!.",
"r.6.7.7.7.7.3.7.7.7.7./ D 2.r.=.( ) ) ) @.) ) ) ) ) ) ) ) ) ) ) -.=.) H G :.7.7.7.7.7.4.7.6.4.7.) ~.",
"K.3.q.3.3.7.7.7.3.7.! D 7.0.-.-.#.@.) ) ) ) ) ) ) ) ) ) ) ) ) ) ( ( ( Q G H =.7.3.7.7.7.4.7.7.7.) ^.",
"q.;.:.2.:.2.:.2.2.! D 2.7.=.Q ( ) ) ) ) #.) ) ) 9.y.!.) ) ) ) ) Q Q J J H G H -.2.2.:.:.:.:.:.,.) ~.",
"4.( ;.-.-.:.2.:.Q G -.0.-.Q Q J ) ) ) !.I X O O . y W.T.S.,.! Q Q ( ( ( H H H D ) :.:.-.;.;.:.;./ K.",
"5.:.3.2.:.2.2.( D -.q.-.( -.( ! #.!.v 7 #.R.R.E.E.B.f g A.D.,.-.Q ( ( ( ( Q H D H ;.:.:.2.3.3.,.( L.",
"q.:.3.3.2.3.Q D =.0.( ( =.-.! <.#.T k w Q.&X&X&X*X|.w j m.Z.S.,.) ) ) ) ( ) ) ( G F -.3.2.6.2.4.;.U.",
"q.2.6.2.3.! V -.7.) -.( ( ( -.4.) 0 .X@X+X+X+X+X+X@X%X&XM.i T.1.-.( ) ( ( ( ) ( Q F H :.6.2.2.2.;.U.",
"S.:.2.2.Q V -.3.:.! -.( ( ( <.r #..X+X+X@XOX(.+X$X#X+X+XOXE.6 A.,.) ( ( ( ( ( ( ( Q G H ( 2.:.3.;.L.",
"5.:.2.! V ( 3.:.Q ( ( ! ( ! 8.4 k *X+X+X@XOX X}.{. X#X+X*XQ.  T.1.~ ( ! ( ! ( ( ( ( Q D H =.3.2.;.L.",
"q.;.! D ( 7.;.J ) ) ( ( ( ( I h Q.@X@XXXoX#X#X(.s._.XX%XoX/.M.N.1.) ! ( ( ! ( ( ( ) ) J D D -.2.;.K.",
"5.H D H 8.) Q ( Q Q ! Q ( ) o R.OX@X@X`.].@X+X].n.c.n.OX_.}..XX W ) ( ( ( ! ! ! Q ! J Q H D G :.=.S.",
"&.n ! 7.Q Q ! Q H H ! R H ~ : Y.XX@X#X[.x.].#X#X}.x.z.(.z.n.u.& I ) Q ! Q Q ! Q H Q H G Q Q D F n 1.",
"W n ! 3.F F F H F H H F H Q : w.).'.#X{.k.n.`.`.).g.i.c.b.n.u.= I ~ F R H F H R G Q Q H F H D V n 1.",
"4.D D Q Q Q Q Q Q Q H Q H Q ; y.v.l.}.`.g.f.c.c.g.i.} j.n.h.p.# I ) H Q Q Q Q Q Q Q ! Q Q B C ,.H 1.",
"8.( F B Q Q ! ! ! Q ! ! Q ! e >.d.l.x.h.p.| z.j.i.' ..b.j.p.l 9 W ( Q ! Q Q Q Q ) Q ! Q D D ) 7.;.S.",
"J.) ) H V H Q Q Q Q Q ! ! R ( 8 s n.z.a.' i.b...{ } | b.a.l 1 1.,.W ! ! ! Q Q Q Q Q Q F D ~ 8.,.( L.",
"4.) ) ) D B F Q Q Q Q Q ! R -.8 A v.@.} } } ..} X.} {  .+.z % <.~ Q Q Q Q ! Q Q Q H F B ) 7.) ,.( D.",
"4.( ,.) ) F B H ! Q ! R G R ! S s / } o.} } ] { { X.O.o.z u T ~ ~ R Q Q Q I H Q Q L B ) 3.-.-.-.Q D.",
"4.( ) ) ) ) D B D ! H Q R H H =.P 4 x x ` o.X.X.o.[ z _ u h 5.W Q Q F R Q Q H H D B ) 3.,.-.-.-.) D.",
"S.( ) ) ) ) ) L B F Q Q Q H H ! ~ ~ 3 $ c } { ` { ^ 2 % N.S.W Q Q Q Q H Q Q H C B ) ) <.) ) ) 4.( D.",
"4.( ) ) ) ) ) ) F V F L H L H L Q W ~ &.g @ - - + f Q.Y.C.1.~ R R R R G L H V m ~ ) ) ) ) ) ) ) Q F.",
"1.( ) ) ) ) ) ) Q B m F H F F F V F ~ ,.s ; N.N.9 q T.Z.N.~ R R G G F C L F m Q 3.) ) ) ) ) ) ) H F.",
") H Q Q R ! ! Q ( Q B B V V F L C C R ~ y < V.D.q q H.1.~ I G F F C C D F m Q <.Q ~ ~ H Q Q Q ~ D 4.",
"V.H ~ ~ ~ Q Q ~ ) ) ~ B m L F L F G R &.y , &.<.9 6 N.T W E F C V G L B v ( 2.! Q ! ~ ! Q R Q ) H S.",
"V.( ~ ) ) ( ~ ) ) ) ) Q B m F H G G R ~ y , 1.V.i + * + K ~ C C L G V v Q ) ) ~ ~ ) ) ~ ~ ~ ~ ) J D.",
"<.( ) ) ) ) ~ ) ~ ) ) ~ R B m F G G R %.y , V.C.C.S.N.& K %.R H H B v G 2.) ~ ) ) ) ) ) ~ ) ) ) J Z.",
"<.Q ) ~ ~ ~ ~ ~ ~ ~ ~ ) ~ R B m C S R &.y < V.F.h 9 e # K $.R P B v R ,.) ~ ~ ~ ~ ! ~ ~ ~ ~ ~ ) J S.",
"1.! ~ ~ ~ ~ ~ ~ ~ ~ ~ ~ ~ ~ Q m v C P $.r < Z.H.Y w d $ g ~ P B m S -.~ ~ ~ ~ ~ ~ ~ ~ ~ ~ ~ ~ ~ J Z.",
"1.R ~ ~ ! ~ ~ ! ~ ~ ~ ! ~ ~ ~ R a m C ~ y 3 A.W.Y.Y.G.* N $.C v S -.$.~ ~ ! ~ ~ ! ~ ~ ~ ! ~ ! ~ H Z.",
"1.H ~ ~ ! ~ ~ ~ ~ ) ! ! ! ~ ~ ! R m v E y 6 G.T.h + * + K P a S %.%.~ ~ ! E ~ ~ ! ! ~ ! ~ Q W ( H C.",
"*.G ~ E E E E E R I ! W R R ~ W ~ S a S r + 6 0 # > U K P M S %.%.E E ~ E ~ E E W ~ W ! W ~ Q W H Z.",
"&.D G G E E S S G S R R P G E E E E A N s i d f d g &.$.N R %.~ R E R E E R E E E E R ! Q ! ! W S 1.",
"&.V S A R S S S S S G P G C S R R S R S S A *.1.*.W A M A %.E S S S G A G R E R S R S R R L R R V *.",
"&.G R G E E E E G S R R R R R R S G E E S p Z Z Z Z p b $.E R G S G R R R R E R G S C P S V C L S 1.",
"*.H W E E E E E E E E E E E R W E E E E $.E P U U N S &.$.E E E E E E E E W E E E E R E E W E R G C.",
"%.C G G G P G G A G E G G E G G A E S G G G M t 5 n R ! G G P G G E A G G G G G U G G A E G G G M *.",
"Z.&.&.&.&.&.&.&.&.&.&.&.&.&.&.&.&.&.&.&.&.&.&.U K &.1.&.&.&.&.&.&.&.&.&.&.&.&.&.&.&.&.&.&.&.&.*.%.Y."
};
