/* XPM */
static char *result[] = {
/* columns rows colors chars-per-pixel */
"50 100 220 2 ",
"   c #000000",
".  c #190000",
"X  c #000018",
"o  c #240300",
"O  c #2B0100",
"+  c #340002",
"@  c #380204",
"#  c #331116",
"$  c #3A2400",
"%  c #020026",
"&  c #180023",
"*  c #000036",
"=  c #16163A",
"-  c #3B1725",
";  c #2B0F35",
":  c #392D30",
">  c #450100",
",  c #5A0D00",
"<  c #441D00",
"1  c #492900",
"2  c #483119",
"3  c #462A29",
"4  c #4B3529",
"5  c #47203B",
"6  c #453938",
"7  c #513B36",
"8  c #564237",
"9  c #755B3E",
"0  c #3A1C55",
"q  c #282745",
"w  c #283051",
"e  c #211B79",
"r  c #2A3067",
"t  c #453D4B",
"y  c #5D3B6D",
"u  c #3B445B",
"i  c #3D4B65",
"p  c #4C444B",
"a  c #4A4857",
"s  c #6B5A4F",
"d  c #6B6246",
"f  c #776957",
"g  c #444B69",
"h  c #4A5364",
"j  c #43536B",
"k  c #4B556B",
"l  c #4A596E",
"z  c #585969",
"x  c #4D4170",
"c  c #465675",
"v  c #4B5C73",
"b  c #4B5E7B",
"n  c #525E74",
"m  c #4E617D",
"M  c #53647C",
"N  c #58657A",
"B  c #666566",
"V  c #766B65",
"C  c #7E776E",
"Z  c #666573",
"A  c #726E74",
"S  c #7D7776",
"D  c #850000",
"F  c #960100",
"G  c #983600",
"H  c #9D3412",
"J  c #AF694E",
"K  c #947966",
"L  c #847A77",
"P  c #9C8452",
"I  c #938474",
"U  c #A8916D",
"Y  c #B59B76",
"T  c #BCA27B",
"R  c #C8917D",
"E  c #3E44A0",
"W  c #4E468C",
"Q  c #4B4995",
"!  c #534D94",
"~  c #4F6382",
"^  c #4B658C",
"/  c #526583",
"(  c #556984",
")  c #5A6B84",
"_  c #536789",
"`  c #586788",
"'  c #556A8C",
"]  c #5A6E8C",
"[  c #5D718E",
"{  c #566D91",
"}  c #5A6E91",
"|  c #5D7294",
" . c #5E759A",
".. c #61738D",
"X. c #6F758C",
"o. c #686D90",
"O. c #627694",
"+. c #657995",
"@. c #687B96",
"#. c #617699",
"$. c #647A9C",
"%. c #697D9C",
"&. c #4B4DA9",
"*. c #5F79A0",
"=. c #5E63BD",
"-. c #667DA1",
";. c #697FA2",
":. c #6B69B7",
">. c #4145C4",
",. c #5165D2",
"<. c #626AC9",
"1. c #6B73D3",
"2. c #6C76DA",
"3. c #667AE8",
"4. c #717DE7",
"5. c #927490",
"6. c #BE7D99",
"7. c #906EAB",
"8. c #6C809F",
"9. c #7C879C",
"0. c #6680A7",
"q. c #6B81A5",
"w. c #6781A9",
"e. c #6D84AA",
"r. c #6E88AF",
"t. c #788AA6",
"y. c #7087AB",
"u. c #7289AE",
"i. c #6F89B0",
"p. c #758DB2",
"a. c #788FB4",
"s. c #748EB8",
"d. c #7990B6",
"f. c #7690BA",
"g. c #7992B8",
"h. c #7C94BB",
"j. c #7581E9",
"k. c #7584F3",
"l. c #7887F8",
"z. c #898481",
"x. c #938C87",
"c. c #99938C",
"v. c #9C9997",
"b. c #A69798",
"n. c #BAA280",
"m. c #818EA7",
"M. c #8492A6",
"N. c #8694AB",
"B. c #8896AE",
"V. c #8797B5",
"C. c #8B9AB5",
"Z. c #8198BE",
"A. c #8D9DB9",
"S. c #A883AA",
"D. c #B48BB6",
"F. c #B991BB",
"G. c #8FA0BC",
"H. c #91A2BE",
"J. c #B5ADA7",
"K. c #B4A3AD",
"L. c #B8B4AE",
"P. c #BEBCB7",
"I. c #CDB793",
"U. c #D9BE90",
"Y. c #C2A3B8",
"T. c #C1BEB9",
"R. c #BFC0B5",
"E. c #DCC49D",
"W. c #DCCBAF",
"Q. c #C5C2BD",
"!. c #C8C5BD",
"~. c #D7C6B7",
"^. c #ECD3AB",
"/. c #E9D5B5",
"(. c #819AC0",
"). c #9180D8",
"_. c #94A6C3",
"`. c #9C9DEC",
"'. c #C69DC9",
"]. c #CC9BD5",
"[. c #D0ADCD",
"{. c #D3ABD8",
"}. c #D8B5DA",
"|. c #E0ADD1",
" X c #DCB1E3",
".X c #E6BBEB",
"XX c #E9BDF3",
"oX c #C9C6C1",
"OX c #C7C8C1",
"+X c #CECCC6",
"@X c #D2CDC6",
"#X c #D7D0C2",
"$X c #D4D3CC",
"%X c #D8C4D8",
"&X c #D8D7D1",
"*X c #DBDAD3",
"=X c #E6D8C9",
"-X c #E4DCD2",
";X c #E0DFD9",
":X c #F6E4C5",
">X c #E3E2DC",
",X c #E8E3D8",
"<X c #F5EAD5",
"1X c #D2C7E2",
"2X c #E9CAED",
"3X c #F5C8FC",
"4X c #F5C9FC",
"5X c #E9E7E1",
"6X c #EBEAE4",
"7X c #EBEAE7",
"8X c #F1ECE4",
"9X c #EFF1EB",
"0X c #F7F5E8",
"qX c #F6F5EF",
"wX c #E0E3F3",
"eX c #F6F7F0",
"rX c #F8F7F0",
"tX c #F7F8F2",
"yX c #FAFBF4",
"uX c #FFFFFB",
/* pixels */
"g.h.g.g.h.h.h.h.h.h.h.h.h.h.h.h.g.(.f.Z.Z.f.f.;.;.h.h.f.f.g.f.p.g.(.Z.f.Z.Z.f.Z.h.h.h.h.h.h.h.h.f._.",
"h.h.h.Z.h.h.h.Z.h.h.h.h.h.h.h.h.(.g.Z.f.f.Z.f.-.-.:.h.h.(.h.Z.Z.(.g.Z.(.Z.f.a.Z.h.h.h.h.Z.h.h.Z.f._.",
"f.h.h.h.h.h.h.h.(.h.h.h.h.h.h.h.h.(.h.g.Z.f.-. .*.-.r.h.h.h.h.h.f.Z.f.f.a.(.(.a.h.h.h.h.h.h.h.h.f._.",
"h.h.h.h.d.h.h.h.h.h.h.h.h.h.h.h.g.Z.g.g.p.#. .(.p.-. .e.p.p.f.p.a.Z.Z.a.s.a.f.(.h.h.g.h.h.h.h.Z.f._.",
"y.r.y.p.p.s.p.u.y.p.p.d.h.g.d.p.a.p.a.r.-.$.h.f.r.;.-.*.-.p.p.p.u.s.p.p.:.p.a.p.p.p.r.a.p.p.p.t.e.G.",
"y.y.y.e.y.y.p.u.e.e.u.p.s.p.a.p.u.s.y.-.-.p.Z.e.w.e.;.-.*.;.p.s.p.p.p.p.t.p.p.p.p.r.e.r.p.p.e.y.w.A.",
"s.h.a.p.p.p.s.a.p.p.u.p.p.p.a.a.p.i.-.#.r.(.;.e.w.q.e.e.-.*.w.f.d.a.d.p.p.a.a.f.d.p.r.d.g.d.a.a.s._.",
"a.g.a.a.s.d.a.a.d.s.d.a.s.g.a.d.i.-. .p.(.;.e.w.w.e.;.w.;.-. .;.a.h.g.a.a.a.g.a.d.d.d.d.d.d.a.d.s.G.",
"a.d.d.a.d.a.a.d.d.d.d.d.a.a.d.p.-.{ f.h.;.e.e.;.w.w.;.e.e.w. . .q.g.a.a.a.f.a.f.a.a.a.d.a.a.a.d.i._.",
"a.a.a.a.a.a.a.a.p.a.a.d.p.d.p.-.| f.f.e.;.e.w.;.w.;.;.-.;.w.;.-.#.w.a.a.a.a.a.a.a.a.p.a.a.a.a.a.i.G.",
"t.a.a.p.p.a.d.p.a.a.p.p.d.i.$. .s.f.r.;.e.e.e.e.e.e.;.e.e.w.w.q.-. .w.a.a.a.s.p.a.p.a.p.a.p.p.a.i.H.",
"u.a.p.p.a.u.d.u.p.p.p.a.p.*. .e.h.w.;.;.w.w.q.w.w.;.e.e.;.e.q.e.;. . .e.p.p.s.p.p.a.p.p.p.p.p.a.i.H.",
"p.a.p.p.p.p.p.d.p.p.p.p.-. .e.h.;.;.w.r.e.e.w.e.w.r.e.;.e.e.;.w.;.;. . .r.p.p.p.u.a.p.u.d.u.a.a.r._.",
"u.p.u.p.u.p.u.p.u.r.p.-.{ e.h.w.e.;.e.;.;.e.;.e.e.;.;.e.w.w.e.;.;.e.-. . .;.p.p.a.u.p.u.a.p.u.a.e.G.",
"u.p.p.u.p.u.p.p.p.u.$.| u.d.q.q.w.e.;.;.;.e.;.w.;.-.-.e.;.-.;.-.-.-.-.-. . .;.p.u.u.u.u.u.u.u.u.e.G.",
"e.e.e.y.e.e.e.u.e.$.{ y.p.q.$.-.;.;.-.;.;.-.-.-.-.*.-.-.-. .-.-.*.-. . .-.}  .-.u.e.u.u.e.e.e.y.0.V.",
"8.q.q.q.q.e.y.q.-.} ;.f.;.-.-. .-.*.*.-.-.#. .-.-.-.*. .-. .-.*.-. .-.-.-. .} | -.y.w.;.;.q.q.q.*.V.",
"q.r.y.e.e.y.r.$.} -.h.;.;.;.-.-.#.-.*.-.-.-.-.#.;.-.-.-.;.$.;.;. .$.-.;.-.-. .|  .e.e.q.y.p.u.y.-.A.",
"u.u.y.u.r.p. .] -.h.-.;.;.;.;.-.;.;.;.-.-.;.;.;.;.;.;.-.;.-.-.;.0.q.-.w.-.;.q.-.} } e.p.y.y.r.u.w.A.",
"e.u.y.y.u. .{ q.a.;.;.-.-.;.;.-.;.-.-.-.;.-.-.;.-.;.;.;.;.;.-.w.-.-.-.-.;.-.-.-.-.| } q.p.y.y.y.w.A.",
"y.e.r.r.8.^ e.u.;.-.-.-.-.;.-.-.-.-.-.-.-.-.-.-.%.-.-.$.-.-.-.-.-.$.q.$.-.$.-.-.-.#.| | -.r.y.u.0.C.",
"e.u.e. .' 8.u.e.#.-.-.-.-.;.;.#.-.-.-.-.-.-.-.-.-.-.-.-.;.-.%.-.-.-.-.-.-.-.-.-.-.-. .{  .;.y.y.0.G.",
"e.e.8.'  .p.q. .;.-.;.-.-.-.-.-.;.-.-.-.-.;.-.-.-.-.-.-.$.-.-.-.$.0.-.-.-.-.-.-.-.-.;. .} } ;.u.0.V.",
"q.8.{  .g.q. .8.-.#.-.#.-.#.-.-.-.-.-.#.-.#.-.$.-.-.$.$.-.-.$.$.$.$.-.$.-.$.-.$.$.-.$.-.#.} | ;.0.N.",
"| ' $.p.#.#.-.#. . .-. .#.#.-.-.#.#.#. . . .O. .O.#. .#.$.#.#.#.#.#.#.#.#.#.$.$. . .|  .#.#.} | ' t.",
"' ' #.u.| | |  .| |  .| | |  .| } #.$.#. .#.}  .#.#.O. . . . . . . .|  . .|  . .| #.-.|  .| } ] ^ t.",
";.| } #.#.#.#. .#. . .o.#.#.#.#.#.-.$.#.$.$.#.#.#.$.#.#.#.#.#. . .#.#. .#.#.#.#.| -.#.-. .{ { ;. .t.",
"e.-.| '  .-.#.#.#.-.-.-.$.$.#.$.#.$.#.-.$.$.$.$.-.$.-.#.-.#.$.$.$.$.$.$.$.$.$.#.-.#.-.#.} { $.a.q.B.",
"e.e.;.} ' | #.-.-.#.#.$.#.-.#.$.#.$.$.#.#.$.$.$.#.$.#.$.#.$.$.$.$.$.#.#.#.$.#.$.$.-.#.} ] $.p.t.$.C.",
"q.;.t.;.} ' } -.#.#.-.#.#.#.$.#.#.$.#.+.#.$.#. .#.#.+.#.#.#.+.+.+.#.$.+.$.#.+.$.#.$.} ` %.p.8.q.-.C.",
"q.q.q.;.;.' ' | $. . .#.#.#.#.#.#.#.#.#.#.+. .+.#.#.#.#.+.#.+.#.#.#.#.O.#.+.#.#.#.} ` ;.u.q.q.q.$.C.",
";.q.8.q.;.;.} ` o.-. .| #.O.#.O.#.#.#.#.+.#.#.#.#.#.#.O.#.#. .#. .+.#. .#. .+. .} _ %.y.y.q.q.e.$.C.",
";.t.y.;.;.;.-.} _ }  . . .O.+. .#.#.#.#.O. .#.O.#.#.#.#. .+.+. . .+.#.| #.#.O.] ` #.y.q.q.8.q.t.$.B.",
";.q.;.;.t.;.;.%.' ' | | O. . .| } O.O.O. . .O.#.|  .#.} | |  .+.O. .#. .| #.] _  .t.q.q.q.q.;.q.-.B.",
";.;.;.;.;.;.;.;.$._ ' | | [ { { } } | } ] } o.#.] |  .] [  . .| |  .| } | ] _ } u.q.8.q.8.;.;.;.-.B.",
"$.@.#.#.o.-.$.$.$.O.( ' [ { [ | } } } ' } ] } } ] ] } ] ] ] | [ [ ] ] } } _ #.y.$.$.$.+.+.+.$.+.{ m.",
";.%.$.-.%.$.+.$.-.;.$.` ( { | | | | | | | ] } } ] } } O.| [ { { } }  .' / $.q.$. .8.8.#. . .| 8. .m.",
";.;.%.;.%.%.;.;.;.;.%.#.( ^ [  .| |  .o.| ] | } } } |  .| [ { [ | O._ ~ #.;.;.%.$.8.0.$.8. .0.8.-.B.",
";.;.;.%.q.;.8.;.;.;.;.;.[ ^ ^ { } O.} O.| O.O.| | | } O. .| | | | ' / } t.q.;.%.8. .8. .8.8.8.8.#.B.",
"%.;.%.%.%.%.%.%.8.8.%.%.8.8.M ~ ] } | | | | ] | ..| | | | [ | [ ] / ] t.%.%.;.%.8.8.8.8.8.8.8.8.#.B.",
"%.%.;.%.%.%.%.%.8.8.8.0.8.8.8.b _ [ [ | | | | [ [ | [ | | [ [ { / ] q.;.8.+.8.$.8.8.$.8.8.8.8.| #.N.",
"%.%.%.%.%.%.%.%.8.[ 8.[ 8.8.8.{ / _ ] | [ [ ] | | | | [ [ | ' m } q.%.%.8.$.$.8.+.8.8.$.[ 8.8.8. .B.",
"%.@.%.%.+.%.%.%.8.8.8.8.[ 8.8.8.[ ~ / ] | [ [ { [ [ [ [ [ _ m ] %.q.%.%.$.8.8.+.$.8.+.$.8.8.[ 8. .N.",
"%.%.@.@.%.%.+.+.8.' 8.8.8.[ 8.[ $...~ / ' [ [ [ ] ] { [ ' m { 8.8.@.$.@.+.8.+.8.+.+.@.8.[ 8.8.8.| N.",
"+.O.O.O.+.$.O.| [ 8.[ [ [ 8.[ 8.| 8.] m ~ ] ] ( ( ' ] ( / ) %.%.@.@.+.O.+.+.+.$.+.+.8.[ 8.| 8.8.] M.",
"..] ] [ o.O.] ] [ ] [ 8.) [ [ ) | [  .( m m / ( ' ( / m ` 8.$.....O.O.[ ..| +.+.| | ] 8.8.[ [ 8.' 9.",
"O.+.#...#.+.+.+.( [ [ [ 8.[ [ 8.[ 8.+.8.[ m ~ ' ' ( m ( 8.@.$.O.| O.+...O.+.+.| | [ ] [ ) ) [ [ { N.",
"+.+.+.+.+.+.+.+.8.[ 8.8.[ 8.8.[ 8.[  .+. .[ m m ~ m ( 8.8.+.@.+.O.O.+.O.+.+.+.+.8.+.+.| 8.[ [ 8.| M.",
"+.@.O.@.+.O.+.O.@.O.O.@.O.@.@.O.O.O.@.O.+.+.] b b ` +.%.O.+.+.+.+.+.+.#.+.O.+.+.+.+.+.@.+.@.+.@.[ M.",
"+.+.O.O.+.+.+.@.@.+.+.+.+.O.O.+.$.@.O.@.+.O.$.' / | $.O.$.o.O...+.+.+.o.+.+.+.+.+.+.@.+...+.O.+.{ M.",
"g.h.d.d.g.h.h.h.g.h.h.h.g.a.d.g.h.h.g.h.Z.a.a.;.-.p.h.a.f.f.a.u.h.Z.a.Z.Z.a.g.g.h.h.h.a.g.g.d.g.p._.",
"h.h.h.h.h.h.h.h.Z.h.h.h.Z.h.Z.Z.h.h.h.h.h.h.g.-.*.y.Z.h.(.g.(.Z.h.h.(.f.Z.Z.h.Z.Z.h.h.h.Z.Z.h.Z.f._.",
"h.h.h.h.h.h.h.h.h.Z.h.Z.h.h.h.h.h.h.h.h.h.s.-. .-. .;.h.h.h.h.h.g.Z.g.g.h.h.h.g.h.h.h.h.h.h.h.h.f._.",
"g.h.h.h.g.d.h.h.h.g.h.g.h.a.h.h.h.h.g.h.s.-. .Z.r.-.-.;.s.f.f.f.a.h.Z.g.a.f.Z.h.h.h.h.a.h.h.h.Z.f._.",
"u.u.u.p.p.s.p.u.y.u.s.g.h.h.a.p.s.a.s.r.;.-.h.d.r.;.-.*.;.s.s.p.y.s.a.p.r.p.p.p.a.u.u.a.p.p.u.u.e.G.",
"e.u.r.e.u.u.p.u.e.y.y.p.p.p.p.p.y.p.e.-. .p.(.e.;.r.;.-.*.;.i.p.p.p.p.y.y.u.p.p.p.r.e.y.a.u.u.u.w.G.",
"a.g.d.u.u.u.a.p.p.u.u.p.u.u.g.h.d.d.w.$.p.h.;.w.;.r.;.r.-. .u.a.(.g.Z.f.p.a.a.h.d.s.u.a.h.a.u.d.i._.",
"a.d.d.a.d.d.d.a.a.f.a.a.a.h.+.+.o./ c y.(.w.e.w.:.;.;.;.;.-.#.O.o.+.+.o.;.h.a.a.a.d.d.d.d.d.d.d.i._.",
"a.d.d.d.d.d.d.d.a.a.a.a.a.a.p 2 4 7 1 o.u.q.q.;.r.w.;.r.;.;.-.h 1 4 7 < Z h.a.a.a.d.a.a.d.d.d.d.i._.",
"p.a.a.a.a.d.a.d.a.p.(.`     -X0X6X6XqXv.% s.w.q.w.w.;.;.;.r.  T.tX7X8XqXT.    ;.h.p.a.a.a.a.p.d.i._.",
"p.a.a.a.a.a.p.a.p.h.r v.$XoXqXrXeXeXyX>XJ.g 8.e.0.0.0.e.O.z T.5XyXtXtXyX5X!.@XX.~ h.p.a.a.a.a.a.r.H.",
"u.a.a.u.p.a.u.d.u.O.S $XuXyXrXqXqXqXqXuX;X  %.e.e.e.0.r.` 1 eXyXqXqXqXqXrXyXyXT.S $.p.p.u.a.u.a.r.G.",
"u.p.u.d.p.p.p.d.@.> 5XuX9XqXqXqXqXqX9XqX$XO %.e.q.e.e.e.) 8 5X0X0XqXqXqXqXqX0XuX$X. u.a.a.p.p.a.i.G.",
"u.a.u.u.t.p.d.) , G -XyXqXeXqXrXyXyXV O +                   -   v.uXyXeXqXqX0XyX~.F 3 +.a.u.u.p.r.G.",
"a.u.u.u.p.u.d.v s =X8XrXrXrXuX!.L x.Q.+X+X+X@X+X+X@X@X+X+X@X+X+XL.I S *XuXeXqXeX6X~.< O.d.u.u.u.e.H.",
"y.u.e.e.u.e.p.g V yXrXrXrXrX$XK.I x.9XuXyXyXyXuXyXyXyXyXyXuXyXuX>XL x.L.*XtXqXqXyX9X3 ] y.q.e.y.0.C.",
"8.q.q.q.q.q.u.g V rXqXqX9X9X7 T.uXyXeXeXqXqXqXqXtXqXqXqXqXqXeXqXeXyXuXx.x.tXeXeXrX8X2 ` q.q.q.q.$.V.",
"e.e.u.e.q.q.y.i V rX9XuX;X. ;XrXeX9XeXeXqXqXqXqXrXqXqXqXqXqXqXqXqXqXqXyXoX3 tXeXrX,X3 ` y.y.u.q.0.C.",
"u.u.u.u.y.y.$.q V yXuXoXx.+X0XtXeXeXqXqXqXeXqXqXrXqXqXqXqXqXqXqXrXqXqXyX6X!.x.>XuX9X1 ` y.e.u.u.w.C.",
"e.u.e.y.u.#.' j A oX=Xb.5.uXqXqXqXqXeXqXqXqXeXqXqXqXrXqXqXqXeXqXqXeXqXqXyXqX  J.=XT.t ] y.q.y.u.0.G.",
"e.y.y.e.#._ #.-.M   F 6.1X0XrXqXqXqXqXqXqXqXqXqXqXrXtXqXqXqXqXqXqXqXqXqXyX6XB G D   M ' +.y.e.u.0.G.",
"e.u.e.-.{ ;.y.$.' [   J.yXqXqXqXeXqXeXqXeXqXeXqXqXqXqXqXeXqXeXqXqXqXqXqXqXqXqXx.q ' ` _  .-.y.y.0.C.",
"e.e.$.| #.a 6 : 4 p L.5XtXqXqXrXtXqXrXqXqXqXrXqXrXqXqXrXqXqXqXrXqXqXqXqXqXqXuXz.> K 2 : : t e.p.0.C.",
"e.$.{ ] o.W ! ! W   5XuXqXqXqXqXqXqXqXqXrXqXqXqXqXyXqXqXqXrXqXqXqXrXrXqXqXqXtXR.K H ! ! W W v ;.w.N.",
" .{ ;.N 0 l.k.k.2.8 ;XtXqXrXqXqXqXrXqXqXqXqXrXqX0X5XeXtXqXqXrXqXtXqXqXrXqXqXqXuX@X* j.k.k.4.@ n { t.",
"'  .;   r k.k.E d 9XqXtXqXqXrXrXqXqXqXrXqXqXqXyX&X. 9XtXqXtXqXqXqXqXqXqXtXqXqXyXoX  O <.k.4.&   w N.",
"$.  P.~.Y e 3.).Y.yXqXqXqXrXqXqXqXqXqXqXqXqXuXR.5.].L -XuXqXqXqXqXqXrXqXrXqX0XyX1X>.D.`.,.y T #Xv.a ",
"X.c.0X0X/.P :.7.K.qXqXrXqXqXrXqXqXrXqXqXqXqX+X5.6.XXo.b.&XrXqXqXtXqXqXqXqXqXrXtXwX`.S.:.X.U :XyX&Xv.",
"V yXqX9X5X^.s   V qXqXqXqXqXrXqXrXqXtXqXqXqX2 5. X.X{.y C yXqXqXqXqXqXqXqXqXqXqXtX8X$   I /.7XeXyXyX",
"V 9XuXT.  < 2.&.f yXqXqXtXqXqXqXqXqXqXqXeX0X2 F.3XXX4X5.C yXqXrXqXrXqXqXrXqXrX0XtX7X1 1.:.@ O *XuX7X",
"V uXL.8 0 <.4.&.f eXqXqXeXqXeXqXqXtXqXrXqXqX*X[.].].].oX;XeXqXqXqXqXqXqXqXeXqXqXyX6X1 <.4.=.# s R.tX",
"Z oXB   x k.l.&.f yXeXqXqXqXqXqXqXqXqXqXqXqXyX5X%X%X}.9XuXqXqXeXeXqXeXqXqXqXqXqXyX6X1 <.l.4.5   9.OX",
"..  ( h 0 4.j.Q f rXqXeXqXqXqXeXqXqXqXqXrXqXqXtXtXtXtXqXqXqXqXqXqXqXqXeXrXqXeXqXeX7X1 =.4.1.@ N i 4 ",
"O.) ' a + - 5   C yXrXqXqXeXqXqXtXqXqXrXqXqXqXqXqXqXqXrXqXqXqXeXeXqXqXqXqXqXqXqXyX9X4 O - - + z N 9.",
"..) ( n k k k h z z.,XyXqXqXqXqXqXqXqXqXtXqXqXrXrXqXqXqXeXqXeXqXeXqXqXqXqXqXeXyX&XS z k k k k ( ( 9.",
"] ( M M b M M / l   >XuXqXqXrXyXtXrXqXqXqXrXqXtXqXqXrXrXqXqXqXqXqXqXrXyXeXqXqXuXoX  N m m M M M m 9.",
"O.] ] ` ( N b M v + *XrXrX0X6X5X8XqXqXqXqXrXqXqXqXrXrXqXqXqXtXqXrX0X8X5X7XqX9XyXQ.  N m m M M ) ' 9.",
"%.+.O...] ) ( ] n + U.<XyXyXB D R yXtXqXqXqXqXqXqXqXqXqXrXqXqXqXrX0XJ , v.uXtX:XT X ) ` ( ) ] O.[ t.",
";.$.$.@.+.O.] ..N O U.<X5XL 7.[.|.R 8XtXqXqXrX0XqXtXrXrXqXqXqXtX-XR |.F.5.c.9X:XT   M 8.m 8.8.( 0.t.",
";.@.@.$.+.+.O...N a U #X>X  D.XX}.D 6XtXqXqXrXrXqX<X0XrXqXqXqXyX#XD XXXXD.+ eX~.P i M M 8.( 8.8.8.M.",
"%.%.%.%.@.$.+.O.[ ..  P.>X. F..X{.  >XyXqXqX0X0X,XU.<X8X0XqXqXyXoX& .X3X'.2 rXz.% 8.m 8.8.] 8.8.8.d.",
"%.%.%.%.%.$.+.O.[ [   n.E.  }.3X{.O 6XtXqXtX^.^.I.+ W.^.=XtXqXuX+X> .X3XF.$ ^.P q [ 8.( 8.8.8.8.] t.",
"+.8.8.$.%.%.%.@...) v s d + }.4X{.O W.:XW.C f f f a f 9 Y :X/.:XI.; .X3X'.  f B m ) [ 8.8.8.8.( 8.N.",
"8.$.+.+.@.$.+...[ ( ) j ; @  X3X{.o U T U X q = w l q * s Y Y T K 5 .XXXF.  : m M ] [ 8.( 8.8.8.8.N.",
"+.+.O...+.O.O...[ ( ( N l - {.2X'.o %   = v l v l j l l u   X X   p }.'.5.# M M M [ [ 8.8.8.8.8.M t.",
"[ [ [ [ O.O.[ ] ) ( ( M l l : @ : v n z h i j j j j j i j N N l l h : @ u m M M ) ) ) [ 8.M 8.8.( 9.",
"O.+.O.| +.+.+.| [ [ N ) M m l l l v m M l i j b b c i c M M M v l v l l v M M m M [ ) 8.( m ( [ ( t.",
"+.+.+.@.+.+.+.+.+.[ [ ] ) M M M M M M M M m j j v j j 8.[ M M M M v M M M M ) 8.) 8.) 8.8.8.[ 8.8.9.",
"@.@.+.+.+.+.+.@.+.......[ N M M N N N N N ) M v v m 8.( N [ ) M M N M M N ) M 8.8.[ 8...[ 8.8.8.8.9.",
"+...+.O.+...+...+.+.+.[ [ [ ) N N ) [ [ 8.) 8.v v [ 8.] [ M 8.( 8.) ) N ) ) ) ) ) 8.) 8.8.( 8.) ( 9."
};
