/* XPM */
static char *result[] = {
/* columns rows colors chars-per-pixel */
"100 50 232 2 ",
"   c #000000",
".  c #00000E",
"X  c #170000",
"o  c #1C0000",
"O  c #000018",
"+  c #230000",
"@  c #2C0100",
"#  c #340000",
"$  c #3A0800",
"%  c #000028",
"&  c #2E072B",
"*  c #00242D",
"=  c #302A33",
"-  c #440500",
";  c #491510",
":  c #750000",
">  c #472503",
",  c #4F2D12",
"<  c #432623",
"1  c #452C2A",
"2  c #4C3331",
"3  c #504300",
"4  c #5B4537",
"5  c #60493E",
"6  c #01084D",
"7  c #252B48",
"8  c #2E334F",
"9  c #000061",
"0  c #1A3564",
"q  c #6A164E",
"w  c #543052",
"e  c #61285E",
"r  c #643B55",
"t  c #5F0560",
"y  c #673665",
"u  c #3A4759",
"i  c #3A4563",
"p  c #344D6E",
"a  c #3A5576",
"s  c #3F607A",
"d  c #5B4946",
"f  c #584B4B",
"g  c #4B495C",
"h  c #6B5149",
"j  c #675A56",
"k  c #6D6253",
"l  c #766659",
"z  c #464B62",
"x  c #44536B",
"c  c #4A556B",
"v  c #555164",
"b  c #445373",
"n  c #4C5B74",
"m  c #475878",
"M  c #4C5E7B",
"N  c #545E75",
"B  c #694E63",
"V  c #615A62",
"C  c #7A5978",
"Z  c #4D617D",
"A  c #53647D",
"S  c #5C657A",
"D  c #6E6564",
"F  c #746864",
"G  c #6D707D",
"H  c #7A7578",
"J  c #820000",
"K  c #A60000",
"L  c #AD3F00",
"P  c #924100",
"I  c #927B1E",
"U  c #B25625",
"Y  c #9F5559",
"T  c #8F7354",
"R  c #B56E57",
"E  c #867568",
"W  c #827B76",
"Q  c #847F7C",
"!  c #B77A66",
"~  c #9D825B",
"^  c #8A827B",
"/  c #978C7A",
"(  c #AA926F",
")  c #BFA67E",
"_  c #C6936F",
"`  c #713F89",
"'  c #395580",
"]  c #3D41A7",
"[  c #504C8B",
"{  c #445D82",
"}  c #615897",
"|  c #4E6382",
" . c #536583",
".. c #586781",
"X. c #556985",
"o. c #5A6B84",
"O. c #526689",
"+. c #556C8C",
"@. c #5A6E8D",
"#. c #5D718E",
"$. c #4A6996",
"%. c #566D93",
"&. c #5A6E91",
"*. c #5D7293",
"=. c #57749F",
"-. c #5E759A",
";. c #60738E",
":. c #757782",
">. c #617695",
",. c #657996",
"<. c #687B97",
"1. c #617699",
"2. c #647A9C",
"3. c #697D9C",
"4. c #5F60AC",
"5. c #667DA1",
"6. c #697EA2",
"7. c #647FAB",
"8. c #7276AC",
"9. c #6268BA",
"0. c #5861C3",
"q. c #686FCE",
"w. c #6A74D8",
"e. c #6C79E8",
"r. c #717DE8",
"t. c #906F8B",
"y. c #956698",
"u. c #9D70A5",
"i. c #6C819F",
"p. c #7F8899",
"a. c #6A81A5",
"s. c #6C84A9",
"d. c #7084A4",
"f. c #7087AB",
"g. c #7189AD",
"h. c #6F8DB7",
"j. c #758DB2",
"k. c #788FB5",
"l. c #738EBA",
"z. c #7991B6",
"x. c #7792BD",
"c. c #7C94BA",
"v. c #7584F3",
"b. c #7C8BFD",
"n. c #8E868B",
"m. c #938D88",
"M. c #97948D",
"N. c #878C99",
"B. c #9B9797",
"V. c #B19C80",
"C. c #AB9E96",
"Z. c #B5A48B",
"A. c #A4A299",
"S. c #8B96A9",
"D. c #8C97A9",
"F. c #9C97A1",
"G. c #8097BD",
"H. c #8199BE",
"J. c #909DB5",
"K. c #AB86AB",
"L. c #B392B6",
"P. c #94A3BE",
"I. c #ACA9A5",
"U. c #B7A8AF",
"Y. c #B9B3A9",
"T. c #BCBAB5",
"R. c #C79888",
"E. c #C8AE85",
"W. c #C9AA98",
"Q. c #D7BF96",
"!. c #D3B3A6",
"~. c #C1BDB6",
"^. c #D5BDB5",
"/. c #DBC193",
"(. c #E3C99D",
"). c #D6C4A6",
"_. c #C4C1BB",
"`. c #DAC3B9",
"'. c #E5CEA7",
"]. c #E6CDAF",
"[. c #E8D5BA",
"{. c #839BC1",
"}. c #BD94C3",
"|. c #97A6C2",
" X c #9AA9C6",
".X c #9CACC8",
"XX c #9FB0CD",
"oX c #C49CC8",
"OX c #C6A2C9",
"+X c #CEA3D4",
"@X c #D2A8D9",
"#X c #D6B4DA",
"$X c #E4BDD4",
"%X c #DCAEE4",
"&X c #E4BAEA",
"*X c #EABEF1",
"=X c #C8C7C6",
"-X c #CCCBC3",
";X c #DED5C6",
":X c #D5D4CD",
">X c #D6C8D4",
",X c #D9D7D3",
"<X c #DCDBD4",
"1X c #E3CEC4",
"2X c #E7D8C4",
"3X c #E0DAD8",
"4X c #EFE2C9",
"5X c #F7E6C9",
"6X c #E6E2D7",
"7X c #E4E3DC",
"8X c #EDE4DB",
"9X c #F5ECD9",
"0X c #CECFED",
"qX c #E9DCE9",
"wX c #EDC3F4",
"eX c #F2C4FA",
"rX c #F5C8FD",
"tX c #E8E7E1",
"yX c #E9E6E4",
"uX c #EBEAE4",
"iX c #F2EDE2",
"pX c #F1EBEC",
"aX c #EFF1EC",
"sX c #FAF4E7",
"dX c #F5F5EE",
"fX c #FEF9EB",
"gX c #F8EBF6",
"hX c #F7F7F0",
"jX c #FAF5F5",
"kX c #F7F8F2",
"lX c #FBFBF4",
"zX c #FEFFFB",
/* pixels */
" X X X X X X X X.X X X.X X X.X.XXX XP.|. X X|. X|.J.|. X X.X X X.X.X.X X X X.X.X.X.X.X.X.X X X X X X X X X X X X.X.X.X.X.X X X.X X.X.X X|.|. X X|. X|.J.P. X X.X.X X X.X X X X.X.X.X.X.X.X.X.X X X X X.X",
"l.l.l.l.l.l.l.l.l.l.l.l.l.l.l.l.l.l.l.x.l.l.l.x.7.$.=.h.l.l.l.l.l.l.l.l.l.l.l.l.l.l.l.l.l.j.l.l.l.l.l.l.l.l.l.l.l.l.l.l.l.l.l.l.l.l.l.l.l.l.l.l.l.l.7.$.=.l.h.l.l.l.l.x.l.l.l.l.x.x.h.l.l.l.j.l.h.l.l.l.",
"G.H.G.G.{.{.c.c.{.{.c.{.G.G.{.c.G.c.H.c.G.c.{.g.5.5.-.s.c.{.G.G.G.G.G.G.G.G.G.G.H.H.H.c.c.c.{.H.c.{.c.{.H.H.G.G.G.G.G.G.G.G.G.G.G.{.G.G.{.G.G.G.c.8.5.5.=.a.c.H.c.{.G.c.G.G.G.G.H.H.c.c.c.H.H.H.{.{.c.c.",
"c.c.G.c.c.c.c.c.c.c.c.c.x.x.c.c.c.k.c.z.k.k.s.-.-.j.l.=.5.x.c.c.c.c.c.c.c.c.c.c.c.c.c.c.c.c.c.c.c.c.c.c.c.c.c.c.c.c.c.c.c.G.k.x.c.c.c.k.x.k.k.k.g.5.5.g.c.-.5.l.c.c.c.c.c.c.c.c.c.c.c.c.c.c.c.c.c.c.c.c.",
"k.j.k.j.k.k.k.j.j.k.k.k.g.j.k.k.k.j.j.j.j.a.=.=.7.j.c.k.-.s.k.k.k.j.k.k.c.c.c.k.j.h.g.k.z.j.j.j.j.j.g.g.k.c.z.c.x.g.j.k.k.k.j.j.k.k.k.g.j.j.j.s.=.5.s.j.c.k.-.a.j.j.j.k.k.k.c.c.z.z.j.j.j.j.z.j.k.j.g.j.",
"g.s.s.s.j.j.g.s.f.j.j.j.j.f.g.j.j.j.j.h.s.=.7.a.f.6.g.{.g.-.5.f.j.h.k.k.j.k.k.f.s.s.g.k.h.g.s.s.s.k.k.c.&.  %   +.c.k.g.j.j.j.s.j.j.j.j.j.j.s.-.=.s.s.5.s.{.j.-.2.h.j.j.k.k.k.k.z.s.s.s.g.j.g.g.s.s.h.s.",
"c.k.j.j.k.c.k.h.k.x.c.k.k.j.j.x.c.k.z.g.-.-.a.s.s.a.s.a.{.j.=.7.j.j.k.k.j.g.j.g.j.j.k.z.g.j.z.c.x.b b b N.`.T._.n.0 M c.c.k.j.f.j.z.k.x.k.s.=.1.s.s.a.s.s.a.{.h.-.5.k.j.z.j.h.g.g.j.j.j.z.z.g.j.j.k.c.k.",
"c.z.z.z.z.z.k.k.k.k.z.k.k.k.k.k.z.z.s.=.-.s.s.a.7.a.a.s.s.c.g.%.5.k.c.k.k.k.k.x.z.z.k.z.z.a.i.i.<.E ^ > W pXlXzX~.j Q 3.j.c.k.c.k.c.z.c.a.=.-.s.s.s.a.s.s.a.s.c.j.%.5.z.z.z.z.z.z.z.z.z.z.z.z.z.k.z.z.z.",
"z.z.z.z.z.z.z.z.k.k.z.z.z.z.z.k.z.s.-.=.s.a.s.a.a.a.a.s.a.s.c.g.%.5.l.c.k.k.k.k.z.z.z.k.z.w $ + D dXzXI.  j dXkXhXzXuX2 3.c.j.k.z.k.c.s.-.-.5.s.a.7.a.s.a.a.a.s.c.k.%.5.j.c.l.z.z.z.z.z.z.z.z.z.z.z.z.z.",
"z.k.z.k.k.z.z.k.k.z.z.k.k.k.z.k.s.-.-.a.s.a.a.a.a.a.a.a.a.a.g.x.g.%.5.k.k.k.G.G.i O 7 f   :XuX7XtXdXlXuXtX,Xd uXzXhXaXyXH | G.k.k.l.a.1.5.7.s.s.a.a.a.a.s.a.a.7.s.c.s.=.5.j.z.k.k.k.k.k.z.j.z.z.k.k.k.z.",
"k.j.k.j.j.k.k.j.k.k.k.z.k.k.k.s.-.-.a.s.a.a.a.a.s.a.a.s.a.a.a.s.c.f.-.7.l.6.p z ( E.T @ ~.dXzXjXlXdXdXlXzXdXT.B.Z.1XzXzXE m {.j.l.s.-.-.5.7.a.6.a.s.a.a.a.s.a.s.s.s.c.s.-.5.j.z.j.k.k.k.j.z.z.j.k.k.j.k.",
"z.j.j.k.j.j.z.z.k.k.g.k.j.j.s.-.=.7.a.s.s.a.a.a.s.a.a.s.a.a.a.a.a.G.+.M O.G T ^ [.].V.A.zXdXdXdXdXlXdXdXdXdXzXA.: ! ,X:Xk i f.j.g.-.-.6.s.s.a.s.a.a.a.a.a.a.a.7.s.5.s.{.a.=.5.k.k.j.j.k.j.j.j.j.j.j.j.j.",
"j.j.j.j.j.j.j.g.j.j.k.j.k.s.-.=.a.s.a.a.s.a.a.a.a.a.a.s.s.a.a.a.a.1.; >   ( 5XsXzXn.m.zXdXdXjXdXdXdXjXhXhXdXaXzXY.  1 # 2 $ v j.>.-.6.a.a.a.a.s.s.a.a.s.a.s.a.a.a.a.a.a.c.g.%.5.j.j.j.j.j.j.j.j.j.k.j.j.",
"j.j.j.j.j.k.g.k.j.j.j.k.s.-.-.6.a.a.a.a.a.a.a.a.a.a.a.a.a.a.a.h.m 1 L.Y _ [.dXdXzXm.m.zXlXzXlXzXlXdXdXhXhXhXdXzXM.F dX8XgXW.J O O 1.f.5.a.a.s.a.7.a.a.a.a.a.a.s.a.a.5.a.a.c.s.%.2.j.j.j.j.g.j.j.g.j.j.j.",
"j.j.g.j.j.g.j.j.j.g.j.5.*.-.1.5.a.-.a.a.7.a.a.a.a.s.a.7.a.a.s.m y.#X&Xq ).fXdXdXzXm.A.lXM.M.B.m.I.zXzXfXhXhXhXlX,X:XzXdXlX8X-X_.E.d { s.a.5.5.a.a.a.7.7.5.a.a.a.5.a.a.s.7.s.k.s.%.5.j.j.j.j.j.j.j.j.j.j.",
"f.f.d.i.s.s.s.g.g.s.5.-.*.-.5.-.-.2.-.2.-.=.a.-.=.=.a.=.-.a.s.= t.%XOXE ,XzXdXdXzXm.W _.e e r e C -X-XtXlXhXhXhXlXlXdXdXdXlXzXlX5XC.G { ..=.-.5.5.-.2.=.5.5.5.5.a.5.5.5.5.2.s.j.s.%.2.g.f.s.f.s.f.d.f.d.",
"i.a.a.a.a.a.a.s.f.5.*.%.-.5.5.5.-.5.5.1.5.5.-.5.2.2.-.-.5.5.1.z +   o (.9XhXdXdXzXC.  r +X@X+X@X}.&   ~.hXdXhXhXdXdXhXhXhXdXdXdXhXzXT.o f ,.-.5.-.-.2.5.-.-.2.5.5.-.2.5.-.2.-.s.z.s.&.1.6.g.f.6.a.a.a.a.",
"f.a.s.g.g.s.a.f.7.*.*.5.-.5.6.5.5.-.5.5.-.5.-.5.a.5.5.-.5.2.-.@.@.n 1 7XlXdXhXdXzXB.- ! &X*X*X%X}.}.oXt.A.lXdXhXhXhXhXhXhXhXhXhXdXdXaXpXtX= +.g.-.a.a.5.5.2.5.5.-.5.-.5.2.5.a.5.a.c.5.%.5.g.g.a.s.g.g.s.",
"g.g.g.g.g.g.g.a.%.%.5.5.5.5.5.6.5.5.5.5.5.a.5.5.5.5.5.5.5.5.-.-.-.n < uXlXhXhXhXhX7XC.Y eXrX*X*X&X&X@Xt ^ zXdXhXhXhXhXhXhXhXhXhXhXhXlXlXjXE.d ' f.2.5.5.5.5.5.5.5.5.6.5.5.5.5.5.5.6.k.6.%.5.g.f.g.g.g.s.",
"g.g.f.g.s.g.a.*.*.1.5.5.5.5.6.5.5.5.5.6.5.5.5.5.5.5.5.5.5.2.1.*.@.n < 7XlXhXhXhXpXzX_.& oXoX&X*X*XwX@XL._.lXdXdXhXhXhXhXdXhXdXhXdXdXdXdXdX5XW.:.#.5.a.5.5.5.5.5.5.5.5.5.6.5.5.5.5.5.6.j.7.O.5.g.g.f.s.j.",
"g.s.g.s.g.a.%.%.-.5.5.5.5.5.5.5.5.5.2.5.5.5.5.2.2.5.5.5.5.2.>.*.#.n < tXlXdXhXhXhXlX=X  7 . }.*X&XwXwXgXlXhXlXdXdXkXkXdXhXhXdXhXdXdXlXlXkXdXzXY.. a.2.5.5.5.5.5.5.5.5.5.5.5.5.5.5.5.5.a.j.6.+.1.s.j.s.g.",
"g.g.s.g.a.*.+.i.5.5.5.5.1.5.5.5.2.5.5.5.5.5.5.5.5.5.5.5.5.2.1.-.-.n < tXlXdXdXdXjXzX_.6 r.r.} $ F jXhXdXdXjXdXdXkXkXdXkXlXlXlXlXdXdXdXdXdXdXzXI.% a.5.5.5.5.5.5.5.5.5.5.5.5.5.5.5.5.5.2.6.j.6.&.i.s.f.s.",
"s.s.s.a.*.%.=.a.5.5.5.5.5.5.5.5.5.5.5.5.5.5.5.5.5.5.5.5.5.5.2.1.1.M < tXlXdXhXzXA.^ h 6 v.v.e.0.9.M.uXfXdXdXlXlXdXfXgX&XB.^ W B.lXlXdXdXkXdXlX2X( z ,.5.2.5.5.5.5.5.2.5.5.-.5.5.5.5.5.5.1.7.j.5.+.=.s.s.",
"i.g.a.%.%.%.i.-.1.5.1.5.1.5.5.5.5.-.2.5.-.5.2.2.2.5.2.2.2.2.1.>.1.A < tXlXhXdXT.C t.A.F.0.e.r.{.r.  3XzXdXdXdXdXdXdX3Xu.T / m.T _.uXlXdXlXdXdXsX).  2.5.2.2.2.2.2.2.5.2.5.5.2.2.-.5.2.2.1.1.8.k.-.+.i.s.",
"+.%.%.+.1.1.-.1.-.1.1.5.1.1.1.1.-.-.1.1.>.2.-.-.-.-.>.-.-.-.-.-.*.M < 8XzXdX:Xd }.pXzXtX# w.r.r.q.D tXlXdXhXfXdXlX7Xu.o Q.sXfX'.  ,XzXdXhXhXdXzX6X2 @.&.-.-.-.-.-.-.-.-.2.,.1.-.1.5.-.-.1.1.*.-.k.2.+.*.",
"+.+.+.%.1.&.-.1.1.*.*.-.*.&.*.*.&.*.-.-.-.-.-.>.1.>.&.&.1.-.>.1.-.n 1 uXzX~.j dXdXdXzX7X$ e.4.  V aXlXkXdXdXhXdXlX:X# = <XjXdXuX2 ;XlXhXhXhXhXhX9X(.2 M >.&.1.-.-.1.-.-.-.-.&.-.*.*.*.&.*.-.-.*.f.2.+.+.",
"*.a.a.+.%.-.1.1.1.1.1.-.1.1.1.1.1.1.-.1.-.-.1.1.5.1.1.1.2.1.1.,.>.M > ].fXT.j hXzXqXU.:.q.[   ^ <XlXR.1XzXlXjXpXzX-X    /.sXfX[.= ,XlXdXhXhXhXhXfX8X5 M 2.1.2.1.1.2.2.1.1.1.1.1.1.1.1.1.1.-.1.1.1.%.%.5.",
"i.g.j.-.+.%.2.5.2.2.1.1.1.2.2.2.2.1.2.1.2.2.2.2.1.1.5.1.1.2.2.1.>. .g T iX_.d lX=XK.` ] v.9.  A.zXhX!.!.^.1XlXjXzX:Xt.I.) Y.~.( : 3XlXdXhXhXhXdXkXdXf m 3.1.2.2.2.2.1.2.1.1.1.1.1.5.1.2.5.1.1.-.O.%.5.j.",
"a.a.d.k.,.+.&.2.2.1.2.1.1.2.2.1.1.2.,.2.2.1.1.1.1.2.2.1.,.1.1.1.*.#.@.  =X_.W 7XH 3 8.v.r.b.] u.uXdXzX^.L _ 3XuXdXyX#XgXH     ; R 9XlXhXkXhXkXdXfXuXf b 2.1.,.2.,.2.2.1.1.2.1.2.1.2.1.1.1.1.*.+.&.6.f.6.",
"a.a.a.d.k.,.O.&.2.1.1.1.1.1.1.1.1.1.1.1.1.1.1.1.1.1.1.1.1.1.1.>.*.@.A o.  I.tXo 7XzX0Xe.v.r.r.0.k hXjXhXzXpXU K `.zXpXoXr   : R uXlXhXhXdXdXkXdXlXdXd b ,.>.1.1.1.1.1.1.2.1.1.1.1.1.1.1.1.-.O.&.6.a.6.d.",
"a.a.a.a.a.j.3.O.&.1.1.1.1.1.>.1.1.1.>.-.1.1.-.1.1.1.1.>.1.>.1.>.*.@.X.o.O ( 5X7XlXzX=X9 [ r.{.0.k dXR.! ! _ 8XiX2X4XkXyX3X<X3X8XdXkXdXdXlXdXdXlX7Xj < Z *.>.1.>.1.-.1.>.1.>.1.1.1.1.-.5.*.O.&.3.a.d.a.i.",
"i.d.i.a.a.d.f.2.O.&.-.1.>.1.1.*.>.-.1.>.>.1.>.>.1.>.>.-.1.1.>.-.#.@.X.X.i l V._.Y.=X$XI . [ q.0 5 dX`.W.!.!.^.^.[.9XkXfXlXlXzXlXdXdXlXdXlXdXdXkX7X~ > c >.*.-.>.-.1.-.>.>.-.1.>.1.-.1.*.O.%.3.6.a.a.a.a.",
"6.6.6.6.d.i.d.f.1.O.&.*.1.>.-.1.1.1.1.*.1.1.>.1.>.-.>.>.,.-.-.-.>.&.+. . .i       u.$X].C r - > M.dXlXlXzXdX! U 1XlXdXdXdXdXdXdXhXhXhXhXhXhXhXlXiX/.f m >.*.>.>.>.1.1.>.1.>.>.1.>.1.&.O.%.2.d.6.i.a.i.a.",
"d.d.6.6.a.8.6.6.f.*.O.&.-.>.&.>.*.1.*.1.>.*.&.1.-.*.>.-.*.*.*.*.-.@.&... .N A A   oXrX*X*X+Xy M.lXhXdXkXdXdXdXfXhXhXhXhXhXhXhXhXhXkXhXhXhXdXhXzX:X  A X.@.-.*.*.*.-.>.&.-.&.-.-.1.&.O.%.2.6.6.8.a.a.a.i.",
"6.3.3.6.3.3.6.6.6.f.*. .+.*.&.>.*.*.*.*.&.#.@.&.*.@.-.*.#.@.*.*.@.+.+...A Z n x # B B t.eXeX@Xu.m.dXkXdXdXdXzXkXhXdXhXhXdXhXhXhXdXdXdXkXlXlX9XZ.V c Z A @.&.&.&.@.*.+.&.&.@.@.>.&. .O.2.6.6.6.3.-.i.i.i.",
"*.1.1.,.1.1.1.2.<.3.f.>.O.+.+.+.@.&.&.&.@.&.&.#.+.+.%.@.@.%.+.&.@.@.&.O.| M b x v 8 * g K.K.K.y 4 lXzXkXzXdXI.8XkXhXhXkXhXhXdXhXlXlXlXfX4XY.) h 6 n Z | O.+.@.@.+.&.&.@.*.&.+.O.O.O.1.,.2.2.2.1.*.-.i.*.",
"2.3.3.1.1.1.2.3.5.1.<.8.,.| X.-.&.@.&.@.@.&.&.&.&.+.@.*.+.*.*.*.>.&.-.@. .M M  .o.o.o.n         D <X<X<X7X:XD 7XlXsXsXsXdXhXlXdX6X<X7X;X) +   u X.Z Z  .+.#.@.&.*.*.*.*.>.&.+.O.X.2.6.6.2.1.2.2.2.2.2.i.",
"6.6.8.2.3.2.6.6.3.2.6.d.a.>.| +.*.*.&.&.&.-.1.&.&.&.*.*.+.*.*.*.*.&.>.+.| | +.@.o.o.A Z A o.A A n o o #   j hXdXdX9X(.(.iXdXjXtX1   @ o & n Z n Z A  .+.@.*.&.&.>.*.*.*.*.&. .O.1.6.6.6.a.2.5.2.a.2.2.a.",
"3.6.3.3.6.3.6.3.6.6.6.3.a.a.#.| } &.&.&.*.*.*.*.*.*.*.*.*.*.*.*.&.>.@.| ..;.,.>.#.o.o.A o.A A A A n n S u d OX&XzX<X, h F F l D c u u c c n Z Z Z X.X.#.*.*.*.*.&.&.&.*.&. .O.1.3.6.3.a.3.i.2.i.2.a.i.2.",
"3.3.3.3.3.3.3.3.3.3.3.3.i.i.a.@.A @.*.*.#.*.#.#.*.#.#.*.*.#.*.#.@.+.O.O.1.3.<.,.;.#.#.o.o.o.o.A A  .A o.u r %XeX#Xn.8 8 7 7 7 8 S n a x n n Z A A o.+.#.#.*.#.*.#.>.*.+. .O.,.3.i.3.3.3.3.3.i.3.i.i.2.i.",
"3.3.3.3.3.3.3.3.3.2.i.i.i.2.i.d.@.| X.*.#.*.@.*.#.#.#.*.#.%.*.*.@.|  .1.i.3.3.,.,.*.#.#.#.o.@.S o.A A o.u B #X>XE # o.S o.S o.S A o.n a c A A A X.+.#.*.#.*.#.*.#.#.&.| | 1.3.3.3.3.2.3.2.3.i.i.3.3.3.3.",
"3.3.2.3.3.2.2.3.2.i.,.2.i.2.2.i.d.@.| X.*.@.*.@.#.#.*.#.#.#.#.+. . .>.3.3.3.,.3.2.,.,.,.#.#.#.#.#.o.o.A  .n X   P Y s A A Z A A o.S #.Z a Z X.+.@.#.#.#.#.*.+.#.#.&.| | >.3.3.3.3.3.3.3.i.2.,.2.3.3.3.3.",
",.2.3.3.2.3.3.3.,.2.,.i.,.i.,.2.3.i.@.Z X.#.@.@.#.#.#.+.%.#.+.Z | >.3.3.3.3.3.<.,.3.3.,.,.,.,.#.#.#.#.o.X.A A N S S A A A A o.o.S #.#.;.S n A +.@.+.#.#.+.#.#.#.+.| | >.3.3.3.3.3.,.3.3.i.,.,.,.3.1.3.,.",
"3.,.,.,.3.,.,.,.i.,.,.,.,.,.,.2.,.a.3.#.Z X.+.#.#.+.+.#.+.+.Z X.>.,.3.,.,.,.,.,.,.,.,.,.,.,.,.i.,.,.;.#.o.A A A A Z S o.#.#.#.#.#.;.;.i.i.A Z A +.#.+.+.+.#.#.+. . .;.2.,.,.,.<.3.,.,.,.,.*.i.i.,.,.,.3.",
"#.>.,.,.,.,.,.>.i.,.,.,.,.>.>.,.,.*.i.i.+.Z X.+.+.X.X.+.+.Z s A ,.>.,.,.#.*.,.>.#.#.#.#.,.,.#.#.#.,.#.#.#.A A A A o.o.o.#.o.#.#.#.#.i.#.-.i.o.Z X.+.o.X.+.+.X.A M @.2.>.,.,.;.@.-.>.#.#.#.*.,.,.#.#.*.,.",
"#.#.,.>.#.>.>.#.#.#.,.*.#.#.#.;.#.#.#.,.i.X.Z | X.X.X.| Z Z #.i.;.*.#.#.#.#.>.*.#.@.#.#.*.#.@.@.#.#.#.o.#.+.A A o.A o.#.;.i.#.#.@.o.#.#.#.i.i.X.Z A X.X.X.| Z Z @.;.;.*.*.;.;.@.;.#.#.#.#.#.;.#.#.#.#.#.",
",.*.#.@.@.#.#.@.#.#.#.#.,.*.#.;.*.#.;.,.,.i. .Z X.+.X.Z Z #.i.+.#.#.,.>.>.,.>.#.*.#.>.>.,.#.#.#.,.#.,.#.A A A A X.X.S #.#.#.i.#.#.i.*.#.*.i.,.i.X.Z | +.X.Z Z +.2.>.*.;.>.>.>.,.>.#.*.#.>.>.,.;.*.>.,.*.",
",.<.,.,.,.<.,.,.<.,.i.i.,.i.,.i.,.i.i.<.<.i.i.+.Z A Z A #.i.i.i.<.<.3.,.,.<.,.<.,.,.i.,.i.,.i.i.i.,.,.i.i.#.i.o.i.i.;.i.i.i.#.i.;.i.i.;.,.i.i.i.i.+.Z X.| | #.i.<.<.<.<.<.<.,.,.,.<.,.<.i.,.i.,.i.,.,.,.",
"+.@.+.+.+.@.+.+.+.+.+.#.+.+.+.%.i.s i.o.i.Z i.X.s p a { %.+.%.+.i.o.Z i.i.A Z i.+.+.+.+.+.+.+.+.X.+.+.+.+.+.+.+.+.+.+.+.+.+.+.#.+.+.+.+.+.+.+.+.i.#.s p s | $.+.%.+.+.+.+.+.+.+.%.#.+.+.+.+.+.+.+.@.X.+.",
"D.D.D.D.D.D.D.D.D.D.D.D.D.D.D.D.J.p.p.z.D.z.D.D.S.p.p.D.D.D.D.D.p.D.z.D.p.D.z.D.D.D.D.D.D.D.D.D.D.D.D.D.D.D.D.D.D.D.D.D.D.D.D.S.D.D.D.D.D.D.D.D.z.D.S.p.p.D.D.D.D.D.D.D.D.D.D.D.S.D.D.D.D.D.D.D.S.S.D.D."
};
