/* XPM */
static char *result[] = {
/* columns rows colors chars-per-pixel */
"50 100 225 2 ",
"   c #000000",
".  c #070008",
"X  c #150000",
"o  c #1B0100",
"O  c #140900",
"+  c #230000",
"@  c #2A0400",
"#  c #310000",
"$  c #360504",
"%  c #351501",
"&  c #372500",
"*  c #1F052A",
"=  c #320A2D",
"-  c #06242F",
";  c #322937",
":  c #451A00",
">  c #581F00",
",  c #4A2401",
"<  c #5A3C01",
"1  c #44261D",
"2  c #4B2D1A",
"3  c #43022B",
"4  c #442720",
"5  c #472B28",
"6  c #47283B",
"7  c #463737",
"8  c #543D35",
"9  c #5B4413",
"0  c #0C0050",
"q  c #312B43",
"w  c #561E4D",
"e  c #44374C",
"r  c #643C5A",
"t  c #254162",
"y  c #344B69",
"u  c #514952",
"i  c #64534C",
"p  c #7A5549",
"a  c #645958",
"s  c #6F6159",
"d  c #444E66",
"f  c #4C4B65",
"g  c #43536A",
"h  c #4B536C",
"j  c #58596D",
"k  c #4B5C77",
"l  c #715371",
"z  c #44627D",
"x  c #4E617D",
"c  c #52637E",
"v  c #5A667C",
"b  c #776367",
"n  c #7C756C",
"m  c #736978",
"M  c #9A0D00",
"N  c #A93D00",
"B  c #8F421A",
"V  c #90442C",
"C  c #A04C2F",
"Z  c #A34F36",
"A  c #8D5049",
"S  c #8C5560",
"D  c #876D75",
"F  c #958670",
"G  c #B1936F",
"H  c #BBA179",
"J  c #08078A",
"K  c #425E86",
"L  c #54508E",
"P  c #466387",
"I  c #4D6383",
"U  c #4C6689",
"Y  c #536583",
"T  c #596783",
"R  c #556986",
"E  c #5B6A85",
"W  c #526689",
"Q  c #556A8B",
"!  c #5A6D8D",
"~  c #5D718E",
"^  c #556D91",
"/  c #5A6E91",
"(  c #576F98",
")  c #5D7294",
"_  c #5E759A",
"`  c #5D769C",
"'  c #6C7183",
"]  c #61728D",
"[  c #617695",
"{  c #6A7690",
"}  c #657996",
"|  c #697C96",
" . c #617699",
".. c #64799C",
"X. c #697D9C",
"o. c #5657AF",
"O. c #5E71A6",
"+. c #5B62BC",
"@. c #657DA1",
"#. c #617BA4",
"$. c #697EA2",
"%. c #7669B3",
"&. c #5460C8",
"*. c #676BC6",
"=. c #6A76D9",
"-. c #6C7CE7",
";. c #737DE4",
":. c #697CF7",
">. c #895C8C",
",. c #866683",
"<. c #8F738C",
"1. c #A07A9F",
"2. c #A578AC",
"3. c #CA7E96",
"4. c #6C809E",
"5. c #79889F",
"6. c #6680A7",
"7. c #6B81A5",
"8. c #6681A9",
"9. c #6C84AA",
"0. c #6E88AF",
"q. c #7184A5",
"w. c #7186AA",
"e. c #7289AD",
"r. c #7B8DAA",
"t. c #6E89B2",
"y. c #758DB2",
"u. c #788FB4",
"i. c #748FB9",
"p. c #7991B6",
"a. c #7691B9",
"s. c #7C94BB",
"d. c #7C98C3",
"f. c #7883ED",
"g. c #7186FD",
"h. c #8B8889",
"j. c #99938E",
"k. c #9A9795",
"l. c #A49499",
"z. c #A8A29A",
"x. c #858DA8",
"c. c #8491A6",
"v. c #8894A7",
"b. c #8693AA",
"n. c #8A96AC",
"m. c #8E99AD",
"M. c #939CAD",
"N. c #8997B0",
"B. c #8B9AB4",
"V. c #8197BC",
"C. c #8499BD",
"Z. c #8B9DBC",
"A. c #939DB2",
"S. c #AB8BAC",
"D. c #95A0B4",
"F. c #95A2BB",
"G. c #99A5BC",
"H. c #ABA7A3",
"J. c #AEAAA5",
"K. c #B1ACA8",
"L. c #B7B3AD",
"P. c #ABAEBB",
"I. c #B9B8B4",
"U. c #C88C97",
"Y. c #CBAE88",
"T. c #D7BB8C",
"R. c #CA95AC",
"E. c #C6B0AD",
"W. c #C1BCB5",
"Q. c #DBC195",
"!. c #DFCAAF",
"~. c #CDC5B6",
"^. c #C5C2BC",
"/. c #E9D7B9",
"(. c #F1DDBC",
"). c #819AC3",
"_. c #8A9EC1",
"`. c #958AD4",
"'. c #BB8EC1",
"]. c #8DA1C3",
"[. c #95A5C3",
"{. c #9DABC3",
"}. c #9EAECB",
"|. c #A8AAC5",
" X c #A1AFC9",
".X c #A7B4CB",
"XX c #B6BBC5",
"oX c #B6BCC6",
"OX c #B8BDC6",
"+X c #9088E7",
"@X c #A8ADF1",
"#X c #C49CCA",
"$X c #CA9ED0",
"%X c #C8A4CC",
"&X c #D4ABD7",
"*X c #E3AED9",
"=X c #DDB4E6",
"-X c #E5B8EC",
";X c #CAC8C6",
":X c #D4D1CB",
">X c #D8D6CF",
",X c #DAD4D7",
"<X c #DDDBD5",
"1X c #EADDC8",
"2X c #E1DED8",
"3X c #ECE0CA",
"4X c #F6E6C8",
"5X c #E4E3DC",
"6X c #EBE2DA",
"7X c #F3EAD7",
"8X c #F4EBD9",
"9X c #EBDEE7",
"0X c #EDC3F6",
"qX c #F4C8FB",
"wX c #E8E6E2",
"eX c #EBEBE5",
"rX c #EEEDE9",
"tX c #F1EEEB",
"yX c #F6F6EF",
"uX c #F8F5E9",
"iX c #F6F7F0",
"pX c #F8F7F0",
"aX c #F7F8F2",
"sX c #FBFBF4",
"dX c #FFFFFB",
/* pixels */
"}.V.Z.C.C._._._._._._._._._._._._._._._._._._.p.r.V.C.C._.).C.V.Z.]._._._._._._.Z.].].].C.Z.].Z.s..X",
"[.i.s.s.s.a.s.s.s.s.s.s.a.s.a.a.s.a.s.s.i.s.a.` ` 0.s.s.s.s.s.s.s.s.a.s.s.s.s.a.s.s.s.s.s.a.s.s.i.}.",
"[.i.s.s.s.V.s.s.s.s.s.s.V.s.).s.s.V.s.s.s.a.$.#.#...e.s.s.s.s.V.s.V.s.s.s.V.d.V.s.s.s.s.s.s.s.C.i.}.",
"[.a.V.s.s.s.s.a.s.s.V.s.u.s.s.s.s.s.s.s.a.@.` s.e.#.#.9.y.y.s.a.u.s.s.s.y.u.s.s.s.s.s.s.s.s.s.C.a.}.",
"F.0.y.y.y.y.y.y.t.e.y.s.s.s.u.y.u.y.u.e.$. .a.a.e.$.#.#.9.t.y.e.e.u.y.u.t.y.y.y.y.y.y.y.y.y.y.y.8.{.",
"Z.#.e.9.0.e.y.y.9.w.w.y.y.y.y.y.e.y.e.#.` y.C.9.$.w.$.#.` 9.y.y.y.y.y.t.w.y.y.y.e.0.9.0.y.e.q.w.8.G.",
"[.t.a.y.e.e.a.u.y.y.e.e.e.e.y.s.y.y.#.` y.).@.9.9.0.$.$.#. .e.a.p.p.p.y.t.u.u.p.p.y.e.u.s.u.y.u.t.}.",
"[.y.p.p.u.u.u.u.u.u.s.u.a.u.s.u.a.@.) y.).$.9.8.$.$.0.$.$.#.` $.s.p.p.p.p.p.a.u.p.p.a.p.p.p.p.p.t.}.",
"F.y.p.u.p.p.p.p.s.y.u.u.s.u.a.u.@.^ i.p.9.9.8.9.0.#.$.0.9.$.` ` $.s.y.y.i.u.a.u.u.p.p.u.u.u.u.p.0.{.",
"F.e.p.u.u.y.u.y.u.y.u.a.y.u.y.$.( y.s.9.7.7.$.9.$.$.9.#.$.9.$.` O.w.y.u.u.u.u.u.u.u.y.u.u.u.u.p.0.{.",
"F.t.u.y.u.y.p.p.y.y.u.y.u.e.@.( 0.u.0.$.9.9.9.8.9.#.9.$.9.#.9.@. . .w.y.u.u.u.y.u.u.u.u.u.u.y.p.0.{.",
"F.t.u.y.u.e.e.u.u.y.y.u.y.@._ 9.d.9.$.0.9.$.$.9.9.9.$.9.9.9.9.9.@.O._ w.y.y.y.y.e.y.y.y.y.y.y.u.0.{.",
"Z.t.y.t.y.y.y.p.y.y.y.y.#._ 9.s.$.$.0.$.$.9.9.9.9.9.9.9.9.9.$.8.9.$.` _ e.y.y.y.y.y.y.y.y.y.y.y.8.{.",
"F.0.y.y.y.e.e.e.y.e.y.#./ 9.s.$.$.9.$.9.9.9.7.$.$.9.9.$.7.9.9.$.9.$.$. ._ 9.y.y.u.e.e.y.y.e.y.y.0.{.",
"Z.9.y.y.e.y.y.y.e.y.@./ e.u.9.7.9.$.9.$.$.9.$.9.9.@.#.9.$.$.$.$.#.@...#.) _ 7.y.e.y.e.y.e.e.y.y.8.{.",
"B.6.w.w.9.w.9.9.w.@.^ 9.y.$.@.$.$.@.@.$.$.#.@.@.@. . .@...#. ... .#. ... .( _ $.w.w.w.w.w.7.7.w.6.F.",
"B.` 7.7.7.9.w.7.#./ $.u.9...@. .#.#. .#..... .#.@.#. . .@. .@.#...#.@.@...` ) ( $.9.9.$.$.9.$.$.` F.",
"Z.9.e.9.7.0.0.4./ $.s.$.$.$.@.#.......#.@.$.....$.$.@.@.$.#.$.@.....@.6.....` ) _ 9.9.7.0.e.y.w.#.F.",
"B.9.e.e.9.0.` ^ #.u.$.$.$.$.$.$.$.$.#.$.@.$.@.$.$.$.$.$.$.#.$.$.@.$.7.@.@.7.7.../ / 9.y.e.e.e.e.8.{.",
"Z.6.e.0.e.4.^ 7.y.$.$.$.$.@.$.@.$.$.$.$.7.@.$.@.$.#.@.$.$.$.$.$.@.$.@.$.@.@.$.@.#.) ) 7.e.9.w.e.6.G.",
"B.6.e.0.` Q 7.e.$.$.$.@.@.@.$...@.X.@.$.@.@.@.@.@.$...X...@.$...@.$.@.X.@.X.@.@.@. .) ) $.e.w.e.6.F.",
"B.8.w...^ 7.e.9.@.@.@.@...@.@.@.@.@.@.@.@.@.@.@.$...@.#.$.@.$.@.@.@.@.@.@.@.@.@.@.@...^ _ $.e.w.8.F.",
"Z.8.4.Q ` e.9.` @.@.@.@.$.@.@.@.@.@.@.@.@.@.$.@.@.@.@.$.@.#...$.@.@.@.@.@.@.@.@.@.@.@.` ( ) $.y.6.F.",
"B.` ) _ p.4.` 4.......@.....@.@.....@.....@.....$...#...X...#.@.....@.....@...@......... ./ ) $.#.B.",
"r.U [ u..._  . ._  ... ._  .#... . .[ _ )  .)  . . . . .@. .....` [ ....[  ..... . ._ )  . ./ ) P m.",
"r.P [ q._ ) _ _ ) ) _ _ ) ) )  ._ .... . ...( )  . . .) )  .) ) _ ) ( _ ( [  .) )  .@.) ) _ Q / K n.",
"N.^ /  . . . . . . . . . . . . . ..... . .#. . . ... . . . . . . . . . . . . . . .@.#... .Q / w.` B.",
"Z.#._ Q _  .@. .....................#....... ...#.....#...#.........@...@. ... . ..... ./ / $.y.6.D.",
"B.#.$. .! )  . .O.{ @. ................. ......................... . ....... .........^ ! X.u.q.` G.",
"B.#.w.$.) Q ) #..... . . . . . . . .......[ .... . .[ .... .[ ........ . ... ..... .Q Q 6.r.4.q.` G.",
"B...$.$.$.) W ) ..O.{  . . . . . ...[  .[  ... .[ ..[  .[  ... .[ [  .[ [  . ... ./ R 9.e.7.7.7.#.D.",
"B...q.$.$.$./ Q / .. . .{ _  . . .[ [  .[  .[ [  .[ [  .[ [ [ [ [  . .[  .[  .[ ! W 7.w.9.7.7.w.` G.",
"A.@.r.$.$.q.$./ W /  .[ [ [ [  . . .[ .. . .[  . . . .[  . .[ [  .[ [ [  . .) ! W $.w.q.$.q.q.q...G.",
"B.$.$.$.q.$.$.$./ Q / ` [ `  .[ [ ) [  .( [ [ [ ( [ [ [ ) [  ... . ... .[ ) ^ W ..e.$.$.q.$.$.$...A.",
"N. .$.X.$.$.$.$...Q W / ) ! T R Y T / / ! / [ ) ! [ ( ! / ) / ! ! ! ! E ) Q W  .w.X.$.X.$.$.X.$._ A.",
"x.^  . . ......... .Q /  .e o + + o e  .! ! ^ / ! ! ! ! Q ..h X + + o ;  .] ..q...X...` [ .. ...^ A.",
"N.) @...X.....X.$.q./     K.wX<X<X5XL.  [ / / ! ! / / ) ..  j.wX<X<X5X;X    T q._ X.X..._ _ _ 4._ A.",
"B.#.$.$.$.$.X.X.q.I m L.H.5XdXaXsXdXeXJ.j R ..[ ( [  .] h H.<XdXsXaXsXeXK.L.<.y 7.4.7.X...4.4.4.O.A.",
"B...$.$.7.X.7.X.| j z.dXsXaXyXiXyX5X5X5X2 h ! T E T E T o :X5X5XyXyXyXiXsXdXI.a } 4.4.4.4.4.4.4._ F.",
"n...X.X.X.X.X.4.  W.sXyXuXtXyXsXsXk.  + # # # # # # # # $ o   b aXaXiXtXyXyXsX<X  ) 4...4.4.4.4.) A.",
"n. .X.X.X.4.] e :XuXiXiXsXdX,X8 u W.eX5X5X5X5X5X5X5X5X5X5X5XwX:Xa 5 ^.dXdXiXyXyX<Xa c 7.4.4.~ 4.` A.",
"n.[ X.X.X.4.E # eXsXiXpXI.H.H.I.J.6XsXaXsXaXsXsXaXaXsXsXsXaXsXtXK.L.J.J.K.rXaXiXiXi h 7.4.4.4.4.) D.",
"n.) X.....X.E $ 5XsXtX,Xl 3 K.dXsXaXyXyXyXyXyXuXyXyXyXyXyXyXyXyXdXdX^.6 w ;XeXaXtXi h X.4.] ~ 4.) A.",
"n.) X...| | v $ 5XsX:X  S.9XsXyXuXyXyXyXyXyXyXyXyXyXyXpXyXyXyXyXyXuXaXyX$X$ I.sXtXi h 4.~ 4.4.4.) D.",
"v.^ [ ~ { } k # yXW.l '.wXyXaXyXpXyXyXpXyXiXyXyXyXyXyXyXyXyXyXyXyXyXyXyXeXeXz.j.sXi d 4.] } 4.4.U M.",
"c.R ~ ~ ~ ) k # z.a a 9XyXpXyXyXyXyXyXyXyXyXyXyXyXiXpXyXpXyXpXyXyXyXyXyXiXdXz.X K.2 d ~ ~ ~ ~ 4.U M.",
"c./ | ) [ [ v 7   : z.sXyXyXyXyXyXyXyXyXyXyXiXyXyXyXyXyXyXyXiXyXyXyXyXiXyXsXW.<   ; j ~ ~ ~ ~ ~ Q M.",
"c.) | [ { ] ! E ; H 4XyXyXyXpXyXyXyXaXyXyXyXpXyXyXpXyXyXiXyXpXyXyXyXyXyXyXiX4XT.= v E ~ } ] ~ 4.^ M.",
"c.! 4.4.7 % % @ Y.3XyXyXyXyXyXyXyXyXyXyXiXyXpXyXyXyXyXyXiXyXyXyXpXyXyXyXyXyXpX:X  X % % & } | } ^ M.",
"n._ ~ u o.+.%.1.1XuXaXyXyXyXyXyXpXyXpXyXyXyXyXyXyXiXpXyXiXiXyXyXyXyXpXpXyXyXsX6XG 1.2.+.+.f E X./ D.",
"[.s.w.@ -.:.+X$XtXaXyXyXyXaXyXyXyXyXyXyXyXyXyXyXyXyXyXyXyXpXyXyXyXyXyXyXyXyXaXuX3X&X+X:.f.= { ).i. X",
"[.a.r.% =.-.+X#XrXaXyXyXyXyXyXyXyXiXyXpXyXpXiXyXyXyXaXyXyXpXyXpXyXpXyXyXyXyXyXyXaX%X`.-.;.6 { Z.t. X",
"}.U     ;.g.@XtXyXyXyXyXyXyXyXyXyXiXyXyXpXpXiXiXsXaXiXiXtXyXyXyXyXyXyXpXyXpXyXyXyXuX@Xg.f.0 . f d.}.",
"' h.~.H L J n.sXyXyXpXyXpXyXyXyXyXyXyXyXiXtXsXpXj.5XdXtXyXyXpXyXpXyXyXyXaXyXyXyXyXsXP.J L G ~.H.0  X",
"j.;XdX3XG < n uXyXyXyXyXaXyXpXyXyXpXiXpXyXaXeXW.D L.9XpXyXyXyXyXyXyXpXyXyXyXyXyXyXsXl.# F /.sX5Xn B.",
"tXsXuXrX(.F m sXyXyXpXyXyXyXyXyXyXyXyXyXiXpXI.3 qXl j.pXyXyXyXyXpXyXyXyXyXyXyXyXyXsXz.p /.eXuXsXrXF ",
"wXdXeX7 < X D dXyXyXyXyXyXyXyXyXyXyXyXyXsXk.l $X-X&X<.n yXiXyXyXyXyXyXyXyXpXyXyXpXsXz.  9 # >XdX<Xh.",
"yX>Xn # +.&.i..XrXaXyXyXpXyXyXyXiXyXyXyXsXn >.-X0X0X2.& yXiXyXiXyXyXyXpXyXyXyXyXsX4X|.&.*.= s ~.tXh.",
";Xj.. , =.g.=.q eXaXyXyXpXyXpXyXyXyXyXyXsXI.K.-X=X-X$Xz.yXiXyXyXyXyXyXyXyXyXyXaXyXH `.g.-.e . ' W.h.",
"u y | % *.f.*.: <XpXyXyXyXyXyXyXyXiXyXyXyXsX9X#X%X'.,XsXyXyXyXyXpXyXyXyXyXyXyXyX6X8 o.f.=.6 T T   n.",
"x.] ] ] q V C   M /.dXsXyXyXyXyXyXyXyXiXiXiXiXiXiXiXtXyXiXiXiXiXiXpXpXpXyXsXdX6XN X B Z * v ] ] _ m.",
"x.] ] ] T 8 S &X*XR.G U.pXsXyXaXiXiXiXiXiXiXiXsXaXaXaXaXaXaXiXiXiXpXpXsXsXY.G U.*X=X<.> v ] ] } _ m.",
"b. .| [ { k m %X#XR.3.3.W.,XwX8XpXsXuX8X6X7X8X8X8X8X7X7X8X7XuXpXpX8X2X,X^.U.3.U.%X%X<.y | ] [ | [ B.",
"N.X.X.} [ [ c   . S.qX-Xr >.E.Q.wXrX1XT.Q.T.Q.Q.T.Q.Q.T.T.T./.eXwX!.E.2.3 -XqX$X    y | ) | 4.7...D.",
"B.@.7.4...{ ~ ] { q D -XqXS.  7 1 2 4 1 1 1 1 1 1 1 1 1 1 1 4 4 4 5 O m -XqXS.X ] ] ] ] } 4.7.7.6.D.",
"B.` 4.7.} [ ~ ~ ] y j D ,.A V y h d d g g d d d g d d d d d d d d y A C ,.,.l g E ! ~ ~ ) _ 4.6.` D.",
"B.` 9.7.X.....~ z x v ; - A S z c x x c c c x x c c x c c x c x x z b A - - d k c ~ [ [ 4.4.7.7.` F.",
"Z.8.e.9.7.7.X.R x ~ [ ! E W K I c x c c c c c c Y Y c c R x Y Y x c I P Q E c k x ~ X.7.7.w.e.e.6.F.",
"Z.6.e.e.w.7.) W [ X.Q Y Y Y T T R E R ! R Q R ! ! R ! R E ! E ! E W E E Y T ! E R W ..9.w.w.e.e.8.G.",
"A.6.e.w.w. .! 7.q.) ~ ! T T ! ! ~ ~ ~ ~ ~ ~ ~ ~ ~ ~ ~ ~ ~ ~ ~ ~ / ! R R R ! ! / _ ^ ! 6.w.w.w.e.6.{.",
"Z.6.w.w._ Q 7.e... .[ / ( [ ) [ _  . .`  . . .` _ _ _ ) } _ _ _  .[ [ ! / ] [  .X. .) ( ..0.9.e.6.F.",
"B.6.9.` ^ 9.w.7.@... .[ [ [  . . ...X.......X...` 4.4.` ........ . . ._  . ..... .@...) ) @.e.w.8.G.",
"Z.6._ ^ $.e.$. .@.@.@. .@...@...@.@.@.@.X.#.@.@.4.4.@.@...@.@.@...@.......@.@...@.@.$...( / $.e.8.F.",
"B.) ) @.e.@.@.@. .....@. .@.@....... ... ........._ ..X.@.........#.@............... ...[ ( / $.` B.",
"r.P  .u. .)  .O._ _  . .)  ...#._ [  . .` _ ) ) _ _ _ [ ..[ .._ )  . . .)  .@.#.)  . .( .. .^ / K n.",
"x.P _ 7. .) [ ) ) ) _ ) ) ) ) ) ) .... . . .` ) _ ..[ _ ) _ _ ` _ ) ) ) ) ) ) )  ..... .[ ) ^ ] P n.",
"B./ ^ ( .... . . . . . . .#. ....... .@....._ ......X. . . ..... ..... ..... ... . . ... .Q ^ y.` A.",
"B.#...Q ) ..@. . .@.@. . ... .................X....... ..................... .....#.@. .! ) q.e.6.F.",
"B.#.q...Q /  .@...O.{ #...#. ....... ..... ....... ..... ................. . ... . . .W ( q.e.q.` G.",
"B.#.q.$.) Q /  . ...@.{ ..{  . . . . ..... . . . . . ... . . . .[ ..[ .... . . .#. .! / q.e.X.q.#.F.",
"N...$.$.$. .W !  ... .[  . .[ [  . . . . .[  . . . .[  ... . . . . .[  . . . . .) / / 0.e.$.7.q.6.F.",
"B.@.r.$.$.$._ ! ^  . ._ [ [  .)  .[  .[  .[  .[  .[ [ ..[ [ [ [  .[  .[ [ [  .) Q Q w.$.7.9.7.9.6.F.",
"A.#.r.$.$.$.$. .W ^  .[ _ [ _ _ _ [ [ [  . .[  .[ [  .[  .[  .[ ..[ [ [  .[ ] W / $.w.$.8.9.$.$.4.n.",
"m.#.w.$.w.$.$.$.) W ! ) [ _ ) ) ) ~ _ _ ) ) ) [ ( [ [ / ] [ (  .[  .[ ( ( [ Q Q $.r.$.$.1.$.$.$.6.D.",
"b. .$. ...$.X.$...! W ^ ) ! ^ ~ Q ! ] ^ / / / [ ! / ) ! ^ ( [ ) ] ( ] / ) W ! 4.w.$.$...X.$.@.$.U F.",
"x.^  . .[ ......X.../ W Q ! ) ) ) ) ^ ! / / / / / / ! / / ! / ~ ! ^ / / Q Q 4.q.{ X... . .{ { X.U A.",
"B. .$.$.$.....X.$.$.$.! R Q ~ _ ) ) [ [ ] / ) ! / / ) ) ) / / ! ! [ / R U 7.9._ @.$.$... . ...$.` A.",
"N. .$.$.$.$.$.X.$.$.$.X.^ I ~ ) ) [ / [ ( ) [ ) / ) [ ) ) ) ] / ) ) W I 7.7...4.@.$.$.$.$.@.$.$.4.F.",
"N. .$.$.$.$.$.X.4.4.4.` 4.U I Q ) ) ~ ) ~ ) ) ) ) ) ( [ ] [ ] ( ~ U R 4.4.4.4.4.4.4.4.6.4.4.4.4.( A.",
"N. .X.$.X.X.X.X.4.4.4.4.4.4.~ x ! ~ ) ) ) ) ~ ) ] ) ] ) ( ] [ ! z z 4.4.4.4._ 4.) 4.4.) 4.4.4.4.) D.",
"n. .X.X.X.X.X.X.4.) ) 4.4.4._ I I ! ~ ~ ~ ~ ) ~ ) / ] ] ) ) ! R z 4.4.4.4.4.4.4.4.4.4.4.~ 4.4.4.` D.",
"n. .X.X.X.X.X.X.4.4.4.4.) 4.4.4.R x ! ~ ~ ) ~ ~ / ] ) / ~ ! W Y 4.4.4.4.4.` _ 4.) 4.4.4.) 4.~ 4.( A.",
"b.) 4.4.X...| X.4.~ 4.4.4.4.4.~ 4.R x R ~ ~ ~ ~ ~ ~ ^ ~ ! Y x [ 4.4.4.4.4.~ ~ 4.4.4.4.4.4.4.~ 4.~ A.",
"n.~ } 4.X.| [ { 4.4.~ 4.~ ~ 4.4.} _ R x R ~ ! ! E ~ ~ ! Y x ..4.4.4.4.R 4.4.4.4.4.~ 4.~ ~ 4.4.4.) D.",
"c.U ~ ~ [ [ ) ~ ~ ~ ~ ~ ~ ~ ~ 4.~ 4.~ R z R R R Y R E Y x } X.} 4.R ~ 4.R 4.4.~ 4.4.^ 4.~ 4.4.4.U m.",
"c.Q ] ~ ] [ [ ~ ~ ~ ~ 4.~ ~ ~ 4.~ ~ ) ) R x I R Q R x x _ 4.| ~ R 4.~ z 4.R 4.~ R ~ Q ~ 4.~ R 4.U m.",
"c.) 4.) 4.~ 4.4.~ ~ ~ 4.~ ~ ~ 4.~ ~ 4.4.~ c P Y R x x ~ 4.} } ~ ~ ~ 4.~ ~ 4.~ ~ 4.~ ~ ~ ~ v ~ 4.^ A.",
"n.~ 4.4.4.4.4.~ 4.4.4.4.4.4.4.4.4.4.4.] 4.4.R U Y R } q.4.4.4.4.4.4.4.4.4.4.4.4.4.4.4.4.4.4.4.4.~ A.",
"5.z c U U U U U z U U U U U z z U U U U z P P y t K ^ U U U U P U I z c U U U U z U U U U U z z z r.",
"OXOXOXOXOXOXOXOXXXXXOXOXOXOXoX^.OXOXOXOXXXXXOXI..XOXOXOXOXOXOXOXOXOXOXOXOXOXOXOXI.OXOXOXOXOXOXOXoX;X"
};
