/* XPM */
static char *result[] = {
/* columns rows colors chars-per-pixel */
"50 100 235 2 ",
"   c #000000",
".  c #0B0000",
"X  c #00000B",
"o  c #170000",
"O  c #1B0000",
"+  c #080A1C",
"@  c #230000",
"#  c #2C0203",
"$  c #330000",
"%  c #3B0300",
"&  c #2C0D16",
"*  c #332518",
"=  c #05072E",
"-  c #3A083C",
";  c #2E2833",
":  c #4C0407",
">  c #6A0000",
",  c #4B320C",
"<  c #62211E",
"1  c #450031",
"2  c #4A342B",
"3  c #543C2D",
"4  c #4D2F33",
"5  c #47373D",
"6  c #56443E",
"7  c #6F5533",
"8  c #0B1C56",
"9  c #2E344A",
"0  c #363A49",
"q  c #281867",
"w  c #352F75",
"e  c #4A3A47",
"r  c #693C4C",
"t  c #4E2E62",
"y  c #3C4758",
"u  c #3C4865",
"i  c #304E73",
"p  c #5A4848",
"a  c #4C4954",
"s  c #47495A",
"d  c #564B59",
"f  c #585358",
"g  c #6A5648",
"h  c #6A4656",
"j  c #695C56",
"k  c #6F6651",
"l  c #756A5A",
"z  c #434E65",
"x  c #584B67",
"c  c #4A546C",
"v  c #48566C",
"b  c #585968",
"n  c #494A75",
"m  c #475774",
"M  c #4D5B74",
"N  c #4C5F7A",
"B  c #545C73",
"V  c #525E7B",
"C  c #72506D",
"Z  c #4E617C",
"A  c #52637D",
"S  c #5A647C",
"D  c #776A6A",
"F  c #7D736D",
"G  c #706A71",
"H  c #756978",
"J  c #881600",
"K  c #9C1C19",
"L  c #8D3904",
"P  c #AA2F00",
"I  c #974319",
"U  c #AF4800",
"Y  c #B7571F",
"T  c #AA5426",
"R  c #B3573C",
"E  c #B76031",
"W  c #905C5E",
"Q  c #8D7451",
"!  c #B26D53",
"~  c #B77459",
"^  c #89746F",
"/  c #846679",
"(  c #BB7D67",
")  c #89846A",
"_  c #8A847E",
"`  c #968A79",
"'  c #A58C69",
"]  c #AB916A",
"[  c #AE946B",
"{  c #AF8F79",
"}  c #C99171",
"|  c #CBA678",
" . c #333290",
".. c #4C5491",
"X. c #6D5391",
"o. c #4E6383",
"O. c #4A6489",
"+. c #536683",
"@. c #556886",
"#. c #5B6984",
"$. c #526789",
"%. c #556B8C",
"&. c #596D8D",
"*. c #5C718E",
"=. c #566D91",
"-. c #596E91",
";. c #5D7293",
":. c #5E759A",
">. c #62728E",
",. c #747483",
"<. c #696D92",
"1. c #617695",
"2. c #647996",
"3. c #687B97",
"4. c #617699",
"5. c #647A9C",
"6. c #697D9C",
"7. c #4A4EAA",
"8. c #5758AA",
"9. c #625CA6",
"0. c #5E78A0",
"q. c #6565A7",
"w. c #657DA1",
"e. c #6A7FA1",
"r. c #6974D8",
"t. c #6A79E3",
"y. c #885C87",
"u. c #8A6789",
"i. c #906F8B",
"p. c #926993",
"a. c #A677AF",
"s. c #9778C0",
"d. c #6B819F",
"f. c #6B81A5",
"g. c #6883AA",
"h. c #6D85AA",
"j. c #7084A5",
"k. c #7187AA",
"l. c #7289AE",
"z. c #798DAF",
"x. c #6F89B1",
"c. c #758DB2",
"v. c #788FB4",
"b. c #738FB9",
"n. c #7790B6",
"m. c #7891B6",
"M. c #7490B9",
"N. c #7B94BB",
"B. c #7481ED",
"V. c #7684F2",
"C. c #7888FA",
"Z. c #8A8481",
"A. c #918C85",
"S. c #989193",
"D. c #A8978F",
"F. c #A9A39B",
"G. c #B1A596",
"H. c #8793A7",
"J. c #8B95A8",
"K. c #8A96AB",
"L. c #8C99AD",
"P. c #8D9AB2",
"I. c #8197BB",
"U. c #8399BE",
"Y. c #919DB5",
"T. c #919FB9",
"R. c #A786A6",
"E. c #AD85B1",
"W. c #B48AB9",
"Q. c #B793B9",
"!. c #99A2B1",
"~. c #94A3BD",
"^. c #B0ABAE",
"/. c #B6B3AB",
"(. c #BDBAB5",
"). c #C48E90",
"_. c #C8B38F",
"`. c #D8B78C",
"'. c #D3BA92",
"]. c #C68BA6",
"[. c #D6B6AA",
"{. c #C8B8B5",
"}. c #DAC19B",
"|. c #DCC7AD",
" X c #C5C3BC",
".X c #E7D3AF",
"XX c #F4DEB9",
"oX c #F4E0BF",
"OX c #849BC1",
"+X c #899FC4",
"@X c #9181DB",
"#X c #B68FCA",
"$X c #98A8C3",
"%X c #99AAC5",
"&X c #C39BC9",
"*X c #CA9ED2",
"=X c #C8A4CB",
"-X c #CEA5D5",
";X c #D1A7D7",
":X c #D5ABDC",
">X c #D7B5D9",
",X c #E7B4DC",
"<X c #DDAEE5",
"1X c #DEBAE3",
"2X c #E2B7E6",
"3X c #E6BCEC",
"4X c #EABEEE",
"5X c #EBBFF3",
"6X c #CCCBC5",
"7X c #D5CEC7",
"8X c #D4D2CD",
"9X c #DDDCD6",
"0X c #DEDEDA",
"qX c #E0CCC2",
"wX c #E5D3C8",
"eX c #DEE0DA",
"rX c #F8E8CB",
"tX c #E3E2DC",
"yX c #ECE3D8",
"uX c #F7EDD9",
"iX c #DEC2E0",
"pX c #E3C1E7",
"aX c #E6D7E4",
"sX c #EDC2F3",
"dX c #F2C7F7",
"fX c #EAE4E5",
"gX c #ECEBE4",
"hX c #EEEFE9",
"jX c #F0EDE6",
"kX c #F9F5E7",
"lX c #F6F6EF",
"zX c #F6F7F0",
"xX c #F7F8F2",
"cX c #FAFBF3",
"vX c #FEFFFA",
/* pixels */
"I.I.I.I.I.U.U.OXOXOXOXU.I.OXI.OXOXOXI.OXOXI.N.l.l.I.OXN.I.I.N.N.OX+XU.OXU.I.OXOXI.OXOXI.OXI.OXI.N.%X",
"N.N.N.N.N.M.N.N.N.N.N.N.N.N.N.N.N.N.N.N.N.N.b.0.:.h.N.N.N.N.N.N.N.N.N.N.N.N.N.N.N.N.N.N.N.N.N.N.b.%X",
"N.N.N.N.N.N.N.N.N.N.N.N.N.N.N.N.N.N.N.N.N.N.w.w.q.w.h.N.N.N.N.N.N.N.N.N.OXN.N.N.N.N.N.N.N.N.N.N.M.%X",
"N.N.N.N.N.N.N.N.N.N.N.N.N.N.N.N.N.N.N.N.c.w.0.N.x.w.w.e.v.c.b.c.b.N.N.N.c.n.N.N.N.N.N.N.N.N.N.OXM.%X",
"x.l.c.c.c.c.c.c.l.l.c.M.N.N.v.c.v.c.v.x.w.w.N.N.x.g.w.:.g.c.c.c.x.v.v.v.x.c.c.c.v.c.x.v.c.c.l.c.x.$X",
"h.x.h.g.h.x.c.l.h.h.x.c.c.c.c.c.x.c.h.w.w.b.N.w.f.h.g.:.4.g.c.c.c.c.l.x.k.c.x.c.c.g.g.l.c.c.h.k.g.T.",
"c.N.v.c.c.x.n.c.c.c.x.c.c.c.c.v.b.x.w.w.b.N.e.x.h.g.f.f.5.:.x.v.n.N.N.l.c.n.n.n.m.v.x.v.N.v.v.v.x.$X",
"v.m.v.v.c.n.m.n.n.v.v.v.v.M.v.M.b.w.=.b.N.e.w.x.g.g.w.g.g.0.:.h.N.n.n.n.n.n.n.n.n.m.n.n.n.n.m.m.x.$X",
"n.n.n.n.n.n.z.n.n.n.m.m.n.n.m.v.w.:.b.n.h.e.e.w.g.g.g.e.g.g.:.:.e.N.b.c.v.b.v.m.v.v.n.n.v.v.v.m.x.$X",
"z.z.n.n.z.n.n.n.n.c.c.n.c.m.c.w.=.c.n.h.e.h.g.e.e.w.e.g.e.g.w.w.w.e.v.v.v.v.b.v.v.v.v.v.v.v.v.m.x.$X",
"z.n.n.z.n.z.c.n.c.v.c.c.v.x.:.:.b.n.h.e.h.g.h.g.g.g.g.e.g.e.g.e.4.0.h.c.v.v.v.c.c.c.v.c.v.c.c.v.x.$X",
"c.z.n.l.c.c.v.c.c.c.c.v.c.w.:.g.N.g.e.h.g.e.h.e.h.g.e.h.h.g.f.g.w.0.:.h.c.c.c.c.c.c.c.v.c.c.c.v.x.+X",
"l.n.l.n.c.c.l.c.c.c.v.c.w.:.x.N.w.g.h.g.e.h.g.g.g.g.h.e.g.g.f.f.e.e.0.:.x.c.c.c.c.c.c.c.c.c.c.c.h.$X",
"l.c.l.l.l.c.c.c.c.c.c.w.=.h.N.w.e.e.e.g.g.g.h.e.e.h.h.g.f.g.f.g.e.g.w.:.w.e.c.c.c.c.l.c.c.l.c.c.h.$X",
"l.l.z.c.l.c.c.c.l.l.:.=.l.c.f.f.g.h.g.e.e.g.e.g.e.w.w.e.w.w.e.w.w.w.w.:.;.:.w.v.l.l.c.c.l.c.l.c.g.~.",
"k.h.h.k.h.h.h.h.h.w.;.h.l.g.w.w.e.w.w.e.w.w.w.w.w.0.w.w.w.0.w.:.w.w.:.0.0.-.:.w.j.l.k.h.j.h.e.l.g.T.",
"f.f.g.f.f.h.h.f.w.=.g.v.e.w.w.:.w.4.:.:.w.w.:.:.w.5.:.:.w.:.5.w.:.w.5.5.5.:.=.:.w.h.f.g.f.f.f.f.:.T.",
"h.k.k.f.g.k.l.:.=.w.N.e.w.w.w.w.:.w.w.w.w.w.:.w.w.g.w.w.w.5.w.w.5.0.w.w.w.0.:.;.;.h.h.f.h.l.l.h.0.~.",
"k.k.x.l.l.c.:.=.e.N.w.e.e.w.e.w.w.e.w.g.w.g.w.e.w.f.w.w.w.w.e.g.g.w.g.w.f.w.f.:.=.:.h.l.l.l.l.l.g.~.",
"h.x.k.k.l.:.=.h.c.w.e.w.w.w.w.g.w.w.w.w.w.w.w.w.w.e.w.w.g.w.w.e.f.w.w.w.f.w.w.w.5.=.;.f.x.k.h.l.g.T.",
"h.h.l.l.:.%.f.l.e.w.w.w.w.w.w.w.5.w.w.w.w.w.6.w.w.w.w.5.w.w.w.w.5.5.w.w.w.5.w.w.g.:.=.;.e.l.h.l.g.T.",
"h.l.h.:.=.f.l.g.4.w.w.w.5.5.w.w.w.w.w.w.w.w.6.w.4.w.w.w.w.5.w.w.w.w.w.w.w.w.w.w.5.w.5.=.:.w.l.k.g.T.",
"k.h.5.=.:.n.f.d.w.w.w.w.w.w.w.w.w.w.w.w.w.w.w.w.w.w.w.w.w.w.w.w.w.w.w.5.w.w.w.w.w.w.g.:.=.:.f.l.0.T.",
"h.5.=.:.n.:.d.:.w.4.5.5.w.5.5.w.4.w.w.4.w.4.w.5.w.w.4.5.w.5.5.w.5.w.5.w.5.w.5.5.5.w.:.5.:.-.=.k.g.K.",
";.%.5.c.4.;.w.4.;.4.w.4.4.4.w.5.4.4.:.:.:.:.1.4.4.4.:.4.w.:.4.4.:.:.:.4.4.4.w.4.4.;.4.;.4.4.=.-.O.H.",
"%.%.5.k.;.;.;.q.;.;.:.;.-.:.4.:.;.4.5.4.4.4.-.:.4.4.4.;.4.:.:.<.;.;.;.:.;.:.4.:.;.w.w.;.q.4.-.&.O.z.",
"w.;.=.5.w.4.4.4.4.4.4.4.4.4.4.4.4.w.5.4.4.5.4.4.4.4.4.4.4.4.4.4.:.5.:.4.4.4.4.4.4.4.w.4.;.=.%.j.:.H.",
"l.w.=.%.4.4.w.4.5.5.5.5.5.5.4.5.4.4.5.w.5.5.5.5.w.w.4.w.5.5.5.5.5.5.5.5.4.5.5.4.4.w.4.4.-.&.6.v.w.P.",
"e.h.e.-.=.:.4.4.4.w.4.w.4.5.5.4.5.5.5.5.4.4.5.4.4.5.5.4.5.5.5.5.2.5.5.5.5.4.5.5.4.w.4.=.=.6.v.f.0.T.",
"e.h.h.e.-.$.:.4.4.4.4.4.4.5.4.4.4.4.2.4.4.5.5.2.4.4.4.4.4.4.4.4.4.4.4.2.4.5.5.4.4.w.=.$.e.z.e.j.w.T.",
"e.j.e.f.e.=.$.:.w.w.:.4.4.4.4.4.4.4.4.4.4.4.4.4.4.4.4.1.4.4.4.4.4.4.4.4.4.4.4.4.4.-.$.e.l.e.f.j.w.T.",
"f.f.e.j.e.e.-.$.-.4.:.<.4.1.1.4.4.4.4.4.4.1.4.1.4.1.1.4.2.1.1.4.;.4.1.:.4.4.4.1.-.%.e.l.k.e.f.f.w.P.",
"e.k.k.e.e.k.w.-.$.;.1.:.:.2.2.:.4.4.4.4.1.4.1.4.4.4.4.:.4.4.4.:.2.4.4.1.4.4.;.&.@.6.k.j.e.e.e.k.w.Y.",
"k.e.e.e.e.e.e.5.%.$.;.:.:.;.:.;.;.;.;.4.;.4.;.4.;.4.:.;.;.4.;.:.4.:.4.:.;.:.&.@.4.k.e.e.e.j.e.k.4.Y.",
"e.e.e.6.e.e.e.e.4.$.$.;.;.*.*.-.&.&.;.;.-.-.1.;.&.;.;.&.*.;.<.:.;.;.;.&.;.&.$.:.l.e.e.e.e.e.e.e.4.P.",
"4.<.:.4.4.e.5.5.5.:.$.$.&.&.*.;.&.;.-.%.-.-.-.-.&.&.&.&.&.&.1.-.&.&.*.=.&.$.4.j.5.5.6.4.6.4.4.4.%.K.",
"e.6.5.6.6.4.5.6.e.e.5.%.$.=.*.;.;.;.;.;.-.&.-.-.=.;.-.;.;.&.&.&.-.;.;.$.o.5.h.5.5.6.e.4.:.5.2.d.:.K.",
"j.e.e.e.e.e.6.e.e.e.6.4.%.o.=.:.;.;.;.:.1.;.1.-.+.+.4.;.;.-.-.-.;.;.%.o.5.f.e.6.5.e.e.e.5.5.6.f.w.P.",
"e.e.e.e.f.6.6.f.6.f.e.e.;.O.+.;.1.:.;.;.1.-.1.4.x e 1.-.1.;.-.;.;.&.@.1.j.f.6.e.f.6.e.d.e.f.5.d.0.P.",
"6.6.6.6.6.6.6.6.6.e.6.6.d.d.*.+   ; 4.1.&.;.2.  Q.=X  1.1.&.1.1.y   . j.f.6.e.6.6.6.6.6.6.6.d.d.;.P.",
"e.6.6.6.6.6.6.6.6.6.6.6.f.4.; Q.Q.p.s >.5.@.d u.:X2Xp.x +.4.;.y u.W.Q.0 &.f.5.6.6.6.d.6.d.2.d.d.;.P.",
"6.6.6.6.5.6.6.6.6.6.6.6.1.S u.sX>Xp.@ c V s $ *X3X3X;X4 0 V c o y.-XdXi.G *.6.6.6.5.6.5.d.2.2.d.:.P.",
"6.5.6.6.d.5.5.5.5.6.3.e.s C sXsXR.  p 2 2 2 p <XsXsXpXC 2 3 2 p o i.sXdXi.9 f.3.d.3.5.5.2.d.2.d.=.P.",
"3.5.2.2.3.5.2.3.2.2.2.f.u : R P } .XhXgXgXgXgX=X<X2X&XfXgXgXfXjX.X| P R : 9 d.2.2.2.d.5.d.2.2.d.;.P.",
"d.;.;.>.2.2.;.;.1.1.6.z ` '.`..XyXuXlXlXzXcXzXaXaXhXaXzXxXzXxXxXkXyXqX`.'.{ u 6.d.2.2.3.2.2.d.2.%.K.",
"*.*.*.*.;.>.*.*.#.c B   Q _._.8XgXcXlXlXzXlXlXcXzXlXcXzXzXzXzXzXcXhX8X_.'.'   B M A ;.>.1.;.2.2.O.H.",
"2.d.1.;.2.2.2.d.B 3 p p e ; 5   /.xXlXlXlXlXlXlXlXzXlXlXzXzXzXhXxX X  5 ; 5 p 6 6 b *.*.*.&.&.*.&.L.",
"d.*.2.2.2.2.d.  F.lXhXjXjXkXlXj   Z.vXlXlXlXlXlXlXlXzXlXlXlXlXvXF.  2 fXlXhXhXgXkX(.  d.2.2.2.2.;.K.",
">.>.d.>.2.>.a /.fXcXlXzXzXzXzX8X6X{._ hXvXvXvXlXlXlXxXvXvXvXxXA./.8X8XlXxXlXlXlXxXgX(.d #.3.1.3.%.J.",
"d.>.2.2.3.1.  tXvXlXlXlXlXlXlXvXvXgXZ. X7X7XqXjXlXlXlXqX.X|. XZ.9XvXcXlXlXlXlXlXlXcXlX# S d.1.3.;.K.",
"N.N.m.m.b.j.3 wXzXlXlXlXlXlXlXlXlXlXvXf J E E gXlXlXlX~ Y I % lXcXlXlXlXlXlXlXlXlXlXtXg 3.m.m.N.b.%X",
"N.N.N.N.$.l xXcXcXcXlXlXlXlXlXlXlXlXlXT [.vXlXlXlXlXlXlXcXqXP gXlXlXlXlXlXlXlXlXxXcXcXcX_ n OXI.b.%X",
"N.N.N.N.#., Z.d.D.'.vXxXlXlXlXlXzXlXlXwXuXcXlXlXlXlXzXlXcXjXwXlXlXlXlXlXlXlXlXvX|.{ A.A.3 b N.N.b.%X",
"N.N.m.N.#.% C C K E =XjXcXlXzXlXlXlXlXcXxXlXlXlXlXlXlXzXlXlXvXcXlXlXlXzXlXcXlX6X! J C C 1 B m.I.b.%X",
"l.l.h.c.M r -X:XQ.T @ 8XlXlXlXzXzXlXlXlXzXzXlXcXlXlXzXlXlXlXlXlXlXlXlXlXkXlXeX- K ].;X:XC z z.l.g.T.",
"k.l.g.h.M h 3XsX:X#X*X4 /.vXlXlXlXlXlXlXzXzXlXlXlXlXlXzXlXlXlXlXxXlXlXlXvX X1 =X#X-X5X5X/ y k.k.g.~.",
"n.N.z.l.m h dXdXpX2X3X1 /.vXlXlXlXcXlXlXlXlXlXlXlXlXlXlXlXlXlXlXlXlXlXlXvX Xo 2X2X3XsXdX/ 0 l.l.x.%X",
"n.m.l.l.*.C Q.3XdXsXdXp.{.vXlXlXlXlXlXlXlXlXlXlXlXlXlXlXzXlXzXzXlXlXlXlXcX8Xy.sXsXdX4X&X,.+.l.v.x.%X",
"n.n.z.h.h.>.. =XsXsX2X;XaXxXlXlXlXlXlXlXlXcXlXlXlXlXlXlXlXlXzXlXlXlXlXlXcXaX;X2X4X4X;X  #.j.e.c.x.$X",
"z.z.l.h.d.d.e.+ W.pXU yXxXlXlXlXlXlXlXlXlXlXlXlXcXlXlXlXzXlXlXzXlXxXlXlXlXxXhXY ,X=X  3.6.6.j.c.x.$X",
"n.n.n.l.#.e 2 # r / K yXxXlXlXlXlXlXlXcXlXlXcXlXlXlXlXlXzXlXzXlXzXlXzXlXlXxXjXU W C @ 2 5 S k.I.x.$X",
"z.l.A h.V & ..8.w , `.gXxXzXlXlXlXlXlXlXlXlXlXlXlXlXlXlXlXzXlXzXlXlXlXlXlXlXlX[.7 8 8.8.- x k.B w.$X",
"l.d.g d.B t V.C.8.l vXzXlXlXzXlXlXlXkXcXlXlXlXlXlXlXlXlXzXlXzXlXlXlXzXlXzXlXlXvXA. .C.@Xn s 6.k ;.T.",
"A j xX^   x B.V.7.7 lXlXlXxXlXlXlXlXcXlXlXlXlXlXlXlXlXcXlXzXlXlXlXzXlXlXlXzXlXcX`  .C.t.... f xXF ,.",
"V j lXgXS.  q t.@X{.kXlXlXlXlXlXlXlXlXlXlXlXlXlXlXlXcXlXlXlXlXlXlXlXlXlXlXlXlXcX)  .t.q   Z.tXxXF ,.",
"c j zXvX0XF.] 9.s.,XlXlXcXlXcXcXzXlXlXlXlXcXlXlXcXlXlXlXlXlXlXlXlXlXvXcXcXcXcXcX^.X.q.{ F.8XvXvXF G ",
"V j tXlXcXjX}.k X.=XlXkXtXtXtXtXhXzXlXzXlXlXxXlXlXlXlXlXlXlXlXxXlXjXtXtXtXtXyXlXiXa.p }.uXxXhXfXG ,.",
"f.>.  eXuX`.o t.7.k lXXX]   $   (.vXlXlXlXlXlXlXlXlXlXlXlXlXlXlXvX6X  #   > ~ zXiX@Xt.  | rXgX$ Z P.",
"d.1.S G l D r.B.7.7 XX) ' }.eX}.' S.xXlXlXlXlXlXlXlXlXlXlXcXlXcX^.^ }.9X|.] < } W 9.B.r.H k D S =.K.",
"d.2.2.v @ q V.C.8., [ @ G.kXxXkXD.j cXlXlXlXlXlXlXlXlXlXlXlXkXvXZ.Q uXxXkX{.  L % ..C.C.w . z 1.=.H.",
"d.2.;.>.s s r.r.9.: +   /.cXhXcXF.D xXlXlXlXlXxXlXlXlXlXlXlXlXcXA._ cXhXkX X  ; : X.r.r.n f 5.>.;.K.",
"f.d.;.Z m Z : . L T 2   ] XXlXoX' G xXlXxXlXlXlXlXlXlXlXlXlXlXvXA.Q .XhXrX|   * T I . % c @.*.2.:.P.",
"f.5.%.Z @.&.B M e r a.fX(.7 H k > ( zXlXlXzXlXlXlXlXlXlXlXlXlXvX).J l F g F.fXW.C 6 N c m m &.6.:.P.",
"f.;.O.*.3.#.o.+.9 j aXaXS.  $ > { wXlXlXlXlXlXlXlXcXlXlXlXlXlXlXwXD.> %   u.aXaX^ = +.A o.V +.3.0.K.",
"-.%.4.j.$.+.V +.9 D cX1XR.l 4 ~ rXvXlXlXlXzXlXlXlXlXlXlXlXlXlXlXcXyX} 4 k S.:XcXA.= +.V +.@.+.&.O.H.",
"-.$.:.f.%.#.+.+.9 D lXzXvX0Xo gXzXlXlXlXlXlXlXlXlXlXlXlXlXlXlXlXlXlXgX$ 8XvXlXxXA.= #.o.%.&.&.&.O.H.",
"f.;.-.;.4.;.&.&.9 r >X=X>XpXa./ j ` XXzXvXcXzXlXcXcXlXlXcXvXcXoXD.p F E.2XpX&X>X/ ; -.%.-.$.%.k.:.H.",
"l.e.;.$.;.4.;.-.M x y.=X5XsX*Xr   f ' G.F.(.vXvXwX|.vXvX6XF.F.] j = : #X4X5X:Xi.x c <.-.%.-.e.z.w.I.",
"e.h.e.4.=.;.;.-.@.V   =X>X=XE.d z M +     D 9X0X{ ! eXeXZ.    X v v e R.=X:X=X; v &.&.$.-.e.v.e.0.Y.",
"h.f.e.e.=.$.-.;.@.+.+.&   O # v Z B A A #.c   X @ & .   s @.S S B N M # O o o V +.%.+.$.e.c.e.j.w.Y.",
"e.j.e.e.e.-.$.-.&.+.A M M M M M Z Z Z M M M M M v c v M M M Z Z Z Z Z v v B Z Z Z o.o.h.l.e.e.j.d.!.",
"j.e.j.k.e.e.-.$.@.@.A A M Z Z Z A Z A A A A Z M Z Z Z Z Z Z Z Z A A Z Z Z Z A Z Z Z d.j.j.h.j.j.d.!.",
"j.e.e.e.e.e.e.-.+.+.@.A A A A +.@.@.@.+.+.A A A Z Z Z Z A A S @.@.@.+.A Z A A Z N 2.h.f.j.e.e.j.d.N.",
"k.e.k.e.k.e.e.4.%.o.+.@.+.+.+.+.@.@.&.%.@.+.+.@.A A S A @.@.@.*.%.*.@.@.A S Z Z 2.j.f.d.e.j.e.j.d.N.",
"e.e.e.6.6.e.e.e.5.+.o.%.%.@.@.@.%.&.&.&.@.$.@.@.+.@.@.+.@.*.*.*.*.*.%.+.O.Z N d.k.6.6.e.w.e.e.e.d.L.",
"4.1.:.<.:.5.4.6.6.4.%.o.$.$.&.;.&.*.;.$.&.&.&.$.$.@.$.$.*.%.;.-.%.=.-.%.%.N d.g.4.5.6.4.4.4.<.4.Z z.",
"e.5.5.w.6.4.4.6.e.e.5.$.o.&.;.;.;.:.;.;.;.&.-.%.%.&.;.;.;.&.&.%.=.;.;.O.O.d.g.=.4.e.e.4.4.4.4.e.d.N.",
"e.e.e.e.e.e.e.e.e.e.e.5.%.o.&.:.;.;.;.;.;.;.;.;.;.;.;.;.;.;.=.;.;.;.$.Z d.f.d.d.6.e.e.e.6.e.e.e.d.!.",
"e.e.e.e.e.e.e.e.d.d.d.d.:.%.o.*.;.*.;.*.;.;.;.;.;.;.;.;.1.1.;.;.d.Z O.d.d.d.=.d.d.d.d.d.d.d.d.d.d.z.",
"6.6.6.6.6.6.6.6.2.d.5.d.d.:.@.+.*.;.;.;.;.;.;.*.>.;.*.;.;.*.;.*.Z Z d.g.d.d.d.d.@.d.d.d.d.d.d.d.d.z.",
"6.6.6.6.6.6.6.6.2.d.d.d.3.d.2.+.+.*.*.*.;.*.;.;.;.*.;.*.;.;.*.@.Z d.d.d.d.d.=.d.d.d.d.d.d.d.d.d.d.!.",
"6.6.6.6.6.6.6.6.d.d.2.d.d.5.d.:.$.o.*.*.*.*.*.*.*.;.*.;.*.*.$.o.O.d.d.d.d.d.d.d.d.d.d.d.d.*.2.d.@.z.",
"d.2.3.d.5.6.5.6.d.d.;.*.d.d.2.d.;.A A %.*.*.*.*.*.*.*.*.*.+.Z :.d.d.A d.d.@.d.d.d.d.d.d.2.d.2.d.d.L.",
"2.d.2.3.6.2.2.1.2.2.d.d.*.*.d.d.d.;.+.+.%.*.*.%.*.%.*.*.+.Z 1.6.d.d.d.d.d.d.d.O.O.d.A d.d.2.2.d.%.L.",
";.;.*.;.2.1.>.*.*.*.d.;.*.*.d.*.;.d.*.Z Z %.%.@.+.@.%.@.Z *.d.3.d.d.d.d.@.d.d.d.d.d.d.d.d.2.d.3.@.z.",
";.*.*.*.>.1.;.*.*.*.*.2.*.*.2.*.;.;.;.*.+.Z +.@.@.@.o.Z *.f.3.*.@.d.Z Z d.@.d.d.Z A d.A >.*.*.d.@.z.",
"2.2.>.*.*.d.d.*.*.*.*.d.d.*.d.S d.A d.d.Z N A d.Z @.Z d.d.d.d.A d.@.d.d.d.d.Z d.Z d.@.*.*.@.@.*.@.z.",
"d.d.d.d.d.d.*.d.d.d.d.d.*.d.d.d.d.d.d.d.d.d.A A Z Z %.d.d.d.d.d.d.*.S d.d.d.d.d.d.d.d.d.d.d.d.d.d.m.",
"%.@.@.@.%.%.%.%.A %.%.%.%.%.A %.%.%.%.%.N %.O.i i Z d.O.%.%.Z d.Z d.@.O.d.Z Z d.N @.d.@.*.@.@.@.Z z.",
"!.!.!.!.!.!.!.!.!.!.!.!.!.!.!.!.!.!.!.!.L.L.!.J.z.!.!.L.!.!.!.!.L.!.!.!.!.!.L.!.z.!.z.!.!.!.!.!.!./."
};
