/* XPM */
static char *result[] = {
/* columns rows colors chars-per-pixel */
"100 50 234 2 ",
"   c #000000",
".  c #0D0000",
"X  c #180000",
"o  c #0F0014",
"O  c #00141A",
"+  c #2A0000",
"@  c #330205",
"#  c #370A11",
"$  c #2A240F",
"%  c #010026",
"&  c #150635",
"*  c #120D3A",
"=  c #2C0230",
"-  c #05212D",
";  c #332F39",
":  c #450B04",
">  c #531C09",
",  c #472D10",
"<  c #57142F",
"1  c #442828",
"2  c #4D3031",
"3  c #4B3539",
"4  c #55463E",
"5  c #624728",
"6  c #644635",
"7  c #010047",
"8  c #0E0E48",
"9  c #0E3652",
"0  c #272542",
"q  c #2A3358",
"w  c #323050",
"e  c #25296E",
"r  c #4C0040",
"t  c #473B46",
"y  c #513452",
"u  c #4A396C",
"i  c #39445B",
"p  c #3A4464",
"a  c #3D4A66",
"s  c #3C556F",
"d  c #3F617D",
"f  c #574845",
"g  c #524D51",
"h  c #61514B",
"j  c #6B5A4C",
"k  c #6D5A5B",
"l  c #79674E",
"z  c #434B65",
"x  c #44546E",
"c  c #4A5469",
"v  c #53586B",
"b  c #455875",
"n  c #4C5C75",
"m  c #4B5E7A",
"M  c #545775",
"N  c #705C64",
"B  c #7A597A",
"V  c #4E6077",
"C  c #4D617E",
"Z  c #52637C",
"A  c #58677D",
"S  c #766D67",
"D  c #716A74",
"F  c #910000",
"G  c #A41D14",
"H  c #8B2D09",
"J  c #AB2800",
"K  c #AE4600",
"L  c #AC510E",
"P  c #965320",
"I  c #B15829",
"U  c #934C48",
"Y  c #886F4D",
"T  c #846E54",
"R  c #8F6C6A",
"E  c #857D78",
"W  c #B4706E",
"Q  c #A18651",
"!  c #96856F",
"~  c #86847C",
"^  c #8B837D",
"/  c #AB8F6F",
"(  c #BEA275",
")  c #303C87",
"_  c #465C82",
"`  c #4E6382",
"'  c #4C6587",
"]  c #536583",
"[  c #596682",
"{  c #556985",
"}  c #5A6B84",
"|  c #526689",
" . c #566A8B",
".. c #5A6E8C",
"X. c #5D718E",
"o. c #4F6991",
"O. c #566D92",
"+. c #5A6E91",
"@. c #536E98",
"#. c #5D7293",
"$. c #5E759A",
"%. c #5A7A9D",
"&. c #6F6B85",
"*. c #63738E",
"=. c #797A85",
"-. c #627694",
";. c #647895",
":. c #6B7B95",
">. c #617699",
",. c #647A9C",
"<. c #697D9C",
"1. c #5356AF",
"2. c #5D79A1",
"3. c #667DA1",
"4. c #697EA2",
"5. c #706FB0",
"6. c #4F5BCA",
"7. c #6A73D4",
"8. c #6E7AE2",
"9. c #717EEA",
"0. c #845784",
"q. c #896B86",
"w. c #936D81",
"e. c #8B718D",
"r. c #9A7798",
"t. c #A17E9E",
"y. c #9F78A2",
"u. c #A67DA8",
"i. c #6C809E",
"p. c #6B81A5",
"a. c #6681A9",
"s. c #6782A8",
"d. c #6C84A9",
"f. c #7185A5",
"g. c #7187AB",
"h. c #7289AE",
"j. c #7C8DAB",
"k. c #6E89B0",
"l. c #758DB2",
"z. c #788FB4",
"x. c #738EB9",
"c. c #7991B6",
"v. c #7691BA",
"b. c #7C94BB",
"n. c #7A87F6",
"m. c #8D8784",
"M. c #938C87",
"N. c #99948D",
"B. c #978094",
"V. c #9E9A98",
"C. c #A29E99",
"Z. c #B39F95",
"A. c #B6A488",
"S. c #AFA699",
"D. c #8794A9",
"F. c #8A97B1",
"G. c #8C99B3",
"H. c #8296B9",
"J. c #8499BD",
"K. c #8B9DBD",
"L. c #B18FB2",
"P. c #B58CBA",
"I. c #92A2BE",
"U. c #ABA9A4",
"Y. c #B2ADA7",
"T. c #BCB7A4",
"R. c #B5B2AC",
"E. c #BAB7B3",
"W. c #BBBAB4",
"Q. c #CB9B8A",
"!. c #C4A689",
"~. c #C9A696",
"^. c #D1B592",
"/. c #C39BB9",
"(. c #C9B6A6",
"). c #D5B7A8",
"_. c #C1BFB9",
"`. c #D6BEB3",
"'. c #DBC299",
"]. c #D8C2AB",
"[. c #C4C2BA",
"{. c #ECD3AA",
"}. c #EDD5AC",
"|. c #E9D7B8",
" X c #839BC1",
".X c #8B9FC0",
"XX c #BB92C1",
"oX c #8DA1C2",
"OX c #93A5C3",
"+X c #98A8C6",
"@X c #A1AFC9",
"#X c #C498CB",
"$X c #C9A2CB",
"%X c #CBA2D4",
"&X c #D6ABDA",
"*X c #E7B2DD",
"=X c #DDB6E4",
"-X c #E4B9EB",
";X c #EBBFF2",
":X c #C9C6C1",
">X c #CBC8C6",
",X c #CCCBC5",
"<X c #D4CDC6",
"1X c #D4D2CC",
"2X c #D8D3C8",
"3X c #D9D7D4",
"4X c #DDDBD5",
"5X c #E5D6CE",
"6X c #E6D8CF",
"7X c #E2DEDA",
"8X c #ECE1CB",
"9X c #F9E8C9",
"0X c #E4E3DD",
"qX c #EAE5DA",
"wX c #F4EAD7",
"eX c #FEF2DA",
"rX c #E4CFE5",
"tX c #E8DAE4",
"yX c #EEC2F5",
"uX c #F2C6FA",
"iX c #F7CAFD",
"pX c #E9E6E2",
"aX c #E8E6E4",
"sX c #EBEAE3",
"dX c #EEECE8",
"fX c #F1ECE4",
"gX c #F1EFEA",
"hX c #F5F4EE",
"jX c #F8F4E8",
"kX c #F7F7F0",
"lX c #FAF6F4",
"zX c #F7F8F2",
"xX c #FBFBF4",
"cX c #FEFFFB",
/* pixels */
"@XJ..X.X.X.X.X.XoXoX.XoX.X.X.X.X.X.X.X.X.X.X.Xb.z. X.XJ..X.X XJ.K.OXoXoX.X.X.X.XoXoXoX.X.X.X.X.X.X.X.X.X.X.X.X.X.X.X.XoX.X.X.X.X.X.XOXoX.XoX.X.X.Xb.z.G.oX X.X XJ.J..XOX.XOX.X.XoXoXoXoXoXoX.XoX.X.X.XoX",
"OXx.b.v.b.b.v.b.v.v.v.b.v.v.v.v.v.v.b.b.b.v.x.2.@.3.b.b.v.v.b.b.b.v.v.v.b.b.v.b.v.b.v.b.v.v.b.v.v.v.v.v.v.v.v.v.v.b.v.v.v.b.b.v.v.v.v.v.v.v.v.v.v.2.@.4.b.v.b.b.b.b.v.v.v.v.v.b.b.v.v.v.v.b.b.b.v.v.v.b.",
"+Xv.b. XH.b.b.b.b.b. Xb.H.b. X X XH. Xb.b.b.4.3.3.2.4. X Xb.b.b.b.b. Xb.b. Xb. XJ.b.b.b. Xb. X Xb. Xb. Xb. XH.H. Xb. X Xb. X Xb.H.b.H.b. X X Xv.3.3.3.3.d.b.b.b.b.H.b. X Xb.b.b.b.J.b.b.b.b.b.J.b.J.b. X",
"OXv.b.b.b.b.b.b.b. Xb.b.b.b.b.b.b.b.v.b.v.4.2.v.x.3.3.4.l.l.b.c.z.b.b.b.z.v.b.b.b.b.b.b.b.b.b.b.H.b.b.c.b. X X X X X Xb.b.b.b.b.b.b.b.b.b.b.z.3.@.v.x.3.3.p.z.l.b.z.c.b.b.b.b.v.J.b.b.b.b.b.b.b.b.b.b. X",
"I.d.l.l.l.z.l.l.k.l.l.b.b.b.c.l.z.z.z.z.4.2.c.b.k.5.3.$.4.x.v.l.k.z.z.c.l.l.z.l.z.l.l.z.z.z.l.l.g.l.l.c.d.p a p p z q #.b.b.b.b.c.z.z.z.z.g.3.3.v.H.v.4.3.2.a.l.l.x.g.z.z.c.x.h.c.l.z.l.h.c.l.l.c.l.h.c.",
"K.a.h.d.l.d.l.l.g.d.g.l.z.l.c.l.k.l.g.3.$.g. Xk.p.d.s.3.$.s.g.l.l.l.l.h.5.z.l.l.z.d.p.k.l.l.d.d.g.k.>.+.&.m.^ ^ m.^ m.=.$.:.l.z.z.z.g.v.g.3.2.h. Xd.4.k.4.3.$.s.l.z.l.z.l.g.k.l.l.l.l.k.g.h.l.l.k.d.k.l.",
"OXl.c.l.l.h.z.z.l.l.h.l.h.h.l.c.l.z.3.3.k. Xd.d.d.d.p.s.3.$.d.v.c.c.c.z.k.c.c.c.v.z.l.z.b.c.l.l.c.z.c X D xXxXxXlXlXcXE.  , 4.z.b.z.l.z.3.2.k. X4.d.d.4.4.a.2.$.d.z.c.c.c.z.g.z.c.c.c.l.h.z.b.c.l.l.c.H.",
"OXl.b.z.z.v.v.z.c.c.b.c.c.b.v.c.z.4.@.k. X4.a.d.p.p.d.d.s.2.$.4.c.c.b.c.c.c.c.c.c.c.z.c.c.c.z.b.g.g F ~.zXkXzXhXkXxXcXE.        w  Xb.4.@.k. Xd.d.4.a.d.5.k.d.3.$.4.b.c.c.v.c.c.b.c.c.c.c.c.c.c.c.c.c.b.",
"I.k.c.c.c.c.c.c.c.c.z.v.c.c.b.z.4.@.l.b.g.4.d.4.4.d.4.d.d.4.2.$.d.c.c.c.c.z.v.c.c.c.c.c.c.c.z.b.g.  (.wXxXhXhXxXgXM.M.Y.,X:X:X,XR.q q m b.c.d.4.p.p.p.p.p.p.p.p.2.@.d.c.z.v.c.z.v.b.z.z.c.c.c.c.c.c.z.H.",
"I.l.c.c.c.c.l.z.v.z.z.z.z.z.z.3.@.g.b.g.4.d.a.a.4.d.a.4.4.d.4.2.$.d.l.z.z.v.z.c.l.c.l.c.z.z.c.f.:.m.aXcXkXzXxXsX_.^ S ,XcXxXxXcXsX^ m.=.3.h.d.d.s.p.a.p.s.p.s.p.4.3.$.d.z.v.c.z.v.z.z.z.c.z.l.c.z.c.l.H.",
"I.l.j.l.l.l.z.l.l.z.z.z.b.l.3.@.k.b.k.4.d.d.4.4.a.a.4.d.a.d.d.4.2.$.s.z.z.z.z.z.z.z.l.z.z.l.b.M j lXfXfXhXdXxXU.k cXcXzXhXhXkXhXhXzXcXR.= h.4.4.d.4.a.p.p.p.p.p.a.4.3.$.4.v.z.l.z.z.z.z.z.z.l.z.z.z.l.c.",
"I.k.c.c.l.l.z.z.l.l.z.z.l.3.$.p.b.d.4.d.4.d.a.d.d.d.a.d.4.d.p.a.4.,.@.d.l.l.z.l.z.z.l.l.l.l.b.| S cXQ.H ; 2 1 E.kXhXhXhXkXkXhXhXhXhXhXkX>X  ; X q z.l.d.s.s.p.a.4.4.3.2.$.4.z.z.z.l.l.z.l.l.z.z.l.l.l.c.",
"I.k.c.l.z.l.l.l.l.l.l.z.3.@.p. Xa.4.d.d.d.a.4.d.d.a.a.d.d.d.s.d.p.p.$.$.d.v.l.l.h.z.h.c.c.c.b   + m.`.<X:X,X  U.cXhXzXzXkXkXxXcXcXcXxXxXdX,X1 C.W.7 8 ..l.d.k.k.k.d.d.4.2.@.k.l.l.l.l.l.l.l.l.l.l.l.l.c.",
"I.k.l.k.h.l.h.z.l.l.l.3.O.p.b.p.a.4.4.a.d.4.d.4.4.4.4.d.p.p.4.p.4.p.3.$.$.4.z.l.l.l.c.f.*.#.m.N.N.E aXcXxXcXU.,XxXhXhXhXkXzX3X,X>X1X,XpXxXxXf ,XhX^ N.=.{ *.{ {  .+.4.4.4.>.2.4.z.h.l.l.l.h.l.l.l.l.j.c.",
"I.d.l.l.l.l.l.l.h.l.3.O.p.b.d.4.4.a.d.4.4.4.4.4.4.3.3.d.3.3.3.3.3.3.3.3.$.+.3.z.h.h.z.*., , 4XcXxXcXzXhXhXhXxXxXkXzXzXkXkXhXN   # #   E.xXjXf W.xXzXcXY.. @ < 2 : # >.3.3.$.@.#.4.l.l.l.h.h.l.l.l.l.h.c.",
"K.s.g.g.d.g.g.d.h.4.O.p.l.p.3.3.4.3.3.4.4.3.3.3.3.2.3.3.3.$.3.3.2.,.$.$.$.$.+.d.f.0   C.xXdXkXkXhXhXhXzXkXzXhXhXzXkXhXxXaX, L.#XXXP.#XB ~ cXf _.cXhXhXzX,X# =XiX%X  -.,.>.3.,.#.#.p.d.g.h.h.g.p.p.d.f.h.",
"G.%.f.p.p.p.h.d.,.O.3.c.d.>.3.$.3.,.$.3.3.$.$.$.3.,.$.$.3.$.3.,.3.$.,.3.$.$.i.s t ( [.0XxXzXzXhXhXhXzXkXkXkXkXkXkXhXxX,XM.u.#X&X-X-X-X&XP.~.: W.cXhXhXcX1X  yX$X&.[ #.,.>.3.3.#.#.@.4.k.k.4.4.4.s.p.s.f.",
"G.s.h.d.d.h.k.i.O.,.b.p.3.p.3.,.,.%.,.,.3.3.$.3.3.4.3.3.3.,.3.3.$.,.3.3.3.3.d D S.9XjXxXhXhXhXzXzXkXkXkXkXkXkXkXkXhXcXS.o &X%X-XuX;X;XuX-XJ . _.cXhXhXxX4XT $X&.9 3.@.>.3.3.3.,.>.#.+.4.g.4.k.h.h.f.s.j.",
"I.s.l.h.h.h.,. .,.b.p.3.3.p.3.3.3.3.4.4.4.3.3.4.4.3.3.3.3.3.3.3.3.3.3.4.3.p.w Y.xXkXhXhXzXzXhXhXhXhXhXhXkXkXkXkXkXhXxXR.y #X-X;X;X;X;X;X*XI > :XcXhXhXzXeX{., a ;...>.,.3.3.3.3.4.3.+.@.4.l.h.k.h.h.d.l.",
"G.s.h.h.h.,.o.s.l.p.4.3.3.3.3.3.3.4.3.3.3.3.3.3.3.3.3.3.3.4.p.3.3.p.<.a.%.  ,XzXhXkXkXkXzXhXhXhXxXcXxXxXzXhXkXkXkXhXcX).G %X;XuXuXuXuXiX&X  7XzXhXhXzXkXkXfXh z X.X.>.3.3.3.3.3.3.3.3.$.#.4.h.h.h.h.d.l.",
"K.a.h.h.i. .s.h.5.4.3.3.3.3.,.3.3.3.,.3.3.3.3.3.3.3.,.3.3.,.3.3.3.3.3.=.W ( qXzXkXkXkXkXkXhXeX].m.m.i.Y.rXjXzXkXkXkXlXfX`.W w.w.w.w.r.R B.1XhXzXkXkXkXkXkXhXh i +.+.>.,.3.>.3.3.3.3.3.>.O.+.4.h.g.h.g.l.",
"K.s.h.3.o.,.h.d.>.3.<.3.,.3.3.3.,.3.3.3.3.3.3.3.3.,.2.,.3.3.3.,.3.,.a.B L 8XsXhXkXkXkXkXkXzX].Q T M.T R L.tXjXkXkXhXhXcXdXH u ) ) )   h W.xXkXhXkXkXkXkXzXjXh p -.*.>.,.3.3.3.3.3.3.3.3.3.O.+.4.g.g.d.l.",
"G.a.4. .$.l.d.%.4.3.3.3.3.3.3.3.3.3.3.3.3.3.3.3.3.3.3.3.3.,.3.3.3.,.4.M S gXzXhXkXkXkXkXhXxXD ! 9XxX9X( = #XtXlXhXkXhXxX7Xo 9. Xn.n.7 [.cXhXzXkXkXkXkXhXzXhXf a $.#.,.3.3.>.3.3.3.3.3.3.3.$.+.+.s.g.d.h.",
"K.$.O.#.c.p.>.<.>.>.3.>.3.>.3.3.,.,.3.,.,.,.,.,.3.,.,.3.,.3.3.,.,.3.U ~.kXhXzXzXhXkXkXkXhXxXS U.xXdXcXW.  3 7XlXhXlXhXxX4Xo 9.9.9.n.7 [.cXxXxXzXhXhXkXkXzXhXh z -.$.,.,.3.3.>.3.>.3.,.,.3.3.$.| ..p.d.i.",
"D.' >.l.3.+.>.>.$.$.,.>.$.>.3.>.$.$.$.$.#.$.$.$.$.$.$.#.,.,.,.$.#.,.< Z.cXhXkXkXkXkXkXkXjXxXD / eXxXwXA.    7XxXhXhXkXkXfX1XM 6.n.e   h m.~ D 3XcXxXzXhXlXgXh p >.#.$.>.>.,.$.>.3.>.$.$.$.#.>.>...O.X.%.",
"j.b >.g.$.+.$.$.#.#.$.$.+.#.$.#.#.$.>.>.$.$.#.#.#.,.>.$.#.$.#.$.#.$.% C.cXhXlXhXkXkXkXxXkXxX! P !.:X!.A.C.B 0XxXkXzXlXkXzXcX(.5.5.Q V.N.M.M.M.R.:X:XhXkXlXhXf ; ] +.#.+.+.$.#.+.#.$.#.>.,.$.$.$.O. .| X.",
"F.o.+.>.>.>.$.$.>.>.$.$.>.>.>.>.$.,.,.,.$.,.>.$.>.>.>.>.#.>.>.>.#.>.& N.hXkXhXkXkXkXkXkXkXzX~.H   X   R.lX%XgXzXhXfXfXgXjXfXxXU.6 }.jXxXcXxXcXR.  @ sXxXhXdXD : t $.$.>.$.$.>.>.>.>.>.>.>.>.>.+.| p.3.>.",
"I.2.+.| $.,.>.,.>.>.,.>.,.>.>.,.,.,.,.,.,.,.,.,.,.,.,.,.,.,.>.>.$.#.g   f '.wXzXjXkXkXkXkXhXxX`.F +   0.&XkXcXcXsXI J `.xXxXl 1.7.: '.wXkXhXkXxX3X  sXxXtX#X;Xr.- 3.>.,.,.,.,.,.>.,.>.3.>.>.#.| >.j.h.p.",
"G.3.4.+.O.$.>.,.>.>.>.>.,.>.>.>.$.,.,.>.,.>.>.,.,.>.>.>.>.,.>.>.#.;.* Y '.wXjXkXkXkXkXkXzXhXxXfX6X1X1X4X7X|.Q.W Q.5X2XfXsXM.5.8.9.7.k <XcXlXrXU.N.4XhXzXaX#X;Xt.O ,.>.,.,.>.,.>.>.,.>.>.3.+. .,.c.p.p.g.",
"G.3.g.4.+.| #.,.>.>.>.>.>.>.>.>.>.>.>.>.>.>.;.>.>.$.>.>.>.>.>.>.#.*.a R ].kXzXhXkXkXkXkXkXzXhXzXcXcXcXcXkX9X).Q.`.cXxXcX4X  9.n.n.n.7 M.>X_.y.q.W.xXhXxXtX#XuXy.O ;.-.>.>.>.>.>.>.>.>.>.+.| ,.z.f.p.p.g.",
"G.3.4.4.4.+.| +.>.>.>.>.>.>.>.>.>.>.>.>.>.>.>.>.>.>.>.>.>.>.-.-.#.X.X.9 3 sXzXhXkXkXkXkXkXkXzXhXhXhXhXhXfXfXhXkXhXfXpXlX5X> 7.8.8.8.y , t 3 $ ,XcXhXhXkX6XP.yXt.O -.#.>.>.>.>.>.>.>.>.+.| 3.j.4.p.f.p.f.",
"G.2.4.f.4.3.+.| $.>.>.$.>.-.-.$.-.$.-.#.>.>.-.#.-.$.#.>.>.>.>.#.#. . .i 5 {.fXzXhXkXkXkXkXkXkXkXzXhXkXwX'.L K K K I + W.qXG :     #   _.xXkXhXhXkXkXzX9X^.= ;Xt.  -.#.#.#.>.>.#.>.>.+.| 3.4.g.f.i.p.i.f.",
"G.3.f.f.4.f.3.+.| +.>.#.$.-.>.>.-.>.>.>.>.>.#.>.;.$.;.$.;.$.$.#.#.X.{ m v l ).eXxXzXhXhXzXhXkXkXkXhXkXjXwX5X5X6X5X6X1XaXhX6X3X1X1X3X1XsXzXkXxXjXxXxX9XA.5 1 ;Xy.  -.#.#.>.>.#.>.+.+.| >.f.f.4.4.i.p.i.f.",
"G.3.4.4.4.<.5.3. . .+.-.#.-.#.-.+.#.#.#.+.#.-.>.#.#.$.#.#.#.$.$.#.X.{ ] n * Q T.,XzXxXxXzXzXkXkXkXxXxXkXxXxXxXxXxXxXxXzXzXxXxXxXcXxXxXxXkXxXlXfX8X_.!.S % 1 *Xr.  X.#.#.>.#.#.>.+.| *.g.4.4.4.4.p.i.s.f.",
"F.,.4.4.4.4.3.4.3.| | +.#.+...O.+...#.+.+.+.#.#.#.#.#.O...#.$.#.#.X. .C n V 0   4 0X0XsXjXkXkXkXhXqXdXhXhXhXkXjXzXhXhXkXkXhXhXhXhXhXeXjXfXaXaX|.(     z v > P.B ; X.#.#.+.+.#...| +.h.4.4.4.4.4.i.i.i.i.",
"D. .>.#.>.:.,.,.,.#.| |  .+.O.#.+.+.+. ...+.+... . .O. .....X.X. . .| C C x n ..V 2   / 8XjXxXxXsX2 u.rXxXkXhXkXzXxXzXxXxXxXxXxXxXzX|.}.'.@ ; , 3 n c s k L > z ` |  . .O.....| *.g.<.,.3.>.>.,.$.$.X.X.",
"F.@.<.,.<.,.>.:.3.4.,.| |  .#.#.+.#.#.#.+...+.+. .O.+.#.#. .O...+.+...] b Z } Z V z a k T ^ m.m.S   >XkXkXkXcXjX|.D ^ ~ ^ E ^ E ~ ^ T Y l i i i a x x x v N z x m [ | +.-..._ -.f.<.>.,.4.>.;.$.;.<.>.<.",
"F.2.4.4.<.4.,.4.4.4.4.>.| |  .#.#.#.#.#.+.+.#.+.O.#.+.-.#...O...+.+. .m { -...[ Z A { x * *   r q.U.sXcXhXwX[.(./ & & & & & % o % % * 8 q V b V V b b n n d m Z ] | ..#..._ -.4.p.,.,.4.p.<.>.%.,.p.p.p.",
"F.,.4.<.4.<.4.4.4.4.4.<.#.| ' X.#.+.#.#.#.-.+.-.-.+.#.#.#.#.#.#.+...]  .<.:.X...} ] A ] } X.$ r.=XzXgXdX7X^.5   ; ] A } A A V b x V V V b n V V V C C Z m Z C Z ] ..+. .] ..f.4.<.3.4.4.<.<.i.i.<.p.:.p.",
"F.>.<.<.<.<.<.<.<.<.<.<.i.;.{ ' +.*.+.+...-.+.#...-.+.#.#.X.#.#...] ..4.4.;.;.X.X.} { A A A   B.yXXX%Xr.. 1 v A V V Z Z Z Z Z n z s x n b V V Z ] ] { { ] ] ] ] | .. .] ..f.4.4.i.<.<.<.<.<.;.i.<.:.<.f.",
"D.-.<.<.<.<.<.<.,.i.;.i.<.<.;.` ] ..*.+.+.X.+.-.#.X.X.X.#.X.#.{ ]  .f.4.;.,.;.;.#.X.X.} A ..  L.iXyXe.z c x V Z A Z A ] } } ] { Z s x V V Z ' A { { { ..{ { {  ...{ ]  .p.i.i.<.<.<.<.,.i.$.i.i.<.<.<.i.",
"F.#.<.<.<.<.<.,.i.;.i.%.<.<.i.#.` ` ....+.+.+...#.X.X.O.X.O...' | 4.<.<.i.<.,.;.;.;.*.X.} ..i q./.P.U 6 ' A Z A } { } X.} } X.} ..Z x V C { { { ................{ _ ..f.i.;.i.%.;.i.<.<.i.;.i.$.<.<.<.i.",
"F.#.<.,.,.,.<.,.i.i.;.%.;.i.,.,.#.` `  .#.....X...X.....#. .C ' <.<.<.<.i.,.;.;.;.;.;.#...A X.i     P R d A A } X.X.X.*.*.#.X.*...X.A d C { ..............X...| C  .<.i.;.i.i.;.<.i.;.<.$.i.i.;.>.<.>.i.",
"D.#.<.;.:.:.;.;.;.;.;.i.;.;.i.;.<.X.] ` ....X...........{ C { i.p.,.;.:.;.;.i.i.i.;.i.;.i.X.A A A [ V Z A A } X.X.X.X.*.-.;.;.#.i.X.i...C C ......X.........{ C  .:.f.;.;.i.$.i.;.;.,.;.i.;.;.i.<.;.;.i.",
"D...;.#.,.;.-.#.X.X.i.i.#.X.-.i.;.;.X.C C  . . .{ { ....C Z i.i.;.;.;.;.;.;.;.;.;.;.i.-.X.X.} A m Z Z Z A { X.X.X.X.X.X.;.-.X.X.i.i.X.i...C C  .....{ { ..{ C { :.p.;.;.;.;.;.;.;.;.;.;.;.;.i.#.,.;.;.;.",
"D.' X.X.X.-.X.X.X.X.X.X.X.} X.#.#.#.#.X.C C ] ] { { ' C C i.i.X.#.*.X.X.X.#.;.;.#.#.X.#.-.} ..} V n Z V C A X.X.X...X.X.#.#.X.X.X.X.#.X.%...C C ' Z { { ` C ] i.<.X.#.#.X.X.X.X.$.;.#.#.X.;.;.#.;.;.X.*.",
"j...;.X.#.;.-.-.X.X.X.X.i.#.#.;.#.#.#.;.X.C C { ..' C C i.i.-.-.X.X.;.#.#.;.;.#.#.X.X.X.X.} } Z { [ ] ..X.X.X.i.i.X.X.#.#.X.i.X.i.X.X.X.X.i...V C { ..' C ' i.i.;.$.X.X.#.#.#.;.;.#.#.X.X.X.X.} X...X.i.",
"D...;.;.;.;.;.;.X.#.i.X.i.-.-.;.;.-.;.;.$.X.C C C C C i.i.#.-.i.;.;.;.;.;.;.;.$.;.;.#.;.-.X.X.X.X.X.X.*.X.X.i.X.i.X.X.#.i.;.;.-.X.#.i.X.X.i.%.X.C C C C Z i.;.;.;.;.;.;.;.;.i.-.;.;.;.;.;.#.;.#.#.#.#.i.",
"D...i.#.i.X.i.i.X.i.X.i.X.X.i.X.i.i.} i...i.{ C d ' X.i.;.;.;.-.i.i.X.i.A i.i.X.i.i.A i.i.X.i.A *.X.*.;.-.;.;.i.*.-.i.X.i.i.X.i.X.i.X.i.i.X.X.i.C d V ' #.i.;.;.X.i.A i.i.i.X.i.A i.X.i.i.i.*.i.;.i.X.i.",
"D.{ i.X.*.X.X.*.X.X.i.*.*.i.i.*.} i.i.} X. .i.C V ..i.;.;.X.-.-.A A i.X.i.i.A i.A X.i.i.A i.X.i.*.*.;.*.#.;.*.-.i.*.*.X.X.X.*.X.i.A i.A i.X.i.A i.V V X.i.X.;.#.i.X.i.i.A A i.X.i.X.i.X.X.*.*.*.-.-.} i."
};
