/* XPM */
static char *result[] = {
/* columns rows colors chars-per-pixel */
"100 50 230 2 ",
"   c black",
".  c #000607",
"X  c #0B0000",
"o  c #140000",
"O  c #1B0400",
"+  c #051111",
"@  c #2C0000",
"#  c #380700",
"$  c #3D1705",
"%  c #3B1B17",
"&  c #100734",
"*  c #300C2E",
"=  c #132931",
"-  c #302836",
";  c #410700",
":  c #431607",
">  c #600000",
",  c #4A2D08",
"<  c #532E00",
"1  c #43241C",
"2  c #782800",
"3  c #432A25",
"4  c #4D362C",
"5  c #503B33",
"6  c #503E3B",
"7  c #524039",
"8  c #6A502B",
"9  c #726535",
"0  c #000044",
"q  c #0D134D",
"w  c #242746",
"e  c #34334A",
"r  c #2C3254",
"t  c #2B365B",
"y  c #333B5B",
"u  c #000079",
"i  c #2D2F79",
"p  c #60155F",
"a  c #4E3750",
"s  c #463A72",
"d  c #622360",
"f  c #38435E",
"g  c #3E4F6E",
"h  c #594946",
"j  c #524C56",
"k  c #684F4A",
"l  c #675B58",
"z  c #766248",
"x  c #6C605C",
"c  c #434C63",
"v  c #444C6B",
"b  c #43546C",
"n  c #4A556B",
"m  c #535669",
"M  c #465773",
"N  c #465876",
"B  c #4B5C75",
"V  c #4B5D7B",
"C  c #535C75",
"Z  c #69506A",
"A  c #7A5677",
"S  c #4D617E",
"D  c #53637D",
"F  c #57657D",
"G  c #746A65",
"H  c #796D66",
"J  c #726675",
"K  c #7D7776",
"L  c #9B0000",
"P  c #A40400",
"I  c #AC3A00",
"U  c #8E4608",
"Y  c #B05114",
"T  c #AB5633",
"R  c #8C7450",
"E  c #A66754",
"W  c #805C7E",
"Q  c #89716F",
"!  c #857978",
"~  c #BB7B66",
"^  c #9F8950",
"/  c #8C8579",
"(  c #AC8A6A",
")  c #B4986C",
"_  c #B49D79",
"`  c #C18A78",
"'  c #000098",
"]  c #313490",
"[  c #5A599E",
"{  c #4E6382",
"}  c #4D6489",
"|  c #536683",
" . c #556985",
".. c #596B84",
"X. c #526689",
"o. c #556A8B",
"O. c #5A6E8D",
"+. c #5D718E",
"@. c #4F6C98",
"#. c #566D92",
"$. c #5A6E91",
"%. c #506C98",
"&. c #5D7293",
"*. c #5E759A",
"=. c #766F86",
"-. c #63748C",
";. c #617595",
":. c #657996",
">. c #6A7A94",
",. c #61769A",
"<. c #647A9C",
"1. c #697D9C",
"2. c #4D51AD",
"3. c #5A6DAF",
"4. c #6C6EAE",
"5. c #667CA1",
"6. c #697EA2",
"7. c #5F69C8",
"8. c #696ECA",
"9. c #6B72CB",
"0. c #6A73D8",
"q. c #6D7AE5",
"w. c #717FEA",
"e. c #717FF1",
"r. c #84538C",
"t. c #93678B",
"y. c #9F7AA0",
"u. c #AC7FB2",
"i. c #6C819E",
"p. c #74849D",
"a. c #79889E",
"s. c #6A81A6",
"d. c #6C84A9",
"f. c #6983AC",
"g. c #7285A5",
"h. c #7888A3",
"j. c #7D8BA3",
"k. c #7087AB",
"l. c #7289AD",
"z. c #788CAC",
"x. c #758DB2",
"c. c #788FB4",
"v. c #748FB9",
"b. c #7790B6",
"n. c #7991B6",
"m. c #7690BB",
"M. c #7D94BB",
"N. c #7481EA",
"B. c #7684F4",
"V. c #7988F8",
"C. c #898686",
"Z. c #928C86",
"A. c #9A958D",
"S. c #9A9993",
"D. c #B09289",
"F. c #A29C9C",
"G. c #BBA888",
"H. c #A8A39B",
"J. c #B3A796",
"K. c #8390A4",
"L. c #8295B5",
"P. c #8598B7",
"I. c #8097BD",
"U. c #8299BD",
"Y. c #8B9DBD",
"T. c #A88CA9",
"R. c #B78DB6",
"E. c #B994BA",
"W. c #ABA8A5",
"Q. c #B2AFAA",
"!. c #B5B2AD",
"~. c #BAB5AA",
"^. c #BCBAB4",
"/. c #C79888",
"(. c #D1B68D",
"). c #CAA696",
"_. c #D2B4A2",
"`. c #C2BFB8",
"'. c #D9C096",
"]. c #C5C2BC",
"[. c #DCC7B9",
"{. c #EAD0AC",
"}. c #E8D3B6",
"|. c #839BC1",
" X c #889DC0",
".X c #BE95C3",
"XX c #8FA1C1",
"oX c #91A3C3",
"OX c #96A8C7",
"+X c #8291FF",
"@X c #C39BC9",
"#X c #CEA6D5",
"$X c #D1ADD2",
"%X c #D5AADA",
"&X c #DDB4E3",
"*X c #E2B6E9",
"=X c #E6BBEB",
"-X c #EABEF1",
";X c #F1BEF9",
":X c #C8C6C1",
">X c #CCCAC4",
",X c #D4CDC9",
"<X c #D4D3CC",
"1X c #D5C6D4",
"2X c #D9D8D3",
"3X c #DCDBD5",
"4X c #E1CEC5",
"5X c #E7D9C4",
"6X c #E4DDD7",
"7X c #EEE1C7",
"8X c #F8E6C6",
"9X c #E3E3DD",
"0X c #EBE4DA",
"qX c #F5EBD6",
"wX c #FDF2DD",
"eX c #E4C6E7",
"rX c #E8DCE6",
"tX c #ECC2F3",
"yX c #F3C8FA",
"uX c #DFE0ED",
"iX c #EAE8E5",
"pX c #ECEBE4",
"aX c #F2ECE8",
"sX c #F7F4E8",
"dX c #F5F5EE",
"fX c #F7F7F0",
"gX c #F7F8F2",
"hX c #FBFBF4",
"jX c #FDF6F8",
"kX c #FFFFFB",
/* pixels */
"OXXXXX X XoXOXoXoXOXOXoXoXoXoXoXOXoXXXoXOXXXXXU.n.Y.XXY.XXXX XY.XXOXOXoXoXoXoXoXoXOXoXoXoXXXoXoXoXoXoXXXXXXXXXoXoXoXXXOXXXOXXXXXoXoXoXoXoXoXoXoXXXU.L.Y.oX XoXoX XY.oXOXoXoXoXoXXXOXXXXXOXXXOXXXXXXXXXOX",
"U.v.m.m.v.v.b.m.v.v.v.v.v.v.v.v.m.m.m.m.m.m.v.*.%.s.M.m.m.m.m.M.m.m.v.v.v.m.m.v.m.m.v.m.m.m.v.v.v.v.m.m.m.m.m.m.m.m.m.m.m.m.m.m.v.m.m.m.v.m.v.v.v.*.@.5.m.m.m.m.m.m.m.v.m.m.m.m.m.m.m.m.m.m.m.m.m.m.m.M.",
" XM.U.U.U.U.M.U.|.I.I.I.I.I.|.I.M.|.M.M.M.M.f.5.5.5.k.M.M.U.U.M.M.U.U.U.U.U.U.U.|.M.M.U.|.U.U.|.U.U.I.I.M.|.|.M.|.M.|.U.|.M.M.M.U.M.M.U.|.U.U.M.5.5.5.5.k.M.M.M.I.I.I.I.|.M.|.I.|.|.M.M.M.M.M.|.|.M.M.|.",
" Xm.M.M.M.m.M.M.M.M.M.M.M.M.M.m.M.M.M.M.m.s.%.n.v.*.5.f.b.b.n.b.m.M.m.M.c.m.M.M.M.M.M.n.m.M.M.M.M.M.M.M.M.M.n.n.M.M.M.M.M.M.M.M.M.M.M.M.m.M.c.5.*.M.f.5.5.f.b.v.M.c.c.I.m.M.c.c.M.M.M.M.M.M.M.M.M.M.M.|.",
"n.l.x.x.x.c.c.x.l.x.c.m.M.M.c.x.b.b.b.l.s.*.n.M.x.s.5.*.f.l.v.l.x.c.c.b.x.x.x.x.m.x.x.n.b.c.x.l.l.l.l.x.l.x.x.b.x.x.l.x.b.m.M.M.m.n.c.n.v.v.6.*.v.M.x.s.5.*.6.x.x.x.l.x.x.c.l.x.x.b.x.x.l.c.b.x.m.x.x.c.",
"n.d.k.d.d.x.x.l.k.k.k.x.x.x.c.x.k.b.k.5.*.x.|.f.s.f.d.*.*.s.x.x.x.x.x.l.d.x.x.x.m.m.o.  .   g v.x.b.v.x.d.f.k.l.x.x.d.d.l.x.c.c.x.x.l.x.d.5.*.l.|.f.s.d.6.5.*.s.x.x.x.x.x.x.k.x.x.x.x.k.k.l.x.x.k.d.d.x.",
"P.m.n.x.x.x.x.c.l.v.l.x.x.l.c.M.l.b.5.*.l.M.f.s.d.s.d.d.*.*.f.m.c.m.b.x.l.x.M.m.v q C.>X`.,XQ.g v y &.M.M.n.n.l.x.x.x.x.x.x.x.x.c.n.v.v.5.*.x.|.f.d.d.s.f.s.*.*.k.c.M.b.M.x.l.v.M.n.n.b.l.c.M.n.v.x.b.U.",
"P.b.n.n.c.m.m.n.b.v.M.c.c.M.b.c.m.s.@.x.XXf.s.s.s.f.s.s.f.5.*.d.M.M.M.b.b.M.k.>.C.Q :XkXkXaXH.  Z./ t.*.<.;.d.M.c.M.n.m.c.m.b.c.n.m.x.6.#.x.|.s.d.d.s.s.f.f.f.5.*.6.b.M.x.b.M.b.n.n.n.n.n.n.n.n.b.n.n.M.",
"P.x.n.n.n.n.n.n.b.M.m.n.n.c.M.c.s.%.c.n.f.d.s.f.f.s.s.s.s.f.*.*.6.m.b.M.c.I...k hXkXfXsXgX/ . K gXkX].  5 ; F M.x.c.c.n.x.x.m.n.v.x.5.#.x.m.d.s.f.5.s.s.s.s.d.s.5.*.6.m.x.b.M.b.M.M.x.c.b.n.n.n.n.n.c.M.",
"P.x.n.b.n.c.c.c.c.x.b.b.c.n.x.5.#.l.n.k.s.d.s.s.s.s.s.s.s.d.s.*.*.6.b.x.L.y F.aXaXfXkXsX% ,XaXpXfXfXsXpXpXdX~.  h &   f U.U.n.c.x.5.#.x.m.l.6.f.s.s.f.s.s.s.f.s.5.5.*.f.M.b.x.c.x.x.c.c.b.b.x.n.n.n.x.L.",
"M.x.b.x.c.c.b.c.c.c.c.x.v.x.5.*.f.n.f.s.d.s.s.s.s.s.s.f.s.f.f.f.5.*.d.x.|.q H.kXkX4XD.S.].pXhXfXfXfXfXhXhXhX0X!.  _ (.( t t ,.m.5.5.z.n.k.s.f.s.f.s.s.s.f.s.s.f.f.6.5.*.f.x.c.c.b.c.c.c.b.b.x.c.x.n.x.M.",
"M.x.b.x.x.x.x.x.x.x.x.c.x.5.*.6.M.f.s.s.s.s.s.f.s.f.s.s.s.s.s.s.5.*.5.6.1.& ! <X<XE 2 S.hXhXdXfXfXfXdXdXdXdXhXdXA.G.{.5XZ.R K o.V | x.k.6.d.s.s.s.s.f.s.s.s.s.s.f.6.5.*.*.6.v.x.c.x.x.c.x.c.x.c.c.z.x.n.",
"L.z.x.x.x.x.x.x.x.x.x.x.5.#.d.|.5.s.f.s.s.s.s.f.s.f.s.s.s.s.f.s.6.5.*.O.: 5 5 @ 3   !.kXsXfXfXfXfXfXdXdXdXdXdXdXkXj H.kXkX8X_ o , ; | s.5.s.s.f.f.s.f.s.s.s.d.f.f.6.f.6.*.*.l.v.x.x.x.x.x.x.c.l.x.x.x.n.",
"M.z.x.x.x.x.z.x.x.x.x.5.%.d.M.s.s.s.s.s.s.s.s.s.s.s.s.s.s.s.5.s.l.v   @ L [.dXpXfXl Z.kXdXfXfXfXdXdXfXkXkXkXhXhXfXx W.kXdXfX5X(.Y R.r.. d.s.s.s.s.s.s.s.5.f.s.s.f.6.5.5.5.*.,.6.c.x.x.x.z.x.x.x.l.c.z.n.",
"M.l.x.x.x.x.x.x.x.x.5.#.d.c.d.6.s.s.s.s.s.s.s.s.s.s.5.s.s.s.k.s.q ( _.<X4XaXhXhXkX<X3XhXfXfXfXfXhXkX<XC.F.A.Z.Q.kXG W.kXdXfXsX5X> &X*XE.c 1.s.s.s.s.s.5.5.s.s.5.5.5.5.5.5.5.*.%.6.x.x.x.x.x.x.x.x.x.x.c.",
"z.s.k.k.d.k.d.l.d.1.#.d.x.s.5.5.s.s.*.s.s.*.5.5.5.*.*.5.5.X.N F C.,XwXhXhXhXfXfXdXkXhXdXfXdXfXdX>X<XW.p Z d d J <X7 W.kXdXdXkX0XR .X%XE.O &.s.<.5.5.5.*.*.5.5.<.5.5.5.*.5.*.*.*.*.6.d.k.k.k.d.s.s.d.d.l.",
"z.i.s.s.s.k.k.s.5.#.6.M.6.,.*.*.5.5.*.5.5.*.*.5.<.5.*.*.<.m , G hXhXdXdXdXdXhXfXdXdXdXfXfXfXjX6X* X t.%X#X#X%X@X@   !.kXdXdXhXsX{.8   X - +.5.*.*.*.5.,.*.*.5.<.<.<.5.*.,.5.<.*.$.$.5.k.k.6.6.6.s.s.s.d.",
"z.f.l.d.s.l.l.i.#.5.M.6.6.6.5.5.5.*.*.5.5.5.5.*.5.5.s.s.X ].fXpXdXdXfXfXfXfXdXfXgXgXgXfXdXkX].h @X@X.X@X=X=X-X%XT X W.kXdXfXdXdXdXH y -...;.1.5.,.5.5.6.5.5.s.*.5.5.*.5.5.5.5.,.*.*.$.f.f.k.f.l.l.d.s.z.",
"n.k.k.l.l.f.i.} 5.M.6.5.6.6.6.6.5.5.6.6.5.5.5.5.1.d.@.- ) 0XhXfXfXfXhXdXfXfXfXfXgXdXfXfXdXkX!.  @X&X*X*XtXyXyX&X2 ~.iXgXfXfXdXfXhXH r ;.$.,.1.5.6.6.5.5.5.5.5.5.5.5.5.s.5.6.5.5.6.5.#.$.f.x.l.l.l.l.l.x.",
"n.k.k.k.l.s.} s.x.6.5.5.5.5.5.5.5.5.5.5.5.5.5.5.5.o.=.H.8XsXfXfXfXfXdXfXdXfXdXdXdXgXfXfXdXhX<XF.%X-XtXyXtX#X@XR.. pXkXdXfXfXfXfXhXH w +.O.,.,.5.5.5.5.5.5.5.s.5.5.5.5.6.5.5.5.5.5.5.<.*.$.6.l.k.l.l.d.x.",
"x.d.l.k.s.} s.l.6.5.5.5.5.5.<.5.5.5.5.5.5.5.5.5.k.& A.kXfXfXdXfXfXfXdXfXdXdXdXdXgXgXdXjXfXdXjXjXtXtX-X*X-XA   * @ 2XhXdXfXfXfXfXfXH r +.O.*.<.<.5.5.5.5.5.<.5.<.5.5.5.5.5.5.5.5.5.5.5.,.o.*.5.l.k.l.d.z.",
"z.d.k.*.} i.x.d.5.5.5.5.<.5.5.5.5.5.<.5.5.5.5.<.g.0 Z.hXdXdXhXfXfXdXfXkXkXkXhXhXdXfXdXdXfXfXdXdXdXkX`.X < 8.B.0.@ 9XkXfXdXdXfXfXfXH r :.&.*.<.5.5.5.5.<.5.5.5.5.5.5.5.5.5.,.5.5.5.5.5.5.5.#.$.6.k.l.d.x.",
"n.s.i.@.*.f.s.i.5.5.5.5.5.5.5.5.5.<.5.5.5.5.5.<.f ( [.gXdXfXhXdXsXkX3XK ! ! F.eXfXdXdXfXfXfXfXfXjX!.1.7.7.q.V.q.  G ! W.kXdXdXfXfXH t ,.*.<.5.5.5.5.5.5.5.5.5.5.5.5.5.5.5.5.5.5.5.5.5.5.5.,.$.#.s.k.d.l.",
"z.i.#.*.b.s.i.*.,.,.5.,.5.,.5.5.5.<.5.*.<.<.1.<.  _.wXfXdXfXfXdXfX2XJ.R F.R Q u.rXdXhXdXfXfXfXdXhXz ' +XB.B.0.4.F.S.! A ].sXhXfXdXH t 1.&.<.,.1.5.<.<.5.*.5.<.<.,.5.<.<.5.5.*.5.,.5.,.5.,.5.,.$.O.s.k.i.",
"i.} i.l.,.*.,.<.*.;.<.;.*.;.5.;.*.*.*.*.*.;.$...1 ,XkXdXfXfXdXfXhXK R 8XhXwX_ . u.rXjXfXfXfXfXdXgXA.[ w.0.B.2.9 kXkXrX@X3 <XdXfXdXH r ;.$.&.*.*.*.*.;.*.*.*.5.;.*.,.*.*.,.,.;.,.5.,.*.*.*.&.*.;.#.#.#.*.",
"&.} *.l.*.#.*.$.$.*.*.*.*.$.*.*.&.*.1.;.&.<.V 4 '.qXgXdXfXfXfXdXkXC.A.kXqXhX].@ % <XkXfXfXfXsXjXhXhX^.  : w.2.9 hXhXaXsXhXG Q.kXdXK r ;.,.,.*.,.#.*.*.,.;.$.*.*.&.*.$.*.$.*.$.*.*.$.*.*.,.*.*.*.#.X.X.+.",
"k.#.#.*.,.,.*.,.,.,.*.*.,.*.,.,.*.<.<.*.,.5.B 4 0XsXgXdXfXfXfXfXkXp.R 8XkXwXG..   <XhXsXfXhXkXsX( qXdX`.% e 2.9./ @XrXhXgXl Q.hX}.z t ;.;.,.,.,.*.*.,.,.,.,.,.,.*.,.,.;.;.*.,.*.,.,.,.<.,.,.,.$.o.i.s.*.",
"n.5.&.o.,.<.,.,.,.<.,.,.,.,.5.,.<.,.<.<.,.1.B 5 aXhXdXgXdXhXdXsXhXD.U G.].G.G.W.W 3XkXjXjX4X`.[.).rXkXaX# s 8.e.] =.T.,XkXk !.sX) l M ;.;.,.5.,.<.,.5.,.,.5.,.<.<.,.5.,.,.5.,.<.;.5.,.,.<.,.$.o.<.x.l.i.",
"z.s.6.$.o.*.<.<.5.,.,.,.,.,.,.<.<.*.<.,.*.<.B 5 pXhXdXfXfXfXfXfXjX_.T o X   F.hX#XiXdXaXaX/.I ` jXhXdX<Xa 0.e.e.V.-., K pXK !.3XX B O.$.;.<.,.<.,.5.,.,.,.,.,.<.<.,.5.,.,.,.,.<.<.,.,.5.<.#.o.,.x.d.s.g.",
"z.s.g.i.#.X.$.,.,.,.,.,.,.,.;.;.,.<.,.<.;.;.n 5 dXhXdXdXfXfXfXfXsXjX`.P %   A #XaXkX[.P I 6XkXjXsXkX`.q e.e.e.e.N.uXhX3X  iX^.  ..D o.+.;.;.,.,.>.,.;.,.,.,.,.,.,.,.;.,.,.<.,.,.,.,.,.,.#.| 4.L.s.g.s.l.",
"h.5.s.s.1.o.X.*.,.*.,.,.,.;.,.,.,.;.,.;.&.&.B 1 x <XkXdXfXfXfXfXdXhXaX6X2X2X6XiXdX7X5XiX0X).` ` ~ aX`.0 V.V.9.s u iXkXhX9XqXG.  F | o.$.;.,.;.;.;.,.,.,.,.,.,.;.,.;.;.,.,.,.,.,.,.,.,.$.X.5.z.6.i.s.s.h.",
"z.1.s.s.s.1.#.X.$.5.*.;.,.,.;.,.*.;.;.*.&.&.n : R 3XkXdXfXfXfXfXdXdXfXhXkXkXhXjXjXqX}.[.4X_.).)./.sX`.X 4.3.i # ^ ,X1X^.>XG.R y F | O.$.&.*.*.*.,.,.;.;.;.,.;.*.,.;.;.*.;.;.;.;.,.;.#.X.>.l.z.6.s.i.i.h.",
"L.6.6.6.6.6.6.$.X.$.;.*.*.;.;.*.;.,.,.;.$.&.M 6 '.qXgXfXgXgXdXgXfXfXdXdXdXdXdXfXdXkX,XY T qXkXkXkXkX].7 # < a ! }.%Xr..     y | | o.+.&.*.*.,.*.,.;.,.*.,.,.,.&.,.,.,.,.*.;.;.,.&.$.X.,.g.6.6.6.s.s.i.s.",
"K.6.6.6.6.6.6.,.#.X.$.*.;.*.*.&.&.&.&.;.&.O. .D   >XkXfXdXdXdXgXfXfXfXfXfXfXfXfXfXdXsXfXdXdXsXdXdXdXhX9XX u.%X;X;XyXR.  F D D S  .o.+.&.&.&.&.&.&.*.&.*.,.$.&.,.&.&.;.&.&.&.*.,.$.X.&.k.g.6.6.6.i.i.s.k.",
"6.6.1.6.6.6.6.6.<.X.| $.&.O.O.$.#.#.&.$.o.o. .D b m G.8XhXhXgXdXdXdXfXfXfXfXfXdXfXfXgXhXkXfXdXdXdXkX>X! R.&XyX=XW J k @ g B S D { o.o.$.&.&.o.$.&.&.O.&.$.O.$.$.,.&.,.*.-.O.$.O.X.$.l.6.6.6.6.6.i.s.i.i.",
"1.*.;.,.<.1.<.<.<.;.X.X.o.O.$.&.O.$.$.X.O. .{ V D q k _ !.5XsXhXhXhXhXdXdXfXdXhXgXfXgXpXQ.pXkXhXfXkX^.  y.R.E.T.- = e j b b B S  .+.o.#.+.o.$.O.#.$.O.O.$.O.O.O.$.$.o.O.O.[ O.X.&.g.1.<.6.;.,.,.&.&.&.i.",
"6.,.1.<.1.,.,.<.5.6.<. .{ o.&.&.$.&.$.&.#. . .S M S f   . ) {.9X9X9XpXfXfXdXsXsXsXdXgXpXh >X0X9X9XpXQ.  O .   + D | ..| F B V { O.+.&.&.&.&.&.#.$.O.O.O.$.$.&.O.$.o.O.$.&.o.{ *.d.1.,.<.1.<.&.<.*.<.<.1.",
"K.4.1.6.6.1.1.1.6.5.5.;.o.| #.*.&.&.*.&.&.o.o.| S S B D F e O # 1   F.kXfXkXqX{.{.qXfXdXkXC.  $ @ @ a | D F | D C D F ..+.o.{ { $.#.&.&.&.&.&.&.&.$.$.&.&.&.&.$.$.$.$.;.o.{ ,.6.6.1.1.5.s.5.1.*.i.s.i.s.",
"h.,.6.6.6.6.1.6.6.6.6.6.&.o.{ $.&.$.&.&.&.&.+. . .S S n B n f g c f m Q K K H 9 8 7XjX=X$XG = D n n B D D D F F  .....-.;.:.&.| } +.&.&.&.#.&.&.&.&.&.&.&.&.&.&.$.&.$.o.| $.6.6.1.6.6.5.1.1.i.i.s.5.1.s.",
"h.1.1.1.1.1.1.1.1.1.1.1.s.&. . .O.+.&.&.+.&.+.O...F D D B B B B b b f w = * w r q S.&X;X&XA - ..D F F D F F  .....O.O.;.;.<.1.;. .{ +.&.&.+.+.+.&.&.&.$.&.&.&.$.&.&.o.| O.h.6.6.i.1.1.1.1.1.<.i.1.1.1.p.",
"h.<.1.1.1.1.1.1.i.:.i.i.i.<.&.{ | O.O.&.+.&.O.+.O. .S S S S B b g n ....F F F F +.O t.&XeXJ e ..S F F ........+.-.+.;.:.:.1.<.1.@.S { +.+.+.@.+.+.+.&.+.+.&.+.&.$.X.| O.s.i.1.1.1.:.1.1.i.i.:.<.1.1.1.i.",
"h.,.1.1.1.<.<.1.<.i.<.<.<.i.i.+.{ { O.$.$.O.+.$.O.O.O. .D S B b B ..F F F F D D N R U   O n F F ....+.+.+.-.+.&.;.:.:.:.1.1.1.1.i.+.{ } #.+.+.+.&.#.+.#.+.+.#.&...{ O.6.1.1.1.1.1.1.<.1.<.<.<.i.<.1.1.i.",
"g.;.1.>.:.1.1.<.i.:.i.<.:.i.i.:.&.{ { O.$.+.O.+.i.S O.O. .S M S +.+.....F F F F S J Z B B S D F ..+.+.+.:.:.-.:.<.:.1.1.1.1.1.<.i.+.+.S S +.+.+.+.+.+.+.O.O.#. .V +.1.6.i.1.1.1.1.1.1.:.:.i.<.:.<.1.<.i.",
"p.<.>.<.1.<.:.:.:.;.:.i.:.:.*.i.1.&.V | O.O.O.O.O.O.O.O. .S D i.>.+.+.+...+.+.F F S S F F F  .D +.-.:.:.:.:.:.i.:.:.:.:.;.>.:.:.i.i.i.S { S o.+.+.o.O.O.O.O. .S O.>.1.1.:.:.:.:.:.:.:.1.:.:.i.i.:.>.:.i.",
"p.&.;.+.:.;.-.&.+.+.;.:.+.&.:.:.:.:.+.S D o.o... .o.O. .N S i.i.+.-.+.+.+...+.F ..F F D F F O.i.+.&.:.:.&.+.:.:.&.+.+.+.;.;.+.-.i.i.O.i.+.S S  .o.o. . .+. .S o.1.1.;.;.:.;.;.:.;.:.:.:.:.:.:.:.:.:.+.i.",
"i. .+.+.+.;.+.O.+.+.+.&.+.+.+.&.+.+.;.o.V { | |  . .S S S i.i. .+.+.+.+.+.+.+.+.O. .D F  . .D i.+.+.+...+.+.&.;.+.+.+.+.&.;.+.+.+.o.O.i.i.o.S S S  . . .S S  .i.>.;.&.-.+.+.;.+.;.:.+.;.+.;.&.+.:.:.+.+.",
"i.+.;.+.;.;.;.;.+.+.+.:.i.+.;.;.&.+.;.:.+.S S  .O.S N S i.i.+.i.&.+.&.+.-.&.&.+.+.F S S  .D  . .+.:.&.i.:.+.;.:.:.;.+.+.+.;.:.&.+.i.+.+.+.i.o.S S o.o. .S { i.*.<.;.&.&.;.;.&.:.;.+.+.+.+.+.+.O.+.+.&.i.",
"i.:.:.1.>.:.>.:.:.:.:.:.:.:.:.>.:.:.:.1.;.+.S { S S  .i.i.i.i.i.i.:.i.:.i.:.i.:.i.+.i.+.i.+.i.+.:.:.:.:.:.:.:.:.:.:.:.:.:.;.i.:.+.i.i.+.+.i.i.+.S S S S F i.i.i.:.>.:.:.>.:.:.:.:.i.:.:.:.:.:.:.;.&.;.>.",
"i...+.+.+.+.+.+.&.+.&.&.&.&.+.+.i. .i. .i. .D N N S +.i.+.+.+.+. .i. .i. .i. .+.i.+.+.+.+.+.i.&.+.+.&.+.&.+.+.&.+.&.&.+.&.&.+.&.&.+.i.+.+.+.&.&.{ g N { &.i.O.#.+.&.&.&.&.+.&.+.+.&.+.+.&.+.&.+.+.+.+.:.",
"K.p.j.j.a.a.a.a.a.a.a.a.a.a.a.a.a.a.i.p.p.p.p.i.i.i.a.i.a.a.a.a.p.p.p.a.p.a.a.p.p.a.a.a.a.p.p.a.a.a.a.a.a.a.a.a.a.a.a.a.a.a.a.a.a.a.p.p.a.a.a.a.a.i.-.p.j.a.a.a.a.a.a.a.a.a.a.a.a.a.a.a.j.a.a.a.a.a.a.j."
};
