/* XPM */
static char *result[] = {
/* columns rows colors chars-per-pixel */
"100 50 228 2 ",
"   c #000000",
".  c #090000",
"X  c #150504",
"o  c #1C0000",
"O  c #000019",
"+  c #240201",
"@  c #310100",
"#  c #3A0804",
"$  c #371210",
"%  c #050026",
"&  c #00002B",
"*  c #000036",
"=  c #00173F",
"-  c #2B092E",
";  c #14212C",
":  c #322833",
">  c #480000",
",  c #4E1309",
"<  c #513107",
"1  c #71220F",
"2  c #483526",
"3  c #583E2C",
"4  c #472E30",
"5  c #564200",
"6  c #54453B",
"7  c #66553B",
"8  c #010D4D",
"9  c #1B1447",
"0  c #2B2749",
"q  c #35374C",
"w  c #343B53",
"e  c #323F5F",
"r  c #480042",
"t  c #493645",
"y  c #542F53",
"u  c #30465D",
"i  c #1E446C",
"p  c #3B4763",
"a  c #335177",
"s  c #554B4D",
"d  c #625049",
"f  c #665A57",
"g  c #746456",
"h  c #434A65",
"j  c #43546C",
"k  c #4B516B",
"l  c #4B546C",
"z  c #4A5A6F",
"x  c #465874",
"c  c #4B5C73",
"v  c #4C5E7A",
"b  c #555C73",
"n  c #535E7A",
"m  c #6F5277",
"M  c #4C617D",
"N  c #53637C",
"B  c #57657D",
"V  c #766B67",
"C  c #706A6B",
"Z  c #786579",
"A  c #7E7773",
"S  c #8E0D00",
"D  c #A50000",
"F  c #A92D00",
"G  c #A8490E",
"H  c #975136",
"J  c #B25930",
"K  c #94595C",
"L  c #AD5849",
"P  c #8A7454",
"I  c #B3674B",
"U  c #8D7174",
"Y  c #837C78",
"T  c #B07661",
"R  c #978671",
"E  c #B0886E",
"W  c #AA9678",
"Q  c #BDA379",
"!  c #C38A77",
"~  c #D5A977",
"^  c #3B5D83",
"/  c #445D82",
"(  c #7F5F84",
")  c #456285",
"_  c #4E6383",
"`  c #4D678B",
"'  c #4F698A",
"]  c #536683",
"[  c #556985",
"{  c #596B85",
"}  c #526689",
"|  c #556A8B",
" . c #5A6D8C",
".. c #5D718E",
"X. c #4F6C97",
"o. c #566D92",
"O. c #5A6E91",
"+. c #5D7293",
"@. c #5A779A",
"#. c #5D749A",
"$. c #636D89",
"%. c #706F87",
"&. c #61738E",
"*. c #617595",
"=. c #647996",
"-. c #687B97",
";. c #61769A",
":. c #647A9C",
">. c #697D9C",
",. c #5C77A1",
"<. c #667CA1",
"1. c #697EA2",
"2. c #647FAA",
"3. c #4B54C2",
"4. c #6D72CB",
"5. c #6D76D9",
"6. c #7279D5",
"7. c #6F7BE5",
"8. c #717DE8",
"9. c #896689",
"0. c #9A7495",
"q. c #9D7B98",
"w. c #9D72A1",
"e. c #A47DA0",
"r. c #6D819E",
"t. c #6B81A5",
"y. c #6681A9",
"u. c #6683A9",
"i. c #6C84AA",
"p. c #7285A5",
"a. c #7D8AA6",
"s. c #7087AB",
"d. c #7289AD",
"f. c #6E8CB5",
"g. c #758DB2",
"h. c #788FB4",
"j. c #758FB9",
"k. c #7991B6",
"l. c #7690BB",
"z. c #7992B8",
"x. c #7D95BC",
"c. c #7C96C0",
"v. c #7584F4",
"b. c #918C85",
"n. c #948D8B",
"m. c #999593",
"M. c #9F9993",
"N. c #A2978B",
"B. c #A49D95",
"V. c #A49F9B",
"C. c #B2A18F",
"Z. c #A8A39D",
"A. c #8491A7",
"S. c #8B93AC",
"D. c #8996AC",
"F. c #959AA8",
"G. c #8C9AB4",
"H. c #8398BB",
"J. c #8E9EBA",
"K. c #AE8CAF",
"L. c #8FA0BE",
"P. c #9EA6B5",
"I. c #9FA8B5",
"U. c #91A2BE",
"Y. c #AAA8A5",
"T. c #B5B2AD",
"R. c #BAB8B3",
"E. c #C69889",
"W. c #C6AA86",
"Q. c #D0B490",
"!. c #D3B896",
"~. c #CFBAAC",
"^. c #D5B5A8",
"/. c #C1BDB7",
"(. c #DBC399",
"). c #E2C69A",
"_. c #C7C4BD",
"`. c #DBC4B8",
"'. c #E9D1AF",
"]. c #EED6AD",
"[. c #EDDBBD",
"{. c #F8E1BA",
"}. c #849CC3",
"|. c #BC93C1",
" X c #8BA1C6",
".X c #94A5C4",
"XX c #96A8C6",
"oX c #99AAC9",
"OX c #ABB5C6",
"+X c #C89ECF",
"@X c #CAA3CD",
"#X c #CDA3D3",
"$X c #D3AAD8",
"%X c #D4B5D5",
"&X c #DDB2E4",
"*X c #E4BAEA",
"=X c #EABEF1",
"-X c #CDCAC4",
";X c #CCCAC5",
":X c #D0CFCB",
">X c #D4D3CC",
",X c #DBD8CF",
"<X c #DBDAD4",
"1X c #DBDAD6",
"2X c #E5D6C7",
"3X c #E5DDD6",
"4X c #F6E5C6",
"5X c #F3E6CD",
"6X c #EEE5D3",
"7X c #E3E2DB",
"8X c #EBE5DB",
"9X c #F6ECD7",
"0X c #EADFE3",
"qX c #F2C6FA",
"wX c #F6CAFB",
"eX c #EDEBE4",
"rX c #EFEEE8",
"tX c #F1EDE3",
"yX c #F1EEEA",
"uX c #EFF0E9",
"iX c #FAF2E2",
"pX c #F7F4EA",
"aX c #F5F4EE",
"sX c #F7F7F0",
"dX c #FAF6F5",
"fX c #F6F8F3",
"gX c #FAFBF4",
"hX c #FEFFFA",
/* pixels */
"OX X.X.X.X.X.XXXXXXX.X.X.X.X.X.XXXXX.X.XoX.X.XH.G.J..X}..X.X XL..XoX.X.X.X.X.X.XXXXXXXXX.X.XXX.X.X.X.X.X.X.X.X.X.X.XXXXXXXXX.X.X.X.X.X.X.X.X.X.X.XH.G. X XL..X.X XJ..XoX.X.X.X.XXXXX.XXXXX.X.X.X.X.X.X.X",
".Xf.l.j.j.j.j.l.j.j.j.j.l.c.j.j.j.j.j.l.j.j.j.,.X.2.x.x.l.l.j.z.l.j.j.j.c.j.c.l.l.l.l.l.l.l.l.l.l.l.l.l.l.l.l.l.l.l.j.x.j.j.j.c.c.}.c.c.c.j.j.j.j.,.X.2.c.c.j.l.z.h.j.j.l.j.j.c.l.l.l.l.j.l.l.l.l.l.l.x.",
"XXj.}.x.x.}.x.x.}.H.c.}.l.}.}.z.H.x.H.c.}.x.2.<.<.<.2.H.H.x.x.H.H.z.}.}.H.}.l.}.x.x.x.x.x.x.x.x.x.x.x.x.x.H.c.x.x.x.}.x.}.}.}.v % 0 0 % O. X}.c.2.#.<.;.1.}.H.c.}.}.H.}.H.}.}.H.x.}.x.x.x.x.x.x.H.c.x.}.",
"XXj.x.x.z.x.x.x.z.x.z.x.l.H.z.z.x.l.x.c.j.1.#.h.d.<.<.2.j.j.h.h.j.H.h.z.g.h.l.H.x.x.x.x.x.x.x.x.x.x.x.x.x.x.z.z.x.x.z.c.g.O.o.m.V.B.B.V.n.X.+.<.#.h.g.<.<.2.g.g.j.h.g.l.j.l.h.g.x.x.x.z.x.x.x.x.x.x.z.}.",
"L.i.g.g.g.h.g.g.g.j.j.h.H.H.h.h.h.g.h.g.y.#.g.x.f.2.1.#.2.g.g.g.d.g.h.j.g.g.h.h.g.g.g.g.h.g.g.g.h.g.d.d.g.h.h.h.h.d.1.H.-.< @ <XhXgXhXhX_.. 2 ..h.H.g.1.<.#.2.d.h.d.s.h.g.h.g.g.h.h.h.g.g.h.h.k.g.g.g.g.",
"J.2.s.i.i.g.g.g.1.1.d.g.g.g.h.g.g.g.d.<.;.s.}.s.2.p.2.<.#.1.g.g.g.g.g.d.2.d.h.d.g.d.i.d.g.g.i.s.i.d.s.s.s.i.d.d.h.d.l.8 U sXeXaXaXaXaXaXeXuXaXV ;.z.s.s.2.<.<.1.g.j.g.g.d.g.2.g.h.d.g.d.i.s.g.d.i.i.i.g.",
".Xg.z.g.g.g.g.h.h.h.g.g.g.g.j.h.g.g.1.#.s.}.i.i.1.1.s.i.<.#.i.h.h.H.h.j.d.g.l.h.z.h.f.h.x.z.g.g.z.z.z.z.h.g.f.d.h.h.U Y.,XfXsXaXsXaXaXdXhXeXB.# & p e 1.s.s.<.#.2.h.h.H.l.d.d.l.z.z.z.h.d.h.x.k.g.g.z.H.",
"U.g.z.z.j.k.k.h.h.z.l.h.h.h.h.j.z.2.o.s.}.i.y.i.s.2.1.i.2.<.#.2.h.j.H.z.h.j.H.h.k.z.h.h.z.h.k.k.z.z.z.z.z.h.h.k.h.H.S 2XhXaXsXsXsXsXsX7X7X-Xf Y Y U Y &.O.<.2.;.#.1.l.h.H.h.h.H.z.h.z.h.z.z.z.k.z.z.z.x.",
"U.g.k.h.k.k.k.k.z.z.h.x.h.z.z.h.2.o.g.z.i.i.i.1.y.t.i.t.i.y.:.#.1.l.j.h.z.h.z.z.h.h.z.z.k.k.k.k.k.k.k.k.k.k.k.g.g.h.  _.hXdXdXfXdXdXgXA   A gXgXdXhXaXs   k g.1.<.#.2.h.h.h.z.h.x.h.z.h.k.k.k.k.k.k.g.H.",
"U.d.k.h.k.k.k.k.h.h.h.h.g.h.h.2.O.s.z.g.1.y.y.1.t.y.1.t.1.1.2.<.<.1.h.h.h.j.h.h.h.h.h.h.h.h.h.h.k.k.k.k.k.k.g.k.H.h.: T N.f V f V Y f -X7X7XsXaXsXpXpX1X7XT.% d.2.<.<.1.h.h.h.h.j.h.h.h.k.k.h.g.k.g.g.k.",
"U.g.h.h.g.g.g.k.h.h.h.g.h.g.1.O.i.z.s.1.i.i.y.i.1.i.t.y.y.i.i.1.<.#.2.h.h.g.h.h.h.g.h.h.g.h.g.h.d.k.g.g.g.k.k.>.n b O S I F.B.V.V o m.eXhXdXsXsXsXsXaXgXhX7Xm.n <.1.<.#.y.h.h.h.h.k.h.g.h.g.d.k.k.g.g.H.",
"U.d.h.g.h.g.g.g.h.h.g.g.g.2.O.i.H.s.2.t.y.t.t.t.2.i.i.t.y.t.y.t.<.<.;.1.h.j.g.g.g.h.g.g.g.h.g.h.g.k.g.g.g.a.g.$.3 d s H ^.hXdXhX;Xf hXfXaXaXsXsXsXaXaXaXaXgXaXd $.2.<.#.#.i.g.j.g.g.h.g.g.h.k.g.g.g.g.k.",
"U.i.h.g.g.g.g.g.g.g.g.g.2.o.i.}.i.1.y.2.2.i.y.i.t.i.y.i.y.i.y.i.2.2.#.#.1.h.g.g.g.g.g.g.g.g.k.h.g.d.k.H.d.    T.dXrXrXaXtXpXpXhXR.# sXsXsXsXsXaXdXgXhXgXdXdXaXsXY k h.1.;.#.i.g.g.g.g.g.g.g.g.k.g.g.d.H.",
"U.f.g.g.g.g.d.g.g.g.g.1.o.i.x.1.t.1.1.i.t.1.i.1.t.t.i.1.1.y.t.1.1.1.2.;.;.2.h.g.g.g.g.d.g.g.d.g.d.x.{ 8 C -X;X7XgXsXsXsXsXsXaXdX7X:XsXsXaXsXaXhX_.n.M.B.b.;XhXgX9.  a u.2.:.+.i.g.h.z.k.g.d.g.g.d.k.d.k.",
"U.u.g.g.g.g.g.g.g.g.:.o.s.h.i.1.y.t.i.1.1.1.1.2.1.<.<.1.1.<.1.<.<.<.<.;.#.O.1.h.g.d.g.g.d.d.g.d.g.r.Y g Z.gXgXgXaXsXsXsXsXsXsXpXgXhXfXpXsXsXaX3Xm.r y y r n.3XdXR s R |  .O.;.#.y.r.-.>.d.g.d.d.h.d.d.k.",
"G.u.s.s.i.s.i.s.i.<.O.t.g.2.<.<.1.<.<.1.1.<.<.<.<.:.:.<.<.#.<.:.<.;.#.;.;.#.O.1.s.s.s.s.s.i.t.s.p.  ~ 4XgXaXaXsXsXsXsXsXsXsXsXdXpXaXfXfXaXfXdX6 w.$X#X#X$X0.2 dXC T.uX  + b 1.O.<.k + + s.s.i.i.i.i.p.d.",
"G.@.i.t.t.i.s.i.<.o.1.h.1.;.;.;.<.<.;.<.<.#.#.;.:.<.;.#.<.;.<.,.#.<.<.<.:.#.#.o.r.i.i.u.t.t.g.] : <XiXpXsXsXsXsXsXaXsXsXsXsXsXsXsXsXsXaXgX7XC K.|.#X=X*X=X$XK.! > T.gX1XeXm.  y   9.#X*X4  .i.t.t.t.t.s.",
"J.u.d.s.i.s.d.>.O.<.H.2.<.1.<.<.<.;.<.;.<.<.;.<.<.2.<.:.<.<.<.<.<.;.<.<.<.:.;.O.o.t.s.i.u.g.o.%._.aXfXaXsXsXsXsXsXgXgXgXsXsXsXsXsXsXsXaXgX<X  |.$X&X=X=X=X=X#XJ # Y.hXsXhX1Xb.# q.#X&XK.b ;.s.d.d.i.t.d.",
"J.u.d.d.d.d.:.o.<.h.1.1.1.2.<.1.<.<.<.<.1.<.<.<.<.<.<.<.<.<.1.<.<.<.1.1.<.<.<.<.o.o.t.d.s.a.t Z.hXaXsXsXsXsXdXpXuX8XrXeXeXyXsXsXsXsXsXaXgX7X$ |.*XqX=X=X=XqX*XI 1 /.gXaXaXhX3X$ =XqXK.  i.g.s.d.d.d.s.g.",
"J.u.d.s.d.<.| <.g.<.1.<.1.1.<.<.<.<.<.<.<.<.<.<.<.<.<.<.<.<.1.1.<.<.<.1.<.<.<.<.:.@.O.u.a.L ~ 4XsXsXsXsXsXsXsX5X!.O @   ( %XaXsXsXsXsXaXgX<X. K.&XqX=X=X=XqX=X  :XhXaXsXsXgX>X  =Xe.; $.} :.s.i.s.d.s.g.",
"J.t.d.d.:.| y.d.2.1.1.<.<.<.<.<.<.<.:.<.<.<.<.<.<.:.<.:.<.:.<.:.<.<.<.:.:.<.<.<.y.#.+.@.,.> `.aXaXsXsXsXsXaXgX_.P W.-X~.E ( %XyXdXsXsXaXdXyX>X*X=XqXqXqXwX$XU ;XuXfXfXfXsXgX8XQ q.b c  .} | :.d.s.s.s.d.",
"J.u.d.:.o.<.d.i.;.<.<.<.<.<.<.<.<.<.<.<.<.<.<.<.<.<.<.<.<.<.<.<.<.<.<.<.<.<.<.<.:.r.:. .Z R ,XgXaXsXsXsXsXaXhXY.7 4XgXiXQ.  w.7XdXsXsXsXsXpX3X%X#X#X#X#X$XK.n.sXgXaXsXaXsXdXpX[.< u  . .O.| O.:.s.d.i.g.",
"J.<.:.o.#.g.t.;.<.<.<.;.;.<.<.<.:.<.<.<.<.<.<.<.<.<.<.<.<.<.<.<.<.<.<.<.<.<.<.<.<.<.,.%.J iXgXaXsXsXsXsXsXaXhXY.V gXaXgX:X+   :XgXaXgXpXgX6XD >   .   o   Z.hXaXsXsXsXsXsXpXdXyXd p  . .*.O.O.o.r.i.s.d.",
"G.@.O.#.h.t.:.:.;.;.<.<.<.;.<.<.<.:.<.;.;.<.:.;.:.<.;.;.<.:.<.:.<.;.;.<.;.+.<.:.;.:.>.B 6 8XsXsXsXsXsXsXsXaXhXY.7 {.gXiXW.    :XhXsXsXaXgX<X2 4.7.7.6.- /.aXaXsXsXsXsXsXsXaXdXpXf p  . .O.;.*.o.o.t.t.r.",
"a.) :.g.;.+.<.;.#.#.<.;.;.;.<.;.#.;.;.O.O.;.+.;.+.#.+.#.:.:.:.:.O.#.;.;.+.O.<.;.+.+.:.x 4 yXgXsXsXsXsXsXsXaXdX~.S W T.C.C.R.9.3XgXpXdXsXgX<X  8.v.v.v.* >XhXaXsXsXsXfXsXsXsXsXaX6 e &. .O.+.;.;. .o.o.+.",
"a./ ;.s.#.+.+.+.+.O.+.+.+.+.+.+.o.;.:.:.#.;.#.o.;.:.;.+.O.#.o.#.#.O.O.#.O.| ;.#.#.+.:.c 4 1XeXaXsXsXsXsXsXsXfX`.J + .   n.gX$X0XsXaXsXaXgX7Xf 6.8.8.5.- /.aXaXsXsXsXsXsXsXsXfXuXY l [ +.;.;.#.O.o.| | +.",
"G.o.o.;.;.;.#.;.;.#.;.;.;.;.;.;.;.:.:.;.;.:.#.;.;.:.:.#.;.;.;.;.;.;.;.;.+.$.;.;.;.;.;.n #   Q 4XsXsXsXsXsXsXfXgX7XF >   m #XaXgXgXgXgXsXsXsXaX5 3.5.  +   V.hXaXaXsXsXsXsXsXsXsXgXM.* >.;.:.#.o.} p.u.=.",
"J.,.;.} #.;.;.;.;.<.;.;.;.;.;.:.;.;.;.<.:.:.;.:.<.;.:.:.:.;.;.:.;.;.<.;.;.*.;.;.:.;.;.v , Q 4XpXsXsXsXsXsXsXpXfXuX2X,X:X2X0X2XW.! ! ! iXgXsXaX8XA.Z !.:X<XT.b.gXgXaXsXsXsXsXsXaXdXB.* 1.:.;.o.| :.d.s.i.",
"G.<.1.#.o.O.;.<.;.;.;.;.;.;.;.;.<.#.:.;.;.;.:.:.;.;.;.:.;.;.:.;.;.;.;.;.;.:.:.;.;.;.+.x s Q 8XgXaXsXsXsXsXsXsXaXsXhXhXgXdXfX4XQ.E.E.E.`.8XfXdX8XF.m !.9XgX<Xb.-XrXgXsXsXsXsXsXaXdXB.* >.;.O.o.:.k.p.t.d.",
"G.<.p.1.O.| O.;.;.;.;.;.;.;.;.;.;.;.;.;.;.:.;.;.;.;.*.;.:.;.;.;.:.:.;.*.;.;.;.:.:.+.} v [   _.gXaXsXsXsXsXsXfXfXaXaXaXaXdXyXdXdXgXpXgXT ^.hXyX< 3.5.X !.6XgXaX  >XgXaXsXsXsXsXaXgXB.& :.| } :.h.t.t.p.p.",
"G.;.1.i.1.O.| O.<.;.;.;.;.;.;.+.;.#.*.*.*.;.;.*.#.#.*.#.*.#.*.#.*.*.;.;.*.;.*.;.;.O._ +.-.  Q.9XfXsXaXsXsXsXsXsXaXpXaXdXiX).I J G ! gXyXaX3Xs 7.8.8.6.t ,XhX7X4 ,XgXaXsXsXsXsXaXdXB.& +._ 1.h.1.r.t.r.p.",
"G.,.p.1.1.1.O.| O.#.;.;.;.;.+.;.*.;.*.#.;.*.+.;.*.;.;.*.*.;.*.;.*.#.+.;.*.+.;.*.| } +.>.&.l g Q.9XdXdXsXsXsXsXfXgXgXdXdXpX9X~.~.~.^.^.eXhX<XO 8. X8.8.9 A >XuX  <XgXaXsXsXsXsXsXhXB.O | ;.p.p.p.t.t.t.p.",
"G.1.1.1.1.1.1.O.} o.;.;.#.*.*.#.*.:.;.*.;.#.*.;.;.;.*.;.*.*.;.*.;.*.*.;.*.;.+.o.} :.>.-.$.*.8 P (.3XuXsXsXaXsXaX8X8X7XtXgXgXhXhXhXaXI 3XhX3X, 6.7.5.5.t # Z.7XV <XgXsXsXsXsXsXaXgXN.% -.t.t.1.1.t.t.t.s.",
"G.1.1.1.1.1.1.:.o.}  .+.*.#.+.+.O.O.+.*.O.*.O.;.+.+.*.O.+.#.+.+.;.+.*.*.O.*. .} :.p.1.-.*.{ { l @   1XhXgXsXhX9X(.F D 2XgXaXaXaXaXaXgXfXdX8XF >   X o   <X:Xo sXgXsXsXsXsXaXsXaX4XP * p.>.r.1.1.r.t.r.p.",
"S.;.1.>.1.1.1.1.:.} }  .+. .O.O. . .O.O. .O.+.+.o.O.+. .O.+.+.+.+.O.*.o.+.O.} O.d.>.:.:.+.$.[ n j j A R N.{.N.d W 3X2XtXsXsXsXsXaXsXsXsX9X[.3X1X1X1X1X1XuXeX,XsXsXaXsXsXsXsXsXaXP s *.=.:.>.>.<.:.1.:.t.",
"S.o.*.;.:.>.>.;.:.:.| } | | O.+.O.o.O. .o.O. . . . .o. .o.| +.+. .o.o. . .} +.s.:.:.:.*. . .N n n _ 0   6 ! 0.m m.hXhXdXsXsXsXsXgXaX9X9X[.'.iXiXiXiXiXgXgXgXgXsXsXsXsXsXsXfXpX6XF.m c ;.:.*.;.;.#.*.+.:.",
"S.#.<.<.>.>.;.;.1.1.:.} ' | +.+.O.*.O.*.O. .O.O.| O.+.+.+.o.| | O.+.&.} _ ;.p.:.=.:.:.;.+...[ [ [ n B { c   *X*X%XdXyXaXaXaXaXuXaX9X).).'.).).(.).(.).9XuXuXiXaXaXaXaXaXaXaX6X).wXe.: <.:.;.+.@.*.<.>.1.",
"G.#.1.1.1.>.>.1.1.1.1.>.| _ | +.*.O.+.+.O.O.*.O.O.O.+.+.+.+.+.o.O.O.| _ ;.1.1.1.>.y.t.>.=.=.+... .[ [ B b @ &XqX&X+XdXhXiX].{.R : d 3 6 3 < 6 3 3 6 6 d : W {.].pXhXgXgX4XW m %X=X=XK.X >.r.:.r.>.1.<.p.",
"S.;.>.>.1.1.>.1.>.1.>.1.+. ._  .+. .O.+.+.*.+.*.+.O.+.+.+...+...O. ._ +.1.1.>.1.<.:.:.r.r.r.r...&. .{ { b @ 9.$XqX&XY.V.C.R R d = q w w q w q u q w w q 0 g R R Z.Z.Z.Y.W g h 9.#XqX@X  =.:.r.r.>.1.>.p.",
"S.;.>.1.>.>.>.>.1.>.>.>.r.:.| _  .+.+.+...+. .O.+.$.+.+.+.+.....| ] +.a.1.>.>.>.r.:.r.>.r.@.+.r.=.*.$. .N t   m.*X$Xt     % O j z j z z M c M z M z c c M u . O   .       z N $ q.*X@X  =.r.+.r.>.>.>.>.",
"S.#.r.:.>.>.>.:.:.>.r.r.:.r.:.] ] }  .+...+. .+.O...O.........| _ +.1.1.>.:.:.:.r.>.:.>.r.r.+.+.r...+...{ { : @ X o N B B B B N M p j z z z z z z z z z z z M c c z z N B B N B   #X%X  r.=.r.=.>.>.-.r.",
"D.#.>.:.-.:.:.r.r.=.:.:.r.:.r.+.} ] | ..O...O...O.....O.O.+.' M  .1.>.>.>.>.>.>.>.>.:.>.r.+.r.r.+.r.r.....{ B z l l c N N N N B { N j j z M c M c c M M c z z z j p z B N N N N G K m N ....=.r.>.>.:.r.",
"D.+.>.>.-.:.>.>.:.r.=.=.=.r.:.r.*.] v |  ... ....... .....[ M | 1.>.>.-.>.=.>.>.=.>.>.=.r.r.r.r.r.r.+.....B N N N N N N B B B B { { [ z a M N N M N M M M M M j h M { B N B N N K 6 u ....r.r.@.:.:.=.r.",
"D.+.-.;.>.>.=.=.=.=.=.r.+.=.-.=.-.*.} M [  ... .[ ..{  .' M ..r.1.-.-.-.=.>.=.-.:.:.>.=.+.r.+.+.r.+.r.r...{ { N N N N B { { { { ......{ M M N B [ [ ] ] B N c j N {  .{ { ..{ B M N  .[ ..+...r.:.-.:.r.",
"D.' &...+.=.........+.=.....=.=.=.=...M M [ | [ ' [  .' M  .r.r.=.*.*.&.*.*.*.=.=.=.=.=.=.+.+.r.....r.{ ..B { [ N N N N  .{ {  .&.&...r. .M M ] [ ] ] ] ] M x ] &...{ ..{ { { [ B { M { ..+.r.+.=.=.&.=.",
"A.] ......=...........=.............=..._ M _ ] | [ M M | r.=...+.&.*. ...&.*.=.........=...r.+.{ ....{ { B { { [ [ [ {  ...{  .....+.......M M _ ] [ ] M v  .r.r.{ { ....{ { B { { B { { ......=.=...*.",
"A. .=...+.=.=.+.......&.=.@.&.=.+...=.=.+.M M ] [ ] M ] r.:.+.=.&.*.*.*.*.=.=.*.+... . ... . .{ +...@.r.{ ......+.+.{ ......=.+...=.....=.=...M M ] | ] M ] t.=.+...{ { r.....{ { { { { { { ..N  . .*.-.",
"D...r.=.r.-.-.r.-.=.r.-.-.r.=.r.=.r.-.=.r.=.] ] B M  .r.r.r.>.>.-.-.-.-.-.-.-.-.r.r.=.r.r.=.r.&.r.r...r.r.r.r.&.r.r.&.r.r.=.r.r.=.r.r.=.=.r.r.=.] ] [ M ..p.-.>.r.r.r.r.r...r.r.r...=.=.r.r.r.r.-.-.-.r.",
"a.^ ' ' ' ' ' ' ' ' ' ' ' ' ' ' ' ' ' ' ) ' ) a i a o.@.` ` ` ` ' ' ' ' ' ' ' ' ' ' ' ' ' ' ' ' M ' ' ' ' ' ' ' ' ' ' ' ' ' ' ' ' ' ' ' ' ' ) ' ) a i ^ o.o.` ` ' ' ' ' ' ' ' ' ' _ ' ' ' ' ' ' ' ' _  .",
"R.J.I.I.I.I.P.P.P.I.P.I.P.P.P.P.P.P.P.P.P.P.I.F.F.P.I.P.I.I.I.I.P.P.P.P.P.P.P.P.P.P.P.P.P.P.I.P.I.I.I.I.I.I.I.I.P.I.I.P.P.P.P.P.P.P.P.P.P.P.P.P.I.F.F.P.I.P.P.I.P.P.P.P.P.P.P.P.P.P.P.P.I.P.P.P.P.P.P.I."
};
