/* XPM */
static char *_bbd0b0e978f4dc6f5b1f7b65967afccf1uK0OWlCEs0utqH[] = {
/* columns rows colors chars-per-pixel */
"50 50 238 2 ",
"   c #000000",
".  c #060009",
"X  c #160004",
"o  c #020013",
"O  c #01001C",
"+  c #230000",
"@  c #2C0000",
"#  c #330101",
"$  c #34111A",
"%  c #372310",
"&  c #000026",
"*  c #1E0021",
"=  c #000033",
"-  c #00003A",
";  c #160039",
":  c #35032B",
">  c #2A1127",
",  c #38292E",
"<  c #4D1200",
"1  c #690000",
"2  c #791800",
"3  c #4D2703",
"4  c #553208",
"5  c #470D2E",
"6  c #482929",
"7  c #453629",
"8  c #523A2D",
"9  c #482637",
"0  c #562C36",
"q  c #4A383B",
"w  c #5F411C",
"e  c #504B2E",
"r  c #59483A",
"t  c #644D2F",
"y  c #7D623D",
"u  c #0D0B48",
"i  c #00005A",
"p  c #311648",
"a  c #3B2E4D",
"s  c #000078",
"d  c #150073",
"f  c #363872",
"g  c #5E1B59",
"h  c #4E364E",
"j  c #5A3645",
"k  c #46336E",
"l  c #304C5E",
"z  c #334F6D",
"x  c #5A4A45",
"c  c #494759",
"v  c #514954",
"b  c #63534C",
"n  c #705947",
"m  c #655858",
"M  c #7E6A53",
"N  c #474C67",
"B  c #5F4162",
"V  c #49596F",
"C  c #565668",
"Z  c #495A74",
"A  c #4C5E7B",
"S  c #555E75",
"D  c #6E516A",
"F  c #4C607E",
"G  c #52637D",
"H  c #5C647D",
"J  c #776C6E",
"K  c #797677",
"L  c #9D2100",
"P  c #AF3700",
"I  c #813F21",
"U  c #AA4A07",
"Y  c #A45218",
"T  c #854C3A",
"R  c #9E3E55",
"E  c #9A6F4A",
"W  c #B66C4F",
"Q  c #B05961",
"!  c #8B666F",
"~  c #887768",
"^  c #887C77",
"/  c #C4737E",
"(  c #A7915C",
")  c #938472",
"_  c #A58C67",
"`  c #AB8D72",
"'  c #B69C75",
"]  c #BDA47C",
"[  c #C59075",
"{  c #C7AB7C",
"}  c #383C8F",
"|  c #3B42A5",
" . c #4B4690",
".. c #504F97",
"X. c #4E6280",
"o. c #566785",
"O. c #566A8C",
"+. c #5A6D8B",
"@. c #57728F",
"#. c #5C718E",
"$. c #556C92",
"%. c #5A6E92",
"&. c #5E7392",
"*. c #5A7897",
"=. c #5C749B",
"-. c #606B85",
";. c #626B84",
":. c #7B6985",
">. c #68728D",
",. c #627693",
"<. c #697596",
"1. c #647896",
"2. c #6E7E96",
"3. c #61779B",
"4. c #657B9B",
"5. c #697D9D",
"6. c #7F7091",
"7. c #5755A7",
"8. c #5D62BA",
"9. c #647CA2",
"0. c #697EA1",
"q. c #6263B0",
"w. c #6974D8",
"e. c #6874DA",
"r. c #8F6D8F",
"t. c #B07791",
"y. c #A77FA9",
"u. c #CA7E88",
"i. c #748092",
"p. c #75849C",
"a. c #6780A7",
"s. c #6C81A5",
"d. c #6D85AB",
"f. c #7384A3",
"g. c #7787A4",
"h. c #7C8BA4",
"j. c #7186AA",
"k. c #7289AD",
"l. c #7A8DAC",
"z. c #758DB3",
"x. c #798FB3",
"c. c #7A91B6",
"v. c #7790B8",
"b. c #7D95BC",
"n. c #7681EA",
"m. c #7987F5",
"M. c #8C8782",
"N. c #938C88",
"B. c #9A968C",
"V. c #998396",
"C. c #9B9A99",
"Z. c #B19988",
"A. c #A39C97",
"S. c #ABA59D",
"D. c #ACA99F",
"F. c #BBA590",
"G. c #8993AA",
"H. c #8395B3",
"J. c #889AB7",
"K. c #8196BA",
"L. c #839ABF",
"P. c #8A9CBA",
"I. c #AE90AD",
"U. c #ACA9A4",
"Y. c #B1A9A4",
"T. c #B5B3AE",
"R. c #BAB5AB",
"E. c #B8A3B9",
"W. c #B9B7B3",
"Q. c #BAB6B2",
"!. c #BCBBB5",
"~. c #CAAE84",
"^. c #CBB184",
"/. c #CBB48C",
"(. c #D3B98C",
"). c #D1B398",
"_. c #CBACAE",
"`. c #D7B9AB",
"'. c #C1BDB9",
"]. c #DAC197",
"[. c #D7C5AA",
"{. c #C3C1BB",
"}. c #CBC5BA",
"|. c #D9C7B8",
" X c #DDD1BC",
".X c #EBD3AB",
"XX c #EDD7B6",
"oX c #859CC2",
"OX c #BC89C5",
"+X c #BC96C2",
"@X c #93A5C4",
"#X c #C299C9",
"$X c #C99AD3",
"%X c #C9A5CD",
"&X c #D8B6CF",
"*X c #CBA2D3",
"=X c #CDA9D2",
"-X c #D4ABDA",
";X c #D4B4D6",
":X c #DAAEE1",
">X c #DCB2E4",
",X c #E4BAEB",
"<X c #E9BDF1",
"1X c #CAC8C3",
"2X c #D1CEC6",
"3X c #D4D3CC",
"4X c #DCD6CA",
"5X c #DAC8DA",
"6X c #DCDAD3",
"7X c #DBD8D5",
"8X c #E6DAC9",
"9X c #E1C9D8",
"0X c #E5DED6",
"qX c #EEE2CD",
"wX c #F4E2C4",
"eX c #F4E5CB",
"rX c #FAE9CB",
"tX c #E4E4DD",
"yX c #ECE5DB",
"uX c #F5EAD4",
"iX c #FAEDD7",
"pX c #FCF2DD",
"aX c #E4D6E4",
"sX c #EDC2F5",
"dX c #F4C8FB",
"fX c #FCD0FF",
"gX c #EBE6E6",
"hX c #EDEBE4",
"jX c #F1EDE5",
"kX c #F2EEEA",
"lX c #F5F5EE",
"zX c #FBF6E9",
"xX c #F5EFF1",
"cX c #F7F7F0",
"vX c #F8F7F1",
"bX c #F7F8F3",
"nX c #FBFBF4",
"mX c #FEFFF9",
/* pixels */
"L.v.b.b.b.b.b.b.b.b.b.b.b.b.b.b.b.b.b.b.b.b.b.d.9.x.b.x.b.b.x.x.b.oXb.b.b.b.b.b.b.b.b.b.b.b.b.b.x.@X",
"oXb.b.b.b.b.b.b.b.b.b.b.b.b.b.b.b.b.b.b.b.b.b.9.=.d.b.b.b.b.b.b.b.b.b.b.b.b.b.b.b.b.b.b.b.b.b.L.b.@X",
"oXb.b.b.b.b.b.b.b.b.b.b.b.b.b.b.b.b.b.b.b.b.9.=.3.=.d.b.b.b.b.b.b.b.b.b.b.b.b.b.b.b.b.b.b.b.b.b.v.@X",
"P.b.b.b.b.b.b.b.b.b.b.c.x.x.c.x.c.b.b.b.x.9.=.b.z.9.3.s.x.x.b.x.x.b.x.x.l.z.c.b.b.b.b.b.b.b.b.K.b.@X",
"c.k.z.z.z.x.x.k.z.c.L.a         o.oXb.z.9.9.b.b.k.s.9.=.s.z.z.c.b.0.        X x.b.x.k.x.x.z.z.z.d.J.",
"x.d.k.d.k.k.z.b.%.u - !.6X3X3X6XC.O p =.9.z.L.d.s.d.s.3.=.d.x.f O K 6X3X3X3X2Xc - A z.k.x.z.d.k.d.H.",
"K.b.c.z.z.z.c.3.K _ A.hXmXnXnXmX3XB.S.S 3.oX9.s.d.s.s.s.9.$.o.A.A.'.mXnXnXnXvXU.` ~ %.x.b.c.z.x.x.P.",
"K.c.c.c.c.c.K.u _ rXnXvXlXlXlXlXvXmXmX) H s.s.s.s.s.s.s.s.o.b lXmXnXlXlXlXlXlXmXiX/.  x.b.c.c.c.x.P.",
"K.x.c.c.c.c.oX= A.nXlXlXlXlXcXlXcXlXlXmXT.; z.k.k.k.d.v.N M.mXlXlXlXcXcXlXlXlXlXvX1X  c.b.c.c.c.z.P.",
"K.x.c.c.c.l.c !.hXmXmXmXnXbXlXcXcXcXcX).I   ; = = = = ;   1 [ jXvXlXcXlXcXnXmXmXmXlX2XC 5.b.x.c.z.P.",
"K.z.x.z.c.j.  tXhXT.{.!.4XpXnXbXcXcXcX`.F.U.S.S.S.S.S.S.U.Y.).kXvXlXcXnXzX8X!.{.W.6XnX3 ,.b.z.c.z.J.",
"c.z.z.z.c.j.  3X!.  5   _ .XgXlXcXcXcXnXmXnXmXmXmXmXmXmXnXmXmXbXcXcXlXjXXX' o 5   N.tX6 ,.b.z.x.z.J.",
"c.z.z.z.x.j.,   r.*X#X*Xr.< P yXnXlXcXlXlXlXlXlXlXlXlXlXlXlXlXcXlXvXlXW 1 J $X#X*XI.  # 1.c.z.z.z.J.",
"c.z.z.z.x.j.+ I.,X,X#X*Xt.Y 0XlXbXcXcXcXcXcXcXcXcXcXcXcXcXcXcXcXcXcXlXyX` R *X+X:X,X%X6 ,.c.k.z.z.J.",
"c.z.z.z.x.j.  -XdX<X:X$X_.|.nXbXcXcXcXcXcXcXcXcXcXcXcXcXcXcXcXcXcXcXcXmX8X_.#X-X,XdXsX0 ,.c.z.z.k.J.",
"l.s.d.d.d.s.X =XdX<XsX=XaXmXlXcXcXcXcXcXcXcXcXcXcXcXcXcXcXcXcXcXcXcXcXlXnXkX=X<X<XsX,X0 +.k.s.d.s.H.",
"j.9.s.s.s.0.  -XdX,X#XgXvXlXcXlXlXlXlXcXcXcXcXcXcXcXcXcXcXcXcXlXlXlXlXcXlXlXlX%X>XdX<X6 o.d.s.s.9.l.",
"l.d.k.d.d.j.5.D +XdXOXgXvXcXbXmXmXmXmXcXlXcXcXcXcXcXcXcXcXcXlXnXmXmXmXnXcXbXlX#X<X-XD <.s.z.k.d.a.H.",
"x.d.k.k.k.z.0.l :.#X5XkXvXlXuX{.T.W.W.lXnXlXcXcXcXcXcXcXlXvXvX{.T.W.!.eXlXbXlXaX%Xr.z z.z.k.k.k.d.H.",
"l.d.k.k.j.+.X.s.Z e vXvXlXyX(.y 8 b 3 2XlXcXcXcXcXcXcXcXcXlXtXn 8 x w { qXlXlXmXB.  4.3.5.s.k.k.d.H.",
"l.d.j.z.S @ # # + J lXbXuX(.* (.uXlX.X4 T.mXlXlXcXcXcXlXnX6XX ].pXzX].6 ] wXcXnXA.  # # @ C z.j.d.H.",
"l.d.d.9.N p w.w.| r lXnX}.w $ 6XvXlXlXb T.mXlXlXcXcXcXlXnX6X+ yXcXlXjXm 3 S.vXnXN.s n.w.k c z.j.d.H.",
"x.d.3.=.S a m.w.6.F.lXmXW.     XzXvXiXx T.mXlXcXcXcXcXlXnX6X@ 8XzXzXqXr   M.nXnX`.^ 8.m. .c d.j.d.H.",
"l.3.O.&.H p m.i ( rXlXnX{.j K {  X6X(.3 W.mXlXcXcXcXcXlXnX6X+ { 4X4X^.^ j A.nXcXiX/.  n. ., O.s.s.h.",
"1.O.s.N   p m.d D.mXcXnX9X%XnX^   % q   W.mXlXbXvXvXbXlXnX6X  , $ @ q lX5X;XnXcXmX2XO m. .  > &.$.p.",
"1.O.  '.hX6Xh O T W W yXvXaX=Xj       1XlXcXlXwX' ~ XXlXvXlX6X7       +XaXlXlX` W E > ; 1XkX3XX z f.",
"1.C Y.lXgXU.q.i ) |.`.jXnXlX5X'.T.W.T.lXnXlXcXuX}.W.eXlXcXvXvX'.T.W.W.5XkXnXlX|.|.F.X 7.C.6XnX!.K ;.",
";.r nXnXR.  m.d A.cXhXlXvXvXnXnXmXmXmXcXlXcXbXbXnXmXnXcXcXcXlXnXmXmXnXnXvXcXlXhXlX}.. m.s ) zXmXN.v ",
";.x kXwX' u n.f 2 U L 0XnXlXlXlXlXlXlXcXcXlXcXlXlXlXlXcXlXlXcXlXlXlXlXlXlXvXlXY P L > w.} E XXvXM.C ",
";.x bXA.< k m.m.7.n gXlXcXcXcXcXcXcXvX~.|.mXlXbXuXwXnXlXnXyX[ jXvXlXcXcXvXcXlXlXN.k n.m...< ~ nXN.C ",
"o.4 uX^   9 7.q.f t uXlXcXcXcXcXcXcXvXT Z.zXvXpX).' uXvXzX[.1 hXvXlXcXcXvXvXlXpX) i q.7.k   q uX~ C ",
">.x (.M * c % % > m ^.yXnXlXcXcXcXcXvXC.` [.6X].` ^ (.6X|.] i.hXvXcXvXcXcXvXlX].~ O 7 7 h a 8 (.M ;.",
"l.4.> @ C k.9.%.$.O.  6XnXlXcXcXcXcXlXmXT.  %   1XgX  #   M.nXlXcXcXcXcXlXvXlXq z 0.k.j.d.+.# + O.H.",
"g.5.5., c d.s.3.O.o.+.v {.mXlXcXcXcXbXcXhXtXgXtXlXlXtXgXtXgXcXcXcXcXcXlXnX6Xm H &.j.s.0.d.o.# 1.4.G.",
"f.9.s.o.+.s.5.0.3.o.%.  V.aXlXcXcXcXcXlXvXnXnXnXvXcXnXnXnXnXlXcXcXcXcXbXgXE.  &.l.0.0.0.0.,.S s.3.h.",
"5.&.&.3.3.4.4.4.4.&.O., r.&XcXcXcXcXcXcXcXlXlXlXlXcXlXlXcXcXcXcXcXcXlXvX9Xy.% f.4.4.4.,.,.4.3.,.%.g.",
"f.3.4.4.4.3.3.4.0.5.5.- _ wXlXlXlXcXlXcXlXlXcXcXcXcXcXcXlXlXcXlXcXlXlXbXeX^.o 1.3.4.5.3.3.3.,.5.3.h.",
"f.9.5.0.0.5.4.5.0.0.s.& Y.nXlXmXnXlXnXJ !.mXlXcXbXbXcXlXmXtXe lXvXcXmXcXvX2X  5.4.5.0.5.4.4.4.s.4.h.",
"f.5.0.0.0.0.5.5.5.5.f.O T.mXvXU.3XnX5X+XI.!.vXcXcXcXlXnX3XA.E.;XxXgXC.hXmX3X  5.0.5.5.5.5.0.0.0.3.h.",
"f.4.5.5.5.5.5.5.5.5.s.& S.zXvXN.U.7X$XfXy.e nXlXbXcXlXmXB.g fX$X5X{.J hXzX}.  5.5.5.5.5.5.5.5.5.3.h.",
"f.4.5.5.5.5.5.5.5.4.s.u _ XXlXmXT.g sXdXI.J vXlXlXcXlXmXS.D sXdXr.K mXcXwX{ o 1.5.5.5.5.5.5.5.5.3.h.",
"f.4.5.4.4.5.5.5.5.5.4.s.S ) mXbXlX3X:   U.cXcXbXbXbXbXbXcX2X:   W.lXcXmXU.h s.4.5.5.4.4.4.4.4.5.3.h.",
"p.1.4.4.4.4.4.4.4.4.s.z < U ).XXzXbX}.{.8XrXeXeXeXeXeXeXrXqX1X{.hXnXwX`.E 1 l 4.5.4.4.4.4.4.4.5.=.h.",
"p.1.4.1.4.4.1.1.1.,.o.:.t.u.Q { [.6X0XtX|.{ ^.~.~.^.~.^.{ ).tX0X7X|.{ Q / t.r.;.,.4.4.4.4.4.4.4.,.h.",
"p.&.,.&.1.1.&.#.&.+.X -XdX,X$XB           .                         : +X>XdX<X0 Z 5.,.1.1.1.4.4.&.p.",
"1.O.+.+.&.&.#.+.+.+.+.v j j 9 U ! @.>.+.A A G G o.G G A G 5.1.;.@.J U 0 j j j +.#.&.#.,.,.&.1.1.O.p.",
"2.,.,.&.,.,.1.,.&.&.,.G V V V ! :.*.1.4.#.F X.O.+.o.F o.s.4.4.,.*.>.! S V V V &.&.#.+.#.#.+.+.#.&.h.",
"p.,.1.1.1.1.1.1.,.,.,.4.5.4.4.*.*.1.1.1.,.#.F F X.A o.5.5.1.1.1.,.1.*.4.5.5.5.1.1.1.,.1.1.,.,.,.&.p.",
"2.&.,.,.,.,.&.&.,.,.,.,.,.,.,.,.,.,.,.,.,.,.O.A Z o.,.4.,.&.,.,.&.,.1.,.,.&.&.,.,.,.,.,.,.,.,.,.+.p.",
"p.2.i.2.2.2.2.2.2.2.2.2.2.2.2.2.2.2.2.2.2.2.2.;.o.2.p.2.2.2.2.2.2.2.2.2.2.2.2.2.2.2.2.2.2.2.2.i.2.G."
};
