/* XPM */
static char *result[] = {
/* columns rows colors chars-per-pixel */
"50 100 234 2 ",
"   c #000000",
".  c #070008",
"X  c #180102",
"o  c #080C19",
"O  c #2B0000",
"+  c #280500",
"@  c #340100",
"#  c #380602",
"$  c #2E1000",
"%  c #3B1804",
"&  c #3A1511",
"*  c #352600",
"=  c #14052E",
"-  c #000039",
";  c #230738",
":  c #092D3B",
">  c #312C2B",
",  c #4C0B00",
"<  c #560000",
"1  c #421700",
"2  c #5D1700",
"3  c #680500",
"4  c #740000",
"5  c #492503",
"6  c #573000",
"7  c #44281A",
"8  c #59241A",
"9  c #643111",
"0  c #4B312B",
"q  c #4A3639",
"w  c #57453C",
"e  c #674A33",
"r  c #7A6220",
"t  c #000742",
"y  c #1C1D48",
"u  c #27284C",
"i  c #272B51",
"p  c #2C3759",
"a  c #323655",
"s  c #3B376A",
"d  c #513A44",
"f  c #633E48",
"g  c #4F3B6E",
"h  c #773968",
"j  c #2B4658",
"k  c #3B425B",
"l  c #384C6D",
"z  c #444655",
"x  c #544C51",
"c  c #66544D",
"v  c #6A4950",
"b  c #665A58",
"n  c #6F675C",
"m  c #434A65",
"M  c #47536A",
"N  c #5B5366",
"B  c #495975",
"V  c #545E75",
"C  c #70576F",
"Z  c #4C627E",
"A  c #54647C",
"S  c #58657C",
"D  c #6E6970",
"F  c #9D0500",
"G  c #A53100",
"H  c #994919",
"J  c #AE4F0A",
"K  c #B65A27",
"L  c #AF5B38",
"P  c #B1585B",
"I  c #8F6B50",
"U  c #B76F4C",
"Y  c #8E4F67",
"T  c #8C6F6B",
"R  c #857C76",
"E  c #B87670",
"W  c #958679",
"Q  c #BB9B6D",
"!  c #BDA172",
"~  c #C38E79",
"^  c #C3917A",
"/  c #CDA878",
"(  c #001791",
")  c #4E578F",
"_  c #4E6383",
"`  c #4A6489",
"'  c #526583",
"]  c #596684",
"[  c #556986",
"{  c #5B6A84",
"}  c #526789",
"|  c #556B8C",
" . c #5A6D8C",
".. c #5D718E",
"X. c #4E6C98",
"o. c #566D92",
"O. c #596E91",
"+. c #5D7294",
"@. c #5E759A",
"#. c #61728D",
"$. c #7B7A81",
"%. c #617695",
"&. c #647996",
"*. c #687B97",
"=. c #617799",
"-. c #647A9C",
";. c #697D9C",
":. c #5859A8",
">. c #4E56B2",
",. c #685FA5",
"<. c #5C78A0",
"1. c #5F63BA",
"2. c #667DA1",
"3. c #697FA1",
"4. c #647FAB",
"5. c #686FCA",
"6. c #6A74D8",
"7. c #6E7AE2",
"8. c #717CE5",
"9. c #875B88",
"0. c #856B89",
"q. c #8E7090",
"w. c #9B7598",
"e. c #A77594",
"r. c #9F77A1",
"t. c #A57BAB",
"y. c #AC76B5",
"u. c #C47E94",
"i. c #6D819D",
"p. c #7C889B",
"a. c #6780A6",
"s. c #6B81A5",
"d. c #6681A9",
"f. c #6D85AA",
"g. c #6E88AE",
"h. c #7185A4",
"j. c #7A8BA7",
"k. c #7187AA",
"l. c #728AAD",
"z. c #6E89B2",
"x. c #758DB2",
"c. c #788FB4",
"v. c #738FB9",
"b. c #7790B6",
"n. c #7991B6",
"m. c #7591BA",
"M. c #7C94BB",
"N. c #7F98BD",
"B. c #7481ED",
"V. c #7988FA",
"C. c #8C8888",
"Z. c #938B84",
"A. c #A9958C",
"S. c #A49C99",
"D. c #A8A39E",
"F. c #838EA3",
"G. c #8793A6",
"H. c #8593AA",
"J. c #8896AD",
"K. c #949CAC",
"L. c #8597B6",
"P. c #8B9AB4",
"I. c #829ABE",
"U. c #8D9DB9",
"Y. c #A884AA",
"T. c #B487B4",
"R. c #B994BB",
"E. c #8FA0BC",
"W. c #99A2B1",
"Q. c #91A2BD",
"!. c #ABA8A3",
"~. c #B1ADA8",
"^. c #B4B3AE",
"/. c #BCB7AA",
"(. c #AAB1BD",
"). c #BCB7B3",
"_. c #C89A89",
"`. c #CBB286",
"'. c #D3B190",
"]. c #C892BB",
"[. c #C1BEB6",
"{. c #D8B3B5",
"}. c #DDC398",
"|. c #E4C99A",
" X c #C6C3BC",
".X c #DCCCB1",
"XX c #DBCBB8",
"oX c #E7D0AA",
"OX c #839CC1",
"+X c #8FA3C3",
"@X c #95A6C3",
"#X c #98A7C2",
"$X c #9BAAC6",
"%X c #9DADC8",
"&X c #A6B4CD",
"*X c #C69BC5",
"=X c #C79ED2",
"-X c #C9A8CA",
";X c #D6A5C8",
":X c #CDA4D3",
">X c #D4ACDB",
",X c #D9B3DD",
"<X c #E5B1D6",
"1X c #DEB5E8",
"2X c #E4BAEA",
"3X c #E9BEEE",
"4X c #C8C6C1",
"5X c #CECBC5",
"6X c #DFC6CD",
"7X c #D5D3CC",
"8X c #DCD4C8",
"9X c #DAD7D5",
"0X c #DCDAD4",
"qX c #E7D4C9",
"wX c #E6D6C9",
"eX c #E2D9D7",
"rX c #F0E2C6",
"tX c #E6E4DC",
"yX c #F5EBD8",
"uX c #DAD1E1",
"iX c #E2D2E2",
"pX c #F1C6F8",
"aX c #F4CAFC",
"sX c #E9E9E4",
"dX c #ECEAE4",
"fX c #F1ECE4",
"gX c #F1ECEA",
"hX c #F6F6EF",
"jX c #F9F5E8",
"kX c #F6F6F0",
"lX c #F8F7F0",
"zX c #F7F9F2",
"xX c #FAFBF4",
"cX c #FFFFFB",
/* pixels */
"&X@X%X@X$X%X%X%X%X%X%X%X%X$X$X$X%X%X%X%X%X%X@X@XU.#X%X#X$X$X#X#X$X&X%X%X%X%X$X%X%X%X%X%X$X%X%X$X$X%X",
"@Xz.m.m.v.x.v.v.v.v.v.v.v.v.v.v.v.v.v.v.v.v.v.<.X.4.m.v.v.v.v.v.v.v.v.v.v.v.v.v.v.v.v.v.v.v.v.v.v.M.",
"@Xv.N.N.M.I.N.N.N.M.M.M.M.M.M.M.M.M.M.M.M.M.f.2.<.2.f.N.M.M.M.OXM.M.OXM.M.OXM.M.M.M.M.N.M.M.M.M.M.OX",
"@Xv.M.M.M.m.m.m.M.M.M.M.M.m.M.M.M.M.M.M.v.4.@.x.z.2.2.f.c.v.b.b.v.M.b.M.v.m.M.M.N.M.m.M.M.M.M.N.m.OX",
"Q.g.x.x.x.b.x.x.x.x.c.m.M.M.b.x.x.b.c.x.d.-.l.M.x.3.2.-.4.l.x.x.l.c.v.c.l.x.v.c.x.x.x.v.x.x.x.x.x.n.",
"P.4.f.f.f.z.x.x.d.f.g.x.b.x.v.x.l.x.x.2.-.f.OXl.4.f.d.-.%.f.z.x.l.x.x.l.g.l.x.l.x.f.f.g.x.x.f.f.3.x.",
"@Xz.b.x.x.g.b.x.x.x.x.l.l.x.x.c.x.c.4.@.d.OXf.d.f.f.4.d.2.@.f.b.v.n.n.x.g.c.v.n.n.x.x.x.m.n.x.x.v.I.",
"+Xx.n.b.x.b.n.b.v.x.b.b.x.b.b.b.n.4.O.f.OXf.d.d.4.3.3.f.4.-.@.f.M.n.v.n.n.n.n.n.m.c.x.n.n.m.c.m.n.I.",
"Q.x.n.n.b.b.b.b.c.n.m.n.n.c.n.n.4.O.x.b.l.4.f.3.3.f.d.d.f.3.-.-.4.v.c.c.c.b.b.b.v.c.c.c.c.c.c.c.x.L.",
"Q.l.n.b.n.c.c.b.c.c.c.x.x.m.x.a.+.f.M.l.3.s.d.3.4.d.3.3.4.4.2.-.-.k.c.c.c.v.n.c.c.c.c.c.c.c.c.n.c.c.",
"Q.x.c.l.c.c.x.b.x.c.x.x.x.x.a.@.d.n.l.2.f.4.s.a.a.f.3.d.a.d.4.4.<.@.f.x.c.c.x.x.c.x.c.c.c.x.x.c.x.M.",
"E.g.c.c.l.c.c.x.x.c.x.x.x.2.@.2.I.f.4.f.d.f.f.f.s.f.f.f.s.f.f.f.2.2.@.f.x.x.v.x.x.x.x.c.x.x.x.x.x.n.",
"Q.z.x.x.x.l.x.x.x.x.x.c.d.@.2.N.f.3.f.f.d.f.f.f.d.f.4.s.3.f.4.3.3.3.@.@.g.v.x.x.x.x.x.x.x.x.x.x.x.n.",
"E.f.x.l.x.l.l.x.x.x.x.d.O.d.M.f.a.s.3.d.s.s.a.s.s.s.f.s.f.4.f.3.3.4.2.@.2.3.c.x.x.x.x.x.x.l.x.x.x.c.",
"E.f.b.l.x.x.x.x.x.l.2.o.f.n.f.3.d.d.d.d.s.s.d.a.d.3.3.a.3.2.4.3.2.2.2.@.O.@.4.x.l.l.x.l.l.x.l.l.x.n.",
"U.a.l.l.f.l.f.f.l.3.o.3.x.f.2.2.3.3.3.3.3.2.2.2.-. .-.3.2.=.-.=.2.2.@.2.2.O.O.3.l.k.l.k.k.f.f.k.f.j.",
"P.@.f.s.s.s.f.f.2.O.2.c.f.=.2.@.2.-.-.-.2.@.@.2.V # =.=.-.2.2.2.<.-.2.-.2.@.+.@.3.f.f.3.3.3.d.3.2.k.",
"P.d.l.f.s.g.g.;.o.-.m.f.3.a.2.-.-.-.-.=.-.2.f.j C R.& ] f.@.3.3.-.-.2.2.2.@.@.o.@.f.f.s.f.l.x.d.3.x.",
"U.d.g.l.g.g.2.o.-.n.3.3.3.2.3.a.2.2.d.a.f.f.l 0.T.=XY.D _ k.3.4.2.2.a.2.2.2.3.2.o.O.f.l.l.l.l.l.k.c.",
"U.d.l.g.l.s.o.-.x.d.3.2.2.2.2.2.2.2.O. .{ { < e.].T.*XY 0 O. .] +.d.a.2.2.2.2.3.2.@.+.4.l.f.k.k.k.l.",
"P.s.l.l.;.o.-.l.f.-.2.2.2.2.2.-.3.;.q 1 7 5 L K J J J K L $ 7 # N a.;.;.2.-.2.-.2.=.O.+.2.l.f.l.f.l.",
"P.a.l.2.o.-.l.g.-.k.f.s.d.3.l.l     9XdXeXdXdXfXfXdXyXfXtXsXsXgX).     .l.s.d.f.d.a.-.O.@.3.l.f.f.c.",
"U.d.2.o.@.l.f.a.-.u u i i a - !.7X5XhXlXxXlXlXlXzXzXkXkXkXkXzXxXdX5X7X$.- a i i u a a.-.o.O.3.l.f.j.",
"U.@.O.+.b.a.2. .S Z.Z.Z.Z.Z.W ).0X9XhXhXhXhXhXhXhXhXhXhXhXhXkXzXdX9X0XD.C.Z.Z.Z.Z.C.' @.2.o.+.3.k.s.",
"j.` =.x.-.%.2.m T cXxXxXxXxXcX!.  & tXhXkXkXhXkXkXkXhXhXkXkXgXxX X    7XcXxXxXxXcXdX0 A -.=.o.O.+.%.",
"j.` =.l.@.%.= ~.kXhXhXhXhXhXhXhXgXfXq  XcXxXxXzXkXhXhXxXxXzXcXC.C.hXdXhXkXhXhXhXhXhXjXR k -.o.| } +.",
"J.o.O.=.-.2.  ~.cXhXhXhXhXhXhXkXxXhX7X!.S._.~ qXkXhXzX{.~ _.S.^.0XxXkXkXhXhXhXhXlXjXxXn t -.} 3.2.=.",
"U.<.+.| +.S C.8XxXkXhXkXkXhXhXhXhXjXcXD.4 _.~ eXxXhXxXXX^ _.< 7XcXjXkXkXkXhXkXhXlXlXxX[.$.B %.x.l.s.",
"P.2.3.@.' X eXlXdXfXhXkXkXhXhXkXhXhXxX'._.cXxXlXhXhXkXxXcXkXU qXxXhXhXlXhXkXhXhXjXgXdXxX).  H.h.3.k.",
"L.2.k.3.] # 7 > e U gXxXhXhXhXhXhXhXhXhXgXkXhXhXhXhXhXhXhXhXfXhXhXlXhXhXhXhXhXcXqXG w > % d 3.3.3.j.",
"P.2.3.3.{ @ q.t.e.G T 7XcXhXkXkXhXhXhXkXkXkXkXhXhXhXkXhXhXhXzXhXhXhXhXhXhXhXcX^.I J r.t.C > 3.h.3.j.",
"P.2.3.3.#.O =X2X;XE h S.7XkXhXhXhXhXhXhXkXkXkXhXhXhXhXhXhXhXhXhXhXhXhXhXhXhX5X0.Y u.>X2XY.X ;.3.3.k.",
"P.;.3.3.{ + >XaX3X=X:X9.n xXhXhXhXhXhXhXhXhXhXlXhXhXhXhXhXhXhXhXhXhXhXhXxXsX  T.>X=X3XaXR.  *.3.3.j.",
"P.3.3.3.{ + ,XaX3X3X3Xt.n xXhXhXhXhXzXhXlXlXhXhXxXhXhXhXhXhXhXhXlXhXhXhXlXdX* -XpX3X3XaXR.  *.;.3.h.",
"P.-.3.=.#.V C *XaX3XaX=X^.zXhXhXlXhXlXhXhXhXlXhXhXhXhXhXhXhXhXxXhXhXhXhXhXdXt.1XaX3XaXY.C A &.;.3.3.",
"H.| %.o. .#.: 0.>X3X;X{.6XzXhXhXhXhXhXhXhXlXhXhXhXhXhXhXxXhXhXhXhXhXxXhXhXhXiX-X<X3X*XN j  . .O.+.;.",
"J.@.=.@. .V { : f 2XP / rXhXhXhXhXhXhXhXlXhXhXlXhXhXhXhXhXhXhXhXhXhXhXhXhXhXxX^ u.>X  M ] B  .&.-.3.",
"P.=.3.;.] & @ # 1 0 y.iXhXhXhXhXhXlXhXzXhXhXhXhXhXhXhXlXhXhXlXhXhXhXzXhXhXhXlX,Xw.+ 1 @ @ d #.h.3.3.",
"P.4.i V &.@ 1.6.1.% y.iXxXhXhXhXhXhXhXhXhXhXhXhXhXhXhXhXhXzXhXhXhXhXhXhXhXhXhXhX^.o 5.6.) % 3.u B c.",
"H.M D.C.p % 7.V.6.# -XgXzXhXhXhXhXlXhXhXzXhXhXlXhXhXhXzXhXhXlXhXzXhXhXhXzXhXhXxX X- B.V.5.# l D.Z.] ",
"F.  gX5X7 7 5.B.6.@ tXxXkXkXhXhXhXzXzXhXhXhXhXhXhXxXhXhXhXhXhXhXhXlXhXhXhXhXhXxX X- B.B.:.5 x fX[.  ",
"F.  9XcXeX    1.7.  tXzXhXhXhXhXhXhXhXhXhXhXhXzXhXhXhXhXhXhXhXzXhXhXhXhXhXhXhXxX).  V.s   b jXxX/.; ",
"F.  yXcXfXtX.XW g ].dXzXkXcXxXcXxXhXzXhXhXhXhXhXhXhXhXhXhXhXhXhXhXhXxXcXcXxXxXxXeXt.s / 8X0XhXcX[.  ",
"F.a D.0XxXyX`.0.:.w.dXjXwX^.^.~.4XxXhXhXzXhXhXhXhXlXhXhXhXlXhXhXxXhX).^.^./.{.gXuX9.:.W }.jXxX5XC.M ",
"p...  S.tX`.x >.8.  uX8X! 6 c 5 R tXhXzXhXhXhXhXlXhXhXzXhXhXhXxXgX7Xe w w 6 F 8X/.  OX( T {.tXb t *.",
"p.l S z + # 6.V.5.1 8.>.r oXgXyX/ X tXxXhXhXhXhXhXhXhXhXhXhXhXxX4X@ |.fXyX|.q H G a 8.8.1.O O V S ] ",
"p.Z A B z @ 6.V.6.  g ; R jXhXlX7X+ tXxXhXhXlXhXhXhXhXhXhXhXhXcX4X& fXhXjXyXq 8 , y 8.V.1.@ M B A #.",
"p.' S A A z :.1.,.w.q   n yXhXjXXX  sXxXhXhXlXhXhXzXhXhXhXhXhXxX4X$ rXxXjXwX#   N q.>.1.) z V _ A #.",
"F.[ { A A A > X f ].Y v W `.eXoXQ 8 sXlXhXkXhXhXkXhXkXhXhXhXhXxX5X< `.8X5X`.W 6 e.:X2 , z A A [ { #.",
"G.[ ..{ S A S z 2 K F XXtX  @ o 9 K dXlXhXhXlXhXhXhXlXhXhXkXhXxX6XG 0 O   b zX^ u.2XK D Z A S { ..&.",
"Q.z.c.k.3.;.*.%.S < ,X;XU @ > 4 E yXhXhXhXhXhXhXhXhXhXhXhXhXhXkXjXwXJ 3 X 8 U <X*Xf 2 S i.&.f.j.j.M.",
"$Xb.n.c.l.k.;.;.#.M Y.T 3 V . A.tXxXzXhXkXhXkXhXlXhXkXhXhXkXhXkXxXxXXXT ; V 4 A.0.  M &.s.s.l.n.n.I.",
"@Xv.n.n.b.g.s.i.;.;.> o m ;.; ).sX9XyXjXhXhXhXhXhXhXhXhXkXkXkXjXtX9XsXC.s *.a o > x 2.3.s.l.b.n.M.I.",
"@Xm.N.m.b.l.k.s.;.-.s.*.#.#.-.z   O '.yXkXhXhXhXhXhXhXhXhXhXlXrX!   X V %.#.*.*.=.=.3.3.k.x.n.M.M.I.",
"U.d.z.l.l.l.g.s.;.&.%.&.&.%.%. .{ { e c b n gXcXgX:XkXcX9Xw n e c { [ ..O.#.#.#.#.%.;.3.k.g.l.l.g.x.",
"U.d.l.g.l.g.l.g.2.-.&.&.*.&.&.&.+.+.M a a m S.!.S.9.S.!.C.y z l B %.%...#.=.=.=.*.=.2.3.l.g.g.k.g.b.",
"+Xx.n.x.x.l.x.x.f.f.a.;.;.-.;.;.&. .[ _ ..*.=   . >     u _  .%.*.&.*.&.;.3.3.s.s.i.s.g.n.n.x.x.b.L.",
"+Xx.n.n.x.n.n.x.c.l.l.k.l.k.h.s.3.} V +.*.' { ..[  .{ .. .V B ] &.;.i.s.f.k.k.k.k.k.x.b.b.n.b.n.b.M.",
"Q.x.n.n.b.b.c.b.c.c.l.x.x.x.l.f.O.' -.;. . .{ [ [ [ [ [ |  .' ' +.a.f.f.l.x.l.x.j.x.x.c.b.c.n.n.b.M.",
"Q.z.n.x.n.x.c.c.c.c.c.c.x.x.l.-.o.s.k.-.+.+. . . . . . ...+.%.O. .-.l.x.x.x.c.c.c.c.x.c.x.b.x.b.b.n.",
"Q.z.b.l.x.x.x.x.x.c.x.x.x.l.2.o.l.x.3.2.-.=.%.+.+.+.+.+.%.-.2.-.@.O.2.x.x.c.c.c.c.c.x.c.x.c.x.c.x.L.",
"Q.g.c.b.x.x.c.x.x.c.x.x.x.2.@.f.M.f.2.3.2.2.-.-.=.=.=.-.2.3.3.4.4.2.@.4.x.x.x.x.x.c.x.x.x.x.x.c.l.n.",
"Q.g.l.b.x.x.x.x.x.x.x.x.2.O.f.N.3.a.d.f.d.d.a.3.2.2.s.s.3.4.4.f.3.3.<.+.f.x.x.x.c.l.l.c.x.x.x.l.x.n.",
"Q.g.c.l.l.x.l.x.x.x.z.2.O.f.M.4.s.s.a.s.s.s.s.s.a.s.s.a.f.3.f.3.3.4.2.2.+.3.x.l.c.l.x.l.c.l.x.l.x.n.",
"U.f.x.l.x.l.l.l.l.x.2.O.g.b.3.4.3.4.s.s.a.a.a.a.a.3.2.d.a.2.2.2.<.2.=.@.@.O.2.l.l.l.x.l.l.l.l.l.l.n.",
"P.2.f.f.f.l.f.l.f.2.| f.x.4.2.2.3.2.2.3.2.2.;.2.2.-.@.2.-.2.-.-.2.=.=.2.@.@.@.2.f.f.f.f.f.a.f.f.f.j.",
"P.<.f.a.s.f.l.a.@.o.3.c.3.2.2.=.2.@.-.-.2.@.@.-.-.2.-.@.2.-.2.-.=.2.2.2.2.@.@.o.2.k.f.3.s.f.a.s.s.l.",
"U.d.l.f.a.l.g.;.@.2.M.3.2.3.2.-.-.2.@.2.2.2.2.-.2.a.2.-.2.<.2.2.@.2.2.3.2.=.@.@.O.4.f.f.k.l.l.f.a.l.",
"U.a.l.l.l.l.-.o.2.n.3.4.3.2.3.2.2.2.2.2.2.2.s.2.2.s.2.2.2.3.4.3.2.2.3.3.2.2.3.2.@.o.d.l.f.l.l.g.l.c.",
"P.s.l.g.l.=.| s.x.2.3.3.2.2.2.2.2.2.2.2.2.a.2.2.2.2.2.2.2.2.2.2.2.2.2.2.2.2.2.2.2.O.+.2.l.f.l.f.f.l.",
"U.a.l.l.@.| a.x.3.2.2.2.2.2.2.-.2.2.2.2.2.2.2.-.;.2.2.2.2.-.2.2.2.2.2.2.2.2.2.2.2.-.+.o.2.g.f.l.f.j.",
"P.d.g.@.| s.l.f.-.2.2.2.2.2.2.2.2.2.2.2.2.;.2.2.2.2.-.2.2.2.2.2.2.2.2.2.2.2.2.2.2.2.2.o.+.2.l.f.g.l.",
"U.d.2.o.,.x.f.-.2.2.2.-.2.2.2.2.2.2.2.3.2.2.2.2.2.2.2.2.2.2.2.2.2.2.2.2.2.-.2.=.2.2.2.-.@.O.3.3.g.k.",
"P.@.o.@.x.3.-.-.-.2.2.-.=.2.2.-.-.-.-.2.-.=.=.2.-.-.2.-.-.-.-.-.2.2.@.2.2.-.2.2.2.=.-.-.@.+.O.3.f.i.",
"j.` =.b.-.+.-.=.+.@.-.@.@.=.2.-.@.@.+.+.@.@.+.=.@.@.+.+.2.=.-.-.@.+.+.2.+.=.2.=.+.+.@.@.@.-.O.O. .%.",
"j.` %.f.@.+.+.@.+.@.@.O.+.+.+.+.%.,.2.=.@.=.+.O.=.-.-.@.+.%.@.O.+.@.+.+.+.+.+.@.@.=.2.@.+.+.O.O.| +.",
"P.o.o.%.2.=.=.=.-.=.@.=.@.-.-.@.=.-.-.-.-.-.=.@.@.-.-.=.=.=.=.=.=.-.=.%.=.=.@.%.=.=.=.2.@.O.) k.a.&.",
"U.-.=.} +.-.-.=.-.-.-.2.-.-.-.;.-.-.-.-.-.-.-.2.2.-.-.-.2.=.2.2.-.-.2.-.2.-.-.-.2.=.,.=.O.o.3.j.k.k.",
"P.2.3.@.o.O.@.2.-.-.-.=.-.=.-.=.=.-.-.-.-.-.=.-.-.=.*.-.=.-.%.-.-.-.-.-.=.-.-.-.=.-.-.O.O.-.L.3.3.j.",
"P.2.3.f.O.o.O.=.=.=.=.-.=.=.=.=.&.=.=.=.*.=.=.=.=.=.=.=.=.=.@.-.=.=.=.%.-.%.%.-.-.-.O.| 3.c.3.3.3.k.",
"P.2.k.3.3.+.} +.-.-.@.&.&.&.+.i.=.=.&.=.=.=.=.&.=.=.=.=.&.=.&.@.=.=.=.@.&.@.%.=.=.O.| 3.L.3.3.l.a.a.",
"P.3.k.3.3.3.+.} ..@.&.@.@.@.+.@.=.=.%.%.+.=.=.%.=.%.%.=.@.%.@.%.+.&.@.&.+.&.=.@.o.} 3.l.3.3.3.3.i.i.",
"P.-.j.3.3.3.3.=.` +.@.&.@.&.@.@.=.=.=.=.=.%.=.%.=.=.=.=.=.=.&.+.+.=.=.@.=.&.+. .} ;.k.s.3.j.3.3.i.i.",
"P.2.3.k.3.3.3.2.+.` ..+.@.+.+.+.+.+.+.+.%.+.+.=.+.+.%.+.+.=.+.=.&.%.@.+.+.@. .| -.h.s.3.3.3.3.3.i.f.",
"J.@.3.2.2.3.2.3.-.| [ O.+.O...O. .O.+.+.O.O.+.+.O.+.+. ...+.+.+.+.+.+...+.| | ..l.3.3.3.;.3.2.3.a.i.",
"F.o.=.+.%.=.;.-.-.&.| } | | O.+.O.+.O.|  .O.O.O.o. .o.o.O. .+.+...| o.o.| | @.h.-.*.-.=.=.=.%.=.i.i.",
"P.=.3.2.;.;.-.;.3.3.-. .[ | +.@.+.+.+.%.+.O.O. .| O.+.+.+. . .o...+.+.| Z i.i.@.-.;.2.;.=.=.=.3.i.i.",
"J.=.3.3.2.2.;.3.3.3.3.-.| _  .@.+.+.+.+.+.+.+.+.+.+.+.+.+.+.o.+.+.+.| Z @.s.a.a.;.2.3.3.;.3.;.3.a.a.",
"J.=.3.3.3.3.3.3.a.i.a.i.@.| _ | +...+.+.+.+.+.+.+.+.%...+.%.+.+.i.Z Z i.i.a.+.a.a.i.i.a.i.i.i.a.+.i.",
"P.=.3.;.;.;.3.;.i.a...i.i.i.| Z ..+...+.+.+.+...%...+.+...+.%.....` ..s.i.i.i.i.i.i.a.i.i.i.i.o.i.i.",
"J.@.;.;.;.;.;.;.+.i.+.i.a.i..._ Z ..+.+.+.....+.....+...+... .| Z | a.i.i.i.+.i...i.o.i.i.o.a.i.a.i.",
"P.+.;.;.;.;.;.;.i.i.a.i.i.@.i.i.[ Z [ ..+...+.....+. .+...+.[ ' | i.i.i.i.a.i.a.i.a.i.i.i.a.i.i.i.i.",
"J.+.i.-.*.-.;.;.i.+.i.i...i.i.i.&.[ Z [ ..................[ B +.i.i.i.i.| i.i.| ..o.i.i.i...i.i.i.i.",
"J.+.*.*.*.*.&.&.i.i.+.i.i.i.+.i.i.+.[ Z | .. . . . . . .[ Z +.i.i.i.i.| i.i.i.i.i.i.o.i.i.i.i.o...i.",
"G.| %...&.%.%.........i. ...i.+.+.i.+.Z Z [ [ [ [ [  .[ Z ..i.-.i.| i.i.| i.i.i.i.i.i.| i.| i.i...i.",
"G.` ....#.%...................+.....&.+._ Z [ [ | [ A Z  .i.-...| i.A | ..| | i.| | [ i.i.| | i.| ..",
"G.+.i.....i.........| i.i.i.[ i.| i.i.i.Z Z Z | i.Z Z A i.i.i...o...i.| i.i.[ | i.Z | i.Z Z i.Z i.i.",
"G.+.i.i.i.i.i.i.i.i.i.i.i.| i.i.i.i.| i.i.i.| Z Z Z i.i.i.i...i.i.i.i.i.i.i.i.i.i.i.i.i.i.i.i.i.i.i.",
"p.` [ } | | | | ` | | | | | Z Z | | | | Z | ` l j Z [ | | | | | | | Z | | | ` | Z | | | Z i.Z | ` i.",
"(.K.W.W.W.W.W.W.K.W.W.W.W.W.W.W.W.W.W.W.K.W.W.J.N.W.W.W.W.W.W.W.W.W.W.W.W.W.W.W.W.W.W.W.K.W.W.K.W.W."
};
