/* XPM */
static char *result[] = {
/* columns rows colors chars-per-pixel */
"100 50 227 2 ",
"   c #000000",
".  c #0E0004",
"X  c #160000",
"o  c #2C0000",
"O  c #330A0A",
"+  c #352C0C",
"@  c #000026",
"#  c #00002C",
"$  c #160F3B",
"%  c #2E0F2D",
"&  c #192933",
"*  c #2E2A36",
"=  c #4E0000",
"-  c #513407",
";  c #43221B",
":  c #440F29",
">  c #4C3433",
",  c #4A3739",
"<  c #5D4A03",
"1  c #524432",
"2  c #564239",
"3  c #0A0B4A",
"4  c #390A44",
"5  c #0A2547",
"6  c #2D2F4E",
"7  c #2F355D",
"8  c #0E0077",
"9  c #363D61",
"0  c #48334C",
"q  c #38455D",
"w  c #3A4965",
"e  c #3F5066",
"r  c #5A4D4D",
"t  c #4A475A",
"y  c #64544C",
"u  c #6E4C55",
"i  c #665B59",
"p  c #5E6044",
"a  c #7D6B55",
"s  c #424C62",
"d  c #43536B",
"f  c #4A5468",
"g  c #555466",
"h  c #475974",
"j  c #455876",
"k  c #4B5C75",
"l  c #4B5D7B",
"z  c #515E75",
"x  c #74556A",
"c  c #4D617D",
"v  c #56637A",
"b  c #52647D",
"n  c #6A6365",
"m  c #716A73",
"M  c #757578",
"N  c #950000",
"B  c #A80000",
"V  c #A23217",
"C  c #A2571F",
"Z  c #884835",
"A  c #B4522B",
"S  c #8D7156",
"D  c #B66D53",
"F  c #B97258",
"G  c #835F7C",
"H  c #8C7267",
"J  c #827A76",
"K  c #B17464",
"L  c #C37360",
"P  c #A5824F",
"I  c #908374",
"U  c #AC8E6B",
"Y  c #BE816D",
"T  c #AA916D",
"R  c #B29A78",
"E  c #0C098D",
"W  c #26248A",
"Q  c #475F86",
"!  c #4E6382",
"~  c #4B648B",
"^  c #526583",
"/  c #586781",
"(  c #556985",
")  c #5A6B84",
"_  c #526689",
"`  c #566B8C",
"'  c #5A6E8C",
"]  c #5D718E",
"[  c #566D92",
"{  c #5A6E91",
"}  c #547297",
"|  c #5D7293",
" . c #5E759A",
".. c #667184",
"X. c #61728D",
"o. c #76788C",
"O. c #6E6F90",
"+. c #617594",
"@. c #647996",
"#. c #6B7C96",
"$. c #617699",
"%. c #647A9C",
"&. c #697D9D",
"*. c #645EA6",
"=. c #657CA1",
"-. c #697EA1",
";. c #797AB6",
":. c #5761C4",
">. c #6871D3",
",. c #6873DA",
"<. c #6775E7",
"1. c #727EEA",
"2. c #896588",
"3. c #916F8C",
"4. c #936597",
"5. c #977697",
"6. c #A47BA8",
"7. c #6C819F",
"8. c #72829A",
"9. c #7B8A9F",
"0. c #6B81A5",
"q. c #6885AB",
"w. c #6C84AA",
"e. c #7185A4",
"r. c #7D8BA3",
"t. c #7A89A4",
"y. c #7087AB",
"u. c #7289AE",
"i. c #6F89B0",
"p. c #758DB2",
"a. c #788FB4",
"s. c #758FB9",
"d. c #7991B6",
"f. c #7792B9",
"g. c #7C94BB",
"h. c #7482ED",
"j. c #7987F6",
"k. c #8B8882",
"l. c #928C88",
"z. c #9E9085",
"x. c #96928D",
"c. c #9B9389",
"v. c #9B9894",
"b. c #9E9995",
"n. c #A29A8C",
"m. c #A88894",
"M. c #A19C98",
"N. c #A7A29B",
"B. c #B7AA92",
"V. c #B8AC93",
"C. c #808FA7",
"Z. c #8592A7",
"A. c #8392AD",
"S. c #8595B2",
"D. c #8798B6",
"F. c #8899B6",
"G. c #8297BC",
"H. c #8199BE",
"J. c #8B9DBB",
"K. c #A98AAB",
"L. c #B28CB4",
"P. c #B893BA",
"I. c #8EA0BE",
"U. c #AAA7A5",
"Y. c #B5A5AD",
"T. c #B5B3AD",
"R. c #B9B3A9",
"E. c #BBB7B2",
"W. c #C89A8B",
"Q. c #C7B08E",
"!. c #CCA698",
"~. c #D0AC9E",
"^. c #CC8EAB",
"/. c #C5B7A7",
"(. c #D4B4A6",
"). c #C3BEBA",
"_. c #DAB7B6",
"`. c #C6C3BE",
"'. c #CAC6BE",
"]. c #D8C5B5",
"[. c #E7CDA5",
"{. c #EAD1A8",
"}. c #ECD7B2",
"|. c #839BC2",
" X c #8D9FC0",
".X c #BC91C4",
"XX c #91A3C3",
"oX c #BDBFC1",
"OX c #96A0F8",
"+X c #C49CC9",
"@X c #CB9DD4",
"#X c #C9A6CB",
"$X c #D4AADA",
"%X c #D3AED8",
"&X c #D0ABE3",
"*X c #DDB2E3",
"=X c #E5BAEA",
"-X c #EABEF1",
";X c #C9C6C0",
":X c #CDCBC5",
">X c #D4D3CD",
",X c #D6CDD1",
"<X c #DCDAD5",
"1X c #E0CDCE",
"2X c #E4D4CB",
"3X c #E7DDD4",
"4X c #F7E5C7",
"5X c #E4E4DD",
"6X c #EBE5D8",
"7X c #F6EBD9",
"8X c #FDF3DC",
"9X c #EADAE9",
"0X c #EDC1F3",
"qX c #F1C5FA",
"wX c #F6C9FD",
"eX c #EBE5E3",
"rX c #EBEBE4",
"tX c #EFEEE8",
"yX c #F1EDE3",
"uX c #F1EEE9",
"iX c #F3EFEE",
"pX c #F5F5EE",
"aX c #F8F4E8",
"sX c #F7F7F0",
"dX c #F7F9F3",
"fX c #FAFBF4",
"gX c #FFFFFA",
/* pixels */
" Xs.f.f.g.d.g.g.g.g.g.g.f.g.g.g.|.s.p.s.s.d.s.f.s.=.q.f.f.G.g.g.g.g.s.d.g.g.g.g.g.g.g.g.g.g.g.f.g.g.f.f.f.f.g.d.d.|.g.g.g.f.g.g.g.g.|.g.s.s.g.s.s.g.s.=.q.g.g.g.g.g.g.g.g.f.f.g.g.g.g.g.g.g.g.g.f.f.s.XX",
"XXf.|.G.g.G.g.g.g.|.g.g.|.g.g.g.g.G.|.g.G.|.g.g.u. .=.f.g.g.g.g.|.g.|.g.G.g.g.g.g.g.H.g.g.g.g.g.g.g.g.G.G.g.g.|.g.g.g.g.g.|.g.g.g.g.g.g.|.g.g.g.g.|.i. .=.f.g.g.g.g.g.g.g.|.|.g.g.g.g.|.g.g.g.g.g.|.f.XX",
"XXs.g.g.g.g.g.g.g.g.g.g.g.g.g.g.g.g.g.G.s.g.|.;. .=. .=.s.g.g.g.g.g.g.g.g.g.g.g.g.g.g.g.g.g.g.g.f.g.g.g.g.g.g.g.g.g.f.g.g.g.g.g.g.f.g.g.|.|.|.|.g.=. .=. .=.f.f.g.g.g.g.g.g.g.g.g.g.g.g.g.g.g.g.g.g.s.XX",
"XXf.G.g.g.f.g.g.g.g.g.|.s.s.g.g.G.s.s.d.p.a.-. .=.s.g. .=.s.g.g.s.G.g.g.g.g.g.g.g.f.g.g.g.g.g.g.g.g.|.g.G.g.g.g.g.g.g.G.|.G.s.s.|.|.-.6 7 7 7 9 ;.=.=.s.g. .=.s.g.g.g.g.g.g.g.f.g.g.g.g.g.g.g.g.g.g.s.XX",
"F.q.p.u.s.p.s.p.p.s.p.p.p.u.s.a.s.u.p.p.i.-. .=.-.i.f.d.=.=.i.a.s.p.p.d.g.g.g.p.p.i.p.d.a.a.p.u.p.u.p.p.y.p.p.p.p.p.u.s.p.p.p.i.+.` o.c.c.x.c.l.Q j +.p.G.a. .q.p.a.p.a.a.a.g.g.g.p.p.u.p.p.d.p.p.p.w.F.",
"F.q.y.y.p.p.u.w.y.p.p.p.u.y.u.p.p.p.p.p.w. .=.q.i.q.i.|.p. .=.i.p.p.p.d.p.p.p.i.w.q.y.p.y.u.q.y.y.y.u.y.w.w.p.a.y.w.u.p.u.p.y.-.r o U.gXfXfXgXpXi - v w.y.G.s. .=.u.p.u.s.a.p.p.p.y.w.w.i.p.i.i.w.y.q.F.",
"XXi.a.s.a.G.a.u.p.d.d.g.d.p.p.d.f.d.s.i. .=.w.w.-.q.w.=.|.p. .=.p.p.d.p.y.p.u.p.p.p.d.d.p.u.p.d.f.a.g.d.s.p.d.g.a.p.p.d.H.|.$.u pXtXrXpXpXpXpXpXeXdXT.  q.-.|.i. .=.p.s.a.a.p.p.p.u.p.p.s.d.p.t.p.f.a.I.",
" Xs.d.d.a.d.d.d.g.d.d.d.d.d.d.d.g.f.-.} =.-.-.q.-.q.-.i.=.|.s.[ =.a.d.s.g.d.d.d.d.d.d.d.d.d.d.d.g.d.a.f.d.d.d.f.d.f.H.g.9 7 # X J rXgXfXpXpXsXsXdXfXeX).K #.;.g.u.} =.a.f.f.d.a.d.d.d.d.d.d.d.d.a.d.s.J.",
"I.p.d.a.d.d.d.d.a.s.d.d.d.d.d.s.f.-.=.=.=.=.w.-.q.-.0.-.0.q.d.s.[ =.a.s.d.d.d.d.d.d.d.d.a.a.d.d.a.d.a.a.d.d.d.d.g.&.) X.x.c.v.M.k.E.;X:XsXfXfXfXdXsXgXpXV O.q.-.g.a.[ =.s.a.a.a.d.d.d.d.d.d.d.a.a.d.s.XX",
"I.p.d.a.a.d.d.p.a.a.a.d.s.a.a.a.-.} =.=.q.;.q.-.-.-.q.q.0.0.y.f.p.[ =.p.d.s.s.d.a.a.p.p.a.a.a.d.d.d.a.a.p.d.d.p.s.m - n pXgXfXfXgXb.  n eXuXyXpXtXtXyX5XX [ i.=.y.f.u.} =.s.a.s.a.a.a.a.p.d.a.d.d.p.p.J.",
"I.y.a.a.a.a.p.d.a.a.p.a.s.p.a.-. .=.-.q.=.=.q.q.q.-.0.0.0.q.0.q.s.p. .=.u.d.p.p.p.d.p.d.a.a.d.p.a.p.a.a.d.p.g.f.  `.sXtXpXpXiXpXsXuXpX5X> 2 2 O ; . Z D ; X.q.i.=.w.d.u.[ =.p.a.p.d.d.a.d.p.d.d.p.d.i.J.",
"I.y.a.p.p.a.p.p.p.p.p.a.p.p.;.$.=.-.-.q.q.q.w.=.-.q.q.0.0.0.0.0.;.|.-.[ =.p.d.p.p.p.p.p.a.p.p.p.a.p.p.p.p.g.%.0 `.rXfXsXpXpXsXsXsXsXfXpX>Xi M >X;X>X!.N   @ $ 9 i.u.y.G.w. .=.a.d.p.p.p.p.d.u.u.u.a.p. X",
"I.q.d.p.u.d.p.d.p.d.a.u.p.w. . .=.q.w.-.0.q.0.q.w.-.q.w.w.-.-.0.=.=.g.y.} %.s.p.d.p.p.p.p.u.p.p.p.a.p.p.d.=.o.N.sXgXsXsXfXfXfXpXsXsXpXpXgXJ v.gXfXgX6XW.N.v.n.x.! j  .q.|.w.} =.p.p.p.p.p.a.p.a.a.d.y.I.",
"D.y.p.u.d.u.u.p.u.p.u.a.w. . .0.=.q.-.w.0.0.0.0.-.w.-.-.q.-.q.;.0.w.0.g.u.{ %.p.p.p.p.p.p.p.p.u.p.r.p.p.d.$ c.gXpXtXrXrXrXrXuXpXpXsXsXpXfXk.U.gXpXpXdXgXgXfXgXrXy 2 m -.@.g.w.{ %.p.p.p.p.p.p.p.p.p.y.J.",
"I.q.p.p.u.d.p.u.p.u.p.0.}  . .%.=.%.0.=.=.=.0.=.=.;.-.q.q.-.-.-.0.0.0.q.d.u.[ %.t.p.u.p.u.p.p.p.p.p.p.p.%   x.sXgXM.  1 1   N.gXpXsXsXsXsXpXtXsXsXsXsXsXsXpXpXpXuXfXT.  % @.S.0.[ =.p.p.u.p.p.u.p.p.i.J.",
"d.0.y.0.w.w.y.y.y.u.0.| } %. .%. .%.%.%. .=.0. . .=.=.=.=.=.-.=.=.=.=. .0.u.y.[ 7.y.y.y.y.y.y.w.7.p.] 6 >XM x.gXl.3.6.6.6.6.5.c.sXfXpXsXsXsXsXsXsXsXsXsXsXsXsXsXsXfXeX'.Q.> Q g.0.[ %.w.y.y.w.y.y.w.0.S.",
"Z.7.0.0.0.0.0.0.i.=. .{  .=.=.=.=. .=.=. .=. .=.%.=.$.$.=.=.=.$. .=. .=.=.-.d.-.{ $.w.y.y.-.y.u.y.[ ..M.gXb.a 1X5.+X=X*X$X$X6.G `.rXsXpXsXpXsXsXpXsXsXsXfXsXsXaXpXiXsXfX4XR.M ! d.0.[ %.w.y.w.-.0.w. .S.",
"d.q.y.p.u.y.e.q.-. .[  . .=.=.=.=.$.=.=.$.-.=.=.0.=.=.$.=.=.$.%.=.=.=.=.-.=.-.G.=.[ =.y.i.y.-.-.e.* z.gXfXb.= A -XqX-XqXqX$X@X@X  :XgXpXsXsXsXsXsXsXpXsXaXaXsXsXsXsXsXsXsXgX).* e.d.0.[ =.u.u.w.w.y.q.F.",
"D.q.u.y.y.y.u.e.{ { =.=.=.=.-.-.=.=.-.=.=.=.=.=.=.=.=.=.=.=.=.=.=.=.=.-.-.-.=.=.f.-.[  .u.g.O.. > = W.dXgXx.= L =X-X-X-X-X-X*XP.: >XgXpXsXpXsXsXsXsXfXgXfXfXfXsXsXsXsXsXsXiXdX<X  } d.%.[ $.p.w.u.u.w.F.",
"D.0.u.y.y.i.0.} { %.=.=.=.-.=.-.=.=.=.-.-.=.=.=.=.=.=.=.=.=.=.=.=.=.=.-.=.=.=.=.=.p.w.} t   m #X0 D }.dXfX6XY.= -XwX-X-XqXqX=X+X  :XgXiXfXpXsXsXsX9XY.M J M R.7XpXsXsXsXsXsXdX7XR K 3.s.=.[ %.p.y.u.q.F.",
"D.0.u.y.i.7.} [ $.=.=.=.%.=.=.%.%.=.=.=.=.=.%.=.%.=.=.=.=.=.%.=.=.=.=.=.=.%.=.=.=.w.0.z 2.3.+XwX0 !.8XpXpXgX5Xb.L.=XwXqX+XP.L.5.N.5XfXsXsXsXsXsX9XP.G P v.H P V.pXsXpXsXsXpXsXpX8XD u q.u.-.` %.y.y.0.D.",
"D.0.y.y.0.| [ %.=.=.=.=.=.=.=.=.=.=.=.%.=.=.=.=.=.%.=.=.%.=.=.=.=.=.=.%.=.=.=.=.%.-.` > L.*X-X$X: ).gXpXpXpXfXsXp P.-X$X0 # # g eXpXsXsXsXsXsXtX+X4 U 4XfX8XR t sXfXpXsXsXsXsXsXfXk.g #.w.u.=.` %.y.q.D.",
"d.e.u.0.| [  .0.=.=.=.=.=.=.=.=.=.=.=.=.=.%.%.=.=.=.=.=.=.=.=.=.=.=.=.=.=.=.=.=.=.=.$.%.0 o : >   `.gXpXsXsXpXpXfXn.  0 1.1.1.1.% ,XfXpXsXsXfXrXr   U.fXyXfXR.y pXsXpXsXsXsXsXpXpXdX(.C =.0.p.%.[ %.q.D.",
"p.0.w.[ [  .%. .=.$.%.%.=.$.=.%.=.$.=.=.$.=.=.%.=.%.=.$.%.%.%.%.$.%.=.%.=.$.%.%.%.$.$.{ b v f s   `.gXpXsXpXfXtXc.;.>.>.1.1.j.h.  :XgXpXsXpXfXeX+   T 7XfX8XB.r pXfXsXsXsXsXsXsXpXgXE.= =.%.=.a. .[  .D.",
"9.~ [ [ $.$.| | |  .$.=.$.$.$.$. . .$.%. .%.$.| $. . .|  .|  . .$. .$.%.$.$.$.%. .| | X._ ` %./   `.fXpXsXsXfXsXo E ,.j.1.j.,.*.M.eXdXpXsXpXdXrX2.N.V.R ).V.C S sXfXpXsXsXsXpXsXpXgXT.  %.%.+.$.p.$.~ t.",
"8.! ` [  .|  .=.$. .{  . .{ { $.{ { |  .|  . . .$.$. .{ $. .$.%.$.{  . . .{ {  .| { { _ ! z X.z   `.gXpXsXsXpX<XJ < O.<.1.h.:.a dXfXsXsXsXpXdXsX@XiX`.      Z W.pXsXsXsXsXsXfXaXyXaXN.  | | } | y.@.Q 9.",
"t. .e.` [ | $.%.$.$.$.$.$.$.$.$.$. .$.$.$.$.$.$.%.$.$.$.=.$.$.%.=.$. .$. .$.$.$.$. .{ ' _ ) ^ z   `.gXpXpXgX>Xo rXgX`.  h.W c.fXfXdXsXgXdXgXdXdXfX*X4.  % N (.fXpXsXsXsXsXpXsXyX{.y   t ] |  .$.=.[ [ A.",
"a.w.p.%.[ { $.%.=.%.%.$.$.%.%.%.%.%.%.$.$.%.%.%.$.%.%.$.$.$.=.%.$.%.%.$.%.%.$.%.$.$.$.| | _ l l   `.gXpXfXT.b.<XpXfXpX<X&Xu m OXa rX3XD Y Y Y Y K <XeX>X<X2XyXsXpXsXsXsXsXpXfXpX7X].P @ +.$.$.$.~ |  .F.",
"S.7.e.d.%.` { $.$.$.%.$.$.%.$.$.$.$.@.$.@.$.%.$.$.=.$.$.$.%.$.%.$.%.@.$.$.%.%.$.$.$.$. .{ ^ ^ X.  `.gXpXgXI J gXfXuX,X`.6.O.:.<.E U.).!.~.!.~.~.~.yXgXfXgXfXfXsXsXsXsXsXsXpXpXfXfX(.H q |  .{ ` { -.=.S.",
"A.%.0.0.a.%._ { $.$.$.$.$.$.$.$.$.%.$.$.%.$.$.$.$.$.$.$.$.$.$.$.$.$.$.$.$.$.%.$.$.$.=.{ _ ` @.@.  `.gXpXfXc.k.fX6X#X4.*   >.j.<.OX8 x.gXfXgXfXpXaXyXyXpXpXaXpXsXsXsXpXsXpXfXpXpXaXy 3 ] ' { _ { -.-.=.S.",
"S.=.w.7.0.u.-._ | $.$.$.$.$.$.$.$.$.$.$.$.$.$.$.$.$.$.$.@.$.$.$.$.$.$.$.$.$.$.$.$.=.{ _ { %.&.@.  `.gXyXgXl.l.fXr   N.pX- :.j.1.j.E n.gXpXgX].B A B (.fXpXsXsXsXsXsXpXsXsXpXsXyX[.y 7 ' / _ { &.y.-.=.S.",
"A.7.0.0.0.e.u.&._ [  .$.+.$.+.$. .$.$.+. .$.+.| +.$.| $.$.+.+.+.$.$.+. .| +.$.$.$.| _ [ &.-.&.$./ n T.fXgXM.X J >X<XeXpX- ,.,.3 3 oX].D Y F ~.6X3X3XeXsXsXsXsXsXsXsXsXpXpXgXaX[.a g z ^ ! _ -.-.-.e.=.S.",
"A.=.e.-.-.-.-.t.$._ { +.$.$.$.$.$.+.$.+.$.$.+.$.$.$.$.+.$.$. .$.$.| $. .$. .| $.{ _ { -.-.-.&.+.#.@ S 7XfXc.O T.fXgXfXrX- E ;.V.N.rX7X!.(.~.>XgXgXfXfXsXsXaXsXsXsXsXdXfXfX;XV.U 5 k ^ l _ =.e.-.0.0.7.S.",
"A.=.e.-.-.-.-.-.y.+._ ` | | |  .{ $.| $.+.| { +.+.{ $.$.| | | | | | | | | $.$.' _ ` %.-.;.-.&.@.O.9 a [.fXN.N.gXpXpXfXyXI 1 T.gXgXsXpXfXuXfXfXpXpXpXyXaXsXsXsXsXdXaXrX5X5Xn   5 b k k ! O.-.-.-.0.e. .D.",
"C.=.-.-.-.-.-.-.=.u.| _ ' | [ | $.| +.| { { { | { { +.{ { ' | | { ` { { { +.{ ^ _ %.-.-.&.&.%.@.] ' e 2 tXfXsXdXpXpXpXpXpXpXtXpXaXsX6X[.C 2XfXpXsXfX6X{.aXaXsXaXdX}.R   ; f z z k h l +.=.=.-.-.7.0. .Z.",
"t.[ $.O.%.-.$.%.%.&.y.| ^ { ' ' ` { { { { { ` { ' ` { ` { { ` ' { ' | { ` ` _ _ +.%.%.%.%.+.{ ' ) b k s m (.4X}.}.aXgXgXgXgXgXfX}.4X~.< B 4XfXpXsX4X}.}.4Xn.m I M S y q t d d h h l ` $.=.%.$.+.|  .` 9.",
"t. .=. .$.$.$.-.&.$.%.e. .! ` | | { ` { ` { +.{ { ` { { [ ] | } | | +.{ ` ^ _ %.&.-.&.$.%.%.%. .| ) / / 5 S W._._./.T.E.E.E.E.R.R R m.K.^.eXfXpXgX/.U R R r @ $ $ $ w b l k h h l ] @.&.%. .%.%.%.%. .A.",
"C.=.-.=.&.&.&.-.&.%.=.-.e.| ! ` | { { { { +.| | { { { +.] | | | | { +.{ _ _ $.=.-.-.=.&.=.&.&.@.@.+.' / ) 5 g .X@X4.o           @   5.wXqX9XpXpX6XM   @   s c c c z k k l k h l ' @.&.&.=.%.7.%.7.%.%.A.",
"A.%.-.-.&.-.-.&.-.-.-.-.0.0.| ! ` { { { +.{ +.{ +.{ | | | ] | } { | { ^ _ $.-.&.0.&.&.0.-.&.%.7.@.@.X.) b ) f , *XwX#X  O f X.v z + 2.@X0X@X<XpX; s b k v k f f k k k c c h l ' %.&.%.7.0.&.7.%.&.7. .A.",
"C.$.&.&.&.&.&.&.&.&.&.&.7.7.e.` ^ ' | X.' +.{ +.{ { X.| | ] | ] | { ^ ^ @.&.&.&.&.&.&.&.&.&.7.7.&.@.+.' ( ) t : #XqX0X%X0X3.& ) _ e 0 u x u n J t e k k k k c c c c b c l b ] %.%.&.7.&.&.7.7.7.&.0.@.A.",
"C.$.&.&.&.&.&.&.7.@.7.@.7.%.7.e.' ! ` { | ' | ' ] ] ] ] ] ] ] ] ' ^ ! $.&.@.7.%.7.%.7.%.7.@.7.@.@.@.7.] ] ) z g 2.K.P.P.P.m s / b b e & & * & & k k k c c c c b b ^ b c c | 7.@.7.7.@.7.7.@.7.%.%.7. .Z.",
"C.$.-.&.&.@.&.&.@.7.%.7.@.7.%.7.-.{ l ' ] | ' | ] ] } ] } ] ] } ^ ! +.&.7.%.%.7.@.7.&.&.%.%.%.7.7.7.@.@.X.] b b &         d ' ) b v b z d b z c k k c c b b ( b ( ( c c | @.@.7.@.7.7.%.@.7.@.7.%.&. .A.",
"C.| &.@.&.&.@.&.@.@.7.@.%.7.%.@.-.e.' l ( ] ' | ] } ` ] ] ] ` ^ ! +.%.@.@.7.%.%.&.&.#.%.@.7.@.7.@.@.@.] @.] b b z v v v / / / ) b 7.b c k e d k k b b ( ( ( ` ] ( c ! | @.7.@.7.@.@. .7.7.7.7.] &.&.| Z.",
"C.+.@.%.@.@.&.@.7.@.@.@.@.@.7.@.&.#.&.' c ( ' ' ] ( ] ] ] ` c b ' #.&.&.@.@.7.@.@.@.@.@.@.7.@.%.@.7.7.@.7.] ] ) v z b v v ) ' ' b 7.b 7.b k e z b b ( ( ) ` ` ` ! ! ] @.7.7.] 7.7.7.@.| | ] 7.7.@.&.| Z.",
"t.] #.@.@.@.@.@.7.@.@.7.@.| @.@.@.@.7.7.` c _ ] ( ( ` } ' c c ] @.@.@.@.| ] @.@.] ] ] | @.@.| ] | | @.@.| @.] b ) b b b ) ) ' X.] 7.b ( ] ) c j c ( b ( ( ` ( ^ c ] 7.+.@.@.] ] | @.] ] | ] ] 7.| | ] r.",
"9._ @.@.+.+.+.| ] | @.| | ] ] ] ] ] ] %.7.^ c ! ( ( b ! c c ( ] X.+.+.] ] ] +.] ] ] ] ] ] | ] ] ] ] ' ] 7.| ) ] ( b b b ) ' ' ' ` b ) ) b ' 7.c c c ( ( ( ! c c ] | ] | | ] ' ] | ] ' ] ] ] 7.] ] ] _ 9.",
"9.[ ' ' ' ' ] ' ] ] ] ] @.+.| @.| | @.@.@.7.^ c ~ ' ( c c ] 7.] | ' @.+.+.$.+.X.] ] @.@.@.@.] @.7.| @.| ' ) ) ) ( ( ) ) ) ] X.+.] 7.] ) 7.7.] 7.! c ( ' ( c c ] @.| | ] @.| ] @.@.] | ] @.| @.] | 7.| 9.",
"r.] @.+.@.@.@.@.@.@.7.@.7.@.@.@.@.@.@.@.@.%.7.( c ! c c ( 7.| 7.@.@.@.@.@.@.@.@.@.@.@.@.@.@.@.@.@.@.] 7.@.@.| @.| ] +.X.@.@.@.@.] 7.7.] 7.] 7.7.7.( c c c c ] @.7.@.@.@.7.] 7.@.@.@.@.@.7.@.7.] ] @.| r.",
"9.( @.] | +.| @.] @.] ] @.] ] 7.b 7.) 7.( 7.7.) c h c ( | ] 7.] 7.) 7.( 7.] ` 7.( 7.] ) 7.) 7.] ] ] ] ] 7.] ] ] 7.] ] ] ] 7.] ] ) 7.( ] 7.( ] } 7.7.c e c ( } | 7.) 7.] ' 7.] ) 7.] ] ] 7.| | ] ] 7.( 9.",
"Z.7.8.8.8.8.8.8.8.8.8.8.8.8.8.8.8.8.8.8.8.7.7.8.7.b ] 7.8.8.8.8.7.8.7.8.8.8.8.8.8.8.8.8.8.8.8.8.8.8.8.8.8.8.8.8.8.8.8.8.8.8.8.8.8.8.8.8.8.8.8.8.8.8.8.` ] 8.8.8.7.8.7.8.8.8.8.8.8.8.8.8.8.8.8.8.8.8.8.Z."
};
