/* XPM */
static char *result[] = {
/* columns rows colors chars-per-pixel */
"100 50 228 2 ",
"   c black",
".  c #160002",
"X  c #040019",
"o  c #001616",
"O  c #270000",
"+  c #370000",
"@  c #340E15",
"#  c #18211D",
"$  c #000025",
"%  c #00002A",
"&  c #01003D",
"*  c #160D3B",
"=  c #35062E",
"-  c #282B33",
";  c #470F01",
":  c #510000",
">  c #600000",
",  c #4C3407",
"<  c #481E29",
"1  c #482C30",
"2  c #4B3232",
"3  c #5F4E1A",
"4  c #544B3C",
"5  c #07124A",
"6  c #18284D",
"7  c #272A4A",
"8  c #32324A",
"9  c #0C0077",
"0  c #343F63",
"q  c #490E4B",
"w  c #4B3844",
"e  c #633E55",
"r  c #3A465D",
"t  c #3C4767",
"y  c #395376",
"u  c #5A4B46",
"i  c #4C4959",
"p  c #694B58",
"a  c #635655",
"s  c #7A644B",
"d  c #76695A",
"f  c #424C63",
"g  c #4F4C60",
"h  c #475165",
"j  c #43536B",
"k  c #51566A",
"l  c #434D71",
"z  c #455772",
"x  c #475974",
"c  c #4B5C74",
"v  c #495679",
"b  c #4B5E7A",
"n  c #595E77",
"m  c #6A5766",
"M  c #4D617D",
"N  c #53637D",
"B  c #5A647B",
"V  c #6E6564",
"C  c #7C726E",
"Z  c #6E6475",
"A  c #797577",
"S  c #820000",
"D  c #960000",
"F  c #A70000",
"G  c #A41F00",
"H  c #823924",
"J  c #AB4909",
"K  c #AB482C",
"L  c #976D3C",
"P  c #8A584C",
"I  c #8C7551",
"U  c #B67053",
"Y  c #805E7C",
"T  c #8B7863",
"R  c #8D607A",
"E  c #867D77",
"W  c #B07668",
"Q  c #C3725F",
"!  c #A68454",
"~  c #86817D",
"^  c #978878",
"/  c #BE826E",
"(  c #AC936E",
")  c #AA966E",
"_  c #100887",
"`  c #292896",
"'  c #4E6382",
"]  c #4D6489",
"[  c #526583",
"{  c #556985",
"}  c #5A6B85",
"|  c #526689",
" . c #556B8C",
".. c #596E8D",
"X. c #5C718E",
"o. c #4E6B97",
"O. c #596493",
"+. c #566D92",
"@. c #5A6E91",
"#. c #5D7293",
"$. c #57749F",
"%. c #5E749A",
"&. c #63728A",
"*. c #74768C",
"=. c #617595",
"-. c #657996",
";. c #6A7B96",
":. c #617699",
">. c #647A9C",
",. c #697D9D",
"<. c #737192",
"1. c #5A5EB7",
"2. c #667CA1",
"3. c #697EA1",
"4. c #7173B5",
"5. c #5A66C8",
"6. c #626ED1",
"7. c #6873DB",
"8. c #6977E9",
"9. c #727CE2",
"0. c #727FED",
"q. c #8B6788",
"w. c #8F6D88",
"e. c #96689A",
"r. c #997699",
"t. c #A176A5",
"y. c #6D819E",
"u. c #768399",
"i. c #6B81A5",
"p. c #6785AC",
"a. c #6D84AA",
"s. c #7286A5",
"d. c #7688A6",
"f. c #7087AB",
"g. c #7289AD",
"h. c #798CAC",
"j. c #758DB2",
"k. c #788FB4",
"l. c #748FB9",
"z. c #7991B6",
"x. c #7690BB",
"c. c #7D94BB",
"v. c #7F98BE",
"b. c #7482ED",
"n. c #7887F6",
"m. c #8D8783",
"M. c #948D87",
"N. c #99948B",
"B. c #9B9793",
"V. c #AA9390",
"C. c #A29C98",
"Z. c #A7A39B",
"A. c #BAA991",
"S. c #838FA3",
"D. c #8692A5",
"F. c #8A96AB",
"G. c #8296B5",
"H. c #8097BD",
"J. c #8299BD",
"K. c #8C9DBB",
"L. c #B38EB5",
"P. c #B38DB6",
"I. c #8FA0BF",
"U. c #90A1BF",
"Y. c #A9A7A6",
"T. c #B3ACA6",
"R. c #B8B2A9",
"E. c #BCA6BE",
"W. c #BAB8B3",
"Q. c #C79686",
"!. c #CFAA9D",
"~. c #CDB292",
"^. c #C794B8",
"/. c #D0AEA1",
"(. c #D6B9AD",
"). c #C4BCB5",
"_. c #D2B5B1",
"`. c #E5C598",
"'. c #D4C3AD",
"]. c #C6C3BE",
"[. c #C9C5BD",
"{. c #E4CFAA",
"}. c #EDD5AA",
"|. c #EED8B2",
" X c #F6E2BD",
".X c #849CC2",
"XX c #899DC0",
"oX c #B78EC0",
"OX c #93A5C4",
"+X c #99AAC8",
"@X c #BCBDC0",
"#X c #96A0F9",
"$X c #C399C8",
"%X c #C99CD1",
"&X c #CDAAD2",
"*X c #D5ABDC",
"=X c #DDB3E4",
"-X c #E3B7E7",
";X c #EABEF1",
":X c #CBCAC5",
">X c #D4D3CC",
",X c #D5CCD1",
"<X c #DBDAD4",
"1X c #E0CCC7",
"2X c #E3D3CA",
"3X c #E5DED6",
"4X c #F7E6C8",
"5X c #E4E3DC",
"6X c #ECE7DB",
"7X c #F6EAD7",
"8X c #FEF2D9",
"9X c #EBDBEA",
"0X c #ECC1F3",
"qX c #F3C6FA",
"wX c #E7E6E1",
"eX c #EDE5E4",
"rX c #ECEAE4",
"tX c #EFEFE8",
"yX c #F2EDE3",
"uX c #F0EFE9",
"iX c #F2EEED",
"pX c #F7F4E7",
"aX c #F5F5EE",
"sX c #F7F7F0",
"dX c #F8F7F0",
"fX c #F7F8F2",
"gX c #FAFBF4",
"hX c #FEFFFA",
/* pixels */
"+XOXOXI.OXOXOXOXOX+XOX+XOXOXOXOXOXOXOXOX+XOXXXK.G.XXOXOXOXOXXXXXOX+XOXOXOXOXOX+XOXOXOXOXOXOXOXXXOXOXOXOXOXOXXXOXOXOXOX+XOXOXOXOXOXOXOXOXOX+XOXOXOXJ.G.I.OXXXOXOXOXXXOXOXOXOXOXOXOXOXOXOX+XOXOXOXOXOXOXOX",
"H.l.x.l.l.l.x.x.x.l.l.l.l.l.l.l.l.l.x.x.l.l.l.$.o.2.c.l.z.x.z.l.l.z.l.l.x.x.x.l.l.l.x.x.x.x.l.l.x.x.l.k.x.l.c.l.x.x.x.l.x.x.x.x.l.l.x.l.x.l.l.l.l.$.o.p.x.x.x.x.x.x.l.l.x.x.x.x.x.x.x.x.l.x.l.l.l.l.l.c.",
"XXc.H.H.c..Xv.v.v..Xc.H.H.H..Xc.v.v.v.c.v.v.a.2.2.2.a..X.X.X.X.X.X.Xc.c.H.H..Xc..Xc.H.H..X.Xc..X.X.X.Xc.v..Xv.v.c.H..XH.H.c.c.H.c..Xv.c.c.v..Xc.3.2.>.2.f.v.c..X.X.XH..XH..X.X.Xv.v.v.v.c.v.v..Xc..Xv..X",
".Xc.c.c.x.c.c.c.c.c.c.c.c.c.c.c.c.c.c.c.l.2.$.z.j.2.2.a.v l l l t f..X.Xk.l..Xc.c.c.c.c.c.c.c.c.x.c.c.c.c.c.z.x.c.c.c.c.c.c.c.c.c.c.c.c.c.c.k.2.$.x.j.:.2.3.k.l.k.k.k.c.x.x.k.k.c.c.c.c.c.c.c.c.c.c.c..X",
"z.g.j.k.j.k.j.j.j.k.j.c.c.c.k.k.l.k.k.j.a.%.j.c.j.%.' | E E E E ~ *.>.2.f.j.k.l.k.j.g.l.k.j.j.j.g.g.j.f.j.j.j.x.j.j.j.j.z.c.c.c.x.k.k.j.j.j.i.%.k.c.j.2.2.$.3.j.j.j.j.k.k.k.g.j.j.j.z.j.j.z.j.j.j.j.g.z.",
"k.a.a.a.a.j.j.g.a.a.a.j.k.k.k.j.g.j.g.2.%.a..Xa.a.n + u uXgXdXgXhXZ.  2 3.j.g.g.l.g.a.g.j.j.a.a.f.f.a.f.f.4.g.g.j.a.a.a.g.k.k.j.k.j.j.j.g.2.%.g..Xa.2.a.a.2.$.a.g.j.j.j.k.g.4.g.j.z.j.g.p.g.j.j.f.a.a.j.",
"G.c.k.j.j.j.k.k.j.j.j.j.g.j.k.k.k.k.2.%.j..Xp.p.  R.aXwXaXaXdXsXaXrXtXtXp <..X.Xz.j.g.l.c.z.j.j.x.c.k.c.z.j.g.g.l.k.j.j.j.j.j.g.k.k.j.k.2.$.g..X3.a.a.a.a.3.2.$.a.x.z.x.k.j.j.z.z.z.z.z.g.j.c.z.j.j.l.G.",
"J.k.z.k.k.x.k.k.l.k.z.x.k.k.c.l.x.2.+.g.v.p.,.W W.wXhXsXdXdXaXdXgXhXwXM.. 5 t l z.c.c.z.z.z.k.c.c.k.k.c.z.z.z.z.c.k.k.c.k.k.l.k.k.c.l.2.+.j.H.p.a.a.2.a.3.p.3.2.%.a.z.c.z.c.z.z.z.z.z.z.z.z.z.z.z.z.z.H.",
"G.k.z.k.z.z.z.z.z.z.z.z.z.z.z.z.2.+.l.c.3.p.*.J aXhXaXaXfXsXfXsX>X>XW.C N.m.m.m.;.=.s.z.k.k.z.k.k.k.c.k.z.z.z.z.k.z.z.z.z.z.z.z.x.j.2.+.k.x.a.a.3.p.a.3.p.2.i.i.%.$.a.z.k.l.z.k.c.z.k.k.z.z.z.z.z.k.j.H.",
"G.j.z.k.z.z.j.z.z.k.z.k.j.x.j.2.+.g.c.f.2.f...@ 5XpXaXpXaXtXsXtXa   B.hXdXgXhXpXa + n z.k.k.k.k.k.k.k.k.z.j.z.z.k.k.j.z.z.z.j.z.j.2.+.j.z.g.2.a.a.a.2.i.2.p.i.i.2.2.%.a.k.k.k.z.k.k.k.k.z.z.z.j.z.k.j.z.",
"G.j.z.k.j.j.j.z.j.z.j.k.k.j.2.$.f.z.3.2.g.j.#.; U P - 1 1 u u u 5XaXuXaXfXaXsXsXrXaX).  G.k.j.k.k.j.k.k.j.k.z.j.k.z.j.z.z.j.x.j.>.%.g.z.a.i.p.3.2.a.2.p.a.i.i.p.a.2.%.%.a.j.k.k.j.z.k.k.z.j.z.z.k.k.j.c.",
"v.j.j.k.j.j.z.j.j.j.j.z.j.2.%.i..Xf.g.f.0 6 5   D A.:X:X:XC a >XaXgXdXaXaXsXpXaXsXdXrX].f >.H.j.k.k.k.j.j.j.j.j.j.j.j.j.j.j.j.2.$.a.c.p.i.a.i.p.3.a.i.a.3.p.i.i.a.a.p.%.$.a.j.k.j.k.j.j.j.j.j.j.k.k.j.c.",
"c.h.j.j.j.j.j.j.j.j.j.k.2.+.a.v.i.#.| [ M.M.M.B.Q.3XhXhXhXB.~ hXaXaXsXsXsXfXgXdXdXdXgXfXC.*.3.k.h.j.j.j.j.j.j.z.j.j.j.j.j.j.2.+.p.J.i.i.i.p.a.4.p.3.p.a.i.p.i.p.2.a.a.2.%.%.a.k.j.j.j.j.j.j.j.j.j.k.g.z.",
"c.h.j.j.g.j.j.j.j.j.j.2.+.p.c.3.i.B , u uXhXgXhXgXfXaXuXgXB.M.gXaXsXsXsXaXaXuXuXtXaXtXaXhX^ 8 G.g.j.j.j.j.j.g.j.j.g.j.j.j.2.+.p.x.i.i.i.i.i.i.p.3.a.3.3.i.i.i.i.a.2.2.2.3.%.%.i.z.j.j.j.j.g.j.j.g.j.k.z.",
"c.j.j.j.j.j.j.j.j.g.,.+.s.c.,.X   W.sXrXaXaXaXaXaXsXdXdXfXaXaXdXsXsXaXaXhXZ.. u u . Z.hXfXN.  * z.j.h.j.g.j.g.j.j.g.j.j.>.+.g.z.a.i.i.i.i.i.3.3.3.2.p.2.i.i.i.%.2.2.2.2.2.%.$.%.i.j.j.j.j.j.g.g.j.g.g.z.",
"h.i.a.a.a.f.a.g.a.2.+.i.c.v u ~.[.rXgXdXsXsXsXsXdXsXsXdXaXdXfXaXsXsXgXsXB.r.t.r.r.t.r.N.hXM.A :X7 #.j.a.f.f.g.p.f.g.g.>.+.f.j.i.%.2.i.i.%.i.2.2.2.2.2.2.%.2.i.i.2.%.:.2.%.2.:.%.+.i.a.g.f.f.f.a.i.g.i.h.",
"d.i.i.i.i.i.f.i.%.+.i.c.{ A T.4XgXgXaXaXsXaXsXaXsXaXdXaXdXfXaXdXsXfXeX).m P.*X=X*X-X$Xq.3Xd C.hXC.*.X.a.a.a.3.a.a.a.:.+.a.c.3.:.>.%.2.>.%.2.2.%.%.%.2.%.$.%.>.%.%.%.2.%.2.%.>.%.%.+.2.f.a.i.i.4.i.i.i.i.",
"k.i.g.a.i.j.g.i.+.y.c.i.@ ].hXaXsXaXsXsXsXsXsXsXaXsXfXdXdXaXdXsXaXhX:X  %X%X*XqX0X0X0XqXK : B.gXgX^ 7 g.3.a.a.g.g.2.+.2.c.2.2.3.2.>.2.%.2.%.2.2.>.2.2.i.i.%.i.%.i.i.%.%.i.i.>.%.%.+.%.f.a.i.p.g.g.f.i.g.",
"z.f.g.g.g.p.%.+.y.x.] . <XfXsXsXfXfXsXsXfXgXgXgXhXgXsXsXdXfXaXfXsXhX,X< P.=X0X;X;X0X0X-XQ : B.gXsXQ.S -   ,.c.l.:. .2.c.2.i.2.2.2.2.2.2.2.i.2.2.2.i.2.i.2.2.i.%.i.i.2.i.2.i.2.i.i.>.+.+.i.g.f.g.g.g.g.j.",
"k.s.g.f.g.y. .i.j.w.W ~.tXfXaXfXsXaXsXaX7X/.A ~ A E.9XgXfXsXdXdXaXgX:X  $X;XqXqX0X;XqX0X> T.wXsXfX{.U w %XZ o w @.a.j.2.2.i.2.2.i.2.2.2.2.2.2.2.2.2.2.2.2.y.i.i.i.>.>.i.i.%.2.2.i.>.>.#.#.i.g.f.g.g.a.j.",
"k.a.g.p.%.| i.g.p.p U 7XpXsXsXsXsXaXsXaX~.! T B.I R E.9XaXsXsXsXaXgX3XC.r.L.^.$X;XqX-XP.B.wXhXaXaXyXA.q qX$Xq.*.n i.a.>.2.2.2.2.2.2.2.2.2.2.2.2.2.>.>.>.i.%.%.i.%.2.%.i.2.>.2.2.>.2.i.%.+.@.3.j.a.f.a.j.",
"h.p.f.y.+.i.j.i.;.k m.fXaXsXsXdXsXsXsXaX8 ) 8XgX4X! q oXtXsXsXsXsXsXsXrXg % $ 8 =X;XE.4 dXdXaXsXaXhX[.= =X0X=XoX1 ..2.2.2.2.2.2.2.2.2.>.2.2.>.2.2.2.i.%.%.i.2.2.i.2.%.i.2.2.2.2.2.2.>.2.:.+.#.2.g.g.a.g.",
"z.s.%.+.y.j.i.y.K (.dXaXfXfXsXsXsXaXsXaX4 W.gXtXdXZ.  a wXfXaXsXaXhX>X= 9.0.0.9.u   C.gXaXaXfXdXaXhX].  2 < + 2 :.:.2.2.%.2.2.2.%.2.2.2.>.2.2.2.2.i.2.i.i.2.2.2.%.2.i.%.2.>.2.2.2.2.2.2.2.%.+.+.y.f.f.g.",
"k.%. .$.j.i.%.%.: ).hXaXdXaXsXsXsXsXsXaXi A.8XgX8X^   , wXhXaXsXaXhX:X  b.n.0.0.6.7.4.V.aXdXaXdXaXgX].  h j } B #.:.%.:.2.2.>.>.2.2.>.>.2.>.>.>.%.>.%.2.%.y.%.2.i.i.%.>.2.2.%.2.%.2.>.%.2.2.%. .+.i.f.i.",
";. .>.g.2.@.>.>.  W.hXsXdXdXfXdXsXsXfXaXP L ~.].A.A.B.q.tXfXsXsXaXgX3XC.1.8.n.b.n.7._ + dXgXaXdXaXhX].  } ;.| } @.@.@.:.>.:.:.:.,.>.%.%.%.#.%.%.#.%.%.%.%.%.>.:.%.%.#.%.%.>.%.>.2.:.%.%.#.%.:.2...+.+.#.",
"=.] >.g.@.@.@.#.  T.aXpXaXaXsXsXsXaXsXaXQ.H       ].iX&XaXfXsXsXsXaXhXfXs 1.b.b.9.&.3 ~ 5XaXaXdXaXgX:X  n &.b [  ...@.@.:.@.%.#.%.#.#.%.>.:.%.%.@.#.:.:.:.#.%.#.%.%.%.#.#.#.+.#.%.#.%.:.:.#.@.#.+. .| #.",
"f.+...%.:.:.@.@.w   s {.pXsXaXsXfXdXaXaXfX/.S @   e.=XhXgXgXgXgXfXdXsXfXgXN.` b.  :XhXrXO >XgXdXpXhX].  b [ } |  .@.:.:.:.:.%.%.:.%.%.>.>.%.:.>.:.:.%.>.>.%.%.:.%.%.%.%.>.%.%.>.:.:.:.2.2.:.%.@. .i.i.-.",
"z.2.@. .:.:.:.&.$ ! {.6XaXsXdXfXdXaXfXsXsX6X3X<X>XwX2XW / / / / U 6XwXd #Xn p &X<XaXgXuX5XB.W.gXaXhX].  N v | @.=.=.:.>.:.:.>.:.%.>.>.%.>.2.>.:.:.2.>.>.:.>.:.>.-.-.>.>.>.%.>.>.:.:.:.:.:.:.@.@.,.g.g.i.",
"h.3.3.@. .@.=.X.t T '.gXaXdXdXdXdXdXdXsXaXfXgXgXgXhXyX/.(.!.!.!.!._.U.` 8.5.O.t.@X,XuXgXhXA m.hXaXhX].  &.| '  .%.:.:.:.:.>.:.:.%.>.>.>.>.>.>.:.:.>.:.>.#.>.>.:.>.>.%.>.%.>.:.>.:.:.:.:.:.@.@.>.g.s.3.d.",
"h.3.s.3.@. . . . .5 V pXaXdXaXsXdXdXdXdXfXdXaXaXsXyXyXdXuXdXhXhXhXM.9 n.b.#X5.  2 e.&X6XdXm.N.hXtXgX].  ;.>.O.| #.:.:.:.>.:.:.>.>.>.#.>.=.:.:.:.:.:.:.:.>.:.%.>.=.%.>.>.>.:.>.%.-.:.2.:.@.| :.k.i.i.y.f.",
"h.3.i.i.2. .| | } 8 s }.uXdXpXdXdXfXdXdXdXsXdXaXhX!.F J F 1XgXfXhXN.9 #X9.#X1.2 sXB.  u gXM.M.hXaXhX[.  ;.,.>.@.| #.:.:.:.:.:.:.>.#.%.>.%.=.:.>.:.:.:.%.%.>.>.#.%.=.>.#.%.:.#.:.=.:.:.@.| 3.h.3.i.i.y.d.",
"h.,.i.i.3.,. .' [ b g s {.pXhXaXaXaXaXfXsXsXsXsXsXeX3X3X6X!.U Q U '.W.5 & 7.6.3 aXwX<X<XC . Z.gXfXY.m } =.,.3.2.+.| @.:.:.#.:.:.=.%.#.#.>.#.#.:.=.#.:.=.#.>.#.:.=.%.#.>.#.#.>.#.:.:. .O.2.f.f.s.i.s.i.s.",
"S.3.3.3.3.f.>.| b M x 7 ( A.:XgXgXgXaXfXsXdXaXdXfXgXgXfXhX1X/.(./.yXrXZ.R.4.9 , uXgXhXaXW.@ B.gX8XT % ;.=.,.3.3.3.O.| @.#.%.=.=.:.=.=.:.:.:.=.%.=.:.:.=.:.:.=.:.=.%.=.:.=.:.=.:.=. .| -.f.s.3.3.i.y.y.s.",
"h.3.3.3.3.3.3.:.' x M N 6   V 5X5X6XpXaXsXdXdXdXpXiXsXsXsXhXdX7XdXdXdXhXhXT.4 ~ uXfXaXaXhXZ.Y.gX~.I r =.=.,.3.3.3.,. .O.#.#.#.%.=.=.@.#.#.#.=.=.@.:.#.#.=.#.#.=.%.#.:.:.:.@.=.#. .| =.f.3.2.3.3.y.i.i.i.",
"d.2.3.3.3.3.2.>.#.b z c k M h +   )  XfXsXsXpXdX{.6XfXsXaXfX2XJ `.7XgXaXpXaXdXdXsXuXfXfXaXaXdXtX2 f } X.;.:.3.3.3.3.>.| | #.#.#.@. . .@.#.@.@.@.@.=.@.@.O.} @.@.@.%.%.#.#.@.@.@.| #.g.2.3.3.3.3.y.2.y.i.",
"3.@.=.=.=.,.>.-.=...b z z j j h f a s C C V V. X}.}.4XsXaXhX1XG , ~. X XgXhXgXgXhXhXpX|.|. X'.a k c [ { ..@.=.>.,.>.>.=.| |  . .@.@.@.@.@. . .@.@.@. .@.@.@.@.@.&.@. . .@. .@.| #.g.>.>.,.:.:.:.%.%.X.y.",
"3.2.2.:.,.-.>.>.>.-.@.b y c M x M r * * * $ u ) ( ! _.hXaXgXeX^.L.V.) ) T.R.R.W.T.T.R._._.A.I 5 [ [  .=.=.-.>.-.:.,.3.,.=.O.'  .#.@.#.#.#.#.+.+.@...@.@.@.@.@... .@.@.@.&.| ' :.i.>.>.,.y.%.#.#.#.>.>.,.",
"S.3.3.3.3.,.>.2.3.,.-...M x c M c M N M c N j X %   A 5XsXsX9XqXqXr.  $           < e.%XoXk 6 &.} } =.-.>.,.3.3.,.,.3.3.3.:.| [ @.#.#.#.#.%.#.X.#.@.+.#.#.#.%.+.@.@.@.%.| ] :.3.i.>.>.,.i.y.y.$.,.i.i.i.",
"3.,.3.3.3.3.,.3.2.,.,.-.} M y M M c M j c c k c c B r @ pX,XoX9X%XY # B B } k @   %XqX-X2 h } N } &.=.>.,.3.3.,.3.3.3.3.3.3.=.| ' #.#.#.#.#.#.#.#.:.@.#.#.@.%.#.&.@.&. .[ #.3.3.>.i.i.>.%.y.y.y.3.,.,.s.",
"S.>.,.,.,.,.,.,.,.,.,.,.y.#.M x M N N M c M c c c c j h V a g V e i j N } # w.0X-XqX;X%X< f } } X.=.-.;.,.,.,.,.,.,.,.,.,.,.,.:.{ '  .X.#.X.#.X.&.@.#.&.#.&.@.&.#.#.| [ @.d.3.3.y.-.y.y.>.y.y.%.,.,.,.y.",
"3.,.,.,.,.>.,.;.y.y.#.y.#.y.X.M M M [ N N M M M c c c c - r 8 - - f } N } r A L.L.L.r.q.h N } X.#.%.>.-.>.y.y.,.,.;.,.,.;.,.,.,.X.M ' X.X.X.X.X.X.X.X.X.+.X.X.+.@.| [ ..y.y.-.y.y.y.%.y.y.y.#.y.,.,.-.i.",
"3.>.,.;.,.,.,.,.#.y.y.y.%.y.y.X.M M { { { { N N M M M c c x x j x } N } N X.y         # N } } X.-.-.>.y.>.>.-.-.,.,.,.,.,.,.>.,.y.X.' ' X.X.X.X.$.X.X.X.X.#.X.X.| [  .s.y.y.y.%.%.y.y.-.#.y.y.y.,.,.>.y.",
"d.:.,.>.-.;.>.,.y.y.y.X.y.y.y.y.X.M M { }  .{ [ { N M M c j r j B } } X.} B B } B N } B B } X.=.;.y.-.>.,.-.-.y.>.>.,.>.;.>.,.>.#.y.#.M '  .X.X.......X.X.X...{ b X.,.,.y.=.=.y.%.y.%.y.#.y.y.y.>.,.-.y.",
"u.;.;.>.;.>.-.-.X.y.#.y.X.#.y.#.y.X.M ' ....} ..{ { { M c j M } X.} X.&.X.X.} N N N N N } } &.=.-.-.-.y.-.-.-.y.;.=.=.;.>.;.-.-.y.y.y.X.' '  .X...X.........{ M X.,.i.;.=.y.-.y.y.-.-.-.y.y.X.#.-.;.-.y.",
"y.X.=.#.-.=.=.X.X.X.y.y.X.X.X.y.y.y...M M ..{ { M y.b M j j X.X.} } X.X.X.X.} } N N N { } X.-.-.#.#.y.X.X.X.y.-.=.X.X.X.=.=.X.=.y.X.y.y.+.M M {  .{ { { ..{ M ..,.,.-.-.-.#.=.-.#.y.y.#.-.y.#.y.;.-.X.-.",
"y.} X.X.#.=.X...X.X.X.X.X.X.X. . .X.#.{ M M ' { { M b y M y.y.N X.X.X.} X.} } } N [ N { X.} #.-.X.X.X.} X.X.X.X.X.X.X.X.#.=.X.X.X. .{ X.#.X.M M N { { { M M { y.,.&.X.#.X.X.X.X.#.X.X.X...X.y.X.=.-.X.=.",
"y.=.=.X.#.-.-.=.} X.X.X.y.X.} y.X.X.#.y.X.M M { y.b c c y.y.y.{ X.X.-.X.=.=.X.} ..} { { } } X.} #.X.#.y.#.#.=.=.-.=.X.X.X.-.-.=.X.y.X.X.y.#...M M { ..' M M y.y.=.#.X.#.-.X.#.X.-.X.X.} ..X.X.} X.} X.y.",
"u.-.;.-.,.;.-.;.y.X.y.y.X.y.y.X.y.y.#.y.y.#.' ' M M { y.y.y.} y.-.-.y.=.y.&.y.&.-.&.=.-.-.-.=.-.y.y.X.y.-.;.;.;.;.-.-.-.;.-.-.-.X.y.y.X.y.y.y.#.' M { M N y.y.y.;.;.;.;.y.=.y.y.y.=.y.y.y.#.y.X.-.-.-.y.",
"-.} X...X...X.......X.X.X.X.X...y.{ { &.X.y.} y y N y.y.y.{ y.y.X.&.M y.X.&.N y.N y.y.N y.&.X.X.} ......X.X.X.X.....X.X.X.X.....X.X...X.X.X.} X.N y y M X.y.{ X.X.X.X.X.X.........X.X.X.X.X.X....... .#.",
"F.S.D.D.D.D.h.D.D.D.D.D.h.D.D.D.h.B.h.h.h.u.D.u.u.u.h.u.B.h.y.d.h.h.h.B.h.h.d.D.h.D.u.D.u.h.D.D.D.D.D.D.D.h.D.D.D.h.D.D.D.D.D.h.D.D.h.D.D.h.D.D.F.u.u.h.F.D.h.D.D.h.D.D.h.D.D.D.D.D.D.D.h.D.D.D.D.D.D.F."
};
