/* XPM */
static char *_858074c93cd44aef14cfe5509005778J5W0YeFffFy0Lk7g[] = {
/* columns rows colors chars-per-pixel */
"50 50 229 2 ",
"   c #000000",
".  c #0D0302",
"X  c #140000",
"o  c #1C0000",
"O  c #240000",
"+  c #2D0100",
"@  c #2D0A00",
"#  c #330000",
"$  c #370703",
"%  c #3D1800",
"&  c #340A16",
"*  c #2A2A15",
"=  c #000027",
"-  c #00003A",
";  c #390D34",
":  c #510D02",
">  c #421605",
",  c #760400",
"<  c #741D00",
"1  c #5A3804",
"2  c #4A2C1B",
"3  c #4C2B2F",
"4  c #4B3223",
"5  c #4A3936",
"6  c #543E34",
"7  c #6A4E00",
"8  c #5D4129",
"9  c #5B4638",
"0  c #6F5430",
"q  c #080B49",
"w  c #092A4C",
"e  c #3D3345",
"r  c #33374E",
"t  c #00007B",
"y  c #173D62",
"u  c #303C62",
"i  c #4C0048",
"p  c #590156",
"a  c #4C2F4E",
"s  c #443B48",
"d  c #663C4A",
"f  c #364459",
"g  c #31476F",
"h  c #4F444A",
"j  c #5B4D4A",
"k  c #534D55",
"l  c #6C5643",
"z  c #635348",
"x  c #6C4A5F",
"c  c #695D5A",
"v  c #776A57",
"b  c #464F6C",
"n  c #5D4E65",
"m  c #455268",
"M  c #445274",
"N  c #485778",
"B  c #4C5B7B",
"V  c #535C76",
"C  c #6E4C60",
"Z  c #6C5B6F",
"A  c #7B5A75",
"S  c #7D537D",
"D  c #4D607E",
"F  c #56617C",
"G  c #6A6367",
"H  c #7A756A",
"J  c #716C78",
"K  c #7D7672",
"L  c #7D7878",
"P  c #830500",
"I  c #802500",
"U  c #A63200",
"Y  c #A84704",
"T  c #AB5300",
"R  c #9D5D58",
"E  c #BA5E5F",
"W  c #8C7149",
"Q  c #89745B",
"!  c #B4634A",
"~  c #BA725A",
"^  c #825E69",
"/  c #90736C",
"(  c #837E75",
")  c #99805E",
"_  c #8F816B",
"`  c #A88D6B",
"'  c #A89479",
"]  c #B49C77",
"[  c #BAA27D",
"{  c #C58F75",
"}  c #303BA5",
"|  c #3F53A5",
" . c #4D4796",
".. c #4D6184",
"X. c #4D638B",
"o. c #536484",
"O. c #5A6986",
"+. c #536A8B",
"@. c #5A6D8C",
"#. c #5C718E",
"$. c #576D91",
"%. c #5A6F93",
"&. c #5D7292",
"*. c #5D7799",
"=. c #636E89",
"-. c #66738C",
";. c #74758A",
":. c #627693",
">. c #647895",
",. c #6A7996",
"<. c #62769A",
"1. c #667B9B",
"2. c #697D9D",
"3. c #4248A7",
"4. c #5457AA",
"5. c #5F60AD",
"6. c #6A69A2",
"7. c #657DA2",
"8. c #697EA1",
"9. c #5560C4",
"0. c #6B71CD",
"q. c #6B76DB",
"w. c #6D7AE2",
"e. c #6F7CE8",
"r. c #717EEA",
"t. c #805780",
"y. c #8E778C",
"u. c #BD7C99",
"i. c #A57DAB",
"p. c #C77F85",
"a. c #7F8089",
"s. c #6D819F",
"d. c #74849C",
"f. c #6780A7",
"g. c #6C81A4",
"h. c #6D85AA",
"j. c #7485A5",
"k. c #7989A4",
"l. c #7087AA",
"z. c #7289AD",
"x. c #7C8DAA",
"c. c #7F91AF",
"v. c #758DB3",
"b. c #788EB3",
"n. c #758EB8",
"m. c #7991B6",
"M. c #7790B8",
"N. c #7D94BC",
"B. c #7280EE",
"V. c #7583F3",
"C. c #7887F7",
"Z. c #7C8BFC",
"A. c #838184",
"S. c #948E8A",
"D. c #9D9995",
"F. c #A79988",
"G. c #A29E98",
"H. c #A8A29D",
"J. c #B6AE9B",
"K. c #8294B3",
"L. c #8398BA",
"P. c #8599BA",
"I. c #A48CA6",
"U. c #BB94BF",
"Y. c #AAA5A4",
"T. c #B3AAA6",
"R. c #B2AEAA",
"E. c #BAB5AD",
"W. c #BCB9B5",
"Q. c #CA9C91",
"!. c #CBB288",
"~. c #D4B88A",
"^. c #CBB090",
"/. c #D6B894",
"(. c #CD94B2",
"). c #CDB3AD",
"_. c #D6B9AD",
"`. c #C0BDB7",
"'. c #DFC394",
"]. c #E6CB9C",
"[. c #D8C5A8",
"{. c #C5C1B9",
"}. c #D7C2B2",
"|. c #E2C8A6",
" X c #EAD3B3",
".X c #839BC3",
"XX c #BB92C3",
"oX c #8EA0C1",
"OX c #91A3C4",
"+X c #C395CC",
"@X c #CB9BD6",
"#X c #D1B3CF",
"$X c #CDA4D3",
"%X c #CEA6D9",
"&X c #D6ABDD",
"*X c #E5BAEC",
"=X c #E8BCEF",
"-X c #EABFF2",
";X c #C8C7C1",
":X c #CCCBC6",
">X c #DDC5C4",
",X c #D3D2CC",
"<X c #DCD6C9",
"1X c #DBC7DC",
"2X c #DAD9D4",
"3X c #DDDBD5",
"4X c #E7CFC2",
"5X c #E7DAC9",
"6X c #E4DDD5",
"7X c #F6E5C7",
"8X c #F2E6CB",
"9X c #E4E3DC",
"0X c #EBE5D9",
"qX c #F6EBD6",
"wX c #FCF2DD",
"eX c #E6DAE7",
"rX c #EEC2F5",
"tX c #F2C7FA",
"yX c #EBEBE4",
"uX c #EBE8E7",
"iX c #F2EEE3",
"pX c #F5F1E4",
"aX c #F5F5EE",
"sX c #F9F7EB",
"dX c #F7F7F0",
"fX c #F7F8F2",
"gX c #F9F9F2",
"hX c #FBFBF4",
"jX c #FEFFFA",
/* pixels */
"m.m.m.m.m.m.N.N.N.N.N.N.m.N.N.N..Xm.b.b.m.n.v.N.v.7.h.m.N.N.N.m.N.N.m.m.m.m.N.N.N.N.N.N.N.m.m.m.n.oX",
"N.N.N.N.N.N.N.N.N.N.N.N.N.N.N.N.N.N.N.N.N..X.X.Xv.7.7.m.N.N.N.N.N.N.N.N.N.N.N.N.N.N.N.N.N.N.N.L.N.OX",
"N.N.N.N.N.N.N.N.N.N.N.N.N.N.N.N.N.N.N.N.N.<.%.o.N N $.7.m.N.N.N.N.N.N.N.N.N.N.N.N.N.N.N.N.N.N.N.M.oX",
"N.N.N.N.N.N.N.N.N.N.N.N.m.m.N.N.N.b.b.b.z.c 9 j j 9 ,.1.1.b.N.N.N.N.N.N.N.N.N.N.N.N.N.N.N.N.N.N.m.oX",
"z.v.v.v.v.b.b.v.v.b.v.b.v.v.b.v.v.m.B   . 9XfXaXaXgXG.  X 8.b.b.b.b.b.m.N.N.m.b.v.v.v.b.b.v.v.v.h.L.",
"z.z.h.h.v.b.z.h.z.v.v.v.v.h.v.N.N.M ' [.2XaXgXgXgXgX9X,X,Xh X.b.v.v.b.b.b.b.v.z.h.h.v.v.z.z.h.z.h.K.",
"m.m.b.v.m.N.b.v.b.m.m.m.m.b.8.@.=.  W [.pXgXgXfXaXaXhXjXhX' G $.b.v.m.b.v.v.v.v.v.v.m.m.v.v.v.m.M.P.",
"m.m.m.m.m.m.m.m.m.m.m.m.z.m.J 1 z c s v '.0XaXaXaXaXaXaXaX7X` - f.b.m.m.m.m.m.m.m.m.m.m.m.m.m.m.b.P.",
"m.m.m.m.m.m.m.m.m.v.N.l.X   `  XaXaXgX2X    [ 7XhXhXhXhXhXjXG.- <.1.b.m.m.m.m.m.m.m.m.m.m.m.m.m.b.P.",
"v.m.m.m.m.m.m.m.v..XX.G 2X,X0XpXfXfXgXaX,X3XF.0 S.K K K K 7X' u L.1.7.v.m.b.m.m.m.m.m.m.m.m.m.m.b.P.",
"v.b.b.b.b.b.v.v.m.%.a.`.hXhXhXfXaXfXfXgXhXjX,XL   S.G.D.D.] 0 q :.M X.f.v.m.b.b.b.b.b.b.b.b.b.m.v.P.",
"v.b.v.v.v.v.v.v.z.2 {.jXaXaXaXaXaXfXfXfXaXaXjX9X: aXjXjXhXJ j c z z =.&.1.v.b.v.v.v.v.v.v.v.v.b.v.P.",
"v.v.v.v.v.v.m.g.& ~.8XfXhXhXhXhXhXaXaXfXdXaXhX5XU uXfXaXaXaXaXaXaXhXD.  o 7.N.m.v.v.v.v.v.v.v.v.v.L.",
"v.v.v.v.v.v.m.g.+ <XhXuXK _ ( ( ( aXhXaXdXdXgXaX6XaXfXfXfXfXgXgXfXgX9X2X,Xe = ..N.v.v.v.v.v.v.v.v.L.",
"v.v.v.v.v.v.b.g.o uXuXY.S S S S S R.9XhXaXdXaXgXhXaXfXfXfXfXaXaXfXaXgXhXgXR.' Q ..v.v.v.v.v.v.v.v.K.",
"h.h.h.g.h.h.z.2.X 6XT.p &X%X%X$X%Xi R.aXaXfXaXaXaXaXfXfXfXaXfXfXfXfXaXaXaXjXqX/.k s.h.h.h.l.l.h.f.c.",
"f.8.f.f.f.8.h.1.& Y u.%X-XrX&XXX+X%Xt.H hXaXfXfXaXaXfXfXaXaXaXaXaXfXfXfXfXaXaXfXuX% @.n.f.f.f.g.7.x.",
"h.h.h.v.z.h.h.1.+ U (.-XrXrX=X*X*X+X#X9XfXdXfXfXfXfXaXfXfXhXjXjXjXgXaXfXfXfXfXgXaX9XA.g m.g.h.z.h.c.",
"z.z.z.z.z.z.v.2.b < (.tX-XrXrXrXrX1XuXhXaXdXfXfXfXaXfXsXqX{.W.W.`.aXgXaXfXfXaXaXaXjX).Q @.z.z.z.h.K.",
"l.z.z.z.l.z.f.&.<.w I.=X-XrXrX-X=XdXgXaXfXfXfXfXfXfXaX0X~.0 5 6 8 3XaXfXfXfXaXfXaXfXqX^.  z.z.z.h.K.",
"h.l.z.l.z.7.&.%.<.h.b A tXrXtX*X+XuXgXfXfXfXfXaXaXfX8X!.; '.qXpX].$ ;XhXaXfXaXaXfXaXhX;X  1.z.z.h.K.",
"h.l.h.z.8.&.&.%.s 5 @ > ^ Z R Q.uXaXfXfXfXfXaXaXaXhXE.1 5 0XdXaXiX& ;XjXaXaXaXaXfXaXgXaX,Xh @.z.h.m.",
"h.z.h.f.%.$.1.&.+  .4.4. .| p ` hXdXfXfXfXaXaXaXaXjXH.  2 5XgXgXqX> ;XjXaXfXaXfXfXaXaXhXaX4 M f.f.K.",
"2.z.f.$.$.&.7.@.# w.C.V.V.Z.3.H hXaXfXfXfXfXaXaXaXjXR.3 H [ 5X6X~.# ;XhXaXfXaXfXfXfXaXgXuX5 N &.*.K.",
"&.%.%.$.<.&.1.:.% w.V.e.e.Z.3.v hXaXfXfXaXaXaXaXaXgX#X#XgXc + 3 5   ;XhXaXfXfXfXfXfXfXhXaX4 >.7.X.2.",
"+.+.+.$.&.7.M     - 9.Z.C.t H.uXaXfXfXfXaXjXjXjXjXjXfXeX$X&     . ,XaXgXaXfXaXfXaXfX8X^.n $ ,.1...,.",
"&.8.g.+.&.g A.E.R.] y.4.5.H.9XjXaXfXfXfXaXW.)._._._.5X0X1XE.R.R.E.aXgXaXfXfXfXfXfXfXqX[.) > o.&.$.x.",
"8.z.x.<.O.j {.jXdX X' q a 3XaXaXaXfXaXfXaXK R ~ ~ ! ~.8XhXhXjXjXhXaXaXfXfXfXfXfXfXaXhXqX/.h N *.7.K.",
"g.f.l.j.o 6XhXiX|.7 3.C.V.- E.jXaXfXfXfXfXfXfXhXhXhXhXfXaXaXaXaXaXfXfXfXfXfXfXfXfXaXjX:X  @.%.8.8.x.",
"g.g.l.1.O 3XjX9Xl 0.w.B.r.w.6.G.gXaXfXfXaXjXwX|.~ ~ /.8XfXaXfXfXfXfXfXfXaXfXfXfXfXfXqX^.  @.f.g.8.x.",
"g.g.h.>.X 9XjX3X  w.C.V.V.Z.} v hXaXfXfXfXW.F.] _.). XqXfXfXfXfXfXfXaXaXaXfXfXfXaXjX[.Q b 2.g.g.7.x.",
"g.g.h.1.e :XaX9X+ 0.q.q.q.w. ./ hXaXfXaXiX( s G.jXjXhXfXfXfXfXfXfXfXaXaXaXfXfXfXaXuXA.q h.g.g.g.7.x.",
"g.g.g.g.l.  W.uXX # # # # * P { gXaXgXiX].sXhXgXaXaXaXaXfXfXfXfXfXfXfXfXfXaXaXgXaX4 N g.g.g.g.g.7.x.",
"g.8.g.g.g.<.;.v & V B o.:.  H.iXaXfXdXaXpXaXfXfXfXfXfXfXfXdXfXfXfXfXfXaXaXjXqX[.G o.<.g.8.g.g.g.7.x.",
"8.8.8.8.8.g.@.r # 2.*...V ) <XjXaXfXaXfXfXfXaXfXfXfXfXaXfXfXfXfXaXaXfXgXaX}.Q.Q w 1.g.2.8.8.8.8.1.k.",
"<.&.<.<.<.&.1.1.e :.z.O.O |.wXfXaXfXaXaXaXfXfXfXfXfXfXfXdXfXfXfXaXfXpXpX0XY : y 2.1.1.1.1.<.&.<.%.d.",
"1.1.1.<.<.<.<.1.2.1.g.,.# 9XhXaXaXaXaXaXdXdXfXfXfXfXfXaXfXaXaXfXaXgX5X].|.6 N 2.1.8.1.<.<.1.1.1.<.k.",
"2.8.8.1.1.1.8.<.s     . # 9XhXaXfXfXaXaXfXfXfXfXaX{ 4XjXaXfXjX0X{ aXsXpX0X6 B g.8.8.2.1.2.8.2.8.1.x.",
"8.2.8.8.8.2.g.:.O I.U.i.O uXhXaXfXfXfXfXfXfXfXfXaXY /.pXfX8X6X).I iXgXhXaX9 F g.2.8.8.2.8.8.8.8.1.k.",
"2.2.2.2.2.2.2.:.e $XrX&Xo 6XgXfXfXfXfXfXfXfXfXfXaXQ.{ [.uX X#Xi.* uXgXaX0X6 F g.2.2.2.2.2.2.2.2.<.k.",
"2.2.2.2.2.2.2.2.g.  y.U.o ~.qXfXaXfXfXfXfXfXaXaXaXjXG.i $X-XtX$X+ uXfXqX].2 F g.1.2.2.2.2.2.2.2.<.k.",
"2.1.2.1.2.1.1.1.1.>.Z 3 @ T 4XjXfXaXaXaXfXfXfXhXgXgXfX,Xa n ; y.uXgXjX3X1 -.>.2.2.2.2.2.2.2.1.2.<.k.",
"1.1.1.1.1.1.1.1.1.2.O.m V , / `.8XgXhXhXhX8X8X5X1X1X>XQ., ] J.,XjXE.R.D.g 2.1.1.1.1.1.1.1.1.1.2.<.k.",
"2.1.>.>.1.1.1.1.1.>.2.s.2.m = z ~.<X3X3X3X|.|._.@X@Xu.E p./.5XuX,Xs   f s.>.1.1.>.>.>.>.1.1.>.1.>.d.",
"<.<.>.>.>.>.>.>.>.>.>.<.<.>.2.=.o o o . X XX+X%XrXrXrXtX-Xa     O >.s.2.#.&.>.<.#.#.#.:.>.>.&.:.&.d.",
"@.#.>.>.&.<.:.#.&.&.>.<.&.#.@.#.O.O.+.J Y d d d C x x x C Y ^ +.O.#.&.&.@.#.&.&.@.@.@.#.&.&.@.@.+.d.",
">.&.@.@.@.#.#.@.#.&.&.<.>.:.:.<.&.&.*.;./ F f f f f f r r ^ ;.*.:.&.<.:.:.<.:.#.&.#.<.<.<.:.&.<.&.d.",
">.<.:.:.:.:.:.:.<.<.>.>.>.<.<.>.:.:.>.>.*.g.g.+...+.o.o.&.*.>.<.:.<.>.:.<.>.<.:.:.:.>.>.>.>.<.>.&.d.",
">.:.>.>.>.>.>.>.>.>.:.:.:.>.:.>.>.:.:.:.:.:.2.>.O.B D @.<.>.>.>.:.>.>.>.>.>.>.>.:.:.>.>.>.>.>.>.&.d.",
":.:.:.:.:.:.:.:.:.:.:.:.:.:.:.:.:.:.:.:.:.:.:.2.#.N o.>.:.:.:.:.:.:.:.:.:.:.:.:.:.:.:.:.:.:.:.>.#.d."
};
