/* XPM */
static char *result[] = {
/* columns rows colors chars-per-pixel */
"100 50 235 2 ",
"   c #000000",
".  c #070003",
"X  c #160002",
"o  c #000018",
"O  c #0B0A18",
"+  c #240000",
"@  c #2A0203",
"#  c #370400",
"$  c #331115",
"%  c #020436",
"&  c #18163A",
"*  c #381430",
"=  c #142B34",
"-  c #3E2F3B",
";  c #460000",
":  c #500B0B",
">  c #740500",
",  c #542400",
"<  c #4B1735",
"1  c #4A3026",
"2  c #4C3328",
"3  c #4C3432",
"4  c #4A3536",
"5  c #564834",
"6  c #574239",
"7  c #72603E",
"8  c #000041",
"9  c #0B1C45",
"0  c #171B49",
"q  c #11234F",
"w  c #252A4E",
"e  c #2C304F",
"r  c #2A3657",
"t  c #323856",
"y  c #003665",
"u  c #463E52",
"i  c #62216E",
"p  c #25455A",
"a  c #35445C",
"s  c #39445C",
"d  c #3B4A68",
"f  c #334F74",
"g  c #48455B",
"h  c #554C56",
"j  c #5A5152",
"k  c #655748",
"l  c #6B4F5B",
"z  c #665856",
"x  c #736455",
"c  c #43536C",
"v  c #4A5C6E",
"b  c #52546B",
"n  c #465977",
"m  c #4A5C73",
"M  c #4B5E7B",
"N  c #535E75",
"B  c #6C546D",
"V  c #7C5A79",
"C  c #4F6077",
"Z  c #4D617D",
"A  c #57657A",
"S  c #53637D",
"D  c #756A68",
"F  c #7C7A6C",
"G  c #656679",
"H  c #797476",
"J  c #8F0000",
"K  c #A53800",
"L  c #B04C0B",
"P  c #AF562F",
"I  c #9A5C47",
"U  c #82694A",
"Y  c #8C7453",
"T  c #B9694B",
"R  c #947661",
"E  c #877D75",
"W  c #B2786D",
"Q  c #968467",
"!  c #8F8675",
"~  c #85847F",
"^  c #8C837D",
"/  c #AD8C6C",
"(  c #B2966A",
")  c #A79375",
"_  c #C2916F",
"`  c #3D5B84",
"'  c #48548A",
"]  c #4E6383",
"[  c #4B6689",
"{  c #526683",
"}  c #556984",
"|  c #596B85",
" . c #52668A",
".. c #556C8C",
"X. c #596D8C",
"o. c #5D718E",
"O. c #556C92",
"+. c #596E92",
"@. c #556F99",
"#. c #5D7293",
"$. c #5D749A",
"%. c #5D769D",
"&. c #716E8A",
"*. c #63738D",
"=. c #617595",
"-. c #6B7791",
";. c #657996",
":. c #687B97",
">. c #61769A",
",. c #647A9C",
"<. c #697D9C",
"1. c #5C6DB0",
"2. c #657CA1",
"3. c #697EA2",
"4. c #677FA8",
"5. c #6B6CB4",
"6. c #6972D4",
"7. c #6D7AE5",
"8. c #865988",
"9. c #8E6E89",
"0. c #957794",
"q. c #A57BAB",
"w. c #AB78B1",
"e. c #6C819E",
"r. c #73849E",
"t. c #6B81A5",
"y. c #6782AA",
"u. c #6D84AA",
"i. c #7385A3",
"p. c #7087AB",
"a. c #7289AD",
"s. c #798DAE",
"d. c #6E89B2",
"f. c #758DB2",
"g. c #788FB4",
"h. c #738EB9",
"j. c #7991B6",
"k. c #7691B8",
"l. c #7C94BC",
"z. c #7582ED",
"x. c #7785F4",
"c. c #8C8684",
"v. c #8C8888",
"b. c #928C88",
"n. c #95918D",
"m. c #9A9694",
"M. c #A79B8A",
"N. c #AEA288",
"B. c #A5A29D",
"V. c #888DA4",
"C. c #8A95A7",
"Z. c #8F99AB",
"A. c #919CAE",
"S. c #8095B7",
"D. c #8196B9",
"F. c #859ABE",
"G. c #939FB2",
"H. c #A898A8",
"J. c #AD8AB0",
"K. c #B28CB4",
"L. c #BB94BC",
"P. c #95A1B5",
"I. c #96A3BA",
"U. c #98A6BE",
"Y. c #ADA9A3",
"T. c #ABAAA8",
"R. c #AFADAC",
"E. c #B6B2AA",
"W. c #B7B5B2",
"Q. c #BCBAB3",
"!. c #C8AF93",
"~. c #D7BB93",
"^. c #C594A0",
"/. c #CAB6AA",
"(. c #DDC397",
"). c #D8C8AB",
"_. c #C4C3BD",
"`. c #C9C5BF",
"'. c #DBC4BA",
"]. c #E6CAA6",
"[. c #ECD4AB",
"{. c #E1CBBF",
"}. c #E9D6B6",
"|. c #F2DBB6",
" X c #F6E0BC",
".X c #869CC0",
"XX c #889DC1",
"oX c #8CA1C4",
"OX c #9CAAC3",
"+X c #9DABC6",
"@X c #A2B1CB",
"#X c #C39BC6",
"$X c #CBA3D0",
"%X c #D5ACDC",
"&X c #D8B5DC",
"*X c #E0B0DB",
"=X c #DDB3E3",
"-X c #E1B8E8",
";X c #E6BAED",
":X c #EABEF1",
">X c #CCCBC5",
",X c #D8CDC5",
"<X c #D6D4CD",
"1X c #DBD5C9",
"2X c #DCDBD4",
"3X c #DDDBD6",
"4X c #E1CEC4",
"5X c #E6D6C9",
"6X c #E9DED6",
"7X c #E2DED8",
"8X c #EEE0CB",
"9X c #F7E4C4",
"0X c #E9E3D5",
"qX c #E3E3DC",
"wX c #ECE6DD",
"eX c #F4ECDB",
"rX c #FDF2DE",
"tX c #E4D3E2",
"yX c #EDC1F4",
"uX c #F2C5F9",
"iX c #F6C9FD",
"pX c #E8E7E1",
"aX c #ECEBE4",
"sX c #EFEDE9",
"dX c #F2EFE8",
"fX c #F2EEEE",
"gX c #F6F2E6",
"hX c #FCF5E5",
"jX c #F5F4EE",
"kX c #FAF6E8",
"lX c #F7F7F0",
"zX c #F8F7F1",
"xX c #F7F8F2",
"cX c #FAFBF4",
"vX c #FEFFFA",
/* pixels */
"oXF.F.F..X.X.XXXXXXX.X.X.X.X.X.XXX.Xl.F.F.F.D..XD.f.f.XX.XXX.X.X.X.X.X.X.X.X.XXXoX.X.XXX.XF..XF..X.X.XF..XF..X.X.XXX.X.XXX.X.X.XXXXXXX.XD.D..XD.D..Xj.a.g.XX.XXX.X.XXXXXXX.X.X.XoXXXoXXX.XXXXX.XF..Xl.@X",
"F.k.l.l.l.l.k.k.k.l.l.k.l.l.l.l.l.l.l.l.l.l.l.l.y.@.2.k.l.k.l.l.l.l.l.l.k.k.l.l.l.l.k.l.l.l.l.l.l.k.l.l.l.l.k.l.l.k.l.k.l.l.l.k.k.k.l.l.l.l.l.l.l.l.4.@.2.k.l.k.l.l.k.k.k.l.l.k.l.l.k.l.l.k.l.l.k.l.h.+X",
"XXl.l.l.l.l.F.l..Xl.l.l.l..Xl.l.l.l.l.l.l.l.l.4.2.2.%.2.j.D.l.D.l.l..Xl.h..Xl..Xl.F.l.l.l.l.l.l.l.l.l.l.l.l.l.D.l..Xl.l.l..X.Xl.l.F.F.l.l.l..Xl.D.4.2.2.>.4.l.F.l.l.l..Xl..X.Xl.l.l.l.l.l.l.l.l.l..Xh.@X",
"XXl.l.F.l.l.l.k.l.l.l..Xh.h.l.l.F.j.k.k.f.f.4.2.%.f.D.@.4.k.l.D.l.l.k.l.D.l.l.k.l.l.l.l.l.k.l.l.l.l.l.l.l.F.l.l.l.l.l.l.l.D.h.h.l.l.k.g.k.l.f.h.4.>.2.h.l.@.2.k.l.l.l.l.k.l.l.k.l.l.l.l.l.l.l.l.l.l.h.@X",
"j.f.g.f.f.g.g.f.f.g.g.h.f.a.h.g.g.f.f.f.f.u.%.2.4.f.l.k.%.4.a.h.j.j.g.l.l.D.h.g.a.a.f.g.k.f.a.a.f.f.f.f.f.f.f.g.g.g.s.h.f.f.f.f.g.g.g.d.f.f.d.2.$.2.4.g.D.g.$.4.f.g.g.h.g.j.D.l.k.g.f.a.f.f.f.f.f.d.u.OX",
"g.u.u.u.f.f.a.u.d.a.f.f.a.a.a.g.f.f.f.a.t.#.>.t.3.4.u..Xa.>.2.a.h.4.g.g.f.h.g.4.p.u.d.f.a.d.a.a.a.u.u.a.u.u.f.f.4.a.4.a.f.f.f.4.f.f.f.f.f.f.3.$.2.4.p.4.a.F.a.%.2.a.g.a.f.h.f.g.f.p.u.u.a.f.a.a.p.d.4.oX",
"F.g.g.g.k.l.g.f.g.j.j.D.h.f.g.j.j.j.l.f.e   X X   { g.p..Xd.%.3.g.g.j.g.f.f.g.f.g.f.g.j.a.a.s.g.k.g.l.j.f.f.k.l.j.g.h.S.l.S.h.a.f.j.l.k.k.u.$.2.4.p.4.p.4.u..Xu.$.4.g.f.j.g.a.f.f.f.f.f.k.k.f.f.f.g.f.+X",
"D.j.k.g.k.k.g.j.j.j.j.j.g.j.j.g..Xt.o   W.7X<X1X7Xm.  % 2..Xd.@.2.g.j.h.g.j.j.j.j.j.k.j.k.k.j.k.l.j.j.j.k.g.j.l.j.j.j.j.h.j.j.j.l.g.j.k.3.@.%.u.4.4.4.4.u.4.u..Xp.@.4.j.j.j.j.h.j.j.j.j.k.j.j.g.g.l.f.+X",
"S.g.j.j.j.j.j.j.j.h.g.j.j.j.j.l.[ &.E.B.aXvXcXvXvX<XB.Q.G $.oXk.O.2.h.j.k.g.k.j.j.j.j.j.k.k.j.j.j.k.g.g.j.j.j.j.j.j.g.g.j.j.j.j.k.g.k.3.%.2.t.u.y.u.3.u.3.u.u.u.l.d.+.2.k.k.k.k.g.k.j.j.g.k.j.j.j.k.d.OX",
"S.f.j.g.g.g.j.j.g.g.g.h.j.k.h.V.D E.vXvXxXjXjXjXjXvXvXqX5 d ,.u.a.@.2.g.g.g.j.g.g.j.j.j.g.g.j.j.g.g.g.g.f.j.j.j.h.g.g.g.g.k.k.g.k.g.3.%.2.2.4.u.3.3.y.y.y.t.4.3.p.l.d.+.3.g.g.g.g.g.g.j.g.g.g.g.j.j.d.OX",
"S.g.g.f.g.f.f.g.g.g.g.f.g.j.g.K {.vXsXjXjXjXjXjXjXlX<X  4 3 # 6 g.a.$.2.d.g.f.g.g.g.g.s.g.g.g.g.g.g.g.f.s.g.g.f.g.g.f.g.g.h.g.j.f.3.@.2.4.4.t.3.u.4.y.3.u.4.u.y.3.p.k.a.@.2.f.g.f.g.g.g.g.g.g.f.g.j.d.OX",
"l.f.g.f.f.g.g.f.g.f.g.g.g.g.3.@ >XvXcXvXvXvXcXvXb.  c.aXaXqXaX3X* . n 4.2.f.g.f.g.g.f.f.f.f.f.g.f.k.g.f.g.g.f.f.g.f.g.f.g.f.g.g.4.$.>.4.4.u.t.u.3.u.3.u.u.3.y.3.u.4.p.D.u.@.3.f.j.f.f.g.f.g.f.f.g.g.y.OX",
"S.s.f.f.f.f.f.g.f.f.f.g.g.f.>.% ) ^.b.n.n.m.m.b.Q.>X>XvXcXcXcXlX>X>XB.q %.4.f.f.f.f.f.f.f.f.g.a.j.f.f.f.f.f.f.f.f.f.f.f.f.f.g.4.$.%.3.u.4.t.u.4.u.u.4.u.u.3.u.u.4.4.3.y.l.u.O.u.g.f.f.f.f.f.f.f.s.f.u.OX",
"l.s.f.f.f.f.f.a.f.f.g.k.>.d c o J P n.v.n.x . b.gXvXcXjXjXjXjXlXvXvX2Xc.] @.2.f.a.f.f.a.g.a.g.a.s.a.f.f.f.a.f.f.f.a.f.f.a.g.3.$.%.3.u.3.3.y.3.u.3.y.t.3.y.t.4.t.u.3.u.3.t.l.t.O.2.f.f.f.f.f.s.f.f.f.y.OX",
"j.s.s.a.f.a.f.f.a.a.a.,.N k z z I /.vXcXvX>Xz vXxXjXjXlXlXlXxXjXjXgXvXaXz *.+.>.f.s.f.f.f.a.f.f.f.f.f.s.s.f.a.f.f.a.f.f.f.2.+.$.,.2.,.2.3.3.2.3.t.2.3.t.3.3.4.3.3.3.u.4.t.u.j.t.O.2.f.a.a.f.f.f.f.f.u.OX",
"s.y.u.y.u.u.t.a.g.i.$ . E.cXjXlXjXlXlXgXvXW.4 jXxXjXlXlXjXxXcXcXxXcXlXjXjXD n 3.%.p.p.p.u.p.u.u.t.u.u.u.u.t.u.u.u.a.a.u.3.+.$.>.>.%.%.,.%.2.,.,.2.%.%.2.2.2.2.3.3.2.2.3.2.,.u.f.t.O.3.a.p.p.u.u.u.u.2.U.",
"s.e.t.t.t.t.a.n   h 3X2XaXxXlXxXlXlXlXjXcXaXqXjXlXlXlXjXvXQ.z F D j _.vXlXF   t %.t.u.a.u.t.u.f.a.y.e.y.y.u.t.t.t.u.p.,.+.#.%.,.>.2.>.>.2.%.>.2.%.>.2.2.%.>.2.,.2.>.%.2.%.2.>.u.g.3.O.2.u.a.p.3.u.u.%.G.",
"f.y.p.a.f.a.d Q N._.cXvXxXjXjXlXlXlXlXlXjXcXvXjXlXjXlXcXQ.0.8.8.8.E 0._.cXD ^ T.q 0 #.k.d.f.} g C u.u.y.p.d.a.u.u.u.y.+.$.%.%.2.3.2.>.2.2.2.2.3.>.2.2.2.,.%.2.2.%.>.>.2.,.2.3.2.p.k.,.+.2.a.a.4.u.a.y.U.",
"s.a.a.a.t.o.H ).rXvXjXjXlXlXlXlXlXlXlXlXlXjXjXlXlXlXjX1Xl q.%X%X%X-Xw.l 6X6 _.dXD ^ G } ,.=.B B H e.a.a.a.a.d.p.a.t...#.2.t.t.2.4.3.2.3.2.3.2.2.2.3.3.2.3.3.3.2.3.3.3.3.3.2.2.3.2.4.k.,.O.,.a.a.a.a.y.U.",
"s.u.p.f.*.k sXxXjXjXlXlXlXlXjXjXjXjXlXlXlXlXlXlXjXcX2X. L.$X%XyX:X:X-XL.L ; W.vXxXvXB.  $ : J.=X%X- u.a.p.a.p.p.e.O.@.,.2.2.2.<.2.2.3.2.3.2.2.3.2.3.2.2.2.2.2.2.2.2.2.2.2.2.2.2.3.3.3.g.,.O.2.a.p.a.y.U.",
"g.4.f.y c.sXlXlXlXlXlXlXlXlXvXvXvXvXxXjXlXxXlXlXjXvX2X* L.=X:X:X:X:X:X-XT X E.vXjXjXxX_.< &XiXL.- t.u.i.p.p.p.t.+.+.%.2.,.2.2.<.,.2.2.2.2.2.2.2.2.2.,.2.2.2.2.,.2.2.2.2.2.,.2.,.2.2.3.3.f.2. .2.a.p.y.U.",
"g.4.W ( ).cXjXlXlXlXlXxXeX}.v.c.~ H.tXjXlXkXlXlXjXvX<X  K.=XiX:XuX:XiX;X: W.aXjXjXjXcX>Xo iXL.V | t.u.u.p.p.2.+.#.2.2.2.2.2.2.2.2.2.2.,.2.,.2.,.,.2.2.2.,.2.2.2.2.2.2.,.2.2.2.2.,.2.2.2.p.a.2...,.u.y.U.",
"s.u.> !.rXlXlXlXlXlXkXcX,X/ Y M.Q R q.tXjXlXlXlXjXcXaXH.%X:X:XiXyXuX*XK.B.sXcXjXxXjXcX2XR #Xb p t.<.3.u.p.2.O.#.%.2.2.2.2.2.2.%.2.2.2.2.,.2.2.2.2.2.2.2.2.2.2.2.2.2.2.2.2.2.2.2.2.2.2.2.>.u.5.>...t.4.oX",
"V.<.b >XcXjXlXlXlXlXlXcXB.5 9XcXrX!.  w.qXcXjXlXzXjXjXdX;X=X=X=X*X-XJ.F vXxXjXlXlXjXxXrX].@ c { | ,.>.p.t...O.$.,.,.>.,.,.2.,.,.2.2.>.>.2.>.2.,.>.2.>.2.>.,.>.2.,.,.,.,.,.2.>.2.>.,.,.>.3.2.i.g.#.O.@.U.",
"&.L dXcXlXlXlXlXlXlXjXvXY.D zXgXzX>X@ + <XvXjXlXjXcX6XK : @ $ # 1   Y.vXgXlXlXlXlXlXjXcXaX4 A } ]  .X.+.X.+.>.$.$.$.$.$.>.,.>.>.>.$.$.$.,.>.>.,.>.$.$.$.#.$.$.#.$.$.$.$.,.,.>.$.>.,.$.$.>.>.$.>.f.,.[ C.",
"G , pXcXjXlXlXlXlXlXjXvXY.k  XcXrX!.    ,XvXjXlXjXcX7X: 6.7.6.6.X Q.fXxXlXlXlXlXlXlXkXcXsX6 A } n ]  .X. .+.$.#.$.,.>.$.+.>.$.+.#.#.#.#.$.#.$.$.#.>.>.>.#.#.>.$.>.,.>.$.#.$.#.+.#.$.#.#.$.$.+.>.a.#.` C.",
"| @ dXvXjXlXlXlXlXlXjXcX/.> ) Y.M.N._.9.7XzXjXjXjXvX2X  7.oX7.7.O 7XvXfXlXlXlXlXlXlXjXcXsX+ d } X.,.#.3.3. .+.>.>.,.>.>.>.>.>.>.$.>.>.$.>.>.$.>.>.>.>.>.>.%.,.>.>.2.>.>.$.>.>.>.>.>.>.>.#.>.>.>.$.O.@.G.",
"*.$ /.6XgXlXlXlXlXxXjXcX5XW ;     v.fX=XsXcXxXjXjXcXwXc.6.7.7.1.X R.pXcXlXlXlXlXlXlXlXlXsXm.N M 3.4.3.a.s.2. .+.,.>.,.,.>.>.,.>.,.>.,.,.>.,.,.>.2.>.,.>.,.,.>.,.,.>.>.>.>.,.>.,.,.>.>.2.>.,.,.#. .%.%.OX",
"-.#   _ 9XxXlXlXlXlXlXlXcXwXT x 5 9.$XdXjXdXgXgXjXjXzXcX7 6.6., z . Y.xXjXlXlXlXlXlXlXlXjXvX0.r s.3.3.3.s.g.>.X.+.,.>.>.,.>.>.,.$.,.,.,.,.,.,.>.>.>.,.>.,.>.>.>.,.,.,.>.,.,.>.,.,.>.>.>.>.>.+.+.+.p.%.oX",
"*.# ~.eXxXxXxXjXlXlXlXlXlXjXdXdXsXsXdX[._ L P P aXvXjXfXcXn.U |.pXcXE.z cXlXlXlXlXlXlXlXlXcX^ e p.3.3.3.4.i.s.>. .+.>.,.>.>.>.>.,.>.=.>.=.>.>.=.>.>.>.>.=.,.>.,.=.>.>.>.>.>.>.>.>.>.>.>.>.+. .#.3.3.2.I.",
"-.N U >XvXjXxXxXlXlXlXlXlXlXlXcXlXxXcXjX5X6X6X5X_ 4XcXcXN.5.5.Y 9XgXsX_.v.pXcXlXlXlXlXlXjXcXc.e V.3.s.3.4.3.3.f.2. .+.>.>.=.>.=.#.,.$.>.$.>.$.,.$.=.=.>.>.>.=.,.=.$.>.>.>.>.>.=.>.>.>.>.+. .#.3.i.3.2.I.",
"<.*.  /.kXxXxXjXlXlXlXlXlXlXlXjXlXsX8X'.'.'.4XvX/.6XfXW.' 6.7.' / 0XvXaX  3XcXjXlXlXlXlXlXcXc.e i.3.3.3.i.3.3.p.a.>. ...>.>.=.>.,.#.=.>.#.=.=.>.=.>.>.#.=.=.$.=.#.>.=.>.#.#.=.>.$.>.>.+. .#.3.i.3.p.>.G.",
"<.| e / }.dXjXzXlXlXlXlXzXzXzXzXxXrX].W T T _ 6XlXvX2X  z.x.z.z.  Q.xXqX@ 7XvXjXlXlXlXlXjXvX^ w i.<.3.3.3.3.3.3.i.p.<. .X.#.>.>.>.=.>.=.=.$.>.#.>.>.#.>.#.-.$.#.>.>.>.#.-.$.#.=.>.$.+. .+.3.3.3.e.u.%.I.",
"r.| *.9 Y [.dXzXjXjXjXjXjXzXkXzXlXzXzXlXcXcXwXL 6XvX2X* 7.x.z.z.h   R.sXX qXcXjXlXlXlXzXjXzXc.w i.<.i.3.3.3.3.i.3.i.3.$. .X.>.#.#.>.=.$.=.#.$.$.#.=.#.#.>.#.$.#.>.#.#.+.$.$.#.>.#.+. .+.3.3.3.3.t.y.%.I.",
":.*.| M b 7 k <XvXcXjXvXrX].T P 4XvXjXlXlXcXfXwXgXvX6XJ * 8 % 8   >XQ.z wXjXjXjXjXxXjXjXkX XY q <.>.<.3.3.3.3.3.3.2.3.p.+. .X.+.X.+.#.#.#.#.#.X.+.#.+.+.#.+.+.+.+.+.X.+.+.+.+.#.X.]  .<.3.2.3.3.e.e.e.G.",
"-.} | M m e 9 b.B.Y.9XE.! / 4X/.wXlXjXlXjXjXlXvXcXeX5X4X`._._._./.fXpX_.cXxXjXxXcXjXjXzXgXQ z Z X.+.=.#.=.=.>.=.>.<.,.<.s.#. .X.+.X.+.X.#.+.X.X.+.X.X.X.+.X.X.X.X.X.+.+.*.+. .X.{ ..,.,.,.<.>.#.#.$.[ Z.",
"<.=.*.{ M S | e   2 !.E i m.vXvXxXlXxXxXcXcXlXeXdX|.[.kXhXhXhXhXvXxXcXvXlXlXlXlXzXzXcXjX0X0.b C ;.;.,.<.<.>.>.>.<.<.<.<.>.4.-.]  .#.+.X.......#.+.+.+. .+.+.+.+.#.#.#.#.#.+. . ...:.t.t.e.$.%.%.e.%.@.G.",
"i.>.>.| } S S | | A . =X;X%XfXfXjXjXjXgXaXsXqX(.(.(.(.(.(.(.(.(.wXaXdXgXgXlXlXlXzXkXfX6X].iX0.g >.<.<.t.3.,.,.<.<.3.3.<.<.3.4.#.] X.=.+.#.o.#.@.#.#.#.X.#.#.+.#.#.#.#.=.$.X. . .%.t.<.2.e.%.e.e.e.e.%.P.",
"i.,.;.;.*.| } A { N # %XiX-X#XzXvXeX[.[.Q $ 6 2 2 2 1 2 2 2 1 1 6 @ ) |.[.gXcXcXzX|.R &.$X;XuXK.O <.<.3.3.3.<.3.<.3.3.<.3.<.3.3.o.] ..#.#.#.#.#.#.#.+.#.#.#.#.#.*.#.+.+.X. .X.>.t.,.,.e.e.,.e.e.e.e.%.G.",
"i.>.;.;.=.*.X.} } m # l #XiX:Xn.! E U U h p s s s s s a a a a a d r k U x E c.E 9.U h u E $XyXL.  <.<.<.<.<.<.<.<.<.<.<.<.3.3.3.t.X.] ..#.o.o.#.+.*.*.#.+.*.+.*.+.#.+.X.]  .-.<.e.,.e.e.,.e.$.e.e.e.@.P.",
"i.<.:.:.=.;.*.X.| S h   V L.H.g o % & 9 d C C v C v C v C v C C n c a q r = & & & 0 v v g V ;X#X  :.;.e.e.;.e.e.<.<.<.<.<.<.<.<.e.e...Z ..o.o.o...#.o.o.o.o.#.o.+.+.X.] { ,.e.,.e.;.:.e.e.e.e.e.,.e.@.G.",
"i.>.<.<.,.,.;.=.o.| ..g $     S | m c v m v m n v C v n v n v v d d A A A S A } A } S S } ; #XJ.= ;.,.;.,.e.%.,.<.<.<.<.,.<.>.<.$.e.u...Z ..#.o.#.o.#.o.#.#...o.+.| ] { ,.,.,.e.,.e.e.,.o.e.#.e.,.e.#.G.",
"i.;.<.,.,.:.;.=.o.| | S S A A C A A m d c C m C C C C C Z C C d c S A S S S C S S S S Z B P , p *.#.;.e.;.,.e.;.,.,.<.<.;.<.<.;.o.e.e.e.o.Z [ o.o...o.o.....o.o. .] { >.:.e.,.:.;.;.,.,.e.e.e.o.;.:.O.G.",
"r.:.:.,.:.:.:.;.e.o.| S S Z S S A } | C f m Z Z Z Z Z Z Z Z f C S | | } S S S S S S S S A G N S | o.$.:.;.;.,.:.-.,.>.:.<.;.<.;.e.e.o.e.e.} Z } ..o.....o.o.....M { ;.:.,.:.;.;.e.e.;.#.o.o.e.e.;.e.#.G.",
"e.#.:.:.=.;.;.=.o.o.| A S S S S } S o.*.} m Z } S Z S [ Z m v v o.o.| | S S S | S S S } S Z Z Z } o.o.o.:.:.;.;.;.;.;.:.>.=.=.=.o.e.o.e.#.e.} Z } X.} } ......Z ] *.:.=.:.=.o.#.#.#.o.o.o.o.o.e.o.#...A.",
"-...;.=.o.=.#.o.o.X.o.| S } S S | | } =.:.} M Z } S } Z Z Z ..e.o.o.o.| } X.o.A } | S S | S C S S o.o.o.=.=.o.#.#.o.o.o.;.;.=.X.o...o.o.o.e.e.Z Z [ } } S Z C Z X.;.+.*.o.#.o.o.#.o.X.X.o.o.e.o.o.o.[ Z.",
"r.o.......o.o.o.o.o.o.o.o.o.| o.o.o.*.=.=.e.} M [ ..Z Z Z e.e...o.o.o.o.o.o.o.o.o.o.o.o.o.S S A o.o.#.o...X...o.o.o.o.#.=.=.;.=.o.e.o.o.#.e.e.e.[ Z [ X.[ Z Z o.>.=.*.#.:.#.#.;.e.o.o.o.e.#.e.o.o.e...Z.",
"r.;.:.;.:.:.:.:.-.e.;.;.;.;.;.;.;.;.:.:.:.e.e...Z } Z Z ..e.e.e.e.;.e.;.e.e.e.o.e.#.e.;.e.o.e.o.*.;.;.e.;.;.:.:.:.;.:.:.:.,.:.-.o.e.e.o.e.e.e.e.r.} S S Z Z e.e.:.<.;.:.:.:.:.:.;.;.e.;.e.#.e.o.#.e.o.G.",
";.} ............................| e.Z o.S e.e.Z Z f v Z ........e.S e...................} } ..[ | ..................................e.S e.Z e.Z e.e.f p f } ........................................` Z.",
"G.Z.Z.Z.Z.Z.Z.Z.A.A.Z.Z.Z.Z.Z.Z.Z.C.s.Z.Z.s.Z.A.s.r.s.A.Z.Z.Z.Z.s.C.s.Z.Z.Z.Z.Z.Z.Z.Z.Z.Z.Z.Z.Z.Z.Z.Z.Z.Z.Z.Z.Z.Z.A.Z.Z.A.Z.Z.Z.Z.Z.s.C.A.s.Z.A.i.A.Z.r.C.A.Z.A.A.Z.Z.Z.Z.Z.Z.Z.A.Z.Z.Z.A.Z.A.Z.Z.Z.s.W."
};
