/* XPM */
static char *result[] = {
/* columns rows colors chars-per-pixel */
"100 50 237 2 ",
"   c #000000",
".  c #00000C",
"X  c #170203",
"o  c #000019",
"O  c #240000",
"+  c #2A0000",
"@  c #2E000F",
"#  c #370501",
"$  c #340A16",
"%  c #122912",
"&  c #362110",
"*  c #040234",
"=  c #121037",
"-  c #330A30",
";  c #3B2734",
":  c #510400",
">  c #481105",
",  c #53380D",
"<  c #6B2E0E",
"1  c #482929",
"2  c #4F2F36",
"3  c #4C3739",
"4  c #622C29",
"5  c #574500",
"6  c #574739",
"7  c #6C4F39",
"8  c #00114F",
"9  c #2D1C4F",
"0  c #003A49",
"q  c #262B4A",
"w  c #273347",
"e  c #33344C",
"r  c #2B3556",
"t  c #323355",
"y  c #343C5B",
"u  c #2B1169",
"i  c #453B45",
"p  c #5B3B45",
"a  c #662A52",
"s  c #38465D",
"d  c #3B4A67",
"f  c #324B76",
"g  c #395374",
"h  c #484658",
"j  c #575152",
"k  c #685446",
"l  c #6C4A5F",
"z  c #675C57",
"x  c #6C6346",
"c  c #6E625E",
"v  c #71635C",
"b  c #4E4E64",
"n  c #43536C",
"m  c #4A566C",
"M  c #54596A",
"N  c #435473",
"B  c #4B5C75",
"V  c #455978",
"C  c #4C5E7A",
"Z  c #525D76",
"A  c #6B5767",
"S  c #6D4D71",
"D  c #42627C",
"F  c #4D617D",
"G  c #52637D",
"H  c #57647C",
"J  c #736964",
"K  c #746865",
"L  c #716E6F",
"P  c #7D736A",
"I  c #6C6A77",
"U  c #890000",
"Y  c #A50000",
"T  c #8E4700",
"R  c #B24D09",
"E  c #974B32",
"W  c #AF5933",
"Q  c #B5613E",
"!  c #9A5353",
"~  c #917753",
"^  c #B7694D",
"/  c #83606D",
"(  c #8C7170",
")  c #B9746D",
"_  c #99805E",
"`  c #9D8767",
"'  c #868279",
"]  c #AB9373",
"[  c #C6A572",
"{  c #473788",
"}  c #3A489D",
"|  c #354CA1",
" . c #435D85",
".. c #505F80",
"X. c #4D6282",
"o. c #4B6688",
"O. c #526683",
"+. c #5B6783",
"@. c #556985",
"#. c #5B6B85",
"$. c #52678A",
"%. c #566A8B",
"&. c #5A6E8D",
"*. c #5B718E",
"=. c #556D92",
"-. c #596E91",
";. c #5D7293",
":. c #57719A",
">. c #5E749A",
",. c #6E6E8D",
"<. c #63748D",
"1. c #757C8D",
"2. c #617595",
"3. c #687592",
"4. c #657996",
"5. c #617699",
"6. c #647A9C",
"7. c #697D9C",
"8. c #4B4FB7",
"9. c #626BA0",
"0. c #667DA1",
"q. c #697EA2",
"w. c #5E69D1",
"e. c #6871D2",
"r. c #6D7BE7",
"t. c #876886",
"y. c #8B7686",
"u. c #946C97",
"i. c #927193",
"p. c #A67BA8",
"a. c #6C809E",
"s. c #7A869B",
"d. c #6B81A5",
"f. c #6884AB",
"g. c #6D84AA",
"h. c #7786A2",
"j. c #7186AA",
"k. c #7289AE",
"l. c #6F8AB2",
"z. c #758DB2",
"x. c #788FB4",
"c. c #748EB9",
"v. c #7790B7",
"b. c #7991B6",
"n. c #7D94BC",
"m. c #7381EE",
"M. c #7A88F7",
"N. c #858589",
"B. c #918C85",
"V. c #9B8E92",
"C. c #9C9794",
"Z. c #AA9C89",
"A. c #A29B94",
"S. c #B9A686",
"D. c #A6A29C",
"F. c #AEA79F",
"G. c #B5A796",
"H. c #818EA3",
"J. c #8592A8",
"K. c #8694AB",
"L. c #8697B4",
"P. c #8A99B4",
"I. c #8199BE",
"U. c #8D9DB9",
"Y. c #AC87AB",
"T. c #B189B5",
"R. c #B397B3",
"E. c #8FA0BC",
"W. c #92A1BB",
"Q. c #AAA7A4",
"!. c #AEAAA5",
"~. c #B0ABA5",
"^. c #B2AEAA",
"/. c #B9B4AB",
"(. c #B8B6B2",
"). c #BDBAB5",
"_. c #C99987",
"`. c #CCB28E",
"'. c #C8B7A4",
"]. c #D5B4A7",
"[. c #D3B5AA",
"{. c #C1BEB7",
"}. c #BCC1BD",
"|. c #DFC69B",
" X c #E1C497",
".X c #DDC7A3",
"XX c #C6C3BA",
"oX c #DAC9BA",
"OX c #EBD3AA",
"+X c #EBD6B3",
"@X c #8199C1",
"#X c #93A4C3",
"$X c #808FFF",
"%X c #C397CA",
"&X c #CA9DD1",
"*X c #CBA2C9",
"=X c #D0A9D6",
"-X c #D4AAD8",
";X c #E9B3DD",
":X c #DAB4E2",
">X c #E3B8E9",
",X c #E9BEF1",
"<X c #C7C4C0",
"1X c #CBCAC3",
"2X c #D2CEC9",
"3X c #D6D4CE",
"4X c #DCD7CC",
"5X c #D7D7D1",
"6X c #D9D7D0",
"7X c #DCDBD5",
"8X c #E2D0C3",
"9X c #E5DBD3",
"0X c #E7DDD6",
"qX c #F6E7CD",
"wX c #E3E2DC",
"eX c #EBE3DB",
"rX c #EAE5D9",
"tX c #F9EDD5",
"yX c #F2EBDE",
"uX c #FDF2DB",
"iX c #E2CCE3",
"pX c #E6D6E5",
"aX c #ECC1F4",
"sX c #F3C8FC",
"dX c #E6E5E1",
"fX c #ECE6E6",
"gX c #EBEBE4",
"hX c #F2EDE5",
"jX c #F2EDED",
"kX c #EFF2EB",
"lX c #F9F5E7",
"zX c #F5F5EE",
"xX c #F6F7F0",
"cX c #F9F5F3",
"vX c #F7F8F2",
"bX c #FBFBF4",
"nX c #FEFFFB",
/* pixels */
"n.n.n.n.n.n.n.n.n.n.n.n.n.n.n.@X@Xn.z.c.b.n.c.@Xc.f.g.n.n.n.n.n.n.n.n.n.n.n.n.n.n.I.n.n.n.n.n.v.n.n.n.n.n.n.n.n.n.n.n.n.n.n.n.n.@Xn.@Xn.z.v.n.c.c.n.k.0.f.n.n.n.n.n.n.n.n.n.n.n.n.n.n.n.n.@Xn.n.v.n.v.#X",
"n.n.n.n.n.n.n.n.n.n.n.n.n.n.n.n.n.n.n.@Xn.I.n.n.q.9.0.v.n.n.n.n.n.n.n.n.n.n.n.n.n.n.n.n.n.n.n.n.n.n.n.n.n.n.n.n.n.n.n.n.n.n.n.n.n.n.n.n.n.@Xn.@XI.I.g.9.f.v.n.n.n.n.n.n.n.n.n.n.n.n.n.n.n.n.n.n.n.n.n.#X",
"n.n.n.n.n.n.n.n.n.n.n.n.n.n.n.n.@Xn.n.n.n.n.n.q.0.0.>.0.c.n.n.n.n.n.n.n.n.n.n.n.n.@Xn.n.n.n.n.n.n.n.n.n.n.n.n.n.n.n.n.n.n.n.n.n.n.n.n.n.n.n.n.n.n.0.9.0.9.0.v.n.n.n.n.n.n.n.n.n.n.n.n.n.n.n.n.n.n.n.c.#X",
"n.n.n.n.n.n.n.n.n.n.n.n.x.c.n.n.b.x.c.v.z.z.0.9.0.c.n.:.0.z.n.n.n.n.n.n.n.n.n.n.n.n.n.n.@Xn.@Xn.n.n.n.n.n.n.n.n.n.n.n.n.n.n.c.n.n.b.n.x.c.b.z.z.0.6.0.v.n.>.0.c.n.n.n.n.n.v.n.n.n.n.n.n.n.n.n.n.n.n.c.#X",
"z.z.z.z.z.z.z.z.z.z.z.x.z.l.x.z.x.l.z.z.c.0.0.q.f.l.n.n.>.q.z.c.z.b.z.b.n.n.n.n.-.9 r e t e t k.v.z.j.z.l.z.z.z.z.z.z.x.z.z.z.k.x.z.x.l.l.z.l.q.>.0.f.k.n.v.0.0.z.z.z.z.c.b.b.n.b.z.k.k.k.z.z.z.z.l.f.U.",
"l.g.g.g.z.z.g.g.l.z.z.x.z.g.z.z.z.z.z.z.q.9.0.q.f.q.g.@Xz.>.>.z.z.k.k.n.n.z.3.&.N.A.V.A.C.A.A.Z  .;.c.j.g.g.z.x.j.q.l.z.z.c.z.j.k.x.z.z.x.z.q.:.0.f.g.q.j.@Xz.>.>.l.z.z.z.z.z.z.z.k.g.g.k.z.k.k.g.k.f.U.",
"n.b.z.x.v.n.z.z.x.x.b.b.x.z.z.v.v.b.c.q.:.0.q.f.g.f.g.q.n.c.6.0.k.b.n.g.d.<.O   ).nXbXnXbXnXnXB.: p k.x.z.z.n.b.z.z.x.b.n.b.z.l.x.b.v.n.c.q.>.0.f.f.g.l.q.g.@Xc.>.q.z.z.b.z.z.k.k.z.z.z.b.b.k.z.z.b.c.#X",
"x.x.b.x.x.n.x.x.x.v.b.v.x.b.v.x.n.v.f.:.0.f.l.q.q.f.q.g.g.n.z.=.a.n.I.h O - O   (.nXxXjXlXzXzXzX].U j j.v.x.x.v.v.v.b.b.v.b.b.b.b.v.b.v.q.>.0.f.f.f.q.q.g.q.q.@Xl.>.0.z.b.n.b.b.b.b.b.b.b.b.b.x.v.b.z.E.",
"x.x.b.x.b.b.b.b.x.x.v.x.v.b.x.x.c.q.>.0.q.q.q.f.q.f.d.d.g.q.x.I.V o * ).3X3X3X3X^.z ' jXnXgXzXvXfX'.  j.I.z.b.b.v.x.x.x.b.x.b.b.x.x.x.q.9.0.q.f.q.q.q.f.q.l.q.f.n.z.:.6.z.b.x.b.x.n.z.b.b.b.b.x.z.b.l.#X",
"x.x.x.x.x.x.x.b.x.x.x.z.x.x.v.x.f.:.0.q.f.q.q.q.f.q.d.g.g.g.z.X.N.F.A.kXnXbXbXnX3XB.D.!.wXnXnXxXnXkXD.1.q.b.z.x.x.x.x.x.x.x.v.x.c.c.q.5.6.f.f.q.q.l.q.q.q.q.g.0.g.n.z.=.0.z.v.z.x.x.b.z.z.x.x.x.b.b.l.E.",
"x.x.k.x.x.x.z.z.x.x.x.x.x.c.x.q.:.0.q.g.q.f.f.l.q.q.d.0.6.6.a.h {.nXnXxXzXzXzXzXxXnXbX( ^.jXdXdXeXjXxXv N I.z.z.x.z.z.x.z.x.x.x.z.q.:.0.q.g.q.g.l.q.f.q.f.f.q.l.f.g.b.z.:.0.z.b.z.z.z.z.z.x.z.b.z.z.l.#X",
"x.z.x.x.k.x.z.z.z.z.z.x.z.z.q.>.0.q.q.q.f.q.q.q.f.z.k.t @ @ X 3XbXzXxXxXzXzXzXxXvXvXvXbX^.+ # X U _.nXK Z I.j.z.z.z.z.z.z.z.x.z.q.:.0.q.f.f.f.q.l.q.q.q.l.q.g.q.g.q.f.n.g.:.6.z.b.z.z.b.z.b.z.z.z.b.g.E.",
"z.z.z.z.z.z.z.z.z.z.z.z.z.g.:.6.q.g.g.l.j.l.g.z.$.  * <XF.3 3XzXbXnXnXnXnXbXzXzXzXzXzXnXC.1 4X3X9XoXz X . N b.n.z.z.z.z.z.z.z.g.:.>.q.l.q.f.q.f.q.l.q.q.f.q.g.f.d.d.q.f.n.g.:.0.z.z.z.z.z.z.z.z.k.b.g.W.",
"z.z.z.h.k.z.z.k.z.z.z.z.q.>.5.q.g.6.+.C C C +.g y.Q.D.zX).z cXnX7X).{.{.{.1XbXxXzXvXzXbX1X}.nXnXnXgXC.Q.!.C...C d.b.z.z.z.z.q.>.0.0.q.q.g.q.f.f.q.q.q.l.f.q.q.g.g.q.q.q.g.n.g.=.0.k.k.z.k.z.k.z.z.z.f.E.",
"k.z.z.z.z.z.k.z.k.z.z.0.:.>.0.0.q.-.# p l p # > ).nXbXnX^.z kXlXA.  @ $   K fXzXvXzXzXzXbXnXzXzXzXxXnXnXnX7Xk 7 1.q.q.k.z.0.-.>.>.0.0.0.q.0.0.0.f.0.0.q.q.q.q.q.q.q.f.g.q.q.z.g.=.6.k.z.z.k.z.z.z.z.f.W.",
"d.j.d.d.d.g.j.j.g.g.q.;.-.>.5.>.0.&.$ *XsX-X+ 3XvXzXzXnX^.c lX' t.&X%X%X&XT.& 9XnXzXvXzXzXzXzXzXxXxXzXlXzXxXkXbXD.  ; d.q.-.>.6.0.5.>.>.0.0.0.0.0.9.0.0.0.0.0.0.q.0.0.q.0.0.g.z.g.;.0.g.j.g.j.g.g.f.0.U.",
"d.d.d.d.d.d.d.d.j.0.=.=.5.0.0.0.5.-.,.l *X,X  6XnXzXzXnX).: _.*X:X,X>X,X-X%Xp.y.1XbXzXxXzXvXxXzXxXxXxXxXxXxXvXvXrXoX`.; V 6.=.6.0.6.6.0.6.>.>.0.>.>.0.6.>.6.6.0.0.>.6.6.>.0.0.q.x.g.=.6.g.j.j.q.d.g.:.L.",
"k.d.g.k.z.d.d.k.q.-.>.0.5.0.q.0.6.>.7.0 ,.R.~ 0XbXzXzXnX(.  R >X,X,X,XsX;X-X-X- Q.nXlXxXxXxXzXzXzXzXzXzXzXxXzXzXbXvXqX/.I f g.6.q.0.6.>.0.0.0.f.0.0.q.0.0.6.0.0.6.>.0.0.0.0.q.0.d.v.q.=.6.z.l.q.j.k.f.P.",
"k.k.k.k.j.l.k.d.-.>.0.q.0.0.0.q.0.5.&.q.r 5 +XlXxXxXxXbX1X7 W -X,X,XsX,X,X,X%Xa /.nXzXzXxXzXzXvXvXvXxXvXxXxXxXxXxXzXzXnX).j >.6.d.0.0.q.f.q.0.0.0.q.q.q.q.0.0.0.0.q.0.q.0.0.0.q.q.q.z.q.=.6.j.l.k.k.f.U.",
"k.g.k.g.d.l.d.*.-.0.0.0.0.0.q.0.6.>.&.2.y K jXbXlXxXxXzXnX5X2 =XsX,X,X,X,X,X%X! ].nXzXzXxXxXzXkXvXvXvXcXzXzXxXxXxXxXzXzXxX3X  6.0.0.f.0.0.0.q.0.q.0.q.0.0.q.0.0.0.q.q.0.0.0.0.0.q.q.q.z.0.=.0.j.k.k.d.U.",
"k.k.k.g.k.d.=.*.5.0.0.0.6.0.0.6.6.5.&.4.r c zXxXxXxXzXzXvXxX5Xy./ t./ / / / ) 8XhXzXzXzXzXvXvXiXR.L P I '.tXzXvXvXzXxXzXbXrX[ ) y.0.0.0.0.0.0.0.0.0.6.0.0.0.0.0.0.0.0.6.0.0.6.0.q.0.0.q.v.q.=.6.k.g.f.U.",
"g.g.g.g.a.=.=.a.0.0.0.0.0.0.0.0.6.5.;.6.r c zXvXxXzXxXvXzXcXbX<Xz . } 8.| { T 0XnXzXvXzXzXzXpXp.( ` F.` _ '.xXvXzXvXzXxXxXlXqXT S f.>.0.0.6.0.0.0.6.0.0.6.0.0.0.0.0.0.0.0.6.0.0.0.0.0.6.q.z.0.=.6.f.f.P.",
"d.k.j.a.:.*.>.f.0.0.0.0.0.0.0.0.6.6.;.6.r v kXxXzXvXzXzXxXzXkXnX'.u r.$XM.r.& 7XvXzXxXzXbXpXT.  [ tXnXqX_ L bXvXzXxXxXzXxXvXkXN.S 7.0.0.0.6.0.6.0.0.0.0.0.0.0.0.0.0.0.0.0.0.0.0.0.0.0.0.5.q.k.0.%.0.0.U.",
"6.k.d.=.=.>.6.>.5.0.6.6.6.6.6.0.6.6.2.7.r c lXvXxXzXzXzXzXnXbXnX'.u m.r.m.r.O 7XnXzXxXzXnX5X2   }.bXzXbXZ.( nXvXzXxXxXxXzXxXvXvX].E q.6.6.6.0.6.>.0.6.0.6.6.0.>.>.0.6.6.0.0.6.6.>.0.6.6.0.6.q.x.>.=.:.U.",
"*.=.=.=.5.5.;.>.>.>.6.0.5.5.5.6.>.>.;.7.r J zXvXzXvXnXnX2X3 c c #   8 r.8.b wXzXvXzXxXzXnX3X    S.tXbXqX` 1.vXvXzXxXzXvXxXzXvXbXG.$ 7.5.5.5.5.6.5.;.>.>.>.>.;.>.>.>.>.>.6.6.5.>.5.6.>.>.5.6.;.5.z.6. .h.",
"%.%.%.=.5.-.5.6.5.;.>.;.>.-.-.;.;.>.-.+.  c zXxXxXgX)./.!.!.!.!././.] 9.p.XXbXzXcXbXbXzXbX0Xu.^.S.Z.).S.T ] vXvXzXzXvXzXxXzXvXnXD.. 7.-.;.>.>.>.;.5.6.5.*.;.6.>.5.6.6.-.>.;.>.-.;.>.>.-.>.;.=.>.j.6.o.h.",
";.d.d.%.-.>.6.5.5.5.5.5.>.5.>.6.5.6.2.i : i.fXzXbXwX  + {.nXbXnXnXyX|.j !.xXzXvXlXeXeXjXbXjX=XvX!.    X E ].zXvXlXvXzXzXzXzXhXrXV.* 7.;.5.5.5.5.5.6.6.>.>.5.6.>.6.6.6.6.>.>.5.5.>.5.4.9.5.5.5.5.5.-.=.L.",
"a.k.z.6.=.-.5.0.6.6.5.5.6.6.6.6.6.4.0.  Y.,X%XfXbX0X1 7XnXkXzXxXqX`.O m.8.x vXbX[.Y ^ 0XbXvXzX=Xt.X 1 R oXbXlXvXvXzXzXvXvXhX|.7   h ;.5.6.6.5.6.6.6.6.6.6.6.6.6.6.6.>.6.6.6.6.6.6.6.6.5.5.6.6.>.$.;.>.U.",
"g.d.j.x.4.$.-.6.6.5.6.5.5.6.4.6.5.5.7.  Y.,X%XpXvXzX7XB.V.aXvXnXXXA e.r.r.9.y.fXjX9X0X_.^ _.OXfXdX7X9X0XhXvXvXvXzXzXxXzXvXzXyX.X~ 8 <.2.5.6.5.4.5.5.6.5.6.6.>.6.5.6.5.4.5.6.4.6.6.6.5.0.6.4.9.%.:.q.>.L.",
"d.d.d.h.z.6.$.-.5.0.6.4.5.5.5.5.5.;.7.  Y.,X&XfXvXvXnXXXt.i.!.).P u M.M.M.r.. 7XnXnXnX8X].oXtXbXnXbXnXnXvXzXxXzXvXvXzXvXzXvXvX`.~ g &.2.2.5.6.5.5.6.5.5.4.4.4.>.6.6.5.5.5.5.5.6.5.5.5.5.5.-.$.-.q.j.0.P.",
"h.d.a.a.d.k.7.$.-.9.4.2.5.5.2.5.5.;.4.  Y.,XT.0XlXxXkXnX3Xj v J , t w.w.e.8.< wXhX3X9XyXfXrXeXrXhXzXzXzXzXxXxXzXzXxXzXzXvXvXrX; 8 4.@.;.5.5.5.5.5.2.5.5.5.5.5.5.5.5.5.5.5.5.>.5.5.5.5.6.-.$.-.q.q.h.0.P.",
"d.d.d.d.d.j.k.4.$.-.5.5.2.5.5.;.;.;.3.  Y.>X- `.qXvXzXzXzXzXvXnX).X i 3 3 4 Q yX{.: ^ W W W Q  XyXvXzXzXxXxXxXxXxXxXxXzXxXyX|.k s #.&.;.4.;.2.>.2.5.>.5.>.2.2.5.;.5.>.2.2.>.2.2.5.5.5.-.$.>.q.h.j.q.>.P.",
"q.q.q.q.q.h.q.j.5.$.-.2.5.5.5.5.;.;.4.  T.>X1 , `.qXnXbXzXxXxXbXfX7X7X7X7X9X0XlXgX6XrX0X0X0X9XyXzXzXzXzXcXxXzXxXzXzXzXnXuX.X7 M C %.&.;.5.5.5.5.5.5.2.5.5.;.5.5.5.2.5.5.5.5.5.;.2.>.-.$.-.0.q.q.d.d.>.P.",
"q.q.q.q.q.q.q.q.j.2.$.-.;.;.;.5.;.;.5.  p.-X; * x ] ~.8XlXbXnXvXbXnXnXbXnXnXvXxXvXnXbXbXnXbXnXbXvXbXnXxXzXlXxXvXvXnXbX{.] ~ 8 C O.#.&.2.2.;.2.-.-.4.;.;.2.;.;.;.5.;.;.;.;.;.;.5.;.=.$.-.0.q.q.q.d.f.a.P.",
"q.q.q.q.q.q.q.q.q.j.-.O.&.;.&.-.;.*.&.; t.p.< M n .   ] oX7X6XeXhXhXlXzXzXzXxXxXzXzXzXzXzXzXzXzXkXpX6XzXvXxXvXlXwX7X3Xi   w G F C %.-.;.;.2.-.-.-.-.-.-.9.;.&.&.;.;.&.%.-.-.;.;.-.$.&.6.q.q.q.q.a.a.>.K.",
"3.3.5.3.6.7.5.6.6.6.k.;.$.-.-.-.&.%.O.H s > R A g N B ; > + & `.OX+XxXxXzXxXxXxXxXxXxXzXzXzXzXvXiXp.6 wXbXzXzX+X_   & Z &.B N F $.O.&.&.-.;.&.-.&.-.&.-.-.-.&.-.%.;.-.-.;.&.%.%.$.&.;.6.7.6.6.5.>.;.%.J.",
"0.q.q.5.3.5.0.7.7.3.0.j.>.F %.;.;.$.O.C N m A M m m B d s s s 7 7 k v J J P J J P c P .XuXvXvXzXzX2X  j J P J 7 j n n F H <.G N X.-.;.-.&.&.&.;.-.;.&.%.-.-.&.;.;.;.;.-.9.;.%...$.6.a.7.6.>.;.a.7.6.:.K.",
"q.q.q.7.7.7.q.q.q.6.7.q.d.4.X.&.;.&.O.O.F C V D C V B F B F F y w w q = * = e q w w e _ Z.XXqXvXbXkXXXi.a   e r B @.H H +.&.2.&.C $.;.-.-.-.;.;.;.;.;.&.;.;.&.;.;.;.;.;.<.=.$.%.6.d.q.q.a.a.d.>.a.a.>.P.",
"q.q.q.7.q.7.q.7.q.q.q.7.d.a.*.F &.&.&.O.G G G G G G G F F m m F Z Z m n n F H H H H G e   7 `.4XdXjXjX>Xu.% #.@.H O.@.#.&.<.7.7.&.X.%.;.;.;.;.;.;.;.;.;.;.;.;.;.;.;.;.2.-.$.%.5.a.6.a.d.a.6.a.a.a.d.>.K.",
"7.7.7.7.7.7.7.7.7.7.7.q.a.a.j.*.O.%.&.%.@.O.O.O.O.@.O.G F F F F B m n n F H G G G G G H H F $   u.%X%X,XY.  +.H H #.#.&.<.4.4.a.h.&.X.%.;.;.;.*.;.;.;.;.;.;.;.;.;.<.&.%.$.$.3.7.a.7.7.6.a.a.a.a.7.a.>.K.",
"7.7.7.7.7.7.7.7.a.a.;.4.a.4.a.d.&.X.%.&.%.@.@.&.@.%.%.@.@.G G F F n n G H #.H H H G G G G G B H s u.aXsXY.  <.H #.&.<.2.4.4.7.4.a.d.*.X.%.*.;.*.*.;.;.*.*.*.*.*.-.;.&...@.6.a.7.a.7.7.7.a.;.a.a.7.a.>.K.",
"7.7.3.7.6.7.6.7.a.;.a.a.4.a.4.a.d.&.F @.&.&.&.&.*.*.*.#.%.%.@.G m V @.*.#.H *.*.a.G *.H H G H D 7 E R.R.y.s #.*.*.2.2.4.6.7.7.7.6.a.a.*.F &.;.*.;.*.*.*.;.;.*.*.;.%.$.O.;.4.6.a.6.7.6.7.a.a.a.>.7.7.;.K.",
"3.7.7.7.7.7.7.7.a.a.a.;.4.a.4.a.a.7.&.F @.*.&.&.*.*.*.*.*.*.H D F &.<.<.*.a.*.#.a.@.a.G H @.H D / E     s *.#.<.2.4.4.7.4.7.7.7.4.7.a.a.%.X.@.*.*.*.&.*.*.*.*.*.%...O.2.7.a.4.a.6.7.a.4.a.<.;.a.7.7.;.J.",
"6.7.4.7.4.4.7.4.a.*.a.a.a.>.a.;.7.a.7.&.F @.&.*.&.&.%.*.*.%.G G *.4.4.4.<.*.a.a.@.a.H a.H a.H G H Z #.#.H G *.;.4.4.4.7.4.4.7.4.a.4.4.a.a.@.F %.&.*.&.&.&.*.*.*.X.O.<.6.4.a.4.4.a.4.4.4.a.;.a.a.4.7.;.J.",
"<.5.4.4.4.4.4.4.a.;.a.a.4.<.2.4.4.2.a.4.%.F @.&.%.o.%.%.%.G D *.4.4.a.<.*.*.a.*.*.*.G *.a.G H H H O.B F H *.*.<.4.4.4.4.7.4.2.2.2.4.4.4.a.7.&.D @.&.@.@.%.*.@.F X.*.4.4.4.4.*.<.;.2.<.*.*.<.a.<.;.;.=.J.",
"*.<.4.4.-.2.2.<.<.*.<.;.;.;.*.;.*.<.*.a.a.@.F X.@.@.@.G F G *.*.;.*.*.;.*.*.*.*.a.@.a.@.a.*.D D G Z B G H *.*.<.;.*.;.<.4.;.2.*.*.<.*.;.*.4.a.O.F X.@.@.@.o.F G *.2.*.2.<.;.*.*.<.;.*.*.*.;.;.*.*.*.o.J.",
"4.;.&.&.*.*.&.&.*.*.;.*.4.;.<.2.2.*.2.4.4.a.O.F @.&.%.D F *.a.*.;.*.<.;.a.;.;.#.@.G a.@.a.@.a.a.#.@.#.@.G @.H *.*.*.*.;.;.<.4.2.2.4.<.2.2.4.a.a.O.F o.&.@.D D %.4.2.<.;.4.;.2.2.;.*.;.*.4.4.4.;.<.4.=.s.",
"4.4.2.4.4.4.4.4.a.<.a.a.4.a.4.a.4.4.7.4.4.a.d.@.F @.G G *.a.a.a.4.a.a.<.<.a.a.a.a.a.a.a.@.a.a.G 4.*.<.<.*.<.4.4.a.4.4.4.a.a.4.4.4.4.4.4.4.4.4.a.a.@.F O.G G ;.a.4.4.4.4.4.4.4.a.a.4.4.4.a.<.a.4.<.a.*.J.",
"*.*.*.*.*.;.*.;.*.*.*.*.*.*.*.*.a.H *.a.*.*.a.a.D d g o.*.*.*.*.*.a.%.a.*.*.*.*.*.*.*.*.*.*.*.*.*.@.&.%.*.*.*.*.*.*.;.*.*.;.*.*.a.G a.*.*.*.a.G a.a.D d n @.*.a.*.a.%.a.*.*.*.*.*.;.*.;.*.*.*.*.*.;.o.s.",
"H.H.J.s.J.s.s.J.J.s.H.x.H.H.J.s.x.s.s.s.h.s.s.P.s.a.s.s.J.s.s.J.s.s.s.K.s.J.s.J.s.J.s.H.H.H.H.H.H.H.J.s.H.H.s.J.J.s.J.s.s.J.b.s.x.s.s.s.s.s.J.x.s.x.s.a.s.s.s.s.s.s.s.K.s.K.s.J.s.J.s.J.s.H.H.J.s.J.s.W."
};
