/* XPM */
static char *result[] = {
/* columns rows colors chars-per-pixel */
"100 50 223 2 ",
"   c #000000",
".  c #070005",
"X  c #140000",
"o  c #1B0000",
"O  c #000017",
"+  c #2C0000",
"@  c #250008",
"#  c #330000",
"$  c #3B0903",
"%  c #360F15",
"&  c #000029",
"*  c #1A0932",
"=  c #250E36",
"-  c #3A2B28",
";  c #450000",
":  c #5C0000",
">  c #7C1B00",
",  c #522C10",
"<  c #6F3614",
"1  c #472A2A",
"2  c #4C3236",
"3  c #59450A",
"4  c #4E423C",
"5  c #564239",
"6  c #6A513D",
"7  c #000043",
"8  c #0B174D",
"9  c #193854",
"0  c #212442",
"q  c #2C3852",
"w  c #343B58",
"e  c #4F0750",
"r  c #4D364D",
"t  c #6A3C66",
"y  c #394558",
"u  c #3E4D65",
"i  c #3C4D74",
"p  c #584745",
"a  c #5F514F",
"s  c #484557",
"d  c #65564C",
"f  c #745D45",
"g  c #6A5B53",
"h  c #6E625E",
"j  c #776857",
"k  c #494B61",
"l  c #444C6B",
"z  c #44556E",
"x  c #4C586C",
"c  c #54576A",
"v  c #584E74",
"b  c #475774",
"n  c #4B5C74",
"m  c #4B5F7C",
"M  c #555D76",
"N  c #705976",
"B  c #4D617E",
"V  c #57647A",
"C  c #52637C",
"Z  c #6C6665",
"A  c #796D66",
"S  c #7D726C",
"D  c #777077",
"F  c #880200",
"G  c #992700",
"H  c #A62500",
"J  c #B0552F",
"K  c #B55A2B",
"L  c #AD5747",
"P  c #8D7453",
"I  c #A26656",
"U  c #B56950",
"Y  c #8E6D6F",
"T  c #837C77",
"R  c #B77862",
"E  c #8A837D",
"W  c #AB8C6F",
"Q  c #B39B75",
"!  c #BBA27B",
"~  c #C28976",
"^  c #C4917F",
"/  c #C8A87C",
"(  c #495D83",
")  c #4E6383",
"_  c #4B648A",
"`  c #526583",
"'  c #566984",
"]  c #596B85",
"[  c #526689",
"{  c #59678A",
"}  c #556A8B",
"|  c #5A6D8C",
" . c #5D718E",
".. c #566D91",
"X. c #5A6E91",
"o. c #5D7293",
"O. c #5A779A",
"+. c #5D749A",
"@. c #616C88",
"#. c #6E7387",
"$. c #61738E",
"%. c #617594",
"&. c #687791",
"*. c #647996",
"=. c #6B7C96",
"-. c #61769A",
";. c #647A9C",
":. c #6A7E9B",
">. c #4B52BC",
",. c #657CA1",
"<. c #697EA1",
"1. c #6A71CC",
"2. c #6D77D9",
"3. c #6A77E2",
"4. c #717EE8",
"5. c #845E85",
"6. c #906F8F",
"7. c #9E76A2",
"8. c #A37BA5",
"9. c #6D809D",
"0. c #74849D",
"q. c #6B81A5",
"w. c #6984AA",
"e. c #6D84AA",
"r. c #7386A4",
"t. c #7889A5",
"y. c #7087AB",
"u. c #7189AE",
"i. c #7B8CAB",
"p. c #6F8EB5",
"a. c #758DB2",
"s. c #788FB4",
"d. c #7991B6",
"f. c #7992B9",
"g. c #7D94BC",
"h. c #7685F5",
"j. c #8C8682",
"k. c #928A88",
"l. c #97928A",
"z. c #988F9A",
"x. c #9B9694",
"c. c #A89D8F",
"v. c #B7A58C",
"b. c #A7A39C",
"n. c #B2AA9E",
"m. c #9594A5",
"M. c #8096BC",
"N. c #8498B9",
"B. c #A984AA",
"V. c #B48AB6",
"C. c #B390B5",
"Z. c #AAA7A4",
"A. c #B3AEA9",
"S. c #BBB5AC",
"D. c #BAB8B2",
"F. c #C69586",
"G. c #C9AA87",
"H. c #CDB894",
"J. c #D0B394",
"K. c #E1BC90",
"L. c #C8B2A5",
"P. c #D6B6A9",
"I. c #C2BDB8",
"U. c #D9C39D",
"Y. c #E6CC9D",
"T. c #D2C1AF",
"R. c #C3C1BB",
"E. c #DDC5BA",
"W. c #E6CDA3",
"Q. c #EAD2A8",
"!. c #EDDCBF",
"~. c #F0DCB9",
"^. c #F7E3BF",
"/. c #849BC1",
"(. c #BD93C3",
"). c #88A2CB",
"_. c #C99FD0",
"`. c #CBA4CE",
"'. c #D1AFCF",
"]. c #CCA3D2",
"[. c #D5ABD9",
"{. c #D5ABDB",
"}. c #D2B5D3",
"|. c #DEB4E4",
" X c #E1B6E8",
".X c #E5BBEC",
"XX c #E9BDEE",
"oX c #EABFF2",
"OX c #CBC9C3",
"+X c #CCCAC4",
"@X c #D3CDC6",
"#X c #D5D2C9",
"$X c #D3D2CC",
"%X c #DAD8D4",
"&X c #DCDBD5",
"*X c #E1CEC4",
"=X c #ECDDC1",
"-X c #E5D7CA",
";X c #E4DED7",
":X c #F7E6C8",
">X c #E4E3DD",
",X c #EBE5DA",
"<X c #F9EED7",
"1X c #F3EDDE",
"2X c #FEF3DB",
"3X c #E6DBE1",
"4X c #EEC1F5",
"5X c #F2C6FA",
"6X c #F7CBFA",
"7X c #E8E6E1",
"8X c #ECEAE3",
"9X c #EFEFE9",
"0X c #F1EDE4",
"qX c #F2EDEB",
"wX c #F4F1E6",
"eX c #FBF6E7",
"rX c #F5F5EE",
"tX c #FBF6E9",
"yX c #F6F7F0",
"uX c #F8F7F1",
"iX c #F7F8F2",
"pX c #FBFBF4",
"aX c #FEFFFB",
/* pixels */
"g.g.g.g.g.g.g.g.g.g.g.g.g.g./.g./.f.a.a.g.g.f.g.p.,.1.g.g.g.g.g./.g.g.g.g.g.g.g./.g.g.g.g.g.g.g.g.g.f.g.f.f./.f.f././.1.N.M.d.M.g.g./.g.f.f.g.g.1.g.a.,.<.g.g.g.g.g.g.g.g.g.g.g.g.g./.g.g.g.g.f.f.g.f./.",
"g.g.g.g.g.g.g.g.g.g.g.g.g.g.g.g.f./.g./.g.g./.g.<.+.,.g.g.f.g.g.g./.M.M.g.g.g.g.g.g.g.g.g.g.g.g.g.g.g.g.f./.f././.f.f./.M.M.g.M.g.g.g.g.g.g.g././.g.y.+.,.f.g.g.g.g.g.g.g.g.g.g.g.g.g.g.g.g.g.g./.g.g./.",
"g.g.g.g.g.g.g.g.g.g.g.g.g.g.g.g.g.g.g.f.g.g.g.<.,.,.,.,.f./.).[         l )./.M.f.g.g.f.g.g.g.g.g.g.g.g./.s.g./.f./.f.f.g.g.g.g.g.g.g./.g.g.g.g.g.<.+.,.+.,.f.g.g.g.g.g.g.g.g.g.g.g.g.g.g.g.g.g.g.M.f./.",
"/.g.g.g.g.g.g.g.g.g.g./.f.f.g.g.g.s.s.f.a.a.,.+.,.p.g.O.-.b i z.I.D.D.I.Z.l b u./.g.g.g.g.f.g.g.g.f.g./.f./.f.f.f.f.f././.g.a.s.g.g.g.g.f.f.<.g.<.+.,.f.g.+.,.f.g.g.g.g.g.g.g.g.g.g.g.g.g.g.g.g.d.M.M./.",
"a.e.a.a.a.a.a.u.a.a.a.a.a.a.a.a.a.a.a.p.a.,.+.,.,.p.d.s.@.A 5 OXaXpXaXaX&Xp j =.e.u.u.a.s.s.a.u.u.u.u.u.u.a.a.s.a.a.u.s.a.a.u.u.g.f.a.<.p.p.p.,.+.,.<.p.g.g.+.,.a.a.s.s.f.f.g.g.d.s.u.u.a.a.a.a.u.u.y.M.",
"a.e.e.e.a.a.u.w.u.a.a.s.u.e.a.p.a.p.a.a.<.+.,.<.u.<.M.&.A pXyXrXrXrXrXrXiXiXpXk.8 a.a.a.u.e.e.e.a.<.u.u.p.<.u.a.p.<.u.a.a.a.p.u.<.a.a.a.f.f.,.+.,.<.p.,.<./.f.+.+.u.a.y.p.f.1.p.a.y.u.e.u.a.u.y.u.u.<.M.",
"g.s.s.a.f.g.s.a.a.f.d.d.f.u.a.f.f.f.f.<.O.,.e.a.,.8 & .   T 8XaXpXyXyXyXyXyXuX>XL.Y s.f.a.a.a.g.g.f.f.d.s.a.s.M.s.u.s.f.d.f.s.u.a.f.f.g.f.<.+.,.p.p.,.p.<.<.).p.+.,.a.a.d.s.a.a.u.a.a.a.f.a.a.u.a.g.s.N.",
"g.s.s.f.s.s.s.f.f.f.f.d.s.s.f.f.f.f.<.+.,.w.%.[ X.z.x.x.x.E I.$X%XuXyXuXuXuXuXaX*XF s.f.s.s.s.d.f.f.d.d.f.f.f.f.f.f.d.d.d.d.f.f.f.f.f.f.,.+.,.<.,.<.,.<.<.<.<.).a.O.,.a.g.s.g.s.f.f.s.f.f.f.g.s.s.d.a./.",
"d.s.s.s.s.d.d.d.s.s.s.f.s.f.s.s.f.<.O.,.,.w.c + g yXpXuXpXpXT   T pXrXrXiXyXrXiXR.. a.a.s.d.d.d.d.d.s.d.g.s.s.s.s.d.s.s.s.f.s.f.a.f.s.<.+.,.<.,.<.,.<.<.<.u.w.<.g.f...,.p.g.a.f.f.f.s.s.s.s.f.s.s.g.a.N.",
"d.s.s.s.s.s.d.a.s.s.s.f.s.s.f.s.<.+.,.w.p.. D.qX8XyXuXrXiXrX8X9X$X1 Z a 2 p 4 R P q d.g.d.a.s.s.s.d.s.s.s.s.s.s.s.s.s.s.s.s.f.s.f.f.<.+.,.,.p.<.<.p.<.,.<.<.w.<.w.f.a...,.p.f.a.a.s.s.s.s.s.s.s.s.s.a.N.",
"s.s.s.a.s.s.a.s.s.s.s.s.s.f.a.<.+.+.e.-.l Z.7XaXiXiXyXyXyXyXiXpX9XZ.# E D.A.D.U F   l l %.g.f.s.a.s.s.s.s.a.s.a.s.s.s.s.a.s.s.s.p.<.O.,.<.<.w.,.1.w.<.p.w.<.<.y.<.u.f.a.+.,.u.g.s.a.s.s.f.a.f.a.a.s.a.N.",
"s.a.s.a.s.a.s.s.a.a.a.a.a.p.<.+.,.<.<.] A uXpXwXrXrXrXyXuXrXrXrXuXpXa OXaXaXaXP.I Z Z f #.y.r.s.d.u.a.s.a.a.a.s.a.a.a.s.a.a.s.a.,.+.,.<.<.w.p.<.e.w.<.<.<.p.e.w.w.,.<.g.<.+.,.p.s.a.a.s.a.a.a.a.s.s.y.M.",
"a.a.a.i.d.u.d.a.a.u.a.u.a.<.+.+.,.s.w j.pXwXpXaXpXpXpXpXrXyXyXrXuXrX% S.pXrXrXrXrXrXrXpXD.  X y.g.d.a.a.s.a.a.a.a.a.a.a.a.a.a.<.+.+.<.w.<.w.<.w.w.w.w.q.<.e.w.<.w.w.w.<./.u...,.a.a.a.s.a.a.a.a.a.s.u.N.",
"a.a.a.u.u.s.u.s.d.g.s.a.<.+.,.u.e.l   k.pXaXI.T k.l.S OXaXtXyXyXiXrX$X8XuXuXyXyXiXiXyXpX>X@X$XZ 7 C g.u.u.a.a.a.a.u.a.a.a.a.<.+.+.<.w.<.w.<.w.w.w.q.q.q.w.w.<.w.<.<.<.<.,.g.y...,.a.a.a.a.a.a.a.a.a.e.N.",
"u.a.a.u.u.u.s.u.*. .<.q.+.-...( ` l.5 E pX%X6.e t t e x.&XuXuXrXrXuXpXuXuXuXyXyXrXyXyXrXpXaXpXZ.P P %.u.a.u.a.a.u.a.a.a.a.,.+.+.-.,.,.,.<.<.,.q.w.<.<.q.<.,.,.w.<.w.<.w.<.<.f.a...,.u.s.a.a.a.a.a.a.u.N.",
"r.e.e.w.e.e.u.e.% # v -.X.<.M # $ wXZ.S wX- 8.{._.].{.6.p rXuXrXiXrXyXyXyXyXyXtXyXyXyXyXrXrXrXaX1XJ.@ r.u.<.e.<.y.e.y.y.,...+.,.,.+.+.-.,.+.;.;.,.+.+.,.,.,.,.,.<.,.<.<.,.,.<.p.<...,.<.<.u.y.<.e.e.q.i.",
"q.q.9.w.q.y.` r |.].#.. r   b.9X>XuXZ.: W V.[.oX.X.X].(.V.h >XpXrXyXuXyXrXuXrXuXrXrXrXyXrXyXuXrXrXwX&X2 m N.<.<.<.e.e.,...+.+.-.,.,.-.,.,.-.+.,.,.+.,.,.+.+.,.,.;.+.;.,.+.,.+.q.s.q.+.+.e.e.e.<.q.e.,.i.",
"y.w.w.u.u.u.%.V C.|.[.7.$ l.&XpXuXaXZ.$ L [.oXoX4X4X X{.V.  &XaXrXyXyXyXyXuXuXpXpXpXpXuXiXyXiXyXyXiXiXR.#.' a.e.e.y.w.X.+.-.,.,.<.,.,.+.,.,.,.<.,.,.,.,.;.;.,.,.;.;.;.+.,.,.q.,.q.g.,...,.y.a.w.e.u.e.i.",
"u.u.u.u.u.y.t.9.  C.5X|.$ >XaXrXrXpXS.< U XXoXoXoXoX5X XV.1 >XpXrXrXyXyXyXrXqX8X,X8X,XwXrXyXrXuXyXyXyXaXn.r N.y.u.<.X...<.<.,.,.<.<.<.,.,.<.<.,.<.,.,.<.<.<.<.,.,.w.,.q.,.,.<.q.,.<.s.<...-.u.u.u.u.e.N.",
"y.y.u.u.y.u.O.) %.  B.4X  $XpXrXiXrXpX+X. oX6XoXoXoXoX|.8.. &XaXrXyXuXrXuXrX{.N   o O H.<XyXrXiXyXyXyXiX~./ L i.<.X.+.,.,.,.,.,.,.,.<.,.,.,.,.,.,.<.,.,.,.,.,.,.,.,.,.q.,.,.,.,.<.<.,.s.<...-.a.u.u.e.d.",
"y.y.y.y.y.;.} _ { z N 6./ ,XpXrXyXrXpX9XE.Y {.5X5X5X5X5X.X$XwXuXrXiXrXuXqX}.#.W L.E.v.P I.pXrXuXyXyXyXyXwXT.; :.....-.,.,.,.,.,.-.,.,.,.,.,.,.,.,.,.,.,.,.,.;.,.,.,.,.,.,.,.,.,.,.,.,.q.a.<.[ -.u.u.q.i.",
"u.y.y.y.9...}  .' %.y 3 =XwXiXyXyXiXrXiXyXk.C.].`.].`.`.}.,XrXyXrXuXyXpX;X7.. J.eXpX:X6 Z.aXrXrXyXrXyXrXpX&X#.Y $.,.<.,.,.,.,.,.,.,.,.,.,.;.,.,.,.,.,.,.,.,.,.,.,.,.;.,.,.;.,.;.,.,.,.+.e.a.<...*.u.q.N.",
"w.y.e.q...o.o.o.} | w h yXiXrXyXyXyXyXrXrXaXx.  o       # H ,XuXrXuXrXpX$X  + $XyXrXpXA Z.aXrXyXyXyXyXyXyXpXrXK D ,.,.,.,.,.,.,.,.,.,.,.,.,.,.,.;.,.,.,.,.,.,.,.,.,.,.,.,.,.,.,.,.,.,.,.,.<.a.,.} ,.w.d.",
";.y.q.....+.O.o.| | w h rXiXyXyXyXyXyXyXyXrXrXD.= 2.2.3.1.< >XpXrXuXyXpX$X    G.2XtX^.f Z.aXrXyXyXyXyXyXyXiX7Xd ( ,.-.,.-.;.o.-.,.,.;.-.;.;.;.;.;.,.+.,.+.-.;.,.+.;.,.;.,.,.;.;.+.,.;.;.-.-.,.s.O...o.s.",
"........-.-.o.o.| o.q a rXyXyXyXyXyXyXyXuXwXaX#X& h.4.h.3.  &XpXrXyXrXpX%X5.S.c.v.S.Q > Z.pXuXyXiXrXrXiXrXpX9X4 b -.+.-.-.,.X.X.;.+.+.+.;.*.-.;.+.o.-.+.+.o.o.+.+.+.+.-.-.;.-.+.-.;.-.o.-.-.+.-.s.;.[ :.",
"} } } ..-.X.+.-.X.{ k T rXyXyXyXyXyXyXyXrXrXyXD.* 2.4.h.1.g >XpXrXyXyXpX7X[.pXl.  . % J P.pXqXyXrXrXiXiXrXrX;X5 b ,.-.X.o.-.{ X.+.o.o.o.o.+.+.+.+.-.-.+.o.+.+.+.O.;.-.+.o.+.o.o.X.+.o.+.+.+.X.+.u.;._ *.",
"o.e.q.} X.+.-.-.:.& b.uXyXrXyXyXyXyXrXrXrXaXx.  X   3.>., tXuXrXrXpXpXpXaXqX].t   ; H -XaXiXiXuXiXrXrXiX:X!   $ v -.-.-.-.-.$.X.+.+.-.+.+.+.-.+.-.-.-.,.+.-.;.;.;.;.;.+.+.+.-.-.-.-.-.-.-.-.-.-.-.X...i.",
"q.u.u.;.X.X.-.-.<.& b.aXrXyXyXrXyXyXyXpXpXx.A.$X+XH.N m.>XuXrXpX0X^ F.F.J.=X3X$X+X@X#XwXiXiXuXuXrXiXrXiX0X!.! , b -.-.,.;.-.-.-.;.;.;.;.;.;.;.;.-.-.;.;.;.-.-.;.;.;.-.;.-.,.-.;.,.-.-.-.-.-.-.-.[ X.-.N.",
"e.9.r.s.*.} X.-.:.& b.pXuXuXyXyXyXrXuXwX$XS %XaX0XU.N m.,XrXrX0XE.~ ~ ~ G.=XuXaXpXpXaXiXrXyXyXyXiXrXiXrXpX,XG.p b %.-.-.-.*.;.-.-.-.*.;.;.-.-.-.;.;.-.;.*.;.-.-.;.;.;.-.-.-.;.-.-.-.;.,.-.-.+.{ X.<.<.s.",
"q.q.q.r.a.-.[ | ;.O b.pXrXrXyXyXyXrXpX$XX wXpX,XK.@ 3.>.3 rXaXL.R aXpXpXaXuXuXrXrXrXrXrXiXiXiXrXrXiXyXrXpXOX  ' ( [ %.-.-.-.*.-.-.-.;.-.-.-.-.-.-.-.-.-.-.*.-.;.-.-.-.-.-.;.-.;.-.-.-.-.-.+.{ { <.y.,.i.",
"q.q.q.q.q.i.,._ %.O b.pXuXrXuXyXyXrXpX$X1 7XaX$Xp 2.4.4.1.A >XwX,XpX~ L U R W.0XrXrXrXrXrXyXyXtXyXyXrXiX<XH.  &.X.) X.%.-.-.%.-.-.%.%.-.%.-.-.-.-.-.-.-.-.-.%.-.-.%.-.%.-.%.%.-.-.-.-.-.+.[ X.<.<.r.,.i.",
"q.r.9.q.q.y.y.%.'   b.aXrXuXyXyXiXrXpX$XX rX&XE & h.h.h.2.  %XaXqXP.L.J.P.P.=X0XiXpXpXpXyXyXyXyXyXyXpX1XP.P k $.:.%._ ..-.*.o.%.%.%.-.-.%.-.%.-.%.-.%.%.-.o.-.-.o.-.-.%.-.+.%.-.+.-.-.X.[ ..<.r.<.y.,.i.",
"<.<.<.<.<.<.r.q.*.  b.yXyXyXyXyXyXrXpX%Xa 8Xx.  s 2.2.h.1.2 &XpX-XK qXaXpXaXiXiXqX0XqX0X0XrXrXrXrXrX>XQ.P 7 $.| =.<.-.{ X.o.-.-.%.-.-.o.-.%.-.-.%.-.%.+.%.-.%.-.%.-.-.-.-.-.%.-.-.-.X.[ X.,.<.<.q.q.9.i.",
"<.<.r.<.r.q.<.<.0.& W ^.rXyXyXyXyXtXyXyX8X+ $X+X.       $ H ,XiXrXuXrXrXyXrXrXaX*XH K K.<XaXrXyXaX&X+ , c ] ] *.*.<.<.+.[ | %.X.o.-.o.-.%.+.o.o.o.+.%.o.-.-.X.-.-.X.o.X.o.o.+.o.%.X.[ ..-.<.<.<.q.q.q.t.",
"<.<.,.:.<.:.:.;.*.] a W yXyXyXyXyXyXyXuXrXR.8X9XR.@X+X+X+X*X!.1XpXpXyXyXrXyXrXiX,XE.@XQ P n.:Xn.x.k.y k M { | %.:.:.<.i.$.[ X.o.| %.o.o.o.o.o.X.| o.o...-.X.X.X.X.o.X.| | ..X.%.X.[ [ ;.<.<.<.<.9.9.9.0.",
"-.-.-.-.-.-.-.%. .' v 6.1XyXuXuXyXyXuXyXuXaXuXuXaXtXtXtXtXtXQ.~.qX1XrXyXuXyXyXrXiXpXaXz.e 5.G.5   * B m m V | | o.;.-.,.y.X.[ X.......} o.X.X.| X.| ..| X.{ | | { ..X.| %...| } [ [ %.;.,.;.;.-.o.O.] 9.",
"*.<.;.-.*.+.;.;.:.  B.5XY.<XiXuXrXyXyXrXrXwXyXuXwXY.Y.Y.Y.Y.Q.Q.W.Q.rXpXyXrXrXyXrXrXyX}. X|.X n ] ] n C ] ] | %.-.:.,.-.;.y.-.) } o.o.} ..| | o.X.X.| | X.X.X.X.X.o.o.X.X.X.| [ } -.:.<.:.O.;.;.:.:.O.r.",
"<.<.<.:.;.;.q.%.- (..X4X'.6.v.:XpXpXaXeX~.^.c.Z T f f f f f f f f f A Z c.^.~.eXaXpX'.{.5X X+ x ] C ]  .| %.-.-.<.<.<.:.;.<.<.o._ | o.o... .X.o.X.%.X.| X.X.X.o.%.o.o.o.%.X.[ [ -.<.<.<.:.;.q.;.,.q.,.t.",
"<.<.<.<.9.;.q.&.  ].5X[.7.w P v.R.I.R.S.Q ! j O = 0 0 0 0 0 0 0 0 0 * . d ! Q S.R.R.[.4X|.B.% x ] ] |  .*.-.:.:.:.<.<.:.<.<.<.r.| ) } o.o.o.o.o.o.o.o.o.%.o.o.X.X.%.o.o.| [ [ %.,.q.,.<.,.<.9.,.:.<.;.t.",
";.<.:.:.9.;.9.&.. `.|.8.X V u               y C C M n n n n n n B n z n k         e |.4XB.  2 V | $.$.&.;.=.:.;.;.:.<.:.:.:.<.<.r.| ) } o. .o. .o.o.o.o.X.%.$.X.%.X. .{ [ [ -.:.:.<.:.:.:.:.9.9.:.q.*.t.",
":.:.:.:.:.:.<.$.  }.].  ] V V V x x x x x x x n z n z n n z z n z y u B C V V V V M 2 2 1 2 C ]  .$.%.*.;.:.:.;.:.:.:.<.:.:.:.,.9.9.} ` }  .|  .X. .O. . . .O. .X.o.| [ ) %.9.9.;.9.;.9.9.;.9.;.:.<.*.t.",
":.;.;.:.,.*.;.$.x #.Y G V C V C ' z u z B x z C B B B n B n B n z z B V C C V C C B y y y x '  .$.O.:.;.:.:.;.:.;.,.;.;.;.:.;.:.9.9.q.} ) } O. . . .|  ... . . .| | ) ` O.9.9.;.:.;.9.;.;.9.;.:.:.:.%.t.",
";.;.=.;.=.=.%.$.9.9 < I C C V C V V b u z n B C C C B B C C B z n V ] ] ] C C C C V V V C ' V  .%.*.;.:.*.:.:.:.;.:.;.:.:.:.;.:.9.O.9.9.} B } .. ... . . ... . .} ) ) o.9.*.9.*.*.9.;.:.9.;.*.9.;.:.o.r.",
"*.:.;.*.;.-.%.@.V V C B ' ' | ] ]  .] B u B B C C C ' ' C C B n ' $. .$.] ] ] ] C C V V C ] ]  .*.*.;.:.;.*.*.:.=.*.:.*.;.-.=.*.9. .9.9.9.' B ' | | | | | |  .} ) ` $.*.*.9.o.9.9.*.*.O.*.*.*.*.;.:.*.r.",
"%.*.*.*.-.*.$.| ] C C ' ' ] ] ]  .] 9. .C z C ' ' B ' ' C B B C *.o.*. . .]  .V ' C C C ] ] '  .$.%.%.%.*.:.%.*.*.*.*.*.-.*.*.%.o.9. .9.9.9.' B ' } } ' } } } C B  .9.%.*.*. . .%.O. . .o.%.*.9.$.*.o.0.",
" . .*.%.%.%.%.] ' C | C ] ] } '  .] V o.9.B B B ' ' ) ) B B  . . . . . .| ]  .] ' ' C C ] ] ' ]  . . . .*.%.o.%.%. .%. .*.*.%. .O. . . ...9.9.) B ` ' ' ` ` B B | %. .o.o. . . .%. . . . . .o. . . ._ 9.",
"%.o. .| | o.| ] ' ] ' '  . . .9. . . .o.O.9.` B ' } ' B B  .9. .o. .*.o.o.*. . . . . . . . . . .*. .*.o. .| |  . .|  .o.%.*.%.%. . . .] O.o.9.9.` B ' } ' B B ] &.%.o. .*.o.*.*.%. .o. .%.*.*.%. .*.o.0.",
"*.*.%.%.%.%.&.%. .] 9.] 9.9. .9. .9.9.o.9.9.9.` B B B B } 9.9. .9. .9. .9.o.9. .o.*.o.*.*.*.o.9.*.*.*.*.%.%.%.*.*.%.*.*.*.*.*.*.9.o.9.9.o.9.O.9.9.) B ` B B | 9.*.%.*.*.9. .*.*.*.&.*.%.*.*.*.*.$.9.o.0.",
"$.$.$.*.$.&.*. .$.$.V $.$. .$.9.] 9. .] 9. .9.V C n B '  .o.9. .9. .9.V 9.V 9.V 9. .9.V 9.V 9.V %.$.$.*.@.$.$.$.&.*.@.$.$. .$.9.V 9.9.V 9.]  . .9. .C B B | o. .9.V 9.V 9. . . .$. .$. .$.$.$. . .&. .0.",
"9.9.9.9.&.9.9.9.9.9.9.0.0.9.9.9.9.$.9.9.9.9.9.0.9.C ] 9.9.9.9.9.9.9.9.9.9.9.9.9.9.9.9.9.9.9.9.9.9.9.9.9.9.9.9.9.9.9.9.9.0.9.9.9.9.9.9.9.9.9.9.9.9.0.*.C V 9.9.9.9.9.9.9.9.9.0.9.0.9.0.9.0.9.9.9.9.9.9.0."
};
