/* XPM */
static char *result[] = {
/* columns rows colors chars-per-pixel */
"50 100 228 2 ",
"   c #000000",
".  c #0E0005",
"X  c #190000",
"o  c #00001A",
"O  c #1F0017",
"+  c #240000",
"@  c #280401",
"#  c #330000",
"$  c #390000",
"%  c #3E001B",
"&  c #3F221E",
"*  c #020025",
"=  c #050031",
"-  c #160D35",
";  c #34012F",
":  c #342E3A",
">  c #411D03",
",  c #7B0000",
"<  c #422500",
"1  c #5F3000",
"2  c #452515",
"3  c #491328",
"4  c #47302C",
"5  c #704B0E",
"6  c #7B6300",
"7  c #574334",
"8  c #0F0D4E",
"9  c #3B194A",
"0  c #0F295C",
"q  c #25274C",
"w  c #3A254D",
"e  c #393544",
"r  c #282B52",
"t  c #333655",
"y  c #373963",
"u  c #490040",
"i  c #452A4C",
"p  c #593848",
"a  c #422B58",
"s  c #473667",
"d  c #15416B",
"f  c #3D4B66",
"g  c #38526F",
"h  c #5D5447",
"j  c #474857",
"k  c #584455",
"l  c #62514D",
"z  c #685A5A",
"x  c #74654B",
"c  c #6E615B",
"v  c #71645B",
"b  c #454C65",
"n  c #4E4F6E",
"m  c #43536B",
"M  c #495569",
"N  c #475674",
"B  c #4B5B73",
"V  c #4B5E7A",
"C  c #525E76",
"Z  c #68586F",
"A  c #4F6077",
"S  c #4D617D",
"D  c #53647C",
"F  c #586479",
"G  c #746A66",
"H  c #766D6E",
"J  c #7D746A",
"K  c #940000",
"L  c #935815",
"P  c #904A2A",
"I  c #A75523",
"U  c #90785A",
"Y  c #8E6F6D",
"T  c #847B76",
"R  c #9D8465",
"E  c #91847B",
"W  c #A38B69",
"Q  c #B29873",
"!  c #BCA179",
"~  c #C18463",
"^  c #393296",
"/  c #435291",
"(  c #4E6382",
")  c #4B6689",
"_  c #4C6789",
"`  c #536683",
"'  c #5C6681",
"]  c #556884",
"[  c #5A6B84",
"{  c #526689",
"}  c #556A8C",
"|  c #5A6D8C",
" . c #5D718E",
".. c #566C91",
"X. c #5A6E91",
"o. c #577090",
"O. c #5D7294",
"+. c #5E759A",
"@. c #616E85",
"#. c #61738E",
"$. c #757B8F",
"%. c #627694",
"&. c #647996",
"*. c #697C97",
"=. c #617699",
"-. c #647A9B",
";. c #697D9C",
":. c #4C51AC",
">. c #5859A5",
",. c #5D78A0",
"<. c #726DAB",
"1. c #667DA1",
"2. c #697FA2",
"3. c #5C63C2",
"4. c #636CCB",
"5. c #7071CB",
"6. c #6071DD",
"7. c #6B76DB",
"8. c #6E7CE8",
"9. c #737EE7",
"0. c #845583",
"q. c #956E8C",
"w. c #947795",
"e. c #B3779B",
"r. c #A37AA4",
"t. c #6E819E",
"y. c #73839B",
"u. c #6B81A5",
"i. c #6681A9",
"p. c #6984AB",
"a. c #6C84AA",
"s. c #7285A4",
"d. c #798AA4",
"f. c #7187AA",
"g. c #7289AE",
"h. c #788DAE",
"j. c #6F89B0",
"k. c #758DB2",
"l. c #788FB4",
"z. c #748EB9",
"x. c #7991B5",
"c. c #7A93BB",
"v. c #7C94BB",
"b. c #7482EE",
"n. c #7785F6",
"m. c #8D8682",
"M. c #898886",
"N. c #938C86",
"B. c #9B948E",
"V. c #9C9896",
"C. c #A88C93",
"Z. c #A39E99",
"A. c #BAA587",
"S. c #AEA397",
"D. c #828EA3",
"F. c #8793A7",
"G. c #8A96AB",
"H. c #8C99AE",
"J. c #8095B7",
"K. c #8E9BB3",
"L. c #8196B9",
"P. c #849ABD",
"I. c #899CBF",
"U. c #909EB6",
"Y. c #B38FAF",
"T. c #93A2BC",
"R. c #A9A6A2",
"E. c #B1ACA7",
"W. c #B8B5AE",
"Q. c #BAB8B4",
"!. c #C29383",
"~. c #CFB18F",
"^. c #D79DB6",
"/. c #CAB3AC",
"(. c #C1BEB7",
"). c #E4C99D",
"_. c #C6C3BC",
"`. c #CBC5BE",
"'. c #D6C4BA",
"]. c #E6CFAA",
"[. c #E5D5B9",
"{. c #F2DCB8",
"}. c #829AC0",
"|. c #8A9EC1",
" X c #9082D9",
".X c #8DA1C2",
"XX c #96A6C1",
"oX c #97A8C4",
"OX c #99A9C6",
"+X c #A1AFC8",
"@X c #B7BCC6",
"#X c #B8BDC7",
"$X c #C199C4",
"%X c #C8A7CA",
"&X c #CDA8D4",
"*X c #D2A9D8",
"=X c #D5ABDA",
"-X c #D5B0D9",
";X c #DCACE4",
":X c #E2B5E5",
">X c #E5BBEB",
",X c #E7BDF2",
"<X c #C6C6C5",
"1X c #CCCAC3",
"2X c #D1CBCA",
"3X c #D5D4CD",
"4X c #D7D7D1",
"5X c #DDDCD6",
"6X c #E3DED7",
"7X c #F5E6CA",
"8X c #E3E3DC",
"9X c #ECE4D9",
"0X c #F6EAD5",
"qX c #D4D7F3",
"wX c #EDC2F5",
"eX c #F2C6F9",
"rX c #F5C9FD",
"tX c #E8E7E1",
"yX c #EBEAE4",
"uX c #ECEBE7",
"iX c #F2EEE5",
"pX c #F6F6EF",
"aX c #FAF6EA",
"sX c #F3EEF1",
"dX c #F6F6F0",
"fX c #F7F8F2",
"gX c #FBFBF4",
"hX c #FFFFFA",
/* pixels */
".XP.I.P.P.|.|.|.|.|.|.|.|.|.}.|.|.|.|.|.|.|.P.l.h.P.|.P.|.}.I.L.|.XX|.|.|.}.|.|.|.|.|.}.|.|.|.|.}.+X",
"P.c.c.v.c.c.c.v.c.c.c.c.c.c.c.c.c.c.c.c.z.c.z.,.+.a.c.c.c.v.v.c.c.z.c.c.c.c.c.c.c.c.c.c.c.c.c.z.<.OX",
"P.v.v.v.v.v.v.v.v.L.v.v.v.}.}.c.v.v.v.v.}.z.2.1.,.1.j.J.v.v.v.v.v.v.v.v.}.J.}.c.J.v.c.}.}.c.}.J.c.OX",
"P.v.v.v.v.v.v.v.v.v.v.v.x.z.J.J.L.L.L.L.k.1.,.c.j.1.1.2.k.k.x.l.x.L.}.L.k.z.c.J.J.c.c.x.v.J.v.}.c.OX",
"l.f.k.k.k.k.l.k.g.k.h.v.}.}.w         | j.1.x.v.j.<.1.-.i.g.P.n         n c.c.z.k.k.j.l.k.k.k.k.p.XX",
"k.a.a.a.j.f.k.f.p.a.k.O.t y W.<X_.(.1XM.0 x.}.a.p.a.i.-.1.a.0 Z.1X_._.1XZ.8 t i.x.f.a.j.k.k.a.f.2.|.",
"v.x.x.k.k.k.k.z.k.k.O.$.m.E iXhXgXgXhX`.$.2.2.2.p.i.u.u.X.@.T 6XhXgXfXhX6XT N.$.2.x.k.k.v.k.k.k.z.oX",
"J.l.x.l.l.l.x.k.l.v.; (.hXfXdXpXpXpXpXgX6X  1.a.2.i.i.f.} 2 iXpXpXpXpXpXpXfXhXN.b v.k.k.v.l.l.v.j.oX",
"L.k.x.x.l.l.l.v.f.- 4XdXsXpXpXpXpXpXfXhX6X@ 2.j.f.j.a.k.O.7 sXgXfXpXpXpXpXpXpXpXQ.- c.c.l.l.l.x.j.XX",
"J.k.l.l.l.k.x.&.l K 6XgXdXdXpXgXhXgXZ.m.J   q r q q r t =   M.E Q.hXgXpXpXpXpXgX'., C p.l.l.l.x.j.XX",
"v.h.l.k.l.k.x.D 1 ~.tXdXpXaXgX6X_.1XB.m.B.V.B.B.B.B.B.B.B.V.N.E Z.1X`.uXfXpXpXfX6X!.$ *.l.k.k.l.j.XX",
"v.k.k.k.k.k.v.B G gXdXdXpXsXdXR.  4 uXhXhXgXgXgXgXgXgXgXhXgXgXhX3X  X 1XfXpXpXpXgXuX2 &.l.k.l.l.p.XX",
"x.g.k.k.k.h.k.N c pXdXdXpXgXl E.fXiXpXpXpXpXpXpXdXsXpXpXpXpXpXpXpXiXfXT B.hXiXpXfXtX2 X.g.g.k.k.j..X",
"h.h.k.h.k.f.h.n c pXsXhXuXT (.tXfXdXdXpXpXpXpXpXdXdXpXpXdXpXpXpXdXdXfX8XE.N.gXfXfXyX2 #.h.g.k.k.p.XX",
"x.g.g.k.g.f.g.b v fXgX6XQ.N.iXgXpXpXpXpXpXpXpXpXpXpXpXpXdXdXdXpXdXdXpXfX5XN.(.uXhXyX> #.f.g.k.l.a.T.",
"h.a.a.f.f.a.a.n G tXaXR.z hXdXdXpXdXpXdXpXpXdXpXpXpXpXpXdXdXaXpXdXdXpXpXfXdX  <XpX6X4 | 2.2.2.f.1.U.",
"s.u.a.u.u.u.t.O.C & I e.-XaXpXpXpXfXdXpXdXpXdXpXdXpXpXpXpXpXdXpXpXdXpXpXfX9X  I I : @.%.-.u.u.u.,.U.",
"h.p.g.a.u.j.a.O.S F @ S.sXpXpXpXpXpXpXdXpXdXpXdXpXpXpXdXpXdXpXpXpXpXpXpXfXpX5XY 3 g =.;.a.g.g.f.1.|.",
"h.f.f.g.f.@.M j M F N.4XgXpXpXpXpXpXdXpXpXpXdXaXdXpXdXdXpXpXpXpXpXfXpXdXpXpXhXM.$ Y M F F @.g.g.i.XX",
"h.a.f.a.&.9 w w i X tXgXpXpXpXpXpXpXpXdXpXpXpXpXpXpXpXdXpXdXpXdXpXpXpXpXpXpXfXV.5 I i 9 9 a ;.f.1.U.",
"l.2.x.@.a 9.9.9.7.  5XgXpXdXdXpXpXpXpXpXpXpXpXpXfXgXdXpXpXpXdXpXpXdXpXdXpXpXsXgX%X8 b.8.b.6.& ;.j.K.",
"h.k.f   8 n.9.3.Z 4XpXdXpXpXaXdXpXpXpXpXpXfXpXhX8Xv dXgXpXdXpXdXpXpXdXpXpXfXpXgX<X  y 4.n.8.    / oX",
"f.m Z.S.Y :.8.5.C.gXdXdXpXdXdXpXfXpXpXpXpXpXgX4XR.r.E.8XgXpXdXpXdXpXpXdXfXpXsXhX2X^ q.9.b._ W S.y.$.",
"$.h 9XaX].5 4. X%XpXdXpXdXpXpXdXpXpXpXpXpXpXiXm.0.rXu W.iXpXpXdXpXdXpXdXfXfXsXfXqX X$X X>.L {.gX_.U ",
"z sXpXpXyX].x   G fXfXpXdXpXdXpXpXdXpXpXdXpXh q.;X,X&XZ N.gXdXpXdXaXpXdXpXpXpXpXfXtX4 . W 7XfXpXpXpX",
"c sXhX2Xx L 5./ x fXpXpXpXdXpXdXpXpXdXpXpXpXX Y.eX,X,X0.J gXpXdXdXpXdXpXpXdXpXpXfXyX< >.<.6 J 9XhXuX",
"c fX2XE   :.9.:.x dXpXfXdXpXpXpXpXdXpXdXdXpXQ.%X;X=X;X%X1XgXpXpXpXdXpXdXpXpXpXpXfXyX> 7.6.^   V.5XfX",
"G 5XH   n n.n.:.x fXpXpXpXdXpXpXdXpXdXpXdXpXhX6X%X=X$XuXgXpXpXpXdXpXdXpXpXpXpXpXfXyX> 4.n.b.4   V.tX",
"%.+ D j a 9.n.:.x sXdXdXpXpXpXpXpXdXdXpXdXpXpXpXdXdXdXpXaXdXfXpXpXpXpXpXdXpXdXpXfX9X< 4.n.7.$ F f l ",
"%.D @.j # s s - G gXfXdXpXdXpXfXdXpXpXdXpXdXpXdXdXdXpXpXdXdXpXpXpXdXpXdXpXpXpXpXfXpX2 w s a # F D y.",
"&.| [ C j e : e z E.yXfXpXpXpXpXpXdXaXpXdXaXdXpXdXdXdXpXdXpXpXpXdXpXdXpXaXpXpXgX5XZ.j j j j j ' D D.",
"*.@.| [ } ] A B m   5XfXpXpXpXpXdXpXpXdXpXdXpXdXaXdXdXdXsXpXpXpXpXpXdXdXdXpXpXgX(.  ]  .[  .[ [ ] D.",
";.#.#.| [ [ D B b $ 8XgXpXpXdXfXpXpXdXdXpXdXpXpXpXpXdXpXpXpXdXdXpXpXsXgXsXdXdXgX_.  @.' ' ] [ #.} D.",
"2.&.%.%.#.| | ` M @ ~.0XfXgXM.P ~.gXdXpXpXpXpXpXpXpXpXpXdXdXpXpXgXpX~ 5 E.hXdX7XA.o [ [ [  .#.%.| G.",
"s.*.&.%.%.#. . .F + ~.0XuXR.w.e.^.~.pXdXdXpXpXpXdXdXpXpXpXpXdXfX9X~.%Xe.w.W.sX7X!   @.|  .#.%.&.X.G.",
"*.O.%.X.| O. . .D e Q 9X8X  Y.,X:XK 8XfXpXpXpXfXaXiXpXdXpXdXdXgX'.K eX>Xr.X uX[.W q @.}  .O. .=...F.",
"2.1.-.-.-.+.O.O.O.#.  Q.8X@ Y.:X*X. 9XfXpXpXpXfX0X).pXdXpXpXpXgX1X; >XrX$X7 pXE *  . .%.O.+.o.i.+.G.",
"d.2.2.2.t.-.*.=.#.#.  A.].  =XrX*X+ tXhXfXgX{.{.~.7 ].{.7XgXpXgX1X% >XrX$X< {.U q #.#.&.-.+.t.t.+.K.",
"2.;.;.2.t.u.t.%. . .m Y U @ -XeX*X+ [.0X[.Z.R R U t R U A.0X7X7X/.; >XrX$XX R z B  .O.t.t.t.t.t.+.K.",
"D.;.2.;.-.t.*.t.%. .[ f * # ;XrX-X+ ! ~.Q   * o q A - o x ~.! ~.W i ,XeXY.  - N  . .O.&.-.t.+.t.+.K.",
"2.;.;.2.;.;.;.&. . .D [ F @ -XwX&X+ O   : A A A B N A A b   . .   p >X*Xw.@ F F  .#.t.t.t.t.+.t.+.H.",
"2.*.;.;.;.;.;.;.t. . .D D A k l k f M B m N M B B B B N B M M f M F k 4 j D D  . .#. .t.t.o.t.t.+.H.",
"$.-.;.-.-.;.;.-.t. .t.[ D D M M f f f m B A A A A A V B A M f A D D n M A D D [  .O.&.t.t.t.o.t.O.H.",
"s.;.*.*.;.;.&.&. .t.[  .[ D D D D A M M B A A S D S D S N f A D F D D ' D F  . .t.O.t.+.t. .t.t.O.G.",
"t. .%.%.&.%.%.|  . . . .] D D D D ] D m N S S S S ` ` A N D @.} D D D D D D [ #. .#.t.o.t. .t.t.} F.",
"&.|  .| %.%. . . .[  . . .[ D D D D [ [ A V S S ] ` A V ` *.| ' ' ] ] D ] [  . . . .[ t.O.o.o.t._ F.",
"*.&.&.%.%.&.&.&.o. . . .O. .[  .[ o. .%. .S S } } ` S } t.%.#.#. .[  .[  .%.%. .t. .[  . .] [  .o.G.",
"t.&.&.&.&.;.&.&.t. .t.t. .t. .t.#.O.#.+.&. .( S ` A } ;.*.&.%.%.O.&.&. .%.%.&.t.O.t.t. .t.t.t. . .G.",
"*.#.&.&.&.%.&.&.%.&.&.%.%.%.#.&.#.%.%.%.%.%.X.C V | *.*.%.%.*.*.%.O. .&.O.&.&.&.t.O.#.%.O. . .t.o.F.",
"t.&.&.*.-.u.*.*.*.*.;.;.;.;.*.*.;.-.;.;.;.*.-...{ -.2.=.-.-.&.%.t.t.t.t.t.*.*.t.t.t.t.t.t.t.t.t.O.G.",
"P.v.c.c.v.v.v.v.P.v.}.v.v.v.v.v.}.v.v.}.}.c.c.2.1.v.J.v.c.c.c.l.c.v.v.P.c.c.v.v.l.c.v.v.x.c.v.v.z.OX",
"P.v.v.v.v.v.v.c.v.c.v.v.}.v.v.L.v.v.v.c.J.v.z.1.,.2.c.v.c.v.}.}.v.v.v.v.v.v.v.v.c.c.v.v.v.c.v.P.z.OX",
"P.c.v.v.v.v.v.v.v.v.v.v.v.v.v.v.c.J.v.c.z.z.1.1.<.,.2.c.c.c.c.c.v.v.v.v.c.c.v.v.v.v.v.v.v.v.v.v.c.OX",
"L.v.v.v.v.x.v.v.v.v.v.v.v.v.l.v.c.c.v.v.k.1.,.}.k.1.,.2.k.k.x.l.k.v.v.v.k.x.v.v.c.v.x.v.c.x.v.v.z.oX",
"k.p.a.g.g.k.k.a.a.f.k.l.v.v.l.k.k.k.z.2.1.1.}.z.p.i.2.-.1.j.k.j.g.k.h.k.f.g.j.k.h.g.g.h.k.g.g.g.i.T.",
"x.g.g.a.g.g.k.k.f.a.a.k.k.k.k.k.k.z.a.+.1.l.z.z.p.p.2.1.,.1.k.k.x.k.k.g.j.k.k.k.k.j.a.j.l.k.a.g.p.T.",
"v.x.x.k.k.k.x.k.k.k.k.k.k.k.k.x.k.j.,.1.l.v.1.2.j.p.p.2.1.,.p.z.c.x.x.x.k.x.x.c.x.k.k.x.c.x.k.x.j.oX",
"v.x.x.x.x.x.x.x.k.v.x.x.k.c.v.k.k.,.+.l.}.2.2.j.1.2.2.j.2.1.+.2.x.x.x.x.x.x.x.k.l.x.x.z.l.x.x.x.j.XX",
"J.k.x.x.k.x.x.k.x.x.x.v.x.x.x.k.,.+.c.c.2.j.2.2.2.2.p.2.2.2.1.,.i.k.k.k.x.x.x.x.l.l.l.l.x.x.x.x.j.oX",
"J.k.k.x.k.k.x.k.k.x.k.k.k.k.j.+.,.c.z.2.2.2.2.2.2.2.2.2.2.p.2.1.+.u.z.k.k.z.k.k.l.l.l.l.l.k.k.x.j.oX",
"x.k.k.k.k.k.l.k.x.k.k.k.x.a.+.+.c.z.2.2.2.j.z.2.j.2.2.j.2.a.a.p.1.+.2.k.k.k.k.k.k.k.k.l.x.k.k.x.j.oX",
"J.h.k.h.k.k.h.k.k.k.k.k.a.1.,.k.z.2.2.j.2.2.1.1.2.j.2.2.p.a.2.2.1.,.+.2.k.x.k.k.k.k.k.k.h.k.k.k.p.T.",
"x.k.k.k.k.k.k.k.k.k.k.f.+.+.k.v.,.j.2.2.z.1.2.j.1.z.z.1.a.a.p.2.p.2.,.+.u.k.k.k.k.k.k.k.k.h.k.k.j.T.",
"x.g.k.g.g.k.g.g.k.k.k.+.+.k.l.1.2.j.2.j.2.2.j.2.2.2.2.2.2.2.a.2.2.p.2.-.O.i.k.k.k.g.g.k.g.k.h.k.p.T.",
"x.h.h.g.g.g.g.g.k.g.=.+.k.l.1.1.2.2.2.a.1.2.a.2.2.1.1.2.1.1.1.1.+.1.+.+.+.X.1.k.j.k.f.k.g.g.g.h.p.T.",
"s.u.a.a.a.a.a.f.2.+...l.f.1.1.1.2.1.1.2.1.-.1.1.1.1.=.1.1.1.+.1.1.-.-.1.1.+.O.1.p.a.a.a.u.u.u.a.,.K.",
"s.p.s.i.u.a.g.a.+.X.g.k.1.1.1.1.1.+.1.1.1.1.+.=.1.1.1.=.1.+.1.1.-.1.1.1.+.+.O...-.k.u.2.a.a.a.a.,.K.",
"h.p.j.f.a.f.a.+.+.f.l.2.1.2.1.1.1.1.=.1.1.1.1.1.1.1.1.1.1.1.1.1.-.1.1.2.1.1.1.O.O.2.a.a.f.g.f.f.i.T.",
"h.a.g.j.g.f.+.O.2.x.1.2.1.2.2.2.1.1.1.1.2.1.2.2.2.2.2.2.2.2.2.2.u.u.2.2.2.2.2.1.O...1.k.j.a.g.g.i.T.",
"h.a.g.a.f.+.o.a.h.-.2.2.1.1.2.2.1.1.2.2.2.2.1.2.1.1.1.1.1.2.2.2.1.1.1.1.1.1.1.2.1.O.O.1.g.a.f.f.i.T.",
"h.a.f.s.+.} f.g.1.1.2.1.2.1.1.1.1.1.1.2.1.1.1.1.1.1.1.1.1.1.1.1.1.2.-.1.1.1.1.1.2.1.O...1.a.a.f.i.K.",
"g.j.a.+.} f.f.u.1.1.1.-.1.1.1.1.1.1.1.1.2.1.2.1.1.1.1.1.1.1.1.1.1.1.2.1.1.1.1.1.1.1.,.O.O.1.g.j.i.T.",
"h.u.+.o.2.g.2.1.1.1.1.1.1.1.1.1.1.1.1.1.1.1.1.1.1.1.1.1.1.1.1.1.1.1.-.1.1.1.1.1.1.1.2.-.+.X.1.f.i.K.",
"s.+.O.-.j.1.1.1.=.=.1.=.=.-.1.1.=.1.=.=.=.-.+.1.-.-.-.-.1.-.1.-.=.-.1.-.-.-.1.-.1.=.=.=.+.X.X.2.+.G.",
"O.} -.k.O.O.-.-.+.+.1.+.+.=.1.=.=.=.=.+.+.+.O.+.=.+.+.=.-.+.=.=.+.+.+.+.=.=.-.=.+.+.=.+.=.=.X.| ) F.",
"=.} +.u.+.O.O.O.O.O.+.X.O.O.+.+.+.=.1.=.=.=.O.O.-.-.=.O.+.=.X.+.O.+.O.O.O.+.O.+.+.=.-.=.+.X.X.X.) d.",
"g.=...+.=.1.-.+.=.=.-.=.-.=.=.=.=.-.1.=.-.-.+.-.-.=.1.=.=.=.=.1.-.-.+.-.-.=.=.=.=.-.-.=.+...| l.,.G.",
"h.2.=.} +.=.-.=.=.1.=.1.=.1.-.-.1.=.1.-.-.-.1.-.1.1.=.-.-.-.1.=.-.-.-.-.-.-.-.-.-.-.1.=...O.2.h.1.K.",
"f.2.2.=.{ X.=.<.=.-.=.=.-.-.-.=.&.-.=.-.=.-.-.-.=.=.-.=.=.-.=.-.-.-.-.-.-.-.-.-.=.=.=.{ O.2.g.f.,.K.",
"d.2.f.2.O.} X.=.1.=.1.=.=.=.-.=.-.=.=.-.-.&.=.=.=.=.=.-.&.-.=.=.=.=.=.=.-.=.=.=.<.=...X.2.h.2.2.1.K.",
"D.2.s.2.2.+.} O.=.=.=.=.=.=.=.=.=.=.%.=.=.%.=.=.%.=.=.%.=.=.=.%.=.=.%.=.=.+.=.=.=.X...f.l.1.2.s.t.U.",
"d.2.2.f.2.2.O.{ | =.=.+.=.%.+.=.=.=.=.=.=.=.=.=.%.=.=.=.=.=.%.=.=.%.=.%.%.=.=.=.{ } s.f.2.s.s.s.t.K.",
"f.2.2.2.2.2.2.=.{ X.=.=.O.=.=.=.=.-.O.=.&.=.=.O.=.=.=.=.=.%.=.=.=.=.=.=.=.=.X.{ | 2.a.2.s.2.2.2.i.h.",
"d.2.f.2.f.2.2.2.O.{ | O.=.O.O.O.X.X.X.%.O.O.O.=.X.%.%.X.X.=.O.%.%.=.%.X.O.O.{ | 2.f.s.2.u.2.s.s.t.H.",
"2.-.;.-.-.2.2.2.-.} { X.O.| X.X.| X.O.X.| X.O.O.X.X.X.| X.X.O.=.X.%.X.X.+.} } t.f.-.2.;.-.2.;.;.o.H.",
";.=.=.=.=.&.*.=.;.-.| { } ..X.%.X.X.X.X.X.X.| X.| X.X.X.X.| X.X.X.| X.X.} } -.s.*.-.;.=.=.=.=.-.o.h.",
"2.-.-.2.2.-.&.;.2.2.1.} ` } O.O.%.%.X.=.X.X.O.X.X.X.O.=.O.X.X.| X.O.O.{ ( u.u.+.-.2.2.-.&.=.=.y.+.H.",
"D.2.2.2.2.2.2.2.;.2.2.2.| ( o. .X.=.=.X.O.O.O.O.X.O.O.O.O.%.X.X.O.O.{ ( t.u.i.t.1.2.2.;.2.2.2.<.t.K.",
"2.;.2.2.2.2.;.2.t.i.t.t.+.[ ` o.O.O.O.O.O.O.O.O.O.O.%.X.%.%.X.%. .] ( t.u.t.t.+.i.t.+.t.t.t.i.t.+.H.",
"2.;.;.;.;.;.;.;.t.t.+.t.t.t.o.( |  .O.O. . .O. .O.#.X.#.X.%.%.| _ ( t.u.t.t.t.t.+.t.t.t.t.O.t.t.+.H.",
"d.;.;.;.;.;.;.;.t.O.t.t.i.t.+.] ( } o. .O. .O.O.O.O.#.O.O.O.| ` ] t.t.t.t.t.+.+.t.t.+.t.t.+.t.t.+.H.",
"2.*.;.;.;.;.;.;.t.t.+.O.O.t.t.+.| S }  . .O. . .#.X.X.X.X.| { ` O.a.o.t.+.t.t.t.t.+.t.t.+.t.O.t.o.K.",
"y.-.;.-.;.;.;.*.t.t.t.t.t.t.t.t.&.` S }  .o. . . . .|  .| ` S =.t.t.t.t.O.t.t.t.O.O.t.t.O.t.t.t.o.H.",
"t.&.&.&.;.*.*.%. .t.o.t. .O.O.t.*.=.] S ] o. .o.[ }  .o.` ( &.;.o.t.o.t.t.t.O. .t.t.t. .t.t. .t.+.H.",
"*. . .#.%.%.O.|  . .O.o. . .%.%.O.t. .] S ] ] ] ] ] } ` A =.*.*. .t. . .o. . .t.t.O.o.t.t. .O.t._ F.",
"*. .%.| #.%.%.O. . .O.t. . .%.O. . .%.O.] S ` ` o.} S S &.u.*.O. . .t. .o.t.t. . . .o. . . . .t._ F.",
"*.-.&.=.&.&.*.&.O.O.%.#.t. .#.t. . .%.#. ._ S ] } ( S  .a.*.=.&. . .*.O. .%.t.O.O. .[  . . .o. .o.h.",
"y.&.*.*.&.t.*.*.&.t.&.y.&.t.#.t.t.t.t.t.t.t.} ] ` ` &.s.-.-.t.*.t.*.y.t.t.t.t.#.t.y.t.y.t.t.t.t.t.H.",
"o.) ] _ _ _ _ _ _ _ _ _ _ _ _ _ _ _ _ _ S ) ) d d ) o._ _ _ ) ) ) _ ) ) _ _ _ ) _ _ _ _ _ _ S _ g h.",
"#X@X@X@X#X#X#X@X#X#X#X#X#X#X#X#X#X#X#X#X@X@X@XQ.Q.@X#X@X@X@X@X@X@X@X@X@X#X@X@X@X@X@X@X@X@X@X@X@X@X<X"
};
