/* XPM */
static char *b7ee8075206c4f35c87ee86915c11792HaCZKdDsmShWWCua[] = {
/* columns rows colors chars-per-pixel */
"50 50 232 2 ",
"   c #000000",
".  c #0B0102",
"X  c #00000D",
"o  c #120000",
"O  c #1A0000",
"+  c #0F0715",
"@  c #00001C",
"#  c #230003",
"$  c #2D0000",
"%  c #340100",
"&  c #390602",
"*  c #381800",
"=  c #301215",
"-  c #000025",
";  c #00103B",
":  c #310F31",
">  c #3E2A28",
",  c #4F0900",
"<  c #6F1306",
"1  c #502D06",
"2  c #583600",
"3  c #7E2200",
"4  c #4A1238",
"5  c #4D343A",
"6  c #6D322D",
"7  c #795E03",
"8  c #584E28",
"9  c #5C4838",
"0  c #6A5333",
"q  c #7E6239",
"w  c #0A0255",
"e  c #0A3154",
"r  c #31344F",
"t  c #232C60",
"y  c #5F105F",
"u  c #4D2C48",
"i  c #473B47",
"p  c #5C3B4C",
"a  c #493751",
"s  c #5C2B6F",
"d  c #2F4259",
"f  c #39445C",
"g  c #3C4A66",
"h  c #3F4E72",
"j  c #5A4B47",
"k  c #5F554D",
"l  c #514955",
"z  c #5C5458",
"x  c #604F45",
"c  c #65564B",
"v  c #6E4E5C",
"b  c #695D57",
"n  c #776244",
"m  c #6E625C",
"M  c #72635C",
"N  c #434C69",
"B  c #4A576E",
"V  c #585662",
"C  c #475676",
"Z  c #4B5575",
"A  c #4C5B7C",
"S  c #645165",
"D  c #7F577D",
"F  c #56647D",
"G  c #79736C",
"H  c #6D6775",
"J  c #7D7771",
"K  c #811000",
"L  c #9A3800",
"P  c #A92900",
"I  c #A54400",
"U  c #B0500A",
"Y  c #80643A",
"T  c #8F5D4D",
"R  c #8F6A52",
"E  c #8C7557",
"W  c #B5694F",
"Q  c #9C5C63",
"!  c #886269",
"~  c #8A786F",
"^  c #BD726B",
"/  c #C27D66",
"(  c #9B8970",
")  c #AF9570",
"_  c #AC9679",
"`  c #C4967A",
"'  c #C6AA7C",
"]  c #000085",
"[  c #313B9C",
"{  c #3C5680",
"}  c #554B97",
"|  c #4D6286",
" . c #536485",
".. c #586986",
"X. c #556A8C",
"o. c #5B6E8B",
"O. c #5C718E",
"+. c #566C91",
"@. c #596F93",
"#. c #5D7393",
"$. c #5B7898",
"%. c #626E8B",
"&. c #677189",
"*. c #7C7A87",
"=. c #72778E",
"-. c #617693",
";. c #647896",
":. c #6F7E96",
">. c #627699",
",. c #667B9B",
"<. c #697D9D",
"1. c #4853A8",
"2. c #5759AA",
"3. c #4D56B6",
"4. c #5D61B8",
"5. c #657DA2",
"6. c #697EA1",
"7. c #696BB6",
"8. c #6973D7",
"9. c #6F7CE7",
"0. c #717EEB",
"q. c #815881",
"w. c #927196",
"e. c #BB7789",
"r. c #6A809F",
"t. c #748399",
"y. c #74839C",
"u. c #6780A7",
"i. c #6C82A4",
"p. c #6D85AA",
"a. c #7B8AA4",
"s. c #7187AA",
"d. c #7289AD",
"f. c #7D8EAA",
"g. c #7F91AE",
"h. c #758DB3",
"j. c #788EB3",
"k. c #7991B6",
"l. c #7A93B8",
"z. c #7D94BC",
"x. c #7583F3",
"c. c #7A89F7",
"v. c #7A8AFD",
"b. c #8C8987",
"n. c #948C8B",
"m. c #989595",
"M. c #BE9F85",
"N. c #A29B97",
"B. c #B7A587",
"V. c #A9A39A",
"C. c #8190AA",
"Z. c #8294B3",
"A. c #8699B7",
"S. c #879BBB",
"D. c #8399BC",
"F. c #AD87B0",
"G. c #ABA6A6",
"H. c #B5ACA7",
"J. c #B5B2AC",
"K. c #BAB3AA",
"L. c #B8B6B2",
"P. c #BCB9B4",
"I. c #BFBCB9",
"U. c #C49B82",
"Y. c #CC8891",
"T. c #C9AE82",
"R. c #D2A785",
"E. c #D5B88D",
"W. c #CFBB9B",
"Q. c #D5BD97",
"!. c #C689A7",
"~. c #D0ADA2",
"^. c #C3B9A5",
"/. c #D4B8A7",
"(. c #C2BBB6",
"). c #D9BCB7",
"_. c #E7CC9D",
"`. c #D9C4A2",
"'. c #C4C0B9",
"]. c #D7C7B8",
"[. c #DDD2BF",
"{. c #E6C9A6",
"}. c #E8CCAA",
"|. c #E7D4BB",
" X c #829BC4",
".X c #B588C2",
"XX c #BD95C3",
"oX c #8FA1C1",
"OX c #91A4C3",
"+X c #C296CB",
"@X c #CA9AD2",
"#X c #D0AFCD",
"$X c #CCA4D4",
"%X c #D2A7D9",
"&X c #DDB2E4",
"*X c #E5B9EC",
"=X c #E7BEF3",
"-X c #EABEF1",
";X c #D0CDC6",
":X c #D9D1C7",
">X c #D5D3CD",
",X c #DAC7DB",
"<X c #D6D6D1",
"1X c #DBDAD4",
"2X c #DBDAD5",
"3X c #ECDEC9",
"4X c #E5DBD3",
"5X c #EFE2CA",
"6X c #F4E3C3",
"7X c #F2E4CA",
"8X c #E5E4DD",
"9X c #EAE3D8",
"0X c #F5EAD4",
"qX c #F5EDDB",
"wX c #FAF1DC",
"eX c #DFC6E1",
"rX c #E8DFE9",
"tX c #ECC2F4",
"yX c #EFC4F8",
"uX c #F3C7FB",
"iX c #EAE6E5",
"pX c #EBEAE3",
"aX c #F2EDE2",
"sX c #F0EFE8",
"dX c #F5F1E6",
"fX c #F5F5EE",
"gX c #F9F6E9",
"hX c #FBF8EE",
"jX c #F7F7F0",
"kX c #F7F8F2",
"lX c #FAFBF4",
"zX c #FEFFFA",
/* pixels */
"l.l.l.l.l.z.z.z.z.z.z.z.l.l.l.l.z.z.l.z.z.z.l.p.5.j.l.j.l.l.j.j.l. Xz.z.z.l.z.z.z.z.z.z.l.l.l.l.j.oX",
"z.z.z.z.z.z.z.z.z.z.z.z.z.z.z.z.z.z.z.z.z.z.l.5.5.h. X X Xz.z.z.z.z.z.z.z.z.z.z.z.z.z.z.z.z.z.D.z.OX",
"z.z.z.z.z.z.z.z.z.z.z.z.z.z.z.z.z.z.z.z.z.l.5.X.C C  .o.,.z.z.z.z.z.z.z.z.z.z.z.z.z.z.z.z.z.z.z.l.OX",
"z.z.z.z.l.z.z.z.z.z.z.z.z.z.z.z.z.z.z.z.h.>.5.&.9 x x 9 S h.j.h.j.z.z.z.j.k.z.z.z.z.z.z.z.z.z.D.z.OX",
"d.d.h.h.h.j.j.h.d.h.j.l.z.z.k.j.j.j.h.j.,..   H.lXfXfXlX2X     .l.h.h.j.h.h.j.h.j.h.h.j.j.h.h.h.p.A.",
"d.d.p.p.d.d.h.d.p.p.d.h.j.j.j.h.h.h.j.{ V <X>XiXlXjXlXlXfX<X`.( C z.z.h.p.h.h.h.h.d.p.d.j.h.p.s.p.A.",
"k.l.k.h.h.h.k.j.h.h.h.h.h.h.j.k.h.h.X.M B.zXzXlXfXjXjXlXhXwXW.Y X %...6.k.k.l.l.l.j.h.j.z.k.h.j.j.S.",
"k.k.k.k.k.k.k.k.k.k.k.k.k.l.k.k.j.5.- ) 6XfXfXfXfXfXdXsX9XQ.M l b x 2 &.k.d.k.k.k.k.k.k.k.k.k.k.k.S.",
"k.k.k.k.k.k.k.k.k.k.k.k.k.k.l.h.>.$.@ H.zXlXzXzXzXlX6X)   $ 8XjXfXfX|.(   # j.z.h.k.k.k.k.k.k.k.j.A.",
"k.k.k.k.k.k.k.k.k.k.k.k.j.k.h.5.5.D.t B.|.G G G J b.8 V.2X>XfXlXjXjXdX9X<X<Xl @.D.h.k.k.k.k.k.k.h.S.",
"j.j.j.j.j.j.j.j.j.j.j.j.k.h.5.| C %.- q _ N.N.V.n.  b.2XzXzXlXfXjXjXjXlXzXlXK.*.#.l.h.j.j.j.j.k.h.A.",
"h.h.h.h.h.h.h.h.h.h.h.j.h.>.@.&.c c m j b.zXzXzXpX, pXzXfXfXjXjXjXfXfXfXfXfXzXK.5 d.h.h.h.h.h.j.h.A.",
"h.h.h.h.h.h.h.h.h.h.k.z.>.#   G.zXfXfXfXfXfXfXlX9XP 9XlXfXjXjXfXjXlXlXlXlXlXjX7XT.+ s.k.h.h.h.h.h.A.",
"h.h.h.h.h.h.h.h.h.z.C X l 2X2XpXlXjXjXjXjXjXjXjXdX4XdXjXjXjXfXzXpXG J J J ~ fXlX].  s.j.h.h.h.h.h.A.",
"h.h.h.h.h.h.h.h.d.A E _ P.lXzXlXfXjXjXjXjXjXjXjXjXlXjXjXjXfXzX2XG.q.q.*.D q.G.pX2X  s.h.h.h.h.h.h.A.",
"p.p.p.p.p.p.p.p.:.b `.wXzXfXfXfXjXjXjXjXjXjXjXjXjXfXjXjXjXfXfXN.y %X$X$X%X%X4 (.:X  i.d.p.p.i.p.p.Z.",
"6.i.p.i.i.i.k.A 9 fXjXfXfXjXjXjXjXfXfXfXfXjXlXjXjXjXjXjXjXlXk w.$X+XXX&XtX-X$Xe.L : <.i.6.i.i.i.5.f.",
"p.d.d.p.p.l.e n.pXfXjXjXjXjXjXfXjXzXzXzXzXlXjXfXjXjXjXjXjXjX8X#X@X*X*X-XtXtX=X!.L # 6.p.p.h.d.p.u.Z.",
"d.d.d.h.s.o.E ].zXfXjXjXjXjXfXlXfXL.L.J.'.0XfXjXfXjXjXjXjXfXzXiXeXyXyXtXtX-XuX!.< B i.h.d.d.d.d.p.Z.",
"d.d.s.h.i.  Q.0XjXfXjXjXjXjXjXfX>X2 k 5 q E.9XfXjXjXjXjXjXjXfXlXjX*XtXtXtX-X*Xw.e >.#.i.d.s.d.d.p.Z.",
"d.p.d.d.-.  >XzXfXjXjXjXjXfXzXP.1 _.dX0XE.+ E.0XkXfXjXjXjXjXjXlXiX+X-XyXyXtXv A p.>.@.#.u.d.p.d.p.Z.",
"p.d.d. .z 2XfXlXjXjXjXjXjXfXzXL.j dXfXhX4X> 2 (.zXfXjXjXjXjXjXjXfXiXY.Q v v & * > a #.@.#.u.d.d.p.Z.",
"d.p.5.g x lXlXfXjXjXjXjXjXfXzXP.9 0XlXhX|.o   J.zXfXjXjXjXjXjXfXjXlXR s 1.1.2.2.} % >.$.+.@.i.d.p.g.",
"p.>.#.N x fXjXfXjXjXjXjXjXfXzXP., E.2X[.' J u I.zXfXjXjXjXjXjXfXjXjXc 3.v.x.x.v.8.% #.,.#.+.@.i.p.a.",
"@.X.6.o.x fXlXjXjXjXjXjXjXfXzXP.  5 > . G zX$X,XlXfXfXfXfXjXjXfXjXjX0 3.c.9.0.x.8.* -.>.#.>.X.@.+.t.",
"X.X.5.%.& V W.7XjXfXjXjXjXfXjXfX;X      4 $XrXkXzXzXzXzXzXjXjXfXjXfXpXm.] c.v.3.@     A 5.#.+.X.| :.",
"6.@.#.A 1 ) |.qXjXfXjXjXjXjXfXlXfXL.L.J.(.,X9X|.~././.H.I.lXjXjXjXfXzX2XG.2.1.n.B.L.P.*.d #.X.i.5.y.",
"s.5.#.h k Q.aXlXfXjXjXjXjXjXjXfXfXzXzXzXzXlX6XR.W ^ / T n.lXfXjXjXjXfXfX;X: w _ |.jXzXP.z ..,.j.p.a.",
"i.p.5.@.X.  >XzXfXjXjXjXjXjXjXjXjXfXfXfXfXfXjXlXlXlXlXlXlXjXjXjXjXfXzXV.w c.c.[ 7 }.aXzX<X  f.s.5.g.",
"i.i.i.6...  Q.0XjXfXjXjXjXjXjXjXjXjXjXfXjXjX6XR.W W }.gXzXfXjXjXjXjX( 7.9.0.0.9.7.n pXzX>X  <.i.5.f.",
"i.i.i.i.,.N E ].zXfXjXjXjXjXjXjXjXjXjXjXjXjX0X|./.).) ( I.lXjXfXjXjX8 3.v.x.x.v.8.$ pXzX2X  <.i.5.f.",
"i.i.i.i.i.i.w n.pXfXjXjXjXjXjXjXjXjXjXjXjXjXkXlXzXzXm.z n.dXfXjXjXjXR } 8.8.8.8.4.1 pXfXI.r <.i.5.f.",
"i.i.i.i.i.i.i.g j fXjXfXfXjXjXjXjXjXjXjXjXjXfXfXfXfXlXzXgX_.dXjXjXfX/ 3 # % % % $ = fXV.- d.6.i.5.f.",
"i.i.i.i.i.6.i.>...b `.wXzXfXjXjXjXfXjXjXjXjXjXjXjXjXfXjXfXdXfXjXjXfXdXN.X -. . .A & b &.<.i.i.i.5.f.",
"6.6.6.<.6.6.<.i.>.t E M.].jXlXjXjXfXfXfXjXjXjXjXjXjXjXjXjXjXjXjXjXfXzX[.( N  .>.;.$ N -.i.6.<.6.>.a.",
"#.#.#.#.-.,.,.,.,.,.e , W aXaXdXjXjXjXjXjXjXjXjXjXjXjXjXjXfXjXjXjXfXjXwX`.  %.d.o.i <.,.-.>.-.-.@.y.",
",.,.,.,.,.>.>.,.6.,.6.h 0 }._.5XlXfXfXfXjXjXjXfXfXjXjXjXjXjXjXjXjXjXfXzX2Xo <.6.,.<.,.>.>.>.>.<.>.a.",
"6.6.<.6.6.<.,.<.6.6.i.N b dXdXjXaX^ qXzXkXfXzX].` lXjXjXjXjXjXjXjXjXfXzX2X  .     i >.6.,.,.,.6.,.a.",
"<.<.<.6.6.6.<.<.6.<.i.B b kXjXlX8X< #X4X7XlXwXR.W lXjXjXfXjXjXjXjXjXfXzX2Xo F.@XF.o ;.6.<.6.<.6.>.a.",
"<.<.<.<.<.<.<.<.<.<.i.B c qXfXlX8X  .X#X|.iX/.` ~.lXjXjXjXjXjXjXjXjXjXhX:XO &X-XXXr ,.<.<.<.<.<.>.a.",
"<.<.<.<.<.<.<.<.<.,.i.Z 0 _.qXlX8X& &XuX*X+X: J.zXfXfXfXfXjXjXjXjXfXjX7XT.o XXD X i.,.<.<.<.<.<.>.a.",
",.<.,.,.,.<.<.<.<.<.<.,.&.2 8XzXlXpXG = a u 2XlXlXlXlXkXjXfXjXfXjXjXzX].I # 4 F ,.,.,.,.,.,.,.<.>.a.",
",.,.,.,.,.,.,.,.,.,.,.<.,.C m.N.J.zX<X^.) K U.).,X,X3X6X0XzXzXzXhX7XK.R < F B O.<.,.,.,.,.,.,.<.-.a.",
",.,.,.;.,.,.;.;.;.;.,.,.;.r.f   V >X2X[.E.Y.^ !.%X@X).{.].<X>X<X;XT.i ; B i.<.,.,.,.,.,.,.,.,.,.-.a.",
";.-.#.#.;.-.#.#.#.#.-.;.#.O.<.i.%.      S tXtXtXtXtX@X+XF.        . -.<.;.-.-.;.;.;.;.;.;.;.;.;.#.y.",
"O.o.o.o.#.#.O.o.o.o.#.#.O.O.O.#.O.%.@.! I p p p p p 5 5 6 U =.O.%.o.O.o.O.#.-.;.#.#.O.-.-.#.;.;.X.t.",
"#.;.-.#.-.-.;.-.#.#.#.-.;.-.-.-.#.-.$.*.! d f g N g f g H ~ :.;.#.-.-.-.-.;.-.#.#.O.o.O.O.o.o.o.#.a.",
";.;.;.;.;.;.;.;.-.-.-.;.;.-.-.;.-.-.;.>.$.#. . ...| o.i.r.$.;.;.-.-.;.;.;.;.;.;.;.;.-.;.;.-.-.-.#.y.",
"#.#.-.-.-.-.-.-.-.-.-.-.-.-.-.-.-.-.-.-.-.#.X.A C  .-.,.-.-.-.-.-.-.-.-.-.-.-.-.-.-.-.-.-.-.-.-.O.y.",
"t.t.:.:.:.:.:.:.:.:.:.:.:.:.:.:.:.:.:.:.:.:.:.o...:.y.:.:.:.:.:.:.:.:.:.:.:.:.:.:.:.:.:.:.:.:.t.:.C."
};
