/* XPM */
static char *result[] = {
/* columns rows colors chars-per-pixel */
"50 100 238 2 ",
"   c #000000",
".  c #080004",
"X  c #16090E",
"o  c #000017",
"O  c #230202",
"+  c #2C0000",
"@  c #340100",
"#  c #380800",
"$  c #2B1805",
"%  c #3B1703",
"&  c #391517",
"*  c #02002A",
"=  c #000035",
"-  c #140130",
";  c #3A1E2C",
":  c #002B38",
">  c #322A32",
",  c #430005",
"<  c #4D1507",
"1  c #690900",
"2  c #740000",
"3  c #452400",
"4  c #552A0D",
"5  c #4A003D",
"6  c #492B28",
"7  c #4C342F",
"8  c #45373A",
"9  c #733B25",
"0  c #5D4025",
"q  c #00014C",
"w  c #0D274A",
"e  c #323250",
"r  c #2B346F",
"t  c #48324B",
"y  c #48396F",
"u  c #3A414D",
"i  c #3E4659",
"p  c #3D4E64",
"a  c #30486D",
"s  c #3D5368",
"d  c #544C4C",
"f  c #444858",
"g  c #675253",
"h  c #685C58",
"j  c #776450",
"k  c #444B69",
"l  c #44546B",
"z  c #49546A",
"x  c #545569",
"c  c #4E4870",
"v  c #4A5B72",
"b  c #475978",
"n  c #565B73",
"m  c #705A6D",
"M  c #476279",
"N  c #4D617C",
"B  c #566378",
"V  c #53647C",
"C  c #736765",
"Z  c #766B72",
"A  c #860000",
"S  c #901600",
"D  c #A51200",
"F  c #8F2E00",
"G  c #A92D00",
"H  c #B24C03",
"J  c #B25635",
"K  c #886839",
"L  c #8D5751",
"P  c #927354",
"I  c #BC6A4B",
"U  c #87756B",
"Y  c #847D79",
"T  c #B56B7C",
"R  c #928371",
"E  c #93877B",
"W  c #BE956D",
"Q  c #AA9170",
"!  c #B59A75",
"~  c #C68D74",
"^  c #D3A47C",
"/  c #0D2F9E",
"(  c #3A5A84",
")  c #4E5291",
"_  c #4D6383",
"`  c #486489",
"'  c #4B658A",
"]  c #536683",
"[  c #596482",
"{  c #566984",
"}  c #5A6B85",
"|  c #526788",
" . c #546B8C",
".. c #5A6E8C",
"X. c #5C718E",
"o. c #556D92",
"O. c #596F91",
"+. c #536F98",
"@. c #5D7393",
"#. c #567299",
"$. c #5D759A",
"%. c #6C7186",
"&. c #61738C",
"*. c #7B7B86",
"=. c #617694",
"-. c #6E7790",
";. c #647995",
":. c #687B97",
">. c #617699",
",. c #647A9C",
"<. c #697D9C",
"1. c #5C5DAD",
"2. c #5D7AA3",
"3. c #5F7AA4",
"4. c #6161AA",
"5. c #657DA1",
"6. c #697FA1",
"7. c #607EA9",
"8. c #6266BC",
"9. c #656BC7",
"0. c #6D77DE",
"q. c #717DE7",
"w. c #8A6684",
"e. c #93649A",
"r. c #997897",
"t. c #A4729A",
"y. c #A074A2",
"u. c #6B809E",
"i. c #7A8599",
"p. c #6B81A5",
"a. c #6682AA",
"s. c #6984AA",
"d. c #6C85AA",
"f. c #7185A5",
"g. c #7F8CA2",
"h. c #7187A9",
"j. c #7289AD",
"k. c #6D89B3",
"l. c #6D89B4",
"z. c #758DB2",
"x. c #788FB3",
"c. c #738EB8",
"v. c #7790B6",
"b. c #7991B5",
"n. c #7B94BB",
"m. c #7B95BC",
"M. c #7482ED",
"N. c #7887F8",
"B. c #8B8787",
"V. c #969188",
"C. c #8C8C93",
"Z. c #989595",
"A. c #AC9681",
"S. c #A39C96",
"D. c #B5A593",
"F. c #818EA5",
"G. c #8793A8",
"H. c #8997AC",
"J. c #949DAC",
"K. c #8C9BB4",
"L. c #8297BA",
"P. c #839ABE",
"I. c #8E9EB9",
"U. c #909FBC",
"Y. c #B28BB0",
"T. c #B68BB9",
"R. c #94A0B3",
"E. c #9AA3B2",
"W. c #92A2BD",
"Q. c #9FA8B8",
"!. c #A9A7A3",
"~. c #B9B6AD",
"^. c #A1A9B7",
"/. c #AFAFB0",
"(. c #A2ABBB",
"). c #BBB7B1",
"_. c #BDB9B3",
"`. c #CB9887",
"'. c #CDAD92",
"]. c #D7BC90",
"[. c #D8BE91",
"{. c #CC95AD",
"}. c #C1B7A9",
"|. c #D3B4AA",
" X c #C2BDB4",
".X c #C1BEBB",
"XX c #DAC9AA",
"oX c #C8C4BD",
"OX c #DBC4B8",
"+X c #E2CDA9",
"@X c #EBD3AC",
"#X c #E9D7B7",
"$X c #F1DEBC",
"%X c #849BC1",
"&X c #899FC3",
"*X c #BA8FC9",
"=X c #BA96C5",
"-X c #95A6C3",
";X c #99AAC6",
":X c #A4AEC1",
">X c #A6B1C5",
",X c #A7B3C8",
"<X c #A9B5CA",
"1X c #ACB8CF",
"2X c #B3BCCC",
"3X c #828BF8",
"4X c #C39AC7",
"5X c #CEA5CD",
"6X c #D3AADB",
"7X c #D8AEE1",
"8X c #DDB3E5",
"9X c #E7BCEE",
"0X c #EABFF0",
"qX c #CAC8C3",
"wX c #D7C9C7",
"eX c #D5D3CC",
"rX c #DCDBD7",
"tX c #E1CACF",
"yX c #E5D6CC",
"uX c #E5DDD5",
"iX c #F5E5C7",
"pX c #E8E3DB",
"aX c #F1E7D4",
"sX c #F4E9D5",
"dX c #ECC2F2",
"fX c #F1C6F7",
"gX c #F5C9FC",
"hX c #EAE9E6",
"jX c #ECEBE4",
"kX c #F2EDE6",
"lX c #EFF0EA",
"zX c #F6F6EF",
"xX c #FBF7EA",
"cX c #F6F7F0",
"vX c #F8F7F0",
"bX c #F6F8F3",
"nX c #FBFCF5",
"mX c #FEFFFA",
/* pixels */
";Xn.P.m.P.%X%X%X%X%X%X%X%Xm.%XP.%X%X%X%X%X%XL.z.h.L.L.n.%XL.L.b.%X&X%X%X%X%X%X%XP.%X%XP.P.P.P.P.c.1X",
";Xc.m.m.n.b.n.n.n.b.n.n.n.n.n.n.n.n.c.n.n.c.c.3.$.l.n.n.c.n.n.n.n.c.n.n.n.n.n.c.m.b.n.n.n.n.n.P.l.1X",
"-Xc.m.m.n.m.n.m.n.n.n.n.n.n.n.n.n.n.n.n.L.c.5.$.5.5.6.%XL.n.n.L.n.n.n.n.c.%XL.c.m.n.n.n.n.n.n.m.l.1X",
"-Xc.L.m.n.n.b.n.n.n.n.n.n.n.b.n.n.n.n.n.z.5.5.n.7.5.5.7.c.z.c.x.v.%Xn.c.x.c.n.L.n.n.n.n.n.n.n.%Xc.1X",
"W.s.z.z.z.z.z.j.j.z.c.x.b.b.b.c.x.z.z.j.5.5.n.m.c.6.5.3.6.l.x.z.z.x.x.c.6.z.c.z.z.j.l.c.z.z.z.z.7.,X",
"I.7.j.d.j.d.z.j.s.d.j.z.c.z.x.z.j.l.j.5.5.l.%X6.6.6.6.5.5.6.l.c.j.l.z.j.z.z.l.z.z.j.s.j.z.j.s.j.3.,X",
"W.z.b.z.z.j.c.x.z.z.j.z.z.z.c.x.z.z.5.5.j.%X7.h.l.6.l.l.5.$.l.n.b.b.b.z.z.x.L.x.b.z.z.b.b.c.z.x.l.1X",
"-Xz.b.c.c.c.b.x.x.c.x.c.c.b.b.x.z.5.+.z.m.5.6.k.6.7.6.6.7.>.>.6.n.b.c.b.b.x.x.c.x.x.c.b.b.x.x.n.l.,X",
"W.j.b.x.x.b.b.b.x.x.b.b.v.v.b.c.6.o.v.v.6.d.6.6.7.6.j.7.6.7.$.5.6.n.c.v.x.x.c.x.x.x.x.x.x.x.b.x.l.<X",
"-Xj.b.b.x.b.z.x.b.z.x.z.z.b.z.5.+.z.n.d.6.6.7.6.h.7.6.6.6.6.5.5.5.6.c.v.c.x.L.z.c.x.x.x.x.x.z.n.a.,X",
"W.j.b.b.z.z.x.z.x.x.z.x.c.z.,.$.l.v.k.6.k.6.7.k.6.7.j.6.k.6.6.7.$.3.6.n.x.z.x.x.x.z.x.x.x.z.x.x.a.<X",
"W.k.b.j.z.z.z.x.z.z.z.c.j.5.$.s.%X6.5.k.6.k.h.6.6.j.7.6.6.k.k.6.6.$.5.6.z.z.z.z.z.x.l.x.z.z.x.x.k.<X",
"W.j.z.z.z.z.z.z.z.x.z.c.5.#.h.P.6.7.d.6.7.k.6.j.j.j.6.k.6.k.7.d.6.7.3.$.6.c.z.z.z.z.z.z.z.z.z.x.a.,X",
"W.d.z.j.j.z.j.z.z.j.z.5.o.d.b.5.d.6.6.d.6.6.d.7.6.7.6.6.5.5.6.6.6.6.6.$.5.6.x.z.z.z.z.x.z.z.j.x.a.,X",
"W.d.z.j.z.j.j.z.j.z.,.o.j.x.d.6.6.d.h.7.6.h.5.6.5.5.5.7.5.5.5.5.7.5.5.>.$.$.6.c.h.z.j.v.h.v.z.x.a.<X",
"I.a.h.h.h.d.h.d.h.5.o.d.z.s.5.5.5.5.5.6.5.5.6.5.5.5.6.6.5.5.5.5.5.,.>.>.3.@.$.6.h.h.h.6.6.6.6.z.2.:X",
"K.2.p.p.p.p.h.p.5.o.6.c.6.5.5.5.5.$.$.5.5.>.$.5.5.5.$.$.5.$.5.5.>.5.5.,.,.$.O.@.6.d.6.6.6.6.6.6.2.:X",
"K.7.j.d.p.j.j.5.o.6.L.5.5.6.5.6.$.5.5.5.5.5.$.5.5.5.5.5.6.5.5.5.$.,.5.a.,.5.$.#.$.d.d.s.j.z.l.h.2.;X",
"I.s.j.j.j.j.,.o.5.b.6.6.5.6.5.6.6.5.5.5.5.5.5.5.6.6.6.6.5.5.5.5.5.a.6.5.7.5.6.,.#.@.d.j.j.j.h.z.7.,X",
"I.a.j.d.j.5. .p.c.6.5.5.5.5.6.7.5.5.5.5.5.5.5.5.6.5.5.5.5.6.5.5.5.6.5.6.5.6.5.5.5.O.$.d.j.d.h.j.3.:X",
"I.a.j.d.$. .a.j.6.5.6.5.5.5.5.5.,.5.5.5.5.6.6.5.5.5.,.5.5.5.5.5.5.<.5.5.5.,.5.5.5.$.O.@.6.z.h.j.3.>X",
"K.a.j.,.o.5.j.d.,.5.5.5.,.5.5.5.5.5.5.5.5.5.5.5.,.5.5.5.5.,.5.5.5.5.5.5.5.5.5.5.5.5.>.o.$.6.h.h.3.>X",
"I.5.5.o.$.j.d.,.5.5.5.5.5.5.,.5.5.5.5.5.5.5.5.5.5.5.5.5.,.5.5.5.5.5.,.5.5.5.5.5.5.5.5.$.o.$.6.z.3.>X",
"K.$.@.@.b.p.,.,.,.,.,.,.5.>.5.5.,.5.,.5.>.5.,.,.5.,.5.,.5.,.5.5.,.,.,.5.5.>.5.,.>.5.,.5.$.O.$.6.2.Q.",
"F.` ,.z.4.=.,.>.=.>.,.>.$.>.5.,.$.>.$.$.$.@.>.>.>.>.$.>.,.>.,.>.$.>.>.,.>.,.5.>.>.>.@.$.,.>...=.` Q.",
"g.` >.d.>.@.=.$.O.$.$.$.@.@.>.@.O.,.,.>.>.>.O.@.>.>.>.@.>.$.@.@.$.@.@.$.O.$.>.O.$.>.,.@.$.@.O.X.( E.",
"K.o.O.>.>.>.>.>.>.>.>.>.>.>.>.>.,.,.,.>.,.,.>.>.>.,.>.>.>.>.,.>.>.>.$.>.>.>.>.>.>.5.>.5.@.) =.h.+.E.",
"K.2.@.o.>.3.,.>.,.,.,.,.,.,.,.,.,.,.,.,.,.,.,.,.5.5.>.5.,.,.,.,.,.,.,.,.,.,.,.,.>.5.>.>.O.O.6.x.2.;X",
"K.5.6.$.o.@.>.5.,.,.,.,.,.>.,.,.,.,.,.,.>.,.>.,.>.>.>.:.,.,.,.,.,.>.>.,.,.,.>.,.>.,.>.O.O.6.x.f.$.:X",
"K.5.h.6.O.| O.5.>.>.>.>.>.>.>.>.>.>.,.>.>.>.,.,.>.>.>.>.>.>.>.>.;.,.,.>.,.>.>.,.,.,. .| p.j.<.f.$.:X",
"K.5.6.6.6.O. .O.>.>.>.>.>.>.>.>.>.>.>.=.>.>.>.>.>.>.>.>.>.>.=.>.>.=.>.>.>.>.>.>.>.o.| h.j.6.p.f.$.:X",
"K.5.6.6.6.6.O. .O.5.>.>.>.>.>.=.>.=.=.$.=.>.>.=.>.>.=.>.=.>.>.=.@.>.=.>.=.>.>.=.o. .6.h.h.f.p.h.$.:X",
"K.6.h.6.6.h.6.O.| O.$.=.$.=.@.,.>.>.>.>.>.>.>.=.>.>.>.>.>.>.>.=.>.>.>.=.>.>.=. .{ 6.h.f.6.f.6.f.>.:X",
"K.6.6.6.6.6.6.,.O. .O.$.=.>.@.@.@.@.@.>.=.@.@.>.@.@.=.=.@.>.@.>.>.=.>.@.=.@. . .,.j.6.6.p.6.f.f.$.:X",
"K.,.6.6.6.6.6.6.,.| | O.@.@.X.o...O.@.O...O.@.=.O.@.O.O.O.@.@.=.@.@.#.O.=. .| ,.j.<.p.6.6.6.6.6.+.:X",
"F.o.=.$.,.6.,.,.,.>. .|  ...@.@.O.O.O. .O.O.O.O...O.O. .O...@.O.O.....O.o.| ,.h.,.,.,.@.,.,.=.>.' ^.",
"K.@.5.5.<.,.,.,.6.6.<. .| ..@.@.@.@.@.@.O...O.O.o.O.@.=.O.O...O.O.O.O. ._ 5.6.,.,.<.5.,.@.#.#.u.+.(.",
"K.>.6.6.6.6.<.6.6.6.6.,. ._ o.@.@.@.$.@.@.O.=.O.O.O.=.O.@.O.O.O.=.O..._ ,.6.6.6.,.2.p.<.u.u.u.u.+.:X",
"H.,.6.6.6.6.6.6.6.6.6.6.$.} _ X.O.=.O.=.@.@.O.=.O.=.@.@.@.=.@.=.O. .[ =.h.6.6.6.u.u.$.u.u.u.u.u.#.(.",
"H.>.6.<.<.<.<.<.<.<.6.<.u.$. .| ..O.=.O.=.O.=.&.@.@.@.@.@.X.@.X. .] =.f.6.<.<.<.u.u.u.u.u.u.u.u.#.(.",
"H.,.6.<.<.<.<.<.,.u.;.u.u.u.;.V ] ..@...@.X.@.O.X.@.X.@.X.@.X. ._ =.f.<.u.,.u.,.u.,.u.,.u.X.u.u.#.(.",
"H.$.<.<.<.<.<.<.u.;.u.,.u.,.u.@.] ] ..@.@.X.@.X.@.@.@.X.@.X. ._ =.6.6.<.,.u.,.u.,.u.;.u.u.u.u.u.O.(.",
"H.=.<.<.,.:.<.<.u.u.u.;.$.u.u.$.=._ ] { @.X...X.X.X.X.@...| _ @.6.<.>.<.u.;.,.u.u.;.u.;.X.u.X.u.o.(.",
"H.#.>.:.:.,.,.;.;.;.$.u.;.;.;.u.,.=._ ] ..X.X..... .X...{ N ..<.<.,.:.:.;.u.;.,.@.u.$.u.u.u.u.u.o.(.",
"G.o.=.&.,.=.=.&.X.X.;.;.&.@.;.;.;.;.X.N ]  .{ ..{  .X.{ V ..<.:.;.;.=.=.;.;.:.:.u.@.u.u.X.u.u.u.' ^.",
"G.| X.X.=.&.@...X.X.@.;.@.X.=.@.=.@.=...N N ] ] | { _ N { p.:.=.=.=.=...@.X.;.=.X.X.X.X.X.X.X.u.` E.",
"G.o.;.=.=.;.;.;.X.@.=.=.;.;.=.;.@.&.;.;.X.N _  ...{ N } f.,.;.=.X.=.;.=.;.;.;.=.@.} X.X.X.} X.}  .^.",
"G.X.;.;.,.;.;.;.;.;.;.;.;.=.=.;.;.;.;.,.;.X._ N ] b  .p.:.;.,.;.;.;.;.;.;.;.=.;.u.u.@.u.u.X.u.u.o.^.",
"G...;.;.;.;.&.=.=.;.;.;.;.;.;.;.;.;.;.;.=.=...b b { <.<.-.=.=.-.;.;.;.;.;.-.=.;.;.;.;.;.;.;.:.:.' ^.",
"H.@.;.;.,.:.:.:.:.:.<.:.;.;.;.:.:.,.;.,.>.;.<.{ { <.<.=.>.>.>.=.;.<.:.:.>.>.:.,.;.:.:.;.;.;.;.:.o.Q.",
"-Xc.n.b.n.n.n.n.n.m.m.m.n.n.n.n.m.n.n.n.L.b.n.7.5.c.L.v.n.c.v.l.n.P.n.n.n.n.n.n.n.n.L.n.m.n.m.m.l.1X",
";Xc.P.m.n.n.n.n.m.n.m.m.n.n.n.n.m.m.n.n.n.L.c.5.5.j.m.m.n.n.%X%Xn.n.n.n.n.P.m.m.n.n.m.m.m.m.m.m.l.1X",
";Xc.m.n.n.n.n.n.n.n.n.n.n.n.n.n.n.n.n.n.n.z.2.2.3.5.6.m.m.n.n.n.b.n.n.n.n.n.m.m.n.b.n.n.m.m.m.P.l.1X",
"-Xz.m.n.n.b.n.n.n.n.n.n.b.n.n.b.n.b.n.n.z.5.$.&X6.X 5.6.l.c.b.c.c.n.n.n.z.b.n.n.L.n.n.n.b.b.m.m.l.1X",
"U.a.k.j.j.z.z.j.h.j.z.b.m.b.b.c.c.z.z.j.5.5.%X,.m w.c o.6.z.c.j.j.z.z.z.j.j.z.z.z.j.j.z.v.j.j.j.a.>X",
"I.a.j.d.j.j.z.k.d.d.d.z.z.z.z.z.j.z.s.$.5.z.x.x w.7Xm c $.6.z.z.z.z.z.j.d.z.z.z.l.k.d.j.v.j.h.j.a.,X",
"-Xz.n.j.z.j.v.z.z.z.z.z.z.z.z.z.z.z.5.5.b.%X$ r.7X0X6XU u p.j.n.n.n.b.j.j.b.b.b.b.v.j.v.b.v.x.b.k.1X",
"-Xj.b.b.v.b.b.b.v.v.b.b.c.x.n.%Xj.*   o -     O 5 t 5           * e n.P.m.b.b.b.b.b.b.v.b.b.b.b.k.<X",
"W.k.b.b.v.v.b.b.b.b.b.b.x.L...a x W ~.).~.)._.). X).~._._.).)._.D.Q v k =.P.b.b.x.x.x.x.b.v.x.b.a.<X",
"W.z.b.b.b.j.z.b.c.x.z.z.z.u.C j V.$XxXnXnXmXmXnXmXmXnXmXmXmXnXnXxX#XY j Z p.x.c.x.x.x.x.v.v.x.b.a.<X",
"W.k.v.j.x.z.x.z.z.b.b.b.j.O ].sXmXzXzXzXzXkXzXzXlXzXlXzXzXzXzXzXzXxXnX$X! - L.n.b.x.z.x.j.v.z.b.k.<X",
"W.j.x.v.j.x.z.b.z.-   o @ G G ^ iXmXzXzXzXzXzXzXvXzXzXzXzXvXzXlXvXnX$X~ G S . o   e n.z.x.z.z.v.a.<X",
"W.j.j.v.z.z.b.,.x ~._._. XOXOXD.U S.kXmXbXbXbXbXvXzXvXzXvXnXnXnXpXZ.P }.OXOX X_. X/.k j.b.j.z.v.a.<X",
"I.d.x.j.j.x.d.%.E nXmXmXnXnXmXwXh C qXuXuXuXkXcXzXzXvXvXkXyXuXpX_.h C rXmXnXmXmXmXkXZ -.f.z.k.z.a.<X",
"W.s.j.j.x.b.e V.mXzXzXkXzXzXzXvXnXnXC 2 H H uXvXvXvXzXvXyXD H 1 Z.mXnXzXzXzXzXzXzXzXnXC l v.j.j.a.,X",
"K.a.d.d.d.b.= E nXzXzXzXzXzXzXzXzXzXlX!.j kXzXvXzXcXzXcXzXuX7 2XlXzXzXzXzXzXzXzXzXzXxXg r c.p.d.$.>X",
"K.2.p.a.6.l !.pXmXnXvXzXzXzXzXzXzXzXnX}.L mXzXzXzXzXzXzXzXzXF wXmXzXzXvXzXzXzXzXbXbXnXrXZ.s f.f.#.>X",
"K.a.j.h.6.  ~.pXeXyXkXvXzXzXvXzXzXzXnXOX'.cXcXzXzXcXzXvXzXzX`.yXbXzXzXzXzXzXzXvXkXyXeXpXS.X j.h.2.,X",
"I.s.j.h.p.8 O   , D yXvXzXzXzXvXzXzXzXvXnXzXcXzXzXzXzXzXzXzXnXzXzXzXcXzXvXzXzXbXOXA + . O f h.j.a.>X",
"I.a.h.h.f.+ r.=XY.J 1 /.nXzXzXzXzXzXcXzXzXzXzXzXzXzXvXcXzXzXzXzXvXzXzXzXzXzXmXZ.F I *X=Xw.> f.h.2.>X",
"I.5.h.d...  =X9X6X{.t.C./.zXzXzXzXzXzXzXzXzXzXzXcXzXzXzXzXzXzXzXzXzXzXzXvXjXS.r.t.{.7X9Xy.X z.h.2.>X",
"I.a.h.$.]   5XgX0X6X8Xy.$ zXvXzXzXzXvXzXcXzXzXcXzXzXzXcXzXzXzXzXzXcXzXvXbXpX  =X7X7X0XgXY.  h.h.2.>X",
"I.7.,. .=.  4XfXdXdXfX{.h vXvXzXzXzXzXzXzXzXzXzXvXzXvXzXzXzXzXvXcXzXzXzXbXhX6 5X0X0X9X0XY.  <.f.2.:X",
"K.#.O.@.6.  5XgX0X0XgX7XT.zXvXzXcXcXzXvXbXzXcXzXzXzXzXzXvXzXzXzXzXzXzXcXbXjXY.9XgX0XgXU e ] { p.#.Q.",
"F.` >.h...k Z 4X0X0X{.|.hXzXzXzXzXzXzXzXzXvXvXzXvXvXzXvXcXzXzXvXvXzXcXzXvXzXhX{.6X0Xr.x l } ] ..( Q.",
"F.` =.p...O.: m 6X6XJ '.mXzXzXvXzXcXzXzXzXzXzXzXzXzXzXzXzXzXzXzXzXzXzXzXvXvXvXW T 4X  v ] { ] ..( E.",
"H.o...o.O.[ | k     F |.nXzXzXzXcXzXzXzXcXzXzXcXcXzXvXzXzXzXzXzXcXzXzXzXzXzXbX`.S   [ V N b ..j.#.Q.",
"U.7.>.| | 8 # @ < X wXvXzXvXzXzXzXvXcXzXzXzXzXzXzXzXzXzXzXvXzXcXzXzXzXvXzXcXcXxX X  % # @ t <.j.3.:X",
"*.q &.,.| # ) 9.8.  eXmXzXzXzXzXzXzXzXcXzXvXcXzXzXzXcXzXzXvXzXzXzXzXcXzXvXzXzXnXoX* 9.9.) 8 x.j.a Z.",
"C K Z _ k @ 0.N.q.  eXnXzXzXzXzXcXcXzXzXzXzXzXzXzXvXzXzXzXzXzXcXvXzXzXzXzXzXzXmX_.q N.N.4.% B } C D.",
"C +XQ ; d % 9.q.0.. eXnXzXxXzXzXzXzXzXzXvXzXzXzXcXzXzXzXcXzXvXzXzXzXzXzXzXzXzXnX Xq M.M.1.% d ; D.iX",
"C jXvXlXhX6   ) M.  eXmXvXnXnXmXnXzXzXzXzXzXzXzXvXzXzXvXzXzXzXzXzXzXnXnXnXnXcXmX~.= 3Xr   C xXjXxXzX",
"C.Z pXmXzXrXXXA.c y.hXuX~ C.E Z !.mXcXzXzXzXzXvXzXzXcXzXzXzXcXzXnXzXB.Y E B.~ lXrXe.) A.OXrXvXmXoX!.",
"F.= Z.uXvXkX+XQ ) 4XtX'.2 P V.R R oXlXcXzXzXzXzXzXzXzXzXzXzXzXbXpXoXP V.E P A |.tX*X) ! #XxXzXeXY *.",
"i.@.* R kX+Xj / 3X*XI 2 d @XnXxX[.  rXnXzXzXzXzXzXzXzXvXvXzXzXnXoX  @XxXxX+X> A T *XN./ P XXhXd w R.",
"i.b ] l 6 3 8.M.q.t 6 @ h zXzXvXpX# uXnXzXzXzXvXzXzXzXzXzXzXzXnXqX6 lXzXzXhX7 6 < y q.q.4.< 7 B s H.",
"g._ { V z + 9.N.q.; $   4 $XxXxX+X  rXnXzXzXzXzXvXzXzXzXvXzXzXnXoX$ $XxXxX+X    O y q.N.1.+ l } M J.",
"F...} { B e 1.9.8.; 2 U !.!  X}.Q 2 pXnXzXzXzXzXcXzXzXzXzXvXzXnXwX2 ! }.~.! /.L 4 c 8.8.) t } } ` R.",
"G.O.&.} V } 8 # % > F |.hX      4 I pXnXzXzXzXzXzXzXcXzXzXzXzXbXyXJ #     d kX~ L M % % d X.B &._ E.",
"G.@.;.X.} V V ] V B M L H + > F ~ zXzXzXzXzXzXzXzXzXzXcXzXzXzXzXcXsXI 9 ; 4 H C s B V V V V V &.' Q.",
"H.@.=.=.X.} { V V V B B m T.g @ L iXxXmXnXvXvXvXvXbXbXbXcXcXnXnXxX@X9 , > n C B _ ] V V  .} V u.o.Q.",
"H.$.<.=.X.X.} { V V V N } Y.n w g ! _..XoXsXsXsXsXsXsXaXaXaXoXoX}.Q f e z V M ] { { V V X.X.X.X.o.(.",
"H.@.:.;.;.X.X.} } } V V V s M V l       0 [.].[.].].].].[.'.+     * B V V V V } } } } X.V X.u.u.o.(.",
"H.@.u.;.;.;.&.&.....X.} } V V B B B z z z & & & & & & & & & B V B B N B V } } } X.&.&.&.u.X.u.u.o.(.",
"H. .;.X.;.=.X.....} X.} V V V V N N v s i i i p i i f i i z B V M B N V V } X.&.X.=.=.=.X.u.X.u.` Q.",
"G._ X.X.&.=.X.X.....X.X.} { { V B B N v s s l l l l s p v V B M N V V V } } X.X.X.X.X.;.X.X.u.u.` E.",
"G.O.u.X.X.u.X.X.X.X.} u.} V V u.M V V V V s s l v l p v } V V V V V X...V u.X.} X.X.} X.X.V X.u.' (.",
"H.@.u.u.u.u.u.u.u.u.u.u.u.u.V u.u.u.u.B u.V M s v l B } } } &.&.&.;.&.;.u.u.u.u.u.u.u.u.u.u.u.u.o.^.",
"g.` {  . . . . .V  . . . . . . . .M  .M M M M a a s ] N M _ _ _ _ ] }  . . . . .V  . . . . .M  .M R.",
"(.J.E.R.E.E.E.E.E.E.E.E.J.E.E.E.E.E.E.J.J.J.J.C.g.J.J.J.J.J.R.J.R.E.E.E.R.E.E.E.E.E.E.E.E.E.J.E.J.2X"
};
