/* XPM */
static char *result[] = {
/* columns rows colors chars-per-pixel */
"50 100 233 2 ",
"   c #000000",
".  c #0B0000",
"X  c #150000",
"o  c #1C0000",
"O  c #000014",
"+  c #00001B",
"@  c #230000",
"#  c #2C0000",
"$  c #23000F",
"%  c #380000",
"&  c #341904",
"*  c #000027",
"=  c #0B1026",
"-  c #00003B",
";  c #3A0D2E",
":  c #132C32",
">  c #352925",
",  c #451C04",
"<  c #463918",
"1  c #493628",
"2  c #4D3131",
"3  c #5F4935",
"4  c #654F2A",
"5  c #000048",
"6  c #25154F",
"7  c #2D304D",
"8  c #35364A",
"9  c #282D53",
"0  c #363A57",
"q  c #3E2F6D",
"w  c #580053",
"e  c #473E4D",
"r  c #4C336D",
"t  c #15416B",
"y  c #3D4564",
"u  c #3F4E63",
"i  c #274A72",
"p  c #3E5372",
"a  c #5B494F",
"s  c #6D4C46",
"d  c #675A58",
"f  c #6B6558",
"g  c #424A69",
"h  c #495469",
"j  c #4B546C",
"k  c #585569",
"l  c #514B75",
"z  c #445877",
"x  c #4B5D76",
"c  c #4B5E7A",
"v  c #555E75",
"b  c #695A6D",
"n  c #755270",
"m  c #46627A",
"M  c #4E617D",
"N  c #536177",
"B  c #5B6477",
"V  c #51627C",
"C  c #6C6363",
"Z  c #736967",
"A  c #7B726E",
"S  c #666979",
"D  c #7D7473",
"F  c #747278",
"G  c #883400",
"H  c #A62613",
"J  c #A44800",
"K  c #B0500D",
"L  c #A25B4E",
"P  c #B1594B",
"I  c #866B44",
"U  c #8E7458",
"Y  c #845E6D",
"T  c #8D7B67",
"R  c #847A73",
"E  c #837875",
"W  c #887E76",
"Q  c #89837C",
"!  c #AC9064",
"~  c #AE946E",
"^  c #A18278",
"/  c #AE9570",
"(  c #C6A97B",
")  c #3E5F84",
"_  c #3B49A6",
"`  c #4F6382",
"'  c #4B6689",
"]  c #4E688A",
"[  c #526583",
"{  c #596581",
"}  c #556986",
"|  c #5B6983",
" . c #53678A",
".. c #566A8B",
"X. c #596D8D",
"o. c #5C718E",
"O. c #566D92",
"+. c #5A6E91",
"@. c #5E7293",
"#. c #57719B",
"$. c #5E759A",
"%. c #616D85",
"&. c #68768D",
"*. c #757A8D",
"=. c #617694",
"-. c #687795",
";. c #647996",
":. c #697C97",
">. c #617799",
",. c #647A9C",
"<. c #697D9C",
"1. c #5159A7",
"2. c #5A6AAE",
"3. c #667DA1",
"4. c #697EA1",
"5. c #6B74D7",
"6. c #7177D1",
"7. c #5767E0",
"8. c #6A7BE8",
"9. c #6D7DED",
"0. c #835A83",
"q. c #8C6C8E",
"w. c #966A99",
"e. c #8C6CB6",
"r. c #A67EA8",
"t. c #6C809E",
"y. c #73829A",
"u. c #7A879E",
"i. c #6780A7",
"p. c #6B81A5",
"a. c #6781A8",
"s. c #6C84AA",
"d. c #6F88AF",
"f. c #7185A5",
"g. c #7886A0",
"h. c #7E8CA3",
"j. c #7187AB",
"k. c #7289AE",
"l. c #7D8EAB",
"z. c #6F89B0",
"x. c #758DB2",
"c. c #788FB4",
"v. c #748EB9",
"b. c #7790B6",
"n. c #7991B6",
"m. c #7690B9",
"M. c #7C94BB",
"N. c #7681E9",
"B. c #6D81F4",
"V. c #7386F7",
"C. c #938689",
"Z. c #91858C",
"A. c #97928A",
"S. c #999795",
"D. c #A09B96",
"F. c #B4A289",
"G. c #A8A39E",
"H. c #818FA5",
"J. c #808FA9",
"K. c #8391A7",
"L. c #8492AC",
"P. c #8695B1",
"I. c #8798B5",
"U. c #8999B6",
"Y. c #8397B9",
"T. c #8499BD",
"R. c #8B9DBB",
"E. c #A98BAA",
"W. c #BA92BA",
"Q. c #8FA0BD",
"!. c #90A1BF",
"~. c #A9A3A0",
"^. c #B3ADA7",
"/. c #B6B3A8",
"(. c #BAB6B3",
"). c #BAB8B5",
"_. c #C79683",
"`. c #CBB393",
"'. c #CB98B4",
"]. c #D4B9A6",
"[. c #C1BEB9",
"{. c #D2C4BB",
"}. c #E7D2AE",
"|. c #EAD3A9",
" X c #F2DBB2",
".X c #F2DFBC",
"XX c #839BC2",
"oX c #8A9EC1",
"OX c #9187DA",
"+X c #A081D8",
"@X c #8EA1C3",
"#X c #89A2C9",
"$X c #91A3C3",
"%X c #9BAAC6",
"&X c #B6BBC5",
"*X c #B9BFC9",
"=X c #8B8FE7",
"-X c #B1A5E1",
";X c #C297C8",
":X c #CB99D3",
">X c #CEADD0",
",X c #DCADD8",
"<X c #DBB1E1",
"1X c #E5B9E9",
"2X c #BFC3CB",
"3X c #C9C8C4",
"4X c #D1C8CA",
"5X c #D5D3CC",
"6X c #D8C4D8",
"7X c #DCDBD5",
"8X c #DCDBD6",
"9X c #E5D0CE",
"0X c #E4DBD8",
"qX c #F2E6CC",
"wX c #E5E4DD",
"eX c #EDE4DC",
"rX c #F6EBD5",
"tX c #CACEEA",
"yX c #E2CDE3",
"uX c #F2C6F8",
"iX c #F4C9FD",
"pX c #E7E7E0",
"aX c #ECEAE4",
"sX c #EFEFE8",
"dX c #F1EBE6",
"fX c #F1EFEB",
"gX c #F6F6EF",
"hX c #F8F5E9",
"jX c #F6F6F0",
"kX c #F8F7F1",
"lX c #F7F9F2",
"zX c #FAFAF3",
"xX c #FFFFFA",
/* pixels */
"%XT.oXT.T.oXoXoXoXoXoXoXoXXXXXoXoXoXoXoXoXoXXXn.n.T.R.T.XXT.T.Y.XX$XoXoXoXoXoXoXQ.@X@X@XT.Q.@XT.T.%X",
"$Xv.M.M.M.m.M.M.m.M.M.M.M.M.M.M.M.M.M.m.M.m.m.3.#.s.M.M.m.M.Y.M.M.m.M.m.m.M.m.m.M.M.m.m.m.m.M.M.m.@X",
"$Xv.M.M.M.M.M.M.M.M.M.Y.M.M.M.M.M.M.M.M.M.m.a.$.3.$.s.M.M.Y.M.M.Y.M.Y.M.M.M.XXM.M.M.M.M.M.M.M.M.M.$X",
"$Xm.Y.M.M.M.M.M.M.M.M.M.M.M.M.M.M.M.M.m.c.4.$.M.x.3.3.s.v.x.M.c.v.M.M.M.c.c.XXM.M.M.M.M.M.M.M.XXm.@X",
"R.s.x.x.x.x.x.x.x.j.x.M.M.n.c.c.x.x.c.x.s.$.c.M.z.3.3.3.3.z.c.x.z.c.c.c.d.x.c.c.x.k.x.c.x.x.x.x.d.U.",
"T.s.d.s.d.j.x.z.s.s.d.x.x.x.c.x.x.x.d.3.$.x.M.d.3.z.4.3.3.a.z.x.k.x.c.k.d.k.x.k.x.d.s.d.x.x.s.f.a.I.",
"!.x.M.x.x.x.c.c.x.z.x.k.x.x.c.c.c.x.3.$.x.XX4.a.s.s.s.a.3.#.d.m.m.m.c.x.z.c.c.m.b.c.k.n.n.n.x.c.x.@X",
"!.x.c.c.c.c.c.c.n.c.v.c.c.c.c.M.m.4.#.x.M.4.s.s.s.3.4.s.3.3.#.s.c.Y.m.m.n.c.M.c.b.n.n.n.n.n.n.n.m.Q.",
"Q.x.n.c.n.n.c.n.c.n.c.v.n.c.M.c.3.O.c.M.s.4.s.a.z.4.d.4.s.a.3.#.4.n.v.c.c.n.n.c.c.b.n.n.n.n.n.n.z.Q.",
"Q.x.c.c.x.n.x.c.c.c.c.c.c.c.x.3.#.x.n.d.4.s.3.4.3.4.3.3.3.3.4.3.3.4.v.c.c.v.v.c.c.c.x.c.c.c.x.c.z.R.",
"Q.d.c.x.x.n.x.c.c.c.c.x.c.x.3.#.z.n.z.3.s.s.s.s.4.z.4.d.d.3.s.4.3.$.s.x.c.c.c.x.c.c.x.c.c.x.x.n.z.Q.",
"Q.d.c.x.x.x.x.c.x.x.x.c.x.3.#.s.M.s.s.s.a.s.4.s.z.2.3.d.4.d.s.a.3.>.$.s.x.x.c.x.x.x.x.x.x.x.x.x.z.Q.",
"Q.d.x.x.c.x.k.c.x.x.x.c.3.#.s.T.a.4.s.s.s.a.s.s.s.s.s.s.s.4.s.4.4.4.$.$.z.v.x.x.x.x.c.k.c.x.x.c.d.R.",
"Q.s.l.k.k.x.x.k.x.x.x.3.O.s.M.4.4.s.s.3.p.s.p.4.s.a.i.s.s.s.4.s.4.s.4.$.$.4.x.x.x.k.x.k.c.k.k.x.d.R.",
"Q.d.x.x.k.x.x.k.k.k.3.+.d.c.s.p.s.3.s.4.4.s.4.s.a.4.3.p.4.3.3.3.3.3.3.$.$.+.4.x.k.k.k.k.k.k.k.k.d.U.",
"P.i.j.s.s.j.s.k.s.3.+.s.k.s.,.3.4.4.3.4.3.3.3.3.3.,.,.3.$.3.3.3.3.3.#.3.3.#.$.4.j.j.k.d.j.p.j.j.i.P.",
"L.i.f.p.p.p.d.p.3.O.4.m.4.3.3.$.3.3.#.3.3.3.$.3.3.3.3.3.3.$.3.3.3.$.3.3.3.$.+.$.3.f.s.4.s.4.s.4.3.l.",
"P.i.k.s.p.d.d.t.+.3.M.4.4.4.3.3.$.3.3.3.3.3.3.$.3.3.3.$.3.3.4.3.$.3.3.4.,.,.>.#.$.s.s.s.j.k.k.f.i.Y.",
"Q.i.d.k.d.d.$.O.3.m.4.3.4.4.4.4.3.4.4.4.4.3.3.3.4.4.4.3.3.3.3.3.4.4.3.a.4.4.4.3.+.+.s.j.j.z.z.k.d.I.",
"I.i.d.j.d.t.O.p.c.4.4.4.4.3.3.4.3.3.3.4.3.3.4.3.4.4.4.3.4.4.4.4.4.4.4.3.4.4.3.3.,.#.$.4.j.j.j.j.i.I.",
"U.i.d.d.;...p.k.4.3.4.3.3.3.3.4.,.3.3.3.4.3.3.4.3.3.3.3.3.3.3.3.3.3.3.3.3.3.,.4.4.>.+.#.3.k.j.j.i.I.",
"U.p.d.,.O.i.k.s.3.3.3.3.,.3.3.3.3.3.3.3.3.3.3.3.3.3.3.,.,.3.3.3.3.3.3.3.3.3.3.3.3.4.,.@.$.3.j.j.i.I.",
"U.i.,.O.,.k.p.,.4.3.3.3.4.3.4.3.3.3.3.3.3.3.3.3.3.3.3.3.3.3.3.3.3.3.3.3.3.3.3.3.3.3.3.>.+.O.4.k.a.P.",
"I.$.@.$.b.i.,.,.>.,.>.3.3.>.,.4.,.3.3.>.3.3.3.3.,.3.,.,.3.3.,.3.,.,.,.3.3.>.3.3.>.3.>.3.,.#.+.4.p.l.",
"g.' $.x.>.$.>.>.$.$.,.>.$.>.3.>.$.=.>.$.+.>.>.=.>.+.>.>.3.>.>.>.$.$.$.>.>.>.3.,.$.$.$.@.>.,.+.+.] g.",
"u.' >.j.$.$.$.@.$.@.@.$.+.$.$.$.+.,.3.>.=.>.#.+.>.3.>.$.=.$.$.$.$.$.$.$.$.+.$.$.$.$.,.$.@.$.+.+.' u.",
"P.O.+.$.>.>.$.$.>.>.>.>.>.>.>.$.$.3.,.>.>.3.>.>.>.>.3.=.>.>.>.>.$.>.>.>.>.>.=.>.>.3.>.3.$...O.4.3.f.",
"R.>.$...$.,.,.,.3.>.>.3.>.3.>.3.,.,.>.3.3.>.3.,.3.3.>.3.>.3.>.,.,.,.,.>.,.,.>.,.>.,.3.,.+.O.<.l.s.L.",
"P.3.4.=.O.+.,.3.>.,.>.,.,.,.>.,.>.,.3.>.>.,.,.,.>.>.3.>.,.>.,.,.,.,.,.,.,.,.,.,.,.,.>.+.+.,.c.p.3.P.",
"P.3.f.p.+...+.3.>.,.>.,.,.>.>.>.=.>.,.>.>.>.>.>.>.>.>.>.>.,.>.>.=.,.=.,.>.>.,.>.>.,.O. .3.l.t.f.3.P.",
"P.3.4.4.4.+.O.+.,.>.>.>.>.>.-.-.>.>.>.>.>.>.>.>.>.>.>.>.>.>.>.>.>.$.>.>.=.>.>.>.,.+. .4.x.4.p.p.3.P.",
"P.3.p.p.4.4.+...+.>.>.>.$.>.$.$.=.>.=.=.>.>.>.=.=.>.=.=.=.=.>.>.=.=.>.=.>.=.>.$.+. .4.j.f.p.p.p.3.L.",
"P.3.4.4.4.4.4.@. .+.>.>.>.=.>.=.=.>.=.=.>.>.-.$.>.=.>.>.>.=.>.=.>.=.=.>.=.=.$... .<.j.f.4.4.f.4.4.L.",
"P.4.h.4.j.4.4.<.+. .+.=.$.=.$.=.+.>.+.-.@.@.@.>.+.=.=.@.$.=.=.>.=.$.=.$.$.=... .>.j.4.4.4.f.4.4.3.P.",
"P.>.4.<.4.4.4.4.<. . .+.@.+.+.+.O.+.@.+.+.+.@.@.+.@.@.X.+.+.=.+.$.=.$.+.@.X. .>.k.4.4.4.4.4.4.4.>.J.",
"J.+.$.$.-.4.,.,.<.>... .....X.@.+.@.+.X.+.+.X.+.+.+.+.+...+.@.@.X.X.X.X.X. .>.j.,.,.:.>.-.,.-.>.O.H.",
"L.$.4.4.4.-.,.,.4.4.<...} ..$.$.@.@.$.@.@.+.+.+...+.@.@.@.X.X.X.+.$.$. .` ,.j.-.>.3.4.,.>.>.>.<.3.l.",
"P.>.4.4.4.4.3.4.4.4.4.,...` ..$.@.@.$.@.@.+.@.@.+.@.$.@.@.@.+.+.+.@...` ,.4.4.4.<.<.4.4.,.3.<.t.3.J.",
"L.,.4.4.<.y.4.4.4.4.4.4.,...` O.@.@.@.@.%.$.@.@.@.@.@.@.@.$.@.@.+...` =.f.4.4.4.p.<.<.p.4.p.t.i.,.L.",
"L.-.<.<.4.4.:.:.4.4.<.<.t.;...[ %.@.@.@.=.@.@.+.&.@.@.@.o.@.@.@...{ =.g.4.<.<.<.t.<.<.<.<.<.t.:.=.J.",
"L.>.4.<.<.<.<.<.,.t.t.t.<.t.,.[ ` +.@.@.o.o.@.@.o.@.@.@.@.o.@.} { +.f.<.<.<.<.<.<.t.,.t.;.t.t.t.>.L.",
"J.=.<.<.<.<.<.<.t.;.,.:.t.,.t.;.{ ` ..@.@.o.@.X.@.o.o.o.@.o...` +.f.<.<.:.t.,.t.,.t.<.,.t.t.,.t.>.J.",
"L.=.<.:.:.<.<.<.t.t.;.t.,.:.t.,.>.[ ` ..o.o.X.o.o.o.o.o.o.} m o.t.<.<.<.t.,.:.:.:.,.,.:.;.;.;.t.=.J.",
"K.=.<.>.<.:.>.=.;.;.;.t.,.;.,.:.-.=.[ ` | X.o.o.X.X.o.o.} M @.t.<.,.:.,.;.:.,.;.,.t.,.:.t.;.t.;.>.J.",
"h.o.=.=.>.=.=.o.o.&.;.;.=.=.;.;.=.t.o.M [ ....} } } o.} M o.<.<.;.;.;.=.=.=.;.t.;.;.;.t.;.;.;.t.X.h.",
"u.} o.X.=.=.o.o.o.o.o.@.o.o.o.o.o.o.=.o.` M } } } } M M ..t.<.o.o.=.@.o.o.=.;.;.o.@.o.o.o.o.;.;...u.",
"K.@.;.=.;.;.;.;.=.o.o.;.;.;.;.;.o.o.@.t.@.M M } ..} M } f.:.;.;.=.&.=.@.;.;.;.@.;.@.o.o.o...o.o.@.h.",
"h.@.:.;.;.;.;.;.;.;.;.=.;.t.t.t.t.t.:.;.:.@.M M ` M } t.:.;.<.4.<.<.t.:.;.;.;.:.;.;.;.t.t.;.;.;.@.h.",
"K.o.;.;.=.=.=.&.;.&.;.:.:.y 0 0 0 8 | <.&.=.X.c c | ,.:.=.<.j 8 0 0 8 V t.<.;.=.&.;.=.;.=.&.;.;.o.h.",
"K.@.:.:.,.4.<.<.:.t.o.| | D R R E R S X.<.,.<.X...>.<.>.,.| D R R D R F | B ;.t.:.<.<.<.:.<.,.,.$.h.",
"$Xm.M.M.M.XXM.M.M.XXS # 2 aXlXkXkXxXA.9 XXm.M.s.3.x.XXM.k.  5XxXzXzXxX).  , k.XXM.M.XXM.M.M.M.Y.m.$X",
"$Xm.M.M.M.M.M.M.XX* ^.fXwXgXgXhXhXxXzX3X7 Y.M.p.3.z.XX:.C sXxXzXgXgXjXsXwXaXd ` #XM.M.M.M.M.M.M.m.$X",
"$Xm.M.M.M.M.M.x.g ^.wXzXlXgXlXxXlXG.G.Q   u 0 7 9 9 y 6 # G.S.3XxXzXgXgXlXlX5XZ.z XXM.M.M.M.M.M.m.@X",
"$Xb.M.M.n.M.x.*.W gXzXgXgXlXwX5X5XE Z A Z.E W Q Q q.W Q Q A C D.8X5XsXkXgXgXxX3XZ 4.c.M.M.M.M.Y.b.$X",
"U.i.d.d.k.M.y R xXgXgXgXgXxXS.  2 sXxXzXlXlXlXxXzXlXzXzXlXzXxX{.    5XzXsXgXfXxXwXo <.x.x.k.k.k.s.I.",
"Q.d.k.s.f.c.u E jXgXxX7X< # ).hXwXgXgXgXgXgXgXgXhXgXgXgXgXgXgXsXpXsXW X Q xXjXlX0X# ,.x.x.x.j.j.d.U.",
"Q.x.n.c.k.c.y R jXxX5XC.w.(.wXxXlXgXgXgXgXgXgXgXgXgXgXlXkXgXgXkXzXzX5XE.w.A.pXxX7X# 4.v.M.c.x.c.x.@X",
"@Xx.n.n.c.n.y Q lX0Xq.0.6XxXzXhXhXlXgXgXlXgXkXgXkXgXgXgXgXgXgXgXgXgXxXdX>XQ [.aXwX@ <.c.c.n.n.n.v.Q.",
"Q.x.l.n.k.x.y R gX< w.yXgXgXgXgXgXgXgXlXgXkXgXgXgXgXgXgXgXgXlXgXgXgXgXgXlXxXd G.eXX -.c.x.n.n.n.z.Q.",
"Q.z.c.x.x.k.k % d   ).zXgXgXgXgXgXgXgXgXgXgXgXgXgXgXgXkXgXgXgXgXgXgXgXgXgXjXA o a % -.4.k.c.c.n.d.Q.",
"Q.d.n.x.n.k.t.j   ! 0XlXgXgXgXgXgXgXgXgXgXgXhXlXlXgXgXkXgXgXkXgXgXlXgXgXgXjX].I = %.4.l.c.c.x.c.d.Q.",
"Q.d.n.k.%.| V S T .XrXlXgXgXgXgXgXgXkXgXgXgXgXgXgXgXgXgXgXgXgXgXgXgXgXgXgXgXrXF.  %.%.%.;.n.k.c.z.Q.",
"Q.d.x.;.; ; $ U  XhXlXgXgXgXgXgXgXkXgXgXlXgXgXgXgXgXgXgXkXgXgXgXgXgXgXgXgXgXxX).# 2 ; ; g g.k.c.d.R.",
"Q.d.B r N.8.+X>XgXhXgXgXgXgXgXgXgXgXlXgXgXgXgXgXkXgXlXgXgXgXgXgXkXgXgXgXgXgXlXqX].'.N.9.6.& p.x.d.U.",
"U.x.b r B.B.+X>XlXjXjXgXgXgXgXgXgXlXgXgXgXgXgXgXgXgXgXgXgXgXgXjXgXgXgXgXgXgXjXhX0X;X=X9.5.% p.c.s.R.",
"P.] 8 q N.9.-X0XjXgXgXjXgXgXgXgXgXgXgXgXgXgXgXjXzXgXgXgXgXgXkXgXgXkXgXkXgXgXjXkXfX<X=X9.5.@ j >.3.P.",
"L.a 4 v N.7.tXzXgXgXgXgXgXgXgXgXgXgXgXgXgXgXgXhXaXgXgXgXgXkXgXgXkXkXgXgXkXgXgXgXlXzX=X8.6.4 3 %.3.P.",
"a 5XqX( *   {.zXgXgXgXgXgXgXgXlXgXgXkXgXgXgXxX3X& gXgXgXgXgXgXgXfXjXjXgXgXgXkXgXjXjXD   s |.hX~.  oX",
"5XdXkXrX`., (.xXgXgXgXgXgXgXgXkXgXlXgXgXgXxX/.Z.:XA wXxXgXgXgXgXkXgXgXkXgXgXgXgXgXzXC U }.hXgXpX(.S ",
"zXxX7X[.`.% ).xXgXgXgXgXgXgXgXgXgXgXgXkXhX3Xq.E.uXn G.8XzXgXgXgXgXgXjXgXgXkXgXgXgXlXC I `.{.sXxX7X2 ",
"dXgXD.  6 - (.gXhXgXkXgXkXgXgXgXgXgXgXlXsXX r.1X1X<Xw A.xXhXgXgXkXgXgXgXkXgXgXgXgXhXD 5 -   5XlX5Xa ",
"jXD o l 9.B.2.S.zXgXgXgXgXgXgXgXkXgXgXkXgX& ;XiX1XiXn A.zXgXgXgXgXgXkXgXkXgXgXgXdX|.OX9.6.1   3X0X1 ",
"A.v > r V.V._ C.xXkXhXkXgXgXgXkXgXgXgXjXgX8X>X:X:X:X4XpXjXjXgXgXgXhXjXjXjXgXhXxXaXI 8.9.5.# y F D &.",
"k p h l 2.e.r 4 {.kXzXkXgXgXgXgXgXjXgXjXgXxX0X6XyX6XfXzXjXjXgXjXgXjXjXjXgXgXkX0X^.  w.w.1.e x y 9 t.",
"y.p ` B # J L n P 9XdXdXgXgXgXgXjXgXjXjXgXgXzXzXzXlXgXgXgXgXgXgXjXgXhXhXgXeXsX].H %.J 4 : B j c x &.",
"&.p V ..c   W.iX1XP H _.xXgXgXhXgXgXfXjXgXgXjXgXjXjXjXjXjXgXgXgXjXlXhXzXeXK J '.iX1Xn 7 V x x c z &.",
"K.[ c c V j b Y Y ,X1X'.f >X9XqXzXxXrX X.X.X.X.X.X.X.X.X.X.XhXxXzX.X6XW.A ,X1XW.n Y j x c x c :.=.y.",
"L.$...c c } g : 8 E.1X1Xr.q.^ F.(.(.F.~ ~ / / / / / ~ ~ ~ ~ ^.(././ q.w.W.iX:Xq.= 8 x ` l ` -.<.,.l.",
"L.3.<...c c V { {   r.1X<Xs . O       + + + + + + + + + + +       * . E.1X,Xa : | { c x { ,.4.4.<.P.",
"L.3.p.:...c c c v { e X o K Y m B N N V N N N N N N N N N N V N N m P G   # j V c c x ` ,.J.4.4.3.L.",
"P.3.f.4.,.{ c c V V x h h b v x c x x x x x x x x N x N x x x N x x b k h h x V V c ` ,.J.4.4.l.t.P.",
"P.4.f.f.4.<...c c V V M M m x c M V V V V M V V M M V M M M M N M M m m V V V M x ` :.p.4.4.4.4.i.L.",
"P.,.4.4.4.4.4.X.c M [ V M V V { V } [ { { [ { { V } | [ } | V } { V V c V M [ M c :.4.4.h.4.4.4.t.l.",
"P.3.f.f.4.4.4.,...` M [ { V [ } } } } ..}  ...X.| ....} } ....} ....| [ V { M ` <.f.4.p.4.4.4.4.i.L.",
"K.$.<.,.,.4.<.4.>. .M }  .} } ..} ........X.X.X...X.X. .} X.o.o.......{ } ` [ :.f.3.4.<.3.4.,.4.$.h.",
"J.+.-.$.>.>.,.,.<.>...` [ ....+...@.+...+...+.X.X...X.....X.@.......X...[  .,.f.-.,.,.>.-.$.$.,.O.h.",
"L.$.4.4.4.<.-.<.4.4.<...` ..o.$.$.=.@.=.=.X.@.+...@.=.@.@.+.O.X.X.=.@. .[ ,.p.>.,.4.4.<.>.-.,.4.,.l.",
"L.,.4.4.4.4.4.4.4.4.4.3.+.[ ..$.@.@.$.@.@.@.@.@.+.=.+.$.@.@.@.@.=.+. .` 4.p.i.3.3.4.4.<.4.<.3.4.3.L.",
"L.,.4.4.4.4.4.<.t.t.t.t.,.O.` ..@.@.@.@.@.@.@.@.@.=.=.=.@.=.X.=.o.} [ t.p.t.t.<.i.<.3.t.t.t.t.t.,.l.",
"L.,.4.<.:.4.<.:.t.t.,.t.t.:.o.` X.o.@.o.o.@.o.@.@.@.X.=.X.=.=.X.} } ,.f.t.t.t.t.<.t.<.t.t.,.t.;.,.L.",
"L.>.<.<.4.:.4.:.t.;.;.t.<.<.<...M X.o.@.@.o.@.o.=.@.@.X.+.=.X.} } @.f.t.,.t.:.,.:.<.<.3.,.<.t.t.$.K.",
"L.@.<.<.:.:.4.4.;.t.t.;.<.<.<.,.} ` ..o.@.o.o.o.X.X.=.X.@...} [ @.j.;.,.t.,.,.t.<.<.<.,.<.:.;.t.$.K.",
"K.@.t.:.<.<.:.:.t.t.t.t.t.t.;.t.:.} ` } o.o.o.o.o.o.o.o.X.[ ` @.t.t.;.:.t.,.,.:.:.<.,.:.t.;.t.t.$.K.",
"K.$.:.>.<.:.>.;.o.t.o.t.o.o.t.t.:.;...M } o.o.o.} X.o...{ M ;.t.;.t.t.;.;.t.;.:.,.:.:.,.;.t.@.t.@.h.",
"h...o.o.=.=.=.X.o.o.@.;.o.o.;.@.@.t.o.[ M } } } } } ..} M ;.<.;.;.;.;.o.o.@.;.:.=.;.$.:.t.o.t.t.o.u.",
"h...&.| =.=.=.=.o.o.@.;.@.o.;.o.o.o.;.@.} m V } X.} M M @.t.:.@.@.o.;.o.o.;.;.;.o.o.o.@.o.o.o.@.o.u.",
"h.@.t.o.@.t.;.;.o.o.o.;.;.=.=.;.o.;.;.;.=.V M } ..` M o.p.,.;.;.=.=.;.=.=.;.;.o.=.=.o.@.@...o.o.o.h.",
"K.;.t.t.;.t.t.;.t.y.;.t.t.;.y.t.;.;.t.:.t.;...` } V &.f.<.,.:.<.:.:.t.:.;.;.t.t.y.t.;.t.t.t.t.t.;.h.",
"t.) ] ` ) ' ' ' m ' ' ' ' ' m ' ' ' ' ' ' ' ' i t ) O.' ' ' ' ' ' ' ` ' ' ' ' ' m ' ' ' ' ` m ] ) t.",
"2X).&X2X2X&X2X2X2X2X&X&X2X&X&X2X2X&X&X&X&X&X&X).).&X&X2X&X*X&X&X2X&X&X2X2X&X&X&X2X&X2X).2X&X&X2X&X2X"
};
