/* XPM */
static char *result[] = {
/* columns rows colors chars-per-pixel */
"50 100 235 2 ",
"   c #000000",
".  c #050702",
"X  c #170000",
"o  c #1A0000",
"O  c #000015",
"+  c #140E16",
"@  c #270000",
"#  c #2D0000",
"$  c #340000",
"%  c #3A0403",
"&  c #392300",
"*  c #000023",
"=  c #00002B",
"-  c #160B35",
";  c #39192B",
":  c #341B34",
">  c #2B2838",
",  c #352A32",
"<  c #372D32",
"1  c #470000",
"2  c #500E00",
"3  c #681F1C",
"4  c #4B2E0F",
"5  c #480039",
"6  c #49292E",
"7  c #453938",
"8  c #694F30",
"9  c #08144F",
"0  c #363646",
"q  c #252D54",
"w  c #363A57",
"e  c #070066",
"r  c #2D006C",
"t  c #363771",
"y  c #4B1149",
"u  c #4C374A",
"i  c #2A425B",
"p  c #3A466A",
"a  c #2A4B73",
"s  c #544949",
"d  c #4A4857",
"f  c #6C514B",
"g  c #695C5A",
"h  c #7D6449",
"j  c #414E6A",
"k  c #47556E",
"l  c #4A536B",
"z  c #534E74",
"x  c #4A5C78",
"c  c #535976",
"v  c #694463",
"b  c #4D617E",
"n  c #53647D",
"m  c #586479",
"M  c #7A6E65",
"N  c #756C6C",
"B  c #686977",
"V  c #8B0D00",
"C  c #A00000",
"Z  c #983300",
"A  c #A12700",
"S  c #A83700",
"D  c #973822",
"F  c #AF531C",
"G  c #83552F",
"H  c #B76534",
"J  c #89544E",
"K  c #8D6F56",
"L  c #A7625C",
"P  c #8B7471",
"I  c #857C76",
"U  c #B87472",
"Y  c #9B825E",
"T  c #8B827A",
"R  c #9C8D7B",
"E  c #B28C6F",
"W  c #B59B75",
"Q  c #B69D78",
"!  c #BFA57D",
"~  c #C0A478",
"^  c #20349F",
"/  c #4C3F82",
"(  c #3A4CB9",
")  c #514B8E",
"_  c #435E85",
"`  c #4E6383",
"'  c #476189",
"]  c #4C668A",
"[  c #4D688A",
"{  c #526683",
"}  c #596780",
"|  c #556986",
" . c #5B6A84",
".. c #526789",
"X. c #556B8C",
"o. c #5A6E8C",
"O. c #54728F",
"+. c #5D718E",
"@. c #4C6D94",
"#. c #556D92",
"$. c #596E91",
"%. c #5D7294",
"&. c #57729C",
"*. c #5E759A",
"=. c #656A8B",
"-. c #61738E",
";. c #617695",
":. c #647996",
">. c #697B97",
",. c #617699",
"<. c #647A9C",
"1. c #697D9C",
"2. c #5557A7",
"3. c #5E79A1",
"4. c #657DA1",
"5. c #697EA1",
"6. c #647FA8",
"7. c #6364B3",
"8. c #5867CA",
"9. c #656DCC",
"0. c #6A73D7",
"q. c #6F7BE3",
"w. c #717EE8",
"e. c #906E8C",
"r. c #8F699E",
"t. c #A27E9E",
"y. c #8278CD",
"u. c #6B809E",
"i. c #79849C",
"p. c #6680A6",
"a. c #6B82A5",
"s. c #6681A9",
"d. c #6C84AA",
"f. c #6E88AE",
"g. c #7085A5",
"h. c #7E8BA2",
"j. c #7187AA",
"k. c #7289AD",
"l. c #6D89B3",
"z. c #758DB2",
"x. c #788FB3",
"c. c #738FB9",
"v. c #7790B5",
"b. c #7891B6",
"n. c #7591BA",
"m. c #7C95BB",
"M. c #7481E9",
"N. c #7786F7",
"B. c #928B85",
"V. c #918B8C",
"C. c #99928E",
"Z. c #9A9798",
"A. c #A5998C",
"S. c #A29C97",
"D. c #AAA59E",
"F. c #B5A896",
"G. c #828EA5",
"H. c #8592A6",
"J. c #8893A6",
"K. c #8693A9",
"L. c #8996AC",
"P. c #8C99AD",
"I. c #8C9AB3",
"U. c #8398BB",
"Y. c #8E9EB8",
"T. c #909DB5",
"R. c #909FB9",
"E. c #B18AB2",
"W. c #93A2BC",
"Q. c #ABA7A1",
"!. c #ADA9A3",
"~. c #B2AEA6",
"^. c #B8B4AE",
"/. c #A7ADB7",
"(. c #ADB3BF",
"). c #BBBAB5",
"_. c #C59A8B",
"`. c #C4AC87",
"'. c #CCB497",
"]. c #D6BE96",
"[. c #C391B6",
"{. c #CBB7AA",
"}. c #CCB5AD",
"|. c #D7B8AB",
" X c #D6BDB2",
".X c #DAC9AE",
"XX c #C8C4BE",
"oX c #DBC2B7",
"OX c #EDD5AC",
"+X c #E7D6B8",
"@X c #F1DCB8",
"#X c #839CC1",
"$X c #A298DF",
"%X c #87A0C8",
"&X c #95A6C2",
"*X c #98A7C3",
"=X c #9BAAC6",
"-X c #9DADC9",
";X c #A9B6CE",
":X c #B0B7C3",
">X c #C49BC9",
",X c #CC9FD0",
"<X c #CDA4D5",
"1X c #D5ABD4",
"2X c #C3ADE7",
"3X c #DCB2E3",
"4X c #E4BAEA",
"5X c #E6BCEC",
"6X c #EABFF0",
"7X c #BBC1CA",
"8X c #CBC9C4",
"9X c #D6CDC5",
"0X c #D8D6D1",
"qX c #DAD1D6",
"wX c #DCDBD5",
"eX c #E5D1C7",
"rX c #E5DDD5",
"tX c #F3E1C2",
"yX c #F8E8CB",
"uX c #E3E2DC",
"iX c #EDE6DA",
"pX c #F9ECD5",
"aX c #FDF2DD",
"sX c #F5CAFB",
"dX c #EAE9E5",
"fX c #EBEBE5",
"gX c #F0ECE5",
"hX c #F0EFE9",
"jX c #EEF1EE",
"kX c #FBF6E7",
"lX c #F6F6EF",
"zX c #F6F7F1",
"xX c #F7F8F2",
"cX c #FAFBF4",
"vX c #FEFFF9",
/* pixels */
";X*X=X*X=X-X-X=X-X-X-X-X-X=X=X-X-X-X-X-X-X-X=X&XY.=X-X&X=X*X*X*X=X-X=X=X=X=X-X-X-X-X-X-X=X=X=X-X&X;X",
"&Xl.n.n.c.c.c.c.c.c.n.c.c.c.c.c.c.c.c.c.c.c.l.3.@.6.n.c.c.c.c.c.n.c.c.c.c.c.c.c.c.c.c.c.c.c.c.n.l.&X",
"=Xn.m.m.m.m.m.m.m.m.m.m.m.m.m.m.m.m.m.m.m.m.d.4.4.4.l.#XU.m.m.U.#XU.m.U.m.#X#Xm.m.m.m.m.U.m.m.#Xc.-X",
"&Xn.m.m.m.b.m.m.m.m.m.m.m.m.m.m.m.b.m.m.x.4.*.b.6.4.4.d.c.x.c.c.c.m.n.m.x.n.m.m.m.m.m.m.m.m.m.m.c.-X",
"&Xs.z.z.z.z.z.z.z.z.v.b.m.b.b.z.c.z.b.z.6.4.z.m.z.6.4.,.6.z.x.z.k.c.x.c.l.c.z.c.z.z.z.c.z.z.z.z.f.&X",
"Y.6.f.d.j.l.z.k.s.d.f.z.c.z.c.z.k.z.k.6.*.j.#Xf.6.5.6.4.,.j.k.k.k.z.k.z.5.x.z.k.z.f.s.j.z.z.f.j.6.R.",
"&Xl.n.z.k.f.v.z.z.k.z.k.z.k.z.x.k.x.6.*.d.#X6.g.j.j.6.6.4.*.j.m.m.b.b.k.k.x.b.b.b.z.z.z.b.c.z.z.l.&X",
"&Xl.b.v.v.v.b.v.v.v.x.c.z.b.b.b.b.6.$.k.#Xd.a.g.6.6.5.j.6.4.3.6.m.b.b.b.c.b.b.b.b.n.z.x.b.b.x.x.l.=X",
"W.z.b.b.v.v.v.v.b.x.n.b.v.v.b.v.5.&.k.m.d.6.6.6.6.g.s.a.a.6.4.,.5.m.c.x.b.b.b.c.x.x.c.x.x.x.b.m.l.=X",
"W.k.b.b.x.x.x.x.b.z.z.z.z.v.x.s.&.f.m.j.5.6.g.6.5.6.6.6.6.5.6.<.4.6.c.x.x.c.x.x.x.x.x.x.x.x.x.x.l.&X",
"&Xf.v.k.x.x.x.z.z.x.x.z.z.z.4.&.d.b.j.6.j.6.a.6.a.a.6.a.s.a.s.6.*.4.j.x.x.z.x.x.z.x.z.x.x.z.x.x.f.W.",
"W.f.x.z.z.z.z.x.x.x.z.z.z.5.&.5.U.j.6.d.a.d.d.d.d.d.d.a.d.a.d.a.4.*.*.j.c.z.z.x.z.x.z.z.z.z.z.x.j.*X",
"W.f.z.z.x.z.k.x.x.z.z.z.4.&.a.U.s.5.d.a.a.s.f.a.s.d.d.s.s.a.s.s.6.6.*.*.l.z.k.x.z.z.z.z.z.z.x.x.l.&X",
"W.f.z.z.k.x.z.k.z.z.z.5.&.a.m.s.a.s.6.a.a.s.a.a.a.a.a.6.a.s.a.a.5.6.5.*.4.5.x.k.z.z.z.k.k.z.k.z.f.W.",
"W.f.z.k.x.k.z.z.z.k.4.#.d.b.j.5.s.a.a.s.a.s.5.6.6.4.5.a.4.4.4.4.4.4.4.,.*.%.6.x.z.k.k.z.z.z.k.z.f.W.",
"Y.p.j.j.d.j.d.f.j.4.#.a.x.a.4.4.5.4.5.5.5.4.4.4.4.4.4.5.4.4.4.4.4.,.,.4.4.#.*.6.g.j.k.j.g.g.d.j.4.W.",
"I.3.a.a.a.a.d.d.4.$.4.b.5.4.4.,.4.4.,.4.4.,.4.*.4.<.,.*.4.*.4.,.,.4.4.4.4.*.%.&.5.d.g.6.5.5.6.6.3.Y.",
"Y.3.k.d.a.f.k.p.$.*.m.6.5.6.4.,.4.,.<.,.4.4.*.4.4.5.4.4.5.3.4.4.3.,.4.4.3.<.*.$.*.j.g.6.j.z.z.j.3.W.",
"W.s.f.f.k.k.<.#.4.x.6.5.5.6.4.6.4.4.6.4.4.6.4.4.4.5.5.4.4.4.6.4.4.4.5.4.4.6.5.<.#.&.g.k.j.k.k.k.s.W.",
"Y.s.k.j.k.p.X.4.z.5.5.5.5.5.5.5.4.4.4.4.4.4.5.6.4.4.6.4.4.5.5.a.4.5.5.4.5.4.4.4.4.$.,.6.k.j.j.j.4.W.",
"Y.p.k.f.<.#.p.k.5.4.5.4.4.4.4.4.4.4.4.4.4.4.4.4.4.4.4.4.1.4.<.4.4.4.4.4.4.<.4.4.4.,.$.*.5.k.j.k.s.W.",
"Y.p.k.<.#.<.k.d.4.4.4.4.<.4.<.4.4.4.4.4.4.<.1.4.<.4.<.4.4.4.4.4.4.4.4.4.4.4.4.4.4.4.,.#.*.5.k.j.4.W.",
"Y.p.a.#.*.z.a.<.4.4.4.4.4.4.4.4.4.4.4.4.4.4.4.4.4.4.4.4.4.4.4.4.4.4.4.<.4.4.4.4.4.4.4.*.$.&.5.k.6.Y.",
"Y.*.#.%.v.a.<.<.<.<.4.<.4.<.4.4.4.,.<.4.<.<.4.<.4.<.4.<.4.<.<.4.<.4.<.4.<.4.<.4.,.4.,.4.*.$.,.5.4.I.",
"G.] *.z.<.*.,.,.*.*.<.,.*.,.4.,.,.%.,.,.*.%.,.,.,.,.,.,.<.,.<.,.,.,.,.4.*.<.4.<.,.,.*.%.,.,.$.%.@.K.",
"h.' ,.k.*.%.*.*.%.,.,.,.%.%.,.,.%.,.4.,.,.,.$.%.,.,.,.%.*.*.,.*.*.%.%.%.$.*.,.$.%.,.4.%.%.*.$.o._ G.",
"L.#.$.,.<.*.,.%.,.,.,.,.,.,.,.,.,.<.,.,.<.<.*.,.,.,.4.%.,.,.,.*.,.,.,.,.,.,.,.,.,.,.,.,.*.#.#.5.*.K.",
"Y.3.%.X.*.<.<.4.<.<.,.,.,.4.,.<.,.<.<.4.4.,.<.,.5.4.,.4.<.<.<.<.,.<.4.<.,.<.<.<.4.<.4.4.=.#.4.x.4.I.",
"Y.4.5.%.#.*.,.<.7.>.<.<.<.<.,.<.4.,.<.<.<.,.4.4.c $.<.<.<.<.<.<.<.>.<.<.<.<.<.<.4.,.,.$.o.<.z.g.4.Y.",
"U.4.j.5.$.X.$.4.,.,.<.,.,.,.>.,.<.,.,.<.;.<.,.$.6 z ;.:.<.;.;.<.,.,.,.<.,.<.<.,.,.,.$...4.z.5.g.4.I.",
"I.4.5.5.5.$...%.<.,.<.,.,.,.,.;.,.<.1.1.1.a.=.4 ,Xe.w a.<.a.1.<.,.,.,.;.,.,.;.<.,.$...5.k.5.a.g.4.T.",
"I.,.5.g.5.5.$.X.%.,.,.;.;.;.,.<.5.z = = * =     y % . = * O = q <.1.<.;.;.,.,.%.$...1.z.k.5.5.a.4.T.",
"I.4.g.5.5.g.4.$...*.,.<.<.<.;.l a K R Q.D.D.D.!.D.D.!.D.D.!.A.Y l j ` <.,.<.,.$.X.<.j.g.a.a.5.g.<.T.",
"I.4.g.g.a.5.g.<...{ o.o.o.;.} 8 s `.yXcXvXvXvXcXcXvXvXvXvXvXkX.XN 8 g ;.o.+.} { +.g.a.a.g.5.5.g.4.T.",
"I.,.5.5.5.5.1.j.u   o o @   8 OXlXxXlXlXlXlXlXlXlXlXlXlXlXlXlXlXzXtX~   @ X o o X %.g.1.1.5.5.5.,.I.",
"K.#.,.;.,.5.<.  8XrXwXwXwXrXXX8 s 8XvXcXcXlXlXlXlXlXlXzXcXxXvXzXI 4 A.rXwXrXwXwXuXg t 5.;.<.,.<.#.J.",
"L.%.4.4.5.o.B !.dXcXcXcXxXvXfX!.!.!.}. X|.rXcXlXlXlXlXlXoX|. X^.!.D.8XvXcXcXcXcXcX8XV.x <.<.;.u.&.P.",
"I.3.5.4.a.l f cXzXlXzXzXlXlXxXvXvX).1 S F 9XvXlXlXlXxXhXE S V N xXvXcXlXlXlXlXlXlXvX).  1.<.1.a.,.I.",
"P.<.5.1.g.l s lXlXlXlXzXlXlXlXlXlXcXrX+ dXcXlXlXlXlXlXlXvXV.V.vXlXlXlXlXlXlXlXlXlXxX^.  g.1.>.a.,.T.",
"P.<.5.5.q S.gXcXcXzXlXlXzXlXlXlXlXcXrXC iXxXlXlXlXlXlXlXvXE E cXlXlXlXzXlXlXlXlXcXvXxXqX7 ;.u.u.*.I.",
"P.*.1.1.> I ).!.{.rXcXlXlXlXlXlXlXzXgX|.hXxXlXlXkXlXxXlXxXeXeXxXlXlXlXlXzXlXxXlX|.E.^.!.$ +.u.u.*.I.",
"L.*.1.<.u % y y C _.dXlXlXlXlXlXlXzXxXcXxXlXlXlXcXlXlXlXlXcXcXlXlXlXlXlXzXzXhX9XS 3 y 5 % o.u.u.%.P.",
"L.%.1.1.> e.,X>XU V g lXlXzXzXzXlXlXlXlXlXlXxXlXlXlXlXlXlXlXlXlXlXlXlXlXzXcX).X H [.,XE.$  .>.1.%.P.",
"L.$.:.:.+ t.6X5X>XE.E.g rXcXlXlXzXlXlXlXxXlXlXlXlXlXlXlXlXlXlXlXlXlXlXlXzXZ.e.[.E.3X6X1X$ } :.>.%.P.",
"L.X.-.o.. Z.6X6X4X4X,X  rXcXlXlXlXlXlXlXlXlXlXlXlXlXlXlXlXlXlXlXlXzXlXlXcXM e.4X3X6XsX4X$ n :.>.X.L.",
"H.` o.=.  t.sX6X6XsX4Xv rXcXlXlXlXlXlXxXlXlXlXxXlXlXlXcXlXlXcXlXlXlXlXlXvXC.t.sX6X6X5X>X< n -.:.[ H.",
"H.O.-.-.O t.6X6X6X6X4X>XdXcXlXxXxXlXlXlXlXxXlXlXlXlXlXlXlXlXlXlXlXlXlXlXxX1X1X6X6X6XE.  } { | o.X.L.",
"H.%.;.o.} d P sXsX1XU hXzXzXlXlXlXlXlXlXlXlXlXlXlXlXcXlXlXlXlXlXlXxXlXlXlXzX9XU sXt.u m }  .+.:.%.L.",
"J.o.-. . .b d Z.t.L H zXzXlXlXlXlXlXlXxXlXlXlXlXlXlXxXlXlXlXcXlXlXlXxXlXlXvXoXC E.7 0 } m -.-.>.o.L.",
"L.%.:.-.c l d .   J |.lXzXzXzXlXlXxXlXlXlXlXxXlXlXlXlXlXlXlXlXlXlXlXlXlXlXcXeXE   # u l c  .-.>.O.P.",
"*Xz.v.k.d $ 6 u   ^.vXjXlXlXlXlXlXlXlXlXlXlXlXlXlXlXlXlXlXlXlXcXlXxXlXlXxXlXcXdX6 ; , ; $ u.m.b.x.*X",
"B p %Xm.u ) q.M.e !.vXlXlXzXlXlXlXlXlXxXlXxXlXlXlXlXxXlXlXlXlXlXlXlXlXlXlXlXcXuX% 9.M.9.% j.%Xx.  W.",
"8XS.9 p # 2.N.N.e !.vXlXlXlXlXlXlXlXlXlXlXlXlXxXlXlXlXlXlXxXlXlXlXlXlXlXlXlXxXuX% 9.N.q.& w q B XXZ.",
"hXuXP C.4 t 9.N.e F.vXlXxXxXxXxXzXlXlXlXlXlXlXlXlXxXlXlXlXlXlXlXlXxXxXxXzXzXxXdX# 0.w.2.@ I e.!.cXC.",
"0XzXcXvXS.# u M.r ~.cXhXlXlXgXlXlXlXlXlXxXlXlXlXlXlXlXlXlXlXxXlXlXhXgXhXhXhXzXuX4 0.7.2 7 dXvXzXdXC.",
"g D.vXjXzXiX].& t.qXkXOXM o ; ; dXcXlXlXlXlXlXlXlXlXlXxXlXlXlXlXvXZ.  6 0 S |.jX>Xu Y tXfXhXcXdX$ J.",
"i.B D.zXaX].K 8.>X2X$XY W .X).! B.9XcXlXzXlXxXlXlXxXlXlXlXxXxXhXS.Q '.8X`.8 L '.<X0.=.E tXcX0XI _ L.",
"P.' u 8X'.P ^ N.t.y.(   .XkXcXtX% ^.vXlXzXlXlXlXlXlXlXlXlXlXxXhX  '.aXcXyXT 1 D r.$X8.) ! .XC.9 a.I.",
"h.u.:.. . 2.N.w.t @ 4 % wXcXlXlXg ^.cXlXlXlXlXlXlXlXxXlXlXlXxXgX6 8XcXhXxXR   < . 9.N.M..   l g.;.P.",
"K.*.:.%.4 ) N.N./ # -   ].pXkXOX4 ^.vXzXlXlXzXlXlXlXlXlXlXlXxXhX> `.pXxXOXJ   , $ 0.N.0.% m :.>.,.I.",
"P.*.u.+.m z / ) x f L wXR P R M V }.cXhXlXlXzXlXlXlXlXlXlXlXxXgXS G T B.K 8X{.V m z ) z m =.:.1.<.I.",
"I.p.u.:.>.m 7 7 | N E eXg   $ 3 _.eXcXzXzXlXlXlXxXlXlXlXlXlXlXhX|.K 1 . . {.{.J :.d < d +.:.>.g.4.R.",
"Y.p.u.u.;.-.;.;.-.$.B A 4 > 3 F iXxXlXlXlXlXlXlXlXlXxXlXlXxXlXlXcX`.V < < Z J @.=.+.;.:.-.>.u.a.a.W.",
"R.s.g.u.>.:.-.-.;.+.+.m b d % % ].pXcXxXzXxXzXzXzXzXxXxXxXxXcXcX@XK . ; k  .-.%.-.-.-.;.:.a.a.j.d.W.",
"W.s.j.g.u.u.:.:.;.;.c x o. .l k h T T T +XtXtXtX@XtXtX@XyXF.I I K g p l b k | ;.:.>.<.1.a.a.a.k.d.W.",
"I.p.d.a.u.u.u.<.>.o.` :.-.{ ` n w - - - E Q Q Q W Q W W Q g = : 9 k n b n b n O.:.<.1.<.<.u.p.g.*.W.",
"I.3.d.s.p.a.a.<.$...1.5.o.{ { b n n n n =   O O O O O O . p | n } n x { | { | | ;.a.1.5.p.a.a.a.3.Y.",
"I.s.k.d.a.j.j.*.$.4.k.<.%.+. .{ { n b b m n m n n n n n n n b n x | o.o.o.O.%.#.$.5.d.a.j.k.k.j.p.W.",
"R.s.k.f.k.k.:.#.4.x.4.<.<.;.%.o.o.| | { { n { n n n n { { | | | o.o.-.;.,.<.4.,.%.#.p.f.k.j.f.k.s.W.",
"R.p.k.j.k.*.O.a.z.1.5.1.<.,.,.;.%.O.+.o.| | { { { { { |  .|  .+.$.%.,.,.<.<.4.4.4.%.$.p.f.j.j.k.p.W.",
"Y.p.k.j.*.X.d.z.4.4.4.4.4.<.<.,.:.<.%.%.O.o.X. . .X.X. .o.%.*.;.;.,.<.<.4.4.4.4.4.<.$.$.u.f.j.k.p.Y.",
"Y.s.j.*.#.a.k.p.4.4.<.4.4.4.4.4.<.<.:.*.;.;.;.%.%.%.+.%.*.;.*.<.4.<.1.4.4.4.4.4.4.4.4.$.$.4.f.j.p.W.",
"Y.3.<.O.5.U.5.<.4.4.4.4.4.4.4.4.4.4.4.<.,.,.,.,.<.<.,.<.<.<.<.4.4.4.4.4.4.<.4.4.4.4.5.3.$.$.5.k.p.Y.",
"I.&.%.*.6.5.,.<.,.<.<.<.,.4.4.<.<.<.<.,.<.4.,.,.<.<.<.<.<.<.4.<.<.<.<.4.4.<.,.4.,.,.<.,.,.$.$.5.3.L.",
"G.' <.z.*.%.,.*.,.*.<.*.*.,.,.4.%.,.,.*.*.,.%.,.*.*.%.;.<.,.,.,.*.%.,.,.%.,.4.4.*.*.*.%.<.<.#.$.' H.",
"G.' ,.d.*.%.*.%.%.%.,.*.*.%.%.,.*.,.4.,.,.,.,.$.*.<.,.*.*.*.%.*.%.*.%.*.%.%.%.%.*.,.4.*.%.%.#.=.' H.",
"I.&.$.%.4.,.*.<.,.,.<.,.<.,.,.,.,.<.<.<.<.<.,.<.<.<.<.,.,.,.<.,.,.<.,.,.<.,.,.,.,.<.<.<.<.#.#.z.4.K.",
"I.4.<...%.,.<.<.<.<.<.<.4.<.,.<.<.<.<.4.<.,.<.<.<.<.<.<.<.,.<.4.,.<.<.<.<.<.<.<.<.<.<.,.%.=.5.z.4.Y.",
"I.4.6.,.$.$.<.<.7.,.<.<.,.<.<.>.,.<.,.<.<.<.<.<.<.,.<.<.<.<.<.<.<.<.<.<.<.<.<.<.,.<.,.#.,.5.U.6.3.R.",
"I.4.g.6.$.X.$.<.>.,.,.,.,.,.,.,.<.<.,.<.,.,.:.,.<.,.,.,.;.<.,.,.,.<.;.;.<.,.,.<.,.;.2.=.5.6.5.G.4.I.",
"I.5.5.5.5.%...$.,.,.,.,.,.,.;.,.;.,.,.;.,.,.;.,.,.,.*.<.;.,.*.;.;.,.,.;.<.;.;.,.,.$.X.a.U.5.5.5.p.T.",
"I.5.k.k.5.5.%.X.$.,.,.;.*.;.,.,.,.;.;.,.,.;.,.;.;.;.;.,.;.,.<.;.*.;.;.*.;.*.,.%.X.X.g.j.6.5.5.5.u.I.",
"I.4.5.5.5.5.5.,...$.;.*.;.;.,.;.;.<.;.,.,.;.,.;.,.;.,.;.,.;.*.;.,.,.,.;.;.,.%.X.o.6.j.a.5.G.5.5.*.P.",
"I.4.j.5.k.5.5.5.$...o.*.,.%.%.;.$.$.,.$.%.%.;.,.%.*.;.%.%.;.%.*.;.,.;.%.*.%.X.X.5.g.a.5.5.5.5.5.p.Y.",
"L.*.5.<.1.5.1.5.4.....$.$.$.$.$.$.o.$.$.$.$.$.%.$.$.$.#.O.%.%.%.%.%.$.$.*.X.X.:.j.1.5.<.5.5.1.5.O.P.",
"G.#.,.%.,.,.<.<.1.<.o.....$.$.;.$.$.$.o.$.$.$.o.$.o.$.$.$.o.%.$.o.$.$.$.X.X.<.j.<.<.<.,.;.,.,.>.@.L.",
"I.,.5.1.5.<.<.4.5.5.4.o.{ ..%.%.;.%.%.,.%.o.%.$.o.$.%.%.%.o.o.o.$.%.%...{ 4.a.;.<.1.5.<.,.,.<.5.*.P.",
"I.,.5.5.5.5.1.5.5.5.5.<.#.` o.;.%.%.;.$.;.$.%.%.$.%.%.%.%.%.%.$.%.%...` 1.a.p.<.5.5.5.5.5.1.5.5.*.I.",
"I.,.5.5.5.1.5.5.p.u.u.p.;.O.{ X.;.%.$.;.+.%.%.;.;.%.%.;.%.;.%.;.O.| { u.u.u.u.u.u.p.u.u.u.u.u.u.*.T.",
"I.%.5.1.1.1.1.1.<.u.>.u.1.1.O.` X.o.;.%.%.%.+.+.+.%.+.;.+.o.%.o.| | :.d.u.u.u.u.u.u.*.u.<.u.:.u.*.T.",
"L.*.5.1.1.1.1.1.>.u.>.u.1.1.>.o.n X.o.-.+.%.%.%.$.+.%.$.%.%.o.| n %.u.u.u.u.<.u.:.u.u.u.u.<.u.u.*.P.",
"L.%.5.<.1.1.1.1.u.<.u.:.1.1.<.<.{ { X.%.+.+.+.+.-.%.$.-.+.o...{ O.u.u.u.:.u.u.*.<.<.*.u.u.:.:.u.O.I.",
"L.%.u.u.<.<.>.>.u.:.u.u.:.u.u.:.<.{ b o.+.O.o.+.+.O.+.+.o.{ b *.u.u.u.u.u.u.u.%.u.:.:.u.:.u.:.u.%.P.",
"L.%.:.;.1.>.<.;.:.:.:.:.:.:.:.u.<.:.| b X.O.+.o. .| +.o.| b :.1.u.u.+.u.+.%.u.u.:.u.u.:.u.:.:.u.%.P.",
"H.X.:.+.;.;.+.+.+.+.:.;.O.+.;.;.;.:.+.{ b | | | | o.+.{ b ;.1.:.u.+.u.+.+.u.u.:.%.:.%.*.:.:.:.u.O.H.",
"H.[ +.+.;.;.-.%.+.+.+.;.;.+.+.;.;.+.;.%.| b ` { o.| b b %.u.:.-.+.+.+.+.+.+.+.u.+.+.+.:.:.+.%.:.[ J.",
"H.+.u.%.O.u.u.u. .+.+.u.u.+.u.+.+.u.+.u.m b b n O.| b O.u.:.:.:.%.-.:.:.+.:.:.+.+.+.+.+.+. .+.+.@.K.",
"L.%.u.u.u.u.+.u.u.u.u.u.+.u.u.u.u.u.u.u.u.u.O.n n n +.g.u.u.u.:.u.u.u.:.u.u.u.u.u.u.u.u.u.u.u.u.u.P.",
"g.x n [ [ [ [ [ b [ [ [ [ [ b b [ [ [ [ b [ _ a i ' O.X.[ [ [ [ [ [ b [ O.[ [ [ n [ [ [ [ [ n | x h.",
"7X(.(.(.:X(.(.:X(.(.(.(.:X(.(.(.(.(.(.(.(.(.(./.W.(.:X(.(.(.:X(.(.(.(.(.(.(.(.(.(.(.(.(.(.(.(.(.(.7X"
};
