/* XPM */
static char *result[] = {
/* columns rows colors chars-per-pixel */
"50 100 211 2 ",
"   c #000000",
".  c #040007",
"X  c #140000",
"o  c #1D0000",
"O  c #020016",
"+  c #150016",
"@  c #270003",
"#  c #390902",
"$  c #3C1700",
"%  c #36001C",
"&  c #3C1614",
"*  c #252000",
"=  c #3D261C",
"-  c #030028",
";  c #000036",
":  c #1A0D31",
">  c #2F1030",
",  c #281638",
"<  c #1E3139",
"1  c #333130",
"2  c #5C0000",
"3  c #421E07",
"4  c #660600",
"5  c #442A14",
"6  c #43261B",
"7  c #472C28",
"8  c #512F36",
"9  c #473939",
"0  c #4E423A",
"q  c #000049",
"w  c #130D49",
"e  c #331E57",
"r  c #1C2347",
"t  c #27274B",
"y  c #302B4A",
"u  c #353749",
"i  c #373856",
"p  c #363D5B",
"a  c #383876",
"s  c #483450",
"d  c #613B53",
"f  c #442F63",
"g  c #254356",
"h  c #3A4554",
"j  c #3A4560",
"k  c #4D434B",
"l  c #494758",
"z  c #534752",
"x  c #6B4C5A",
"c  c #7E6546",
"v  c #7F664A",
"b  c #7A6755",
"n  c #4C4F67",
"m  c #49546B",
"M  c #4A5A77",
"N  c #545C73",
"B  c #5C5870",
"V  c #6C4865",
"C  c #635866",
"Z  c #735566",
"A  c #7B5A75",
"S  c #4D617E",
"D  c #54647B",
"F  c #57657A",
"G  c #756C69",
"H  c #6F6E78",
"J  c #9B4200",
"K  c #A34A06",
"L  c #9F4F31",
"P  c #8F5053",
"I  c #8A775C",
"U  c #835E7D",
"Y  c #8B7965",
"T  c #907B63",
"R  c #857D76",
"E  c #867B79",
"W  c #9B717D",
"Q  c #97815D",
"!  c #A0884D",
"~  c #89847A",
"^  c #B09764",
"/  c #BAA17B",
"(  c #504886",
")  c #7A5E9F",
"_  c #4E6282",
"`  c #526683",
"'  c #556984",
"]  c #5A6B85",
"[  c #536789",
"{  c #556A8C",
"}  c #5A6D8D",
"|  c #5D718D",
" . c #566D91",
".. c #5A6E91",
"X. c #5D7294",
"o. c #57719A",
"O. c #5E759A",
"+. c #6D7082",
"@. c #61738D",
"#. c #74708E",
"$. c #627694",
"%. c #657996",
"&. c #6A7C97",
"*. c #617699",
"=. c #647A9C",
"-. c #697D9C",
";. c #5459B0",
":. c #5E6DAB",
">. c #667DA1",
",. c #697FA2",
"<. c #6A66B7",
"1. c #5D64C3",
"2. c #5E6BD3",
"3. c #656CC8",
"4. c #666FD0",
"5. c #687BE6",
"6. c #717CE4",
"7. c #717EEA",
"8. c #876687",
"9. c #93758E",
"0. c #936D92",
"q. c #967997",
"w. c #A16792",
"e. c #A27E9E",
"r. c #956BA6",
"t. c #A97FAE",
"y. c #8977DB",
"u. c #6E819C",
"i. c #72849E",
"p. c #5F81A6",
"a. c #6B81A5",
"s. c #6A84A8",
"d. c #6D84A9",
"f. c #7285A4",
"g. c #7688A7",
"h. c #7087AB",
"j. c #7289AD",
"k. c #798DAD",
"l. c #758DB2",
"z. c #788FB4",
"x. c #7991B6",
"c. c #7690B9",
"v. c #7C94BB",
"b. c #7481EC",
"n. c #7888F9",
"m. c #8A8584",
"M. c #938B85",
"N. c #969389",
"B. c #9A928C",
"V. c #9F809F",
"C. c #9E9993",
"Z. c #A49E9A",
"A. c #A6A19D",
"S. c #8096B7",
"D. c #8297B9",
"F. c #849ABD",
"G. c #899CBF",
"H. c #AB82AF",
"J. c #B995B9",
"K. c #AEABA6",
"L. c #B2ADA8",
"P. c #B6B3A9",
"I. c #BAB6AE",
"U. c #BAB7B1",
"Y. c #BDBAB4",
"T. c #CBB18B",
"R. c #C1BDB9",
"E. c #C5C2BC",
"W. c #C8C5BF",
"Q. c #EAD0A2",
"!. c #EBD3AA",
"~. c #F4DFBC",
"^. c #849BC0",
"/. c #8A9EC1",
"(. c #8DA1C3",
"). c #99A3EA",
"_. c #C49ACA",
"`. c #CC9CD4",
"'. c #CDA2D4",
"]. c #D2A7D9",
"[. c #DEB3E5",
"{. c #E2B8E9",
"}. c #E9BEF0",
"|. c #C9C6C0",
" X c #CBC9C3",
".X c #D2CECA",
"XX c #D4CCCA",
"oX c #D4D2CC",
"OX c #D8C5D9",
"+X c #DBDAD4",
"@X c #E0DDD8",
"#X c #F5E5C8",
"$X c #E5E4DE",
"%X c #F5E9D3",
"&X c #D2C3E5",
"*X c #EEC2F4",
"=X c #F1C9F7",
"-X c #F3C8FA",
";X c #DFE4F2",
":X c #E8E7E1",
">X c #EBEBE4",
",X c #EFEEE8",
"<X c #F0EFE9",
"1X c #F4F1E7",
"2X c #F6F6EF",
"3X c #F9F7EE",
"4X c #E1E6F2",
"5X c #F6F6F1",
"6X c #F7F8F0",
"7X c #FBFBF4",
"8X c #FFFFFB",
/* pixels */
"G./.F.G.F././.^./.(./././.^././././././.(.^.^.x.k.F./.F.^.F.F.D./.(././././././.(.(.(./.^./.^././.(.",
"v.v.v.v.v.v.v.v.v.v.v.v.c.v.v.v.v.v.c.v.c.v.c.:.O.s.v.c.v.v.v.v.v.v.v.v.v.v.c.v.v.v.v.v.v.v.v.v.c.^.",
"v.v.v.v.v.v.v.v.v.v.v.v.v.v.v.v.v.v.v.v.v.v.>.>.=.>.h.v.v.v.v.v.v.v.v.v.v.v.v.v.v.v.v.v.v.v.v.v.v./.",
"v.v.v.v.v.v.v.v.v.v.v.v.v.v.v.v.v.v.v.v.v.,.o.v.l.=.>.d.c.l.x.c.c.v.v.v.x.x.v.v.v.v.v.c.v.v.v.v.v.^.",
"j.l.l.l.l.l.l.l.j.l.z.v.v.v.z.l.c.z.l.l.s.=.c.v.j.s.s.o.d.j.l.l.j.l.z.l.l.l.l.l.l.l.l.l.l.l.l.l.h.v.",
"h.d.d.d.h.j.l.h.d.d.d.z.z.z.z.l.j.l.d.>.o.c.v.s.>.s.d.:.O.d.l.l.l.l.l.j.h.j.c.l.l.h.s.j.l.l.d.h.d.l.",
"x.x.x.l.j.l.z.z.j.l.l.h.l.h.l.c.l.l.,.O.l.v.:.c.s.s.s.,.=.o.h.c.v.v.x.l.j.l.c.x.x.z.j.z.c.c.l.l.z.D.",
"x.v.z.z.c.c.z.z.c.c.c.z.z.v.z.c.c.>.o.c.v.d.d.,.s.,.,.s.s.>.o.h.v.l.x.x.x.c.x.x.x.c.z.c.x.x.z.x.z.D.",
"x.z.z.z.z.x.z.z.x.x.x.z.c.z.v.z.>.o.c.v.,.,.,.d.s.,.,.s.s.s.O.=.,.x.z.z.l.v.l.l.x.x.x.x.z.x.z.x.z.D.",
"z.z.z.z.z.z.z.z.z.l.z.z.z.z.l.>.o.j.z.d.,.j.d.,.:.s.,.,.>.s.s.:.:.d.z.z.v.l.l.v.l.c.l.z.z.z.z.z.l.D.",
"z.l.z.z.z.z.l.l.l.z.z.l.z.l.>.o.c.c.j.,.d.d.,.d.j.s.s.,.s.,.d.,.=.=.d.l.x.l.z.l.z.z.l.z.l.z.z.z.l.v.",
"z.l.l.l.l.l.l.l.l.l.l.z.l.>.o.s.v.s.,.d.,.d.s.,.s.s.d.,.s.s.,.s.s.o.O.d.l.l.l.l.l.l.l.l.l.l.l.z.l.D.",
"l.l.l.l.l.l.l.l.l.l.l.l.>.o.s.v.,.,.,.d.s.d.s.s.s.s.s.d.d.,.,.,.s.>.*.*.,.c.l.l.l.l.l.l.l.j.l.l.h.S.",
"l.l.l.j.l.l.l.l.l.j.l.>. .l.v.d.d.f.d.,.,.s.,.s.s.,.d.,.s.s.h.h.h.s.,.*.>.,.z.l.l.l.l.l.l.l.h.l.l.v.",
"j.l.j.l.c.z.l.l.l.j.,.O.,.$.$.} ..} ,.s.,.d.s.>.s.>.:.j.a.>.} ] [ [ ' ..:.*.,.z.h.l.l.l.h.l.l.k.h.x.",
"h.d.d.h.,.j.,.j.,.>.*.,.&.3 3 6 3 7 >.,.,.>.>.>.>.>.=.>.,.=.7 3 6 7 3 ` -.$...,.h.h.d.d.d.d.s.d.d.k.",
",.a.a.a.a.d.d.a.=.=., . G ,X>X:X>X:X9 M ,.O.>.O.>.=.*.,._ o @X,X>X:X<Xm.  : O.o.>.d.d.a.a.a.s.s.,.g.",
"h.d.j.d.a.d.h.a.{ t Y.R..X7X5X5X7X5X Xm.M >.O.>.,.,.,.M #. X2X6X6X6X7XoXR.R.u _ O.a.d.s.d.j.h.s.,.l.",
"h.h.h.h.d.l.>._ F M.1X8X7X2X2X2X5X2X8XK.O h.>.,.,.,.f.r N.8X2X2X5X5X2X7X8X2XN.H [ X.s.j.h.h.h.j.h.x.",
"j.h.j.h.h.=.O.i ~ 7X2X2X5X5X2X2X2X,X5XA.r a.,.,.,.,.,.i M.6X1X2X2X2X2X2X2X1X8XB.y O...a.l.h.h.j.s.x.",
"h.d.h.h.=.X.O L.2X2X2X2X2X2X7X8X+X@ 9 @                 . 9   oX8X8X2X2X2X2X2X2XR.O X.O.>.h.h.h.s.k.",
"h.h.h.=. .a.  Y.7X2X2X2X5X5XK.M.A.E.E.|.W.W.W.W.W.W.W. XW.E.|.A.m.C.6X6X2X5X2X7X X  =.X.X.a.h.h.h.k.",
"h.h.=. .O.l.. U.7X2X6X6X,X XM.G K.8X7X7X7X7X7X7X7X7X7X7X7X7X8XU.G M. X>X6X5X2X7X|.  =.=.....a.h.d.j.",
"h.=. .O.l.,.  U.7X2X2X7XoX. >X8X6X2X2X2X2X2X2X2X2X2X2X2X3X2X2X7X8X6X& |.6X2X2X7X|.  *.=.O. .X.a.h.f.",
"O. .=.j.*.X.  R.8X<X8XK.Z 1X2X2X2X2X6X2X2X2X6X2X2X2X2X2X2X6X2X2X2X2X5XE B.8X<X8X.X  @.X.*.*. .X...&.",
" .[ *.j.$...M G U.8XK.K.+X7X2X2X2X2X2X2X2X6X2X2X6X2X2X6X2X2X2X2X2X2X7X+XL.Z.8XR.H N $.*.X.X. .{ [ $.",
">...X.} F N F ; C oX  Y.8X<X2X2X6X2X2X6X2X2X2X2X2X2X2X2X6X2X6X2X2X2X<X8X X  .XH ; F M N ]  . .,.>.=.",
"j.>. .n % > % n N   @ R.7X2X6X2X2X2X2X2X2X2X6X2X6X2X2X6X2X2X2X2X2X5X2X7XXX&   n B % > % l  .*.k.h.f.",
",.l.0 :.7.6.7.r.K 9 @X2X2X2X6X2X2X2X2X2X6X2X6X2X2X2X2X2X6X2X2X2X2X6X2X2X2X$Xk J w.5.6.7.<.5 x.j.,.k.",
">.t   ;.n.6.n.<.4   :X7X2X2X2X2X2X6X2X6X2X2X2X2X6X2X2X6X2X2X6X2X2X2X2X2X6X,X* 2 ) n.6.n.1.  w =.d.g.",
"+.B.T ) 2.7.4.a 7 q.>X6X2X2X2X2X2X6X2X2X2X2X2X2X2X2X6X2X2X2X2X2X2X6X2X2X6X<XV.8 a 3.7.2.#.Q B.+...k.",
"E 7X#X^ e 7.d @ 8.-X2X5X2X2X2X6X2X2X2X2X6X2X2X6X2X2X2X2X6X2X6X2X2X2X5X5X5X6X-Xq.@ s 7.a ! #X8XB.s g.",
"1X2X3X%XT.o J.y.).2X2X2X2X2X6X2X6X2X6X2X2X2X2X2X2X6X2X2X2X2X6X2X2X2X2X6X2X5X3X).y.J.% T.#X7X1X6XY., ",
"5X7XL.Q Y 3._.&X;X6X2X6X6X2X2X5X2X2X2X2X2X2X2X2X2X2X2X6X6X2X2X2X2X6X2X2X2X2X6X4X&X_.2.H T A.6X8XE.@ ",
",X|.9 q ;.n.r.XX5X2X2X2X2X2X2X2X2X2X2X2X2X2X2X7X5X6X2X2X2X2X2X2X2X2X2X2X6X2X2X7X@Xr.n.;.q # R.2X|.X ",
"oX  @ <.n.7.- P.7X2X2X2X6X2X2X2X7X2X5X2X2X2X2X,X,X2X2X2X6X2X6X2X2X6X2X6X2X6X2X7XE.  b.n.3.3   oXE.+ ",
"k ] $ ;.n.n.q I.7X2X2X2X2X6X2X6X2X2X2X2X5X<X8XB.~ 8X2X2X2X2X2X2X6X2X2X6X2X6X2X7X X; b.n.<.# F k z $.",
"F ] = f ( (   U.8X2X2X2X2X2X2X2X2X2X2X2X7X7XN.J.J.~ 5X7X2X6X6X2X2X2X2X2X2X2X2X7X X  ( ( i # D M N %.",
"%.' l s 1 0   U.7X2X2X2X6X2X2X6X2X5X2X7X>XE.V ].[.V Y.:X5X6X2X6X2X2X2X2X2X2X2X7X|.  0 7 u l D ] ] %.",
"| ] F F ` ]   I.8X2X2X2X2X2X2X2X2X5X1X7XoX  _.{.{.'.  |.7X2X2X2X6X2X6X2X2X6X2X7X|.  ` ' ` ` F ] ' &.",
"$.] ] F F F   U.7X2X2X6X2X2X2X2X2X2X2X7XoX  [.=X*X*Xo E.7X2X2X2X2X6X2X2X2X2X2X7X|.  F D F ' ] ] } &.",
"%.| | ] ' ]   U.7X2X5X2X6X2X6X2X2X5X2X7X>XoX'.'.`.'..X>X5X2X6X2X2X2X2X2X5X2X2X7X|.  ] ' ] ] | $.@.u.",
"%.$.] ] ] ]   Y.8X2X2X2X2X2X6X2X2X6X2X5X6X7XOXOXOXOX7X6X2X2X2X2X2X6X6X2X2X2X2X7X X  ] ] ] | %.X.*.i.",
"%.%.%.@.$.] . L.<X2X2X2X2X2X2X2X2X2X2X2X2X2X7X7X7X6X2X2X6X2X6X2X2X2X2X2X2X2X2X2XR.  ] | $.| %.%.%.i.",
"%.%.| | @.] ' < R 7X2X2X2X2X2X2X5X2X2X2X2X6X1X2X2X2X2X2X2X2X2X2X2X6X2X2X2X2X7XB.> ] ] | $.%.%.&.$.u.",
"| | | | | ] ' , b ~.5X7X2X2X2X2X2X2X2X2X2X2X2X6X5X2X2X2X2X2X2X2X2X2X2X2X6X7X#XY ; ] ' | $.@.%.%.} %.",
"%.%.%.| | | } m b / U.$X7X5X7X5X2X6X5X5X5X5X5X5X6X6X6X6X2X6X2X2X6X7X6X7X:XY./ b h ` ` | | ] | | @.u.",
"%.%.%.%.*.| ] D m -   L.1X$X:X<X2X2X5X1X1X1X1X1X1X1X1X1X1X1X2X2X1X:X$X<XY.  O m ] ] | | %.%.X.%.%.u.",
"$.%.%.%.$.@.] F F F D k $ =   E.8X2X7X#XQ.!.!.!.!.!.!.!.!.!.2X7X.X  = $ k N F F F F | @.| u.u.u.@.u.",
"$.%.%.@.$.$.@.] F D D u d H.H.9.R E E I c v v v v v c c c P ~ R 9.t.H.V 1 D D F | | %.%.u.| | X.$.u.",
"x.x.z.z.z.z.l.d.a.&.f.h Z [.{.0.. i y i p p p t r i j p p p i   U {.{.U < u.=.a.g.z.v.v.l.l.c.c.z.S.",
"v.F.v.v.v.v.v.z.h.a.&.B 0.*X*XV.1 ,.=.&.=.=.$.` S } &.&.&.&.f.u 9.*X-Xe.l -.a.j.l.x.v.v.v.v.(.v.v.G.",
"v.v.v.v.v.v.c.z.l.j.  J.-X*X].8.1 $.$.$.$.$.` M S M ' %.%.*.%.u A `.}.-X_.  j.l.x.x.v.v.v.v.v.v.v.F.",
"v.v.v.v.v.v.v.v.z.g.L P A A V C } %.&.-.%.[ ` >.*.[ ` } %.$.=.] B x A A P K k.x.v.v.v.v.v.v.v.v.c./.",
"l.j.j.l.l.z.l.j.h.d.9.Z g l h D &.=.,.=...{ ,.d.=.X.| [ ..=.%.=.F h h p C W s.j.l.j.l.l.l.l.l.l.h.x.",
"j.h.h.s.h.h.l.j.d.a.p.>.-.=.%.%.%.,.,.$...,.c.,.-.a.=.X.} =.,.&.*.*.%.O.=.p.s.j.l.j.s.j.l.l.s.s.d.z.",
"z.v.z.l.j.l.z.l.h.d.,.&.X.$.$.&.,.d.*.O.d.v.,.,.,.d.,.,.O.X.>.a.u.*.%.X.%.i.j.l.x.l.j.l.v.c.l.l.l.F.",
"z.c.z.c.z.x.x.z.z.h.f.a.-.-.,.a.d.O.o.j.D.a.d.,.,.,.s.d.s.O. .>.a.u.-.u.a.a.j.l.z.x.x.x.x.x.x.x.z.F.",
"x.z.z.z.z.z.z.z.l.j.h.s.a.a.f.d.O. .c.c.d.,.s.d.s.,.s.,.s.,.o.O.=.a.a.a.a.h.h.l.z.z.z.z.x.x.x.x.l.v.",
"x.z.z.z.z.z.x.l.l.l.g.h.h.d.d.=. .l.v.d.s.s.,.,.d.,.,.,.s.s.s.:.X.a.s.j.j.h.l.z.l.z.z.z.z.l.l.x.z.D.",
"z.l.l.z.l.l.l.x.l.l.l.j.l.h.=...c.c.d.,.d.d.d.d.:.s.s.,.d.s.d.,.>.o.,.l.l.l.l.l.z.z.z.z.z.z.l.z.l.v.",
"z.l.l.l.l.l.l.l.l.l.l.z.j.>.o.d.v.,.,.d.,.d.,.,.c.s.s.s.,.s.,.d.>.>.o.,.l.l.l.l.l.l.j.z.l.l.l.l.l.v.",
"l.l.l.l.l.l.l.l.l.l.l.l.>.o.d.^.,.s.s.s.d.d.s.s.d.d.s.s.,.d.d.,.,.,.*.O.h.l.l.l.l.l.l.l.l.l.l.z.k.S.",
"l.l.l.l.k.l.j.l.j.l.l.>...d.v.a.s.,.,.s.c.:.d.,.,.,.d.,.d.d.,.d.,.d.,.*.*.a.l.l.l.j.l.j.l.l.j.l.j.x.",
"j.l.l.l.j.j.l.l.j.j.>.o.h.z.s.,.d.s.,.,.,.,.,.,.s.,.a.a.a.>.a.>.>.>.>.O.o...>.l.l.l.l.j.l.j.l.l.h.v.",
"s.s.s.h.h.h.s.h.d.>...d.l.d.>.>.,.>.,.s.>.>.,.>.a.:.O.a.O.>.>.O.*.>.O.>.*.O.O.,.d.f.h.d.d.s.a.d.a.k.",
"u.s.a.a.s.d.h.a.>...,.x.,.>.*.O.>.>.>.>.>.>.O.>.O.=.O.=.>.>.>.O.>.O.>.>.>.O.o.o.>.d.s.,.a.s.a.a.,.g.",
"h.h.h.a.s.h.j.>.o.>.v.,.>.,.>.>.>.O.>.O.>.>.*.>.a.a.a.O.s.O.>.a.O.>.>.,.>.*.*.X.O.d.d.d.d.l.h.d.a.l.",
"j.j.j.j.h.j.=...,.z.,.,.,.,.,.,.>.>.,.>.,.>.,.,.>.a.a.>.>.>.a.>.,.,.,.,.,.,.,.>...o.s.j.d.j.l.h.d.x.",
"h.j.s.h.j.O.{ s.l.,.,.,.,.>.,.,.>.>.>.,.,.>.>.>.=.a.=.a.>.>.>.a.,.>.,.,.,.,.>.>.>...X.,.l.d.h.h.s.x.",
"j.s.j.j.O.{ s.j.,.,.>.>.>.>.>.>.>.>.>.>.>.>.>.,.a.O.>.>.>.>.>.=.>.>.>.>.>.>.>.,.,.*...O.>.h.d.h.s.k.",
"h.h.s.=...a.j.s.=.>.>.>.>.>.>.>.>.>.>.>.>.>.>.>.=.a.>.=.>.>.>.>.=.>.>.>.>.>.>.>.>.>.>. .O.>.h.h.h.k.",
"h.h.=. .=.l.,.>.>.>.>.>.,.>.>.>.>.>.>.>.>.>.>.>.>.>.>.>.>.>.>.>.>.>.>.>.>.>.>.>.>.,.,.*.o...,.j.d.j.",
"s.=...O.z.>.>.=.=.>.=.=.=.=.>.=.>.>.>.*.*.>.=.=.=.>.>.=.=.>.>.=.=.>.>.=.>.=.>.=.=.%.:.>.$...o.,.h.f.",
"X. .O.z.=.O.=.=.O.*.=.O.O.*.=.=.O.*.*.O.*.O.O.O.O.O.O.O.=.O.=.O.O.O.*.=.X.:.-.=.*.*.O.X.*.*. ... .&.",
"X.[ *.j.X.X.O.X.X.X.O.X.O.X.O.O...*.=.*.*.*.X.X.O.=.=.X.O.O.X.O.O.X.X.X.X.X.O.X.O.*.>.*.X.O.} ..[ $.",
">.X...=.=.*.*.*.*.*.*.*.*.*.*.O.*.=.=.*.=.=.O.*.=.*.=.*.=.O.=.O.O.*.*.O.O.$.O.*.*.=.=.=.X...[ ,.,.=.",
"h.>... .O.>.=.=.=.>.=.=.=.=.=.=.>.=.=.>.=.=.=.=.=.=.=.=.=.=.=.=.=.=.>.=.>.=.=.=.=.=.=.*.....>.k.h.f.",
"a.d.>...{ O.=.%.*.%.=.=.=.=.=.=.=.*.*.=.=.%.=.=.=.=.=.=.*.=.=.=.=.=.*.>.=.$.=.=.*.*.=.....*.S.g.,.k.",
"a.f.,.,. .[ X.:.*.:.=.*.*.*.*.*.=.=.=.*.*.*.=.*.*.*.*.*.*.=.*.=.*.=.*.$.=.=.$.>.*.>...[ *.z.,.,.,.g.",
"g.,.g.,.>...{ ..=.=.*.*.*.*.*.*.*.*.*.*.=.*.$.=.O.*.$.=.O.*.*.*.*.*.*.*.*.*.$.*.=...[ ,.g.,.,.g.u.k.",
",.,.,.,.,.>.} ..X.=.*.*.%.*.*.X.*.$.*.*.*.$.O.$.$.$.$.O.$.O.*.$.$.$.$.*.$.$.=.$. .[ >.h.S.,.,.,.u.g.",
",.g.,.g.,.,.,...` X.*.X.$.X.=.=.*.*.*.*.$.$.*.$.*.$.$.=.$.*.*.$.*.*.*.*.*.*.X...[ =.g.,.g.,.,.,.a.g.",
",.,.,.g.,.,.,.=. .[ X.*.X.*.X.X.X.X.X.X.X.O.O.$.O.O.*.X.X.O.O.$.$.*.$.X.$.*. .[ X.h.g.,.,.,.,.,.a.g.",
",.,.,.,.,.,.,.,.=.[ [ X.X.X.X.{ } | X.X.....O.$...X.X.....X.$.$.$.X.O...X.} ' X.h.,.,.,.,.,.,.,.u.f.",
"-.*.*.$.*.=.-.=.=.X.[ [ { { X.X.} X... ...} } ..} ........} X.....{ ..} X.[ X.j.>.-.-.*.#.=.*.$.o.u.",
",.=.=.&.-.%.%.=.,.,.=.[ [ { X.X.X.X.X.X.X.} X.} { ..X.X.....} }  .$.X.{ _ *.s.=.*.-.>.*.O.$.$.,.=.u.",
"-.,.,.,.,.,.>.-.,.,.-.=.' [ X.X.X.X.$.X.X...$.....X.X.X.X.X.......$.{ _ $.a.a.O.-.,.,.,.>.>.>.,.a.f.",
",.,.,.,.,.,.,.,.a.=.u.=.O.[ [ ..X.| X.X.X.X.X.X.X.#.$.X.X.@.X.$.X.{ ` ..a.a.u.a.a.u.a.a.u.a.u.a.=.g.",
"-.-.,.&.-.-.,.&.u.u.u.a.u.*.[ ' | X.X.X.X.X.X.| ....X.@.X.X.@...{ ` ..f.u.u.=.a.u.u.O.u.u.u.O.u.u.f.",
"-.&.,.,.,.-.-.-.u.=.p.u.u.=.O.` ` | | | X.| X.X.X.X.} ..@...X.} ` } a.u.u.u.u.u.O.u.O.u.O.a.O.u.=.f.",
"&.,.&.>.-.-.-.-.=.u.%.u.=.u.u.X._ ` | X.| X.| ....X.@.X...X.{ _ { a.u.u.u.O.O.u.O.u.u.u.O.u.u.u.=.i.",
"-.%.=.%.&.-.-.-.u.u.O.X.u.u.u.%.X._ _ { | | | | | | | | X.} _ } u.u.p.%.u.%.u.%.u.=.u.=.u.O.u.%.=.i.",
"%.-.-.&.-.&.&.*.%.u.u.u.O.X.%.u.u.| ` ` | | | } ..} ..| ' M } &.u.u.%.u.O.u.O.u.p.%.&.&.%.u.O.u.&.u.",
"%.&.$.$.&.$.X.@.| | p.u.X.| u.%.p.u.| S ` { } { ' { } ' _ [ -.-.u.X.%.%.%.%.%.%.%.u.O.%.u.%.%.&.X.u.",
"X.} } } $.$.} ..| ] | | | | | | | | X.} S S ` ` ' ' ` S ' u.&.$.| X.| | | X.%.%.X.X.| %.X.X.%.%.| %.",
"%.%.$.X.%.%.%.$.@.@.| %.%.@.*.%.$.| %.u.| S S } | ` S ` u.=.&.*.| X.%.%.| u.| X.| %.| | | | | | | i.",
"%.&.%.%.%.%.%.%.%.%.%.%.%.%.%.&.%.%.%.%.%.] S S S S ' u.u.%.%.%.%.%.%.%.%.u.u.| | u.| %.u.| p.| @.u.",
"$.$.$.$.%.%.%.%.$.$.%.%.$.$.%.%.$.@.$.@.%.X.} S S ' *.&.*.$.%.%.@.$.%.$.| @.%.| %.| u.%.@.| @.&.| u.",
"&.&.&.&.&.&.&.&.&.u.&.&.&.u.&.%.&.&.u.u.&.&.u.' D %.a.&.&.&.&.&.u.&.&.u.&.u.u.u.u.u.u.@.u.&.&.u.u.i."
};
