/* XPM */
static char *result[] = {
/* columns rows colors chars-per-pixel */
"50 100 236 2 ",
"   c #000000",
".  c #0A0102",
"X  c #150100",
"o  c #0F0C11",
"O  c #240000",
"+  c #2C0000",
"@  c #350000",
"#  c #3B0200",
"$  c #391600",
"%  c #3C1111",
"&  c #392300",
"*  c #07002A",
"=  c #161A2D",
"-  c #300A2C",
";  c #1A272B",
":  c #302A34",
">  c #470D05",
",  c #740C00",
"<  c #482601",
"1  c #412217",
"2  c #752C00",
"3  c #4C1D32",
"4  c #522E2E",
"5  c #4A3439",
"6  c #6C312A",
"7  c #67450C",
"8  c #625317",
"9  c #514532",
"0  c #584637",
"q  c #695330",
"w  c #10084C",
"e  c #2C1C47",
"r  c #2E2C4B",
"t  c #3B3C49",
"y  c #343958",
"u  c #0D0069",
"i  c #312D63",
"p  c #4C0A43",
"a  c #4A3B46",
"s  c #5B3645",
"d  c #4E3051",
"f  c #633B4F",
"g  c #493B7A",
"h  c #653464",
"j  c #3C4358",
"k  c #3C4865",
"l  c #3D5063",
"z  c #4B434D",
"x  c #5D4B4B",
"c  c #474759",
"v  c #534756",
"b  c #525259",
"n  c #66534E",
"m  c #67435C",
"M  c #685A57",
"N  c #7B6852",
"B  c #444E67",
"V  c #47546A",
"C  c #565768",
"Z  c #4F4773",
"A  c #4E5D74",
"S  c #4A5B79",
"D  c #545E78",
"F  c #72516B",
"G  c #4F6077",
"H  c #4D617D",
"J  c #526176",
"K  c #54647C",
"L  c #59667D",
"P  c #766D6C",
"I  c #8F0000",
"U  c #A71600",
"Y  c #A72E00",
"T  c #91450B",
"R  c #AB4A00",
"E  c #B04C00",
"W  c #914B2D",
"Q  c #B05431",
"!  c #AA6624",
"~  c #8B7256",
"^  c #BA6C50",
"/  c #8B5170",
"(  c #A35E70",
")  c #907669",
"_  c #837A77",
"`  c #B0726C",
"'  c #A68659",
"]  c #998264",
"[  c #878177",
"{  c #8B827C",
"}  c #93877C",
"|  c #A78C66",
" . c #AA9073",
".. c #C68D73",
"X. c #C3A77A",
"o. c #343F80",
"O. c #4F4D8F",
"+. c #585498",
"@. c #6D518F",
"#. c #4E6381",
"$. c #526583",
"%. c #5B6681",
"&. c #566884",
"*. c #5A6B84",
"=. c #536789",
"-. c #556A8B",
";. c #5A6D8C",
":. c #5D718E",
">. c #566C91",
",. c #5A6E91",
"<. c #5D7294",
"1. c #56709A",
"2. c #5E759A",
"3. c #726F84",
"4. c #61738E",
"5. c #6D7489",
"6. c #627694",
"7. c #657995",
"8. c #687B96",
"9. c #617699",
"0. c #647A9C",
"q. c #697D9C",
"w. c #565AB5",
"e. c #5D78A1",
"r. c #5B62BB",
"t. c #667DA1",
"y. c #697FA2",
"u. c #5968CC",
"i. c #6970CF",
"p. c #6976E0",
"a. c #727DE7",
"s. c #8B6C8B",
"d. c #99759A",
"f. c #A17897",
"g. c #9268A2",
"h. c #9D76A2",
"j. c #A97EAC",
"k. c #6D819E",
"l. c #6780A5",
"z. c #6B81A5",
"x. c #6D85AA",
"c. c #7185A6",
"v. c #7187AB",
"b. c #7289AE",
"n. c #788BAF",
"m. c #758DB2",
"M. c #788FB5",
"N. c #7991B5",
"B. c #7791BA",
"V. c #7C93BB",
"C. c #7482EE",
"Z. c #7787F7",
"A. c #8B8583",
"S. c #918B86",
"D. c #9C9490",
"F. c #9D9994",
"G. c #A59B96",
"H. c #A29C95",
"J. c #B59790",
"K. c #A6A299",
"L. c #AAA49C",
"P. c #B5AB9D",
"I. c #8197BB",
"U. c #8199BE",
"Y. c #8B9DBE",
"T. c #AA89AA",
"R. c #AC85B6",
"E. c #B389B8",
"W. c #BA94BC",
"Q. c #AAA8A3",
"!. c #B4ADA8",
"~. c #B8B4AE",
"^. c #BBB6B3",
"/. c #CB9B8A",
"(. c #C49398",
"). c #C9AD83",
"_. c #CEAE91",
"`. c #E0BD90",
"'. c #D098BA",
"]. c #D6B4A6",
"[. c #C0BDB9",
"{. c #D9BDB1",
"}. c #DFC395",
"|. c #C5C3BD",
" X c #CBC5BF",
".X c #D5CBBA",
"XX c #E6CCA1",
"oX c #EBD3AB",
"OX c #EAD6B6",
"+X c #F4E1BD",
"@X c #829AC0",
"#X c #8C9FC0",
"$X c #A581CC",
"%X c #BD94C2",
"&X c #8EA1C2",
"*X c #91A3C4",
"=X c #9889E7",
"-X c #C39AC9",
";X c #CAA6CB",
":X c #CEB3C6",
">X c #CCA4D4",
",X c #D5AADA",
"<X c #D7B3D9",
"1X c #E5B1DC",
"2X c #D7ADE0",
"3X c #DCB2E3",
"4X c #E7BAEA",
"5X c #E5BBED",
"6X c #EABEF2",
"7X c #D1C6CD",
"8X c #D3CBCA",
"9X c #D9D4CA",
"0X c #DAD9D4",
"qX c #E2D0C2",
"wX c #E9DDD5",
"eX c #E4E3DC",
"rX c #EEE6D8",
"tX c #EDE4DB",
"yX c #F4EAD6",
"uX c #DEC4E0",
"iX c #E6D8E4",
"pX c #EDC1F3",
"aX c #EFC4F8",
"sX c #F3C7FB",
"dX c #E8E5E3",
"fX c #ECEAE4",
"gX c #EDEDE8",
"hX c #F1EEE5",
"jX c #F1EEEB",
"kX c #F6F6EF",
"lX c #F9F5EA",
"zX c #F6F6F0",
"xX c #F8F7F1",
"cX c #F7F8F1",
"vX c #FBFBF4",
"bX c #FEFFFB",
/* pixels */
"&X&XY.Y.#X&X&X&X&X&X&X&X&X#X#X&X&X&X#X#X&X&X#XI.n.Y.&XY.&X#X#XY.#X*X*X*X&X&X&X&X&X&X*X&X&X&X&X#X&X&X",
"V.B.V.V.V.V.B.B.V.B.B.V.V.B.B.B.V.B.V.B.B.B.M.e.1.x.V.B.B.B.B.B.B.B.B.B.B.B.B.B.V.V.B.B.B.B.V.V.B.B.",
"U.V.V.V.V.V.V.V.V.V.V.@XV.V.V.V.V.U.V.V.V.V.y.e.e.t.l.V.I.B.V.V.@X@XI.B.B.@X@XI.V.V.V.V.V.V.V.V.V.@X",
"U.V.V.V.V.V.V.B.V.V.V.V.V.V.V.V.V.V.V.V.B.y.e.B.b.t.t.x.M.B.B.B.n.B.B.I.M.M.I.B.V.V.V.B.V.V.@XV.V.V.",
"M.b.m.m.m.m.M.m.m.m.M.B.V.B.N.M.M.M.m.m.l.0.N.B.m.v.t.t.t.b.m.b.b.n.n.B.n.M.M.m.M.m.m.M.M.m.m.m.m.M.",
"b.x.x.x.x.b.m.x.l.x.x.m.N.M.m.M.M.M.x.t.9.b.U.m.=.V x.t.e.y.b.m.m.B.B.b.y.m.m.m.m.x.l.b.m.b.x.v.x.b.",
"N.N.N.m.m.b.M.M.m.m.m.b.m.b.M.z.0.z.y.2.m.@Xl.2.3.F 9.y.t.e.y.B.v.y.y.b.b.M.B.M.B.m.b.M.B.N.b.m.M.V.",
"I.N.N.M.M.M.B.M.M.M.N.M.M.N.V.v @ : 1.m.V.y.x.  E.5XO 0.y.t.e.v.D + % n.B.n.B.M.N.N.M.N.N.N.N.N.B.V.",
"V.m.N.N.N.N.M.N.N.M.N.M.V.n.. -X1XE.5 b.V.k.a h.,X5XE.f *.B.l.t d.>X3X5 &.V.B.N.N.N.N.m.m.N.N.N.N.N.",
"N.n.N.N.m.N.m.M.M.M.M.N.0.L W.aX>XF . r k r   >X6X6X4Xd   k y   p R.sX>Xd.&.B.N.m.N.m.N.N.N.m.N.m.N.",
"N.M.m.m.m.N.M.m.m.m.m.V.$.6 1X1XJ.q S._ [ A.[ <X6X6X4XD._ { { S.~ ) ,X4Xf.* V.n.N.m.N.m.N.m.m.m.m.N.",
"N.n.m.m.n.m.m.m.m.m.b.N.&.> E Y ..wXxXvXvXvXvX;X2X6X-XjXbXvXcXcXyX`.E E 2 B n.b.b.m.m.m.m.m.m.m.n.N.",
"N.n.n.m.m.m.m.b.M.N.V.k  .oXXXfXkXhXkXkXkXkXkXjXjXjXjXxXkXkXkXkXjXhXlXOXoX_.t n.V.N.m.m.m.n.m.m.m.N.",
"N.n.m.b.m.m.v.B.7.y k   2 ] ] D.9XbXkXkXkXzXzXzXxXzXxXxXkXkXkXkXvXjXQ.] ~ ~   y j G N.m.m.b.b.m.b.m.",
"N.b.m.b.m.m.b.t.3.} A.S.S.P [   _ eXxXxXkXkXkXkXkXkXkXzXkXkXlXxXfX~.  P [ [ S.A.{ A.<.b.m.b.b.b.b.n.",
"b.x.v.v.x.x.b.- Q.bXvXvXbXvXbXS.  P kXjXzXjXkXkXkXkXkXkXkXkXkXvXQ.  x hXbXvXvXcXbX0XO k.x.x.x.v.v.b.",
"k.l.l.l.x.k.-  XkXkXkXkXkXkXkXfXgX0X@ eXbXbXbXzXzXzXkXcXvXvXbXM Q.kXdXkXkXkXkXkXkXkXdXM $.v.y.x.l.z.",
"b.v.b.z.v.x.  9XvXkXkXkXkXkXkXcXcXkX:XG.J././.fXzXkXkX]./.J.H.^.eXvXzXkXkXkXkXkXkXzXzX< S B.v.x.x.v.",
"b.v.v.b.k.5.S.eXvXcXzXzXkXkXkXkXkXkXbX~ W /. .tXzXkXzX_...` > hXvXkXkXkXkXkXkXkXzXzXlXK.3.6.v.v.v.b.",
"n.v.v.m.H 0 kXkXgXgXkXcXkXkXkXzXkXkXcX .].bXvXvXzXzXzXcXbXfXQ yXcXlXkXkXzXkXzXkXkXgXjXvXG.* m.x.x.b.",
"b.x.v.x.K @ 9 9 W ..bXcXkXkXkXkXkXzXkXhXhXkXkXkXkXzXkXkXkXkXfXkXzXkXzXkXzXzXkXbX{.W 9 9 < c x.v.x.b.",
"b.x.x.k.B 3 g.d.( E A.dXvXkXkXkXkXkXkXxXzXzXkXkXkXkXkXkXkXcXcXkXzXzXkXkXlXxXxXQ.Q Q h.h.m a x.x.x.b.",
"b.x.0.1.l s ,X2X'.( h !.eXcXkXkXkXkXzXkXkXzXkXzXzXzXkXkXkXkXkXkXkXkXkXzXxXgX7XF / (.2X3Xs.; y.l.x.x.",
"b.0.-.2.&.s pXaX3X-X,Xp F.bXkXkXkXxXkXkXkXkXkXkXzXzXlXkXkXlXkXcXkXkXkXkXvX0X  -X>X>XaXaXh.  ,.y.v.k.",
"7.>.2.b.B f pX6X6X6X6Xm K.vXkXkXkXkXxXkXzXkXkXzXkXzXkXkXkXkXcXkXkXkXkXkXvX0X. <XpX4XpXsXd.  ;.;.<.<.",
":.=.6.z.S C s.<XsX6XsXj.:XvXkXkXxXkXkXkXkXkXkXkXkXkXzXlXkXkXkXkXkXzXkXkXcXeXg.6XpXpXpXT.C A -.=.=.>.",
"y.<.;.<.;.$.  T.1X6X1X<XiXcXkXkXxXkXxXkXkXkXkXzXzXkXzXzXkXzXkXkXkXzXzXkXxXlX3X:X4XpX%Xa l -.$.q.k.1.",
"m.t.>.#.-.D *.  d.4XY wXvXkXkXzXkXkXxXkXzXkXkXzXkXkXkXzXkXkXzXkXkXlXzXzXxXlXlX! '.>X  K D S ;.c.v.k.",
"c.y.y.2.Z # @ # 1 f U wXvXzXkXkXkXlXkXkXkXkXzXzXkXkXkXcXkXkXlXzXzXkXzXzXlXzXkX^ I t # @ @ c c.b.x.z.",
"n.y.= 6.D - i.p.O.8 qXhXzXzXkXzXzXlXzXzXkXzXlXkXkXzXkXzXcXkXkXkXkXkXzXzXlXzXkXwX} w i.i.g z c.e &.b.",
"q.5.H.5.t y a.Z.w.q zXxXkXzXkXkXzXzXkXzXkXkXkXzXkXzXkXkXkXcXkXkXkXlXkXlXkXkXkXbXP.u Z.Z.+.& K F.3.<.",
"L 4 vXH.@ d a.a.w.M jXkXkXkXkXkXzXkXlXzXkXzXkXkXkXkXkXkXkXkXkXcXzXzXkXkXzXzXkXvXL.u C.C.+.$ n vXL.* ",
"*.x fXvX^.  . u.=X;XlXcXlXlXkXkXkXkXkXkXkXkXkXcXkXkXkXkXlXkXkXkXzXzXkXkXkXkXkXvXH.u Z.i   P kXcXF.e ",
"L 0 cXvXfX8X].P g.<XkXxXvXvXvXvXcXkXkXkXkXcXkXkXkXkXzXkXzXkXkXkXkXzXvXvXvXvXvXvX<Xs.Z )..XeXcXbXG.* ",
"%.C |.fXcXyX_.3.@.T.lXhX0X[. X[.0XvXkXkXlXzXkXkXzXkXkXzXzXzXkXkXzXgX|.7X^.[.8XlXiX$XO. .qXlXcX8XA.B ",
"4.*.  8XyXX.  p.w.7 hXOX|   5   K.kXkXkXzXkXcXkXkXkXkXkXkXzXkXkXkX8XO 1 $ , Y rX7X$XZ.u | OXeX1 y 6.",
"4.*.%.v < d a.Z.w.7 oXN ] oXlX+X| P kXkXkXkXkXkXkXkXkXcXkXkXkXbX!.q XXhXrX).- ^ T g p.C.+.< 5 L -.:.",
"8.*.%.A 5 e C.Z.w.X ] O G.lXkXxX!.n zXkXkXzXcXkXcXkXkXkXzXkXkXvXQ.M lXlXlX8XX 6 > o.Z.Z.+.+ A K *.:.",
"8.:.*.*.A c r.r.@.2     G.lXzXkXP.b cXzXkXkXkXkXkXkXkXlXkXkXkXbXQ.M hXxXlX9X    2 F r.r.O.z ;.*.:.7.",
"8.:.:.&.%.D $ X 2 Q x z | XXdXXX' P zXkXkXzXkXkXzXzXzXzXzXlXkXvX!.7 }.eXOXX.x a W R X + b &.L *.:.7.",
"q.7.4.*.%.K K &.j s E.jX|.X 4 t , ^ kXkXkXkXkXkXkXzXkXkXkXxXkXvX].I a 5 + S.cX>XF : $.D K L *.:.6.7.",
"q.7.7.:.*.*.K &.j x iXuXd.  : , /.fXkXkXkXkXkXkXkXkXkXxXkXkXzXzXhX{.I 1 . v <XdXG.  %.K L *.:.7.7.8.",
"k.7.7.6.:.:.&.*.a M xXiX:XF.X /.wXbXlXkXkXkXkXkXzXkXkXkXkXzXkXlXbXkX].6 P [.<XvXL.  *.K *.:.:.6.7.k.",
"k.7.8.7.4.:.*.*.y n fXjXvXgX3 0XgXtXkXkXkXkXkXkXkXkXkXkXlXzXkXjXtXdXgXM :XbXjXkXG.  4.*.:.:.7.7.7.q.",
"k.<.7.7.7.4.*.*.j 5 -X-X,X5X-XF   N oXlXvXcXlXzXxXvXjXkXxXcXcX+X .  1 E.3X4XW.>Xs.o :.:.4.4.7.k.7.7.",
"7.;.:.:.4.:.;.&.G V f ,XsXpX>Xm = b N _ P K.bXbX.X/.bXbX XP [ ~ M j > W.5XsX4Xs.v J K :.4.:.7.7.:.:.",
"4.7.4.:.7.7.:.:.&.G ; T.%XE.d.m c A r ;   z ^.7X .W |.|.A.  : w l V z s.R.W.W.v V *.&.:.:.:.:.:.<.q.",
"7.k.7.7.7.7.7.:.*.K K ;     . V G A K K *.V       =     j L K K G A H ;       A &.K :.:.7.7.:.6.7.7.",
"k.7.k.4.7.7.7.4.:.L K J J J J J J J J J A D A V c V K L D A J J J J J J J J K G L *.:.:.k.:.:.k.7.7.",
"4.4.7.4.7.7.4.4.:.*.L K K J J J K &.K &.K J G V l G K G D D K J K L K K J J K K *.*.4.k.:.k.:.k.4.7.",
"V.N.N.N.B.V.B.M.n.v.c.k.k.7.k.k.z.c.c.z.z.q.q.;.&.:.7.0.0.t.0.t.x.x.z.k.k.q.k.l.b.m.N.B.N.N.V.V.N.N.",
"U.V.V.V.V.V.V.V.V.N.b.x.z.x.x.v.v.n.m.b.v.x.z.<.=.0.c.z.v.v.b.n.n.b.b.c.z.z.x.b.m.N.V.V.V.V.V.V.V.U.",
"I.V.V.V.V.V.V.V.V.N.m.m.b.b.n.m.B.B.M.M.m.m.9.1.>.<.t.v.b.m.m.B.N.N.N.m.b.b.m.M.N.N.V.V.V.V.V.V.V.V.",
"V.V.V.V.V.V.V.V.V.B.B.N.N.m.N.N.V.B.B.B.m.t.1.B.v.2.e.y.b.b.B.B.m.N.N.M.b.b.B.B.V.V.V.V.N.V.V.V.V.U.",
"N.b.b.b.m.m.m.b.b.b.m.N.V.B.N.m.m.m.m.b.y.t.B.B.m.y.t.e.y.b.B.m.b.m.m.m.b.b.m.m.m.b.b.N.m.m.m.b.m.m.",
"n.v.x.x.b.b.m.b.x.x.b.m.m.m.m.m.b.m.b.t.2.b.V.x.y.x.y.t.e.y.b.m.m.m.m.b.b.b.m.m.b.v.v.v.m.b.x.v.b.b.",
"N.B.N.b.m.b.m.N.m.m.b.m.b.b.m.N.m.m.t.2.b.V.y.x.x.x.x.y.e.e.x.B.B.B.N.m.b.M.N.N.N.m.b.m.N.N.m.m.N.V.",
"V.N.N.N.N.N.N.n.N.M.N.M.B.N.B.N.m.t.1.m.V.x.x.y.e.y.y.x.y.e.e.x.N.N.N.N.B.N.N.N.N.N.N.N.N.N.m.N.N.N.",
"V.N.N.N.m.N.N.N.M.N.N.N.N.N.N.m.t.1.B.B.b.x.y.x.x.x.y.x.x.y.e.e.l.B.M.M.M.M.N.N.m.N.N.N.N.N.N.N.N.N.",
"N.n.m.N.N.m.N.N.M.m.M.N.m.B.m.t.1.m.B.b.l.x.l.l.x.e.y.x.y.y.y.e.2.x.M.M.m.B.M.m.N.m.m.N.N.N.m.N.m.N.",
"V.m.N.m.m.m.m.m.m.m.m.m.N.b.e.2.B.B.x.t.x.y.x.x.x.y.y.x.x.y.x.y.t.2.l.m.N.m.M.m.N.N.m.m.b.N.n.N.m.N.",
"N.n.m.m.m.m.m.m.m.m.m.N.m.t.2.l.V.x.t.x.x.x.y.y.x.x.e.x.y.x.y.x.y.e.2.x.m.m.m.m.m.m.m.m.N.m.m.m.m.N.",
"N.m.m.b.m.m.m.m.m.m.n.m.t.1.x.V.e.x.x.x.x.e.x.x.e.x.b.x.x.x.y.y.x.y.0.2.x.M.m.m.m.m.m.m.b.m.m.m.n.N.",
"N.m.b.m.b.m.b.n.m.m.m.t.1.x.V.x.x.y.x.e.x.b.x.x.x.x.y.x.y.x.x.x.l.y.l.2.2.l.m.m.m.m.b.m.b.m.m.b.b.m.",
"n.b.b.m.b.m.b.m.b.m.t.>.v.B.l.l.x.l.x.y.y.l.l.l.x.y.t.z.y.t.y.y.t.t.t.t.2.,.y.n.n.m.b.m.n.b.m.b.b.m.",
"b.c.v.v.v.v.x.x.b.t.>.x.m.l.t.y.y.y.y.y.t.t.y.t.t.0.e.y.t.t.9.t.t.2.2.2.t.2.2.y.y.v.v.v.x.x.x.x.x.v.",
"k.k.z.l.l.x.v.z.t.,.y.V.z.9.t.9.t.e.t.2.t.t.2.e.t.t.2.9.t.0.t.e.t.9.t.t.2.2.,.2.t.x.y.y.z.z.z.l.l.z.",
"b.v.b.x.z.x.b.l.,.t.V.y.y.y.t.t.0.t.9.t.t.y.0.t.t.y.t.t.y.0.t.t.2.t.t.y.t.t.2.1.1.x.v.x.x.b.b.x.l.b.",
"m.x.b.b.b.v.l.-.t.B.y.y.y.y.y.y.y.y.y.y.t.t.l.l.y.l.l.l.y.y.t.y.y.y.y.y.y.y.y.t.1.,.z.m.v.v.b.x.v.n.",
"b.b.x.x.b.l.-.k.n.y.y.y.t.t.y.y.y.y.t.y.y.y.t.y.t.y.t.t.y.y.l.y.y.y.t.y.t.y.y.t.t.2.1.y.b.x.b.x.v.b.",
"b.v.b.v.l.-.l.b.y.t.t.y.t.t.t.t.t.y.t.y.t.y.t.t.q.t.t.t.t.t.t.t.t.t.t.y.t.t.t.y.t.9.,.<.t.b.x.b.x.v.",
"v.v.x.2.-.l.b.x.0.y.t.t.t.t.t.t.t.t.t.t.t.t.t.t.t.t.t.t.t.t.t.t.t.t.t.t.t.t.y.t.t.t.t.,.2.t.b.x.x.b.",
"b.z.l.&.9.m.y.t.t.t.t.t.t.t.t.t.t.t.t.t.t.t.t.t.t.t.t.t.t.t.t.t.t.t.t.t.t.t.t.t.t.t.t.9.,.1.y.b.v.l.",
"b.l.>.2.B.t.t.t.t.9.t.t.0.t.t.t.t.t.0.0.0.t.0.0.q.t.t.0.0.t.t.0.0.0.t.t.t.9.0.t.9.t.t.0.2.,.,.y.v.k.",
"2.>.l.v.t.<.t.9.2.2.9.2.9.9.0.0.9.2.9.2.9.2.2.9.2.9.2.9.0.9.9.0.2.9.9.0.9.9.t.9.9.9.9.2.9.9.,.,.1.<.",
":.&.2.v.<.<.<.<.<.<.2.2.<.<.9.2.,.9.0.9.9.9.2.,.9.9.9.2.9.2.<.2.<.2.<.2.<.<.2.2.2.9.0.9.2.2.,.-.-.>.",
"z.<.>.9.9.9.9.9.9.9.9.2.9.9.9.9.0.0.t.9.t.9.9.9.0.9.9.9.9.9.9.9.9.0.9.9.9.9.9.9.9.9.0.0.2.,.-.y.z.<.",
"b.k.<.-.2.t.t.9.9.t.t.0.t.9.0.0.0.0.0.0.9.0.t.0.t.0.t.0.0.0.9.t.0.0.0.0.t.9.0.9.9.t.t.9.<.>.9.n.b.z.",
"x.z.z.<.>.2.9.9.9.9.t.0.9.0.0.0.0.0.0.0.7.0.0.0.9.0.0.0.9.0.0.0.0.0.0.9.0.0.9.t.0.0.9.,.%.9.I.y.k.z.",
"x.z.z.q.,.-.<.t.9.t.9.9.9.0.9.9.9.0.9.0.9.9.0.0.9.9.9.7.0.9.0.9.9.0.9.0.9.9.9.0.9.0.,.=.6.I.q.n.z.z.",
"c.y.y.y.t.,.-.<.0.0.0.2.0.2.0.2.9.9.9.9.9.9.9.9.9.9.9.9.9.7.9.9.9.0.9.9.9.0.2.0.0.<.=.t.I.y.y.y.l.k.",
"I.y.c.y.y.t.,.>.<.2.0.7.<.7.<.7.6.9.9.6.9.6.9.6.9.6.6.9.9.6.9.9.6.2.6.6.0.<.7.0.-.-.0.v.y.q.y.y.k.l.",
"q.q.y.n.y.y.y.;.=.>.0.<.7.2.0.2.9.9.9.6.9.9.9.9.9.9.9.9.6.9.9.9.9.6.7.9.<.0.<.>.=.7.v.c.I.q.q.y.l.k.",
"I.y.y.n.y.y.y.q.>.-.<.<.2.7.<.<.<.<.9.6.<.<.6.9.6.6.6.<.,.9.6.6.9.6.9.6.<.0.;.=.6.v.z.z.y.y.y.y.l.l.",
"8.y.y.y.y.y.y.y.0.=.=.<.<.<.>.:.;.,.<.<.,.<.9.6.,.<.<.,.,.6.,.9.<.<.<.>.<.,.&.:.c.y.y.y.y.y.y.y.k.l.",
"5.9.6.6.9.0.q.0.0.9.=.=.;.>.:.<.,.,.,.;.,.,.;.,.,.;.,.;.,.,.<.,.:.-.<.>.,.$.2.c.q.q.q.9.6.q.9.9.k.k.",
"q.0.0.0.q.9.7.q.y.y.q.=.=.>.<.<.,.,.<.<.,.,.,.;.-.;.<.<.<.,.,.,.:.<.<.>.#.2.z.l.9.q.t.0.9.9.9.y.l.k.",
"y.y.y.y.y.y.0.y.y.y.t.7.-.$.<.<.6.6.9.<.<.,.6.,.,.<.<.6.<.:.,.,.<.<.>.$.<.z.k.:.t.t.y.y.q.0.q.y.l.k.",
"y.y.l.k.k.z.t.k.k.k.l.2.:.&.=.,.<.<.<.<.<.<.<.<.<.<.<.<.9.<.<.<.l.$.H :.z.c.l.k.:.l.k.l.k.l.k.l.k.k.",
"d.q.0.k.q.q.q.q.l.k.k.k.k.2.$.$.:.<.:.<.<.:.<.<.<.<.4.,.4.<.<.4.:.$.>.l.k.k.k.l.k.k.k.k.k.l.:.k.:.k.",
"x.k.q.k.q.q.q.q.k.2.k.k.k.l.<.#.&.:.:.<.:.<.<.:.4.4.<.<.,.4.<.-.H -.l.k.l.k.l.:.k.l.:.l.k.k.k.k.l.k.",
"k.0.q.0.q.q.q.y.k.2.k.k.k.k.k.<.$.$.>.:.<.:.:.<.<.,.,.4.<.,.;.#.&.k.k.l.k.k.k.k.:.k.k.k.l.:.l.k.k.k.",
"k.k.k.k.q.q.q.q.k.l.:.<.<.k.k.k.<.#.#.>.:.:.:.>.<.:.;.:.,.*.#.,.k.k.k.-.k.k.k.:.k.l.k.k.k.k.l.k.k.l.",
"k.7.2.k.q.7.7.7.k.k.k.k.k.k.<.k.k.:.$.$.;.:.:.:.:.;.:.:.%.#.-.q.k.k.k.k.:.:.k.k.k.:.k.:.-.k.k.*.k.;.",
"7.:.<.:.k.7.<.<.<.:.:.k.:.:.k.:.:.k.:.H $.-.;.-.&.*.;.-.K -.q.q.k.;.k.l.k.:.l.k.l.:.:.k.k.k.k.;.&.k.",
"7.;.:.:.:.<.:.:.:.:.:.:.:.:.:.k.:.:.2.;.H #.$.&.=.&.$.#.$.k.8.6.-.k.K :.:.:.:.k.*.k.:.:.&.k.;.k.k.H ",
"7.7.:.:.:.k.:.k.*.:.:.k.k.*.:.k.H k.-.k.H S H -.-.&.H &.k.l.k.;.:.&.l.*.k.&.k.k.H k.H k.H H &.k.&.k.",
"k.7.7.k.k.:.k.:.:.k.:.k.:.k.;.k.k.k.k.k.k.-.H H H H H l.k.k.*.k.k.k.k.k.k.&.k.-.-.k.k.&.k.k.H k.k.k.",
"k.:.4.7.:.k.:.k.k.k.*.*.L k.k.:.k.*.k.:.k.k.H H l H k.k.*.:.k.k.&.k.&.k.k.k.k.*.k.k.k.k.k.&.k.k.k.*.",
"k.4.k.k.k.:.k.5.k.:.k.k.k.:.k.k.k.L k.k.k.&.k.H H k.k.k.k.k.:.k.k.k.*.k.K k.k.k.k.&.&.k.k.k.k.*.*.k."
};
