/* XPM */
static char *result[] = {
/* columns rows colors chars-per-pixel */
"100 50 240 2 ",
"   c #000000",
".  c #00000E",
"X  c #170000",
"o  c #1C0000",
"O  c #000016",
"+  c #280000",
"@  c #360500",
"#  c #370B17",
"$  c #02002B",
"%  c #01003B",
"&  c #030439",
"*  c #081B35",
"=  c #29123B",
"-  c #282423",
";  c #322D33",
":  c #4A0000",
">  c #690000",
",  c #750000",
"<  c #4C2D02",
"1  c #5D261A",
"2  c #4A3433",
"3  c #553534",
"4  c #58513B",
"5  c #724B31",
"6  c #6C543D",
"7  c #6E603F",
"8  c #0F1445",
"9  c #1F1B5D",
"0  c #242748",
"q  c #24314F",
"w  c #36354C",
"e  c #253250",
"r  c #383A5B",
"t  c #0F006E",
"y  c #080072",
"u  c #2F3C61",
"i  c #4F3847",
"p  c #6A2A6A",
"a  c #36445C",
"s  c #3A4865",
"d  c #284773",
"f  c #474457",
"g  c #584E51",
"h  c #64544B",
"j  c #6B4F55",
"k  c #675854",
"l  c #746352",
"z  c #504869",
"x  c #43546C",
"c  c #4A526A",
"v  c #585366",
"b  c #475674",
"n  c #455972",
"m  c #4C5C74",
"M  c #4B5D7B",
"N  c #535F76",
"B  c #704D6F",
"V  c #4F6077",
"C  c #4D617D",
"Z  c #536076",
"A  c #53647C",
"S  c #58687F",
"D  c #756A67",
"F  c #746E71",
"G  c #8A0A00",
"H  c #863A1C",
"J  c #A23A00",
"K  c #B04D0F",
"L  c #9F4334",
"P  c #AF5630",
"I  c #907758",
"U  c #B56748",
"Y  c #B86D54",
"T  c #B57357",
"R  c #876B73",
"E  c #837B78",
"W  c #C26B54",
"Q  c #9E8868",
"!  c #89837B",
"~  c #A58C69",
"^  c #A9926C",
"/  c #B5996B",
"(  c #B49C76",
")  c #C79277",
"_  c #4E6382",
"`  c #4A6587",
"'  c #526683",
"]  c #596680",
"[  c #556984",
"{  c #596B85",
"}  c #526689",
"|  c #566A8C",
" . c #5A6E8C",
".. c #5F7087",
"X. c #5D718E",
"o. c #4A6996",
"O. c #566D92",
"+. c #5A6E91",
"@. c #5D7293",
"#. c #53739E",
"$. c #5E7599",
"%. c #66758D",
"&. c #6F778E",
"*. c #627694",
"=. c #647995",
"-. c #697897",
";. c #617699",
":. c #647A9C",
">. c #697D9D",
",. c #5255B3",
"<. c #5964BF",
"1. c #6C65A1",
"2. c #667DA1",
"3. c #697EA1",
"4. c #637FAA",
"5. c #4F5BCC",
"6. c #5A67C7",
"7. c #696EC6",
"8. c #6D78DB",
"9. c #6D7BE7",
"0. c #717EEA",
"q. c #856886",
"w. c #91758F",
"e. c #AC7DB1",
"r. c #6C819E",
"t. c #78869D",
"y. c #6B81A5",
"u. c #6781A9",
"i. c #6A84AB",
"p. c #6D84AA",
"a. c #7184A5",
"s. c #7D8BA2",
"d. c #7C8BA6",
"f. c #7187AB",
"g. c #7289AD",
"h. c #6E8AB3",
"j. c #6C8AB8",
"k. c #758DB2",
"l. c #788FB5",
"z. c #738EBA",
"x. c #7991B6",
"c. c #7591BB",
"v. c #7C94BA",
"b. c #7783EE",
"n. c #7B89F8",
"m. c #8D858A",
"M. c #948D86",
"N. c #9A958D",
"B. c #9D9793",
"V. c #A78D82",
"C. c #A99B8A",
"Z. c #A39C95",
"A. c #A4A19C",
"S. c #AAA69C",
"D. c #B6A994",
"F. c #808EA4",
"G. c #808FA9",
"H. c #8290A7",
"J. c #8292AC",
"K. c #828EB1",
"L. c #8596B3",
"P. c #8798B6",
"I. c #899AB7",
"U. c #8197BE",
"Y. c #8198BE",
"T. c #8C9EBB",
"R. c #AC8FB0",
"E. c #8FA0BD",
"W. c #93A2BF",
"Q. c #A9A5A2",
"!. c #ADAAA5",
"~. c #B1ABA7",
"^. c #B7B3AC",
"/. c #B6AEB5",
"(. c #BAB8B4",
"). c #CDB48E",
"_. c #CDA596",
"`. c #C092BE",
"'. c #D4B3A7",
"]. c #C3BDB6",
"[. c #C1BFB9",
"{. c #D7BDB2",
"}. c #E5CB9F",
"|. c #D4C1A4",
" X c #C6C3BA",
".X c #DCC6BB",
"XX c #E5CCA2",
"oX c #E9D1A9",
"OX c #ECD7B7",
"+X c #F1DAB3",
"@X c #F8E2BD",
"#X c #859CC1",
"$X c #BD98C0",
"%X c #95A5C3",
"&X c #97A8C5",
"*X c #99A9C6",
"=X c #9BABC9",
"-X c #A6B3CB",
";X c #C59DC9",
":X c #C9A5CD",
">X c #CEA5D3",
",X c #D4ABD8",
"<X c #DAB3DC",
"1X c #DAAFE3",
"2X c #DDB2E4",
"3X c #E3B7EA",
"4X c #E5BAEC",
"5X c #EABEF0",
"6X c #CAC7C1",
"7X c #CDCBC4",
"8X c #D1CEC8",
"9X c #D6D4CC",
"0X c #D6CED0",
"qX c #DBDAD4",
"wX c #DDDBD4",
"eX c #E2CEC4",
"rX c #E6D8CA",
"tX c #E5DBD3",
"yX c #ECE0CA",
"uX c #F7E6C8",
"iX c #E4E3DC",
"pX c #ECE4DC",
"aX c #F4EBD8",
"sX c #FAF1DD",
"dX c #EAC8EE",
"fX c #E5D7E3",
"gX c #EDC1F4",
"hX c #F3C6F9",
"jX c #ECEAE3",
"kX c #EBE8E5",
"lX c #F2EEE5",
"zX c #F0EFE8",
"xX c #F9F4E7",
"cX c #F5F5EE",
"vX c #FBF9EE",
"bX c #F7F7F0",
"nX c #F9F6F2",
"mX c #F7F9F3",
"MX c #FBFBF4",
"NX c #FEFFFA",
/* pixels */
"-X%X*X%X%X*X*X*X*X=X*X*X*X*X*X*X*X*X*X*X*X*X%XT.T.%X&X%X%X%X%X%X%X=X*X*X*X*X*X*X=X=X=X&X&X=X=X%X=X%X*X%X%X%X&X*X*X*X&X*X*X=X*X*X%X%X=X=X*X*X*X*X%XE.T.%X%X%X*X*X%XW.%X=X=X=X%X=X*X*X*X*X*X*X=X%X%X*X%X-X",
"#Xj.c.z.z.z.z.z.z.z.z.z.z.z.z.z.z.z.z.z.z.z.z.#.o.4.v.z.z.z.z.z.c.z.z.j.z.z.z.z.c.c.z.z.z.z.z.z.z.z.z.c.z.z.z.z.z.z.z.z.z.z.z.z.z.z.z.z.z.z.z.z.j.#.o.4.z.z.z.z.z.z.z.z.z.z.z.z.c.c.c.z.z.z.z.z.z.c.j.#X",
"%Xv.Y.U.v.#XU.v.#XU.#Xv.U.U.#Xv.v.#X#Xv.#Xv.p.2.2.2.p.#X#Xv.U.#X#X#X#X#X#X#X#X#X#Xv.v.v.v.#Xv.#XU.#X#Xv.v.#XU.v.U.#XU.#XU.U.U.#X#Xv.#X#X#X#XU.v.3.2.2.2.f.#Xv.#XU.U.U.#Xv.#X#X#XY.v.Y.v.v.#Xv.#Xv.#Xv.&X",
"%Xz.U.v.v.v.v.v.v.v.v.v.v.v.v.v.v.v.v.v.z.2.O.v.f.2.2.4.l.l.l.x.l.v.l.c.h.l.v.v.v.v.v.v.v.v.v.v.v.v.v.v.v.v.v.v.v.v.v.v.v.v.v.x.v.v.x.v.x.v.k.2.#.v.f.2.2.p.z.k.v.l.l.v.v.v.l.k.#Xv.v.v.v.v.v.v.v.#Xz.%X",
"P.i.k.l.l.l.l.k.k.k.l.x.v.v.l.l.l.l.l.k.3.$.l.v.h.3.2.2.3.h.l.k.g.l.l.v.4.k.l.l.l.k.k.x.k.k.k.k.k.k.k.k.k.k.l.l.l.k.g.l.l.v.v.v.l.l.l.k.k.k.4.$.l.U.k.u.2.:.p.k.k.z.g.l.l.x.g.k.x.k.x.k.k.x.x.k.k.k.h.T.",
"P.u.f.p.p.g.k.g.u.p.h.k.l.l.l.k.k.k.g.2.$.f.#Xp.3.f.3.2.2.4.g.k.k.g.z.g.k.k.k.k.k.g.u.g.k.k.g.f.p.p.p.f.p.p.h.p.k.g.f.4.f.k.l.z.z.k.k.k.h.2.:.g.#X3.u.f.3.:.2.f.g.g.k.k.g.h.4.k.k.k.k.i.p.g.k.k.p.f.3.I.",
"#Xz.x.k.k.k.l.l.k.g.g.k.k.f.l.z.k.z.4.$.h.#Xp.p.4.f.3.4.;.#.f.v.v.v.l.g.g.l.l.K.x.k.g.x.v.x.k.k.v.v.l.v.l.k.k.k.l.z.k.k.k.g.g.g.l.x.g.l.2.$.g.#Xf.k.b         u v.#X#Xl.x.k.k.x.x.x.x.k.g.x.v.x.k.k.k.%X",
"T.l.x.x.l.x.z.x.x.x.v.l.l.v.x.x.x.2.O.g.#Xi.u.p.p.4.p.p.3.2.$.4.v.l.v.l.v.x.x.c.x.x.x.x.x.x.x.x.v.l.z.x.l.l.l.l.x.l.x.x.x.l.x.v.x.x.x.4.O.g.#X2.9 & Z.8X6X6X8XQ.$ 9 3.#Xk.v.c.K.x.x.x.x.x.x.x.x.z.v.k.#X",
"E.k.x.l.x.x.x.x.x.x.x.x.x.l.v.l.3.#.k.v.f.3.3.u.i.3.4.p.i.3.$.$.3.U.x.l.v.z.l.x.l.l.x.x.x.x.x.x.l.l.l.l.x.x.x.x.x.x.x.x.x.x.x.x.v.l.2.O.l.U.3.&.S.M.9XNXNXMXNXiXM.Z.F 4.v.l.x.x.x.x.x.l.x.x.x.x.l.v.k.E.",
"E.k.x.l.x.x.x.x.l.l.l.l.x.x.l.2.O.p.v.f.3.4.p.u.4.3.p.3.3.i.4.2.$.4.l.l.l.l.l.x.l.l.l.x.x.x.k.k.l.l.l.l.x.x.x.x.l.l.l.l.x.l.l.x.k.2.#.p.g.f.u l zXMXMXcXcXcXcXbXMXNXB.v l.l.x.l.l.x.l.l.k.x.x.x.l.l.k.E.",
"E.g.l.l.k.x.x.k.l.l.l.l.z.k.2.#.p.x.h.3.p.3.p.3.p.3.4.p.4.p.3.3.2.$.4.x.l.l.l.k.l.l.l.l.x.x.x.k.l.l.l.l.l.l.k.k.l.l.l.l.k.k.l.k.2.$.k.k.# o + o @ iXNXMXcXcXcXcXcXcXmX{.L c.l.l.x.k.l.k.k.x.k.x.k.l.h.#X",
"E.h.l.k.k.k.k.k.l.k.k.l.l.2.@.y.#Xp.2.p.u.p.u.p.3.p.3.p.p.3.p.p.4.$.$.f.k.k.l.l.k.k.l.k.k.k.k.k.l.k.l.l.g.l.k.k.l.k.k.k.k.l.k.2.3.b   f 0XwXwXwXqXm.2 S.NXMXNXNXNXNXNX X: p.k.l.l.x.k.k.k.k.k.k.k.k.g.T.",
"E.h.k.k.k.k.k.k.k.k.k.x.2.@.u.#Xi.4.p.u.p.4.i.i.p.i.3.i.4.p.3.4.3.3.$.#.4.K.k.k.k.k.k.k.k.k.k.k.k.k.k.k.k.k.k.k.k.k.k.l.l.k.2.$.d Z.^.].MXNXMXMXMX[.!.~.Q.^.!.!.Q.Q.{.V.& :.k.l.k.k.k.k.k.k.k.k.k.k.g.E.",
"P.i.k.k.k.k.g.k.k.k.k.2.O.u.v.u.i.3.3.3.p.p.3.3.3.i.i.3.i.3.p.3.3.4.3.$.2.f.l.k.k.k.g.k.k.k.k.g.k.k.d.k.g.k.k.k.k.k.k.k.k.2.O.+.F wXNXNXcXbXcXcXcXMXNXiXk   g D D F J G * M _ 2.x.k.k.k.k.k.k.k.k.k.g.T.",
"E.g.k.k.k.g.k.k.k.k.2.O.p.x.f.3.i.3.i.3.3.3.3.3.4.2.2.3.2.2.2.2.2.2.2.$.O.+.4.l.k.g.k.k.g.k.g.k.k.k.k.k.k.k.k.k.g.k.k.g.2.;.| h zXMXzXcXcXcXnXbXnXcXcXMXcXg 7XNXMXNX_.H ; 3 < Z y.d.k.k.g.k.k.k.g.k.h.T.",
"x.u.f.f.f.f.f.f.g.2.+.y.k.p.:.2.3.2.2.3.3.2.2.2.2.2.2.3.2.$.2.2.2.;.$.2.2.+.$.3.p.g.g.f.f.f.p.f.a.f.p.f.p.f.p.f.f.f.p.2.2.x E jXzXvXNXNXMXNXbXcXcXnXcXMXcXo  XNXcXcXlXpXcXjXcXB.  = f.x.g.f.a.p.p.f.u.L.",
"H.r.y.y.u.a.f.p.:.O.2.v.3.:.:.;.2.;.;.2.2.2.$.$.2.2.$.$.2.$.2.:.2.:.2.2.:.$.O.O.3.p.p.3.3.y.u.3.r.y.r.i.g.p.3.p.p.p.u.:.u   M.MXNX(.! N.M.! 8XNXbXbXbXbXcX8XiXMXcXbXbXMXMXvXMXiX7X7Xf % ` g.u.r.y.y.2.x.",
"x.u.g.p.y.g.g.r.O.2.v.3.2.2.2.2.$.2.2.2.;.2.$.2.2.3.2.2.4.$.2.2.$.$.2.2.2.:.:.O.@.p.p.y.p.g.k.p.i.g.p.` _ +.g.g.x.+.u s A.k ! MX7Xw.p B B p w.0XmXmXbXbXbXMXMXbXbXbXcXbXbXcXbXMXNXMX~.Q I C f.g.f.f.2.I.",
"I.i.g.g.i.h.r.o.2.x.3.3.3.3.4.3.2.2.2.2.2.2.2.2.2.2.2.2.2.2.3.3.2.2.y.2.2.2.2.2.O.@.u.k.k.p.f.f.g.g.r.k 3 B p.a.O.S l j bX~.D pX3 e.1X,X>X1Xw.j kXcXmXbXbXcXbXbXbXbXcXcXcXbXbXcXcXcXNXaX).v r.y.g.g.i.I.",
"I.i.g.f.g.r.} r.l.p.3.2.2.2.2.2.2.2.2.2.2.2.2.2.2.2.2.2.2.2.2.3.2.2.2.2.2.2.2.2.2.@.@.y.k.p.k.p.h.y.i 3X3Xw.o 2   ~.MXzXNX~.: U ;X3X5X5X5X>X;X`.@ iXmXcXbXbXbXbXbXcXcXcXcXcXcXbXbXbXcXcXbXkX2 X.x.f.y.I.",
"P.u.g.g.r.O.r.g.3.2.2.2.2.:.2.2.:.2.2.2.2.2.2.2.2.:.2.2.2.:.:.2.2.2.2.2.2.2.:.2.2.$.O.@.2.g.f.f.p.p.-.j >XgX;X# ].cXbXcXNXA.+ W <X5X5XgX5X5X1X`.- pXMXcXcXcXbXbXbXbXMXNXNXNXMXbXcXbXcXbXbXcXiXF d z.y.I.",
"P.u.f.:.O.$.g.i.;.2.2.2.2.2.2.:.2.2.2.:.2.2.2.2.2.2.;.2.2.2.2.2.2.2.:.2.2.2.2.2.2.2.$.O.$.2.f.f.p.p.p.n q.,XgX  qXNXcXbXnXwXZ., dXhX5X5X5X5X1Xe.  tXNXcXbXbXcXMXbXfX/.A.S.S.rXsXbXnXbXbXcXbXNX'.Q w.y.I.",
"P.u.2.O.$.k.i.$.2.2.2.2.2.2.2.2.2.2.2.2.2.2.2.2.2.2.2.2.2.2.2.2.2.2.2.2.2.2.2.2.2.2.2.$.O.$.4.f.p.y.>.f.* &.;XI qXMXcXbXcXNXiXE ;X3XhX5X5XhX4X;XM.jXMXcXvXnXcXcXfXR.l l F 5 / yXmXcXbXbXbXbXcXaX) J i.L.",
"P.$.O.@.x.y.:.2.2.;.;.:.2.;.2.2.:.:.2.:.:.:.2.;.;.2.2.;.2.:.:.2.:.:.2.:.:.:.:.2.$.2.2.2.;.+.+.3.a.=.:.[ O.a < oXlXbXcXnXcXcXMXMXg $X5X3X5X5X4X5XcXcXcXnXbXcXMXfXe.+ ).sXbX+X< /.NXcXbXbXbXbXcXNX[.= a.H.",
"d.` ;.g.2.$.;.;.$.$.;.;.$.;.:.:.;.;.$.$.@.$.$.;.$.$.;.;.:.:.:.:.$.$.$.:.$.:.:.:.$.$.$.;.;.;.| +.+.| } M  .c h jXvXcXcXcXbXbXbXcXcXN.+ j 3 3 3 5 Y pXMXcXbXcXNX9X# # qXbXcXcXh (.NXcXnXbXbXbXbXcXcXwXP m.",
"r.` :.g.+.+.$.$.+.$.$.$.$.+.$.@.+.;.;.;.$.$.+.+.$.;.$.@.;.@.+.$.@.O.@.@.$.O.$.$.$.;.;.@.@.$.+.} } } _ M  .m h cXMXcXMXbXbXbXbXcXMXiXZ.  <.6.6.,.1 iXMXxXbXcXNX X    |.MXMXuX4 /.MXcXcXbXbXbXbXcXmXiX> &.",
"G.o.+.:.2.$.$.;.$.;.$.@.$.$.*.$.;.2.2.;.;.:.$.;.;.:.:.$.$.;.$.$.;.$.$.$.;.;.$.@.$.;.2.;.$.| | 3.3.@.$.} | r 3 cXbXcXbXbXMXbXbXbXzXNXwX& #X0.n.9.X iXMXcXbXcXMX0XR ~.V.).].( > ].NXcXbXcXbXbXbXcXNXiX  -.",
"I.2.+.} ;.;.;.:.;.:.:.:.2.;.;.:.;.;.:.;.:.:.:.:.:.;.:.:.:.;.:.:.:.:.:.:.:.:.;.:.;.2.;.;.+.| ;.l.g.2.p.:.M v E cXMXcXbXbXcXcXbXbXbXcX^.& 9.0.0.7.D iXMXcXbXbXMXfX,XnXq.    @ U eXMXcXbXmXbXbXbXzXlX7X+ t.",
"K.2.3.+.+.+.;.;.;.;.;.-.2.;.:.;.;.;.:.;.:.;.:.;.:.;.;.;.;.:.:.:.:.$.$.:.;.;.=.:.:.;.2.+.| $.l.a.3.a.3.f.8 Z.nXcXbXbXbXbXbXbXbXcXMXB.  # X 8.,.7 vXbXcXbXcXbXbXvXzX;XB   3 K pXvXcXbXbXbXbXbXbX@X(   @ t.",
"L.2.a.3.+.} $.:.;.2.;.;.;.;.;.;.:.;.;.:.;.;.;.;.;.;.;.;.;.;.;.;.:.:.=.=.;.;.;.:.;.:.+.} :.d.y.a.a.y.a.f.& Z.MXnXcXbXbXbXbXcXMXMXD (.kXwXXXj A.cXcXcXNXpXU Y U ) OXkXiXtXpXaXnXvXcXbXbXbXbXbXbXlXrX).+ &.",
"K.2.3.y.2.+.} +.;.;.;.;.;.;.;.;.;.;.*.;.*.;.;.;.;.;.;.;.;.;.*.;.$.$.;.;.;.*.$.;.;.+.} 2.f.p.y.y.a.y.3.a.& Z.MXcXbXbXbXbXcXMXiXQ.^.kXMXuX^ 1.K.].MXMXeX_..XeX.XrXxXMXMXMXMXMXnXcXbXbXbXbXbXbXcXNX9XQ c t.",
"J.2.a.y.y.>.O.} +.;.;.;.$.*.@.;.;.$.$.@.;.*.*.$.$.*.@.;.*.;.;.@.$.*.*.$.*.$.;.$.+.} :.f.f.3.r.y.y.a.3.a.& N.NXbXbXbXbXvXcXNX8X  bXNXyXC.9 0.5.z 8XbX.X_.NXtXtXtXrXaXcXcXcXcXnXcXbXbXbXbXcXbXcXvXD.  ..t.",
"K.3.a.3.3.a.:.+.} @.;.*.$.;.$.;.;.;.*.;.$.;.;.@.;.;.*.;.*.*.$.*.;.$.*.$.*.;.@.+.} ;.a.a.3.3.3.3.3.3.3.a.& B.MXnXcXnXbXbXcXMX9X2 pXMX X& b.b.n.9.. tXNXnXjXY K K U XXlXbXcXbXbXbXnXnXcXcXnXcXcX+X^ 0 { t.",
"J.3.3.3.3.3.a.:.O.} O.*.$.*.@.@.@.@.@.;.@.*.@.;.@.@.$.@.@.$.$.$.*.$.;.@.@.;.+.} +.d.a.3.a.3.3.3.a.3.>.3.& Z.MXnXcXnXbXbXcXNX9X  MX!.  z b.b.#X8.; tXNXtXP iXxXlXcXvXcXMXMXMXbXcXcXnXcXcXbXbX+XI w ..[ s.",
"K.>.3.3.3.3.2.3.:.} } +.@.+.+. . .+.+.+.+.+.@.@.+.+.@.+.+.@.@.@.@.@.@.+.@.+.} +.g.3.3.3.2.3.3.3.3.3.-.>.% Q uXcXcXbXbXbXnXbXzX8XE (.!.  t t y 9 G pXNXkXrXbXMXbXbXbXMXeXT ) OXxXNXnXNXNXwXE I v V  .` s.",
"d.+.;.*.;.2.:.:.:.@.} } |  .+.@. .+.+.|  .+.+.+. .+. .| O. .@.@. .+.+. .+.} +.a.2.-.:.;.:.:.;.;.@.*.@.%.b l ( cXnXcXcXbXbXcXMXMXS.iXjXA.!.D.!.~.{.rXzXnXNXbXcXcXcXcXMXtX_._./ D. XaX].[.B.  8 n ' A C t.",
"d.$.:.:.-.-.:.>.3.2.;.} } O.@.@.+.@.+.*.+.+.+. . .+.+.+.@.| O. .+.+.+.} _ ;.a.2.:.:.2.:.;.=.*.:.:.-.:.@.] z R lXbXbXbXbXbXbXcXcXNXbXvXNXvXvXvXvXxXoXyXxXlXnXbXbXnXnXnXnXNXNXq.= R ).<   w { S C A X.| s.",
"G.2.3.2.3.3.-.2.3.3.>.;.[ ` +.@.@.@.@.@.+.+.@.+.+.+.@.@.@.+. .O.+.+.+._ +.3.3.:.:.>.3.>.:.:.:.2.3.2.:.>.* w.hX}.aXnXcXnXcXcXcXcXcXlXcXzXXX}.}.}.XXoXoXXXoXlXbXcXcXcXcXbXbXmX>X2X,X  _ ] S A C [ X.*.$.d.",
"G.:.3.>.3.>.3.3.3.3.3.3.$.' ' O.+.*.+.@.*.*.+.*.@.@.@.@.@.@.@.@.*.| '  .a.a.3.3.>.3.3.3.3.3.r.>.3.3.-.; R.5X5X,Xq.C.uXNXMXMXvX+X@XC.k D 6 6 6 6 6 6 6 5 6 D k C.@XOXcXNXmX:X2XhX,X  N A S [  ...*.=.$.J.",
"G.:.>.>.>.>.>.>.>.3.3.-.r.$.' ' +.+.+.*.+.+.*.+...@.@.@.X.@.X.X.| }  .a.3.>.>.>.>.>.>.>.>.>.r.:.>.>.-.  >XhX,Xq.r l ~ Z.S.A.N.Q Q h & 0 q q q q q q q e q 0 & h Q Q Z.Z.~.3XhX>XR @ N [ { { ..*.*.r.*.H.",
"G.;.>.>.>.>.>.>.r.$.r.r.r.=.@.A ' +.+. .@.+.X.@.O.X.@.@.X.O.X.| }  .3.>.:.r.=.r.:.=.r.:.:.r.=.r.>.>.-.  :X2Xw.; m c $       O & $ a V V V V V V Z Z V V V V S s O $ .   g >X>XR   f A ....X.*.*.:.r.=.J.",
"G.*.r.=.:.>.>.>.r.=.r.$.:.r.r.X._ '  .+. .@.@. .X.O.X.X.X.@.| ` } a.>.>.r.:.r.:.:.r.:.r.r.:.r.:.>.-.*.  ;X;X  [ Z Z S S S S S S S V s s n n n n x n n n n n n n n c m ..V     + f | { ..@.=.=.r.:.>.$.H.",
"d.$.>.>.:.>.>.=.=.r.r.r.r.r.=.r.@._ _  .@. . . .X.X. . .X.| C [ >.y.-.>.r.:.=.:.>.=.=.:.r.:.=.:.:.=.@...f 5 P V A A A V V V A V A A A s x V V V V V V C V V V n s n A A V Z Z V N ]  .@.*.=.:.=.>.>.@.H.",
"F.$.>.=.>.=.=.=.r.=.X.$.$.=.r.$.-.@.N }  .X. .X. . .X. .[ C | r.r.=.=.>.=.=.r.r.=.>.=.r.=.=.r.=.=.*.....b g F A A A A A A S A A S { { A n m V C A V C C V V V s m S { Z A A A A [ { ..*.=.=.r.r.=.>.@.H.",
"d.X.=.@.=.=.*.X.X.X.r.r.X.@.:.=.=.=.X.C C [ | | [ |  .| C { r.r.=.=.*.*.*.:.=.=.=.=.=.=.:.=.=.r.*.@...[ A C ` A A ' A A [ [ A ' { ..X.X.' n C C ' A C ' _ C n V ....A ' A A A A [  .%.*.*.=.=.=.r.$.@.s.",
"t.' X.X.=.X.X.X.X.X.X.X.X.X.X.X.@.@.@. .C C } [ ' [ _ C _ r.:.X.X.*.X.X.@.X.=.=.*.*.X.@.*.*.=.=.X.{ { A V V A S [ ' [ ' { { [ [ { {  .X.@.' V C _ _ ' ' C C _ r.@.{ { [ ' A A A {  . .X.X.*.@.X.X.r.[ t.",
"t.@.=.X.*.=.*.*.X.@.@.@.r.X.@.=.X.@.$.=. .M C [ | [ C C r.:.=.*.X.*.*.*.*.=.*.@.X.@.X.X.X. .X.X.@.*.X. .{ S [ ..X.@.{ ....X.X.X.X.=.X.X.$.=.X.C C {  ._ V ' r.=.*.X...X.X.X.{ X. ...X.X.X.X.@.X. .X.X.d.",
"s.@.:.*.=.=.=.*.X.=.=.=.=.=.=.=.=.=.=.=.*.X.C C C C ' r.r.=.*.=.=.*.*.=.=.=.=.=.=.*.*.*.=.*.X.@.=.*.*.X.X.X.X.X.X.r.r.X.$.X.r.$.X.r.=.$.=.=.$. .C C ` V A r.r.=.*.*.*.*.*.X.X.*.*.*.*.=.*.*.*.@.X.$.X.s.",
"s.X.r.@.r.X.r.X.r...X.r...X.r...r.X.r.r.X.=. .C C [ *.r.=.*.=.=.X.r.r...r...=.X.r.X.%.r.X.r.=.r.=.=.=.=...=...=.=.%.=.=.%.=.=.=...r.X.X.r...r.X.[ C C [ =.r.@.*.X.r.r.X...r...r.r.....r...r.X.r.r.%...s.",
"s.X.r.@.X.....r.r.X.r...X.r...r...r...X.=.X.=.A n X.r.$.*.*.%.*.X.@...r...r.X.r...r.X.X.=.%.X.X.%.*.X.%.=.=.*.=.=.X.=.=.X.=.%.=.r...X.r.r.X.X.X.$.C C X.r.@.*.*.r.X...r.X...r.X...r.X.r.X...r.@.X.r.X.s."
};
