/* XPM */
static char *_2504ac606ee4aa2fd7cc01d17acc576U5z3ZuRlgmzAx8XZ[] = {
/* columns rows colors chars-per-pixel */
"50 50 204 2 ",
"   c black",
".  c #010E07",
"X  c #1A0300",
"o  c #000B12",
"O  c #290000",
"+  c #3A0100",
"@  c #380700",
"#  c #3F1B02",
"$  c #362B0B",
"%  c #000025",
"&  c #000038",
"*  c #12003C",
"=  c #2D003F",
"-  c #35003E",
";  c #35312F",
":  c #411C03",
">  c #573600",
",  c #432518",
"<  c #452C23",
"1  c #745804",
"2  c #4B453B",
"3  c #67513F",
"4  c #715238",
"5  c #040041",
"6  c #1B1645",
"7  c #000058",
"8  c #2E1C49",
"9  c #27264B",
"0  c #3F3E4F",
"q  c #2A2B53",
"w  c #2A3353",
"e  c #343A5C",
"r  c #0D0D75",
"t  c #25127B",
"y  c #373E60",
"u  c #443B46",
"i  c #5E3B4E",
"p  c #433E54",
"a  c #603F50",
"s  c #39455B",
"d  c #3B4464",
"f  c #4E434D",
"g  c #454857",
"h  c #5F5C5A",
"j  c #64544A",
"k  c #695D55",
"l  c #5E625D",
"z  c #7F694E",
"x  c #6F625D",
"c  c #71655E",
"v  c #434965",
"b  c #484C65",
"n  c #454F6C",
"m  c #4A5168",
"M  c #56586B",
"N  c #4E447C",
"B  c #455776",
"V  c #4B5C7C",
"C  c #565C74",
"Z  c #75547A",
"A  c #5E626E",
"S  c #4D617F",
"D  c #58647E",
"F  c #746663",
"G  c #656371",
"H  c #821200",
"J  c #A50000",
"K  c #AF4800",
"L  c #B25B3B",
"P  c #855548",
"I  c #B35E41",
"U  c #887052",
"Y  c #AB655A",
"T  c #BB7155",
"R  c #87506F",
"E  c #877769",
"W  c #926577",
"Q  c #857A77",
"!  c #BB7963",
"~  c #A78A5E",
"^  c #8A8076",
"/  c #8B837C",
"(  c #90877F",
")  c #A7916B",
"_  c #B6996D",
"`  c #B79B78",
"'  c #BAA06F",
"]  c #C4907D",
"[  c #D8AF7E",
"{  c #000789",
"}  c #3F3D85",
"|  c #4A4183",
" . c #4B5E82",
".. c #5C5394",
"X. c #4E6284",
"o. c #546484",
"O. c #576886",
"+. c #5A6D8C",
"@. c #5C718F",
"#. c #566C92",
"$. c #5A6E92",
"%. c #5E7392",
"&. c #5B779B",
"*. c #5D759C",
"=. c #696A82",
"-. c #746580",
";. c #67748F",
":. c #7A7D8D",
">. c #627693",
",. c #647895",
"<. c #6B7C97",
"1. c #62769A",
"2. c #667B9B",
"3. c #697D9C",
"4. c #5859AA",
"5. c #5F60AF",
"6. c #5760BD",
"7. c #657CA2",
"8. c #697EA1",
"9. c #6B77DE",
"0. c #8E7981",
"q. c #99739B",
"w. c #9C6FA1",
"e. c #6E819E",
"r. c #71839F",
"t. c #6B81A5",
"y. c #6D85AB",
"u. c #6F88AE",
"i. c #7184A4",
"p. c #7087AB",
"a. c #7289AD",
"s. c #788DAE",
"d. c #758DB3",
"f. c #788FB2",
"g. c #7A91B6",
"h. c #7D94BC",
"j. c #7F99C0",
"k. c #7582ED",
"l. c #7A87F3",
"z. c #7B8AF9",
"x. c #8F8780",
"c. c #928689",
"v. c #989594",
"b. c #A29988",
"n. c #A39E96",
"m. c #BEAA8F",
"M. c #A7A099",
"N. c #8096BC",
"B. c #849ABD",
"V. c #AB86AE",
"C. c #B492B4",
"Z. c #AAA6A6",
"A. c #ABA8AB",
"S. c #BCB6AB",
"D. c #BCB8B8",
"F. c #C2AD83",
"G. c #C5B9A4",
"H. c #D0BCAE",
"J. c #E1C28F",
"K. c #DAC8A9",
"L. c #C6C4BD",
"P. c #C8C5BE",
"I. c #DEC9BF",
"U. c #ECD1AB",
"Y. c #EDD5AA",
"T. c #EBD9B8",
"R. c #829AC0",
"E. c #849CC2",
"W. c #889DC1",
"Q. c #B689C3",
"!. c #C297CA",
"~. c #C7A2CD",
"^. c #CEA6D2",
"/. c #D5ACDA",
"(. c #D9BEDE",
"). c #DAAFE0",
"_. c #DFB4E5",
"`. c #E1B6E2",
"'. c #E5BBEB",
"]. c #EBBFF2",
"[. c #CAC9C4",
"{. c #CBCAC5",
"}. c #D7D6CF",
"|. c #DBDBD5",
" X c #EAD9C8",
".X c #EBDDD6",
"XX c #F7E4C6",
"oX c #E9E2D8",
"OX c #F8ECD4",
"+X c #FAF3DF",
"@X c #ECC1F3",
"#X c #F3C6F1",
"$X c #E7E6E2",
"%X c #EAEAE4",
"&X c #F1ECE2",
"*X c #F5F2E6",
"=X c #F5F5EE",
"-X c #FCF7E9",
";X c #F6F7F0",
":X c #F7F7F0",
">X c #F9F5F4",
",X c #F7F8F2",
"<X c #FAFBF4",
"1X c #FEFFFA",
/* pixels */
"h.h.h.h.h.h.h.h.h.h.h.h.h.h.h.h.h.h.h.h.h.h.h.y.7.f.h.f.h.h.f.f.h.R.h.h.h.h.h.h.h.h.h.h.h.h.h.h.h.B.",
"h.h.h.h.h.h.h.h.h.h.h.h.h.h.h.h.h.h.h.h.h.h.h.7.*.y.h.h.h.h.j.h.h.h.h.h.h.h.h.h.h.h.h.h.h.h.h.N.h.W.",
"h.h.h.h.h.h.h.h.h.h.h.h.h.h.h.h.h.h.h.h.h.h.7.*.*.*.y.h.h.h.h.h.h.h.h.h.h.h.h.h.h.h.h.h.h.h.h.h.h.B.",
"h.h.h.h.h.h.h.h.h.h.h.R.R.R.R.R.h.h.h.h.f.7.*.h.d.7.2.t.f.f.h.g.f.h.R.R.h.h.E.h.h.h.h.h.h.h.h.h.h.B.",
"d.a.d.d.d.f.f.a.d.h.h.y 9 9 9 * 2.j.h.d.7.2.h.h.d.t.7.*.t.d.f.g.h.2.* q 6 6 y h.h.f.d.f.f.d.d.d.a.g.",
"a.a.y.y.a.a.d.f.%. .O.v.n.n.n.M.:.X.O.2.2.d.B.y.t.y.t.7.*.y.a.+.X.:.M.n.n.n.v.+.o.1.d.a.f.d.y.y.y.f.",
"g.h.g.d.d.d.g.d.G > k =X1X<X<X1XZ.: k %.a.R.t.y.y.t.t.t.1.*.8.k : A.1X<X<X1X=Xk > G p.f.h.g.d.f.f.N.",
"g.g.g.g.g.g.g.9 ` T.=X=X=X=X=X=X=X=X%X+ %.d.8.t.t.t.t.t.d.B + %X=X=X=X=X=X=X=X=XT.` 9 g.g.g.g.g.g.N.",
"g.g.g.g.g.h.h.  G.-X;X;X;X;X;X;X;X<X=X$Xv.n d.y.y.y.y.f.n v.$X=X<X;X;X;X;X;X;X;X-XS.  h.h.g.g.g.f.N.",
"g.g.g.g.g.a.;.v.|.<X=X;X;X;X;X;X=X;X=X XE   o.V V V V o.  E  X=X;X=X;X;X;X;X;X=X<X|.v.;.a.g.f.f.f.h.",
"f.f.f.d.h.,.+ =X<X=X;X;X;X;X;X;X=X<X*XT P h j j j j j j h P T *X<X=X;X;X;X;X;X;X=X<X*X+ 2.h.d.f.d.g.",
"d.d.d.d.h.2.< %X<X=X;X;X;X;X;X;X;X;X;X=X=X=X=X=X=X=X=X=X=X=X=X;X;X;X;X;X;X;X;X;X=X<X%X, 2.h.d.d.d.g.",
"d.d.d.d.g.2., %X<X=X;X=X;X;X;X;X;X;X;X,X<X<X<X<X<X<X<X<X<X,X,X;X;X;X;X;X;X=X=X;X=X<X%X# 2.g.d.d.d.g.",
"d.d.d.d.g.,., %X<X=X;X<X<X;X;X;X;X;X;X;X;X;X;X;X;X;X;X;X;X;X;X;X;X;X;X;X;X<X<X;X=X<X%X: 2.g.a.d.d.g.",
"d.d.d.d.g.,., %X<X=X=X&X*X,X;X;X;X;X;X;X=X;X;X;X;X;X;X;X;X;X;X;X;X;X;X;X,X*X&X=X=X<X%X: 2.g.d.d.d.g.",
"y.y.y.y.a.>.< %X<X<X<XL I.1X=X;X;X;X;X;X=X=X;X;X;X;X;X;X;X;X;X;X;X;X;X=X1XI.I <X,X<X%X, >.a.t.y.y.a.",
"8.t.t.t.y.$.: U.-XoX] [ oX<X=X;X;X;X;X;X;X;X;X;X;X;X;X;X;X;X;X;X;X;X;X=X<XoX[ ] oX-XU.+ +.y.t.t.7.i.",
"y.p.a.y.p.8.C ~ oX.XJ  X*X;X=X;X;X;X;X;X;X;X;X;X;X;X;X;X;X;X;X;X;X;X;X=X;X*X XJ .XoX~ C 3.d.a.y.t.s.",
"a.a.a.a.a.d.7.  D. X! =X<X=X;X;X;X;X;X;X;X;X;X;X;X;X;X;X;X;X;X;X;X;X;X;X=X<X*X!  XD.% d.a.a.a.a.u.f.",
"a.a.a.a.a.2.#.f.n ( <X=X=X;X;X;X;X;X;X;X;X;X;X;X;X;X;X;X;X;X;X;X;X;X;X;X;X=X=X<Xx.q 7.t.d.a.a.a.y.s.",
"a.y.a.a.C ; $ 2   c.<X=X;X;X;X;X;X;X;X;X;X;X;X;X;X;X;X;X;X;X;X;X;X;X;X;X;X;X=X<Xc.  $ ; u O.a.a.y.s.",
"y.a.y.7.0 8 4.4.7 / <X=X;X;X;X;X;X;X;X;X;X;X;X;X;X;X;X;X;X;X;X;X;X;X;X;X;X;X=X<X/ 7 5.4.- m d.p.y.s.",
"a.y.2.$.g | z.k...b.<X=X;X;X;X;X;X;X;X;X;X;X;X;X;X;X;X;X;X;X;X;X;X;X;X>X;X;X=X<Xb...k.z.N g y.p.y.a.",
"p.2.O.t.A N k.& ' XX,X=X;X;X;X;X;X;X;X;X;X;X;X;X;X;X;X;X;X;X;X;X;X;X;X;X;X;X=X;XXX' 5 k.N g 2.t.y.t.",
"#.#.7.q   t z.& H.-X=X;X;X;X;X;X;X;X;X;X;X;X;X;X;X;X;X;X;X;X;X;X;X;X;X;X;X;X;X=X;XG.& z.t   5 %.#.1.",
"#.X.v Z.S.A.4.  [.1X=X;X;X;X;X;X;X;X;X;X;X;X;X;X;X;X;X;X;X;X;X;X;X;X;X;X;X;X;X=X1XL.  4.A.S.M.e  .1.",
"1.D F =X<X[.=   P.<X=X;X;X;X;X;X;X;X;X;X;X;X;X;X;X;X;X;X;X;X;X;X;X;X;X;X;X;X;X=X<XL.  = [.<X*XF O.1.",
"d / <X1Xn.r z.& L.<X=X;X;X;X;X;X;X;X;X;X;X;X;X;X;X;X;X;X;X;X;X;X;X;X;X;X;X;X;X=X1XL.& z.r n.<X<XQ g ",
"e / <XXX) t l.  F.OX;X=X;X;X;X;X;X;X;X;X;X;X;X;X;X;X;X;X;X;X;X;X;X;X;X;X;X;X=X;XOXF.  l.t ) XX<XQ b ",
"e / <Xm.1 } l.6.0.G.<X=X;X;X;X;X;X;X;X;X;X;X;X;X;X;X;X;X;X;X;X;X;X;X;X;X,X;X=X<XG.0.6.l.} 1 m.<XQ b ",
"e ^ *Xf   N 9.k.{ E -X=X;X;X;X;X;X;X;X;X;X;X;X;X;X;X;X;X;X;X;X;X;X;X;X;X,X,X=X-XE { k.9.N   f *XQ v ",
"d U Y.3 O @ O +   E Y.*X;X;X;X;X;X;X;X;X;X;X;X;X;X;X;X;X;X;X;X;X;X;X;X;X;X;X*XY.U   + + @ O 3 Y.U n ",
"2.=.4 @ C 2.$.o. .C z =X<X=X;X;X;X;X;X;X;X;X;X;X;X;X;X;X;X;X;X;X;X;X;X;X=X<X=Xz M $.2.,.2.C @ 4 =.e.",
"y.2.n O D y.y.2.#. .v Z.oX<X=X;X;X;X;X;X;X;X;X;X;X;X;X;X;X;X;X;X;X;X;X=X<XoXZ.d O.s.p.t.p.D O n 1.a.",
"3.t.y.p O.t.3.8.1.O.+.  D.>X=X;X;X;X;X;X;X;X;X;X;X;X;X;X;X;X;X;X;X;X;X=X>XD.  ,.s.8.8.3.t.O.p i.8.i.",
"%.%.%.%.1.2.2.2.2.%.o.$ w.(.<X;X;X;X;X;X;X;X;X;X=X=X;X;X;X;X;X;X;X;X;X<X(.w.; i.2.2.2.1.1.1.1.>.%.2.",
"2.2.2.2.2.1.1.2.8.8.,.% `  X,X=X;X;X;X;X;X;X;X=X<X<X=X;X;X;X;X;X;X;X=X,X X` % 2.1.2.3.1.1.1.1.3.2.3.",
"8.8.3.3.8.3.2.3.8.8.3.  G.+X;X;X;X;X;X;X;X;X=X1XL.[.1X=X;X;X;X;X;X;X;X;X+XG.  3.2.3.8.3.2.2.2.8.8.i.",
"8.8.3.8.8.8.3.3.3.8.3.  [.1X=X;X;X;X;X;X;X;X=X%Xc.c.%X=X;X;X;X;X;X;X;X=X1X[.  t.8.8.3.3.3.3.3.8.3.i.",
"3.3.3.3.3.3.3.3.3.3.3.  P.<X=X;X;X;X;X;X=X<X*XX /.^.X *X<X=X;X;X;X;X;X=X<XP.  e.3.3.3.3.3.3.3.3.3.r.",
"3.3.3.3.3.3.3.3.3.3.3.  [.1X=X;X=X=X;X=X<X}.F V._._.V.F }.<X=X;X=X=X=X=X1X[.  e.3.3.3.3.3.3.3.<.2.r.",
"2.3.2.2.3.3.3.3.3.3.<.  G.-X<X<X<X,X;X=X1X[.  ).].@X/.  [.<X=X=X=X;X<X<X*XG.  <.3.3.2.2.2.3.2.3.2.e.",
"2.2.2.2.2.2.2.2.2.3.<.w ) K.|.%X&X*X;X=X<X}.Q '.'.'.'.Q }.<X=X=X;X=X&XoXU._ w <.2.2.2.2.2.2.2.2.1.e.",
"2.2.2.,.2.2.,.,.,.,.,.e.b   O Q.H.T.<X=X;X<X;X~.!.!.~.;X<X;X;X=X,XOXJ.K K W &.<.2.2.2.2.2.2.2.2.2.e.",
",.1.>.%.,.,.>.%.@.@.1.3.; W @X@X`.C.l F c c x i i i a x c c c k C.'.#X#XW u 3.,.,.,.,.,.,.,.2.2.%.<.",
"@.+.+.+.%.%.+.+.+.+.%.1.B -.C.V.q.R H p w w w s s s s w e n v s Z q.V.V.-.B ,.,.%.%.%.>.>.%.,.,.+.;.",
"%.,.>.%.>.1.1.>.@.@.%.>.3.o.  . o 3 Y <.%.X.o.+.%.O.X.O.i.t.3.3.g . .   o.3.>.%.@.@.+.@.@.+.+.+.%.<.",
">.,.1.1.,.,.,.,.>.>.1.1.1.,.2.3.2.,.&.,.>.+.V S S V o.<.<.1.1.1.,.2.<.<.,.,.,.,.1.1.>.1.1.>.>.>.>.<.",
">.>.>.,.,.,.,.,.>.>.,.,.,.,.>.>.>.>.,.,.,.1.+.S V O.,.3.1.>.,.>.>.,.,.>.,.>.>.>.,.,.,.,.,.,.,.,.>.<.",
">.>.>.>.>.>.>.>.>.>.>.>.>.>.>.>.>.>.>.>.>.>.1.S B %.<.>.>.>.>.>.>.>.>.>.>.>.>.>.>.>.>.>.>.>.>.>.>.<."
};
