/* XPM */
static char *result[] = {
/* columns rows colors chars-per-pixel */
"50 50 188 2 ",
"   c #210000",
".  c #3C0000",
"X  c #25001E",
"o  c #383019",
"O  c #000632",
"+  c #36003A",
"@  c #393C38",
"#  c #430000",
"$  c #491100",
"%  c #4C1B00",
"&  c #561D1E",
"*  c #4C230B",
"=  c #582D08",
"-  c #53300C",
";  c #4C1520",
":  c #492A38",
">  c #5F4400",
",  c #7B7C00",
"<  c #5D4236",
"1  c #0E006B",
"2  c #580452",
"3  c #4C3944",
"4  c #503C46",
"5  c #552B58",
"6  c #4C3F51",
"7  c #0B4449",
"8  c #224847",
"9  c #47484E",
"0  c #55454A",
"q  c #54444B",
"w  c #4D4152",
"e  c #534653",
"r  c #554956",
"t  c #544E5B",
"y  c #555756",
"u  c #5B525D",
"i  c #73414D",
"p  c #7E4C55",
"a  c #6B5C5B",
"s  c #49416A",
"d  c #5B4764",
"f  c #5B5869",
"g  c #475B79",
"h  c #635B65",
"j  c #4C617F",
"k  c #5B6D79",
"l  c #6F6668",
"z  c #646574",
"x  c #786B75",
"c  c #76747A",
"v  c #940000",
"b  c #9D1B00",
"n  c #B4051A",
"m  c #AE002E",
"M  c #B2003D",
"N  c #B5312A",
"B  c #BA3A38",
"V  c #C20032",
"C  c #CA263C",
"Z  c #C54B39",
"A  c #A32A4B",
"S  c #D70043",
"D  c #E30349",
"F  c #E20949",
"G  c #DD2C46",
"H  c #E62C4C",
"J  c #984345",
"K  c #BA4644",
"L  c #837D7E",
"P  c #D24544",
"I  c #D84644",
"U  c #DE5A46",
"Y  c #E85451",
"T  c #E37249",
"R  c #548A58",
"E  c #59856A",
"W  c #599565",
"Q  c #5E9E77",
"!  c #59AD79",
"~  c #61B57D",
"^  c #A39500",
"/  c #AEA200",
"(  c #C0B639",
")  c #CEC73F",
"_  c #DAD83E",
"`  c #A4A054",
"'  c #D68A40",
"]  c #E6944A",
"[  c #EB914D",
"{  c #EDB54D",
"}  c #F2A951",
"|  c #BBE47B",
" . c #D2CB42",
".. c #E7CF4A",
"X. c #F2DA50",
"o. c #FFF947",
"O. c #F9F74F",
"+. c #EFEA51",
"@. c #F4E850",
"#. c #EFF451",
"$. c #ECF25B",
"%. c #F6F552",
"&. c #F7F952",
"*. c #F9FC53",
"=. c #F9F855",
"-. c #D3EA6E",
";. c #C8E975",
":. c #F4FB63",
">. c #4E6282",
",. c #496587",
"<. c #516585",
"1. c #546987",
"2. c #526689",
"3. c #556A8C",
"4. c #596D8D",
"5. c #5C708E",
"6. c #566D91",
"7. c #5A6E91",
"8. c #5D7293",
"9. c #5F7599",
"0. c #646888",
"q. c #6B738A",
"w. c #6A758E",
"e. c #777883",
"r. c #627694",
"t. c #6A7691",
"y. c #647895",
"u. c #6A7995",
"i. c #61769A",
"p. c #647A9C",
"a. c #697D9D",
"s. c #707F97",
"d. c #657CA1",
"f. c #697EA1",
"g. c #6D819D",
"h. c #74849D",
"j. c #7C889B",
"k. c #63AA89",
"l. c #65BC89",
"z. c #6C82A4",
"x. c #6D85AA",
"c. c #7385A3",
"v. c #7589A5",
"b. c #7C8BA4",
"n. c #7187AB",
"m. c #7289AD",
"M. c #7B8CAA",
"N. c #7D91AE",
"B. c #6F89B0",
"V. c #758DB3",
"C. c #788FB4",
"Z. c #738EBA",
"A. c #7790B7",
"S. c #7A91B6",
"D. c #7C94BB",
"F. c #4FCE97",
"G. c #58D198",
"H. c #65C58A",
"J. c #7DD58F",
"K. c #68C393",
"L. c #66D295",
"P. c #69D395",
"I. c #69D698",
"U. c #6BDA9A",
"Y. c #72D493",
"T. c #7DD691",
"R. c #82848F",
"E. c #838E9F",
"W. c #818FA9",
"Q. c #8491A4",
"!. c #8292AD",
"~. c #8B98A9",
"^. c #959DAA",
"/. c #8396B4",
"(. c #8698B6",
"). c #8197BC",
"_. c #8599BA",
"`. c #8A9CBB",
"'. c #8DA0BF",
"]. c #98A3B1",
"[. c #A5ADB7",
"{. c #839EC0",
"}. c #8C9FC0",
"|. c #8EA1C2",
" X c #91A4C4",
".X c #97A9C8",
"XX c #A9B4C6",
"oX c #B5BBC1",
/* pixels */
".X}.|.}.}.|.|.|.|.|.|.|.}.}.}.}.}. X X X'. X'.(.N.'.'.'.'.'.'._.|..X|. X|.|. X X|. X X|.|.|.{.}.{.XX",
"}.A.D.D.D.A.D.D.D.D.D.D.D.D.D.).D.D.D.D.D.D.S.p.8.n.'.D.D.D.D.D.D.A.D.D.Z.D.D.Z.Z.D.D.Z.D.D.D.D.Z. X",
"|.D.D.).D.{.D.D.).D.D.D.D.D.{._.`._.(.}.'.k o @ +   0. X|.`.D.D.D.).D.D.).D.).D.{.D.D.D.).).).).Z..X",
"}.A.D.D.D.D.D.D.D.D.).D.D.D.{._.`.|.N.f g A V B  ._ ` 1 s N.'.D.S.D.D.D.A.D.).).D.D.D.D.D.D.).D.D..X",
"/.B.V.V.Z.C.C.V.V.V.V.D.D.D.(.(.(.v.x b v ' } { =.=._ ^ / c M.(.N.C.A.C.V.V.C.C.A.Z.V.V.C.V.C.V.B.`.",
"C.x.n.x.B.B.V.B.x.x.x.C.C.C.(./.!.z v Y Y X.*.*.=.%.%.:.:., k /.S.C.V.B.B.V.V.S.V.B.x.V.C.B.x.x.d.).",
"_.C.D.V.V.V.C.C.V.V.V.V.m.C.(.(.9 B G U %.%.%.%.%.o.;.F.Y.I.W d _.A.S.V.B.V.A.A.C.C.V.C.D.C.V.C.Z.|.",
"_.C.C.C.Z.C.D.C.C.D.C.S.S.S.(.`.7 N H G @.*.%.%.o.| J.L.L.U.R 2 |.A.D.S.S.S.A.C.D.Z.C.C.A.D.C.D.C.}.",
"_.V.C.D.A.S.S.S.S.S.S.A.C.D.S.q.J C T { %.=.O.$.;.T.G.Y.L.I.~ E q.S.A.C.A.A.A.D.A.A.S.S.S.S.A.S.V.`.",
"_.C.C.C.C.C.A.A.A.S.S.A.C.D.h.# I D ] *.%.O.O.$.G.L.P.P.L.P.U.H.; z.D.C.S.Z.C.C.A.A.A.S.C.S.A.C.V.`.",
").V.C.C.C.C.V.S.C.V.C.C.C.C.a.* P F ] O.%.%.O.$.Y.L.L.P.P.P.I.l.6 9.x.Z.C.C.C.C.N.C.C.V.C.C.C.C.V.`.",
"/.V.C.C.C.V.C.V.C.C.V.C.V.x.5.* P D ] &.%.%.O.$.Y.L.P.L.P.P.I.l.f 8.9.x.C.C.Z.C.V.V.V.C.V.V.C.C.V.`.",
"/.B.V.V.m.C.V.V.V.V.V.A.9.9.u.% P F ] *.%.%.O.$.Y.P.P.P.L.P.I.K.3.z.8.9.B.V.V.V.V.S.V.V.V.C.V.C.B.(.",
"S.V.V.V.V.V.m.V.V.V.B.z.6.B.N.e K S ] %.O.%.O.$.Y.P.P.P.P.L.H.k.6.z.d.9.9.x.V.V.V.V.V.V.V.m.m.C.V.(.",
"/.m.V.V.V.m.V.V.V.B.9.6.B.C.x.v.8 m [ %.%.%.O.$.Y.L.P.P.P.U.W 5 z.z.9.z.8.8.z.V.V.m.V.V.V.V.V.V.V._.",
"S.x.n.n.n.n.n.m.n.g.7.x.C.x.p.z.@ N Y T @.=.O.$.G.L.P.L.L.U.Q d z.9.9.9.9.8.8.z.B.B.v.x.x.x.z.x.f./.",
"v.d.z.z.z.x.x.x.d.6.f.D.f.9.d.d.0.p n Y O.*.&.%.-.J.F.G.G.W k 5.d.9.d.d.9.9.6.9.d.x.x.f.z.z.z.z.z.N.",
"S.x.m.x.x.x.V.d.6.d.D.d.d.d.d.9.x.,.i Z ) ..@.O.O.;.| ! l.y 1.z.9.d.d.d.d.i.9.6.9.x.x.x.B.m.B.x.z./.",
"/.x.m.m.B.m.9.6.d.D.f.f.f.f.d.d.p.n.r.o O M ] #.+.O.( X & g.v.z.d.f.d.d.d.d.f.d.6.7.x.B.n.m.m.m.x.D.",
"S.x.B.m.m.p.3.z.V.z.f.d.d.f.d.d.f.f.a.a.z.a = > > = c ~.j.c.z.z.d.d.d.d.d.d.f.d.d.7.6.x.m.B.m.n.z./.",
"!.x.n.n.9.3.z.m.x.d.d.d.d.d.d.d.d.d.f.f.n.r q w.u.: z /.b.c.g.z.d.d.d.d.p.d.d.d.d.9.6.9.d.V.n.m.x.(.",
"S.x.n.a.6.d.B.x.9.d.d.d.d.d.d.p.d.d.d.f.n.r f N.N.q h v.b.c.z.9.d.d.d.p.d.d.d.d.d.d.9.6.9.d.m.n.x.N.",
"S.x.d.3.9.C.x.9.d.d.9.d.d.d.d.d.d.d.d.f.x.r t v.c.0 f v.c.g.p.d.d.d.i.d.9.d.d.d.d.d.d.9.6.6.x.m.x.N.",
"M.9.6.9.S.d.d.9.d.9.d.d.9.d.p.d.p.p.p.p.c.r u M.b.0 z v.c.z.z.p.9.d.d.d.d.d.p.d.d.9.d.d.9.6.6.x.x.b.",
"a.3.d.m.d.9.d.9.9.9.p.9.9.9.i.i.9.9.9.9.a.e y b.b.4 # q q r.a.i.9.9.9.9.9.i.p.9.9.9.9.9.i.i.6.7.6.h.",
"u.,.i.n.7.7.9.7.7.9.9.8.7.8.9.9.8.i.i.9.a.r u N.~.R.c h $ w.a.8.8.9.8.8.7.9.9.9.8.i.i.9.8.i.3.3.,.h.",
"v.6.6.d.i.i.9.9.9.9.9.9.9.9.9.9.i.i.p.i.z.e h ].].^.~.w.* w.f.i.9.9.9.9.9.9.9.9.i.i.i.i.9.3.3.f.9.c.",
"/.d.7.2.9.i.i.i.p.i.9.d.p.i.i.d.p.i.p.p.z.w l [.[.a . % % t.z.a.p.9.d.9.p.9.y.p.d.i.i.i.7.3.i.C.x.M.",
"/.f.f.9.6.9.i.i.i.p.i.p.9.p.9.y.i.p.p.p.z.w x [.oXl u E.j.h.h.a.y.p.i.p.i.i.i.i.i.i.d.7.3.p.C.n.d./.",
"W.f.f.f.6.2.8.i.i.9.i.i.y.9.p.y.i.i.p.a.g.e < L L - l ].~.E.h.a.i.i.9.y.i.p.i.i.i.i.6.2.p.C.f.c.d.!.",
"M.d.f.f.d.3.2.8.9.p.p.y.9.9.9.r.r.9.p.a.h.z 4 3 3 0 e.~.Q.b.h.y.i.9.i.i.i.i.i.i.i.7.2.f.v.x.z.z.d.!.",
"M.f.f.f.f.d.6.3.8.9.9.8.9.9.9.9.i.r.y.u.a.g.h.c.b.b.Q.E.h.g.p.9.r.9.8.9.8.r.i.8.6.2.d.n.n.z.z.z.d.!.",
"M.f.f.f.f.f.f.7.2.9.9.9.9.8.i.t.i.i.8.i.i.r.8.9.9.8.y.p.i.i.r.r.9.i.9.8.i.9.8.6.2.i.n.f.f.f.M.f.9.N.",
"f.f.M.f.f.f.f.f.3.2.7.8.9.9.8.8.8.r.8.8.8.8.9.8.8.8.8.8.8.r.8.i.r.8.i.7.8.9.0.2.r.n.f.f.f.f.f.f.g.N.",
"f.f.f.f.f.f.f.f.i.2.2.0.8.7.7.7.3.4.8.7.7.7.r.r.6.8.8.4.7.8.8.r.r.8.7.7.8.3.2.r.n.f.f.f.f.f.f.f.g.M.",
"s.7.i.i.9.i.d.u.p.9.2.2.3.3.7.7.3.7.7.3.6.4.3.6.4.4.4.4.6.4.7.7.3.7.7.6.4.2.8.n.a.p.p.i.i.d.u.a.6.b.",
"W.p.p.p.p.i.9.i.f.a.i.2.2.2.8.8.6.8.7.8.7.3.7.3.3.6.7.7.7.3.7.3.6.7.7.3.>.i.f.f.i.d.f.i.9.9.9.f.8.v.",
"f.d.u.f.f.f.d.d.f.f.f.8.2.2.0.8.8.8.8.8.8.4.9.7.7.7.8.8.r.7.3.3.7.8.3.>.r.f.f.a.p.u.f.f.u.p.f.f.g.N.",
"W.p.f.f.f.f.f.f.f.f.f.f.8.2.2.7.8.8.8.5.8.8.9.8.8.8.8.8.7.r.7.r.8.3.<.4.f.f.f.f.f.f.f.f.a.f.f.f.9.v.",
"W.p.f.f.u.f.f.u.a.a.a.a.a.8.2.2.4.5.8.8.5.8.5.5.7.8.4.8.r.4.7.8.3.<.3.c.f.f.s.f.u.f.u.a.a.a.a.a.g.v.",
"v.9.g.9.g.9.g.g.a.a.a.a.a.a.r.>.1.5.5.5.8.5.5.5.7.5.5.5.5.7.8.1.>.3.z.a.p.g.a.a.f.u.a.a.a.a.a.a.g.v.",
"h.8.g.g.g.g.9.9.a.u.a.a.a.a.p.r.,.j 1.5.8.5.5.5.8.5.5.5.8.8.1.j 4.z.g.g.a.p.p.a.d.d.p.a.p.a.p.a.g.b.",
"h.g.8.g.9.g.g.g.a.p.p.p.a.a.p.u.5.j j 5.5.5.4.4.4.8.4.4.4.1.j 4.g.g.y.p.p.y.y.a.p.u.p.a.p.a.p.p.5.b.",
"h.9.g.8.g.9.8.g.i.y.u.p.y.y.y.a.g.5.j j 3.5.5.4.4.4.4.4.1.j 1.g.g.9.a.y.y.g.y.g.u.p.p.u.y.y.u.a.g.b.",
"h.5.8.8.g.5.5.5.5.5.y.y.5.8.y.y.5.g.1.j 1.1.1.1.<.1.5.1.j 1.g.g.8.y.y.y.y.y.y.y.y.y.y.y.y.y.y.a.5.b.",
"g.1.5.5.5.5.5.5.5.5.8.5.5.5.r.5.g.5.5.5.j j 1.1.1.<.j j <.z.y.5.8.8.5.5.8.5.y.y.8.r.5.r.y.8.y.y.1.h.",
"g.5.g.5.8.g.y.8.5.5.5.y.y.8.r.r.5.5.8.8.5.j j 1.5.j j j g.y.y.r.5.8.y.5.8.y.r.8.5.5.5.5.5.4.5.5.5.b.",
"h.5.g.5.y.5.g.y.y.y.r.r.y.r.r.y.8.5.g.g.8.1.j j j j 1.g.a.y.y.r.y.y.y.y.y.y.y.y.y.y.5.r.r.r.5.r.5.j.",
"h.5.g.5.g.5.g.k 5.5.g.5.g.5.5.g.5.g.g.k g.y.1.j j k 8.a.r.r.u.r.y.y.r.w.g.g.5.r.5.g.5.5.g.5.5.g.5.j.",
"h.5.5.g.5.g.g.5.g.5.5.g.k g.5.g.5.5.5.g.5.5.y.j j r.g.5.y.r.r.r.r.y.r.r.5.5.5.g.g.q.5.g.g.5.g.k 5.j."
};
