/* XPM */
static char *result[] = {
/* columns rows colors chars-per-pixel */
"50 50 187 2 ",
"   c black",
".  c #000015",
"X  c #240200",
"o  c #36001D",
"O  c #2C003C",
"+  c #153920",
"@  c #2D3432",
"#  c #430000",
"$  c #480D00",
"%  c #4A1800",
"&  c #691600",
"*  c #4C2616",
"=  c #693100",
"-  c #51153F",
";  c #543432",
":  c #6E5800",
">  c #506A3A",
",  c #7A603B",
"<  c #243D62",
"1  c #52194F",
"2  c #4A3B47",
"3  c #533F44",
"4  c #743F44",
"5  c #563B66",
"6  c #314046",
"7  c #326545",
"8  c #48444E",
"9  c #55454A",
"0  c #544553",
"q  c #574B54",
"w  c #594E58",
"e  c #45505B",
"r  c #5C515A",
"t  c #614D5E",
"y  c #695556",
"u  c #567C4C",
"i  c #4F5461",
"p  c #59576A",
"a  c #4A5F7F",
"s  c #5B5973",
"d  c #655C67",
"f  c #55746C",
"g  c #5B6578",
"h  c #69646B",
"j  c #716767",
"k  c #706D69",
"l  c #636777",
"z  c #900D00",
"x  c #912900",
"c  c #AE002A",
"v  c #AF352F",
"b  c #B63030",
"n  c #C3003B",
"m  c #C17736",
"M  c #970049",
"N  c #DA1844",
"B  c #E20749",
"V  c #E41149",
"C  c #DE3048",
"Z  c #E4384A",
"A  c #8A484B",
"S  c #C94342",
"D  c #D34543",
"F  c #DE4B47",
"G  c #DD5648",
"H  c #E8574F",
"J  c #58955F",
"K  c #598868",
"L  c #5B9470",
"P  c #75A763",
"I  c #60B17B",
"U  c #918B14",
"Y  c #D38A3F",
"T  c #C8C63D",
"R  c #D4CD34",
"E  c #E3DB3C",
"W  c #ABA04F",
"Q  c #BBB641",
"!  c #E58B4A",
"~  c #E5914A",
"^  c #E9954C",
"/  c #E8AB4B",
"(  c #AFC660",
")  c #B3E17E",
"_  c #F3D24F",
"`  c #F4DF50",
"'  c #EDEA49",
"]  c #F9F74E",
"[  c #FBF84B",
"{  c #F3EA51",
"}  c #EDF25B",
"|  c #F6F552",
" . c #F9F154",
".. c #F7F952",
"X. c #FAFD53",
"o. c #CDED79",
"O. c #EBF866",
"+. c #575F81",
"@. c #4E6383",
"#. c #4C6689",
"$. c #516485",
"%. c #5B6485",
"&. c #5A6A84",
"*. c #526689",
"=. c #556A8D",
"-. c #596E8D",
";. c #5C718E",
":. c #566D92",
">. c #596E92",
",. c #536F99",
"<. c #5D7294",
"1. c #5E759A",
"2. c #5F799C",
"3. c #656E86",
"4. c #657186",
"5. c #65738C",
"6. c #6A758A",
"7. c #617694",
"8. c #687792",
"9. c #647996",
"0. c #6D7D96",
"q. c #61769A",
"w. c #647A9C",
"e. c #697D9C",
"r. c #717E99",
"t. c #657CA1",
"y. c #697EA2",
"u. c #7A818E",
"i. c #6D809C",
"p. c #708097",
"a. c #73839C",
"s. c #79879C",
"d. c #77889E",
"f. c #79889F",
"g. c #6B81A5",
"h. c #6781A8",
"j. c #6C84AA",
"k. c #7285A2",
"l. c #7689A4",
"z. c #7C8AA2",
"x. c #7087AB",
"c. c #7289AD",
"v. c #7D8DAA",
"b. c #6F89B0",
"n. c #758DB3",
"m. c #788FB4",
"M. c #728EB9",
"N. c #7991B6",
"B. c #7791BA",
"V. c #7C94BB",
"C. c #23CB9B",
"Z. c #51CF98",
"A. c #67CA92",
"S. c #65D295",
"D. c #69D395",
"F. c #69D698",
"G. c #6AD99A",
"H. c #72D493",
"J. c #70D999",
"K. c #68DFA1",
"L. c #838389",
"P. c #818EA4",
"I. c #818FA8",
"U. c #8491A4",
"Y. c #8593AC",
"T. c #8B98A8",
"R. c #959CA6",
"E. c #8394B2",
"W. c #8897B2",
"Q. c #8699B7",
"!. c #8A9AB5",
"~. c #8097BE",
"^. c #869ABC",
"/. c #8B9DBB",
"(. c #9AA3AE",
"). c #8FA0BC",
"_. c #A4ACB4",
"`. c #ABB0B5",
"'. c #87D78D",
"]. c #98DC88",
"[. c #839BC1",
"{. c #8C9FC0",
"}. c #8EA1C2",
"|. c #90A3C4",
" X c #99A9C6",
".X c #99AAC9",
"XX c #A5B2CB",
/* pixels */
".X{.}.{.{.}.|.}.}.}.|.|.}.}.{.}.|.|.|.}.|.|.{.~.E.^.{.[.|.{.[.{.}.|.|.|.|.}.}.}.}.|.|.|.{.}.}.{.[.XX",
"|.M.V.V.V.B.V.V.V.V.V.B.V.B.B.V.V.B.B.B.B.M.M.2.,.y.V.B.V.V.V.V.V.N.V.B.B.V.V.V.V.B.B.B.V.V.V.V.M..X",
"|.N.[.V.V.[.V.V.~.~.V.V.V.V.V.[.V.[.V.V.[.B.t.q.t.t.y.[.~.[.V.V.V.[.V.V.~.V.V.V.[.V.~.V.~.~.V.~.B..X",
"|.N.V.V.V.V.V.V.V.V.~.V.V.V.V.V.V.V.V.V.M.t.1.V.b.t.t.y.n.M.V.B.N.V.V.V.B.B.[.V.V.V.V.V.V.V.~.V.B. X",
"Q.b.n.m.m.m.m.n.n.n.n.N.V.V.B.N.N.B.n.n.t.t.M.V.M.y.t.1.y.M.M.n.n.n.m.m.c.n.m.N.M.m.n.m.m.n.m.n.j.).",
"E.b.j.j.b.c.n.n.j.j.b.n.m.n.N.n.n.m.b.t.1.c.[.b.y.y.y.t.1.y.n.n.n.m.n.b.b.n.n.n.n.b.j.c.n.n.j.c.j.^.",
"^.M.N.n.n.n.m.m.n.n.n.n.c.n.n.N.n.n.t.1.b.[.y.b.M.y.M.y.1.1.y.~.N.V.N.n.c.N.V.N.B.m.n.m.V.m.m.m.n.|.",
"^.m.N.m.m.N.m.M.N.N.N.N.N.N.N.N.m.t.,.n.[.y.b.y.y.y.y.y.y.t.1.y.V.N.N.N.N.N.N.N.m.N.m.B.B.N.m.N.m.).",
"/.m.N.N.N.N.N.N.N.N.N.N.N.N.V.N.t.,.M.B.b.b.M.y.M.t.t.y.M.t.t.,.j.B.m.N.N.N.N.N.N.N.N.N.N.N.N.N.n.|.",
"^.n.N.N.N.m.N.n.N.N.N.N.N.N.n.t.:.M.B.M.t.t.t.t.y.y.t.M.t.y.t.t.2.j.M.N.m.B.M.m.N.n.N.N.m.N.m.N.b./.",
"Q.n.N.n.m.m.m.m.n.N.n.n.N.b.t.<.b.V.b.t.y.b.y.b.b.y.M.y.t.M.M.t.2.1.j.N.m.M.m.m.n.n.m.m.m.m.N.m.n.).",
"Q.n.N.n.n.n.n.m.N.n.n.N.n.g.,.x.[.y.t.b.y.t.y.t.y.y.t.y.t.y.y.t.t.1.1.j.m.m.m.m.n.N.n.n.m.n.n.n.n./.",
"Q.n.n.n.n.n.m.m.n.m.n.n.t.,.j.V.y.y.y.y.y.M.t.M.b.y.M.y.y.t.y.M.j.t.1.1.b.n.n.n.n.n.n.n.n.n.v.N.b./.",
"Q.b.n.n.m.c.c.n.n.n.n.t.:.j.V.t.y.y.y.b.t.b.y.t.t.y.t.y.M.t.t.t.g.h.t.1.2.j.n.n.n.v.n.n.n.n.n.n.b./.",
"Q.n.n.n.n.c.n.n.n.b.i.:.x.m.j.g.y.b.y.y.y.y.y.y.y.t.t.t.t.t.t.t.2.t.i.2.<.,.i.n.n.n.n.n.n.n.c.n.b./.",
"v.h.j.c.x.x.x.x.j.i.:.h.n.h.w.g.t.t.t.y.t.t.t.t.t.t.1.t.t.t.t.t.2.1.1.2.2.<.2.i.c.j.c.j.j.j.j.j.h.W.",
"v.t.j.j.g.j.j.j.q.:.h.N.g.1.q.1.t.2.1.2.t.q.1.q.q.t.q.t.q.q.q.t.q.q.t.t.2.1.>.<.t.j.h.y.j.g.g.g.t.E.",
"v.j.x.x.g.c.n.t.:.e.V.g.t.h.t.w.t.t.t.t.e.y.t.y.g.j.y.e.y.t.t.t.2.2.t.t.t.q.1.<.<.b.j.j.x.c.c.x.t.!.",
"Q.j.c.c.c.c.q.:.t.V.g.t.t.g.y.k.l.y.y.x.x.7.$.&.%.+.7.l.k.g.t.t.g.t.t.t.t.t.t.w.:.>.j.n.c.c.c.c.j.^.",
"V.j.c.c.c.w.=.t.m.t.t.t.t.e.y.k.l.l.k.r.e.y & = : : k k.a.k.g.t.w.g.t.h.t.t.t.t.t.:.<.j.c.x.c.c.j.!.",
"E.j.b.c.2.=.t.n.j.e.t.t.t.y.r.l.l.l.6.% + b B G { X.Q . o a.l.g.i.t.w.w.t.q.e.t.t.1.>.1.h.x.x.x.h.!.",
"Y.j.j.i.:.e.c.j.q.t.t.w.t.w.k.l.v.$.4 S N / ` ` | | ' E E , 3.v.g.t.t.t.t.t.t.t.t.t.q.:.<.g.b.c.h.!.",
"N.h.h.=.q.n.h.2.t.t.w.t.t.t.k.k.5.A b H ^ ' X...| ] } o.o.P f 3.k.e.t.t.t.t.t.t.q.t.t.1.:.>.j.c.j.W.",
"Y.2.:.<.N.g.q.t.q.q.t.q.w.e.k.k.@ b Z F } ..| | | } ) C.Z.K.J - x.q.w.t.q.q.t.q.w.t.q.q.<.:.>.j.h.v.",
"a.#.q.n.q.1.w.q.1.1.q.q.1.w.k.a.6 v Z F { ..| | [ ].Z.H.H.G.K 1 i.2.2.q.2.9.w.q.<.<.1.<.q.q.=.>.=.l.",
"e.#.q.c.<.>.1.>.<.<.1.>.>.w.7.0 S N ! {  .| ] } ].H.S.F.D.D.A.I 0 9.<.<.<.<.1.<.<.1.t.<.<.>.>.=.#.s.",
"v.:.:.q.q.q.q.q.q.1.q.1.<.w.5.% D B ~ X.| | ] } D.S.D.D.D.D.G.A.1 8.q.7.1.1.1.q.q.t.w.q.1.=.=.x.1.z.",
"E.t.>.=.q.q.q.q.q.q.q.w.q.y.8.% S B ~ ..| | ] } H.D.D.D.D.D.D.I 3 w.w.q.1.q.9.q.t.q.w.q.:.=.w.m.h.I.",
"Q.y.y.>.=.<.q.q.q.q.q.w.q.t.7.* D B ~ X.] | ] } H.S.D.D.D.D.D.A.p q.q.q.w.q.q.q.1.q.q.>.=.w.m.k.t.W.",
"E.y.y.y.:.*.>.t.q.q.q.q.q.t.5.$ D V ~ ..| | ] } H.S.D.D.D.D.S.A.+.q.w.q.q.w.q.q.1.q.=.*.y.m.y.k.t.Y.",
"I.t.l.y.t.:.*.>.q.q.q.7.7.q.1.l A n ^ X.| | ] } H.S.D.D.D.G.I f 7.7.q.q.q.q.q.q.q.>.+.y.c.k.g.g.t.E.",
"I.t.y.y.y.t.:.*.<.q.1.1.7.1.1.h.+ c ! _  .| ] } D.S.D.S.D.G.J 1 q.q.>.7.7.<.q.<.:.*.t.n.k.g.g.g.t.Y.",
"I.t.y.y.y.y.y.>.%.>.q.1.1.<.8.8.8 v C Z { } ] } '.D.D.D.D.A.L s 1.7.1.1.q.q.<.=.*.w.x.y.r.y.y.x.t.Y.",
"I.t.y.y.y.y.y.y.:.=.>.1.<.1.<.<.9.i z H  .X.|  .| '.Z.J.J.> p 1.<.1.1.<.<.<.=.*.8.x.y.y.y.y.y.y.t.Y.",
"I.t.y.y.y.y.y.y.q.+.*.>.1.>.>.>.>.%.d x U Y _ X.X.O.( 7 u g 7.7.7.>.;.-.>.-.*.>.c.y.y.y.y.y.y.y.q.Y.",
"r.>.q.q.8.q.q.q.t.<.*.*.=.%.>.>.:.<.-.e < M m T T R W 5 t 8.e.7.-.-.>.-.-.*.q.c.w.w.w.q.8.q.w.r.:.z.",
"I.1.8.t.q.q.q.e.y.e.w.*.+.:.>.<.<.>.7.e.i.e X O O   s T.z.p.7.-.>.>.>.=.@.q.k.w.8.w.e.q.q.q.q.e.2.v.",
"I.t.y.y.y.y.q.e.y.y.e.q.*.*.>.<.<.<.<.7.i.q r a.f.9 d z.i.p.<.=.>.>.=.@.q.y.y.e.t.y.y.t.t.q.e.y.2.U.",
"v.t.y.y.y.y.e.y.y.e.y.e.<.*.+.:.<.;.<.<.i.q q a.k.9 p a.a.0.7.<.<.%.@.<.k.y.y.y.t.y.y.e.e.y.y.y.2.T.",
"r.t.y.y.e.e.e.e.e.e.e.e.y.7.*.*.;.;.;.<.i.0 r i.a.3 p a.i.0.7.;.=.$.>.k.y.e.e.e.e.e.e.e.e.e.t.r.2.U.",
"z.q.i.e.w.i.i.w.e.e.9.e.e.e.7.@.@.;.;.<.i.8 r a.a.9 w 6.4.p.<.=.$.;.j.i.w.w.w.i.w.e.e.e.e.e.e.e.i.v.",
"z.9.w.w.e.w.w.e.w.e.e.e.e.e.w.q.@.@.=.;.w.9 r d.f.q # % % 5.;.a ;.g.w.i.i.i.w.w.e.w.e.e.w.e.e.e.<.v.",
"z.2.e.e.9.e.w.w.e.e.9.e.e.e.e.w.;.@.@.;.9.9 r P.R.(.U.6.* &.&.;.i.i.w.9.w.9.w.0.8.e.w.9.e.9.9.e.2.U.",
"f.9.9.9.e.9.9.9.7.w.9.e.7.7.e.9.i.;.@.g <.8 h (.(.L.h r % g 8.i.i.9.0.w.9.e.w.9.w.9.9.e.w.e.7.e.<.U.",
"d.<.9.;.9.9.7.;.;.;.9.9.5.<.9.9.9.i.-.a :.2 j `.`.y # q 9 6.l.p.1.9.9.9.9.9.9.9.9.9.9.9.7.7.9.e.;.z.",
"a.$.;.;.;.;.;.;.;.;.;.;.-.;.;.<.;.<.<.;.=.; j _.`.y h U.s.U.d.7.;.;.;.;.;.;.9.9.<.5.;.7.7.7.9.9.=.s.",
"d.<.9.;.9.9.9.<.<.;.;.9.9.<.7.9.;.;.9.i.i.8 $ ; ; X h U.(.z.d.p.;.;.9.<.<.9.9.<.;.;.;.;.;.-.-.-.;.z.",
"s.<.9.9.9.9.9.9.9.9.9.9.9.9.9.9.9.9.9.a.a.l s l k h u.(.U.d.i.9.9.9.9.9.9.9.9.9.9.9.7.9.7.7.5.9.;.z.",
"a.;.;.9.;.7.;.9.;.;.9.;.9.;.;.9.<.;.<.9.0.w.9.;.;.i.z.d.i.9.<.;.<.9.;.7.7.;.;.9.;.9.;.<.9.7.;.9.=.z.",
"P.p.p.p.p.p.p.p.p.0.p.p.p.p.p.p.p.p.p.p.0.0.i.g g 8.a.p.p.p.p.p.p.p.0.0.p.p.p.p.0.p.p.p.p.p.p.p.p.T."
};
