/* XPM */
static char *result[] = {
/* columns rows colors chars-per-pixel */
"50 50 190 2 ",
"   c #010000",
".  c #280022",
"X  c #153938",
"o  c #3A2B34",
"O  c #470100",
"+  c #491C01",
"@  c #451709",
"#  c #4D120A",
"$  c #5E1300",
"%  c #710A00",
"&  c #4A230A",
"*  c #563900",
"=  c #4C2518",
"-  c #4F0039",
";  c #4C2C29",
":  c #512B35",
">  c #513B3F",
",  c #782928",
"<  c #766300",
"1  c #60473F",
"2  c #2E0558",
"3  c #382D63",
"4  c #4A3C4D",
"5  c #553852",
"6  c #3B505A",
"7  c #3F6176",
"8  c #54434A",
"9  c #56474A",
"0  c #4F4251",
"q  c #564956",
"w  c #594D58",
"e  c #4F555F",
"r  c #5B565B",
"t  c #6F484F",
"y  c #685B5D",
"u  c #5B4F6E",
"i  c #475669",
"p  c #575765",
"a  c #5D5B6B",
"s  c #4E4E73",
"d  c #585977",
"f  c #605A65",
"g  c #4D6373",
"h  c #4C617E",
"j  c #6A6268",
"k  c #72696B",
"l  c #706D76",
"z  c #9D0000",
"x  c #811E00",
"c  c #9B301B",
"v  c #B41F27",
"b  c #B80035",
"n  c #B7302D",
"m  c #C91936",
"M  c #8A5000",
"N  c #826B00",
"B  c #C9613C",
"V  c #883F53",
"C  c #A33F43",
"Z  c #DD0649",
"A  c #E20D48",
"S  c #D93B44",
"D  c #E6344C",
"F  c #95464A",
"G  c #D24543",
"H  c #D34E46",
"J  c #E35549",
"K  c #E34D50",
"L  c #EC634F",
"P  c #EE6E50",
"I  c #58945F",
"U  c #5C9E6E",
"Y  c #5A8F70",
"T  c #5BA470",
"R  c #60B57D",
"E  c #8E8507",
"W  c #928400",
"Q  c #AFA600",
"!  c #A99E25",
"~  c #C8C53E",
"^  c #8E895D",
"/  c #8A8569",
"(  c #EA864E",
")  c #E58E4A",
"_  c #E8924C",
"`  c #ECA54D",
"'  c #B4E27E",
"]  c #EDCA4E",
"[  c #F0D34E",
"{  c #E7E04D",
"}  c #FEF946",
"|  c #F9F64F",
" . c #F5ED51",
".. c #E7F15F",
"X. c #EDF35A",
"o. c #F6F552",
"O. c #F8F650",
"+. c #F7FA52",
"@. c #F9FB53",
"#. c #FFFF5A",
"$. c #D8EC6B",
"%. c #555E89",
"&. c #4E6382",
"*. c #4C648A",
"=. c #516685",
"-. c #556986",
";. c #526689",
":. c #5C6689",
">. c #556B8C",
",. c #596E8D",
"<. c #5D718E",
"1. c #566D92",
"2. c #596E92",
"3. c #546F99",
"4. c #557095",
"5. c #5E7394",
"6. c #5E759A",
"7. c #636E85",
"8. c #626B88",
"9. c #706F86",
"0. c #657289",
"q. c #757C8C",
"w. c #617695",
"e. c #6A7792",
"r. c #647996",
"t. c #6A7A95",
"y. c #61769A",
"u. c #647A9C",
"i. c #697D9D",
"p. c #5A76A0",
"a. c #657CA1",
"s. c #697EA1",
"d. c #6C809E",
"f. c #748399",
"g. c #788399",
"h. c #7C899D",
"j. c #64BD88",
"k. c #65BB90",
"l. c #6B81A5",
"z. c #6B86AB",
"x. c #6C84AA",
"c. c #7386A3",
"v. c #7986A0",
"b. c #7589A5",
"n. c #7B8BA4",
"m. c #7187AB",
"M. c #7289AD",
"N. c #7C8DAA",
"B. c #7E90AF",
"V. c #6F89B0",
"C. c #758DB2",
"Z. c #788FB4",
"A. c #738EB9",
"S. c #7791B6",
"D. c #7991B6",
"F. c #7791BA",
"G. c #7C94BB",
"H. c #4DCF99",
"J. c #5BCF95",
"K. c #67C48E",
"L. c #67CC91",
"P. c #65D296",
"I. c #69D395",
"U. c #6AD799",
"Y. c #6ADA9C",
"T. c #73D493",
"R. c #78D591",
"E. c #808D9E",
"W. c #96969A",
"Q. c #818FAA",
"!. c #8692A4",
"~. c #8191AC",
"^. c #8A97A9",
"/. c #939DAA",
"(. c #8395B4",
"). c #8799B7",
"_. c #8097BE",
"`. c #859ABA",
"'. c #8A9CBB",
"]. c #9AA2AF",
"[. c #ABB1B9",
"{. c #8BD98D",
"}. c #9ADC88",
"|. c #ADE081",
" X c #839BC1",
".X c #8B9EC0",
"XX c #8EA1C2",
"oX c #91A4C4",
"OX c #98A9C8",
"+X c #A1AFC9",
/* pixels */
"OX.XXX.X.XoXoXXXoXoXoXoX.XoX.XoXoXXXXXXXoXXXXX(.(. X.X XXX.X.X XoXOXXXXXXXXXoXoXXXoXoX.X.XoX.XoX.X+X",
"XXF.G.G.G.F.G.G.F.F.F.F.F.F.G.F.D.F.G.G.F.A.Z.p.3.s.G.G.G.G.G.G.F.F.G.F.G.G.F.G.G.A.G.G.G.F.F.G.A.oX",
"XXF._.G._.G.G.G._._.G._. XG._.G.G. XG.G. XF.a.p.a.a.s. XG. XG. XG._.G._.G._._.G.G. XG.G._._.G._.A.OX",
".XF._.G.G.G.G.G.G.G._.G.G.G.G.G.G.G.G.G.A.a.6. XA.p.a.s.C.Z.F.A.D._.G.D.A.F._.G.G.G.G.G.G.G._._.F.oX",
"(.V.C.C.Z.Z.Z.C.C.C.A.D.G.D.D.A.Z.Z.Z.C.a.a.F.G.G.s.a.p.s.C.A.C.C.Z.Z.A.C.C.Z.A.D.C.C.A.C.C.C.C.m.).",
"Z.x.M.x.M.V.C.V.x.z.m.C.D.Z.Z.C.M.A.m.a.p.V. XV.s.s.s.a.p.s.s.Z.M.Z.C.C.m.M.C.C.C.V.m.M.Z.M.x.M.s.).",
"`.D.D.C.V.C.Z.Z.C.C.C.C.C.m.S.D.C.C.a.6.V. Xs.V.s.A.s.A.y.p.C.G.D.G.D.C.M.D.G.D.D.A.M.C.G.C.C.Z.A..X",
"`.A.D.D.D.D.D.D.D.D.D.D.D.G.S.S.D.a.3.C. Xs.s.s.s.s.s.s.s.y.p.s.G.D.F.D.F.D.D.D.D.D.G.D.G.G.Z.G.D..X",
"'.A.Z.D.D.D.D.D.D.S.S.S.D.D.D.C.a.1.Z.G.z.l.l.l.s.s.s.V.s.s.p.p.z.F.A.Z.F.D.D.F.D.D.D.S.D.D.D.D.A.'.",
").C.D.Z.Z.S.S.D.Z.Z.D.D.D.S.V.l.3.M.G.V.s.x.s.s.a.A.s.s.s.V.a.a.6.z.D.S.D.Z.D.Z.Z.S.Z.S.S.Z.S.S.C.`.",
").C.D.Z.Z.Z.C.D.Z.Z.D.C.D.C.a.6.M.(.M.s.x.z.x.m.A.A.V.s.V.s.s.s.6.6.z.Z.Z.Z.A.Z.Z.C.B.S.C.D.Z.S.C.'.",
").C.Z.C.C.Z.C.C.Z.Z.C.D.C.a.u.M.'.M.b.M.C.-.6 i 3 2 :.(.Z.V.V.s.l.6.5.z.A.Z.Z.C.C.C.C.C.C.C.C.Z.C.'.",
").V.Z.C.C.C.C.Z.C.Z.C.C.a.4.M.'.N.N.c.:.>.V z c ! Q ^ %.8.s.Z.s.l.l.3.6.V.C.C.C.Z.Z.C.Z.Z.Z.C.Z.M.).",
").V.C.C.Z.M.M.C.C.M.C.a.1.m.`.N.N.b.9.% $ B P ( #.#.~ * < q.b.N.l.l.l.3.5.l.C.C.C.C.M.C.Z.M.M.Z.V.'.",
"D.C.C.C.C.M.C.C.C.C.u.1.m.D.b.N.B.g x K Z ] +.o.o. .o.O.O.N d Z.d.l.a.u.6.4.l.C.C.C.C.C.M.C.C.C.V.).",
"B.l.x.z.x.m.m.m.z.i.1.z.C.x.f.b.p C S J [ o.o.o.o.} $.}.}.j.Y u c.6.6.6.6.5.5.l.z.m.b.z.x.x.x.x.s.(.",
"N.a.x.l.l.x.z.l.a.2.s.F.s.i.c.c.X n D D  .@.o.o.| $.}.H.J.Y.I - c.u.a.a.u.6.5.1.a.z.x.l.l.l.l.l.d.B.",
"N.z.m.x.x.z.C.u.3.s.G.s.a.s.s.e.9 n J )  .o.o.o...{.H.T.I.U.T r r.i.a.a.u.u.6.3.5.l.x.x.z.C.m.m.l.B.",
"D.m.m.C.m.C.u.1.a.F.a.s.s.x.e.+ G A ) @.O.o.| X.I.I.I.I.I.P.Y.K.: t.l.l.a.a.l.a.1.3.x.m.M.M.m.C.z.D.",
"(.z.m.z.C.y.1.a.C.s.s.a.a.s.r.& G A ) @.O.O.| X.T.P.I.I.I.P.I.j.4 i.a.a.a.a.a.a.u.5.5.l.M.z.V.M.z.(.",
"(.z.m.m.6.>.a.C.l.u.a.a.u.s.e.& G A ) @.O.O.O.X.T.P.I.I.P.I.I.j.w u.a.a.a.a.a.a.a.6.2.5.a.C.m.m.z.~.",
"N.z.z.a.1.a.C.l.u.a.a.u.a.s.e.+ G A ) @.O.O.O.X.T.P.I.I.I.I.I.K.d u.a.a.u.a.u.l.a.a.6.1.6.a.m.m.z.(.",
"D.l.a.>.a.C.l.6.a.a.u.a.a.s.e.; G m ) @.o.o.O.X.T.P.I.I.I.I.I.k.,.u.a.a.a.a.a.6.a.a.a.6.1.3.l.m.z.D.",
"~.y.1.6.Z.a.u.a.y.y.u.a.u.u.i.i.9 b _ @.O.o.O.X.R.P.I.I.P.Y.U q l.6.u.u.a.6.a.u.u.u.y.a.6.>.2.l.l.n.",
"i.;.y.C.y.6.y.y.6.6.u.y.6.y.a.s.X v L `  .O.O.X.J.P.U.I.I.Y.U 5 6.6.u.6.6.y.d.6.5.6.6.5.y.6.2.2.>.f.",
"t.*.y.M.6.2.5.6.2.5.6.2.5.2.5.y.i F m D  .#.O.X.' R.J.U.I.R Y %.5.5.5.5.5.5.5.5.6.y.y.6.5.6.1.;.*.f.",
"M.1.1.y.y.y.6.y.6.y.6.y.6.y.y.6.c.g , H {  . .o.} |.L.K.L.9 u a.6.y.6.6.6.6.y.6.y.y.y.y.5.1.;.c.p.v.",
"(.s.2.;.y.y.y.y.u.y.u.u.y.y.y.u.6.a.7.# * b ` #.o.#.~   * e.s.a.y.u.y.u.y.y.u.y.y.u.a.y.2.;.i.Z.z.N.",
"(.s.s.6.:.6.6.y.y.u.y.y.u.u.y.y.y.i.u.7.<.t M E E W / g.q.f.l.i.y.u.y.u.u.y.u.y.y.y.u.1.>.u.Z.x.a.~.",
"Z.s.s.s.1.;.2.y.y.y.y.y.6.y.y.y.y.y.u.d.c.e o s s . a ^.n.f.d.y.y.y.y.y.y.y.y.y.y.y.1.;.s.Z.s.c.s.~.",
"N.a.c.s.s.1.:.3.y.6.r.6.r.6.5.y.y.y.y.r.d.w r N.B.9 f v.f.f.r.6.r.6.5.y.y.y.y.y.y.2.%.s.M.l.l.l.a.~.",
"Q.a.s.s.s.s.1.;.5.y.5.w.6.6.r.5.5.5.y.r.l.q w c.f.9 p c.f.d.u.5.5.5.y.y.5.5.y.5.1.;.a.M.c.l.l.l.a.~.",
"N.a.s.s.s.s.s.2.%.3.y.w.5.w.6.5.y.y.y.w.i.q w c.c.9 a b.c.d.u.5.y.y.y.5.w.y.2.1.;.u.b.s.s.s.m.s.d.B.",
"N.a.s.s.s.s.s.s.1.:.2.w.5.y.y.2.2.2.5.w.u.q w b.v.8 ; a a t.u.5.y.5.5.5.5.y.,.;.y.b.s.s.s.s.m.s.d.~.",
"v.a.s.s.s.s.i.s.u.%.=.2.5.2.,.1.,.,.5.2.y.0 w N.E.l q > O 0.r.5.w.2.5.,.2.:.;.w.m.s.s.s.s.s.s.s.6.N.",
"s.3.e.y.6.e.u.u.u.6.;.;.:.:.2.2.,.2.2.>.y.8 y ^./.].^.e.= 0.t.5.1.,.1.,.1.;.5.m.u.u.u.5.y.y.y.e.4.h.",
"Q.y.u.i.u.y.y.u.s.s.r.;.;.>.2.w.5.2.5.5.5.0 y ].[.k @ = O 7.r.w.:.5.2.;.=.r.m.r.y.u.s.y.y.y.y.i.6.b.",
"Q.u.s.a.a.s.u.a.s.s.s.y.;.*.2.2.5.5.5.5.d.0 k [.[.y 8 q.9.t.t.<.2.2.;.&.y.s.s.i.u.i.s.i.u.u.i.s.d.N.",
"v.a.s.s.i.s.i.s.s.i.s.s.w.;.=.,.<.<.<.w.d.0 r W.W.1 j /.!.h.f.r.2.>.&.5.m.s.i.s.s.i.i.s.i.s.s.s.6.b.",
"v.u.i.i.i.i.i.i.i.i.i.i.i.w.=.=.<.<.w.e.d.e + @ & # l /.!.h.f.w.>.=.2.c.s.i.i.i.i.i.i.i.i.i.i.i.d.b.",
"h.6.r.d.d.6.6.d.i.i.i.i.i.i.w.=.=.,.<.r.d.e.f.f.g.h.E.h.f.f.r.=.h 1.l.d.i.d.d.r.i.i.i.i.u.i.i.i.d.c.",
"h.5.d.d.r.d.d.r.i.i.i.i.i.u.u.y.&.&.,.<.<.<.5.5.r.r.r.r.<.5.>.h <.l.d.d.i.r.u.d.i.i.i.i.t.u.u.i.d.b.",
"b.6.d.5.d.6.r.d.r.i.t.u.u.i.t.u.<.=.h ,.<.<.-.>.,.,.>.>.<.=.g 1.d.d.u.r.u.u.r.r.y.u.u.t.r.i.u.i.<.h.",
"h.5.d.5.d.r.d.r.w.r.r.u.r.r.i.r.d.<.h h >.<.<.<.,.-.<.1.;.g ,.d.d.r.r.d.r.r.d.r.u.t.t.u.i.r.r.t.d.n.",
"h.<.5.5.d.<.<.<.<.<.6.r.<.<.r.r.r.d.,.h h -.,.-.h ,.,.h h ,.d.d.5.r.r.5.6.r.r.r.r.r.r.r.r.r.r.r.<.b.",
"d.-.<.<.5.<.<.<.<.<.<.0.<.<.<.5.<.<.<.,.h h h =.-.-.-.g -.d.r.<.<.5.<.<.0.<.w.r.<.<.<.w.y.<.r.r.-.f.",
"f.5.5.<.w.r.r.w.<.<.<.r.w.w.w.r.<.<.<.d.<.h h ,.-.=.h -.d.r.r.w.<.<.r.5.w.r.w.w.<.<.,.<.<.,.<.<.<.h.",
"h.5.5.d.r.r.r.r.r.r.w.r.r.r.w.r.r.r.r.r.r.<.h h h h -.d.d.r.r.r.r.r.r.d.r.r.r.r.r.r.w.r.r.w.w.w.<.h.",
"f.>.d.<.<.<.<.5.d.,.<.d.-.d.g d.<.<.d.-.<.<.-.7 7 *.6.r.5.5.<.5.<.5.<.r.<.<.d.<.<.d.h d.h d.<.d.g h.",
"!.f.f.f.f.f.f.f.f.f.f.f.f.f.f.f.f.f.f.f.f.f.f.r.l f.b.f.f.f.f.f.f.f.f.f.f.f.f.f.f.f.h.f.f.f.f.f.f.^."
};
