/* XPM */
static char *result[] = {
/* columns rows colors chars-per-pixel */
"100 50 225 2 ",
"   c black",
".  c #050809",
"X  c #160307",
"o  c #030516",
"O  c #1A0018",
"+  c #161516",
"@  c #250000",
"#  c #271E00",
"$  c #1C2617",
"%  c #292409",
"&  c #000324",
"*  c #1A1B25",
"=  c #060C30",
"-  c #00133B",
";  c #2E002D",
":  c #0E2B2C",
">  c #062937",
",  c #043638",
"<  c #173636",
"1  c #252627",
"2  c #342A26",
"3  c #3A372A",
"4  c #222A37",
"5  c #25313C",
"6  c #353535",
"7  c #3A3A38",
"8  c #483C3A",
"9  c #48453B",
"0  c #001C47",
"q  c #001F51",
"w  c #3F0050",
"e  c #112F4A",
"r  c #003859",
"t  c #35334E",
"y  c #363D48",
"u  c #3A3D57",
"i  c #013866",
"p  c #433B5B",
"a  c #553857",
"s  c #1C4645",
"d  c #224447",
"f  c #364356",
"g  c #285455",
"h  c #305354",
"j  c #004277",
"k  c #284F6B",
"l  c #384964",
"z  c #3C556D",
"x  c #344F72",
"c  c #3A5678",
"v  c #006769",
"b  c #2C6665",
"n  c #326165",
"m  c #387777",
"M  c #454543",
"N  c #4C4A44",
"B  c #4E4E4C",
"V  c #555249",
"C  c #43465A",
"Z  c #554E57",
"A  c #575855",
"S  c #5B5C5B",
"D  c #695E5B",
"F  c #69685E",
"G  c #464A66",
"H  c #444B69",
"J  c #475569",
"K  c #44536C",
"L  c #575A67",
"P  c #504E72",
"I  c #495975",
"U  c #4A5D7C",
"Y  c #535A7B",
"T  c #715676",
"R  c #4B6D6C",
"E  c #4E617D",
"W  c #566378",
"Q  c #636463",
"!  c #696963",
"~  c #6A6967",
"^  c #6A726F",
"/  c #73746B",
"(  c #76756A",
")  c #746376",
"_  c #777774",
"`  c #83847B",
"'  c #485E82",
"]  c #545D81",
"[  c #4E6383",
"{  c #4D668A",
"}  c #516584",
"|  c #586684",
" . c #546985",
".. c #5B6A85",
"X. c #516789",
"o. c #566C8D",
"O. c #596E8D",
"+. c #457580",
"@. c #547087",
"#. c #5B718F",
"$. c #566D92",
"%. c #596F91",
"&. c #5D7293",
"*. c #5E759A",
"=. c #5E789B",
"-. c #6E6789",
";. c #6A7588",
":. c #617695",
">. c #647996",
",. c #6A7A93",
"<. c #61769A",
"1. c #647A9C",
"2. c #687E9D",
"3. c #5D78A0",
"4. c #657DA1",
"5. c #697EA1",
"6. c #805E89",
"7. c #917594",
"8. c #9C72A3",
"9. c #3B8987",
"0. c #399699",
"q. c #418B8C",
"w. c #469697",
"e. c #519D9F",
"r. c #6A809E",
"t. c #79859A",
"y. c #49A09F",
"u. c #6680A7",
"i. c #6A81A5",
"p. c #6681A9",
"a. c #6D85AA",
"s. c #6F88AE",
"d. c #7186A6",
"f. c #7C8BA3",
"g. c #7086AB",
"h. c #7189AD",
"j. c #6395A8",
"k. c #6F89B0",
"l. c #758DB2",
"z. c #788FB4",
"x. c #748FB9",
"c. c #7790B6",
"v. c #7991B6",
"b. c #7C94BB",
"n. c #7893BC",
"m. c #4CA4A6",
"M. c #54A4A6",
"N. c #51ABAD",
"B. c #54AEB0",
"V. c #55B2B3",
"C. c #67A8B8",
"Z. c #57C1BF",
"A. c #7F99C1",
"S. c #5DBFC1",
"D. c #5EC6C7",
"F. c #61C8CA",
"G. c #68D8D9",
"H. c #6CDEE0",
"J. c #6EE3E5",
"K. c #73EBED",
"L. c #75EFF1",
"P. c #79F6F9",
"I. c #8B8B84",
"U. c #8A8A87",
"Y. c #93938C",
"T. c #99988E",
"R. c #958B91",
"E. c #9A9A93",
"W. c #9B9A95",
"Q. c #A3A39B",
"!. c #A4A598",
"~. c #808EA5",
"^. c #8693A6",
"/. c #8593AC",
"(. c #8995AB",
"). c #8497B7",
"_. c #899AB6",
"`. c #8C9EBB",
"'. c #B391B8",
"]. c #8FA1BE",
"[. c #99A2B1",
"{. c #A8A8A5",
"}. c #ABABA4",
"|. c #B5B5AB",
" X c #B7B7B4",
".X c #BBBBB3",
"XX c #C2BEBA",
"oX c #BEC0B3",
"OX c #C2C2B6",
"+X c #C5C4BD",
"@X c #C9C9BC",
"#X c #829BC1",
"$X c #92A4C3",
"%X c #C89FCE",
"&X c #CFACD2",
"*X c #D0A9D3",
"=X c #D5ADDB",
"-X c #DBAFE3",
";X c #DDB6E2",
":X c #E7BDED",
">X c #EABFF0",
",X c #C8C8C5",
"<X c #CCCCC4",
"1X c #CFD0C9",
"2X c #D6D6C7",
"3X c #D5D5CB",
"4X c #DADACD",
"5X c #DCDCD3",
"6X c #DADADA",
"7X c #E2DAD8",
"8X c #DFE2D0",
"9X c #E2E2D5",
"0X c #E5E5DA",
"qX c #E8E7DA",
"wX c #EBEBDE",
"eX c #ECC2F2",
"rX c #F3C6F9",
"tX c #F1D4F1",
"yX c #E7E7E7",
"uX c #EEEEE1",
"iX c #F5F5E6",
"pX c #F7F7E8",
"aX c #FAFAEB",
"sX c #FFFFF1",
"dX c white",
/* pixels */
"b.b.b.b.b.b.n.b.b.b.b.b.b.b.b.b.b.b.b.b.b.b.b.a.4.5.2.| O.b.).b.b.b.b.b.b.b.b.A.b.b.b.b.b.A.b.b.b.b.b.b.b.b.b.b.b.b.b.b.b.b.b.b.b.b.b.n.b.b.x.b.l.4.4.A.A.k.A.n.n.).n.n.).n.#Xx.b.b.b.b.b.b.b.b.b.b.x.$X",
"b.b.b.A.b.b.b.b.b.A.b.b.b.b.b.A.b.b.b.b.b.#Xx.4.{ J # o &.A.A.n.b.A.b.b.A.b.b.b.b.b.b.b.b.b.b.b.).A.b.A.b.b.b.A.b.A.b.b.A.b.A.b.b.b.).A.n.A.A.A.5.3.3.k.A.A.A.x.A.A.A.A.A.x.A.).b.b.A.b.A.b.b.b.b.#Xn.$X",
"b.b.b.b.b.b.b.n.b.b.b.b.b.b.b.b.b.b.n.b.A.4.*.4.W = X L l.b.b.b.n.b.b.b.b.b.b.A.b.b.b.b.b.b.b.b.b.b.b.b.b.b.b.b.b.b.b.b.b.b.n.b.b.b.b.b.b.b.n.5.4.4.4.3.x.A.x.A.x.n.n.).A.#Xx.n.b.b.n.b.n.b.b.b.b.b.x.$X",
"v.b.b.b.b.v.b.b.b.b.b.b.v.b.b.b.b.b.b.n.a.* o.A.b.z M A y a.l.v.l.n.b.z.z.h.n.b.b.b.v.b.b.b.b.b.b.b.b.c.v.b.c.b.b.b.v.b.v.b.b.b.b.z.n.n.n.n.5.&.k.#X5.4.3.5.5.x.l.l.z.n.l.#X5.z.b.b.b.b.b.b.v.b.b.b.x.$X",
"a.a.a.k.l.l.l.k.a.a.l.v.b.b.l.l.l.l.l.1.*   d.l.h.I z 2.9 f h.l.g.l.x.l.h.h.l.k.l.k.s.h.l.l.h.g.s.p.p.s.s.h.h.l.l.k.a.l.l.b.v.v.x.l.l.l.x.5.*.l.A.5.k.4.4.3.5.A.l.k.k.l.5.A.5.x.l.l.l.k.a.h.l.l.h.h.4.).",
"l.l.h.s.s.s.l.l.k.s.a.s.l.h.l.l.g.n.4.4   . y 4 o.a.u.a.E 5 u.b.l.l.l.l.h.h.z.x.c.l.s.p.l.c.l.d.s.l.l.l.s.h.s.l.l.a.s.a.l.l.l.l.l.l.l.l.4.$.k.A.A.5.5.k.5.3.3.5.x.z.l.x.A.5.5.x.l.l.l.a.a.l.z.l.s.h.a.`.",
"c.b.c.l.l.l.l.l.l.l.l.l.l.l.c.b.x.a.4.} + . X.W 2 o.s.a.>.N f a.n.b.b.z.l.z.n.z.v.v.l.c.c.b.c.z.c.v.b.v.c.l.l.c.l.l.l.l.l.l.l.l.z.l.x.4.*.k.A.k.4.k.4.4.k.k.3.3.5.n.).x.n.l.n.n.v.v.b.l.l.n.b.v.l.v.x.$X",
"c.c.c.v.l.b.v.v.b.b.b.c.c.c.b.l.l.4.*.l.r.. =.k.Q 6 [ a.a...o <.l.l.z.z.n.z.z.b.c.c.c.v.c.c.v.c.v.v.c.c.c.c.c.c.c.c.c.b.c.l.b.l.n.n.5.*.4.A.k.4.4.4.5.k.4.5.5.3.4.5.z.v.z.z.n.z.b.z.z.z.n.z.v.z.b.v.k.].",
"v.z.z.z.v.v.z.v.l.z.v.c.c.c.b.l.4.$.x.b.a.o.4.5.d.f 7 ,.a.&.4 #.4.l.l.x.v.v.z.z.v.v.z.v.v.v.z.v.c.z.z.z.z.v.v.c.b.l.v.c.v.v.v.v.n.5.*.5.#Xa.4.k.k.p.a.p.5.k.4.k.*.*.5.A.x.z.v.v.v.v.x.z.z.z.z.b.v.v.k.$X",
"z.z.z.z.z.v.l.v.c.l.l.c.l.c.k.4.$.h.n.5.a.a.a.4.a.%.f L b.2.5 d.*.*.l.l.z.v.n.l.z.z.l.z.z.z.z.z.z.z.z.z.z.z.c.l.v.l.v.v.l.l.l.z.4.$.5.A.k.5.k.4.4.4.5.4.4.p.4.4.5.4.3.5.x.v.z.v.z.v.z.z.l.z.z.z.c.v.k.`.",
"z.z.z.z.z.z.l.z.l.z.l.l.l.l.1.$.x.x.k.5.p.4.a.a.5.l.| . j r & j 4.4.4.a.v.l.z.l.l.l.z.l.c.z.l.l.z.z.z.z.z.z.z.z.l.z.l.l.l.c.l.u.$.a.n.k.4.4.a.4.k.5.p.a.p.k.4.a.5.5.3.*.5.n.l.x.z.z.z.z.l.z.l.z.l.v.k.`.",
"z.h.z.l.l.z.l.l.z.l.l.v.l.3.*.k.A.a.4.a.5.a.a.4.5.4.l V W.` 3 I.{ k $.4.g.v.l.l.l.c.l.l.h.z.c.c.c.h.z.z.h.z.z.c.l.z.l.l.c.x.4.&.a.b.k.4.p.a.5.k.k.4.5.a.p.5.a.a.5.5.4.*.*.5.z.l.l.h.z.z.l.l.l.l.h.c.k.$X",
"z.h.c.h.l.l.l.l.l.l.l.l.4.*.a.b.a.4.a.5.5.a.a.5.h.I   I.iX@XV 4XU./ ;.$.4.l.l.l.l.l.l.l.l.l.l.l.z.z.h.l.l.l.l.h.l.l.z.l.l.4.*.4.A.k.4.a.5.p.k.p.4.4.a.a.5.a.4.p.5.5.5.4.3.3.k.x.h.z.z.l.l.l.l.l.c.c.g.].",
"h.z.h.z.l.l.h.l.l.h.l.1.$.a.b.4.4.a.4.a.p.a.4.5.a.z   * 1 * . 6 7XuX_ i $.&.c.v.z.l.l.l.l.h.l.h.h.z.h.l.l.l.l.z.h.l.l.l.4.*.4.b.k.p.4.4.a.a.4.4.4.k.4.5.a.5.a.5.4.k.5.4.4.3.*.5.h.z.h.l.h.l.z.l.h.c.a.`.",
"l.l.z.h.h.l.h.l.h.l.=.$.g.b.u.u.5.4.a.4.4.a.4.a.J   M Q A S L A 7 N 7 6 6 K $.p.h.h.h.l.h.l.h.l.h.l.z.h.h.h.l.h.l.h.l.4.$.4.b.a.5.4.p.5.5.4.5.5.5.5.4.5.4.5.4.4.4.4.4.4.4.*.*.$.5.l.k.l.l.h.l.x.l.h.a.`.",
"i.i.d.g.a.g.a.a.a.=.$.g.l.4.1.4.4.4.4.4.4.4.4.l N S S Q Q ! Q 1   {.5XqXuX|.  J g.a.g.g.g.i.i.i.p.d.i.d.a.a.g.a.a.h.4.$.4.l.a.1.4.4.5.4.4.p.4.4.3.4.4.3.<.4.*.4.4.3.3.3.3.*.*.*.<.5.g.a.g.a.5.5.u.a.4.).",
"i.i.i.i.i.s.s.i.*.$.a.c.i.1.1.=.4.=.=.*.4.4.z N F Q Q Q A + 1 |.2XwXaXaXaXwX4X|.0 g.h.u.u.i.a.i.i.u.i.i.i.i.p.h.s.1.$.4.c.s.1.1.*.<.*.*.*.4.4.*.*.*.4.4.*.4.4.*.4.*.*.3.3.4.<.*.$.$.5.5.5.5.5.5.i.i.=.).",
"s.s.s.s.i.h.s.1.&.i.v.u.2.i.4.4.1.1.1.4.4.l   + L ~ ! ^ V p |.uXaXaXiXiXiXpXsXiX|.q u.g.g.h.h.h.d.s.s.h.g.a.h.h.u.%.1.c.h.1.u.4.4.4.4.4.4.*.4.4.4.4.4.4.4.4.4.*.4.4.4.4.4.4.4.<.3.*.3.5.x.5.l.l.h.h.u._.",
"s.h.g.h.h.s.=.o.u.v.4.4.4.4.4.4.4.a.4.z l ! ! Q 6     *   B 3XaXiXaXiXaXsXaXsXsXiX|.;.g.h.g.g.g.h.h.h.s.h.h.h.4.o.=.v.a.4.4.4.u.4.5.5.5.4.4.4.4.4.4.4.4.4.4.4.4.5.4.5.5.5.5.4.5.5.4.$.*.5.x.5.x.h.h.a._.",
"s.d.g.h.g.=.o.i.l.4.4.4.4.4.1.p.=.x K V V I.}.}.!.Q.Q.!.Y.T.5XiXiXiXsX2X|.OX|.3XsXiXF :.c.l.l.h.d.h.s.d.g.h.4.$.=.v.i.2.4.4.2.4.4.4.4.4.4.4.4.5.4.4.4.4.4.5.4.4.4.4.4.4.4.4.4.4.4.4.4.$.*.5.A.5.g.h.u._.",
"g.s.h.a.=.o.u.l.4.4.4.4.4.1.u.*.W ! _ {.}.|.4X7XiXaXaXsXpXqXaXiXiXaX9X7.w a w ) 2XuX6 r c } X.2.h.s.g.s.g.2.$.=.l.a.1.4.4.4.1.4.4.4.4.4.4.4.4.4.4.4.4.4.4.4.<.4.4.4.4.4.4.4.4.4.4.4.4.*.$.*.5.5.s.h.u._.",
"s.g.a.*.o.u.h.i.1.4.4.4.1.4.*.l T.9X5X5X5XpXpXaXaXaXaXiXiXiXiXiXaX9X_ 8.=X=X-X'.7.2X9 S F N 3 W i.s.s.s.4.o.1.h.p.=.4.4.4.4.4.4.4.4.4.<.4.4.4.4.4.4.<.4.4.<.4.4.4.4.4.4.3.4.4.4.4.4.4.4.<.$.%.5.g.g.u._.",
"s.i.*.$.4.l.u.1.4.4.1.4.4.1.K T.0XpXiXpXpXiXiXwXwXwXiXiXaXiXiXaXiX/ 8.&X-XeX>XeX;X^ 1 oX<XQ.I.A f s.s.4.o.*.h.h.1.4.4.4.3.4.1.4.4.4.4.4.4.<.4.4.4.4.4.4.4.4.4.4.4.4.4.*.1.4.4.4.1.4.4.4.5.3.%.$.i.g.p.).",
"a.1.$.1.l.2.1.1.=.1.4.2.i.q |.aXpXiXpXiXaXiX4XQ.Y.Y.}.9XpXiXiXaXiX! 7.eX>X>X>XrX:X~ $ I.T.R.S o . K i.o.$.l.a.*.1.1.1.1.4.1.1.1.4.<.4.<.4.<.<.1.<.4.<.4.<.4.<.4.<.4.<.4.4.1.1.<.4.4.<.*.<.<.*.%.&.i.4./.",
"%.o.1.l.<.*.<.<.&.*.4.<.-.Q.0XaXiXiXpXiXiX2X!.I.I.U.I.}.9XiXiXaXiX/ 8.:X>XeX>XrX=X6 S U.U.V z X.] X.$.%.l.5.&.<.1.*.&.1.<.<.<.<.1.<.&.<.*.&.&.*.*.<.&.<.<.<.<.<.<.<.*.&.*.<.*.<.1.<.*.*.<.&.<.<.o.%.{ f.",
"o.X.1.g.&.&.&.*.&.&.*.*.= OXaXiXpXpXpXpXiX}.Y.I.E.` Q S }.pXaXiXpX4XqXtXrXeXrX=X) / Y.oX! k %.o.%.%.X.$.5.<.%.&.&.&.*.%.<.%.&.&.<.%.<.<.<.*.<.<.$.&.<.<.&.&.<.:.&.&.&.&.&.*.&.&.*.&.&.<.<.*.&.*.$.o.' t.",
"4.&.$.<.<.<.<.<.<.<.<.-.|.uXaXpXpXpXiXaXiXI.B _ Q U.,X{.Y.pXaXiXpXaXaXXX-.) R.R.( .X! _ ..<.>.4.5.5.3.$.4.1.<.<.=.*.<.*.<.&.<.<.<.<.1.1.4.<.<.<.<.<.<.4.<.<.<.<.<.<.<.<.<.<.<.*.<.<.<.1.<.<.*.%.o.g.3.f.",
"h.4.%.X.<.<.<.4.1.1.<.C 8XaXuXpXpXpXiXpXuXB &X^ U.6XdX6X/ aXpXiXiXiXaX4XXX!.T.&X4X,X    f r o , &.#X5.*.X.*.<.4.1.1.1.1.4.4.<.4.1.1.<.1.<.4.<.1.<.4.1.<.4.<.1.1.4.<.4.<.<.<.4.<.1.1.1.1.4.<.%.X.1.z.4.).",
"5.g.5.&.$.&.<.<.1.1.<.= 2XsXiXpXpXpXpXpXiX|.|. XyXdXyXU.{.iXaXiXpXpXpXaXaXaX5X5XaX4XF F # 7.'.8.-.} 5.g.<.$.&.<.<.<.<.<.<.<.<.<.<.1.<.1.1.1.<.<.<.1.<.<.<.<.<.<.1.<.<.<.<.<.<.1.<.1.<.<.<.$.$.5.l.d.1.).",
"5.5.5.4.$.X.%.<.<.<.<.e !.7XuXpXiXpXpXiXpXaX!..X3X,XW.!.pXsXaXaXpXiXpXpXpXaXuX9XpXiX}.I.$ %XrX%X6.H h.5.5.<.X.$.<.4.<.<.<.<.1.<.<.<.<.<.<.<.<.<.1.<.<.<.<.<.<.1.<.<.<.<.4.<.<.<.<.<.<.<.$.X.5.z.5.d.4._.",
"g.g.g.k.5.o.X.%.<.<.4.4 3 |.yXpXpXpXpXpXpXpXaX!.B Q Y.3X4X5X4X1XiXpXiXpXpXpXpXpXpXiX9X}.V 7.'.T x ).5.5.5.5.&.X.$.<.<.<.<.<.<.<.<.:.<.<.<.:.<.:.<.<.<.<.<.<.<.:.<.:.<.<.<.<.<.<.<.<.<.&.X.5.z.5.5.5.1./.",
"5.:.O.-.4.4.%.$.%.1.<.t {.uXpXpXpXpXpXpXpXpXpXaXaXsX5XY.Y.U.U.Q qXaXiXpXpXpXpXpXpXaXiX@XT.f   ..g.5.5.5.5.5.5.&.X.$.<.<.:.:.<.:.:.<.:.:.:.<.<.:.:.:.<.:.:.<.:.<.:.<.&.<.:.:.:.<.<.<.$.$.5.5.f.5.d.d.4./.",
",.h g < I 5.1.o.X.%.<.>.- +XsXiXiXiXiXaXpXpXpXpXiXiXiXuXuXiXiXiXpXpXpXpXiXpXpXiXiXiX<XE.I.9 E i.i.r.d.i.5.5.d.5.1.X.$.<.<.<.&.<.<.:.<.<.:.<.<.:.<.<.:.<.<.:.:.:.*.:.:.:.*.<.<.<.&.O.X.1.g.5.5.5.i.i.1./.",
"j.G.K.D.m X * t o.o.%.<.- Q.uXpXiXiXaXiXiXpXpXiXpX0X|._ Q.5XiXaXpXiXpXpXpXpXiXaXiX<XY.I.Y.9 } g.r.i.d.i.5.5.5.5.5.&.X.$.&.<.:.&.&.:.&.&.&.&.&.:.&.:.&.&.:.:.&.<.&.<.<.:.:.%.&.:.o.X.<.d.5.5.5.5.i.i.=.).",
",.R b D.L.J.G.9.t } } %.>.e +XsXpXiXiXpXpXpXpXiXpXiXqXqX<XQ / iXpXiXpXiXpXpXiXpXiXiX0XE.I.9 E i.5.4.2.2.5.5.5.5.5.5.| ] O.&.%.%.%.o.%.%.&.%.%.%.&.&.&.&.%.O.%.:.%.<.:.:.%.%.%.o.} <.h.5.5.5.5.5.r.d.=./.",
"&.} I E 9.m.J.G.w.f [ o.&.' Q |.uXaXiXpXiXpXpXpXpXiXaXaXiX4X@XQ.uXaXpXpXiXpXpXpXiXiXaX,XW.9 E 1.:.:.:.:.:.:.<.1.4.1.<.$.X.o.o.%.&.%.O.%.%.o.O.%.%.%.o.%.o.o.$.%.&.%.o.$.%.$.%.} 1.d.1.1.5.1.<.1.:.>.$.f.",
"} ; u I Y G m.L.B.+ o.o.' &.c C E.4XaXaXiXiXiXpXiXiXiXiXiXsXaX,XuXpXpXpXpXpXpXpXiXaX0X|.Y.9 I r.1.1.1.1.1.1.<.<.1.2.2.2.O.] $.$.&.%.&.&.%.&.O.O.%.O.o.%.&.&.%.o.O.o.o.%.&.X.} 1.i.2.1.2.2.<.1.&.<.2.*.~.",
"j.Z.q.f P @ b K.y.: 4.4.$.[ 1.o.0 F OXwXuXsXaXpXsXuXuXaXiXiXiXsXaXpXpXpXiXpXiXpXiX5XQ.I.Y.9 I i.5.5.5.5.2.5.5.1.2.5.5.5.1.o.] o.&.&.&.&.&.&.%.&.&.%.O.&.&.&.%.O.%.%.&.:.| [ 1.5.5.1.1.4.5.2.1.1.1.5.4./.",
"C.F.G.D.m.w.S.P.D.< P Y H U o.1.,.- + W.W..X0XuXiX3X5XaXiXpXiXuXiXpXiXpXiXaXpXaXiX4X.XT._ A @.i.5.5.5.2.5.5.2.5.5.5.5.5.5.<.X.} o.&.%.&.&.&.&.&.&.&.&.&.&.&.&.:.%.:.%.X.[ :.g.5.2.5.2.4.2.5.2.2.5.5.*./.",
"| @ V.G.G.G.G.P.J.< g b b K H l I K 7 ^ ~ Q {.|.}.,XqXiXiXiXuX.XuXaXpXpXiXpXiXiXiXaXiXQ.1 o.r.=.2.2.2.2.2.2.2.2.2.2.2.2.2.5.4.X.[ ..:.#.&.&.#.&.&.#.&.#.&.#.&.#.#.&. .} &.g.5.2.r.2.2.2.2.2.2.2.2.2.*./.",
">.#.H O 5   b P.J.d w.N.N.m s g h > V OX+X+XB &   |.aXiXaXiX X{.uXpXiXpXpXpXiXiXpXwX+X` . E d.r.2.2.2.2.2.2.2.>.2.2.2.2.2.2.2.1.o.E o.#.&.#.&.O.#.#.#.#.#.&.&.#.#...[ &.d.r.1.r.1.r.1.r.2.2.2.2.2.2.*./.",
"@.: E >.>.P 9.P.H.< O 5 O q.N.N.B.w.< s d < . W f XXaXiXaX4XN .XiXiXpXpXpXpXpXaXiX,XU.Z a ..r.r.1.2.>.2.1.1.2.2.2.>.2.2.2.1.2.2.>. .E o.&.O.#.#.&.#.&.#.#.#.#.#.| ' :.i.r.1.r.>.2.1.2.1.2.2.1.2.2.2.=.f.",
"C.D.b 1 * n F.L.V.< ..&.>.z < s : b N.N.m.N.h   XXpXpXpXiX.X. N @X3XqXpXiXiXiXaXqXI.7 =XeX) z r.>.2.2.1.>.2.2.2.2.2.2.>.1.2.2.2.r.>.@.E  .#.O.#.O.O.#.#.#.#.#.} U :.2.i.1.r.>.1.>.1.>.>.1.>.2.1.1.2.&./.",
"@.G.L.H.J.G.D.V.d  .r.r.r.#.W ....W s g g h M., @XsXuXaX4X2     8 V V XX5X5X@XQ.W.% O %X=XT z r.>.>.>.2.>.>.>.>.<.>.>.<.>.>.>.>.>.r.&.E E o.O.#.#.O.O.O.O.O.} E ..r.2.>.>.>.r.r.>.2.>.2.2.>.>.>.>.2.&.^.",
"%.R 9.9.q.m g g W >.=.>.#.>.r.r.r.>.I H G K b '.*X7XsX4X^ y.m.M.m.>   9 D ! S # f W  .Z a @ W r.>.>.>.>.&.>.>.>.;.:.:.>.>.,.&.>.r.&.r.>.[ E | #... . .O.#.} E #.i.2.>.>.>.>.>.>.>.r.=.r.&.r.,.>.>.2.%.f.",
"=.P t p p G G I &.o.#.>.#.#.#.#.#.&.,.@. .[   =XrX:XXX_ r m m m m w.e.q.0.v & E E ,.>.K I I ..r.=.#.@.#.#.#.>.#.@.O.O.#.:.#.#.#.&.;.#.&.#.E E [  . . . .[ E ..i.:.:.&.#.#.#.&.#.>.&.;.:.#.&.>.:.>.1.@.t.",
"#.2.1.=.2.2.1.>.#.#.#.>.>.#.&.>.#.#.&.=.@.E l 7.'.7.a r :.G C C u m 9.9.q.R Z 2.>.#.#.:.>.#.#.O.#.&.:.:.#.>.&.>.>.#.#.#.#.>.&.#.:.#.#.&.>.&.E E }  .o.} I O.2.2.,.:.#.&.>.#.>.>.>.&.&.#.@.#.#.@.o.#.@.f.",
">.>.>.,.>.>.>.>.,.>.>.>.,.>.>.2.>.,.>.r.1.%.{ s   : K r.r.i.i.r.r.C t p t L ;.<.>.>.,.:.>.:.:.:.,.>.,.>.,.>.>.2.>.>.>.>.>.2.,.>.r.>.>.>.>.r.:. .[ | | U #.r.r.>.>.>.,.,.>.>.>.,.>.>.>.>.,.>.,.:.&.,.&.^.",
"o.o.#.o.#.#.@.o.%.o.#.@.%.#.@.%.o.@.#.o.$.&.[ U U U X.&.&.o.o.o.+.r.=.&.=.&.$.@.#.%.@.#.#.%.%.o.o.o.o.#.#.@.%.#.@.$.o.#.@.%.#.@.%.%.%.@.%.$.%.{ c x x [ &.&.o.o.@.%.@.#.@.#.@.#.%.@.%.#.@.%.#.#.o.#.{ t.",
"^.^.^.^.^.^./.^.^.^.^.^./.^.^./.^.^.^.^.^.^./.t.,.~.(./.^./.^.^.^.^.f.^.^.^./.^.^.^./.^.^.^.^.^.^.^.^.^.^.^./.^.^.^.^.^./.^.^./.^.^.^.^.^./.^.^.^.t.t.(.(.^./.^.^.^.^.^./.^././.^.^.^.^./.^.^.^.^.(.f.[."
};
