/* XPM */
static char *result[] = {
/* columns rows colors chars-per-pixel */
"100 50 199 2 ",
"   c #000001",
".  c #0D0D0C",
"X  c #04090B",
"o  c #0B0F13",
"O  c #001717",
"+  c #0D1116",
"@  c #071A1C",
"#  c #121211",
"$  c #1C1B1B",
"%  c #17161E",
"&  c #11100F",
"*  c #20201E",
"=  c #151C25",
"-  c #181F27",
";  c #012E2E",
":  c #002020",
">  c #1D232D",
",  c #15282A",
"<  c #1F2A37",
"1  c #1B2534",
"2  c #003D3D",
"3  c #003333",
"4  c #242524",
"5  c #2B2C2C",
"6  c #242E3C",
"7  c #252C35",
"8  c #2D333C",
"9  c #2D3134",
"0  c #343432",
"q  c #3D3D3B",
"w  c #3A323D",
"e  c #372D37",
"r  c #293646",
"t  c #2B394B",
"y  c #263748",
"u  c #343B42",
"i  c #373D46",
"p  c #2D3E54",
"a  c #4E394E",
"s  c #004545",
"d  c #005B5B",
"f  c #005555",
"g  c #0F4D54",
"h  c #37414E",
"j  c #294559",
"k  c #35465D",
"l  c #344456",
"z  c #20414F",
"x  c #364A61",
"c  c #3B4E64",
"v  c #3A4E68",
"b  c #3D516B",
"n  c #3E5066",
"m  c #34526A",
"M  c #006262",
"N  c #0A6A6F",
"B  c #007373",
"V  c #027D7D",
"C  c #4C4C4B",
"Z  c #464644",
"A  c #53534E",
"S  c #4A4957",
"D  c #5A455A",
"F  c #555553",
"G  c #5C5C56",
"H  c #5B5C5B",
"J  c #61615D",
"K  c #40556E",
"L  c #445468",
"P  c #445A74",
"I  c #445D7C",
"U  c #495D78",
"Y  c #555061",
"T  c #6D546F",
"R  c #4C627D",
"E  c #596775",
"W  c #5F6367",
"Q  c #616160",
"!  c #6B6B65",
"~  c #65696B",
"^  c #73736E",
"/  c #727371",
"(  c #7C7C74",
")  c #7C7C7B",
"_  c #6D6B77",
"`  c #81817E",
"'  c #445F80",
"]  c #456282",
"[  c #4A6685",
"{  c #4E6885",
"}  c #4A668A",
"|  c #4D6A8C",
" . c #476388",
".. c #516D8E",
"X. c #546C88",
"o. c #54708F",
"O. c #4E6B91",
"+. c #516E92",
"@. c #557294",
"#. c #597696",
"$. c #5B7897",
"%. c #56749A",
"&. c #59779C",
"*. c #5C799C",
"=. c #667589",
"-. c #607D9F",
";. c #617790",
":. c #606E80",
">. c #5677A1",
",. c #5778A1",
"<. c #5C7CA3",
"1. c #5D7FA8",
"2. c #617EA2",
"3. c #825F82",
"4. c #997399",
"5. c #806B80",
"6. c #008A8A",
"7. c #008585",
"8. c #019C9C",
"9. c #2D9595",
"0. c #00A0A0",
"q. c #06ACAC",
"w. c #00B7B7",
"e. c #00B9B9",
"r. c #68809F",
"t. c #5F80A9",
"y. c #5F80A6",
"u. c #6381A5",
"i. c #6283AB",
"p. c #6985AB",
"a. c #6988AF",
"s. c #6B86A6",
"d. c #6687B0",
"f. c #6788B1",
"g. c #6C8CB4",
"h. c #6E8FB8",
"j. c #708FB6",
"k. c #708FBB",
"l. c #6F90B9",
"z. c #6F90B7",
"x. c #7090B7",
"c. c #7293BB",
"v. c #7596C1",
"b. c #7798C3",
"n. c #7A9BC4",
"m. c #7E9FC8",
"M. c #00C7C7",
"N. c #00D9D9",
"B. c #00D0D0",
"V. c #00E8E8",
"C. c #00E5E5",
"Z. c #00F5F5",
"A. c #00F8F8",
"S. c #868683",
"D. c #8A8A84",
"F. c #8D8D8B",
"G. c #919189",
"H. c #9B9B92",
"J. c #999A97",
"K. c #A1A19A",
"L. c #BA90BA",
"P. c #B08AAE",
"I. c #ABABA3",
"U. c gray64",
"Y. c #B1B1AA",
"T. c #BABAAE",
"R. c #BBBBB2",
"E. c #BABAB9",
"W. c #C5B7BF",
"Q. c #C2C2B9",
"!. c #CACABE",
"~. c #80A1CA",
"^. c #CA96CA",
"/. c #D098D0",
"(. c #DBA8DB",
"). c #E5ADE5",
"_. c #E6B5E6",
"`. c #ECB4EC",
"'. c #F5BDF5",
"]. c #CDCDC4",
"[. c #CBC4C6",
"{. c #D3D3C9",
"}. c #D9D9CB",
"|. c #D4D4C7",
" X c #DEDED3",
".X c gray85",
"XX c #E4C8DC",
"oX c #E3E3D6",
"OX c #E5E5D8",
"+X c #EAEADC",
"@X c #F8C0F8",
"#X c #F3C9EF",
"$X c #EFEFE0",
"%X c #ECECE9",
"&X c #F5F5E5",
"*X c #F8F8E8",
"=X c #F8F7E8",
"-X c #F8F8F8",
";X c None",
/* pixels */
";X;X;X;X;X;X;X;X;X;X;X;X;X;X;X;X;X;X;X;X;X;X;X;X;X;X;X;X;X;X;X;X;X;X;X;X;X;X;X;X;X;X;X;X;X;X;X;X;X;X;X;X;X;X;X;X;X;X;X;X;X;X;X;X;X;X;X;X;X;X;X;X;X;X;X;X;X;X;X;X;X;X;X;X;X;X;X;X;X;X;X;X;X;X;X;X;X;X;X;X",
";X;X;X;X;X;X;X;X;X;X;X;X;X;X;X;X;X;X;X;X;X;X;X;X;X;X;X;X;X;X;X;X;X;X;X;X;X;X;X;X;X;X;X;X;X;X;X;X;X;X;X;X;X;X;X;X;X;X;X;X;X;X;X;X;X;X;X;X;X;X;X;X;X;X;X;X;X;X;X;X;X;X;X;X;X;X;X;X;X;X;X;X;X;X;X;X;X;X;X;X",
"v.v.c.b.v.v.v.v.v.v.v.v.v.v.v.v.v.v.v.v.v.v.l.t.,.1.k.n.v.v.v.v.v.v.v.v.v.c.v.v.v.v.v.v.v.b.v.v.v.v.v.v.v.v.v.v.v.v.v.v.v.v.v.v.v.v.v.v.v.v.c.v.f.>.<.g.v.v.v.v.b.b.v.v.v.v.b.b.v.v.v.v.v.v.v.v.v.v.v.v.",
"v.v.v.b.v.v.v.v.b.b.v.b.v.v.v.v.v.v.v.v.b.b.1.,.,.,.,.v.b.v.v.b.v.b.v.b.c 7 # t v.b.v.v.v.n.v.b.v.v.v.v.v.v.v.v.v.b.b.v.v.v.v.v.b.v.b.b.v.b.v.f.>.,.>.>.g.v.v.v.b.b.v.b.v.v.b.b.v.v.v.b.v.v.b.v.v.b.b.v.",
"v.v.v.v.l.v.v.v.v.v.v.b.v.c.b.c.v.v.v.v.v.1.>.v.b.i.>.<.f.h.v.k.c.c.v.c.U = # u U n.c.v.b.c.b.c.b.v.v.v.v.v.v.v.v.v.v.v.v.v.c.v.v.v.v.v.c.v.i.,.1.m.f.,.,.d.g.h.v.h.c.v.v.v.h.c.b.v.b.v.c.b.c.c.v.v.v.v.",
"g.g.g.l.l.l.l.h.g.g.l.c.c.v.c.c.l.l.l.l.i.>.f.l.g.d.1.>.1.f.g.k.h.P a.c.x.P 8 w h s.x.x.c.l.l.h.g.g.f.h.g.h.l.l.h.g.g.h.c.v.v.c.c.l.l.l.l.d.1.i.h.v.f.1.,.,.d.h.h.h.h.h.h.h.g.h.h.l.l.g.x.c.c.x.h.h.h.g.",
"f.g.f.f.g.g.l.l.f.f.f.l.l.l.c.l.g.h.g.t.>.i.v.h.d.d.d.1.>.1.d.g.X.  -.j.g.g.U L s.E [ f.h.h.h.a.f.g.g.g.f.f.g.l.h.f.d.f.h.l.c.l.l.l.h.l.i.,.1.h.v.d.i.d.1.,.>.d.h.g.h.h.h.g.g.g.h.l.g.g.f.h.c.c.f.f.g.g.",
"l.c.c.h.g.g.l.l.h.h.h.g.h.h.l.c.l.l.i.>.1.m.f.d.d.1.d.1.<.>.>.P     { -.r.a.c.c.c.#.7 X.c.c.c.c.l.l.c.l.h.h.g.h.l.h.h.h.g.g.g.h.l.l.h.f.>.1.v.l.i.d.i.i.f.1.>.>.g.l.v.l.v.g.g.v.v.c.c.h.g.c.c.c.h.h.c.c.",
"c.c.c.c.c.c.c.c.c.c.c.c.c.c.c.c.v.1.%.t.m.d.d.t.i.i.i.d.d.<.] +     + S Q ;.2.g.c.s.H   c.c.c.c.c.c.c.c.c.c.c.c.c.c.c.c.c.c.c.c.v.c.f.%.>.b.l.d.d.t.d.t.d.i.t.>.>.f.l.v.c.c.v.k.c.c.c.c.c.c.c.c.c.c.c.c.",
"c.c.c.c.c.c.c.c.c.c.c.c.l.c.v.c.1.%.i.v.f.i.i.t.d.t.d.i.i.t.<. .    u.c._ 4   r c.c.u.  x.c.c.c.c.c.c.c.c.c.c.c.c.c.c.c.c.c.b.c.l.d.>.>.n.f.d.t.t.d.t.d.i.d.i.t.>.>.d.l.c.c.c.c.c.v.c.c.c.c.c.c.c.c.c.c.",
"c.c.x.c.c.c.x.x.c.c.c.c.l.l.l.t.>.t.l.g.i.i.i.d.i.i.d.t.t.d.t.t.%.  *.c.c.c.=.q > c.2.  c.c.x.c.c.c.c.c.c.x.c.c.c.c.x.x.c.c.c.c.d.,.<.c.h.d.t.t.d.t.d.t.t.d.i.i.1.>.<.d.k.c.h.v.c.c.c.j.c.x.c.x.c.x.c.x.",
"c.x.c.x.x.c.x.x.x.x.z.c.l.l.t.%.d.h.g.t.i.i.i.t.i.i.t.d.t.t.i.t.,.} y.g.c.c.k.L   + #   # u.x.c.x.c.x.x.c.x.x.x.c.x.x.c.l.l.l.f.,.,.g.h.t.i.t.d.d.t.i.i.t.t.i.i.t.1.,.>.d.h.k.c.x.x.c.x.c.x.x.x.x.x.c.h.",
"j.j.x.x.z.x.x.x.z.z.z.l.l.t.%.t.c.g.i.i.t.t.t.t.t.t.i.t.t.i.t.i.i.,.%.1.g.h.L X q }.R.  }.9 # R x.x.x.x.x.x.x.x.x.x.z.z.l.l.f.%.&.g.c.i.i.t.t.i.t.t.d.t.t.i.t.t.i.t.,.>.,.g.h.h.x.k.j.j.x.x.x.x.x.x.x.x.",
"j.j.x.x.z.z.x.x.z.z.h.h.t.>.,.b.d.t.t.t.i.i.i.i.i.t.t.i.t.i.i.i.i.t.>.&.<.l.k   & q 5   q H.T.~ E x.x.x.x.x.x.x.z.x.z.z.z.g.>.%.c.h.t.t.t.t.i.t.t.t.i.t.i.t.i.t.i.i.2.1.%.>.g.h.x.x.j.j.x.x.x.x.x.x.x.x.",
"j.j.j.j.j.j.z.x.z.z.h.y.%.y.c.f.i.t.1.i.i.i.i.t.t.t.i.t.y.i.t.t.i.t.t.,.%.v = $ q q q q q A J * > r P x.x.g.x.x.h.j.z.z.t.>.%.l.f.i.1.1.i.i.t.i.i.t.t.t.t.i.t.t.1.2.i.1.,.%.>.d.x.j.x.j.j.j.j.x.x.x.x.x.",
"j.j.j.j.j.j.g.g.z.g.<.%.t.z.f.t.u.1.u.2.1.1.y.t.t.1.1.t.y.y.y.y.<.<.<.,.x 8 5 h Q Q Q Q 9   C ^ ( ( ! l n j.g.g.j.g.z.i.,.%.l.g.i.i.u.i.y.1.u.y.y.t.i.<.y.t.y.y.1.1.<.<.<.>.%.%.i.h.h.h.h.g.h.g.g.g.j.j.",
"a.a.f.g.f.d.f.a.f.1.>.2.d.d.2.<.2.1.2.1.2.<.<.<.<.<.&.<.<.,.,.,.,.,.&.x 8 C Q Q J F 9 0 ! ( !.&X*X*X!.( ^ n a.g.a.a.d.%.,.a.g.<.1.1.<.1.<.1.1.<.<.<.<.,.,.<.<.*.<.,.,.&.>.%.%.%.>.1.f.f.2.~.1.2.p.a.a.a.",
"y.u.y.s.s.d.a.d.2.+.>.k.d.,.,.>.<.<.>.<.<.>.&.>.,.*.,.&.&.,.&.,.,.,.m % 5 F Q J Q Z . C  X*X*X*X*X*X*X*XOXF b a.a.i.%.%.d.z.,.*.*.,.<.*.*.*.,.*.&.&.,.,.,.&.&.,.&.*.,.&.,.>.>.%.%.>.1.d.1.1.1.2.t.u.i.y.",
"a.a.f.a.i.f.g.y.%.%.b.1.2.2.<.>.>.>.,.>.&.<.,.&.<.y.<.*.y.,.<.<.U P 4 4 4 q Z C Z 0 $ ].*X*X*X*X*X*X*X*X*X}.q s.p.+.%.f.z.<.y.y.,.*.&.&.>.&.<.,.&.*.<.1.,.<.y.&.y.,.,.,.<.<.*.&.%.O.>.d.4.v.1.~.g.p.i.a.",
"a.g.a.g.g.g.*.+.,.v.1.2.2.1.1.<.<.<.2.<.1.<.1.1.<.<.1.<.<.&.| R # # ) H.G.C * * * * 0 {.*X*X*X*X+X}.}.}.}.*X=XQ @.+.g.d.y.y.y.<.1.,.1.1.1.<.<.1.<.y.<.<.<.<.y.<.<.y.<.<.y.y.<.y.,.>.O.O.1.v.2.~.g.g.g.a.",
"a.g.a.g.g.*.@.y.k.2.2.1.2.<.<.2.<.y.<.<.<.<.2.<.<.<.<.u.<.v   # G.G.F.Q.].+X*X*X*X$X{.*X*X*X*X*XG       * *X=X  [ g.i.y.1.<.<.<.2.<.<.2.<.<.<.2.1.<.y.<.<.y.<.<.<.y.<.y.y.<.<.y.<.,.*.%.>.1.1.1.a.a.a.f.",
"g.a.a.d.y.@.y.t.1.<.2.2.<.2.,.2.<.<.<.<.<.<.<.<.<.<.<.<.c C {.{.].{.&X*X*X*X*X*X*X*X*X*X*X*X*XG 3./././.P.* =X  @.a.y.<.<.<.<.<.<.<.<.<.<.<.<.2.<.<.<.<.<.<.<.<.<.<.<.<.*.<.<.<.<.1.,.%.+.>.1.k.g.g.a.a.",
"f.a.f.t.@.&.t.d.<.<.,.<.<.,.<.,.<.<.<.<.<.<.<.<.<.<.*.j C  X*X*X*X*X&X*X*X*X*X*X*X*X*X*X*X*Xq 3./.).@X@X'._./   r.y.<.<.<.<.<.<.,.<.<.<.<.<.<.,.<.<.<.*.*.<.,.<.<.<.<.<.<.<.,.<.<.<.,.<.%.+.>.1.a.a.a.f.",
"a.d.t.O.@.g.t.y.<.<.<.<.<.<.<.<.<.*.*.<.<.<.,.<.<.,.r ^ OX*X*X*X*X*X*X XI.K.J.Y. X*X*X*X*X*Xq 3._.'.@X@X@X`./   | *.<.<.,.<.<.*.<.<.<.<.<.<.,.<.<.<.,.<.<.<.<.<.<.<.<.,.<.<.<.<.<.<.<.<.>.%.%.O.a.a.a.a.",
"a.y.+.O.k.2.2.&.,.&.2.,.,.<.<.<.<.<.,.*.,.,.,.*.,.=.S.!.*X*X*X*X*X*X XI.G.G.G.H.I.oX*X*X*X*Xq 3.`.'.'.'.@X(.$   | ,.,.<.,.<.,.<.,.,.2.,.2.,.,.2.,.<.<.<.,.<.<.<.&.,.,.,.<.,.<.<.<.&.<.>.<.,.%.O.+.i.f.y.",
"%.@.%.f.2.%.>.>.%.&.&.&.%.&.&.<.&.%.%.*.%.%.&.&.&.u J.$X*X*X*X*X*X*XY.H.G.G.` ^ / I.*X*X*X*XT.[.@X'.'.'._.D G G 6 { %.&.*.%.%.*.2.&.%.%.%.%.%.%.%.%.%.%.&.&.&.&.<.&.%.&.*.,.%.*.&.&.&.&.&.%.%.&.O.%.&.O.",
"O.+.%.g.%.%.%.&.%.%.>.%.%.&.&.&.%.&.&.&.%.%.%.+.:.J.}.*X*X*X*X*X*X*X` / / / D.Y.U.S.*X*X*X*X*X*X(.( D _ K.C T.T.D.8 P %.&.%.%.%.%.%.%.&.&.%.%.%.%.%.%.&.%.%.&.%.%.%.@.@.%.%.@.%.%.%.%.&.&.%.%.%.O.O.O.| ",
"%.+.O.y.%.%.%.%.%.%.%.%.+.%.+.%.%.*.,.&.&.>.&.%.h !.*X*X*X*X*X*X*X*XZ F.A ) [.%X[.J *X*X*X*X*X*X].G.^ J A J.Y.Y.Y.5 > t t v @.%.%.%.&.,.&.&.&.&.@.%.&.&.%.%.%.%.%.%.%.%.%.@.%.%.%.%.%.,.&.&.%.O.O.&.%.+.",
"f.<.O.O.>.&.,.&.%.&.&.&.<.&.&.&.&.&.*.,.*.*.*.&.& T.*X*X*X*X*X*X*X*X! ` ) E.-X.XJ.^ *X*X*X*X*X*X*X*X$XQ.C ` I.G.J % a D a D I %.&.&.,.&.,.&.,.&.&.&.&.,.&.*.>.>.<.&.*.&.&.>.&.&.2.&.&.2.&.&.%.+.+.h.a.,.",
"a.i.2.O.O.%.&.&.&.&.<.&.<.&.&.&.>.&.*.*.,.&.*.*.+ D.|.&X*X*X*X*X*X*X*X! J.E.E.) H oX*X*X*X*X*X*X*X*X*X$XW.0 T.! e X 4.'.^.Y r >.&.,.-.&.-.&.-.,.,.-.2.&.&.&.&.*.&.*.>.&.>.&.,.*.&.&.&.&.&.+.O.&.x.i.p.p.",
"p.p.i.2.O.O.@.&.&.&.&.&.&.&.&.&.&.&.&.&.&.&.&.&.. 4 K.+X*X*X*X*X*X*X*X*X! q q ( Q.|.}.|.T.+X*X*X*X*X*X*XOXJ ` q  XF _ 4.D l %.&.&.&.&.&.%.#.&.&.&.&.%.&.&.&.&.&.&.&.&.&.&.*.&.&.&.&.&.&.%.O.2.2.s.s.s.u.",
"u.u.u.u.%.O.O.%.&.&.&.&.&.@.X.} { +.%.&.%.*.%.&.- ` }.*X*X*X*X*X*X*X*X*X*X*X*X{.H.` ` ` * }.*X*X*X*X*X*XOXD.*X&X!.K.0 X l %.&.&.&.#.%.&.&.&.&.#.%.&.%.#.%.#.&.&.&.&.#.&.%.%.*.*.&.&.&.+.O.&.2.2.s.i.p.i.",
"2.d.d.f.2.&.O.O.@.%.&.&.%.~ $     t #.&.#.%.%.%.#.- H.*X*X*X*X*X*X*X*X*X*X*X*X*X&X*X*X*X*X*X*X*X*X*X*X*X*X*X*X{.H.D.0 c #.#.%.%.&.@.&.&.%.&.&.@.#.%.%.#.%.@.&.%.%.%.%.%.%.%.%.@.&.%.%.O.%.2.~.2.p.u.u.p.",
"2.1.2.f.2.2.&.O.O.%.%.J Q q.V.A.N.d     o #.%.%.%.- ` OX*X*X*X*X*X*X*X*X*X*XoXY./ D.{.*X*X*X*X*X*X*X*X*X&X&X{.F.G.G.0 x %.%.#.%.%.%.%.@.&.@.%.%.%.#.%.%.%.&.%.%.;.%.@.%.%.;.&.&.&.@.} O.1.2.2.2.2.u.2.u.",
"p.2.1.4.2.1.2.&.} } @.@.+.E , : 6.C.N.M.6.o %.%.%.| 6 D.&X*X=X=X*X*X*X*X*X*X*X+X+XQ.~ * *X=X=X*X*X*X*X*X*X*X&X+XH.G.0 k %.%.#.%.%.%.@.-.@.&.@.%.%.%.%.#.&.&.@.&.@.@.&.%.%.+.%.%.+.} +.g.2.~.2.2.u.u.2.2.",
"d.2.2.2.2.2.2.2.>.} } +.#.o.{ I z @ f B.V.0.o { @.@.+.i J oX=X=X*X*X*X*X*X*X*X*X*X*X+X}.S.OX*X*X*X*X*X*X*X*X*X&X].H.0 l | %.#.O.+.+.+.+.%.+.+.@.@.%.+.%.+.+.+.+.%.%.&.%.@.+.%.+.O.@.1.2.2.1.2.2.2.u.2.2.",
"2.&.&.&.&.2.&.2.,.@.} O./ 6 - = y b j M V.w.  ] O.+.+.I L G R.&X*X*X*X*X*X*X*X*X*X*X*X*X}.*X*X*X*X*X*X*X*X*X*X XI.G.e p } O.+.O.%.+.O.+.O.O.+.+.+.+.O.+.+.O.+.+.+.+.+.+.+.+.+.} +.2.2.2.-.*.*.<.-.-.&.&.",
"&.&.&.&.&.&.&.*.2.;.E E 9.8.8.7.g < - s Z.w.  ] +.| +.+.] u q !  X X&X*X*X*X+X+X*X*X*X*X*X*X*X*X*X*X*X*X*X&X XI.G.G.0 x O.} | | +.+.+.+.+.+.+.+.+.O.+.+.+.+.+.+.+.O.+.+.+.+.} +.2.2.2.2.&.*.*.$.%.&.-.#.",
"2.2.2.2.2.2.&.2.2.-.E X.9.V V w.q.V V 8.Z.N.  6 y t I +.@.I < . ! ! ( !.OXoX X X*X*X*X*XoX&X*X*X*X*X*X*X*X&XOXQ.H.G i { %.|  .+.%.+.@.%.+.%.+.+.+.+.O.+.+.@.%.+.+.+.O.&.+.} +.2.2.2.&.2.2.2.&.&.&.2.2.2.",
"2.2.2.2.2.2.2.2.2.2.2.-.E < > N 8.8.8.w.A.A.  2 s s y x k k t . C C C ~ ` ` Y.+X*X*X=X+XT.$X*X*X*X*X*X*X*X*X*X+XH.4 n 2.2.&. . .+.@.@.+.%.+.+.@.@.@.+.@.%.+.+.@.+.+.+.+. .+.2.2.2.2.2.2.2.2.u.*.2.2.2.2.",
"2.2.-.2.2.2.-.2.*.r.y.r.k l j r < < , 2 A.A.  M B B d s s s ; . ` ` ` 4 7 o ( *X*X*XOX` I.+X*X*X*X*X*X*X*X&X+XT.! $ 6 X.2.-.*.{  .+.+.@.@.@.@.@.@.@.@.%.@.@.@.@.+.+.+.} | u.s.-.2.-.2.-.-.-.*.u.2.2.-.2.",
"-.-.-.-.-.-.-.-.y.r.P $.2 2 3 j v b y d A.V.  % , : N 7.6.6.B ; ; ; ; X k i H.*X*X&X].  H.oX$X&X*X*X*X*X*X&XQ.! e w $ c 2.2.-.%.{  .| @.@.+...@.+...@...@.+.+.@.+.+.[ +.-.u.-.-.-.-.-.-.-.-.r.*.-.2.-.-.",
"-.-.-.-.-.-.-.-.r.{ + W N.N.B.d : @ f M.V.0.o R @.@.6 O o o ; 8.0.0.0.s   H.=X=X*XoXH.    J.Y.].OX&X&X$X+X}.`   /.'.D c -.-.-.-.#.{ [ | +.@.@.@.@.+.@.@.+.@...@.X. .X.&.u.-.-.2.*.-.-.-.-.-.-.-.-.-.-.-.",
"&.-.&.-.-.&.-.-.$.y.*.r.    e.A.A.A.C.w.0.  @.O...@.o.@...+.v         6.; H.=X=X*XT.            ` ].].Q.G.`     L./.a k *.-.-.-.-.9.] R ..+...+.@...+...+...@... .} 2.2.-.*.-.$.-.-.*.*.*.-.*.-.&.-.&.-.",
"$.-.*.-.&.-.-.#.*.*.y.$.*.$.,           o o.o.............[ R [ s.r.$., L.(.XX&XT.; w.w.w.w.;             + *.*.+     k *.;.*.-.y.X.X.I ] | @.o.............| ] ' 2.2.;.&.2.-.-.$.-.-.$.-.*.*.*.-.<.&.2.",
"$.$.$.$.;.&.#.#.@.$.$.$.$.#.$.y.r.$.o.] ] | | ....| ....[ ] | u.y.$.$., L.'.).3.> P         6.w.w.w.B , $.*.$.$.#.#.$.$.$.*.#.*.r.y.y.X.] I | ....| | ..o.| R ] 2.-.-.-.-.&.$.$.$.$.$.$.-.*.*.$.*.;.*.;.",
"#.@.X.%.#.%.@.+.o.o.#.@.o.o.#.#.@.#.@.| I  .} { [ [ [ [ ] ..r.@.@.@.$.X.> $ $ e R $.{ { { R , O O O > F o.@.$.@.o.o...#.#.#...@.y.{ ..y...] [ [ [ [ [ |  .]  .$.;.@.@.#.#.#.#...$.$.#.#.#.$.$.$.$.*.@.+.",
"#.@.+.X.#.#.#.@.@.o.o.#.#.@.@.@.@.@.@.@...R ]  .| | ] I [ y.r.@.o.@.@.#.P P P { #.o.o.o.#.@.P b K K R o.o.@.#.@.@.o.o.@.o.#.@.@.X.y.....y...] ] ] | | [ ]  .#.r.-.@.@.;.@...#.#.&.#.@.@.o.o.@.o...#.o.+.",
"#.$.$.#.#.$.$.$.%.#.#.#.#.$.#.#.@.#.#.$.$.[ ] ] }  .I | $.y.$.$.$.@.#.$.@.$.$.#.#.$.@.o.@.o.o.o.o.#.$.$.#.#.$.$.$.#.@.#.#.#.$.#.$.#.#.#.$.$.| ] I } { ] [ @.r.$.$.$.@.#.#.#.#.*.#.#.#.#.o.+.#.....o.$.$.",
"#.#.$.$.$.$.$.$.#.#.$.#.#.$.$.$.$.$.$.$.$.&.] R I ] R y.y.#.$.$.$.$.$.$.$.$.$.$.$.$.$.$.$.&.$.$.$.$.#.$.$.$.$.$.&.#.$.$.#.#.$.#.$.$.$.%.$.$.*.X.] I ] ] #.-.&.$.$.$.#.$.$.$.$.$.$.$.&.$.;.$.$.$.$.$.$.$."
};
