/* XPM */
static char *result[] = {
/* columns rows colors chars-per-pixel */
"100 50 173 2 ",
"   c #000000",
".  c #05070A",
"X  c #030A0B",
"o  c #0C0C0D",
"O  c #10100E",
"+  c #0A0E13",
"@  c #001717",
"#  c #0C1015",
"$  c #0E1318",
"%  c #001F1F",
"&  c #121211",
"*  c #191917",
"=  c #1A131A",
"-  c #1C1B1B",
";  c #20201E",
":  c #151C26",
">  c #161E29",
",  c #062929",
"<  c #19212C",
"1  c #1D2732",
"2  c #003939",
"3  c #1F3539",
"4  c #262829",
"5  c #262C3A",
"6  c #2F3437",
"7  c #353533",
"8  c #393237",
"9  c #39373C",
"0  c #3E3E3B",
"q  c #253241",
"w  c #2B3747",
"e  c #343A41",
"r  c #2F3F54",
"t  c #313F51",
"y  c #004545",
"u  c #04575A",
"i  c #06585A",
"p  c #2A4545",
"a  c #2A4454",
"s  c #2D4A5B",
"d  c #34455A",
"f  c #344A5B",
"g  c #3C485A",
"h  c #374A61",
"j  c #3B4D63",
"k  c #3D536C",
"l  c #3E5672",
"z  c #006767",
"x  c #056F71",
"c  c #007474",
"v  c #007C7C",
"b  c #464643",
"n  c #474948",
"m  c #494A4A",
"M  c #53534F",
"N  c #494D53",
"B  c #545453",
"V  c #5C5C58",
"C  c #62625D",
"Z  c #435A75",
"A  c #455A74",
"S  c #435D7B",
"D  c #46607C",
"F  c #49617D",
"G  c #5D6A79",
"H  c #626262",
"J  c #6C6C67",
"K  c #616569",
"L  c #666E79",
"P  c #736C73",
"I  c #727271",
"U  c #7E7E77",
"Y  c #81817F",
"T  c #455F81",
"R  c #456282",
"E  c #496585",
"W  c #4F6886",
"Q  c #4A668A",
"!  c #4D6A8C",
"~  c #516985",
"^  c #526D8D",
"/  c #5C7287",
"(  c #52708F",
")  c #4E6C92",
"_  c #516E92",
"`  c #557294",
"'  c #5B7696",
"]  c #5D7896",
"[  c #56749A",
"{  c #59769C",
"}  c #5C7A9C",
"|  c #65758A",
" . c #627791",
".. c #607D9E",
"X. c #5677A0",
"o. c #5778A2",
"O. c #5C7CA2",
"+. c #5E7FA8",
"@. c #627EA2",
"#. c #A07E9F",
"$. c #008787",
"%. c #008A8A",
"&. c #009696",
"*. c #009B9B",
"=. c #37898B",
"-. c #309FA1",
";. c #00A1A1",
":. c #00BDBD",
">. c #5F80A6",
",. c #5F80A9",
"<. c #6381A6",
"1. c #6383AB",
"2. c #6985AC",
"3. c #6788AE",
"4. c #6988AF",
"5. c #6687B0",
"6. c #6788B1",
"7. c #6C8CB4",
"8. c #6E8FB8",
"9. c #708FB6",
"0. c #708FB8",
"q. c #6F90B9",
"w. c #7090B7",
"e. c #7293BB",
"r. c #7898BF",
"t. c #7697C2",
"y. c #7798C3",
"u. c #7999C4",
"i. c #7F9FCA",
"p. c #07C4C4",
"a. c #00CACA",
"s. c #00D9D9",
"d. c #00E4E4",
"f. c #00E8E8",
"g. c #00F8F8",
"h. c #8F8F87",
"j. c #8A8A89",
"k. c #91918A",
"l. c #989594",
"z. c #9A9A91",
"x. c #A3A39A",
"c. c #B685B6",
"v. c #A7A7A7",
"b. c #ABABA2",
"n. c #B6B6AF",
"m. c #B9B9AD",
"M. c #BCBCB3",
"N. c #BBBBBB",
"B. c #C4C4BA",
"V. c #C6C6BE",
"C. c #81A2CB",
"Z. c #CF9ECF",
"A. c #D59DD5",
"S. c #D8A7D8",
"D. c #D9A8D9",
"F. c #E9B1E9",
"G. c #F4BCF4",
"H. c #CACAC2",
"J. c #D2D2C6",
"K. c #D4D4CB",
"L. c #D9D9CB",
"P. c #DCDCD1",
"I. c gray85",
"U. c #E3E3D6",
"Y. c #E7E7D9",
"T. c #EBEBDC",
"R. c #F8C0F8",
"E. c gray90",
"W. c #EEEEE0",
"Q. c #F3E5E7",
"!. c #F4F4E4",
"~. c #F8F8E8",
"^. c #F6F6F5",
/* pixels */
"t.y.u.y.y.t.y.y.y.y.y.y.y.y.y.y.t.t.y.y.t.y.t.5.X.,.i.t.t.t.y.t.t.t.y.y.y.y.y.y.y.y.t.y.y.y.y.y.y.t.y.u.y.y.y.y.y.y.y.y.y.y.y.y.t.y.t.y.y.t.y.t.q.o.X.u.y.t.y.y.y.y.y.y.y.y.y.y.y.y.y.t.y.y.y.y.y.y.t.y.",
"t.t.t.y.t.y.t.t.y.y.y.y.t.y.t.y.t.t.y.t.t.t.q.,.X.+.8.t.t.t.t.t.y.y.t.t.t.t.t.t.t.t.t.y.t.y.t.t.t.t.t.t.t.t.t.t.t.t.t.t.t.y.t.t.y.t.t.t.t.t.q.t.6.o.o.8.t.t.t.t.t.y.t.y.t.y.t.t.t.t.t.t.t.y.t.t.t.y.y.t.",
"t.t.t.t.y.y.t.t.t.t.t.t.t.t.t.t.t.t.t.y.y.t.o.+.+.o.o.t.t.t.t.t.t.t.t.t.t.t.t.y.t.t.t.t.t.y.y.y.y.y.t.t.t.t.t.y.y.y.t.y.y.y.t.t.y.t.t.t.y.y.t.5.o.o.o.[ N $ 1 t.t.t.t.t.t.y.t.t.t.y.t.t.t.t.t.u.t.u.y.t.",
"e.e.t.e.e.e.t.t.e.t.t.e.e.t.t.e.t.t.e.t.e.o.o.e.y.,.X.X.5.7.q.q.8.t.t.q.q.7.t.t.t.t.q.t.t.e.t.t.e.y.e.e.t.e.t.e.t.e.e.y.t.e.t.e.e.t.e.t.t.q.+.o.,.i.! + o < } 8.e.q.0.t.t.e.q.0.e.t.t.t.e.t.t.e.t.t.e.t.",
"6.6.5.6.8.8.8.7.6.6.8.q.t.e.e.q.8.8.7.6.+.o.y.q.6.5.,.o.o.5.8.7.7.8.8.q.8.8.8.8.q.7.7.6.q.7.7.6.6.6.5.5.6.7.8.q.8.6.6.7.q.e.t.e.q.8.8.8.8.>.o.E w 7.5.k * 9 > 8.8.8.8.8.8.8.7.8.q.q.q.6.6.7.8.8.6.6.6.6.",
"8.8.8.7.6.7.q.8.7.6.7.8.8.8.q.e.8.q.6.O.o.q.q.7.5.5.5.,.o.o.5.8.q.q.q.q.7.6.q.8.q.q.7.7.q.e.7.7.7.q.q.q.7.7.7.q.q.6.7.7.7.q.8.q.q.8.8.8.+.o.F # < 5.5.E < / n 1 8.8.8.0.8.7.6.8.q.e.q.7.7.8.e.w.7.7.q.7.",
"e.e.e.8.8.8.8.q.q.q.q.q.q.q.q.e.q.7.,.o.6.t.6.5.5.5.,.,.+.X.o.5.q.t.e.q.8.q.e.q.t.q.q.q.e.e.e.e.q.e.t.e.q.q.q.q.q.q.q.q.8.8.q.q.t.8.8.1.{ R #     # q 1.{ 1.W + 1.8.t.e.e.8.q.0.e.e.e.q.7.q.r.e.q.q.e.t.",
"e.e.e.e.e.t.e.e.e.e.e.e.q.t.e.e.q.O.o.6.u.1.,.5.,.,.5.5.5.+.X.X.7.q.t.e.e.e.e.t.e.e.q.e.e.e.w.r.e.e.e.e.q.q.e.e.q.t.e.e.e.e.e.e.e.8.1.{ ,.e.Z   < ~ 0 q 1.5.O.m > 5.0.e.e.t.e.e.e.e.e.e.e.e.e.e.e.e.e.t.",
"w.r.e.e.e.e.e.w.e.e.e.e.e.e.e.e.O.X.5.t.5.,.,.1.5.,.,.5.5.,.+.[ o.7.q.q.e.e.e.e.e.e.0.e.r.w.w.e.w.r.e.e.e.e.e.e.q.e.e.e.e.e.e.e.q.,.X.O.u.6.5.k < 1. .0 q 1.2.^ + X.5.8.e.e.t.t.0.e.0.e.e.r.w.e.e.e.w.e.",
"w.w.w.e.e.e.w.w.q.e.w.e.q.q.8.O.[ 6.q.5.1.1.,.5.,.5.,.1.1.1.,.+.X.o.6.e.e.e.q.q.q.e.e.w.w.e.w.e.w.e.w.e.w.w.e.e.q.q.w.w.e.w.q.e.+.o.,.t.6.1.,.,.[ 1.1.S * G 1.` # X.X.5.8.e.8.0.0.e.q.e.w.e.w.e.w.w.w.w.",
"e.w.e.w.w.w.w.w.e.w.w.q.e.6.O.X.7.8.5.1.,.5.,.,.1.,.5.,.,.,.1.1.+.X.o.5.e.q.e.e.e.w.w.w.w.w.w.w.w.w.w.w.w.e.w.w.e.w.w.e.e.q.q.,.[ 1.q.6.,.1.,.5.1.1.1.,.k 5 2.` # +.X.X.+.8.0.0.q.q.q.e.w.w.w.w.w.w.q.e.",
"w.w.w.w.w.w.8.8.8.9.w.e.6.+.X.1.e.6.,.,.,.,.,.1.1.,.,.,.1.,.,.1.,.O.X.o.3.q.q.e.w.w.w.w.8.w.w.8.w.w.w.w.w.w.w.w.w.w.w.w.q.q.,.X.,.8.7.,.1.,.,.1.,.+.,.1.D   # +   > O.X.X.5.8.8.q.q.9.9.w.w.w.8.w.w.w.w.",
"w.w.w.9.9.9.9.9.8.8.8.7.,.X.+.t.3.+.,.1.,.1.,.1.,.,.,.1.,.1.,.1.1.,.o.{ o.8.8.8.w.9.9.9.9.9.9.9.w.w.w.w.9.9.9.w.w.w.w.8.7.5.X.{ e.8.,.,.1.,.,.1.1.,.,.R # 0 L.m.> m.# > { [ 7.8.9.9.9.9.9.9.9.9.w.w.w.w.",
"w.w.9.9.9.9.7.9.9.8.7.o.[ ,.t.,.>.1.,.,.,.>.1.,.,.1.,.,.1.>.>.,.+.+.1.o.[ [ 7.8.9.9.9.8.7.8.9.9.w.9.w.9.9.w.7.7.7.w.w.8.,.[ { y.3.,.,.<.>.,.1.<.+.1.2.S     < ;   0 L.m.> [ [ 1.9.9.9.8.7.8.9.9.w.w.9.9.",
"9.7.9.9.7.8.7.8.9.4.o.[ 1.e.1.>.>.>.<.>.>.>.>.>.>.>.O.>.>.+.O.O.o.o.o.} { [ [ 6.9.8.7.7.9.7.7.7.w.w.9.9.w.9.7.7.7.w.6.>.[ >.e.,.<.<.,.<.>.>.<.>.+.1.S # = B B B B n ; -   + > [ @.8.7.7.7.8.7.7.7.9.9.9.",
"<.2.2.3.3.3.3.3.3.} _ 2.7.>.O.O.O.O.O.O.+.O.} o.O.o.{ O.O.o.} o.o.} } o.X.[ ) o.<.4.4.4.2.2.1.1.<.<.<.3.3.1.3.3.3.3.>._ >.q.,.>.o.O.+.O.o.>.O.o.o.Z 4 B B V H H B O - M.L.L.m.+ # +.3.4.4.2.2.1.1.<.1.1.",
">.<.2.<.1.3.3.1.X.[ 1.7.1.o.} } o.o.{ o.O.O.{ { o.O.} o.o.} } o.o.o.X.} X.X.[ _ o.@.0.+.+.@.+.@.>.>.1.3.1.1.3.4.3.O.[ >.3.6.O.O.} o.O.{ o.O.O.o.l 4 B H H H B o 4 M.L.!.~.~.~.L.L.+ O.3.3.1.@.2.1.1.1.1.",
"3.7.3.3.3.7.3.>.[ X.e.2.O.+.+.o.} o.o.} o.O.o.o.} >.O.o.>.O.O.O.O.{ O.+.O.o.X.[ _ @.+.0.0.+.C.+.3.3.3.7.3.3.3.3.1.` { 6.7.>.>.O.o.} { o.o.{ O.Z #   < H C H B * M.!.~.~.~.~.~.~.~.K.+ 2.3.5.4.7.7.3.3.3.",
"7.7.7.7.6.6.{ _ o.t.@.+.@.+.O.@.+.+.O.<.>.O.>.O.>.O.>.O.O.O.O.>.O.O.@.+.@.+.@.O.[ _ { +.0.@.+.C.4.7.7.4.7.7.6.,._ [ 7.5.>.>.O.O.>.O.O.>.>.D # 6 U U V o o o o - K.~.~.~.~.~.~.~.~.~.K.L @.7.7.7.7.7.7.9.",
"7.3.3.7.7.[ _ >.8.@.+.@.O.O.O.O.O.O.O.O.O.>.O.O.O.O.O.O.O.+.O.O.@.O.O.O.+.O.@.O.o.o._ @.@.0.@.C.3.7.3.7.6.7.>.[ [ q.1.O.O.O.O.>.O.>.} l # 6 U U x.V.J.L.L.L.J.M.!.~.~.~.L.; - ; ; ~.~.o [ +.4.4.4.4.3.4.",
"6.3.6.6.{ _ ,.6.@.O.@.O.O.O.@.@.O.O.O.O.O.O.O.} O.O.} O.O.O.O.O.O.O.O.O.O.O.O.O.@.o.{ ) { +.+.+.7.3.4.7.4.} _ [ 7.2.>.O.O.O.O.O.O.O.l n n.n.H.J.T.!.~.~.~.~.~.!.~.~.~.K.8 c.c.c.c.; ~.  + + + $ 4.4.4.3.",
"7.3.3.{ _ ,.3.,.@.o.O.o.o.O.o.o.O.O.O.O.O.O.O.O.o.O.O.O.O.O.O.o.O.O.O.O.O.O.O.O.@.+.o.X.) o.+.0.4.3.4.3.o.[ } 1.3.O.O.O.O.O.O.} O.k n J.!.!.!.!.~.~.~.~.~.~.~.~.~.~.L.8 c.A.G.G.G.S.Y   n.n.U U $ 4.4.4.",
"3.1.>.) { 6.3.>.o.@.@.o.@.o.@.o.O.O.O.o.O.O.O.O.O.O.O.} O.O.O.O.+.o.O.O.o.@.O.@.@.o.O.O.[ ) { +.7.3.3.<._ [ 5.7.} O.O.O.O.O.O.O.k B U.~.~.~.~.~.T.B.z.z.b.U.~.~.~.~.L.= A.G.R.R.R.R.I   z.z.h.&   $ ] 3.",
"3.>.) [ e.>.} { ..o.o.@.o.O.o.@.} O.O.o.} } o.} O.o.O.O.} O.} O.} } } O.@.o.o.o.{ o.O.o.o._ ) [ 3.3.<.` _ 6.3.o.o.} o.} o.} } ] j.J.~.~.~.~.~.W.B.z.k.k.h.b.L.~.~.~.L.= A.R.R.R.R.G.o B h.h.& T D ' 3.} ",
"( ) [ 8.{ [ { { [ [ X.{ [ { o.{ { [ [ [ [ [ [ [ { [ [ [ { { [ o.[ [ [ [ { [ [ O.{ [ [ X.[ [ X.) ) _ _ _ 0.@.{ o.} [ [ o.} [ [ k C !.~.~.~.~.~.P.z.h.k.Y J K Y ~.~.~.~.L.Q.R.R.R.G.; U j.V.& W { ) ) ) ) ",
"! ) [ 4.[ _ [ [ _ [ [ [ _ [ [ [ [ [ { { [ { ` ) [ X.{ [ [ [ [ [ [ ` [ [ [ [ [ [ [ { { { _ [ _ ) ) ) ) ) +.o._ _ [ [ ) [ [ [ / k.T.~.~.~.~.~.~.J.H J K Y H.B.I ~.~.~.~.~.Y.P - - l.U H.& = E [ [ ) ) ) ) ",
"O.[ ) } { { { { { [ [ [ [ { { [ { o.} { { } { [ { { o.[ { { { { { { { [ { [ [ [ { { { { { [ ) _ @.O.{ ) @.{ { [ [ [ { { { [ k H ~.~.~.~.~.~.~.m.m v.m E.^.N.4 ~.~.~.~.~.~.Y.K.n.H.T.H.    + + + + <.O.[ ",
"4.+.) ) { { { { { { X.{ { { { { { { } o.o.} o.} o.X.} } o.{ { { { { X.{ { { { { { { { { [ ) ) @.t.+.+._ ) [ { X.{ { { { { { j V ~.~.~.~.~.~.~.~.z.C I.^.N.M M.~.~.~.~.~.~.~.~.!.J.~.!.U U   D.D.c.# ' O.",
"2.2.@._ ) [ { o.o.{ { { { O.{ { } { } } { { { } } { { { } } { { } } { { { { } { { { { { _ { @.C.@.+.C.@.[ ) _ { { { ..o.X.} j + C P.~.~.~.~.~.~.~.z.; ; M B.W.~.~.~.~.~.~.~.~.~.!.~.~.H.h.  A.A.= ' 2.2.",
"@.2.2.@.) ) _ X.{ { { { { { { { { { { { { { { { { { [ { { { { { { { { { { { { { { { { ) _ @.@.9.@.+.@.@.+._ ) ) { { { { { { d b J.!.~.~.~.~.~.~.~.~.L.L.M.h.Y Y I 0 ~.~.~.~.~.~.~.~.~.!.V.U = = ` 2.2.2.",
"@.@.2.@.O._ ) _ { { { { { { { { { { { ' [ { { ' { { ' { { ' { { { { ' { { { { { { { _ ) @.@.@.@.+.@.@.@.| 8 + + r { X.} { { _ N J ~.~.~.~.~.~.~.~.~.~.~.W.T.Y.Y.Y.L.~.~.~.~.~.~.~.~.~.K.z.h.  [ <.<.<.<.",
"2.2.<.2.@.{ ) ) _ X.{ { { { ` { [ { [ [ [ { [ [ { [ [ [ [ [ [ ' ' [ [ [ [ { [ [ _ ) _ @.C.+.0.@.@.@.| P =.p.s.:.u + + a [ { X.h M U.~.~.~.~.~.~.~.~.~.W.m.#.h.P.~.~.~.~.~.~.~.~.~.~.L.z.h.h.  2.<.<.2.<.",
"@.2.@.@.@.+.o.) Q [ [ [ ' [ [ [ { ` { { { ` { { [ ' [ [ ' [ [ [ [ [ [ [ [ [ ' ` ) ) @.2.2.@.@.@.@.2.@.@./ p % $.d.s.:.i q [ { ^ k J ~.~.~.~.~.~.~.~.~.~.!.Y.L.I 0 ~.~.~.~.~.~.~.~.~.!.T.h.h.  <.<.<.<.<.",
"@.@.@.@.@.@.@.{ ) Q _ [ [ [ [ [ [ [ ` ` ` { _ ` [ ` [ [ [ ' ` [ [ [ [ [ ` [ [ ! ! } 2.@.@.@.@.@.@.+.@.@.@.' / s % x s.p.c q [ [ ) N V U.~.~.~.~.~.~.~.~.~.~.~.Y.V.k.~.~.~.~.~.~.~.~.~.~.H.h.  <.@.<.@.@.",
"@.@.@.@.@.@.@.@.{ Q Q _ [ ` ) ) ) ) [ ` _ _ _ { _ _ [ _ _ _ [ [ ` [ ` ` _ _ Q Q @.2.@.@.@.@.@.@.@.@.@.| b + + t _ a $.s.x 5 _ _ _ Q g m M.~.~.~.~.~.~.~.~.~.~.~.~.Y.~.~.~.~.~.~.~.~.~.K.z.h.  <.@.@.@.@.",
"@.@.{ { @.@...@.{ [ ! Q ! ! ) ` _ _ _ ) ) _ _ _ _ ^ _ ) ! _ _ _ _ ( ) _ _ _ Q @.@.@.@.} @.....{ { L P =.p.s.:.i + . v s.c 1 _ ^ _ _ Q d * B K.P.~.~.~.W.P.~.~.~.~.~.~.~.~.~.~.~.~.~.K.z.h.h.  } { { { ' ",
"@.} { } { { { { @.@.` Q Q ) ) ` _ _ _ ` _ _ _ _ _ ! _ _ ` ) ! _ ) _ _ _ Q ! @.@.O.} @.} { { ' ] @... .~ p % $.d.s.s.f.g.&.. + + q [ _ ~ a   * - B K.K.K.P.~.~.~.!.P.~.~.~.~.~.~.~.~.!.T.h.& ~ } { { ..} ",
"@.@.@.@.@.} ..@.@.@.@.{ ! E ) ` ` [ _ [ ` _ ` _ _ _ [ _ [ ) _ ) ) [ _ ! Q { 2.@.} } @.@.} } } ] @.@.@.@.' ^ d % % , %.g.*.2 ;.;.x + + + . 7 n.n.Y - - V !.~.!.!.H.x.~.~.~.~.~.~.~.~.~.K.h.  } } ..@.@.@.",
"@.@.@.@.@.@.@.@.@.@.@.@.` Q Q ) [ _ ` ` ` ` ` ` _ ` _ ` ` ` ` ` _ _ ! Q _ 4.@.@.<.@.@.<.<.O.>. .@.@.@.d # + t ^ ^ w v g.*.X @ @ y ;.;.;.z   - * * : d 0 ~.~.~.L.7 H.~.~.~.~.~.~.~.~.K.l.&   ..@.@.@.@.@.",
"@.@.} @.@.........} @.@.>.{ E E _ ` ` _ _ ` ` ` ` ` [ _ ` ` ` _ _ Q E ] 2.@.} @.} ..........>.<...w 9 -.s.:.i # + i a.s.c 1 ^ Z a @ @ @ y ;.;.;.c   m L.~.~.!.M.  7 K.P.~.~.~.~.~.~.l.& D.D.# ..........",
"@.......{ ......>.] >.<./ <.] E T _ _ ` ` _ ` ^ ` ( _ ` _ ` ` _ Q E { <.<.>.] <.] ] <.] <.] <.' <.( / f % $.d.s.s.a.:.z 3 ] ..} R l D F s @ @ @ y c 0 ~.~.~.L.-     - - 0 K.K.L.z.z.&   A.A.  ..........",
"} ..............<.' ] >.] >.] / Q T Q _ ^ ` ` ` _ ` ` ( _ ( ( Q E { @...] >.>.] ] <.] <.] <.] >.] >.>.( ^ a % % % @ @ a ' } ....] W E Q ! R R F d N Z.F.~.m.3 ;.;.;.%.    * * * & & ^ ( * *   ..} ......",
"....} ..........] >.>.>.] <.] >.` T Q _ _ ^ ^ ^ ` ( ( ( ( ! ! E ( <.<...>.] ] >.] ] ] <.>.' ] >.] <.] >.<./ ~ ~ ^ ~ ~ ' } ..} ..>.( ! R ! ( ( ( k e G.F.l.e k @ @ @ , ;.;.;.%.  ~ ^ ....F ^ W ] } ......",
"] } ] .. ...' ' >.] / ' >./ <.' ..^ T E ! ` ^ ^ ! ( ( ( ! E R ! <.<. .] ' >.] ] <.<.] ] ' >.] ] ] ] ] >.} ] >.} ..] ..} ..} } } ] >.` R F ! ( ( _ t ; = 5 S ! l A ( F @ @ @ , B ..} }  .>.] >.>.{ ..] { ",
"] } ' ` o. .{ ` ' ` >.>.' ` ' >.( >.` R R ! ! ! ! ! ( ( E F ^ <.] ] ] ] ] } ] >.' ] ] ] >.] >.' ] ] } ' ' ] } ] ` ' ` ] ] ' ` ] } ] } ' R R ! ! ^ ~ S S D ! D E <.<.>.F ~ ~ E ] ] } ] } ] } ] ] ] { ' ' ",
"` ( ( ^ ` ` _ _ ( ( / ( ( ( ( ` ( ] ` ! R R E E E E E R D ( <.' ' ` ` ` ( ` ` ] ] ( ' ` ] ` / >.] ' ( ( ( ` ` ( ( ( ( ` ' ( ^ ` ` ' ' ` ` R D R E Q W Q R R E <.] / ` ` ( ( ` ( ' ] ` ' ' ] ] ] } ' ` ^ ",
"` ' ` ` ' ' ' [ ` ( ` ` ' ` ` ] ] ` ' [ ` D R E ! ! F D [ } ..' ` ` ' ' ` [ ] [ ` ` ( ( ( ( ( ( ` ( ` ' ` ` ' ' ' ( ( ( [ ' ' ` ' ` ( ` [ ` R R R ! ! R D Q ....{ ` ` ` ] ` ' ] ' ` ` ( ( ( ' ! ( ( ` ' ",
"' ] { ' ' ] {  .` ' ` ] ] ] / >.( ' ' ] ' ! R R R R R ( ....{ ] ' ' ' ' ' ] ] ] ] ] ' ` ' ` ` ` ` [ ] ' ' ' } ' ' ' ' ` ' ' ' ` ] ' ' ' ' ' ` E D E R R ! ] ..' ] ] ' ' ] ] ' ] } ' ' ' ` ` ` ` ' ` ' ' ",
"' ] ] ' ] ] ] ] / ' ] ] ' ] ] ] ] ] ' ] ] ] W R S T Q ..O.{  .] ]  .] ' ] ] ' ] ] ] ] ] ] ] ] ] ] ] ] ] ] ] ] } ] ] ' ] ] ] ] ] ] ] ] ' ] ] ' ^ W S T W { @. .] ' ' ] ] ] ] ' ' ] ] ] ] ]  .] ' ' ] ] ] ",
"' ] ] ] ] ' ] ' ] ] ' ] ] ] ] ] ' ] ' ' ' ' ' W S E .... . .{ ] ] ' ' ' ' ' ] ] ] ] ' ] ] ] ' / ] ] ] ( ] ] ] / ] ] ] ' ' ' ] ' ]  .] ' ] ' ' ' ^ S S .. .[ { ] ' ' ' ] ]  .' ' ' ' ] ] ] ' ' ' ' ' ] ' "
};
