/* XPM */
static char *result[] = {
/* columns rows colors chars-per-pixel */
"100 50 202 2 ",
"   c #000001",
".  c #04090B",
"X  c #0C0C0B",
"o  c #0A0E13",
"O  c #001717",
"+  c #0C1015",
"@  c #051A1C",
"#  c #131315",
"$  c #1B1B1A",
"%  c #20201E",
"&  c #161D25",
"*  c #181F27",
"=  c #171E28",
"-  c #191F29",
";  c #032324",
":  c #002E2E",
">  c #1A232D",
",  c #122D2D",
"<  c #1E2935",
"1  c #003D3D",
"2  c #1B343D",
"3  c #173B3E",
"4  c #242423",
"5  c #2C2C2B",
"6  c #292C31",
"7  c #232E3B",
"8  c #362936",
"9  c #29333A",
"0  c #343432",
"q  c #383739",
"w  c #3E303E",
"e  c #3F3E3C",
"r  c #263342",
"t  c #2A3643",
"y  c #273F4F",
"u  c #2C3A4D",
"i  c #373F49",
"p  c #2E3E52",
"a  c #4A3B49",
"s  c #014445",
"d  c #004D4D",
"f  c #1D4953",
"g  c #005353",
"h  c #005C5C",
"j  c #0C5B5D",
"k  c #37414C",
"l  c #274756",
"z  c #324154",
"x  c #3A4352",
"c  c #34455B",
"v  c #36495D",
"b  c #394A5E",
"n  c #165B65",
"m  c #364B64",
"M  c #3B4D63",
"N  c #3B526A",
"B  c #066F72",
"V  c #017373",
"C  c #007C7C",
"Z  c #454544",
"A  c #4D4D4A",
"S  c #434959",
"D  c #554355",
"F  c #5D485D",
"G  c #4D5954",
"H  c #545555",
"J  c #5C5C56",
"K  c #5C5C5A",
"L  c #60605C",
"P  c #42546A",
"I  c #455568",
"U  c #4A576A",
"Y  c #455A73",
"T  c #495D76",
"R  c #445D7B",
"E  c #495E79",
"W  c #684C68",
"Q  c #6B5869",
"!  c #705E6C",
"~  c #5D646D",
"^  c #4A6179",
"/  c #4B627B",
"(  c #576676",
")  c #5D777C",
"_  c #616161",
"`  c #6A6B65",
"'  c #6D6D6B",
"]  c #75756E",
"[  c #656C77",
"{  c #716C74",
"}  c #727270",
"|  c #7C7C76",
" . c #7C7C7A",
".. c #81817B",
"X. c #456282",
"o. c #4B6685",
"O. c #4F6985",
"+. c #4A668A",
"@. c #4D6A8D",
"#. c #516A85",
"$. c #556A85",
"%. c #526E8D",
"&. c #55708E",
"*. c #5F738C",
"=. c #4E6C92",
"-. c #516E92",
";. c #547294",
":. c #5B7695",
">. c #5C7897",
",. c #56749A",
"<. c #59769C",
"1. c #5C799D",
"2. c #617081",
"3. c #657A94",
"4. c #607D9E",
"5. c #5677A0",
"6. c #5778A2",
"7. c #5C7CA2",
"8. c #5E7FA8",
"9. c #627EA2",
"0. c #9C729C",
"q. c #028586",
"w. c #008A8A",
"e. c #118788",
"r. c #059394",
"t. c #009C9C",
"y. c #328B8E",
"u. c #00A1A1",
"i. c #06ACAC",
"p. c #0CB7B9",
"a. c #00B9B9",
"s. c #72859C",
"d. c #5F80A7",
"f. c #5F80A9",
"g. c #6381A6",
"h. c #6383AB",
"j. c #6985AB",
"k. c #6788AE",
"l. c #6988AF",
"z. c #6687B0",
"x. c #6788B1",
"c. c #6C8CB4",
"v. c #6E8FB8",
"b. c #708FB6",
"n. c #708FB8",
"m. c #6F90B9",
"M. c #7090B7",
"N. c #7293BB",
"B. c #7898BF",
"V. c #7697C2",
"C. c #7798C3",
"Z. c #7899C4",
"A. c #7F9FCA",
"S. c #00C0C0",
"D. c #00D0D0",
"F. c #00D8D8",
"G. c #00E4E4",
"H. c #00E8E8",
"J. c #00F4F4",
"K. c #00F8F8",
"L. c #8C8C85",
"P. c #8B8A89",
"I. c #919189",
"U. c #9B9B93",
"Y. c #9D9D9A",
"T. c #A2A29A",
"R. c #ABAB9F",
"E. c #AB83AB",
"W. c #A395A1",
"Q. c #B689B6",
"!. c #ABABA2",
"~. c #ACACAC",
"^. c #B4B4AC",
"/. c #B9B9AE",
"(. c #BBBBB2",
"). c #BABABA",
"_. c #C1C1B6",
"`. c #C4C4BA",
"'. c #CACABD",
"]. c #C491C4",
"[. c #D199D1",
"{. c #D5A9D5",
"}. c #DEA6DE",
"|. c #EEB6EE",
" X c #F2BAF2",
".X c #C9C9C1",
"XX c #CDCDCC",
"oX c #D1D1C5",
"OX c #D3D3CA",
"+X c #D8D8CB",
"@X c #DDDDD2",
"#X c #E0E0D3",
"$X c #E5E5D9",
"%X c #EAEADC",
"&X c #F8C7F6",
"*X c #F8C0F8",
"=X c #EEEEE0",
"-X c #F3ECE5",
";X c #F4F4E5",
":X c #F8F8E7",
">X c #F8F8E8",
",X c #F7F7F7",
/* pixels */
"V.C.Z.C.C.V.C.Z.Z.C.C.C.C.Z.C.C.C.V.C.C.V.V.Z.z.6.f.A.V.V.V.V.V.V.V.C.C.C.C.C.C.Z.V.V.Z.V.Z.Z.V.Z.V.Z.Z.C.C.C.Z.Z.V.C.C.C.C.C.3.P M 4.C.C.C.V.V.v.6.6.C.V.V.V.V.V.C.V.V.V.V.V.C.Z.V.C.V.C.C.Z.C.C.C.V.Z.",
"V.V.V.C.V.C.V.V.V.V.C.C.V.V.V.C.V.V.C.V.V.V.m.f.6.f.v.V.V.V.V.V.Z.V.V.V.V.V.V.V.V.V.V.V.V.V.V.V.V.V.V.V.V.V.V.V.V.V.V.V.C.V.&.A   & &.C.C.V.V.V.x.6.6.v.V.V.V.V.V.V.V.V.V.V.V.V.V.V.V.V.V.C.V.V.V.V.V.V.",
"V.V.V.V.Z.C.V.V.V.V.C.V.V.V.V.V.V.V.V.V.Z.V.f.6.6.6.6.V.V.V.V.V.V.V.V.V.V.V.V.C.V.Z.V.V.V.Z.V.C.V.V.V.V.V.V.V.V.V.Z.v.v.Z.g.+   X T n.C.V.C.V.z.6.6.6.6.x.V.V.V.V.V.V.V.V.V.V.V.V.V.V.V.V.V.V.Z.Z.Z.C.V.",
"N.N.V.N.N.N.V.V.V.N.V.N.N.V.V.N.V.V.m.V.m.6.6.m.Z.f.5.5.z.c.m.m.m.m.V.V.m.m.N.V.V.N.V.m.V.N.V.V.N.V.V.m.V.N.V.N.V.N.v u N.C.N.  H $ T N.N.N.9.6.8.A.v.6.5.8.c.v.V.V.v.V.m.V.v.V.N.V.V.V.V.N.V.N.V.N.V.V.",
"x.x.x.x.v.v.v.x.x.x.c.N.V.N.N.N.m.m.c.c.7.5.Z.m.x.x.f.5.5.z.v.v.c.m.v.m.m.x.m.v.m.v.x.c.v.v.b.x.c.x.k.z.x.c.m.m.v.r   t N.C.N.  9.[ 4 v v.8.6.c.C.v.x.8.8.5.8.v.v.v.c.v.v.v.c.c.m.v.c.c.l.c.v.c.c.z.z.x.",
"v.v.v.x.v.x.m.v.x.v.x.v.m.v.m.N.m.m.z.6.5.m.m.v.z.z.z.f.5.5.z.m.m.m.m.m.c.c.m.m.m.m.c.c.v.N.v.l.c.m.v.v.x.c.c.m.p .   o > 7 v.%.N.j.9 v 8.6.x.m.v.z.z.x.8.8.5.8.v.m.m.v.v.c.c.v.N.N.m.c.x.v.N.N.c.c.v.m.",
"N.N.N.v.v.v.N.m.m.m.m.m.v.m.m.N.m.c.f.6.c.V.z.h.z.z.z.z.f.6.6.z.m.N.N.m.m.m.N.N.N.N.v.v.N.N.N.N.m.N.V.V.m.m.m.N.%.>   > S i t v.N.N.U 9 m h.V.x.8.z.z.8.z.8.8.5.9.v.m.V.V.v.v.V.N.N.N.m.v.N.N.N.m.m.V.V.",
"N.N.V.m.N.N.N.N.N.N.N.N.m.V.N.N.m.7.6.x.Z.h.z.f.f.f.f.z.z.6.5.6.v.m.V.N.N.N.m.V.N.N.N.N.N.N.N.N.m.N.m.N.m.N.m.N.N.O.6 t b.) 0 b c.N.3.t r V.c.h.8.z.8.z.8.z.8.6.5.x.v.V.v.n.V.v.N.N.N.N.N.N.N.B.m.m.N.N.",
"N.N.N.N.N.N.N.N.N.N.N.N.N.N.N.m.7.,.x.V.z.f.f.z.z.f.f.z.z.h.f.,.5.c.m.N.N.N.N.N.N.N.N.N.N.N.M.N.N.N.N.N.M.N.N.N.N.b.T I N.b.[   3.8.<.p t x.z.8.f.h.z.f.f.z.h.h.5.5.z.v.N.N.V.V.m.N.N.N.N.N.N.M.M.N.N.M.",
"N.N.M.M.N.N.M.M.N.N.M.N.N.m.v.7.,.x.m.z.f.h.h.f.f.z.h.f.f.f.f.f.5.5.c.m.N.N.m.N.N.v.M.M.N.N.M.M.b.N.N.M.N.N.M.N.b.N.M.M.N.n.N.+ Z %.8.m r j.h.f.z.z.f.h.h.h.f.h.8.5.6.8.N.N.v.m.m.m.n.n.N.N.M.N.M.M.M.N.",
"M.N.M.N.M.M.M.M.M.N.M.v.N.x.7.5.v.v.x.h.z.h.f.z.f.h.z.f.f.h.h.h.8.5.6.x.m.N.m.m.M.N.M.M.N.M.M.M.N.b.M.N.M.M.M.M.N.N.b.N.v.N.v.8.o $.v.c r h.f.z.f.f.z.f.h.f.h.h.z.8.6.6.8.v.N.m.N.n.N.b.M.M.M.M.N.M.m.N.",
"b.b.M.M.M.M.M.M.b.M.v.N.x.8.5.h.m.x.f.f.f.f.f.f.f.f.h.f.f.f.f.h.f.7.5.6.x.m.N.m.M.M.M.M.M.M.M.M.b.b.M.M.M.M.M.M.b.b.M.M.N.v.h.,.o         - f.f.h.f.f.h.f.f.f.f.8.9.8.6.5.h.v.v.n.n.n.b.M.M.M.M.M.M.m.m.",
"M.M.b.b.b.b.v.b.M.M.v.c.f.5.8.V.k.f.f.h.f.h.f.h.h.h.f.h.f.h.f.f.f.f.5.<.5.v.m.v.M.M.M.M.b.b.M.M.b.b.b.b.M.M.M.M.b.M.M.M.c.z.,.o   R.+X` A U.+ + f.f.f.f.f.h.f.h.8.z.h.8.5.,.x.v.n.b.b.b.b.M.v.M.M.b.b.b.",
"b.b.b.b.M.c.c.b.v.c.v.5.,.f.C.f.f.f.f.d.d.h.f.d.f.f.f.f.h.d.f.g.f.f.f.7.,.<.c.m.b.b.c.v.M.b.b.v.M.b.b.b.v.v.c.c.c.M.c.c.h.,.,.    e J 0 % | U.U.r 7.h.f.h.h.8.h.8.8.8.9.8.,.,.f.v.b.M.c.c.v.b.b.b.b.b.b.",
"b.b.b.b.c.v.c.c.c.c.5.,.h.N.h.d.d.g.f.g.d.d.d.d.d.d.7.d.d.7.7.7.7.7.5.<.,.,.,.c.v.v.c.c.c.x.v.x.c.b.M.M.v.c.v.c.c.M.v.8.,.-.v   5 6 5 0 5 Z | |   t p o.8.9.8.7.8.7.6.7.5.<.,.,.9.x.v.v.c.v.c.c.c.c.c.b.",
"g.g.j.k.k.k.l.l.k.1.;.k.l.d.7.7.7.7.7.7.7.7.7.6.1.6.<.7.7.7.5.7.<.5.1.5.5.,.=.5.g.k.l.l.j.j.j.h.k.g.j.j.k.j.j.l.l.j.8.,.@.N 4 4 J _ _ L J 5 X A L J J b m Y 6.6.6.6.<.<.6.<.5.,.,.8.l.l.l.j.j.h.g.k.g.k.",
"d.k.k.k.g.k.x.h.6.,.9.v.8.8.7.6.7.<.5.7.7.7.<.<.7.7.<.7.5.1.<.5.5.5.1.7.6.<.,.-.5.9.z.j.8.9.z.9.d.d.g.k.k.h.k.l.k.7.,.,./ # ~ K ~ L J G Z $ e OX>X>X>X` % 9 <.<.7.5.<.1.<.7.6.,.,.,.9.x.9.c.8.9.k.d.g.k.",
"k.k.l.k.k.k.k.7.,.5.V.9.8.9.7.6.6.6.<.1.5.7.5.5.7.9.7.5.7.7.1.8.7.<.7.7.7.5.5.,.=.5.j.z.c.c.c.c.k.k.c.x.k.k.k.l.h.;.<.P $ _ L _ L L 4   A +X>X>X>X>X>X>X:XU.* <.8.7.5.7.8.7.7.6.5.=.,.8.n.8.n.n.c.k.k.k.",
"c.c.l.c.c.c.1.-.5.N.8.7.8.7.7.8.9.9.8.8.d.7.8.7.7.7.8.7.8.7.7.d.d.7.d.7.d.d.7.d.5.=.,.z.c.c.c.c.c.c.c.k.b.l.x.f.-.,.l     X Q L _ Q 4 ` #X>X>X>X>X>X>X>X:X:X/.o 7.8.9.8.8.7.8.9.6.6.=.,.9.n.8.n.x.l.c.c.",
"l.c.l.c.c.,.-.d.V.9.9.7.7.7.7.9.7.7.7.7.7.8.7.7.7.7.7.7.7.8.7.7.d.7.7.d.7.7.8.7.8.5.=.,.j.l.l.l.k.l.c.l.x.l.d.,.> + Z  .| ` X X X X   ` #X>X>X>X>X>X>X>X:X:X:X'.} 7.7.7.7.7.7.7.7.7.7.-.,.9.V.8.c.l.l.c.",
"x.k.x.x.,.=.d.x.9.9.8.7.7.7.7.9.7.7.7.7.7.7.1.7.7.7.1.7.1.7.7.7.7.7.7.7.7.7.7.7.7.1.<.=.5.8.c.c.l.c.l.x.b.1.7 < G H ] T.(.^.U.U.U.U.L.^.=X>X>X>X>X` L L L U.:X@X5 7.7.7.7.7.9.7.7.7.7.5.-.5.7.8.l.c.l.l.",
"x.k.k.<.=.f.k.k.7.7.7.7.7.7.7.5.8.7.7.7.7.7.7.7.7.6.7.7.7.7.7.7.7.1.7.7.7.7.7.7.8.7.7.,.=.5.9.c.k.k.l.l.1.y ~ ` T.^./.oX$X$X:X:X>X>X%X=X>X>X>X:X| W W W W ! U.+X  p p p p E 7.7.7.7.7.7.5.=.,.7.l.l.x.l.",
"x.k.d.=.<.x.f.d.7.7.5.7.7.7.6.9.7.7.7.5.7.7.7.7.7.7.7.7.7.7.7.7.7.7.7.7.7.7.7.7.7.5.7.5.,.=.5.8.l.k.k.1.c A oX#X#X#X=X:X:X:X:X:X:X>X>X>X>X>X%XU.a ].}.}.}.E.! ^.  A A q 0 i Y 7.7.9.7.7.7.,.,.-.g.x.k.h.",
"j.d.=.,.N.d.1.<.<.<.9.7.7.<.9.6.7.1.7.1.1.7.1.1.7.1.7.<.7.7.6.7.7.<.1.7.7.<.7.1.7.1.7.7.7.-.=.,.k.k.g.z e @X;X>X:X:X:X;X%X@X@X@X%X:X>X>X>X>X+X  [.[. X X X*X{._   _._.U. .0 < X.7.<.6.7.5.5.,.=.-.k.k.1.",
"=.=.<.M.5.,.<.<.,.,.5.<.5.<.6.9.,.,.,.,.,.,.,.<.,.,.,.,.5.<.<.<.,.,.,.<.<.<.5.7.6.<.<.,.-.6.5.=.=.-.N % >X>X>X>X:X:X>X%X).I.I.I..X=X>X>X>X>X+X  [. X*X*X*X*X{._   I.I.I.0     = 7.<.<.,.,.,.,.<.@.=.-.=.",
"@.=.;.l.,.-.,.,.-.,.-.,.-.-.<.-.;.<.<.<.,.<.;.=.,.5.<.,.,.,.,.,.,.;.,.,.,.=.;.,.-.<.<.<.-.<.-.=.=.$.P.+X>X>X>X>X>X:X$X(.I.I.I.I.I._.$X>X>X>X+X  [. X*X*X*X&XQ.X _ I.I.4 v ;.-.,.,.-.,.<.6.,.,.,.=.@.=.=.",
"7.,.-.7.<.,.<.,.<.<.<.<.<.<.<.<.<.<.6.<.<.1.<.,.<.<.6.<.<.<.,.,.<.,.<.<.<.<.<.,.<.<.<.<.<.-.-.-.9.P A ;X>X>X>X>X>X>X'.I.I.I.I._ _ ' '.:X>X>X>X+X-X&X X*X*XE.a | L.'.5 Y =.<.<.<.<.<.<.<.<.<.,.=.@.g.d.;.",
"l.7.=.=.<.<.<.,.<.<.<.5.<.<.<.<.<.6.<.1.5.1.<.1.<.7.<.<.1.<.<.<.<.<.5.<.<.<.<.<.<.1.6.<.,.-.-.9.s.P.'.>X>X>X>X>X>X>X^.` ' ' ' ^.XX ._.:X>X>X>X>X>XW.D w { P...^.4 0 m -.1.<.<.<.<.<.7.7.<.<.-.=.<.v.k.7.",
"j.j.9.-.=.,.<.9.6.<.<.7.<.<.<.<.7.<.1.<.<.1.<.1.6.1.1.1.<.1.1.1.1.<.1.1.<.<.1.<.<.<.9.<.=.%.9.b.T ..>X>X>X>X>X>X>X>XI.L P.k ~.$X,X_ !.:X>X>X>X>X>X_.L.' P.(.`.^.    t u p p P 6.<.<.<.<.<.-.-.:.N.j.j.j.",
"9.j.j.9.=.=.-.6.<.<.<.<.<.<.<.<.<.<.<.1.<.<.1.1.<.<.,.<.<.<.1.>.<.<.<.<.<.<.<.<.6.<.,.+.+.j.b.j.z K >X>X>X>X>X>X>X>X!. .Y.' ,X,X~.' ^.:X>X>X>X>X>X>X:X%X+X#X;X.X0 0 X a F a S Y <.<.<.<.-.=.<.n.j.g.j.g.",
"9.9.h.j.6.-.=.-.<.<.<.<.<.<.<.<.<.,.,.>.,.<.,.:.<.,.:.<.,.>.<.,.,.,.:.<.,.<.<.<.6.,.-.=.j.l.j.g.z A '.%X>X>X>X>X>X>X>XR.L ).).).q ^.=X>X>X>X>X>X>X>X:X:X$X$X:X%XT.I.# Q.|.].W r <.<.<.-.=.9.c.j.g.j.g.j.",
"j.j.j.9.9.<.=.=.-.<.<.<.<.<.,.,.,.<.,.,.,.<.,.,.,.,.<.,.,.,.,.,.,.,.,.,.,.<.,.,.-.=.-.9.l.j.g.g.z   0 +X>X>X>X>X>X>X>X>X/.      ^.=X>X>X>X>X>X>X>X:X:X:X>X>X:X;XoXI.+ 0.[.W 7 ,.<.,.-.=.9.8.c.9.g.g.g.g.",
"j.9.9.9.9.8.9.-.=.-.,.,.:.;.,.,.<.;.;.<.;.<.<.<.,.,.,.,.,.:.,.,.,.>.,.,.,.<.,.;.@.-.7.l.j.9.g.9.z A +X>X>X>X>X>X>X>X>X>X>X>X>X>XU. .{ } Z e >X>X>X>X>X>X>X>X>X>X>XoXU.4   u ,.<.-.-.@.:.j.9.j.9.g.4.g.g.",
"9.8.9.9.9.9.9.<.=.+.-.,.,.,.,.,.;.,.<.<.<.;.;.<.,.,.:.:.;.,.,.:.,.,.,.<.;.~ 5 o o 7 l.9.4.j.g.g.4.I J >X>X>X>X>X>X>X>X>X>X>X>X>X=X$X$X$X#X+X>X>X>X>X>X>X>X>X>X;XOXU.I.% z @.,.;.-.@.-.b.j.9.9.9.g.g.g.g.",
"9.9.9.9.9.9.9.9.<.+.+.-.,.;.-.-.-.-.-.;.-.-.-.<.-.-.;.-.-.-.-.,.;.,.,.~ ~ y.i.a.i.V > - - %.9.9.9.M 0 @X>X>X>X>X>X>X>X>X>X>X>X@XT.I.).$X:X>X>X>X>X>X>X>X>X>X=X+XY.I.I.4 c -.;.%.+.-.l.g.9.9.9.9.4.g.g.g.",
"1.9.<.<.9.9.<.9.1.,.+.+.@.%.=.;.@.-.-.-.@.-.-.-.-.-.-.=.-.-.-.-.&.-.@.( ( y.e.C t.S.C C j z #.<.<.E x | >X>X>X>X>X>X>X>X>X>X>X#X(.^.!.I.R.:X>X>X>X>X>X>X>X>X;X#X`.I.I.4 c -.-.+.<.g.9.9.9.<.4.<.1.,.:.:.",
"9.1.1.1.1.<.<.1.7.7.<.@.+.@.=.;.-.-.-.-.-.-.-.-.@.@.-.-.-.-.-.-.-.-.-.-.+.( b 7 n t.u.G.D.g z #.9.7.$.t U.$X:X>X>X>X>X>X>X>X>X>X>X>X`...L.+X>X>X>X>X>X>X>X>X>X>X>X!.I.4 c +.+.<.g.4.1.1.d.:.:.:.,.4.1.1.",
"9.9.9.9.9.9.1.9.9.9.9.;.+.+.=.;.-.<.-.<.;.-.-.-.-.-.-.,.,.-.-.-.-.-.-.+.#.Y / E p - 2 w.K.S.: M 9.9.9.%.- Y.oX;X>X>X>X>X>X>X>X>X>X>X>X>X.X!.>X>X>X>X>X>X>X>X>X>X=X`.I.4 p +.,.9.g.1.1.9.1.d.>.*.1.4.9.9.",
"9.9.9.9.9.9.9.9.9.9.9.9.;.+.+.&.-.;.<.-.;.;.;.;.;.;.-.;.;.;.;.-.-.-.$.o.) 3 ; @ 2 %.E   K.S.: M 9.9.9.9.9.+ ` '.;X;X;X>X>X>X>X;X>X>X>X>X>X>X>X>X>X>X>X>X>X>X:X=X.XP.I.4 p %.j.9.>.g.g.d.g.g.d.d.9.9.9.9.",
"9.9.1.9.4.4.4.4.4.4.4.4.d.:.+.o.-.;.<.-.;.;.;.-.;.;.;.;.;.&.,.&.-.$._ _ i.H.K.F.V       K.S.: b 4.4.9.4.4.4.#   U.XX$X>X>X>X>XoX;X>X>X>X>X>X>X>X>X>X>X>X>X>X%X.XI.I.I.4 c j.9.9.g.g.>.>.g.>.*.d.4.4.4.4.",
"9.3.9.4.4.4.4.4.*.d.d.d.d.*.&./ o.@.-.;.-.-.;.-.%.;.;.%.;.;.y.:.+.o.,.4.( , ; w.G.F.F.F.K.J.1 . + o 7 4.>.>.#.+ X $ $ _ +X+XOXXX;X:X:X>X%X#X>X>X>X>X>X>X>X>X>X;X%XI.4 P >.g.>.g.>.d.3.>.*.d.d.d.4.4.4.4.",
"9.9.4.4.<.4.4.4.d.d.d.*.d.d.d.$.+.o.+.-.&.-.:.-.;.;.=.;.;.%.%.+.o.<.4.4.>./ ^ f 1 1 1 1 K.K.1 d w.w.B * > > >   } Y.T...0 0 0 %X:X:X>X%X`.^.>X>X>X>X>X>X>X>X>X>X@XL.# E d.d.d.>.g.>.1.g.d.d.*.d.4.4.4.4.",
"<.9.<.4.4.4.4.4.s.&.d.&.d.d.d.d.-.o.o.=.;.-.%.-.;.%.%.;.=.=.+.X.;.g.g.3.t 7 < k M M c   K.K.1 : s s h V V V V . 0 A A 0 $ c   >X:X:X:XT.| `.>X>X>X>X>X>X>X>X=X+XR.0 X E 1.g.>.g.>.>.>.d.d.*.*.d.1.4.3.1.",
"<.3.4.:.1.1.:.:.d.&.d.d.) &.*.d.3.-.X.X.@.%.%.%.%.%.=.%.%.X.X.%.g.:.M 2.j h d f M M M s K.G.1 > 7 7 3 V V V V s s s s : + I L >X:X:X=X] 0 T.%X%X>X>X>X>X>X>X$X!.J F F x ( d.1.>.d.d.>.>.d.*.d.d.1.1.<.1.",
"1.>.:.,.1.3.<.;.d.&.d.d.d.&.d.d.:.d.&.X./ @.@.@.@.@.%.%.o./ %.g.>.#.> ~ p.a.a.q.1 1 h a.H.t.3 Y >.>.^ & > $ ; e.w.w.q.h ; $ >X>X:X:X`.A   4 Y.Y./.#X%X;X$X@X_.J   |.|.8 b >.:.1.>.>.>.d.:.>.d.&.1.:.:.>.",
";.@.&.&.&.;.-.%.%.%.%.&.O.O.&.;.&.:.;.%.X.X.o.o.+.+.o./ ^ &.g.,.:.;.;.;.> X r.F.F.F.D.u.u.; Y >.:.,.%.&.&.;.,.& o o o s e.e -X>X:X+XG O O O O     Y.^.^.U.| ` + o Q.Q.8 c ;.;.;.>.>.:.:.;.:.d.;.:.1.&.@.",
";.:.;.&.:.:.,.:.&.&.&.&.d.&.&.;.;.&.;.:.;.^ X.o.@.@.X.R ,.1.3.,.;.:.;.;.&.:.2             ^ %.&.;.;.,.;.;.;.:.:.:.;.;.c a  X[.>X:Xe V a.a.a.t.              > 1.1.      b *.,.:.;.;.;.&.%.&.;.&.&.;.:.:.",
":.>.:.:.,.1.>.:.&.&.d.&.d.&.&.d.:.:.,.:.,.@.X.X.X.X.R &.g.1.1.<.:.;.:.>.;.>.&.#.#.O.O./ #.;.;.;.;.:.>.>.,.:.:.>.>.;.;.c w  X X{.q T 2 O O O : u.u.u.u.1 t #.#.:.:.$.o.o.&.,.:.:.>.>.>.;.;.:.;.;.;.;.:.,.",
">.>.>.>.:.>.>.>.:.:.:.>.>.>.>.>.:.>.>.>.:.:.+.X.R X.o.9.1.:.:.<.>.>.>.>.>.:.>.>.>.>.>.>.>.:.>.>.>.>.>.:.:.>.>.>.>.:.:.( P w w 8 b &.^ I Y Y Y : : : : 0 ( 4.>.:.>.:.>.>.3.:.>.:.>.:.>.3.:.>.>.>.:.>.>.>.",
":.:.:.:.:.>.>.:.:.>.>.:.:.>.>.*.>.>.:.:.:.:.3.o.R o.9.1.:.3.:.3.:.:.>.:.*.>.:.>.>.>.>.:.>.:.*.:.:.:.>.>.:.:.:.:.:.:.:.3.&.v v v *.:.:.>.:.>.&.v c u y ( *.,.:.:.:.:.:.:.:.:.:.:.:.>.:.:.:.:.:.:.:.:.>.:."
};
