/* XPM */
static char *result[] = {
/* columns rows colors chars-per-pixel */
"50 100 219 2 ",
"   c #000000",
".  c #0C0000",
"X  c #00000B",
"o  c #120000",
"O  c #1C0000",
"+  c #190C00",
"@  c #090E16",
"#  c #1B0019",
"$  c #230001",
"%  c #2C0000",
"&  c #2B0F0C",
"*  c #1E241F",
"=  c #2F2316",
"-  c #000028",
";  c #270027",
":  c #340730",
">  c #102739",
",  c #373329",
"<  c #2D2D30",
"1  c #393934",
"2  c #443027",
"3  c #45322A",
"4  c #394A2C",
"5  c #46433B",
"6  c #534B39",
"7  c #001544",
"8  c #0A2C4D",
"9  c #2E374D",
"0  c #44344A",
"q  c #005D59",
"w  c #25435C",
"e  c #3B465A",
"r  c #2D4C6E",
"t  c #394B65",
"y  c #3C5574",
"u  c #356D70",
"i  c #397478",
"p  c #434342",
"a  c #4A4844",
"s  c #4C4C4B",
"d  c #57564C",
"f  c #4D4B50",
"g  c #5B5A58",
"h  c #64574F",
"j  c #655D54",
"k  c #636256",
"l  c #63635C",
"z  c #414F64",
"x  c #4D5667",
"c  c #475A77",
"v  c #655767",
"b  c #68516A",
"n  c #5F6160",
"m  c #4C617E",
"M  c #56657A",
"N  c #656465",
"B  c #6A6963",
"V  c #69696B",
"C  c #77616F",
"Z  c #75746D",
"A  c #676C77",
"S  c #6E737D",
"D  c #747573",
"F  c #777877",
"G  c #7D7E7A",
"H  c #7E807D",
"J  c #84847C",
"K  c #888C7E",
"L  c #3A5A84",
"P  c #415F86",
"I  c #4E6484",
"U  c #496589",
"Y  c #516584",
"T  c #546986",
"R  c #5C6985",
"E  c #526689",
"W  c #556A8C",
"Q  c #596E8D",
"!  c #5B708E",
"~  c #556D92",
"^  c #596E91",
"/  c #546F9A",
"(  c #5D7294",
")  c #56729A",
"_  c #587398",
"`  c #5D759A",
"'  c #6B7484",
"]  c #66768A",
"[  c #6F798D",
"{  c #617695",
"}  c #657996",
"|  c #697A95",
" . c #617799",
".. c #647A9C",
"X. c #697D9D",
"o. c #5F77A0",
"O. c #5D7AA3",
"+. c #657DA1",
"@. c #697FA1",
"#. c #607EA9",
"$. c #8B6F8E",
"%. c #9C7FA0",
"&. c #1C8E8E",
"*. c #358E91",
"=. c #388E90",
"-. c #4E8E90",
";. c #449394",
":. c #499496",
">. c #449B9D",
",. c #4A9D9E",
"<. c #6B809E",
"1. c #78849A",
"2. c #4A9EA0",
"3. c #6581A6",
"4. c #6B81A5",
"5. c #6682AB",
"6. c #6C84AA",
"7. c #6E88AD",
"8. c #7185A5",
"9. c #7A8AA4",
"0. c #7187AA",
"q. c #7289AD",
"w. c #619FA0",
"e. c #6D89B3",
"r. c #6B89B4",
"t. c #758DB2",
"y. c #788FB3",
"u. c #728EB8",
"i. c #7791B6",
"p. c #7991B6",
"a. c #7691BB",
"s. c #7C94BB",
"d. c #7F98BF",
"f. c #4DA3A4",
"g. c #58A4A6",
"h. c #52ACAD",
"j. c #57B5B7",
"k. c #5ABDBD",
"l. c #7C98C2",
"z. c #5DC3C4",
"x. c #5FC7C8",
"c. c #67D4D6",
"v. c #68D6D8",
"b. c #6ADBDD",
"n. c #6CDFE0",
"m. c #6FE3E5",
"M. c #71E8EA",
"N. c #7AFBFD",
"B. c #888584",
"V. c #8C8D85",
"C. c #8E8E88",
"Z. c #918B8C",
"A. c #8F9186",
"S. c #92928B",
"D. c #9A998F",
"F. c #9B9B94",
"G. c #9A9B95",
"H. c #A09F97",
"J. c #A4A49C",
"K. c #A8A79C",
"L. c #818EA5",
"P. c #8592A7",
"I. c #8995A7",
"U. c #8694AB",
"Y. c #8995A9",
"T. c #8597B6",
"R. c #8A9AB4",
"E. c #8C9DBA",
"W. c #A588A7",
"Q. c #B192B5",
"!. c #8FA0BD",
"~. c #9FA7B6",
"^. c #91A2BE",
"/. c #AAAAA3",
"(. c #AEAEA8",
"). c #B0AFA8",
"_. c #B5B5AC",
"`. c #A1A9B6",
"'. c #A4ADBC",
"]. c #BCBCB3",
"[. c #BBBBB5",
"{. c #C6C6BA",
"}. c #C3C3BC",
"|. c #829BC2",
" X c #BC94C3",
".X c #93A5C3",
"XX c #97A9C8",
"oX c #A6AFC0",
"OX c #A7B1C2",
"+X c #A9B3C5",
"@X c #A4B2CA",
"#X c #ABB6CA",
"$X c #ADB9CD",
"%X c #B4BAC4",
"&X c #AFBBD0",
"*X c #CB9FD1",
"=X c #D0A7D6",
"-X c #D7B5DA",
";X c #DCAEE3",
":X c #DEB3E5",
">X c #E6BBEC",
",X c #CCCCC2",
"<X c #D3D3C6",
"1X c #D4D4CA",
"2X c #DADACE",
"3X c #DDDDD2",
"4X c #E2E2D6",
"5X c #E5E5DA",
"6X c #EAEADE",
"7X c #EDC3F3",
"8X c #F4C9FA",
"9X c #EFEFE1",
"0X c #F4EAEA",
"qX c #EFF0E2",
"wX c #F6F6E7",
"eX c #F7F7E8",
"rX c #F8F8E8",
"tX c #FAFAEB",
"yX c #FFFFF2",
/* pixels */
"@X|..X.X.X.X.X.X.XXX.X.X.X.X.X.X.X.X.X.XXX.X.XT.T.|..X^..X|..X|.XXXXXX.X.X.X.X.X.XXX.X.X.X.X.X.XE.&X",
".Xu.a.a.a.a.a.a.a.a.a.a.s.a.a.a.a.s.a.a.u.a.r.o./ e.s.a.a.a.s.s.a.a.a.u.a.a.a.a.a.a.a.a.a.a.a.l.r.&X",
".Xa.T.l.s.s.s.s.s.l.s.s.s.s.s.s.s.s.s.s.s.a.@.+.o.+.0.|.T.s.s.s.T.|.s.s.s.|.T.s.s.s.s.s.s.s.l.d.u.&X",
".Xa.s.s.s.s.s.a.s.s.s.s.s.s.s.s.s.s.s.s.a.+.` s.6.+.+.6.u.t.s.y.u.s.s.s.t.a.l.s.s.s.s.s.s.s.s.T.u.&X",
"!.6.t.t.t.y.y.t.t.t.u.i.s.s.a.y.y.y.u.t.+. .y.s.e.@.+.+.#.t.y.t.t.u.y.t.q.a.y.y.u.t.t.y.y.y.t.t.5.@X",
"E.#.6.6.0.e.t.e.6.6.6.t.y.y.y.t.e.t.6.+.o.t.|.6.@.6.@. .+.6.e.t.t.t.t.0.@.u.t.t.t.6.6.7.u.0.6.q.O.@X",
"^.t.y.t.t.e.y.y.t.t.t.t.0.t.u.y.t.t.+.` t.d.#.6.6.6.6.#.` ` e.y.y.a.a.t.q.t.a.y.p.t.0.i.p.y.q.p.r.&X",
".Xt.a.p.y.y.i.y.y.y.i.y.a.a.y.i.y.+.) y.s.6.@.6.#.6.@.6.@.+.` e.a.s.y.s.y.s.a.a.i.p.a.s.p.a.p.s.r.&X",
"^.t.p.y.p.p.y.p.i.i.i.i.i.a.i.y.+.) y.p.6.6.@.5.6.#.+.6.4.#.` ..[ 0.s.y.p.<.1.a.t.p.9.X.p.p.p.p.7.$X",
"^.t.p.p.y.y.y.t.y.y.y.y.y.y.u.+.^ t.a.0.@.4.6.+.@.6.@.+.4.6.+.o.g ] a.y.s.A ' a.t.s.' V s.t.y.p.5.$X",
"^.0.p.t.y.y.t.t.y.y.t.u.a.t.+._ 6.a.6.+.6.#.4.6.@.6.4.6.6.+.4.+.A [ @.a.t.' ' y.t.t.[ ' t.t.y.p.5.&X",
"E.t.y.t.t.t.t.t.t.t.t.y.t.+.` @.s.6.5.6.6.6.6.4.#.6.#.6.6.6.X.N h.-.v 0.v g.w.D i.N w.g.N 9.y.p.5.$X",
"^.7.t.t.q.t.t.t.t.t.t.y.+.~ 6.|.#.@.6.6.@.6.6.6.6.6.6.#.4.5...$ n.h.: O.$ c.z.: a.: j.v.$ q.q.p.5.$X",
"E.e.t.t.t.t.t.t.q.t.t.+.~ 6.s.@.6.@.@.6.6.4.#.6.@.@.6.6.4.6...  M.h.; `   c.x.o i.O z.b.  q.y.p.5.$X",
"^.e.t.t.t.t.t.t.t.q.+.~ 6.t.6.@.6.@.6.@.@.6.@.@.@.+.+.@.3.4...  m.h.; 3.  v.x.O i.$ z.b.  7.t.q.5.#X",
"R.+.0.0.6.0.6.0.0.@.~ 6.t.6.+.+.+.+.+.+.+.+.+.@.#. .+.+.O...(   M.h.; +.  c.x.O i.O k.b.  4.6.q.O.+X",
"T.+.6.4.3.6.6.6.+.~ +.p.4.....` +.+...+.+.` ` ..+.+.` ` ..o.(   M.h.; <.  v.x.o 5.$ k.b.X +.@.@.) OX",
"R.+.0.6.4.0.0.+.~ ..s.4.+.3.+...+.` ` ..+.+.` o.+.@.+.+.+.+.(   m.h.; 6.  v.x.  3.$ k.b.  q.a.@.O.@X",
"E.6.0.t.6.t.+.~ +.a.@.@.+.4.+.+.+.3.+.4.+.+.3.4.+.@.+.+.+.4.`   m.c.i ;   v.z.  # i b.b.  0.q.t.3.+X",
"E.5.0.7.q.+.W +.y.4.+.@.+.+.+.+.+.+.+.+.+.+.+.+.+.+.+.+.+.3.(   k.m.v.k.j.m.n.j.z.b.m.j.  4.q.q.O.@X",
"E.+.q.0...~ @.0.6...+.@.+.+.+.+.+.+.+.+.+.3.4.+.4.4.X.+...3...t i k.M.M.N.N.N.N.M.M.k.u z @.y.q.O.#X",
"E.6.0.+.~ ..q.6...+.......+...+.+.+.+.+...! ( ( ~ ~ ( ..+.+...4.9 i 2.2.v.n.n.v.,.f.u 9 #.@.q.q.O.+X",
"R.5.@.~ ` t.6...@.+.' Z S ..+.....+.+.6.M + < * * = <  .4.......@.c X *       X *   c +.^ ` @.y.O.+X",
"E.` ~ _ y.4.............| F | 4.4.@.-   F ,X5XK }.5X_.>   t 0.X.+.' A ` . ;.-.#  .(  ...( ^ o.@.O.'.",
"9.U  .t.+.`  . .` ` .. .{ { [ v - 7 <X2X3XqXtX4X9XtX9X1X3X/.  8 A [ {  .o 2.:.# +.(  .(  . .W ( U ~.",
"9.U  .0.{ ^ ` { ' ' ' ] ` @.9 B H.].{.3XqXtXwXtXrXwXwX6X1X[.).S.6 c +.~ . ,.;.$ ' { +.( ` ( ^ ^ L ~.",
"T.W ^  . . . .{ S S ' ' ] c D ].5X3XB.].5XeXwXwXwXwXwX3XG.(.6X4XF.A U ] . ,.;.$ S  .+. .( W ^ @./ ~.",
"E.+.( W  . ..... .+.+.' l a 5XyX1Xn <XqXrXwXwXwXwXwXwXeX5X(.F wXyX_.1 Z o 2.;.# +.+. . .^ ^ @.T.o.XX",
"R.+.@.( ^ (  . . .+.[ a l rXwXtX3XF 9XwXwXwXrX2X5XyXwXwXtX,XB.rXwXtX<X  o ,.;.#  . . .^ Q X.y.8.` +X",
"T.+.0.@.^ W  .[ ' - X G {.rXeXtX<X  1XrXwX,Xk p 1 V.4XtX9XJ.5 wXwXtX6X_.& f.;.; +. .^ E 4.q.4.8.o.OX",
"U.+.@.@.+.+.r - * ).< B.tXeXeXeX6X{.Z H G V G.}._.C.N V.V S.1XwXwXwXwX5X2 >.-.  7 E ^ 8.q.4.<.4.` OX",
"R.+.@.@.@.r $.K.H.K.H.,XtXeXeXeXtXtXJ.D.D./.5XtXeX1XG.G.S.{.yXwXwXwXrXwX2 ,.;.= J.x E t.8.4.4.6.O.OX",
"R.+.8.@.{ N ,XyXtX  <XyXeXwXrXwXwXwXtXyXyXtXrXwXwXrXyXyXyXeXqXeXwXwXtX9X3 >.*.j tXD.S @.4.4.@.0. .oX",
"R...0.|   5XtXwX5Xp ,XeXeXwXwXrXwXwXeXwXwXwXeXwXwXwXwXwXwXeXeXeXwXwXrXqX3 >.=.h rXtXK.- 9.4.@.8.` OX",
"U. .6.{   2XyX1X1 }.9XeXwXwXeXtXeXrXeXeXeXwXwXrXwXwXwXwXeXwXeXeXwXwXtXqX3 :.=.j qXtXK.- 0.X.@.@.) oX",
"L.) c n 2XwXtX1X  }.9XeXeX3XK k J ].wXrXwXwXwXwXwXwXwXwXeXwXeXeXwXwXrXqX2 ,.&.6 tXrX6X}.8 |  .} U '.",
"U.+.y h tXtXwX}.  3XwXqX2XF W.Q.$.4 ].6XrXeXwXwXwXwXwXwXwXeXwXeXeXeXrX9Xa q L.Q.J.5XyX2X  ( ` <./ '.",
"R.+.c j wX6X{.C.B.9XtX2XF.A.-X8X>X$.g 1XtXwXeXwXwXrXrXwXwXwXwXrXwXeXtXqXs   W.7X  2XtX1X  } 3.<./ oX",
"U.3.c g wX3XF g 4XqXyX].1 tX-X-X8X7X# ,XyXwXeXrXwXwXeXwXrXwXwXwXeXwXrXqXs   %.:X  4XyX1X  <.<.<./ OX",
"U...c j wX3XJ J tXwXtX].g wXrXrX0X>X< ,XtXwXwXwXwXwXeXwXwXeXwXwXwXwXtXqXa   $. X  2XtX<X  } <.<.) '.",
"U.+.c 6 1X3XB.F tXtXS.D.wXwXwXtX2Xf 4XwXrXwXwXwXwXwXrXwXwXrXwXrXeXwXrX9X3 ;.;.b 6XZ ).{.  <.<.<.^ OX",
"Y.` } M B F * K tXyXG./.tXwXeX6X[.V 0XrXwXwXwXwXwXwXwXwXwXwXwXwXwXwXrX9X3 2.*.d tXB , D M ! <.<.^ '.",
"U.( 4.} r t @ B.tXeX2X3XtXwXrX9X2X<X0XrXwXrXrXwXwXrXwXwXwXwXwXwXeXeXrXqX3 2.*.j tXZ - c <.<.! <.~ oX",
"U.( <.} <.7.9 J tXeXrXtXrXwXwXrXtXtXrXrXwXwXwXwXwXwXrXwXrXwXwXrXwXeXtXqX2 >.=.6 2XV m 8.<.! <.<.~ '.",
"P.^ } ] } <.8 K tXwXwXwXwXwXwXwXwXwXwXrXwXwXwXwXwXwXwXwXwXwXwXwXeXwXrXqX2 >.:.    R <.! <.] <.<.U `.",
"9.I ! ! ! | 8 J eXwXwXwXwXrXwXwXwXwXwXwXwXrXrXwXrXwXwXrXwXwXwXtXwXeXrXqX3 >.:.  * T ! <.( ( ] <.U ~.",
"P.( } ! } <.8 K tXeXeXrXrXwXwXrXwXwXwXwXwXwXwXwXwXwXwXwXwXwXwXwXwXwXrXqX3 >.:.  @ M ! ! ! ! ! ! U '.",
"P.( | { } <.w F 6XwXwXwXwXwXwXwXwXrXwXrXwXwXrXwXwXwXwXwXtXwXwXwXwXeXrXqX3 >.:.  @ ! <.! <.! ! <.W '.",
"P.! } } | m > a J.wXrXrXeXwXwXeXwXwXwXwXwXrXwXtXwXwXwXwXwXwXwXwXwXwXrXqX3 >.:.    e ] X.| { | | W '.",
"P.! } ! T s 1 X   4XrXrXeXeXwXwXwXwXwXwXwXwXwXwXwXwXwXwXwXwXwXwXwXrXtXqX3 >.:.. s & z ! { } { | U '.",
"^.u.s.8.  J J s 1 ].6XrXwXwXeXwXwXwXwXwXwXtXwXwXwXwXwXwXwXwXwXwXwXwXrXqX3 >.;.% A.D , e s.p.a.s.r.$X",
"XXa.d.i.  g N s @ A.}.4XeXwXeXwXwXwXwXwXwXwXwXwXwXwXwXtXwXwXwXwXwXrXrXqX3 >.:.$ n B , t |.s.l.l.u.&X",
".Xa.<.f 1.l G H g 5 J {.rX2X0XrXwXwX3X9XtXwXtX3X6XtXwXtX4X5XtXwXtX5X4XwX3 2.;.% V.V H Z t p.T.T.u.&X",
".Xl.!   J 5 N F ,   s ).4X/.2XwXwX4X(.1XqXwX5X_.,X9XrX5X[.}.9XwX9X}.[.3X= >.;.% H p B B   p.d.s.u.&X",
"!._ M g 5 z f p t c 9 J [.J /.2X4X).V.J.1X5X[.V.F.,X6X}.S.G.}.6X}.D.S.[.% >.:.  p t e 6 n ! 4.t.O.$X",
"!.8 6 J > q.T t t.t.c s J S.J (.[.J S.B./.[.B.S.B.F.}.V.V.V.S.}.D.V.V.F + 2.:.  9 6.U s B.  Q q.O.@X",
".Xt   9 t.0.t.p.t.6.i.W , S.A.A.A.A.V.V.S.V.S.V.C.C.A.C.C.S.C.C.C.C.F @   f.=.< p.q.i.X.    { s.r.&X",
".Xq.q.q.p.p.p.p.i.p.p.p.X.+ J D.A.A.V.S.S.V.V.V.V.V.A.C.C.C.V.V.D.l e q.l 1 1 v i.p.i.i.0.q.y.s.r.$X",
"^.u.p.s.p.i.p.t.y.a.y.a.i...s k H S.V.K C.S.S.S.S.S.S.V.V.A.C.F a M 3.p.9.+.+.9.y.p.p.p.p.p.p.p.5.$X",
"^.q.p.t.p.t.p.p.y.y.y.y.t.s.W 9 5 B W.Q.Z.d V l l N k W.Q.Z.l 1 e ` p.t.a.s.a.a.p.y.p.p.p.p.p.p.5.$X",
"^.e.p.t.t.t.p.t.y.t.t.t.i.7.6.c 9 # =X-XQ.0   9 > # b *X;XW.X e _ +.6.y.y.t.t.t.y.y.q.q.y.y.q.p.5.$X",
"^.7.p.t.t.t.t.t.t.t.t.t.q.+.` u.4.0 -X7X>X X. @.y v =X>X7XQ.> r.+.` ` 6.u.t.y.y.p.q.p.y.q.t.p.y.r.$X",
"^.7.y.q.t.t.t.t.t.t.t.t.+._ 6.s.3.4.  *X8X;X  @.r C 7X8X$.w 7.@.6.+.` ` t.t.t.t.p.y.t.p.i.q.i.i.5.$X",
"E.q.p.q.q.t.t.0.t.t.t.+.^ 0.a.4.5.3.` b b b ` @.@.R b b R +.@.6.#.@.+.` _ 6.t.t.q.i.q.q.t.t.q.i.5.+X",
"^.6.y.q.q.q.t.q.u.t.+.~ t.y.@.@.#.@.e.^ U W 6.6.5...U I ` 3.3...o.+.+. ./ ` @.a.t.e.t.t.t.0.t.p.5.#X",
"E.+.6.q.q.6.q.0.@.+.W q.t.+.+.+.@.+.+.6.6.+...` ....+.6.<.` ....+. .`  . .^  .@.8.0.t.@.6.4.4.6.O.+X",
"T.+.5.4.4.5.7.4.+.~ @.a.@.+.+.` +.+. .+.` ..` ..+...` ` +.` +.` +. .+.+.+.) ~ ) @.0.@.@.4.6.4.6.) OX",
"R.3.0.6.4.t.0...^ #.T.@.+.@.+. .`  .+.` +.+.+...+.3.+.+.3...3.+. .+.+.+.+. . .^ ` 6.6.6.6.t.0.6.O.+X",
"!.6.0.t.0.0.+.~ +.p.+.@.+.@.@.@.+.+.+.@.+.+.4.+.+.+.+.3.+.@.+.4.@.+.+.+.+.@.@.o.~ ` 6.0.0.e.0.t.#.@X",
"E.3.q.0.0.+.W 3.y.+.@.+.+.+.+.@.+.+.+.+.4.+.+.+.+.@.+.+.+.+.+.+.@.+.+.+.+.+.+.+...~ ` 6.q.0.0.0.O.+X",
"E.3.0.0...W 6.0.@.@.@.+.+.+.@.o.+.+.+.+.+...+...+.+...+.+.+.+.+.+...+.+.+.+.@.@.+.{ ^ _ @.t.6.t.O.+X",
"E.3.7.` ~ 4.q.4.o.+.+.o.+.+.o.@.+.+.+...+.+.+.+.+...+...+...+.+.+.+.+.+.+.+.o.@.+.+. .~ { @.0.0.O.#X",
"E.#...W o.@.@.+.+.@.+.+.@.@.@.@.+.+.+.+.+.+.+.@.+.+.+...+.+.+.+.@.@.o.@.o.@.o.@.+.+.+. .^ / @.q.O.+X",
"R.` ( ` y.@.@.@.o.o.+.o. .o.o...+...+...@. . .@.....+...+. .+. .o. ...@...o...@. .+. .+.` ^  .0.o.'.",
"9.U ..t. .( .... . ... . . ... .( (  .` ^ ` ` (  . .`  .+. . . .`  . . .(  ... .(  .( (  .` W ( P ~.",
"9.U ( 0. .( ( ( ( ( ( ( ( (  . .(  . . . . .^ `  ... .( ` { ( ` ( (  .( (  .` ( `  .+.( ` ( ^ ^ L ~.",
"R.~ ^  .+.`  . . . . . . . . . .o...o. ..... . . ... . .{  . . . . . . . . . . . . ... .` W ( q.) ~.",
"R.+. .W (  ...o...o... .@. ...........+.........+. .+..... . .+. ........... ...o...+. .^ ( @.L.O.oX",
"R.#.@. .W `  . .o. ..... ... . . .|  ... ... ... . . ... ..... ..... ... ... . . . . .W ^ @.y.@.o.OX",
"U.+.@.@.^ W ^ o. . . ... . ... ... . ... . . . . ... ...{ ..{ .. ... . ... . .@. . .W W @.t.@.8.o.oX",
"E.@.@.t.@.^ W ^  ... .{  .{  . . . . . . .{  . . . . . .{  .{  .{  . . . . . . . .~ W 0.t.@.@.8.3.'.",
"R.@.@.@.@.@.^ W ^  . . .{  .{ { (  .( {  . .{ { { { {  .{  . .{  .{ { {  .`  .( W W @.0.0.@.8.8._ +X",
"R.+.@.@.@.@.@.( E ^  .{ ` { { {  .(  . .(  . . . .{  . . . .{ { { {  .{  . .( Q Q @.0.8.6.@.@.@._ +X",
"R.+.L.@.@.@.@...^ W ~ (  .{ { { { ( { { ( { { ( ( { { ^ ( { (  .{ { { { ( ( W E } q.@.@.@.#.%.@.` '.",
"U.o.+.+.@.@.@.@...W E ^ ( ^ ~ ~ Q ^ ( ^ ^ ^ ( ( ^ ( ^ Q ~ ( ( { ^ { ^ ~ _ W T ..q.@.@.@.@.@.@.@.) +X",
"L.^  .( ( ........{ W E W Q ( ( ^ ^ ^ Q Q ^ Q ^ Q ^ ^ ^ Q Q ( ~ Q ^ ^ ^ Q T ..8. ..... . .|  .| U '.",
"U. .| @.X... ...@.@...E Y W ( ( ( ( ( ( ^ ^ ^ ^ W ^ ^ ( ^ ^ Q Q ^ { ^ W I X.4.....X.@. . . . .@./ '.",
"R. .@.@.X.@.X.@.@.@.@...W Y ~ ( ( ( ( ( ( ^ { ^ ^ ^ ( ( { ^ ^ ^ ^ ^ W Y ..4.3...X.@.@.....@.X.@.) OX",
"U. .@.@.@.@.X.@.<...<...( W I ~ ( ( Q { ( { ( ( { ( ( ( ( ( ( ( ! W I ` 8.<.<...<.<...X.4.<.<.<.) '.",
"U.o.@.X.X.X.X.X.X.<.<.<.<...T T Q ! { Q ! ! ( ( ! ( ( ( ] ( ( ! T T ( 0.<.<.<.} ..<...X.X.<...<.) '.",
"U. .@...X.X.X.X...X.X.<.X.X.} I Y Q ! { ( ! ( Q ( ! ! ! ! ( ! R T ( <.<.<.<...<.<...X.X.X.X.X.X._ '.",
"U. .@...| X.X.X.X.X.X...X.X...} Y Y Q ! ( ! ] ! ! ( ( ! ^ ! E I ! 4.<.<.<.} ..<...X.X.X...X.X.<.~ '.",
"Y.( X...X.X...X...<.X.X...X.X.X.{ I c Q ! ! ! ! ! ! ! Q ! E c { <.<.<.( <.` } <.X.} X.X.| X...X._ '.",
"P.{ X.{ | ..{ | } } } ..} } } } | { Y Y Q ! ! Q ! R ! Q R m { X.<.( } <.} <.} ..} <.} } X.| } <.~ '.",
"P.W { ] | | { ! ! ] } } ! ! | } } | Q M I T T T T T Q Y I ] X.| } <.<.] ( } } } } ..} } { { -.<.U `.",
"L.W ! Q ( { ! ! ! ! ! } ! ! { ! ( ( { Q m I T T T T I I R <.{ { ! ! ! ! ( ! } } ! ] ( ( { { ] <.P `.",
"L.( } ( } } ( } ! ! ( ` <.( ( <.! ! ] ( ! m m Q Q Y m T <.} } ( ! ] } ( ( <.( ( ( ! ! ! ! ! ! ! U '.",
"P.( | } } } <.} ] <.} } } ] ( <.<.` <.<.<.! m T M m ! <.X.X.X.} <.} } } } } <.] <.<.( <.<.] ] <.Q '.",
"L.U ! ! ! ! ! ! ! ! ! ! ! ! ! ! ! ! Q ! T ! U y y Y ( ( ! W ! ! ! ( ! ! ! ! ! ! T ! ! ! ! ! ! ! P `.",
"~.P.Y.I.I.I.I.I.I.I.I.I.I.I.I.I.I.I.I.I.I.I.I.1.1.I.R.I.I.I.I.I.I.I.I.I.U.I.I.I.I.I.I.I.I.I.I.I.9.%X"
};
