/* XPM */
static char *result[] = {
/* columns rows colors chars-per-pixel */
"100 50 200 2 ",
"   c #000001",
".  c #05070A",
"X  c #06080A",
"o  c #0C0C0C",
"O  c #10100E",
"+  c #0B0E13",
"@  c #001717",
"#  c #0C1015",
"$  c #001B1B",
"%  c #131312",
"&  c #13161C",
"*  c #1B1B1A",
"=  c #171D24",
"-  c #0B262A",
";  c #002E2E",
":  c #1D2124",
">  c #1A2129",
",  c #1F2A36",
"<  c #003232",
"1  c #003F3F",
"2  c #13363A",
"3  c #242424",
"4  c #24242E",
"5  c #2D2D2B",
"6  c #232E3C",
"7  c #362835",
"8  c #2B313A",
"9  c #353533",
"0  c #3C323B",
"q  c #3D3D3C",
"w  c #173D44",
"e  c #263343",
"r  c #2B3746",
"t  c #2D3A4C",
"y  c #3D3D44",
"u  c #2E3E52",
"i  c #343D51",
"p  c #4B3A4B",
"a  c #004545",
"s  c #0E4C4C",
"d  c #124C4D",
"f  c #194D57",
"g  c #3F4447",
"h  c #254654",
"j  c #334152",
"k  c #34465B",
"l  c #38475A",
"z  c #344A62",
"x  c #3A4D64",
"c  c #364E68",
"v  c #355367",
"b  c #3E526B",
"n  c #3F5670",
"m  c #006B6B",
"M  c #10626A",
"N  c #007373",
"B  c #007C7C",
"V  c #454543",
"C  c #4A4B4B",
"Z  c #54544E",
"A  c #464759",
"S  c #574956",
"D  c #4B535A",
"F  c #555554",
"G  c #5D5D57",
"H  c #5D5D59",
"J  c #60605B",
"K  c #41536B",
"L  c #48586A",
"P  c #445972",
"I  c #435974",
"U  c #435D7D",
"Y  c #495E7A",
"T  c #604A64",
"R  c #5C6062",
"E  c #47607C",
"W  c #4A627D",
"Q  c #586676",
"!  c #616161",
"~  c #656765",
"^  c #6C6D6A",
"/  c #76766F",
"(  c #616A76",
")  c #776774",
"_  c #6A717B",
"`  c #717270",
"'  c #7B7B74",
"]  c #7E7E79",
"[  c #83837E",
"{  c #455F80",
"}  c #466283",
"|  c #4A6585",
" . c #4E6885",
".. c #476489",
"X. c #4A668B",
"o. c #4D6A8D",
"O. c #516A86",
"+. c #526D8D",
"@. c #53708F",
"#. c #5A728D",
"$. c #4E6C92",
"%. c #516E92",
"&. c #557294",
"*. c #5B7696",
"=. c #5C7896",
"-. c #55749A",
";. c #59769C",
":. c #5C799C",
">. c #616F82",
",. c #637286",
"<. c #627790",
"1. c #607D9E",
"2. c #5677A0",
"3. c #5778A2",
"4. c #5C7CA2",
"5. c #5E7FA8",
"6. c #617EA2",
"7. c #825F82",
"8. c #856385",
"9. c #8F688F",
"0. c #987797",
"q. c #088181",
"w. c #008B8B",
"e. c #039798",
"r. c #36898B",
"t. c #00A0A0",
"y. c #00AAAA",
"u. c #18A2A2",
"i. c #00B6B6",
"p. c #00B9B9",
"a. c #548282",
"s. c #5F80A6",
"d. c #5F80A9",
"f. c #6481A6",
"g. c #6383AB",
"h. c #6985AB",
"j. c #6788AE",
"k. c #6988AF",
"l. c #6687B0",
"z. c #6788B1",
"x. c #6C8CB4",
"c. c #6E8FB8",
"v. c #708FB6",
"b. c #708FB8",
"n. c #6F90B9",
"m. c #7090B7",
"M. c #7293BB",
"N. c #7898BF",
"B. c #7697C2",
"V. c #7798C3",
"C. c #799AC4",
"Z. c #7F9FCA",
"A. c #00C1C1",
"S. c #00C9C9",
"D. c #00D9D9",
"F. c #00F4F4",
"G. c #00F8F8",
"H. c #868681",
"J. c #8F8F87",
"K. c #919189",
"L. c #989695",
"P. c #9B9B92",
"I. c #A2A29A",
"U. c #ABAB9F",
"Y. c #B083B0",
"T. c #BA90BA",
"R. c #AAAAA2",
"E. c #ABABA9",
"W. c #B0B0A6",
"Q. c #B4B4AC",
"!. c #BABAAE",
"~. c gray75",
"^. c #C0C0B7",
"/. c #C4C4BA",
"(. c #C9C9BC",
"). c #81A2CB",
"_. c #CE98CE",
"`. c #D49CD4",
"'. c #D7A6D6",
"]. c #D9A3D9",
"[. c #E5AFE4",
"{. c #E8B4E8",
"}. c #F7BFF7",
"|. c #CCCCC3",
" X c #CCCCCA",
".X c #D3D3C9",
"XX c #D7D7CB",
"oX c #DCDCD1",
"OX c #D8D8D8",
"+X c #E6CEDD",
"@X c #E2E2D5",
"#X c #E4E4D8",
"$X c #E9E9DB",
"%X c #F8C0F8",
"&X c #F8D5F2",
"*X c #EEEEE0",
"=X c #ECECEB",
"-X c #F4F4E4",
";X c #F8F8E8",
":X c #F7F7F6",
/* pixels */
"B.V.C.V.V.B.V.V.V.V.V.V.V.V.V.V.V.B.V.V.B.B.V.l.3.d.Z.V.V.V.C.B.V.B.V.V.V.V.V.V.V.V.B.V.V.V.V.V.V.V.V.C.V.V.V.V.V.V.V.V.V.V.V.V.B.V.V.V.V.B.V.B.c.2.2.C.V.B.V.V.V.V.V.V.V.V.V.V.C.B.B.B.C.V.C.V.V.V.V.V.",
"B.B.B.V.B.V.B.B.V.V.V.V.B.V.B.V.B.B.V.B.B.B.n.d.3.3.B.V.B.V.V.B.V.B.V.B.B.B.B.V.B.B.V.B.B.V.V.V.B.B.B.B.B.B.B.B.V.V.B.V.B.B.B.V.B.B.B.B.V.B.B.B.z.2.3.c.B.B.B.B.V.V.V.V.B.B.V.B.V.B.B.B.B.B.B.B.B.B.B.B.",
"B.B.B.B.V.V.B.B.B.B.B.B.V.B.V.B.B.B.B.B.V.B.3.3.3.3.n 3.B.M.B.V.B.B.B.B.B.B.B.V.B.V.B.B.B.V.V.C.V.V.B.B.V.B.V.V.B.V.B.V.B.B.B.B.V.V.B.B.B.V.B.l.3.5.3.3.z.B.B.B.B.B.B.V.B.B.B.B.C.B.V.C.B.B.B.C.V.V.V.V.",
"M.M.B.M.M.M.B.B.M.B.B.M.B.M.B.M.B.M.B.B.n.3.3.B.C.l., r 6.x.c.M.c.M.B.M.M.c.M.B.B.B.M.B.B.M.B.M.B.B.M.M.M.M.B.M.B.M.B.M.M.B.M.B.M.B.M.B.M.n.d.3.d.Z.z.3.3.d.z.n.n.n.n.B.B.M.n.n.M.B.B.B.M.B.B.M.B.B.M.B.",
"z.z.l.z.c.c.c.x.z.z.x.M.M.B.M.n.c.c.c.z.4.3.C.n.z.z.e 3 D %.c.x.x.c.c.c.c.z.c.x.n.n.z.z.n.x.x.x.z.z.z.l.z.x.c.n.c.z.z.x.n.B.M.M.n.n.n.c.x.5.3.x.C.z.l.d.3.3.3.n.c.c.x.n.c.n.x.c.n.n.n.z.z.x.v.x.z.z.z.z.",
"c.c.c.x.z.x.n.c.x.z.x.c.n.c.n.n.c.c.z.4.3.n.n.x.l.%.6 X X e l.n.c.M.c.c.x.x.n.c.n.n.z.x.n.M.x.k.x.x.n.n.z.x.x.n.c.c.z.z.c.n.c.n.n.c.x.c.5.3.z.n.n.z.l.z.l.3.2.5.c.n.n.n.n.z.z.c.n.M.n.z.z.v.n.M.x.x.x.n.",
"M.M.M.c.c.c.c.n.n.n.n.n.c.n.n.M.M.x.5.3.z.V.j.g.g.e y 9 t 2.3.l.6.B.B.c.c.c.B.M.M.M.n.n.M.M.M.M.n.M.B.M.n.n.n.n.n.n.c.c.c.c.n.n.B.n.n.d.2.g.B.x.d.z.l.l.l.d.5.2.g.c.B.M.B.n.n.M.M.M.M.n.n.n.N.M.n.n.M.V.",
"M.M.M.M.M.B.M.M.n.B.M.M.n.B.M.M.c.4.2.l.C.j.g.-.( 1.t l g.5.2.X.  6.M.M.B.M.M.M.M.M.M.M.M.M.M.M.M.M.M.M.M.n.M.M.M.M.B.M.M.M.M.M.n.c.l.-.5.B.z.l.l.d.d.d.l.d.d.2.2.l.n.M.n.M.M.M.M.M.M.M.M.M.M.M.M.M.M.M.",
"m.M.M.M.M.M.M.M.M.M.M.M.M.M.M.n.3.-.z.B.d.g.g.+ } g.g.g.g.g.5.X.    6.M.M.M.M.M.M.M.M.M.M.M.m.M.m.N.m.M.M.M.M.m.M.M.M.m.M.M.M.M.n.d.2.4.C.z.l.d.l.d.d.l.d.l.g.d.-.2.l.c.M.M.B.M.M.M.M.M.M.M.m.M.m.M.M.M.",
"M.M.m.M.m.m.M.n.M.n.M.n.n.M.n.4.-.z.B.l.l.d.  F 1.g.d.g.<.! V         +.n.M.M.n.n.n.m.m.m.M.m.m.m.m.M.M.m.M.m.M.n.n.m.M.M.m.m.M.5.2.d.B.z.g.d.d.d.l.g.d.g.d.l.g.5.3.3.d.n.n.M.c.M.c.n.n.M.M.M.m.m.m.m.M.",
"m.m.m.m.M.m.n.n.m.M.v.n.B.z.4.2.c.c.z.g.d.l.  -.g.g.e   3 Q g.&.    o.l.M.M.M.n.M.m.m.m.M.M.M.n.m.m.M.m.m.m.n.m.n.m.M.n.n.M.n.s.-.g.c.z.g.g.d.l.d.g.d.l.d.g.g.g.d.5.3.2.d.n.n.M.n.n.M.v.n.M.M.v.M.m.M.n.",
"m.m.m.m.m.m.v.v.v.v.v.n.z.4.2.l.M.z.d.d.d.d.  &.5., q Q :.6.g.-.  $.;.3.z.n.n.M.m.m.m.m.n.v.v.v.m.m.m.m.m.m.m.n.n.n.m.m.M.M.d.-.d.x.c.g.d.d.d.g.d.d.g.d.d.d.d.d.d.g.5.2.2.g.n.n.n.v.M.v.n.v.v.v.m.m.n.n.",
"m.m.m.v.v.v.v.v.v.n.n.x.5.2.5.B.j.d.d.d.-.#   # + X b f.g.d.d.d.-.6.3.;.3.c.n.n.m.v.v.v.v.v.v.v.m.m.m.m.n.v.v.m.m.n.c.n.x.l.-.3.M.c.d.d.d.g.g.d.g.g.d.d.d.g.g.g.d.g.g.4.2.;.z.n.v.v.v.v.v.m.v.v.m.v.m.m.",
"m.m.v.v.v.v.x.v.v.x.x.3.-.d.N.d.d.s.E > 4 !.  P.!.5 & b s.g.g.s.5.5.f.3.-.;.x.x.v.v.v.x.v.m.x.v.m.m.m.m.x.v.v.x.x.c.x.x.s.2.2.V.j.s.d.s.d.s.d.d.d.d.d.d.f.s.d.d.d.d.s.d.4.-.-.d.c.v.x.c.x.c.v.v.v.m.v.v.",
"v.x.v.v.c.x.x.x.x.v.;.-.g.M.d.s.f.E C !.!.q   q q +   j g.4.4.4.3.3.:.3.-.-.-.g.v.c.x.c.c.x.x.x.x.v.v.v.x.v.v.x.x.m.x.s.-.:.M.j.d.g.s.s.f.s.s.s.s.s.s.4.5.s.s.4.5.4.3.3.3.3.-.-.6.x.c.c.x.m.x.x.x.x.x.v.",
"f.h.h.j.j.j.j.j.j.3.&.j.z.f.4.c 6 > : G Z q q q q q % = x 3.:.3.4.:.3.;.3.-.-.2.f.j.j.j.h.g.h.g.f.j.f.h.j.j.j.j.j.j.s.-.s.c.d.:.4.4.4.4.4.s.4.:.4.3.4.4.:.3.3.3.:.3.:.;.3.;.-.-.-.5.j.h.j.h.h.g.j.f.j.f.",
"s.j.h.f.j.j.j.j.3.-.d.x.j.e , ^ P.P.K.H . 3 ! ! ! ! V q 8 u ;.3.;.3.3.:.3.-.2.%.;.5.l.j.6.g.g.6.f.s.j.j.g.g.j.j.j.4.-.s.j.z.4.4.:.3.3.:.3.3.3.:.;.:.4.3.:.;.4.;.4.4.2.:.3.2.2.-.-.-.5.5.).5.5.6.j.s.f.j.",
"j.j.x.j.j.j.j.:.-.:.n.j.k ` ' (.;X;X-X(./ ~ 9 5 F ! ! ! Z 8 c s.4.;.4.4.s.3.-.&.%.;.j.l.k.k.v.x.j.j.j.j.j.j.j.j.g.&.;.z.x.4.4.s.3.:.3.:.3.:.5.:.3.3.4.s.4.4.4.3.5.3.;.3.6.6.3.2.2.-.;.5.6.5.5.).x.j.j.j.",
"x.x.x.x.z.j.;.$.:.M.d.j ` $X;X;X;X;X;X;X;X#X~ O V ! ! ! C 3 # k s.4.s.s.s.4.s.s.-.-.-.l.x.x.x.x.x.x.x.j.x.x.z.d.%.-.n.j.4.s.s.4.6.5.5.6.5.4.4.s.4.s.5.4.s.4.4.5.4.6.6.5.6.5.6.5.3.3.%.%.6.b.5.5.j.k.x.x.",
"x.j.j.k.x.2.-.s.v.f.<.G $X;X;X;X;X;X;X;X;X;X|.* 5 q q q 0 9 9 9 c v -.4.4.s.s.4.3.2.$.-.h.z.x.z.k.j.x.k.x.x.s.%.-.x.d.s.5.s.4.4.4.4.4.4.4.4.s.4.4.4.4.4.4.4.4.4.5.4.4.5.4.4.4.6.6.6.6.%.-.6.).5.k.x.k.k.",
"x.j.j.z.-.%.d.z.g.*.V ;X;XU.P.P.P.!.;X;X;X;X@XH F G G G ' R.P.H.9 9 l b +.:.s.4.4.3.;.%.-.5.x.x.k.x.j.k.k.s.-.-.x.g.s.4.4.4.4.4.4.4.4.4.4.4.4.4.4.4.4.:.4.4.4.4.4.4.:.4.4.4.4.3.3.6.3.3.$.-.4.5.k.k.k.j.",
"j.z.j.;.%.s.j.j.4.o.  ;X(.7 7 7 7 ) (.;X;X;X-X@X-X;X;X;X$XoX XR.I.I.q 9 L o.4.4.4.4.5.-.%.3.6.x.k.j.x.j.s.%.:.g.j.4.4.4.:.4.4.4.4.4.4.4.4.4.4.4.4.4.4.4.4.4.4.4.3.4.4.4.6.6.4.4.6.3.4.6.3.$.-.4.x.j.x.k.",
"j.j.s.$.;.x.s.3.4.+.  XXp _.].].`.9.) (.;X;X;X;X;X;X;X;X;X;X;X-XXXoXoXoX^ L o.4.4.3.4.3.-.$.3.5.k.k.j.f.$.-.g.z.:.4.4.3.4.4.4.4.4.4.4.3.4.4.3.4.4.4.4.4.4.4.3.4.4.4.4.4.2.2.4.2.6.2.4.4.4.-.-.%.f.j.z.j.",
"j.4.$.-.M.d.:.:.:.o.  ` {.%X%X%X[.`.,.q ;X;X;X;X;X-X-X$X$X*X;X;X;X;X;X;X@XJ l &.4.:.4.;.3.&.$.-.j.k.g.$.%.z.j.4.3.:.:.4.4.:.3.:.:.4.4.4.:.:.4.;.:.:.3.4.3.:.6.:.4.:.3.:.6.2.6.6.2.6.2.2.3.3.-.$.%.g.j.:.",
"$.$.;.c.;.-.;.-.-...  ) {.%X%X%X}.{.7.q ;X;X;X;X;XoXU.J.K.P.oX;X;X;X;X;X;X;X' 6 ;.;.&.;.-.;.-.$.$.%.%.$.b.6.-.;.:.-.-.;.;.-.-.;.3.:.-.-.-.-.-.-.-.-.-.-.-.-.;.-.:.;.-.-.;.2.-.;.4.;.-.-.-.-.-.;.$.$.%.$.",
"$.o.-.j.-.-.-.-.-...    '.%X%X%X}.{.7.q ;X;X;X;XoXI.K.J.K.J.I.XX;X;X;X;X;X;X#XR._ ;.;.;.%.-.%.$.$.X.$.$.5.;.-.-.-.-.-.-.-.-.-.-.-.-.-.;.;.-.;.-.$.-.;.;.;.-.;.-.-.-.-.-.-.%.-.-.-.-.-.;.;.-.-.-.$.o.$.$.",
"4.-.%.:.-.-.-.-.I % K.K.O ].%X}.}.&X;X;X;X;X;X;XH.! ! ' J.K.J.P.;X;X;X;X;X;X;XP.= 2.;.6.;.-.$.$.5.6.;.$.6.-.-.-.-.-.-.;.;.-.-.-.;.-.;.:.:.;.;.;.;.;.:.:.;.-.;.;.-.;.;.;.;.;.-.-.;.;.;.4.;.;.-.$.o.s.s.%.",
"k.4.%.$.;.;.-.K p Q.(.|.! L.0 * S U.;X;X;X;X;X;XH. X XK.~ ~ ~ ' ;X;X;X;X;X;X;X$XQ._ ;.2.-.$.$.6.).5.5.-.$.-.;.;.:.;.;.;.2.;.;.-.;.:.3.:.3.:.3.;.:.3.3.:.3.;.;.;.;.;.;.;.;.;.;.-.;.;.;.;.;.;.%.$.-.v.j.s.",
"h.6.6.&.e + # o 3 P.P.P.!.5 P.|.@X*X;X;X;X;X;X;XV ~.:X=XL.C E.5 ;X;X;X;X;X;X;X;X!.= 1.;.%.&.6.N.6.5.5.0.-.$.-.;.;.;.2.:.2.:.:.;.:.;.;.3.3.;.;.:.3.:.:.;.:.;.:.3.:.3.;.:.2.:.:.;.;.;.;.4.:.%.$.-.M.h.h.h.",
"6.k.6.t T 0.T.,.. 5 K.^.C [ XX;X;X;X;X;X;X;X;X;XQ.F E.:XOXI.H (.;X;X;X;X;X;X;X;X!.+ -.X.$.6.v.h.6.6.5.B.5.;.X.$.;.;.;.:.;.;.;.;.;.;.;.;.:.;.;.:.;.;.;.-.;.;.;.;.-.;.;.;.;.;.;.;.;.;.;.;.%.X.:.b.h.h.h.h.",
"h.h.6.O.T 9.].8.5 W.3 ' V oX-X;X;X;X;X;X;X;X;X;X*XQ.^ q y H (.;X;X;X;X;X;X;X$XI.5 O %.$.6.v.h.6.h.5.5.5.5.6.&.X.%.;.;.;.*.;.;.;.=.;.=.-.-.-.=.-.;.=.-.=.-.=.;.=.=.;.-.=.;.;.-.=.;.;.;.%.$.6.6.v.f.f.f.f.",
"6.h.h.g...p p S / .XP.^.^ #X;X;X;X;X;X;X$XG I.I.I.R.P.P.P.R.;X;X;X;X;X;X;X-X-X(.T + %.6.v.5.6.h.6.6.k.5.6.6.6.;.X.$.-.-.-.-.;.-.-.-.-.-.-.=.-.-.-.-.-.-.-.-.-.-.-.-.*.-.-.-.-.-.;.-.$.$.6.5.v.x.f.f.f.f.",
"6.h.6.h.6.O.8 9 K.R.oX;X(.*X;X;X;X;X;X;X$XP./././.|.$X;X;X;X;X;X;X;X;X;X;X;X;XQ.D z 1.k.6.h.6.6.I e 8 j _ 6.h.6.-.o.$.-.-.&.;.-.*.-.-.*.-.-.-.-.*.-.*.-.;.&.;.-.;.&.;.&.;.;.&.;.&.%.X.;.6.h.6.6.f.f.f.f.",
"h.6.6.6.f.6.K 9 K.K.Q.#X-X;X;X;X;X;X;X;X;X;X;X$X^.Q..X*X;X;X;X;X;X;X;X;X;X;X$XK.= 1.h.6.6.A u i f m B q.r.>.,.6.6.$.$.%.&.-.;.&.-.-.-.-.&.-.-.-.-.-.%.-.;.&.&.;.&.;.-.;.;.&.-.&.%.X.&.k.h.6.6.6.6.f.6.f.",
"6.6.6.6.6.6.x 9 K.P./.#X;X;X;X;X;X;X;X;X;X;X' P.W.Q..X*X;X;X;X;X;X;X;X;X;X;XW.F K h.f.6.u M m B y.y.B q.r.>.>.6.6.6.X...$.&.&.%.%.%.%.%.%.%.%.%.-.%.%.*.%.%.%.&.-.;.&.&.-.%.&.$.X.&.k.6.6.6.6.6.6.f.1.6.",
"-.1.-.*.;.6.K 9 P.Q.;X;X;X;X;X;X;X;X;X;X*X/.J L.@X;X;X;X;X;X;X;X;X;X;X;X*X!.R K 6.6.*.x a A.D.i.e.M 6 r Q ;.:.1.4.6.;.o.X.X.$.$.%.%.%.%.%.+.%.%.%.%.%.%.%.$.$.$.%.%.%.%.%.o.$.X.1.6.6.:.6.6.;.;.;.*.*.*.",
"1.1.;.;.:.;.z 9 K.^.$X;X;X;X;X;X;X;X;X;X*XR.-X;X;X;X;X;X;X;X;X;X;X;X;XXXP.D P f.:.:.+.  i.F.w.f 8 t z z b ,.;.;.;.6.6.=.%.X.X.$.&.-.%.%.&.%.%.$.%.o.o.%.%.%.%.$.%.%.%.%.%.X.X.;.f.6.:.1.6.:.;.:.;.:.:.:.",
"6.6.6.6.6.:.x 9 K.P.^.*X;X;X;X;X;X;X;X;X;X;X;X;X;X;X-X-X;X;X;X;X*X*X/.] 8 I h.1.:.:.+.  i.F.1 j Y h < w s a.<.#.:.6.6.6.;.$...o.&.&.%.-.-.&.%.$.%.%.%.&.&.&.%.%.%.%.%.%.X...;.6.f.:.:.6.6.4.;.=.:.6.6.6.",
"6.6.6.6.6.f.K g ' K.R.oX-X;X;X;X;X;X;X;X;X*X;X;X;X;XoX@X*X*X@XQ.P.P.O & P h.6.*.Y Y b   S.F.m 1 w q.S.p.i.u.Q ( 6.6.6.6.6.;.X...$.&.&.&.&.&.&.-.&.&.%.&.&.&.&.&.%.#.%.%...+.6.6.6.6.6.6.6.6.6.f.6.6.6.6.",
"6.1.1.6.6.1.1.x 3 P.-X-X;X;X;X;X;X;X;X;X*X|.-X;X;X;X@X/.Q.Q.P.* * *   l *.#.+.v @ @ @   G.G.D.D.D.D.e.+ * ~ 6.1.1.1.1.1.6.6.6.X.} o.%.&.%.&.%.&.&.&.&.&.&.&.&.&.-.%.X...+.v.6.6.6.6.:.1.1.1.1.1.1.1.6.1.",
"1.1.1.1.1.1.&.l * H.|.-X-X;X;X;X;X;X;X;X$XP.Q.-X;X;X;X' X . 3 !.Q.!.* @ @ @ @ a t.t.w.  G.G.1 . # # 6 +.+.#.:.f.1.1.1.1.6.1.1.;.o.} o.&.&.&.&.@.&.+.&.%.&.$.&.&.%.X.| %.f.f.s.=.f.=.f.=.1.1.1.1.1.1.1.1.",
"1.1.1.1.:.1.x     % K..X-X;X;X;X;X;X;X;X-X X  XX;X;X;X' , n           w.p.p.p.N         G.G.1 x 1.1.x       :.:.1.1.1.1.1.1.1.1.=.o.} o.%.+.%.@.+.&.%.&.@.&.@.o.X.| %.6.f.<.=.f.=.s.=.f.1.6.:.1.:.1.1.1.",
";.1.1.1.1.1.x T %X].  J.$X;X;X-X;X-X$X.XQ.    Q.*X;X;X;XP.  ; p.p.p.p.;       6 1.:.+.  p.F.S.a     a S.G.G.J   O.6.6.1.:.6.1.1.:.-.o.} o.%.+.@.%.%.&.+.@.o.@.o...#.1.6.:.f.:.:.:.=.=.s.:.:.=.s.1.1.1.:.",
"1.*.*.:.:.1.l p _.Y.    ' K.^..X.X[             !.;X;X;XP.; w.        I :.:.:.:.:.=.1.:.  t.p.D.G.G.G.p.    s.=.:.<.=.;.1.:.;.<.:.=.*.} E o.+.+.+.+.+.@.o.@.o.} | 1.1.1.*.s.:.=.f.s.=.=.1.:.a.=.;.:.=.:.",
"=.=.*.*.=.1.l o * 4  .O.: % % * * o   < t.t.t.t.- (.;X+X`.0.2 #.O.O. .@.=.:.*.=.=.:.*.=. .- @ $ $ $ $ d W O.s.=.*.*.*.*.*.*.&.;.s.=.a.;.} } o.$.+.o.o.o.+.o.}  .6.1.=.:.=.=.=.=.*.=.=.s.=.=.s.*.=.=.*.:.",
"&.+.o.@.&.&. .Y W E &.&.W W % m t.t.t.N $ $ @ @ v 4 0.[.}.T.= *.&.-.&.@.@.&.*.=.=.*.*.*.=.|  . .O.| Y Y +.&.@.@.o.@.o.@.&.&.+.&.@.&.=.-.@.E U } | | | | } } } f.1.*.&.%.-.+.*.@.*.=.&.*.&.*.-.*.=.=.&.O.",
"*.&.*.@.-.-.*.*.&.@.@.*.=.*.D w ; ; ; 2 P k z z } K i 0 0 p { 1.&.&.*.*.&.*.=.*.*.@.@.@.*.@.+.@.&.@.*.&.&.&.*.-.*.&.@.&.-.*.*.&.-.*.&.&.a.2.} } } +.o.} { X.1.1.*.*.%.*.*.&.*.-.*.*.@.@.@.@.@.+.&.&.&.*.",
"*.=.*.-.=.=.=.=.@.*.*.-.=.-.#.W P P P W *.o.} } } ..x K Y } *.*.=.*.*.*.*.=.=.-.*.*.-.@.-.@.&.*.*.-.=.=.*.*.=.*.*.*.*.&.*.=.<.&.=.=.&.*.;.-.@.| E } } } O.=.1.;.*.*.*.*.*.*.*.*.=.*.*.&.&.*.&.*.&.&.*.*.",
"=.*.=.=.*.=.=.=.*.=.*.=.=.=.=.=.*.*.*.=.=.:.| } U { O.6.1.*.*.1.=.=.=.<.*.*.=.=.=.=.=.<.=.=.=.<.*.*.*.*.=.=.=.=.*.*.=.*.=.*.*.=.=.=.=.=.=.*.=.+.| U { | *.1.<.*.=.=.=.<.=.=.=.=.*.*.=.=.=.<.=.=.*.*.*.*.",
"=.=.*.=.*.*.*.*.*.*.=.=.=.=.=.=.*.*.<.=.=.*.=.| U | 1.1.*.<.*.*.*.=.=.*.*.*.*.=.=.=.=.*.=.*.*.*.*.*.*.*.*.<.*.*.=.<.=.=.*.*.*.*.*.*.=.*.*.*.#.1.@.U U 1.1.=.*.*.*.*.=.*.*.*.*.=.<.=.*.*.=.*.*.*.*.*.*.*."
};
