/* XPM */
static char *result[] = {
/* columns rows colors chars-per-pixel */
"50 100 231 2 ",
"   c #000000",
".  c #0C0000",
"X  c #03070A",
"o  c #130100",
"O  c #1C0000",
"+  c #1A0506",
"@  c #100E17",
"#  c #250000",
"$  c #2D190C",
"%  c #002F1D",
"&  c #2E230C",
"*  c #3A2619",
"=  c #08092A",
"-  c #30092F",
";  c #33023B",
":  c #133136",
">  c #2A2829",
",  c #2A2E33",
"<  c #393935",
"1  c #47342D",
"2  c #483635",
"3  c #48453D",
"4  c #001951",
"5  c #0A2D4E",
"6  c #183555",
"7  c #283549",
"8  c #353B47",
"9  c #303653",
"0  c #1E3D61",
"q  c #513D57",
"w  c #394549",
"e  c #27504F",
"r  c #274559",
"t  c #364457",
"y  c #2F4C65",
"u  c #3A4D68",
"i  c #395776",
"p  c #006766",
"a  c #317476",
"s  c #484847",
"d  c #4F4B4C",
"f  c #4D4D4C",
"g  c #57544B",
"h  c #5F5249",
"j  c #585857",
"k  c #605A4E",
"l  c #615D56",
"z  c #63655A",
"x  c #47566A",
"c  c #545C6A",
"v  c #475A76",
"b  c #685766",
"n  c #755975",
"m  c #5E636B",
"M  c #4C617E",
"N  c #566379",
"B  c #666562",
"V  c #6B6B65",
"C  c #62666D",
"Z  c #6D6D6B",
"A  c #75746A",
"S  c #74746D",
"D  c #686A78",
"F  c #7D627B",
"G  c #6F7174",
"H  c #737474",
"J  c #7B7B75",
"K  c #70747D",
"L  c #7D7E7B",
"P  c #807F74",
"I  c #848377",
"U  c #83837D",
"Y  c #8A907D",
"T  c #3F5C85",
"R  c #415D86",
"E  c #4D6383",
"W  c #496489",
"Q  c #516583",
"!  c #556986",
"~  c #5D6D84",
"^  c #516689",
"/  c #556B8C",
"(  c #596E8D",
")  c #5B708E",
"_  c #4C6B97",
"`  c #566D91",
"'  c #596F91",
"]  c #537090",
"[  c #5D7294",
"{  c #5E759A",
"}  c #5F789E",
"|  c #636C84",
" . c #7E6383",
".. c #697488",
"X. c #747B8A",
"o. c #617695",
"O. c #657996",
"+. c #6A7A94",
"@. c #617699",
"#. c #647A9C",
"$. c #697E9D",
"%. c #5F79A1",
"&. c #657DA2",
"*. c #697EA1",
"=. c #907394",
"-. c #A07FA0",
";. c #3E8385",
":. c #358E91",
">. c #388F91",
",. c #3C9697",
"<. c #418A8B",
"1. c #449395",
"2. c #479898",
"3. c #459A9C",
"4. c #4C9D9F",
"5. c #5B9295",
"6. c #698B96",
"7. c #6B809E",
"8. c #7D8799",
"9. c #52A19F",
"0. c #4E9EA0",
"q. c #589EA1",
"w. c #6581A6",
"e. c #6B81A5",
"r. c #6581A9",
"t. c #6C84AA",
"y. c #6F88AE",
"u. c #7185A5",
"i. c #7A89A2",
"p. c #7187AB",
"a. c #7289AD",
"s. c #6686B3",
"d. c #6E8AB2",
"f. c #6E8CB8",
"g. c #758DB2",
"h. c #788FB3",
"j. c #728EB9",
"k. c #7790B5",
"l. c #7991B6",
"z. c #7792BB",
"x. c #7C95BB",
"c. c #4EA9A9",
"v. c #53ACAF",
"b. c #58B7B8",
"n. c #7C98C2",
"m. c #5FC5C7",
"M. c #62C7C8",
"N. c #61CACB",
"B. c #65CFD1",
"V. c #67D5D7",
"C. c #6CDEE0",
"Z. c #6EE2E4",
"A. c #71E7E9",
"S. c #75EFF2",
"D. c #77F4F6",
"F. c #868783",
"G. c #8C8C85",
"H. c #8E8E88",
"J. c #908B8B",
"K. c #909086",
"L. c #93928B",
"P. c #958D92",
"I. c #9B9C96",
"U. c #9C9C94",
"Y. c #9FA294",
"T. c #A5A59C",
"R. c #A7AA9C",
"E. c #818EA4",
"W. c #808EA8",
"Q. c #8491A6",
"!. c #8994A7",
"~. c #8594AC",
"^. c #8A95A9",
"/. c #8E98AC",
"(. c #929DAE",
"). c #8696B1",
"_. c #8897B1",
"`. c #8A9AB5",
"'. c #8098BF",
"]. c #8D9DBA",
"[. c #929EB2",
"{. c #A88BAB",
"}. c #8FA0BD",
"|. c #95A0B5",
" X c #94A2BB",
".X c #9BA7BB",
"XX c #99A6BD",
"oX c #AAAAA4",
"OX c #B3B3AA",
"+X c #B9B9AC",
"@X c #A7AEBB",
"#X c #BBBBB3",
"$X c #BBBBB5",
"%X c #BFC0BA",
"&X c #C5C5B9",
"*X c #C4C4BC",
"=X c #849CC3",
"-X c #BA92C0",
";X c #93A5C3",
":X c #9DABC4",
">X c #99AAC8",
",X c #A0AFCA",
"<X c #A6B3CA",
"1X c #AEB9CD",
"2X c #B1BBCF",
"3X c #B2BDD1",
"4X c #C49CCB",
"5X c #D1AAD6",
"6X c #DCB3E2",
"7X c #E4BAEA",
"8X c #B9C3D6",
"9X c #C7C7C0",
"0X c #CCCCC3",
"qX c #D2D2C5",
"wX c #D5D5CA",
"eX c #DADACD",
"rX c #C1C9D8",
"tX c #DDDDD2",
"yX c #DFE0D8",
"uX c #E2E2D5",
"iX c #E5E5DA",
"pX c #EAEADD",
"aX c #EEC3F4",
"sX c #F4C9FA",
"dX c #EEEEE1",
"fX c #F5E9ED",
"gX c #F6F6E7",
"hX c #F7F7E8",
"jX c #F7F8E9",
"kX c #FAFAEB",
"lX c #FFFFF2",
/* pixels */
".XQ.^.!.^.!.!.!.!.!.!.!.!.!.!.!.!.!.!.!.^.!.^.8.8.Q./.!.^.!.!.!.!.!.!.!.!.!.!.!.Q.^.!.!.!.!.!.^.E.@X",
"8.^ [ ) ) ) ) ) ) ) ) ) ) ) ] ) ) ) ] ) ` ) Q i i E ' { ) ) ) ) ) ] ) ) ) ) ( ) ) ( ) [ ) ) ) [ E /.",
"Q.[ O.O.+.O.O.O.O.O.O.O.+.+.O.7.+.O.O.$.O.o.N E Q E ( $.7.O.$.O.O.O.O.O.O.O.O.O.O.6.O.O.O.O.o.+.) (.",
"Q.[ O.o.o.O.O.O.[ [ [ O.O.o.o.o.) o.o.O.) M E ! ( Q N ! 7.O.O.O.[ o.O.o.O.O.O.[ [ ..) ) ) / ) ) ] (.",
"i.! ) ) o.o.) ) ) ) [ [ ) ) ) o.) o.o.) M M Q ! ! ! M M ( 7.O.[ o.) [ ) ) o.o.O.[ [ o.o.o.o.+.#.W /.",
"!.] [ [ O.O.o.) o.) O.O.) [ O.+.O.$.~ M Q ! ( ! Q ! ( / N ) 7.O.o.O.O.o.O.o.O.O.[ O.O.O.o.o.O.$.! (.",
"Q.[ 7.O.6.O.O.O.o.O.#.O.O.O.6.O.O.) Q N ( ) ) ( ( ( ) ~ ! M [ 7.7.O.O.$.O.$.O.6.O.7.$.O.$.+.$.+.] |.",
"~.[ 7.O.o.O.$.$.O.7.$.O.$.$.O.O.o.E E ( ) ) ( ~ ) ) ( ) [ Q v [ 7.$.O.$.$.O.#.O.$.O.$.$.O.O.+.$.[ |.",
"~.@.$.$.$.$.$.$.7.O.$.$.$.#.$.{ Q Q ( [ | [ ( o.' | [ [ [ | ! Q [ u.O.*.$.$.$.$.#.$.#.#.$.$.+.$.[ [.",
"~.@.$.$.$.$.+.$.O.7.$.$.$.$.O.Q Q ( ' ' ' [ o.' ' [ [ ' [ [ [ ! Q ) u.$.$.$.#.$.$.$.$.$.$.$.$.*.] |.",
"~.@.$.$.$.$.$.$.7.$.$.7.$.O.! E | [ [ [ [ ( o.( o.' [ | [ [ [ [ / E [ u.$.$.$.$.$.$.$.$.$.$.$.*.} |.",
").@.*.*.*.*.*.*.e.7.e.$.@./ E [ [ [ [ [ [ o.[ o.[ o.[ [ [ [ [ [ ) / E { u.u.$.*.*.*.*.$.*.*.*.*.} |.",
"_.@.*.*.*.*.#.*.*.*.*.#.! ^ ` [ [ [ [ [ [ ' [ ' ' ' [ o.[ [ ' [ [ [ / E @.e.*.*.$.*.*.*.$.#.$.*.{ |.",
"~.{ #.*.*.#.@.#.*.*.#./ ^ / [ [ [ [ [ [ ' ' ' ( ( ( ' ' [ / / / ( [ [ / E #.*.#.#.$.*.@.@.@.@.*.] |.",
"W.` @.o.o.@.@.$.$.o.^ ^ / ( ' [ ' ' ' ( ' ( ' ' ( ' ' ' ( / [ ' ( ( ' ( ( ^ #.p.#.$.#.o.@.@.@.+.] |.",
").@.*.$.*.*.*.*.$.^ ^ ' [ ' ' ' / ' [ ' ( [ o.' ' o.' ( [ [ [ [ { [ [ ( ' ' Q @.p.$.*.*.*.*.*.*.]  X",
"_.&.e.u.*.*.p.#.` ^ [ [ @.[ o.[ [ [ [ @.[ [ [ @.[ o.@.[ [ @.[ @.@.[ @.[ [ @.` ^ *.*.*.*.*.*.*.*.%. X",
"_.&.u.*.*.p.*.' ^ ' { @.@.@.@.@.@.@.o.@.@.o.o.@.o.@.@.o.o.@.@.o.o.@.o.o.@.@.[ | / *.h.*.*.*.u.p.}  X",
").&.*.u.*.*.' ^ ' #.@.@.@.o.@.o.o.o.o.o.o.o.@.o.o.o.@.@.@.@.o.o.@.[ @.@.@.[ @.@.( ^ *.a.i.*.*.p.} .X",
"_.&.u.*.*.` / [ @.@.@.@.@.@.o.@.@.@.@.@.@.@.@.@.@.@.@.@.@.o.@.@.@.@.@.@.@.@.@.@.@.' / *.g.p.*.p.} |.",
"=X*.*.*.' / ' &.@.@.@.@.@.@.#.@.#.@.@.@.@.#.@.o.@.@.@.@.@.@.@.@.@.@.#.@.@.@.@.#.@.@.` ^ *.a.*.*.}  X",
"_.*.*.[ ` [ @.@.#.@.#.#.#.@.#.@.#.@.$.@.#.@.#.#.#.#.@.#.#.#.@.#.+.#.#.#.#.@.#.@.#.#.#.' / *.).*.@. X",
"].%.{ ^ { #.&.@.@.&.#.@.#.#.&.@.@.@.#.&.#.@.#.#.#.#.@.*.#.@.#.#.#.@.#.#.#.#.%.#.#.#.#.@.' ` $.h.&. X",
"_.` ' @.@.@.[ @.@.@.@.@.@.@.{ { @.&.#.#.@.#.@.@.@.#.@.@.@.@.@.@.@.@.@.@.@.@.@.@.@.@.#.@.[ ` ( p.{ _.",
"=.R @.p.{ [ [ [ { { o.' ' o.{ o.[ @.&.o.{ @.[ [ { @.@.[ [ { [ [ [ [ [ [ [ [ { [ { @.#.[ @.[ ' ` R ^.",
"a._ @.h.@.o.&.@.' @.&.&.o.@.&.@.@.o.o.{ [ [ o.{ { @.{ @.*.[ &.@.{ @.@.@.{ #.#.#.{ } o.{ @.@.' ' W /.",
"`.{ ' o.g.&.@.&.@.@.@.&.@.&.#.#.@.&.&.@.{ &.&.@.#.#.&.&.&.@.@.&.&.&.&.&.#.#.#.#.@.@.&.@.{ ' [ t.&.[.",
"].&.&.` &.g.*.@.&.&.&.&.&.&.&.&.&.&.&.&.&.&.&.&.&.&.&.#.&.&.&.&.&.@.&.@.&.&.&.&.&.&.&.} ` ' *.g.&.XX",
"`.&.p.&.` &.a.t.&.&.&.&.&.&.&.&.&.&.*.&.&.&.&.&.&.&.#.&.&.&.&.&.&.&.&.&.&.#.&.&.&.&.@.` { e.p.a.&.>X",
"=X&.a.p.&.^ *.a.*.&.&.&.&.&.&.&.&.&.&.&.#.&.*.*.&.&.&.&.&.#.&.&.&.&.&.&.&.&.&.&.&.{ ' [ e.a.t.a.&.;X",
"].*.j.p.a.&.` &.g.&.&.*.&.&.*.&.&.&.&.&.*.&.&.&.&.&.&.&.&.*.&.&.&.&.&.&.&.&.&.*.#.[ [ t.a.t.y.a.&.XX",
"].*.g.y.p.y.&.` &.h.*.*.&.&.&.&.&.&.&.&.&.&.&.&.&.&.*.&.&.&.*.&.&.*.*.*.*.&.&.%.] [ t.a.t.a.y.g.r.XX",
"`.r.a.t.e.a.a.&.[ @.x.e.&.t.&.@.#.} #.} &.&.%.@.&.w.&.@.&.} &.&.@.&.&.&.&.{ { ' ] y.t.e.t.g.a.t.&.XX",
").} e.e.e.t.t.t.&.[ &.h.w.@.@.} #.#.} #.@.@.} } &.@.} } @.} &.%.%.@.@.%.&.{ ` { 7.y.e.w.w.e.e.e.{  X",
"`.w.a.a.t.t.t.t.t.&.` t.g.e.&.&.w.w.} e.y.t.&.@.&.@.&.t.&.&.&.&.@.{ { &.{ { { *.u.y.y.u.t.t.t.a.%.XX",
"].y.g.a.g.g.g.a.g.g.&.` a.k.t.&.e.e.y.^ i W t.t.t.} i i } *.&.&.&.&.&.@.{ { *.g.g.a.g.g.a.g.a.h.r.:X",
"}.y.g.a.g.g.g.g.g.g.g.@.` y.x.t.e.e.] D F  .[ &.#.|  .F ~ [ t.*.*.*.&.%.{ *.z.g.g.a.g.a.h.a.a.h.s.:X",
"}.y.k.g.g.g.g.g.g.g.g.g.&.[ t.x.w.#., 4XsX7Xo O.i b aXsX-.t *.*.*.&.%.&.*.z.g.g.g.g.h.g.g.h.h.h.t.:X",
"}.y.h.g.g.g.g.g.h.g.g.h.g.&.[ t.t.> 6XaX7X-X$ O.N q 5X7XaX4XX t.&.%.{ *.g.g.h.g.g.h.g.g.g.h.h.h.y.:X",
" Xa.k.h.h.h.h.g.h.h.g.g.k.y.y.v ,   4X6X{.-   5 =   q 4X6X{.  7 { &.*.h.z.g.h.g.g.h.h.h.g.h.h.h.y.:X",
"}.g.l.l.l.h.h.h.k.k.k.k.g.x.M 7 d H I.{.J.B S V Z Z V P.{.P.V s 9 ` x.g.h.z.x.h.h.h.h.h.h.h.h.l.d.:X",
";Xg.x.l.l.h.l.k.l.l.k.l.l.) j V =.L.G.G.H.L.L.L.L.L.L.K.G.L.L.L j c @.z.i.o.o.u.h.h.h.l.x.x.l.l.d.:X",
";X&.e.e.h.k.l.l.k.k.l.k.O.< I L.G.G.H.H.H.G.H.G.H.G.G.J.K.H.G.H.L.A 8 p.l w e j h.h.l.h.u.7.a.x.d.:X",
";Xy   8 y.y.g.g.g.a.g.! * L.G.K.K.K.H.G.L.L.H.H.H.L.L.L.K.H.H.L.K.L.G.@   2.4.+ d.g.g.*.@   ( l.d.:X",
"].5 k U X y.Q t f.g.u f G.H.U OX%XF.H.F.oX8XY K.G.I.9XL.K.K.L.&XY.G.J.F.# 1.4.  @ 7.` < H.& M g.%.>X",
"].&.~ s f t s s 9 t w F.$XG.oXeXiX#XK.oXwXpX&XL.Y.0XdX9XU.U.&XdX0XT.J.%X1 1.4.  s t w f f ) a.k.r.:X",
";Xn.'   F.d C L 2   f OXpXOXtXgXgXiXOXwXgXhXpX#X0XdXhXdX&X*XdXgXdX0X$XpXd >.2.O U j B J   a.=Xx.j.,X",
";Xj.&.c J B H L j f G.0XkXtXgXhXgXkXuXdXhXgXkXuXpXkXgXkXiXiXkXgXkXdXiXhXh >.9.O U Z V G x k.x.x.j.,X",
";Xz.=Xh.  z V f X L.&XpXhXhXgXhXhXgXhXhXgXgXgXhXhXhXgXgXkXgXgXgXgXgXjXgXh :.4.. B V 2 6 =Xx.x.'.j.,X",
";Xd.z.e.X I L f , *XdXhXgXgXgXgXgXgXhXgXgXhXgXhXgXgXhXgXgXgXgXgXhXgXgXgXh :.4.# G.G 3 w l.k.k.k.d.:X",
"Q.) o.o.) 8 >     iXhXhXgXgXhXgXgXhXgXgXgXhXgXgXgXgXgXgXgXhXgXgXgXgXhXgXh :.0.  < . t o.O.o.o.+./ (.",
"Q.) +.O.O.N 7 g OXgXhXhXhXgXhXgXgXgXhXhXgXgXgXgXgXhXgXgXgXgXgXgXhXgXhXgXh :.9.    x ..O.+.O.O.+.) (.",
"Q.) O.O.o.7.r A pXgXgXhXgXgXgXhXgXgXgXgXhXgXgXgXgXhXgXhXgXgXgXgXgXgXjXgXh :.4.    ~ O.[ O.[ o.O.] /.",
"i.) O.) o.6.6 I kXgXgXgXgXhXgXgXhXgXhXgXgXgXhXhXgXgXgXgXhXgXgXkXgXgXjXgXh :.4.    M ) ) ) ) ) ) / |.",
"Q.W ) ) o.O.5 P kXgXgXgXgXgXgXhXgXgXgXhXgXgXgXgXgXgXgXgXgXgXhXgXgXgXhXgXh :.c.    N O.O.O.[ O.O.W /.",
"Q.[ O.o.+.$.6 I kXgXgXgXhXhXgXgXgXgXgXgXgXhXgXhXhXgXgXhXgXgXgXgXgXgXjXgXh :.4.    ! O.O.O.O.O.+.] /.",
"!.[ $.O.e.u.r P kXhXkXkXgXgXgXhXjXjXjXjXgXgXgXgXhXgXgXgXhXgXhXgXgXgXjXgXh >.3.* uXI u e.O.O.O.7.[ (.",
"~.{ 7.O.5 6   I kXhXqXqXhXgXhXpXqX%XdXjXhXgXhXgXgXgXhXhXgXgXgXgXgXhXgXgXh :.3.2 kXG.  u e.$.O.$.] |.",
"~.} ..N I L.s I kXkXL.Y.lXgXhXdX&Xf gXkXgXgXgXgXgXgXgXgXgXhXgXhXgXgXjXgXh ,.3.& kXI > F.v O.$.7.[ |.",
"~.$.v 3 tXuXF.S kXkXoXU.uXhXhXkXtXn qXpXjXgXgXhXgXhXgXhXgXgXgXhXgXhXjXgXg a 5.b tXL.OXwX  o.7.$.{ |.",
"~.$.v j gXtXL J jXgXkX&X> jXgXdXfXaX= &XkXgXgXgXgXgXhXgXgXgXhXgXgXgXgXgXB   F 4X  qXlXtX  o.7.7.{ |.",
"~.w.v z gXtXL j eXgXkX#X2 kX5X6XaX7X- &XkXgXhXgXhXgXgXgXhXgXgXgXhXgXgXgXB   =.7X@ qXlXtX  o.e.7.{ |.",
"~.w.v j gXgXwXI.B dXkXyXoXz 5XsX6Xb l qXkXhXgXhXhXgXhXgXhXgXhXgXgXgXhXgXz   =.sX  0XkXtX  ) &.e.{ |.",
"~.$.u k kXjXhX0X  wXgXgXiXU.=.=.=.g 0XdXhXhXgXgXgXgXhXgXgXgXgXgXhXgXhXgXl p 6.{.#XpXlXiX  ( } 7.] |.",
"E.[ Q m *XpXkXeX  *XdXjXgXiXR.Y T.&XkXkXgXgXgXgXgXgXhXgXgXhXgXgXgXgXhXgXh ,.,.$ gXkXuXOXx [ @.#.` [.",
").&.u.#.  tXlXeXV oXiXkXgXjXkXkXkXkXgXgXhXhXhXgXgXhXgXhXgXgXgXgXhXgXhXgXh :.4.2 pXlX+X  i.u.*.*.@.[.",
"_.@.p.+.@ tXhXhXgX> 0XkXgXgXgXgXgXgXgXgXhXhXhXhXgXhXgXhXgXgXhXhXgXgXgXgXh >.3.1 dXkX+X= p.*.*.*.%.XX",
"_.&.e.e.w., &XlXgX  qXkXgXgXgXgXgXgXkXkXkXkXhXhXgXhXkXkXkXhXgXgXgXgXgXgXh >.3.1 kXL.x t.*.*.u.u.%.[.",
").#.*.p.t.E C I L $XH.+XkXgXhXgXkXkXG.V V F.tXkXjX9XA A z OXlXgXhXgXhXgXh :.4.O J N ^ a.p.*.*.u.&.XX",
"_.*.p.*.O.{ v 6 2 P.@ G.dXgXgXhXiXT.G.T.T.F.J I.P.J H.oXI.H.OXdXhXhXgXiXh >.4.  6 ^ ' &.p.p.*.p.@.[.",
"_.&.*.*.' ^ { $.X.5 , Z $XhXgXkXeX  eXkXkXtXG.V Z T.iXkXhX+X, gXgXhXdXoX* >.4.. e.#.' ^ *.a.*.*.%.[.",
"_.&.&.` ` @.#.@.&.&.X.j d uXgXkXeXJ pXgXgXhXkXiXdXlXgXgXkX0XL gXhXgX0X    1.4.. @.#.#.[ / @.h.p.%.XX",
"].{ ` ` @.&.@.#.@.#.@.+.S   eXlXtXZ *XpXhXfXgXgXgXgXgXhXuXoXL dXkX+X  L # 1.4.. @.@.#.@.[ ^ #.l.*.[.",
"W.` ' &.@.@.{ o.H G S ..[ ( s oXiXdXL OXuXhXhXgXgXhXgXeXL.oXgXtXF.x [ o.+ 1.0.o G +.&.#.[ ' ( $._ /.",
"=.R @.g.{ ' { o.[ | ..[ ' &.c l J L.eXpXhXhXgXkXjXgXhXgXdX*XU H g N } { + >.4.. | @.@.' @.{ ' / R /.",
"l.` &.*.*.@.@.@.@.o.&.&.#...X.N 6 0 OX+X&XdXkXwXiXkXiX#X#XI.4 y D X.+.w.- ,.0.o @.&.@.{ @.@.` o._ /.",
"].%.[ ` g.t.@.&.*.&.+.+...K #.&.*.*.4 X m OXwXP T.qXoX9   y p.&.w.| l ( X T ;.  Q ^ o.&.[ ` { a.*.].",
"`.r.e.` ' g.t.&.&.&...G K &.&.#.&.&.*.y./     : =   = #.p.*.&.&.O.M % : e e e e : % x [ ` { t.a.&.XX",
"`.r.a.*.` { a.a.@.&.&.#.&.#.*.&.&.&.&.&.$.$.&.$.@.@.#.#.&.&.&.&.7 a b.v.A.D.D.A.v.b.;.- $.e.t.a.&.>X",
"].r.a.a.*.` O.a.p.&.&.&.&.&.&.&.#.&.&.&.&.&.&.&.&.&.&.&.&.&.+.7 ;.N.S.D.D.D.D.D.S.D.m.:.7 7.a.a.&.>X",
"].r.a.y.g.w.` @.a.t.&.&.&.&.&.&.*.&.&.*.&.&.&.&.&.*.&.&.&.*.&.  m.Z.m.2.<.V.Z.<.2.m.V.B.  $.a.a.r.;X",
"].t.a.a.t.g.&.` @.h.t.*.&.&.&.&.&.&.&.&.&.&.&.&.&.&.&.&.&.&.@.  C.B.a 9   M.B.  9 y M.A.  e.g.a.r.>X",
"_.w.a.e.e.t.g.e.[ { x.t.&.*.&.{ @.{ @.&.&.&.{ } &.&.&.&.&.} @.  Z.b.O d.O N.V.  w.- c.A.  *.a.u.%.XX",
").%.e.e.e.t.t.e.w.' } l.t.@.&.&.&.&.{ &.&.@.@.&.&.&.{ @.@.&.}   Z.b.O w.. N.V.  e.; c.A.  O.e.e.} }.",
"].r.a.a.a.a.a.a.y.e.' &.k.y.&.*.&.&.&.*.&.&.&.&.&.&.&.&.&.&.{   C.b.# w.. M.V.  g.; c.A.  $.a.a.w.XX",
"].y.g.g.h.a.a.g.g.g.t.` *.k.y.&.t.t.t.&.t.t.t.r.*.&.&.*.w.e.&.  Z.b.# r.. M.V.. k.; c.A.  e.a.h.s.XX",
"].y.g.a.g.g.a.g.g.g.g.&.[ &.l.y.&.t.&.*.t.t.&.*.s.*.*.t.t.t.&.  C.b.. 7.  N.V.. k.; c.A.  e.a.h.s.:X",
" Xy.h.k.g.g.g.g.g.g.g.z.r.[ &.x.t.*.t.t.&.t.t.t.t.t.t.t.*.*.#.* B.b.> e.- b.M.1 k.d c.B.* t.l.k.y.:X",
"}.d.h.g.g.a.k.k.h.g.g.g.z.r.{ %.=Xy.&.t.t.*.t.*.*.t.s.t.*.t.&.D q.5.C y...6.q.X.l...5.9.D i.h.h.y.XX",
"}.y.l.g.k.h.h.h.h.h.h.g.k.g.t.[ &.x.y.*.t.t.t.s.s.*.&.t.t.*.t.&.C | g.h.k...D l.g.l.X.C z.h.h.l.y.:X",
" Xg.k.k.k.l.k.h.h.h.z.h.h.k.h.t.[ &.x.g.&.t.*.*.*.*.s.&.s.*.&.%.m ..z.h.l...D l.h.l.+.B k.k.k.l.y.:X",
";Xd.l.l.l.l.k.k.l.l.k.k.k.k.z.k.s.` t.z.j.&.t.*.t.&.*.t.*.&.{ &.e.a.k.k.l.a.a.x.l.l.h.i.l.l.l.l.d.:X",
";Xg.l.h.h.g.l.k.h.h.g.g.h.z.h.z.z.*.[ t.n.y.*.t.s.&.*.t.*.%.&.t.z.l.l.k.h.z.l.z.l.h.k.l.l.l.k.l.f.,X",
"].g.k.g.a.a.k.g.g.d.d.g.y.y.g.l.a.h.&.%.t.=Xt.s.t.t.t.*.%.%.d.k.h.h.l.g.y.h.l.h.l.g.y.h.l.k.a.k.y.:X",
"'.&.t.t.y.a.g.t.t.t.a.h.z.h.h.g.y.g.d.*.{ *.=Xt.*.t.&.%.%.y.g.y.d.g.g.d.y.g.j.a.y.y.t.d.g.y.t.t.%.XX",
"}.d.l.k.k.l.l.k.h.h.h.l.x.x.l.h.z.h.z.z.t.&.t.n.k.&.&.@.t.g.h.g.g.k.h.h.g.g.l.h.z.h.k.k.l.z.l.z.s.:X",
";Xj.x.x.l.x.x.z.x.x.x.x.z.h.x.x.z.l.x.z.z.*.%.d.*.&.&.d.j.g.z.g.g.z.z.'.z.z.=Xz.'.h.z.z.z.j.'.'.j.,X",
">Xz.'.x.'.x.x.=X'.'.'.'.'.'.'.'.=Xx.'.'.'.=Xt.&.&.*.d.=X=Xn.=X'.=X=X'.'.z.=Xz.=X'.=X=X=X=X=X'.'.z.>X",
"=Xs.j.f.f.f.f.j.f.f.f.f.f.f.d.f.f.f.f.f.d.f.f._ _ &.j.f.f.f.f.f.f.f.*.f.f.f.f.f.*.f.f.f.f.f.*.j.s.>X",
"rX1X2X2X2X3X3X3X3X3X3X3X3X3X2X3X3X3X3X3X3X3X2X1X<X1X1X1X2X3X1X1X3X8X3X3X3X3X3X3X3X3X3X3X2X3X3X3X3X5X"
};
