/* XPM */
static char *result[] = {
/* columns rows colors chars-per-pixel */
"100 50 192 2 ",
"   c #020202",
".  c #05070A",
"X  c #06080A",
"o  c #0C0C0C",
"O  c #10100E",
"+  c #0A0E13",
"@  c #001717",
"#  c #0D1115",
"$  c #0F1319",
"%  c #001F1F",
"&  c #171518",
"*  c #1D1C1B",
"=  c #161E27",
"-  c #1A1F25",
";  c #181F28",
":  c #201920",
">  c #002E2E",
",  c #0C2A2C",
"<  c #19212A",
"1  c #1D2528",
"2  c #0C2E33",
"3  c #1F2936",
"4  c #1C2B36",
"5  c #003C3C",
"6  c #123139",
"7  c #222222",
"8  c #27262C",
"9  c #222B36",
"0  c #262E3C",
"q  c #372937",
"w  c #2F3134",
"e  c #24303E",
"r  c #29323D",
"t  c #323335",
"y  c #38393A",
"u  c #41413E",
"i  c #0A3C41",
"p  c #193841",
"a  c #253344",
"s  c #283849",
"d  c #343B45",
"f  c #2E3E53",
"g  c #313F51",
"h  c #503D50",
"j  c #004545",
"k  c #005757",
"l  c #2C4254",
"z  c #344355",
"x  c #34465B",
"c  c #36485E",
"v  c #10605F",
"b  c #374A61",
"n  c #3D5065",
"m  c #3D526D",
"M  c #3E5874",
"N  c #006868",
"B  c #007373",
"V  c #484546",
"C  c #4E4E4C",
"Z  c #51514E",
"A  c #564556",
"S  c gray33",
"D  c #5B5B56",
"F  c #565859",
"G  c #5C5B5A",
"H  c #62625D",
"J  c #42546C",
"K  c #425975",
"L  c #435D7D",
"P  c #684C68",
"I  c #5F666F",
"U  c #47607F",
"Y  c #48627E",
"T  c #576B75",
"R  c #636362",
"E  c #6B6B66",
"W  c #676869",
"Q  c #73746E",
"!  c #626972",
"~  c #756872",
"^  c #6A737E",
"/  c #777875",
"(  c #7C7C75",
")  c #83837E",
"_  c #455F81",
"`  c #456282",
"'  c #4A6686",
"]  c #496588",
"[  c #4A668A",
"{  c #4D6A8C",
"}  c #516A86",
"|  c #526D8D",
" . c #53718F",
".. c #5D7088",
"X. c #4E6C92",
"o. c #516E92",
"O. c #557294",
"+. c #5B7696",
"@. c #5C7896",
"#. c #56749A",
"$. c #59769B",
"%. c #5C799C",
"&. c #657487",
"*. c #607997",
"=. c #607D9E",
"-. c #5677A0",
";. c #5778A2",
":. c #5C7CA2",
">. c #5E7FA8",
",. c #617EA2",
"<. c #8C6E91",
"1. c #9C779C",
"2. c #A67FA6",
"3. c #009292",
"4. c #00A0A0",
"5. c #00A9A9",
"6. c #19A3A3",
"7. c #00B1B1",
"8. c #00BBBB",
"9. c #5F80A6",
"0. c #5F80A9",
"q. c #6481A6",
"w. c #6383AB",
"e. c #6985AB",
"r. c #6788AE",
"t. c #6988AF",
"y. c #6687B0",
"u. c #6788B1",
"i. c #6C8CB4",
"p. c #6E8FB8",
"a. c #708FB6",
"s. c #708FB8",
"d. c #6F90B9",
"f. c #7090B7",
"g. c #7293BB",
"h. c #7697C2",
"j. c #7798C3",
"k. c #7899C4",
"l. c #7F9FCA",
"z. c #06C6C6",
"x. c #00CACA",
"c. c #00D0D0",
"v. c #00D8D8",
"b. c #00E4E4",
"n. c #00F0F0",
"m. c #00F8F8",
"M. c #868681",
"N. c #8C8B83",
"B. c gray55",
"V. c #92928B",
"C. c #949490",
"Z. c #9B9B93",
"A. c #9B9B99",
"S. c #A2A29A",
"D. c #ABAB9F",
"F. c #B685B6",
"G. c #B18CB4",
"H. c #B591B4",
"J. c #A2A2A2",
"K. c #ACACA5",
"L. c #B5B5AD",
"P. c #BABAAE",
"I. c #BDBDB4",
"U. c #C0C0B7",
"Y. c #C7C7BC",
"T. c #C9C9BD",
"R. c #81A2CB",
"E. c #C38EC3",
"W. c #D49CD4",
"Q. c #C5A2C5",
"!. c #D7A6D7",
"~. c #DEA6DE",
"^. c #E5B1E4",
"/. c #F4BCF4",
"(. c #CACAC1",
"). c #D1D1C5",
"_. c #D4D4CA",
"`. c #D9D9CB",
"'. c #D3D3D0",
"]. c #DEDED3",
"[. c #E6CEDD",
"{. c #E2E2D5",
"}. c #E6E6D9",
"|. c #EAEADC",
" X c #F6DDEC",
".X c #F8C0F8",
"XX c #EFEFE0",
"oX c #EAEAE9",
"OX c #F5F5E5",
"+X c #F8F7E7",
"@X c #F8F8E8",
"#X c #F7F7F6",
/* pixels */
"h.j.k.j.h.h.j.j.j.j.j.j.j.j.j.j.j.h.j.j.h.j.h.y.-.0.l.h.h.h.j.h.h.h.h.h.h.k.h.k.j.j.h.j.j.j.k.h.k.h.j.k.j.j.j.j.k.j.k.j.j.j.j.j.j.j.h.h.j.h.j.h.p.;.-.j.h.h.h.j.j.j.j.j.j.j.j.j.h.h.j.h.j.j.j.j.j.j.h.j.",
"h.h.h.j.h.h.h.h.j.h.j.j.j.h.h.j.h.h.j.h.j.h.d.0.;.>.p.j.h.h.h.h.j.h.h.h.h.h.h.h.h.h.j.h.h.j.h.h.h.h.h.h.h.h.j.h.j.h.h.h.h.h.j.h.h.h.h.j.j.h.h.h.u.-.-.p.h.h.h.h.h.j.h.h.h.h.j.h.h.h.h.h.h.j.h.h.j.h.h.j.",
"h.h.h.h.h.h.h.h.h.j.h.h.h.h.h.h.h.h.h.h.J $ d ..;.;.;.h.h.h.h.h.h.h.h.h.h.h.h.j.h.h.h.h.h.h.j.h.k.j.h.h.k.h.j.j.h.j.j.j.h.h.h.h.j.j.h.h.h.k.h.u.;.;.;.;.u.h.h.h.h.h.h.h.h.j.h.h.h.h.j.j.h.h.h.j.j.j.j.h.",
"g.g.h.g.h.g.h.h.h.g.h.g.g.h.h.g.h.g.h.g.u.s . O m 0.-.-.y.i.p.g.p.h.h.g.g.p.h.h.h.h.d.h.h.g.h.h.h.g.h.g.g.g.h.d.h.d.g.h.g.h.h.g.g.h.d.h.g.d.0.-.0.l.p.;.-.0.i.p.h.p.d.h.h.d.d.d.h.h.h.g.g.h.h.g.h.h.g.h.",
"u.u.y.u.p.p.p.i.u.u.p.d.h.g.g.d.p.p.p.u.x t 8 g ,.u.K a ;.y.i.p.i.p.p.p.i.u.p.i.d.p.u.u.p.i.i.i.u.u.y.y.i.i.d.d.i.u.u.i.d.g.h.g.d.d.d.p.p.0.-.i.j.p.y.w.>.-.0.i.p.p.p.d.p.p.u.d.p.p.p.u.r.p.f.i.i.u.u.u.",
"p.p.p.i.i.i.d.p.u.u.p.p.d.d.d.g.p.p.u.c w &.z x y.y.m . a ;.y.p.p.g.p.p.i.i.h.p.d.d.i.i.f.g.p.i.p.p.d.d.i.i.i.d.d.i.i.i.p.d.d.d.d.d.p.p.:.-.y.d.h.0.y.y.0.;.-.0.p.d.d.d.d.i.u.d.g.g.p.p.u.f.g.g.u.p.f.f.",
"g.g.g.p.p.i.d.d.d.d.d.d.d.d.d.g.d.i.>.f z g.>.:.b + .   . a >.y.g.h.h.p.p.p.g.d.g.g.d.d.g.g.g.f.d.g.g.g.d.d.d.d.d.d.d.d.d.d.d.d.d.d.d.0.-.w.d.p.0.w.y.y.y.0.;.-.0.d.h.g.g.d.d.d.g.g.g.d.f.d.g.g.d.d.g.h.",
"g.g.g.g.d.h.g.g.g.g.g.g.d.h.g.g.p.>.l t &.e.w.b w I b   3 #.-.-.i.p.g.p.h.g.g.h.g.g.d.g.g.g.g.g.d.g.g.g.d.d.d.g.d.h.g.g.g.g.g.d.h.d.w.#.0.h.p.y.0.y.0.0.w.y.0.;.#.y.d.g.g.g.h.d.g.g.g.g.g.g.g.g.g.g.g.g.",
"g.g.g.g.g.g.f.g.g.g.g.g.g.g.g.g.;.#.f z w.w.b t T w.m 4 :.w.0.#.-.i.p.g.g.g.g.g.g.s.g.g.g.g.g.g.g.g.g.g.g.g.g.f.d.d.f.g.g.d.g.g.d.w.#.:.k.u.y.0.0.y.y.0.0.y.w.0.-.-.w.d.d.g.h.g.g.g.g.g.g.g.g.g.g.f.f.g.",
"f.g.f.g.g.g.f.f.f.g.f.g.d.d.p.:.#.r.b x w.&.t g w.w.>.:.w.0.0.0.-.-.i.p.d.g.g.g.d.d.a.g.f.g.f.g.a.g.g.g.g.g.f.f.g.d.g.f.g.g.d.g.0.-.0.h.y.y.0.w.w.w.0.y.0.w.w.w.0.-.-.w.d.d.g.d.g.d.g.d.f.g.g.g.f.g.f.f.",
"f.f.f.f.f.g.f.f.f.f.g.p.g.u.:.-.p.p.x z 0.c g ;.w.w.y.0.0.w.w.w.>.-.;.y.g.p.g.f.f.g.f.f.f.f.f.f.f.g.f.f.f.g.f.f.d.g.f.f.d.d.d.0.#.0.d.u.0.y.0.w.0.0.w.w.y.0.w.w.0.0.;.-.0.d.d.d.g.d.a.f.f.f.f.f.f.f.g.f.",
"f.f.f.f.f.f.f.f.f.f.f.g.u.>.-.w.g.n X X $ . l w.w.>.0.0.0.0.0.w.w.;.-.;.r.p.g.g.a.f.f.f.f.f.f.f.a.a.f.f.f.f.f.f.f.f.f.f.d.p.y.#.>.p.p.0.0.0.0.0.0.w.0.0.0.0.0.w.0.0.0.-.-.w.d.d.d.d.f.f.f.f.f.f.f.f.f.d.",
"f.f.f.f.a.a.p.f.f.f.p.p.0.-.>.m # Q E E `.E X c 0.0.w.w.0.w.0.w.w.>.;.$.;.p.p.p.g.a.a.a.a.a.f.f.a.f.f.f.f.f.f.f.f.f.f.f.p.u.#.;.g.p.0.0.0.w.w.0.y.0.0.0.w.0.w.w.0.w.0.:.-.#.i.d.a.a.f.a.a.a.f.f.f.f.f.f.",
"f.f.a.a.f.i.i.a.p.i.i.-.#.0.z Q `.( O O * O   l ,.0.0.0.q.9.0.0.>.>.w.;.#.#.p.d.a.a.a.a.p.p.f.i.a.a.a.a.f.f.i.i.i.f.i.p.0.#.#.k.r.9.0.q.q.0.0.9.0.0.w.0.9.w.0.0.0.0.9.9.>.#.#.0.p.p.f.i.i.a.f.f.f.f.f.f.",
"f.f.a.a.p.i.i.i.i.i.-.#.a $ X O * y S S S S 8 X c >.;.q.0.>.:.9.;.;.;.$.#.#.#.u.p.i.p.i.i.f.i.f.i.a.a.a.i.f.i.p.i.f.u.9.#.#.g.y.9.w.9.9.0.9.9.9.9.9.9.:.:.q.>.:.9.:.:.:.-.-.#.#.,.p.i.p.i.i.i.i.i.f.i.i.",
"w.q.e.e.r.r.t.r.r.%.a # V.`.`.Y.D . t R R H G S w s $.;.:.-.$.%.:.$.%.;.;.#.o.-.,.u.t.t.e.w.w.q.q.w.e.w.r.y.e.r.r.e.9.#.9.i.r.:.:.:.:.:.:.9.:.:.-.:.:.$.;.;.%.-.;.%.$.-.-.$.$.#.#.:.e.u.t.r.e.w.q.w.w.w.",
"w.w.e.e.w.r.i.w.%.a V.`.}.@X@X@X}.Y.H o y G R H G y s %.-.;.-.;.-.$.%.:.:.#.#.X.-.,.u.y.>.,.>.,.9.w.w.w.r.w.w.t.r.:.#.9.r.r.:.:.;.;.:.$.;.:.:.;.$.;.:.:.%.-.:.#.:.;.$.:.:.:.;.#.X.#.>.i.>.>.,.,.e.w.w.w.",
"e.r.t.r.e.r.r.9.e V.}.@X@X@X@X@X@XOX).D w H G R t . X a 9.:.%.:.:.-.:.:.>.;.-.#.O.-.e.y.i.i.s.i.r.r.r.i.r.r.r.t.w.#.#.r.i.9.9.:.:.;.$.;.;.$.:.;.%.;.:.>.:.:.>.%.:.:.;.;.:.:.;.;.-.#.o.>.a.s.>.R.i.r.e.t.",
"i.i.i.i.u.u.#.^ L.|.OXOX@X@X@X@X@X@X}.E . o o o V ( ( F # s :.>.:.>.:.q.>.:.>.,.#.X.#.e.i.i.i.i.i.i.i.t.i.r.u.0.X.#.p.r.9.9.:.9.:.:.:.,.,.:.>.,.:.>.:.,.:.:.,.:.,.>.>.>.,.:.,.:.>.-.o.o.,.s.s.>.i.t.f.i.",
"t.t.t.i.i.-.X.e S.+XE * 7 * D.@X@X@XOX_.Y.`.`.`.).(.L.M.( D # s :.:.9.:.:.:.,.:.;.;.X.#.e.t.t.i.t.t.i.t.i.r.9.#.#.f.0.9.:.:.:.:.,.:.:.:.:.>.:.:.:.:.:.:.:.:.>.:.:.:.:.,.:.:.:.,.>.;.,.o.#.,.s.>.t.t.t.t.",
"t.i.t.9 # # # . Z.E <.F.F.F.h N.@X@X@XOXOX@X@X@XOXOXXX].(.I.P.( s :.:.:.:.:.:.:.>.:.#.O.-.>.i.i.t.i.r.i.t.9.O.#.i.e.:.:.:.:.:.:.:.:.:.:.:.:.:.:.:.:.:.:.%.:.:.:.:.:.:.:.:.:.:.:.:.:.:.-.o.#.;.>.i.t.i.r.",
"t.u.9 E ( D.L.u S H.^././.~.E.P N.@X@X@X@X@X@X@X@XOX@XOXOXOXOX`.( s :.:.:.:.:.:.:.:.;.#.o.;.,.i.r.r.r.i.9. .:.w.r.:.:.:.:.:.:.:.:.:.:.:.:.:.-.:.:.:.:.:.;.:.:.:.:.:.:.:.:.:.$.:.:.:.:.:.-.o.-.>.t.r.t.t.",
"t.4 o X Q V.C.y V Q..X.X/./.~.P ( @X@X@X@X}.I.Z.Z.L.{.@XOX@X@XOX|.V.e :.:.:.:.:.:.;.>.;.#.o.-.>.t.t.r.9.X.#.r.u.:.:.:.:.;.:.:.:.:.:.:.:.:.:.:.:.:.:.:.:.:.:.%.;.;.:.%.;.:.:.:.:.:.:.:.:.:.#.o.o.w.r.r.e.",
"t.$.` ' 1 Q V.E 7 G..X.X.X.X~.P ( @X@X@X}.L.V.V.V.C.K.{.@X@X@X@X@X`.A.&.:.;.%.:.%.:.%.;.$.o.X.#.r.t.e.| X.r.r.$.%.%.;.%.:.:.%.%.:.,.$.:.:.$.:.:.%.%.;.:.:.:.:.:.:.:.%.:.:.:.:.$.:.$.:.:.:.;.#.X.X.e.t.%.",
"o.X.#.a.o.- M.S.) y G./././. X}.|.@X@X@XL.W R ( V.V.V.I.@X@X@X@X@XOXL.9 @.#.$.:.$.#.#.#.#.$.#.X.X.X.X.X.s.,.#.$.$.#.#.$.$.#.#.$.:.+.#.#.#.O.O.$.#.#.#.+.#.#.%.#.$.$.#.#.#.$.#.;.;.$.$.#.$.o.$.;.{ X.o.X.",
"X.{ O.u.O.| r & M.Z.N.V : G _.@X@X@X@X@XK.J.'.C.R R R A.@X@X@X@X@X@X@XP.^ O.#.#.#.$.$.-.o.#.o.X.X.X.X.X.>.;.o.#.#.#.#.#.#.#.O.#.#.#.#.;.;.#.-.O.O.#.$.;.$.#.#.#.#.#.#.#.#.O.O.O.#.#.#.$.;.$.#.o.X.X.X.X.",
":.#.< $ + + .   ) {._.U.(.{.XX@X@X@X@X@X) M.#XoX/ G A.H @X@X@X@X@X@X@XP.9 #.#.#.$.$.$.$.$.#.X.#.,.>.$.X.:.$.$.#.#.#.#.#.#.$.#.#.$.#.$.$.$.$.$.$.#.#.$.$.$.#.#.$.$.#.$.$.$.#.#.$.$.$.$.$.$.$.$.X.{ 9.9.O.",
"i.9 <.W.~.8 C ( Y.+X].|.+X@X@X@X@X@X@X@X`.E B.#XoXA.G |.@X@X@X@X@X@X@XP.< $.$.$.;.$.,.$.#.X.X.$.R.>.,.#.X.#.$.$.$.#.;.%.;.$.$.;.$.;.%.;.:.$.:.$.:.;.$.:.$.;.;.#.$.$.$.$.;.$.;.$.$.$.$.:.;.$.o.X.#.f.r.:.",
"e.,.< 2.W.q D L.}.+X+X+X+X+X@X@X@X@X@X@XOX_.W 7 7 G }.@X@X@X@X@X@X|.S.7 = $.%.$.$.$.;.$.X.#.,.s.,.>.,.>.#.X.o.-.$.:.$.$.$.$.:.$.%.;.$.%.%.$.$.;.$.$.$.:.%.;.%.%.$.%.%.%.$.$.$.%.$.$.$.:.$.o.o.$.g.e.e.e.",
"e.,.,.< : ~ K.{.OX+X@X@X@X@X@X@X@XN.Z ) ) N.P.`.`.|.@X@X@X@X@X@X@XOX|.) = @.$.$.$.$.$.[ { ,.a.e.,.,.,.R.,.#.X.X.$.$.$.$.$.$.$.$.@.@.$.$.$.$.$.$.$.$.$.+.#.@.#.%.$.$.$.@.$.$.$.$.$.$.$.$.o.X.%.s.e.e.e.q.",
",.,.,.,.& E V.U.|.+X+X+X@X@X@X@X@X}.{.}.}.}.XX@X@X@X@X@X@X@X@X@X@X@XP.r { @.#.#.-.#.J + + - ! ,.1.>.,.,.e.,.o.{ X.$.$.$.#.#.$.$.#.+.#.$.$.$.#.$.$.#.$.+.+.@.$.$.$.#.#.#.$.#.$.$.$.$.$.o.[ ,.e.t.q.q.e.e.",
"e.e.e.e.; E V.V.U.|.+X+X@X@X@X@X@X@X@X}.K.M.K.}.@X@X@X@X@X@X@X@X@X|.S.= #.#.#.K + + i 5.v.x.6.! ..,.,.,.,.,.,.#.{ X.$.$.+.#.#.$.#.#.#.$.#.$.#.+.#.+.#.#.#.#.#.#.#.$.#.#.#.+.$.#.$.#.X.o.,.>.i.t.q.q.q.q.",
"q.q.q.q.- E V.T.XXOX@X@X@X@X@X@X@X@XN.C L.}.XXOX@X@X@X@X@X@X@X+X@XD.y ] #.#.K i 5.v.v.c.% , T =.=.q.q.q.,.,.,.,.$.X.o.#.#.$.#.$.#.+.#.#.+.#.#.#.+.#.+.#.#.+.#.$.#.$.#.#.#.$.#.$.o.o.X.*.,.t.,.,.q.q.q.q.",
"q.q.q.,.- E L.}.@X@X@X@X@X@X@X@X@XI.K.{.XX@X+X@X@X@X@X@X@X@X@X|.V.r ' #.O.K 5 7.b.3., , O.| =.q.q.q.q.q.,.,.,.i.,.o.[ o.o.$.$.o.#.#.O.#.O.#.O.#.#.#.o.#.#.#.+.o.+.#.+.#.+.o.#.O.o.{ o.t.e.,.,.,.=.,.q.q.",
",.,.,.,.; E V.U.XX@X@X@X@X@X@X@X@XXXXX@X@X@X@X@X@X@X@X@X@X@X`.E r | O.o.o.K > z.8.p ..L # # - ^ ,.,.q.=.,.,.,.,.,.,.X.[ o.o.o.o.o.o.o.o.O.o.o.o.#.O.o.+.o.o.o.#.o.$.#.#.o.o.o.o.{ o.i.,.,.,.,.,.,.q.q.=.",
"$.$.$.#.- E V.V.U.|.@X@X@X@X@X@X@X@X@X@X@X@X}.}.@X@X@X|._.V.& 9 { o.o.o.| m > x.8.  # , 5.v.c.6.R ! *.*.#.$.$.=.%.:.$.[ [ [ o.o.o.o.o.o.o.X.o.o.o.o.o.o.o.[ o.o.o.o.o.o.o.o.o.[ $.,.=.,.,.,.$.$.@.@.#.#.",
",.=.$.=.O.1 H Y.XX@X@X@X@X@X@X@X@X}.}.@X@X@X}._._._.V.* * o < [ X.o.m + + + 5 n.m.v.v.v.c.% , T *.*.:.$.:.=.$.$.$.,.,.$.o.[ [ o.o.#.X.O.X.o.X.X.X.X.{ o.o.o.o.o.o.o.o.o.o.X.[ $.q.,.$.%.,.%.#.+.$.,.$.$.",
",.,.,.,.=.= D I.|.@X@X@X@X@X@X@X@XY.P.}.@X@XOXM.* * C L.P.Q . + + + i 4.4.B 5 m.8.% % % 2 } { *.,.,.,.,.,.,.,.:.=.,.,.,.$.o.[ [ O.O.#.o.#.O.O.O.o.X.o.o.#.#.o.o.o.o.o.o.X._ o.,.q.%.%.,.,.:.@.+.$.,.,.,.",
",.,.,.,.=.< o E U.|.@X@X@X@X@X@X@X{.Q ) @X@X+X( a g o * * o 5 4.4.4.B @ @ @ i m.8.1 }  .Y # O < ,.,.,.,.,.,.,.,.,.,.,.,.,.$.[ [ { O.O.O.O.O.#.O.O.#.o.O.o.O.O.O.o.o.o.o.[ o.,.,.,.,.,.q.,.,.q.q.,.,.,.,.",
",.,.=.=.4 H.!.A H _.@X@X@X@XOX}._./ o E }.+X+X}.Q . 5 4.4.4.B @ @ @ 6 } +.n > x.b.B # # , 5.v.z.F ; ,.,.=.=.=.=.=.=.=.=.,.,.%.[ ] { O.o.O.O. . .O.O.O.O.O.O.O.o.+.o.{ ] } a.,.,.q.=.=.%.=.=.@.q.=.=.,.,.",
"=.=.,.=.; 1.W.h o H S.U._._.H * * o   o N.@X@X@X( 5 B @ @ @ 6 Y K M } q.q.9.c j 8.z.v.v.v.c.% 2 *.} q.@.q.@.=.@.=.=.%.,.,.,.*.*.} ` {  . . .O.X. .o. .O.O.o.o.O.o.[ ] o.q.q.@.9.@.@.q.@.9.@.q.@.=.=.=.=.",
"=.$.%.=.- o & J } r O & * * o   k 4.4.4.v N.@X[.!.<.6 ' Y Y ' ' ] $.q.%.@.9.q.c @ @ % % % 2 }  .=.9.@.q.@.q.%.q.=.=.,.%.*.,.,.,.+.} ` { X.O.X. .o.O.o.O.o. .O. .[ ] o.,.q.q.@.q.@.q.@.9.@.9.@.q.=.=.%.,.",
"=.,.$.=.+.| } +.q. . .1 N 4.4.4.k @ @ @ s d ~ ^./.1.4  .O.| ] ]  .q.q.%.9.@.%.@.} T T | } } %.@.%.=.@.@.%.%.9.@.=.*.,.,.$.,.*.,.9.} { Y {  .X. . .o. .X. . . .[ ' | *.,.q.@.%.q.@.q.=.%.@.@.@.@.=.:.=.=.",
"@.@.*.%.*.$.*.@.%.@.@.T 1 @ @ @ l U m M ' ' g & * 0 ' | | ] ` { q.q.%.@.@.@.9.9.%.9.@.9.@.9.@.9.@.@.9.@.@.q.%.%.$.$.*.*.=.*.$.$.9.9. .Y ` {  . .{  . . .{ { { U } =.,.=.@.%.@.%.@.%.@.=.9.@.9.9.@.@.@.@.",
"@.@.#.+.$.@.+.O.#. .9.@.| ' } | | 9.O.U ] { ' L U Y |  .] ` | ,.@.@.@.@.@.%.+.@.%.@.9.+.@.@.%.@.@.%.@.+.O.@.%.+.#.O.+.+.@.@.O.@.9.+.9.+.` ` ]  . .{ { | | { ` ' ,.=.@.@.@.$.@.@.@.9.@.%.@.9.@.%.@.@.+.@.",
"O.| | | O.+.o.o. . . . . . . . . .#. .| ` U ` ' ' ' ' ` L O.,.+.+. .O.O. .O. .9.+.+.+. .9. .@.%.@.+. . . .O.+. .| | | O.O.O.| O.+.O. . . .` L ` ] ` ' ' ` _ ] q.@.+.O.O.O.O.O. .+.@.O.+.+. .+.#.%.@.O.| ",
"+.O.+. .+.#.+.+. . . . .+.+.+.+. . .#.+.O.U Y ' { { U U #.=.=.+. .O.+.+.O.+.+.#.O.O. . . . . . . .O.O.+.O.O.+.+.+. .O. .O.+.+.o. . . . .#.O.` ` ` | { ` _ ] ,.$.@.+.o.#.+. .+.@.+.O. . .| O. . .O. .O.+.",
"+.@.@.#.+.$.@.+.#.+.+.+.+.+. .@.+.@.+.+.+.{ ` ` ` ` U  .=.=.@.@.@.+.+.+.+.+.@.@.+.+.#. .+. .O. . .#.@.+.#.@.@.+.@.+.+.O.+.#.@.+.9.+.+.+. .9. .] U ` ` Y | @.=.+.@.@.+.+.#.+.#.@.+.+.@.+. .+.+. .O.O.+.#.",
"@.@.@.@.+.@.@.@...+.@.@.@.@.@.@.@.@...@.+.@.' ` L ` } ,.=.+.+.+.@.@.@.@.+.@.@.@.@.@.@.@.@.@.@.@.@.@.@.@.@.+.@.@.@.+.@.@.+.@.+.@.@.@.@.+.@.@.@.| ' M ` [ @.,.@.@.@.@.@.*.*.+.*.+.*.+.@.*.+.*.@.@.@.+.@.@.",
"@.+.@.+.@.@.@.+.@.@.+.@.+.@.@.@.@.@.+.@.@.#.*.' L ' ,.*.+.*.+.*.+.+.@.@.@.+...@.@.@.@.@.@.+.+.+.@.@.+.+.+.@.+.@.@.@.@.+.@.@...@.@.@.@...@.+.#.@..._ _ =.@.+.@.@.@.@...+.+.+.+.+.+.+.+.@.+.@.+.+.+.+.+.+."
};
