/* XPM */
static char *result[] = {
/* columns rows colors chars-per-pixel */
"50 50 226 2 ",
"   c #000000",
".  c #0C0000",
"X  c #020A0A",
"o  c #170900",
"O  c #001C07",
"+  c #19150A",
"@  c #030319",
"#  c #071B17",
"$  c #1B1A17",
"%  c #2A0807",
"&  c #01231D",
"*  c #2B2E02",
"=  c #28261B",
"-  c #000F26",
";  c #031726",
":  c #26052C",
">  c #1F2122",
",  c #1D2736",
"<  c #013634",
"1  c #173835",
"2  c #282825",
"3  c #2E2E2D",
"4  c #373327",
"5  c #383735",
"6  c #413F33",
"7  c #334128",
"8  c #3E4A35",
"9  c #424536",
"0  c #001E4D",
"q  c #003E4F",
"w  c #1E394A",
"e  c #2C3646",
"r  c #2E334C",
"t  c #283D58",
"y  c #133A65",
"u  c #46374F",
"i  c #483A62",
"p  c #64366E",
"a  c #1A514D",
"s  c #314650",
"d  c #255B58",
"f  c #384A69",
"g  c #31536D",
"h  c #286665",
"j  c #346C6D",
"k  c #377878",
"l  c #444646",
"z  c #4D4C4C",
"x  c #4C544A",
"c  c #55534B",
"v  c #474755",
"b  c #4F4D51",
"n  c #545553",
"m  c #595958",
"M  c #5B5C5C",
"N  c #615B55",
"B  c #67655E",
"V  c #454966",
"C  c #43536B",
"Z  c #545766",
"A  c #435572",
"S  c #4F5777",
"D  c #485A77",
"F  c #685268",
"G  c #4C6A74",
"H  c #5C6473",
"J  c #51627D",
"K  c #646463",
"L  c #666966",
"P  c #6B6B6B",
"I  c #6D746A",
"U  c #71716D",
"Y  c #7B7A6D",
"T  c #6B6E74",
"R  c #747472",
"E  c #7B7B74",
"W  c #76787A",
"Q  c #7C7C7A",
"!  c #828077",
"~  c #83837C",
"^  c #415D86",
"/  c #4D6485",
"(  c #4C658B",
")  c #536584",
"_  c #556586",
"`  c #556984",
"'  c #5B6A84",
"]  c #556A8D",
"[  c #5A6E8B",
"{  c #5C718E",
"}  c #566C91",
"|  c #596E92",
" . c #5D7294",
".. c #5E759B",
"X. c #6A6882",
"o. c #687488",
"O. c #7C7B84",
"+. c #617693",
"@. c #647996",
"#. c #6D7E97",
"$. c #627699",
"%. c #657A9C",
"&. c #697D9C",
"*. c #717E97",
"=. c #5F78A0",
"-. c #657CA2",
";. c #697EA1",
":. c #886D8B",
">. c #8A738D",
",. c #A47DA8",
"<. c #3D8786",
"1. c #3E8E90",
"2. c #438B8C",
"3. c #4B8F91",
"4. c #489798",
"5. c #6D858A",
"6. c #6E8298",
"7. c #71809C",
"8. c #569FA1",
"9. c #6C81A4",
"0. c #6681A9",
"q. c #6983AA",
"w. c #6E85AB",
"e. c #7284A5",
"r. c #7885A4",
"t. c #7187AB",
"y. c #7189AD",
"u. c #6E89B0",
"i. c #758DB2",
"p. c #788FB4",
"a. c #718DB9",
"s. c #7991B6",
"d. c #7690B9",
"f. c #7C94BB",
"g. c #4CA4A4",
"h. c #58A9AC",
"j. c #59B5B7",
"k. c #6CAFAD",
"l. c #5FC0C3",
"z. c #65CBCD",
"x. c #6BD9DB",
"c. c #6EDFE1",
"v. c #71E4E6",
"b. c #75ECEE",
"n. c #78E9EB",
"m. c #77EFF1",
"M. c #77F1F3",
"N. c #7AF5F7",
"B. c #858582",
"V. c #8B8B85",
"C. c #878789",
"Z. c #8E8E89",
"A. c #8F8F8B",
"S. c #8E9088",
"D. c #93938D",
"F. c #97998B",
"G. c #969492",
"H. c #9B9B94",
"J. c #9E9E99",
"K. c #A19F98",
"L. c #9DA091",
"P. c #A5A59B",
"I. c #A3A39C",
"U. c #838EA5",
"Y. c #8591A6",
"T. c #8A96AB",
"R. c #8D99AD",
"E. c #8E9BB3",
"W. c #8498BC",
"Q. c #899CBF",
"!. c #909EB7",
"~. c #A685AA",
"^. c #A88EAC",
"/. c #AD8AB3",
"(. c #B495B9",
"). c #93A2BC",
"_. c #ABABA4",
"`. c #AAA9A6",
"'. c #B6B6AB",
"]. c #B3B3AC",
"[. c #B7ADB4",
"{. c #B6B6B0",
"}. c #BBBBB3",
"|. c #C2C2B6",
" X c #C3C3BA",
".X c #CAC9BE",
"XX c #839BC4",
"oX c #8B9EC1",
"OX c #BD98C2",
"+X c #8DA0C3",
"@X c #8DA3C9",
"#X c #96A6C1",
"$X c #99A9C6",
"%X c #A2B0C9",
"&X c #C59CCB",
"*X c #C99AD2",
"=X c #C7A2CC",
"-X c #CDB1CF",
";X c #D6ACDC",
":X c #D8ADDF",
">X c #DDB4E4",
",X c #E4B9EB",
"<X c #EABEF1",
"1X c #EFBEF8",
"2X c #CCCCC3",
"3X c #CACAC5",
"4X c #D4D4C8",
"5X c #D4D4CC",
"6X c #D9C0D8",
"7X c #DCDCD2",
"8X c #DBDBD8",
"9X c #DFE0D4",
"0X c #E2E2D6",
"qX c #E5E5DA",
"wX c #EBEBDE",
"eX c #E7CEE6",
"rX c #EDC1F4",
"tX c #F4C7FB",
"yX c #EDEDE1",
"uX c #E9E9E9",
"iX c #F5F5E6",
"pX c #F7F9E7",
"aX c #F7F7E8",
"sX c #FAFAEB",
"dX c #FFFFF2",
"fX c #FAFAF9",
/* pixels */
"Q.oXXXQ.Q.oXoXoXQ.#XO.U.@XoXoX>.V.I o.XXU W.H c P Z Q.Q.Q.oXW.W.oX@XoXoXoXoXoXoXoXoXoXoXoXoXoXoXW.%X",
"f.f.f.f.f.f.f.f.p.*.3.5.r.a.D 8.G   5 #.8.6.5 t ' 6 A u.f.f.f.f.f.d.f.f.f.f.f.f.f.d.f.f.f.d.d.f.a.$X",
"f.f.f.W.f.f.f.f.W.P z.k.O.y.  <.a   2 x 1.x u / -.X.  q.oXf.f.f.f.W.W.f.f.f.f.f.f.XXf.f.f.XXf.f.d.$X",
"f.f.f.f.f.f.f.f.s.K n.k.X.a.. j w   X   %   / XXy.-.5 _ y.a.f.s.p.f.f.f.d.s.XXf.f.f.f.f.f.f.W.W.d.$X",
"y.u.i.i.s.i.i.i.w.  v.g.i p.O b.3.  # 2 T 2 [ f.i.;.P o D d.i.i.i.p.a.p.y.p.p.p.d.a.y.s.p.a.i.i.;.#X",
"w.i.w.w.i.i.i.i.0.. v.g.i w.# b.2.    d b.5.4 D u.q.-.e D u.y.a.i.p.p.y.y.y.i.a.a.y.t.y.p.y.w.y.-.+X",
"i.f.i.i.i.i.i.f.y.. v.g.r y.# b.1.i S d M.k   D u.;.q.r A -.t.p.f.s.p.a.y.s.f.s.p.p.y.p.f.p.p.p.a.$X",
"p.f.s.s.i.s.s.d.i.. v.g.i f.& m.<.A | a M.h % b _ y.y.e / q.| e.p.f.p.p.f.s.s.s.p.f.f.p.p.f.p.f.a.$X",
"p.s.s.s.s.s.p.f.i.. v.j.f '   b.<.: J <.M.h Z Z @ / / , s | -...q.f.p.s.s.s.p.s.s.p.s.s.s.s.s.s.i.#X",
"p.p.s.s.p.p.p.s.y.. x.v.g.a j m.8.1 2.z.b.d J ) o c c > 4 H ..} ..q.s.s.d.d.p.p.p.p.p.s.s.s.s.s.u.$X",
"i.s.i.p.p.p.p.p.e., 4.c.N.M.M.N.M.M.N.n.j.a .   L 4X5Xn J.].  2 | -.;.a.p.p.a.p.i.p.p.s.i.p.p.s.u.#X",
"i.p.i.i.i.p.i.i.i.w.s 4.z.z.N.N.N.c.l.j.< $.C   > z z $   C.3X3XZ } ;.;.i.p.p.p.i.i.s.y.p.i.i.s.u.#X",
"i.i.p.i.i.i.p.p.i.p.6.j d h 3.<.3.k a h [ A ; 3 n l l b z L ~ U   @ - f f.W.p.i.p.i.i.p.i.i.i.p.u.#X",
"i.i.i.y.s.y.y.p.i.i.s.) t V   j   : S S J l 5 m K L L P m     B._._.J.O.y g y.s.i.i.i.i.i.i.i.i.w.+X",
"y.i.y.i.i.y.i.i.i.i...| s.e.& j.h S u.] = N L B K K m z m U H.0XsXdXaX3XY B ' t.p.y.y.i.i.y.i.i.u.).",
"w.t.t.y.t.t.t.t.t.%.| w.i.$.X h.h C )   Z K K Z K M $   `.yXsXaXiXiXiXsXaX7XB G y.t.t.t.w.w.9.y.-.Q.",
"9.q.9.9.9.w.y.q.$.| 9.s.;.] # j.j   ; X X K P L P L + `.yXaXiXaXpXaXiXiXiXiX5XE t u.q.;.;.q.9.9...!.",
"w.w.w.w.w.y.y...| ;.f.%.q.%.+ a   N V.E E             4XaXaXaXaXpXsXsXdXsXsXiX4XJ.o.t.t.w.i.y.t.0.).",
"y.y.y.i.w.y.%.} -.f.;.w.$.0   N L U H.{.{.|.|.|.|.|.J.qXsXaXaXiXsX|.F.L.L.H.yXsX{.e y.y.y.y.y.y.0.).",
"y.w.w.w.i.%.] 9.i.-.t.} Z ! ~ _._.].2XqX0XsXdXdXsXdXqXiXaXaXaXsX.X:.p p F p `.iX.X  $.w.y.y.y.y.0.).",
"t.t.t.t.%.] 9.y.9.-.$.f H.0X7X7X5XyXsXsXsXaXiXiXiXiXaXaXaXaXiX7Xu /.:X;X;X;Xp |.}.@ .. .-.i.w.y.0.!.",
"w.y.w.%.} -.y.q.%.9., P.qXaXaXaXaXaXaXaXiXiXiXiXiXaXaXaXaXsX0X  &X*X:X1X<XrXtX(.7 r $.| ..;.y.y.0.).",
"w.w.%.} %.i.9.-...@ 4XiXiXaXaXaXaXsXyX2XK.H.F.'.0XaXaXaXaXsXqX3 (.>XrXrXrXrXtX(.9 e -...}  .q.y.0.).",
"w...] ..p.-.%.%.O._.wXsXaXaXaXaXaXyX2XH.V.V.V.D.].0XiXaXaXsX0X  (.,XrX<X<X<XtX~.< +.$.$. .} | w.0.T.",
" .} $.a.$.| ;._ c 0XiXaXaXaXaXaXsX4XI.Z.D.D.D.D.G.{.iXiXiXsXwX'. X,XtXtXtXtX&XX.D %... .$.$.]  .( r.",
"] ] $.y.| +.$.o.D.iXpXiXaXaXaXiXsX XP ~ ~ Q E Q E V.iXaXiXiXsXdX0X6X*X=X=X=Xv g -...%... . .[ ] ^ Y.",
"-. .} $...%.S I.dXiXaXiXaXaXaXiXdX}.v Q m Q O.O.R U yXsXiXaXiXiXaXP.2   X   | %...$.$.$...] ] 9...T.",
"y.-.| ]  .-.f E sXiXaXsXaXaXaXiXdXP.B.fX  8XfXfX8X2 iXaXaXaXiXiX7XP.S.E , $.$.%.-.$.$.$.| ] &.p.0.R.",
";.q.;.} ] %.y ~ dXsXiXiXaXaXaXaXpXiX|.P uXfXfX3XU uXiXiXiXaXsXiX5X`.Z.E - +.%.$...$.$.} } %.s.t.=.!.",
"t.e.;.;.] } C 6 H.5XiXaXaXaXaXaXiXsXwX{.J.A.C.`.8XfXsXsXdXsXiXiX5XJ.V.E - ..$.$.-.%.| _ 6.i.9.9.0.E.",
";.;.9.e.%.| f 4 Z.7XiXsXaXaXiXaXaXiXsXaXF.F.F.{.8X X.X.X}.4XsXiXqX|.K.R ; $.;._ A A A ;.y.9.9.9...!.",
";.e.;.e.;.;.f K 2XaXaXiXaXaXsXaXaXaXaXiXdXdXdX0XD.D.Z.D.L P.sXiXsX0X{.Y - _ o.t * 4   ;.t.9.9.6.0.E.",
"e.;.e.;.;.;.;.D 3 yXsXaXaXaXaXaXiXsXiXiXiXiXiXiXiXaXaXsXsXsXiXsXiX7X].U   + + z Q ~ 3 $.9.9.;.e...!.",
"w.;.;.w.;.;.y._ 4 5XyXaXiXaXaXaXiXsXsXiXiXsXqX_.P B.5XaXsXiXiXiXsXqXJ.  $ m ~ R M U V.3 [ 9.;.9...!.",
";.;.;.;.;.;.;.;.' m wXsXiXaXaXaXsXiXiXiXsXaXiXqX7X5XC.n 4XdXiXaX0XC.3 z K V.Q K Z U U   [ t.;.;...E.",
"$.| $.+.$.%.$.%.%.f D.4XiXsXiXiXiXiXsXsXiXaXaXsXsXsX.X'._.2XsXiXwX X_.Z.> n 5 P U = 5 U Z _ $.$.( T.",
"%.%.%.%.%.$.$.%.;.e.0 Q }.5XsXsXsXiXsXaXaXaXsXiXaXpXsXdX2X}.sXaXsXdXaX3XP E 5 K T s V E * f %.&...T.",
";.;.;.%.;.;.%.;.;.%.y.D   M qXwXyXiXiXaXaXaXiXaXaXaXiXiXsXsXiXaXiXiXiXiX7X5XG.4 t &.+., > / ;.;...E.",
";.;.;.;.;.;.&.;.;.;.&.&.$.J = P {.wXpXiXiXiXpXaXaXiXpXsXsXiXaXiXiXaXiXiXiX3X4X~   $ . T *.;.&.;...R.",
"*.;.&.&.&.&.&.&.;.%.&.&.9.' $ ].qXiXsXiXD.yXsXpXsXiXD.0XsXyX7XsXiXsXwX0XiXH.J.x :.,X>X6 ] ;.;.*...R.",
"6.&.%.&.&.&.%.&.%.&.%.&.&.[ 4 qXaXaXaX5Xu [.eXeX-X>XZ 0XiX3X_.0XaXwX X{.9XS.S.* ~.tX:.J @.&.&.&...T.",
"&.%.&.&.%.&.%.&.%.&.&.&.&.[ 3 7XaXiX7XI.  &X1X1X*X:.I.7X2XK.Z.[.qX3XG.D.].S.F.B :.~.q &.&.&.&.&...R.",
"%.%.%.@.%.&.&.%.&.&.&.&.&.[ 2 I.qX7X_.~ z =X-X;X&X9  X5X`.~ A.B.}.J.V.S.V.S.! Y s q e.@.@.&.%.&.| R.",
"%.@.%.@.#.@.@.@.@.@.@.@.&.] +   ]._.~ D.S.4     9 F.~  X].V.G.A.V.V.S.V.V.V.s   Z 9.@.%.%.@.@.&.{ R.",
"@.+.+. .@.@.+.{ +.{ +.@.+.` # h.G . n H.D.S.Z.Z.S.S.D.D.S.J.&XOXW L B.!   + ' @.+.@.@.@.@.@.@.#.] T.",
"{ { { {  .{ [ [ [ [  .{  .J # h.h r J 9 I I U U I E O ~.(.*X<X<X<X^.x l ) / +.@.+. .{ +.+.+.@.@.) Y.",
"+.@.{ { @.@.+.+.{ { +.+.%._   j.h Z J % /././.(.,.z (.,X<X,X:X[.^.F s J @.6.+.+.{ { { { { [ { { ] T.",
"@.@.@.@.@.@.@.@.@.@.+.@.@.[ 8 3.d Z ] Z ,.~.,.,.>.z &X=X&XOX:.9 < w ) 6.+.@.+.@.@.@.+.+.+.+.+.+.{ T.",
"+.+.+.+.+.+.+.+.+.o. .+.+.o.H : n o. .{ X   X   1 T         ; , +.&.+.+.+.+.+.+.+.+.+.+.+.+.+.+.` T.",
"6.6.#.#.#.#.#.#.#.#.6.#.#.#.#.6.6.6.6.@.7.7.6.{ ' #.r.*.7.7.6.&.#.#.#.#.#.#.#.#.#.#.#.#.*.#.#.6.+.R."
};
