/* XPM */
static char *result[] = {
/* columns rows colors chars-per-pixel */
"100 50 207 2 ",
"   c #000000",
".  c #040A0B",
"X  c #0D0D0D",
"o  c #0A0E13",
"O  c #001717",
"+  c #0D1216",
"@  c #001E1E",
"#  c #0F131A",
"$  c #1C1C1B",
"%  c #15161D",
"&  c #100E0F",
"*  c #151C25",
"=  c #181E26",
"-  c #201920",
";  c #002E2E",
":  c #002323",
">  c #1C242B",
",  c #1E2836",
"<  c #1C2632",
"1  c #003D3D",
"2  c #17353C",
"3  c #252524",
"4  c #28272C",
"5  c #31312F",
"6  c #222D3A",
"7  c #2A2F36",
"8  c #362B36",
"9  c #2A323A",
"0  c #343533",
"q  c #3E3E3A",
"w  c #37363C",
"e  c #42423F",
"r  c #0A3B40",
"t  c #263242",
"y  c #2A3644",
"u  c #293749",
"i  c #2B394A",
"p  c #323947",
"a  c #4E394E",
"s  c #004545",
"d  c #19464D",
"f  c #02595A",
"g  c #005555",
"h  c #144952",
"j  c #39424C",
"k  c #294658",
"l  c #34465D",
"z  c #354558",
"x  c #20414F",
"c  c #3B4E63",
"v  c #354760",
"b  c #3D5269",
"n  c #3E5873",
"m  c #006969",
"M  c #09696E",
"N  c #007474",
"B  c #027D7D",
"V  c #056F70",
"C  c #4C4C4A",
"Z  c #454644",
"A  c #434C57",
"S  c #555553",
"D  c #5B5B5A",
"F  c #55585A",
"G  c #5A465A",
"H  c #65655F",
"J  c #41566E",
"K  c #4B5867",
"L  c #405672",
"P  c #445A75",
"I  c #455E7D",
"U  c #4A5F79",
"Y  c #525B65",
"T  c #785D7A",
"R  c #684C68",
"E  c #5F6367",
"W  c #596068",
"Q  c #4B617C",
"!  c #56707A",
"~  c #606060",
"^  c #6B6B65",
"/  c #61666A",
"(  c #626C77",
")  c #737371",
"_  c #7D7D75",
"`  c #7E7E79",
"'  c #75797B",
"]  c #74746E",
"[  c #82827D",
"{  c #475F80",
"}  c #456282",
"|  c #496585",
" . c #4A668B",
".. c #4D6A8C",
"X. c #4D6986",
"o. c #526A87",
"O. c #516D8D",
"+. c #596F8A",
"@. c #5A718E",
"#. c #52708F",
"$. c #4E6C92",
"%. c #516E92",
"&. c #557294",
"*. c #597696",
"=. c #5B7897",
"-. c #56749A",
";. c #59769B",
":. c #5C799C",
">. c #637388",
",. c #607D9F",
"<. c #607997",
"1. c #606E80",
"2. c #5677A1",
"3. c #5778A1",
"4. c #5C7CA3",
"5. c #5D7FA8",
"6. c #617EA2",
"7. c #825F82",
"8. c #866885",
"9. c #997598",
"0. c #008A8A",
"q. c #009B9B",
"w. c #009393",
"e. c #349090",
"r. c #00A1A1",
"t. c #00ACAC",
"y. c #00B9B9",
"u. c #00B6B6",
"i. c #18A2A2",
"p. c #6A829F",
"a. c #5F80A9",
"s. c #5F80A6",
"d. c #6381A5",
"f. c #6283AB",
"g. c #6986AB",
"h. c #6988AE",
"j. c #6884A7",
"k. c #6687B0",
"l. c #6788B1",
"z. c #6C8CB4",
"x. c #6E8FB8",
"c. c #708FB6",
"v. c #708FBB",
"b. c #6F90B9",
"n. c #6F90B7",
"m. c #7090B7",
"M. c #7293BB",
"N. c #7596C1",
"B. c #7798C3",
"V. c #7B9CC6",
"C. c #00C8C8",
"Z. c #00D9D9",
"A. c #00D1D1",
"S. c #00EDED",
"D. c #00E0E0",
"F. c #00F5F5",
"G. c #00F8F8",
"H. c #8B8B83",
"J. c #8F8F8C",
"K. c #858581",
"L. c #92928A",
"P. c #9A9B93",
"I. c #989897",
"U. c #A2A29A",
"Y. c #ABAB9F",
"T. c #A784A7",
"R. c #B685B6",
"E. c #B08DB0",
"W. c #BB95BA",
"Q. c #ABABA3",
"!. c gray67",
"~. c #B4B4AC",
"^. c #BABAAE",
"/. c #BBBBB2",
"(. c #B9B9B5",
"). c #BDACB5",
"_. c #C2C2B9",
"`. c #CACABF",
"'. c #80A1CA",
"]. c #CF97CF",
"[. c #DFA7DF",
"{. c #D4A2D4",
"}. c #ECB5EC",
"|. c #E6B3E5",
" X c #F3BBF3",
".X c #E0AFE0",
"XX c #CBCBC2",
"oX c gray80",
"OX c #D4D4CA",
"+X c #D9D9CB",
"@X c #D2D2C5",
"#X c #DDDDD2",
"$X c gray85",
"%X c #D6C1D0",
"&X c #E4C8DC",
"*X c #E5E5D7",
"=X c #E5E5D9",
"-X c #EAEADC",
";X c #F8C0F8",
":X c #F0C3EE",
">X c #EEEEE0",
",X c #E4E4E0",
"<X c #F5F5E5",
"1X c #F8F8E8",
"2X c #F8F8E7",
"3X c #F8F8F8",
"4X c None",
/* pixels */
"4X4X4X4X4X4X4X4X4X4X4X4X4X4X4X4X4X4X4X4X4X4X4X4X4X4X4X4X4X4X4X4X4X4X4X4X4X4X4X4X4X4X4X4X4X4X4X4X4X4X4X4X4X4X4X4X4X4X4X4X4X4X4X4X4X4X4X4X4X4X4X4X4X4X4X4X4X4X4X4X4X4X4X4X4X4X4X4X4X4X4X4X4X4X4X4X4X4X4X4X",
"4X4X4X4X4X4X4X4X4X4X4X4X4X4X4X4X4X4X4X4X4X4X4X4X4X4X4X4X4X4X4X4X4X4X4X4X4X4X4X4X4X4X4X4X4X4X4X4X4X4X4X4X4X4X4X4X4X4X4X4X4X4X4X4X4X4X4X4X4X4X4X4X4X4X4X4X4X4X4X4X4X4X4X4X4X4X4X4X4X4X4X4X4X4X4X4X4X4X4X4X",
"N.N.M.B.N.N.N.N.N.N.N.N.N.N.N.N.N.N.N.N.N.N.b.a.3.5.M.B.N.N.N.N.N.N.N.N.N.N.N.N.N.N.N.N.B.B.N.N.N.N.N.N.N.N.N.N.N.N.N.N.N.N.N.N.N.N.N.N.N.N.M.N.l.2.4.z.N.N.N.N.B.B.N.N.N.N.B.B.N.N.N.N.N.N.N.N.N.N.N.N.",
"N.N.N.B.N.N.N.N.B.N.N.B.N.N.N.N.N.N.N.N.B.B.a.2.3.3.3.N.N.N.N.N.N.B.N.N.N.N.N.N.N.B.N.B.B.B.B.N.B.N.N.N.B.N.N.B.N.B.N.N.i 3 Y :.B.N.B.B.N.B.N.l.2.3.2.2.z.N.N.N.B.B.N.B.N.N.N.B.N.N.N.B.N.N.B.N.B.N.B.B.",
"N.N.N.N.b.N.N.N.N.N.N.B.N.M.B.M.N.N.M.N.N.5.2.b.B.k.2.4.l.x.x.N.x.N.N.N.M.x.N.N.N.B.N.M.M.M.B.M.N.N.N.N.N.M.N.N.N.N.M.j.y   o 6 N.M.B.N.N.N.k.2.5.V.k.3.3.f.x.x.N.b.M.B.N.N.x.M.B.B.N.N.M.B.M.M.N.N.N.N.",
"z.z.z.b.b.b.b.x.z.z.b.M.M.N.M.M.b.b.b.b.k.2.x.b.l.k.5.2.5.l.x.v.z.x.x.x.M.z.M.x.b.b.z.x.M.M.m.n.z.z.z.z.x.x.b.b.z.z.c.> q 5 i M.M.b.b.M.x.k.4.f.x.N.l.5.5.3.k.z.x.x.x.b.x.x.x.x.x.b.b.z.m.M.M.m.x.z.x.x.",
"l.z.l.l.z.z.b.b.l.l.l.b.b.b.M.b.x.x.x.a.2.a.N.x.k.k.k.5.2.5.l.x.x.b.x.x.z.z.x.x.b.x.z.l.b.b.c.h.l.z.z.l.l.l.z.b.v.z.( d.y l v.v.b.6.  x.a.2.5.x.N.k.k.k.5.2.2.k.x.x.x.x.x.z.z.z.b.b.x.l.z.z.M.M.l.z.z.l.",
"b.M.M.x.z.z.b.b.x.x.x.z.x.x.b.M.b.b.a.2.5.V.k.k.k.5.5.k.3.2.5.x.M.M.N.M.z.x.M.M.M.M.z.x.M.M.M.m.b.b.b.N.x.x.l.b.M.+ o.x.z.z.x.z.M.6.     .5.N.M.k.f.f.f.k.5.2.2.z.x.M.N.b.x.x.b.M.N.M.b.z.b.M.M.x.x.b.M.",
"M.M.M.M.M.M.M.M.M.M.M.M.M.M.M.N.b.a.-.a.V.l.k.f.a.a.a.k.k.5.2.2.b.N.b.b.M.M.M.M.M.M.N.M.M.M.M.M.M.M.M.M.M.M.M.M.+ Z d.M.M.M.p./ C #     o d.x.f.a.a.a.k.f.k.a.2.2.k.b.M.M.M.M.M.N.M.M.M.M.M.M.M.M.M.M.M.",
"M.M.M.M.M.M.M.M.M.M.M.M.M.M.M.b.5.2.f.N.l.k.f.f.k.k.k.a.f.a.3.-.4.x.b.M.M.M.M.M.M.M.M.M.M.M.M.M.M.M.M.M.M.M.M.M.  >.M.M.J > w ( d.P     Q d.k.f.k.k.k.a.f.k.a.a.2.2.k.M.M.M.M.M.M.M.M.M.M.M.M.M.M.M.M.M.",
"M.M.M.m.M.M.m.M.M.M.M.M.b.b.n.a.2.f.b.z.k.f.f.f.a.k.a.k.a.f.f.a.-.5.x.b.M.M.M.M.M.m.M.m.M.M.M.m.M.M.m.M.M.M.m.m.  d.M.p 0 Y <.g.f.$.  %.c.k.f.5.a.k.a.k.f.k.f.f.5.2.4.k.M.M.v.N.M.M.v.M.m.M.m.M.M.m.M.m.",
"M.m.m.M.m.m.m.m.m.m.n.n.b.b.a.3.f.x.z.f.a.a.f.f.a.a.k.a.a.k.f.a.2.2.a.l.v.M.v.v.M.M.m.m.M.m.m.m.m.M.M.m.M.m.h.u   6 y # A g.m.h.;.;.P x.f.f.f.f.a.a.k.a.a.a.a.k.a.5.2.2.k.x.v.x.v.M.m.m.M.m.m.m.m.m.M.b.",
"c.c.m.m.m.m.m.m.n.n.b.b.n.a.-.a.M.z.f.a.a.f.a.f.a.a.a.f.a.f.a.f.a.2.-.5.z.x.M.M.m.m.m.m.m.m.m.m.c.m.m.m.@.z A _   ^ _ $ 6 O.z.-.2.z.M.f.f.a.a.a.a.a.a.a.a.f.a.a.f.f.3.2.2.z.x.x.v.m.m.m.m.m.m.m.m.m.m.m.",
"c.c.m.m.n.n.m.m.n.n.n.b.a.3.3.B.f.f.f.a.f.a.f.a.k.a.a.f.f.a.f.a.a.k.2.-.3.x.z.M.m.m.c.c.m.m.m.m.m.m.m.>.Y _ _ _   ^ _ $   l 2.-.M.z.a.5.a.f.f.f.k.a.a.k.a.f.f.f.a.f.6.5.-.2.x.x.z.c.m.m.m.m.m.m.m.m.m.m.",
"c.c.c.c.n.c.c.n.m.n.x.4.-.s.M.l.f.5.s.a.a.f.d.f.a.f.a.f.a.f.a.s.a.f.5.2.2.2.x.z.m.c.c.c.z.m.m.z.c.+.Q 9 q P.L.3 3 3 3 3 X < n M.z.f.a.s.a.f.s.f.f.a.a.a.a.a.a.a.a.6.f.a.3.-.2.k.m.m.m.m.c.m.m.m.c.m.m.m.",
"c.c.c.c.z.c.z.c.n.z.4.-.a.n.l.a.d.5.f.d.5.s.5.5.f.a.4.a.d.4.5.s.4.4.4.4.-.-.4.l.c.c.z.c.c.z.z.*.o.j q q q 3 X C ~ ~ ~ E 5 % p &.f.d.f.d.5.5.d.s.5.f.s.5.s.s.a.s.5.5.4.4.4.2.-.-.f.c.z.c.z.z.z.m.z.z.c.m.",
"h.h.h.z.h.h.z.h.l.5.-.6.l.l.6.6.5.5.5.5.4.5.4.4.4.4.;.4.4.3.3.4.4.3.-.3.2.-.$.s.l.h.z.h.l.l.=.7 $ Y.1X1X>XQ.3 $ S S D ~ ~ ~ Z = -.5.5.4.5.5.4.4.4.4.4.;.4.4.4.-.4.3.;.:.2.;.2.&.6.5.5.c.6.'.5.6.g.l.h.h.",
"s.d.s.f.f.h.h.f.6.%.2.v.g.3.3.2.4.3.;.3.4.;.;.;.4.:.3.;.;.3.;.3.;.3.3.-.-.2.-.-.:.d.l.f.d.&.5 +X2X1X1X1X1X1X<X@X$   C ~ ~ ~ F Z % ..4.;.;.:.4.3.;.3.3.3.3.;.-.4.;.3.3.3.3.2.2.-.-.4.6.c.6.5.5.6.d.d.a.d.",
"h.h.h.h.k.h.z.s.-.-.B.5.6.5.4.2.3.;.;.;.;.4.2.;.4.4.4.;.4.4.3.4.3.;.3.s.s.-.-.$.%.4.z.l.f.  +X1X1X1X1X1X1X1X1X1XXX$ Z ~ ~ ~ q     o 3.;.3.;.4.:.;.4.s.4.3.4.s.-.5.:.:.3.6.4.2.2.-.%.-.5.v.5.5.'.z.f.f.h.",
"h.h.z.z.z.l.s.%.3.N.5.5.6.5.5.4.6.5.5.5.5.4.5.5.4.5.5.4.a.4.4.s.s.s.s.a.3.s.4.s.-.$.-.j.) 1X1X1X1X1X1X1X1X1X1X1X@X%         0 J.L.`     %.5.5.4.4.4.4.s.s.3.s.4.5.5.3.4.5.5.4.5.6.2.&.;.5.v.6.'.z.z.z.h.",
"z.h.h.l.l.4.%.s.v.5.6.6.5.6.6.5.4.4.4.4.4.4.4.4.4.4.4.5.4.6.4.5.s.3.s.s.s.4.s.s.4.-.$...& 1X1Xq $ 3 $ ^ 1X1X1X1X<X/.@X+X+X+XOXXX^.L._ _ > + n 4.4.4.4.4.s.4.4.4.4.4.6.4.4.4.6.5.3.6.2.%.-.5.5.5.h.z.h.z.",
"h.h.z.k.s.#.s.a.5.6.6.6.6.3.4.6.4.4.4.4.4.4.4.4.4.4.4.:.4.4.4.4.;.s.s.3.4.4.4.:.s.-.-.}   1Xq 9.R.R.R.8.^ 1X1X1X<X<X<X1X2X2X<X<X<X=XXX`.~.^.Z n 4.4.4.4.4.4.4.4.4.4.4.4.4.4.4.4.6.3.3.-.%.2.5.N.h.h.h.h.",
"l.h.k.s.%.;.f.h.6.3.4.6.4.4.4.3.4.4.4.4.:.4.4.4.4.4.4.4.4.4.3.4.4.4.:.4.4.4.4.4.4.4.3.|   L.T.}.}.}.[.R.8.^ 2X1X1X1X1X1X2X2X2X2X1X2X>X>X-X>X^.F c 4.3.4.4.4.4.4.4.4.4.4.4.4.4.4.4.4.6.3.;.$.3.5.z.h.l.h.",
"h.l.a.$.-.z.a.s.4.4.2.2.4.2.4.6.4.4.4.4.4.4.4.4.4.4.4.;.4.4.4.4.3.;.s.3.4.4.:.4.4.3.s.$.  ] }.;X;X;X X[.8.q 1X1X1X1X<X*X`.^.~._.=X1X1X1X1X1X>X~.E c s.4.4.:.4.4.:.4.4.4.4.4.4.3.4.4.4.6.2.-.-.$.k.h.h.l.",
"l.s.%.%.v.6.6.3.:.3.4.4.2.3.3.3.:.4.4.:.3.4.:.4.4.4.4.4.4.4.4.4.4.4.4.4.4.4.4.4.3.:.4.%.  4 .X;X;X;X X|.7.q 1X1X1X1X=X~.P.L.H.L.~.#X1X1X1X1X1X1X/.' >.6.3.3.3.4.3.4.3.3.4.3.6.3.;.2.2.2.6.3.-.$.%.f.h.s.",
"*.%.-.l.6.-.2.2.;.;.;.;.;.;.6.;.:.-.-.;.-.;.-.-.-.-.-.-.3.2.;.;.-.-.;.-.;.-.;.4.-.-.X.p Z C T }.;X;X;X:X).P.1X1X1X1X!.[ _ [ L.L.P.^.1X1X1X1X1X1X>XU.A 3.;.-.6.;.;.;.-.2.:.3.-.:.6.-.;.;.;.-.-.;.$.-.-.%.",
"$.$.-.x.&.-.-.;.-.%.-.-.-.-.-.;.-.;.;.;.-.-.%.-.-.-.-.-.-.-.-.;.-.%.-.-.-.%.-.-.-.| K S Y.Q.0 W.T.9.E.%X2X1X1X1X1X1XK.L.J.K.` ` ` L.1X1X1X1X1X1X1X^.F @.-.-.2.-.;.-.&.-.-.-.&.*.-.-.-.;.;.-.-.-.$.$.$.$.",
"-.%.%.s.-.-.-.-.-.-.-.-.%.-.-.-.-.;.3.;.-.3.;.-.-.;.;.-.&.-.-.-.-.-.-.-.-.-.| n J y 4 _._./.` ) Z q ^ /.1X1X1X1X1X1X) oX,X~.) D ' D 1X1X1X1X1X1X1X1XXXF -.*.&.*.-.-.-.&.-.%.-.-.-.-.-.;.3.;.-.$...-.-.%.",
"l.4.$.$.2.2.3.:.;.2.;.;.6.;.;.;.;.;.;.:.;.3.4.;.;.3.;.4.;.;.;.:.:.3.3.:.;.} p 8 w 8 $ ^ J.U.Y.0 !.>X2X2X1X1X1X1X1X1X/ I.$X3X!.~ U.D 2X1X1X1X1X1X1X1X^.& :.;.3.:.3.:.:.:.2.,.-.;.;.;.6.;.;.;.%.%.$.n.h.6.",
"h.f.6.$.$.-.;.3.;.;.3.;.;.3.;.;.;.2.4.:.;.:.;.:.;.:.:.;.;.3.:.:.:.;.:.:.3.6 T {. X9.& 5 _ _.3 /.>X2X1X1X1X1X1X1X1X1X#XC I.$X$X(.C 1X2X1X1X1X1X1X<X=XQ.o :.;.;.3.;.;.3.;.3.3.;.,.;.3.;.6.6.%.%.6.m.h.f.f.",
"f.j.j.6. .$.-.;.;.6.;.;.;.;.;.;.;.;.;.;.;.;.;.;.;.;.;.-.;.;.;.;.;.;.;.;.;.;.6 R ].7.q +X  ~ ~ *X1X1X1X1X1X1X1X<X1X1X1X+XC     q 1X1X1X1X1X1X2X2X-X8.  o ;.*.;.;.;.;.;.;.;.;.-.;.;.;.;.3.%.$.6.6.g.g.j.j.",
"j.j.6.j.;.$.$.%.;.;.;.;.;.;.;.;.;.;.-.;.;.;.;.-.;.;.;.;.;.;.;.-.-.;.-.;.;.;.;.i   0 U.OX1X1X) *X1X1X1X1X1X1X+X  ) ) ) H.@X1X1X1X1X1X1X1X1X1X2X2X2X-XP.o ;.-.;.;.;.;.;.-.;.;.;.;.;.;.;.%.$.;.5.6.j.j.j.j.",
"6.6.6.6.6.;.$.%.%.;.;.;.&.;.-.-.-.*.-.*.&.-.&.&.-.;.-.;.-.;.-.-.-.-.-.*.-.-.-.-.v 0 L.P.XX2X2X1X1X1X1X1X1X1X1X1X1X1X1X1X1X1X1X1X1X1X1X1X1X1X1X1X1XP.= -.&.;.-.-.-.-.x     $ / *.-.-.-.$.-.6.'.6.j.d.d.d.",
"c.6.c.6.6.6.-.$.$.-.-.&.;.&.;.-.-.-.-.-.;.;.-.-.&.;.&.-.;.&.;.;.;.-.;.-.-.*.;.*.v 0 J.L.P.OX<X1X1X1X1X1X1X1X1X1X1X#XJ.K.(.=X1X1X1X1X1X1X1X1X1X1X=XK.> &.;.-.*.= o + f y.Z.C.i./ E %. .$.c.5.6.6.d.d.d.d.",
"6.6.6.c.5.6.6.2. . .-.-.-.&.;.-.*.-.-.*.;.&.-.-.=.-.;.&.&.-.-.&.*.%.-.-.*.-.*. .i q L.P.#X>X1X1X1X1X1X1X1X1X1X1Xq _ _.OX-X<X1X1X1X1X1X1X1X1X1X1XL.w I &.-.-.= N t.y.A.w.1 h ! o.+. .%.g.6.6.6.c.d.d.d.d.",
"6.6.6.5.6.6.6.6.3. . .&.&.-.%.%.$.$.%.-.%.*.-.-.&.&.-.%.%.&.-.&.-.*.-.&.$.*... .z 0 P.XX2X2X1X1X1X1X1X1X1X1X>XL./.OX>X1X2X1X1X1X1X1X1X1X1X1X=X` z | &.-. .= 0.D.A.N 1 k n P @... .%.g.6.6.6.6.6.6.d.6.6.",
"6.6.;.;.;.6.;.6.3.%. . .$.%.%.&. .%.%.%.$.%.$.%.$.%.%...$.%.&.&.%.%.$.%.$.%. .6.c 0 L.Q.#X1X1X1X1X1X1X1X1X1X>X_.1X1X1X1X1X1X1X1X2X2X1X2X<X`.) j U %.%.%.{   y.S.V u l u , , 7 ( %.6.6.6.,.:.:.,.,.:.;.;.",
"6.6.@.;.;.-.;.6.6.,.*. . . .$.&.-.%.%.%.%.%.%.%.$.$.%.%.&...$.%.%.%.%.%. . .3.6.J 0 L.L.~.=X1X1X1X1X1X1X1X1X1X1X1X1X1X1X-X>X1X1X2X<X=X=XH.S p P %.%...$.{   y.S.r > t d m B 0.e.1.>.6.6.,.;.;.;.*.:.;.;.",
"6.6.6.6.6.6.;.6.6.6.6.%. . .$.&.&.&.-.-.%.%.*.%.%.%.%.-.-.$.$.%.$.%.%.%. .&.g.6.Q j D L._.*X<X1X1X1X1X1X1X1X<X*X1X1X1X1X*X+X=X=X`._ ^ ^ X , P %.%.P u i t   Z.F.q.B B t.u.B B e.1.1.<.6.6.3.:.:.,.6.6.6.",
"6.6.6.6.6.6.6.6.6.6.6.6.&. . .&.&.&.%.%.%.*.%.&.%.%.-.%.&.%.-.#.&.%. . .%.g.6.6.6.c 3 P.-X1X1X1X1X1X1X1X1X1X>X/.-X<X2X2X-X!.[ [ [ C C C X t l z l x s s 1   F.G.t.q.q.q.M < p ( 6.6.6.6.6.6.:.,.6.6.6.6.",
"6.6.6.6.6.6.6.6.p.:.s.s.=.&. . .%.&.%.&.&.&.&.%.&.&.&.-.&.&.%.-.&. .{ @.d.d.p.p.&.u $ ] _.>X<X1X1X1X1X1X1X1X-XU.P.=X1X1X2X_ X + 3 P.P.P.+ : ; ; ; f 0.0.N   G.F.1 + * * u Q Q Q p.,.p.:.d.:.p.s.6.6.,.6.",
"6.6.6.<.6.6.<.6.s.d.=.p.p.:.&.|  .%.@.%.%.&.%.&.#.&.%.%.&.#.%.#.$. .*.6.d.d.=.s.c X - 5 _ XX<X<X1X1X1X1X2X<X-X^.  OX1X1X1XH.9 b . O O O O N r.r.r.V + . +   S.G.g k n I b @ @ @ *.O.d.:.:.p.:.s.,.,.,.,.",
"6.;.<.4.,.,.6.6.:.=.=.s.:.p.=.#. . .%.%.%.*.&.%.&.&.%.%.#.%.%.$. .%.6.6.s.=.:.:.c G  X{.  _ *X-X<X<X<X=XXX^.P.    P.>X1X1X2XP.. ; r.r.r.r.r + o + 6 &.&.Q + r.S.C.g @ @ f y.Z.Z.E + o.:.s.=.:.p.;.,.;.,.",
";.6.<.6.-.6.6.<.p.=.s.:.:.4.4.:. .{  .O.%.%.%.%.%.%.#.#.#.#...|  .6.6.,.:.p.:.p.c a ].R.    _ H./.XX@X[             /.1X1X2XP.; 0.        b %.&.&.&.#.%.$.#.  r.u.D.G.G.G.y.    :.:.p.:.:.:.:.s.,.,.,.,.",
":.,.:.:.,.,.;.<.s.=.=.=.s.*.*.p.:.O.} | O.O.&.O.#...#.#.#.| Q | 6.,.<.:.:.,.:.:.l     + =.,.+             ; y.y.y.y.; ~.1X&X[.W.> *.#.Q } ..%.#...#.#.O.#......           > =.:.=.s.=.:.s.=.=.=.<.:.,.:.",
"=.=.=.*.<.<.;.*.=.=.=.p.*.*.*.s.=.;...Q | o...O.#...#...| } ..p.,.<.=.;.:.=.=.=.*.o.o.o.=.=.o.X.* m r.r.r.N O O O O n 4 9..X XW.> =.=.*.} Q ..#.#.......#...| n @.+.o.o.o.X.=.=.=.=.=.:.,.=.=.:.:.<.;.<.",
"*.@.@.&.*.*.%.%.#.#.=.#.#.#.*.&.*.*.#...Q | ..| | | ..| } ..=.=.=.@.*.*.@.*.&.=.=.&.=.&.=.&.=.=.W 3 O O O 2 | Q Q Q o.o.7 - $ p | *.*.*...| } | X.| ....| } | =.=.=.&.*.*.&.*.*.=.=.*.=.*.=.=.*.:.:.%.%.",
"*.&.%.%.&.*.@.*.#.#.#.*.*.#.&.*.&.&.&.-...} } | X...} I X.s.s.*.*.*.&.&.&.*.*.*.*.@.&.#.=.&.*.*.@.P J J b P *.*.&.&.%.%.U L J P *.*.#.&.-...} } | ..X.| } | -.p.=.&.&.*.&.@.&.&.=.*.&.#.#.@.*.#.*.*.@.%.",
"*.=.*.*.=.=.=.=.&.&.*.*.*.*.*.*.*.&.*.=.=.| } } ..} }  .s.p.*.=.*.*.=.=.&.*.*.*.*.*.*.#.&.&.#.#.&.*.*.*.*.*.=.=.=.-.*.&.*.*.=.*.=.*.*.*.=.*.O.} I | ..Q | *.p.=.=.*.&.*.*.*.*.=.*.*.*.*.#.*.#.#.O.@.*.=.",
"*.=.*.=.=.=.*.=.=.:.=.=.=.=.*.=.=.*.*.=.*.=.| } I } Q s.:.*.*.*.*.=.=.=.=.=.=.=.*.=.=.=.=.=.=.=.*.=.=.=.=.=.=.=.=.*.=.=.*.*.=.*.=.:.*.*.=.=.;.O.} I I } &.s.-.=.=.=.=.=.=.=.=.=.=.*.*.=.*.=.=.=.*.*.=.=."
};
