/* XPM */
static char *result[] = {
/* columns rows colors chars-per-pixel */
"100 50 195 2 ",
"   c #000000",
".  c #06070A",
"X  c #040A0B",
"o  c #0D0D0D",
"O  c #10100E",
"+  c #0B0E12",
"@  c #001717",
"#  c #0D1116",
"$  c #001A1A",
"%  c #121211",
"&  c #18151C",
"*  c #1C1C1B",
"=  c #151C25",
"-  c #191F27",
";  c #171F28",
":  c #221F2A",
">  c #012D2D",
",  c #172029",
"<  c #1C232D",
"1  c #1A2933",
"2  c #1E2935",
"3  c #003E3E",
"4  c #153336",
"5  c #252524",
"6  c #262A2F",
"7  c #2A2E30",
"8  c #232E3B",
"9  c #362836",
"0  c #2D343A",
"q  c #333332",
"w  c #3B343C",
"e  c #3E3D3B",
"r  c #0C3D41",
"t  c #283443",
"y  c #2C3B4D",
"u  c #343A46",
"i  c #2D3E52",
"p  c #303F50",
"a  c #483B4D",
"s  c #004545",
"d  c #194B56",
"f  c #075557",
"g  c #005C5C",
"h  c #3C434B",
"j  c #284452",
"k  c #334155",
"l  c #384759",
"z  c #394A5E",
"x  c #3A4D62",
"c  c #394F6C",
"v  c #3F5266",
"b  c #3D536D",
"n  c #3E5672",
"m  c #006464",
"M  c #007373",
"N  c #007B7B",
"B  c #434746",
"V  c #4D4D4B",
"C  c #51514D",
"Z  c #594159",
"A  c #5E485E",
"S  c #4D555D",
"D  c #545554",
"F  c #5D5D57",
"G  c #5C5D5B",
"H  c #615D5C",
"J  c #62625D",
"K  c #405267",
"L  c #41556C",
"P  c #415772",
"I  c #455A73",
"U  c #435C7B",
"Y  c #4A5F79",
"T  c #684C68",
"R  c #735A7B",
"E  c #5E656D",
"W  c #4A6078",
"Q  c #4C627D",
"!  c #576877",
"~  c #5E797E",
"^  c #616161",
"/  c #696965",
"(  c #6D6D6B",
")  c #716F73",
"_  c #707170",
"`  c #7A7875",
"'  c #7D7D75",
"]  c #82827B",
"[  c #455F80",
"{  c #456283",
"}  c #4B6585",
"|  c #4E6884",
" . c #4A668A",
".. c #4D6A8C",
"X. c #546A83",
"o. c #526E8D",
"O. c #54708F",
"+. c #5C718D",
"@. c #4E6C92",
"#. c #516E92",
"$. c #557294",
"%. c #5B7696",
"&. c #5C7896",
"*. c #56749A",
"=. c #59769C",
"-. c #5C799D",
";. c #65758A",
":. c #607D9E",
">. c #5677A0",
",. c #5778A2",
"<. c #5C7CA3",
"1. c #5E7FA8",
"2. c #617EA2",
"3. c #8B7489",
"4. c #9D789D",
"5. c #008A8A",
"6. c #188484",
"7. c #009999",
"8. c #328B8E",
"9. c #00A0A0",
"0. c #09ACAC",
"q. c #00B7B7",
"w. c #00B9B9",
"e. c #6A809B",
"r. c #5F80A6",
"t. c #5F80A9",
"y. c #6381A6",
"u. c #6383AB",
"i. c #6985AB",
"p. c #6988AF",
"a. c #6687B0",
"s. c #6788B1",
"d. c #6C8CB4",
"f. c #6E8FB8",
"g. c #708FB6",
"h. c #708FB8",
"j. c #6F90B9",
"k. c #7090B7",
"l. c #7293BB",
"z. c #7898BF",
"x. c #7697C2",
"c. c #7798C3",
"v. c #799AC4",
"b. c #7F9FCA",
"n. c #00C1C1",
"m. c #00C9C9",
"M. c #00D0D0",
"N. c #00D9D9",
"B. c #00E2E2",
"V. c #00E8E8",
"C. c #00F0F0",
"Z. c #00F8F8",
"A. c #8C8887",
"S. c #8C8C85",
"D. c #909089",
"F. c #928492",
"G. c #969690",
"H. c #9B9B93",
"J. c #9A9A9A",
"K. c #A1A19A",
"L. c #ABAB9F",
"P. c #AD87AC",
"I. c #B584B5",
"U. c #BA90BA",
"Y. c #ABABA2",
"T. c #AAAAAA",
"R. c #B4B4AC",
"E. c #B8B8AC",
"W. c #BBBBB2",
"Q. c #BBBBBB",
"!. c #C3C3BA",
"~. c #C8C8BE",
"^. c #CC98CC",
"/. c #D39BD3",
"(. c #C5A2C5",
"). c #DEA6DE",
"_. c #DFBCD9",
"`. c #E4ACE4",
"'. c #EDB6EC",
"]. c #F6BEF6",
"[. c #CDCDC4",
"{. c #D3D3CA",
"}. c #D9D9CB",
"|. c #DDDDD2",
" X c #DFDFDF",
".X c #E2E2D5",
"XX c #E6E5D9",
"oX c #E9E9DC",
"OX c #F8C0F8",
"+X c #EEEEE0",
"@X c gray91",
"#X c #F4F4E5",
"$X c #F8F8E7",
"%X c #F8F8E8",
"&X c #F6EFF0",
/* pixels */
"x.c.v.c.c.x.c.c.v.c.c.c.c.v.c.c.c.x.c.c.x.c.x.u.,.t.b.x.x.x.c.c.x.x.c.c.x x +.d.c.c.x.c.c.c.c.c.c.x.c.v.c.c.c.c.c.c.c.c.c.c.c.c.x.c.c.c.c.x.c.x.f.,.>.c.x.x.x.x.x.x.x.x.x.x.x.x.c.x.c.x.c.c.c.c.c.c.c.c.",
"x.x.x.c.x.c.x.x.x.c.c.c.c.x.x.c.x.x.c.x.x.x.j.t.,.t.x.x.x.x.x.x.c.x.c.x.1 X q ! i.c.x.x.x.c.x.c.c.x.x.x.x.x.x.x.c.c.x.c.x.c.x.x.x.x.x.x.c.x.x.x.s.,.,.s.x.x.x.x.x.x.x.x.x.x.x.x.x.x.x.x.x.c.x.x.c.x.x.x.",
"x.x.x.x.v.c.x.x.x.x.x.x.x.x.x.x.x.x.x.c.c.x.<.,.,.>.>.x.x.x.x.x.x.x.x.x.y.-   . L c.x.i.x.x.c.v.v.c.x.x.c.x.x.x.x.c.x.x.x.x.x.x.c.c.x.x.x.v.x.a.,.1.1.,.s.x.x.x.x.x.x.x.x.x.x.x.x.x.c.x.x.x.x.c.c.c.c.x.",
"l.l.x.l.l.l.x.x.x.l.x.l.l.x.x.l.x.l.x.l.j.<.>.x.x.t.>.>.a.s.f.x.f.x.x.j.  D * Y x.l.y.  l.x.l.c.l.x.l.l.l.x.l.x.x.l.l.x.l.x.l.x.l.x.j.x.l.j.t.,.u.b.s.,.,.1.f.j.x.j.x.x.j.x.f.x.z.x.x.x.l.x.x.l.x.x.l.x.",
"s.s.s.s.f.f.f.s.s.s.f.l.x.l.l.j.j.f.d.s.1.,.v.j.s.a.t.,.,.a.f.f.s.f.2.  ^ i.5 P f.d.-.    <.d.s.s.s.a.a.s.d.f.j.f.s.s.d.l.x.l.l.j.j.j.f.d.t.,.d.c.s.a.u.,.,.1.s.f.j.j.j.f.j.s.j.j.d.j.s.p.f.d.d.d.s.a.d.",
"f.f.f.s.f.s.j.f.d.s.s.f.f.f.j.l.j.j.s.1.,.j.j.d.a.a.a.t.,.,.u.j.l.l.2.  :.g.=.s.I < =     < $.d.f.j.f.f.s.d.s.f.j.s.d.s.d.j.j.j.j.j.f.f.1.>.s.j.j.a.a.a.u.,.>.t.d.j.j.j.j.s.s.j.j.j.j.d.d.k.l.l.s.d.d.j.",
"l.l.l.f.f.f.l.j.j.j.j.j.f.f.l.l.j.d.t.,.a.x.a.a.a.a.a.u.1.>.,.a.l.-.t e h.g.l.Y u B K     L e.l.j.l.l.x.j.f.f.l.j.j.j.j.j.j.j.j.j.j.j.t.>.u.j.j.u.a.a.a.a.t.,.>.t.j.l.l.j.j.j.x.l.x.l.j.d.j.z.l.j.j.l.x.",
"l.l.x.j.l.l.l.l.l.x.l.l.j.x.l.l.j.<.>.s.v.u.u.t.t.t.t.a.u.1.,.>.d.o.% ;.l.l.I u S e.y.  z p.l.l.l.l.l.l.l.l.l.l.x.l.x.j.l.l.l.l.x.j.u.*.t.x.f.u.u.u.t.t.u.a.u.,.,.a.j.x.j.x.j.j.l.l.l.l.l.l.l.l.l.l.z.l.",
"l.l.l.l.l.l.l.l.l.l.l.l.j.l.l.l.<.*.a.x.a.t.t.a.a.u.u.u.a.t.t.*.,. .% l.l.p.< B :.l.2.6 l.l.l.l.l.l.l.l.l.l.l.k.j.l.k.l.l.l.l.l.j.t.>.<.v.s.a.t.u.a.a.u.t.u.u.u.*.,.a.j.l.l.l.l.l.l.l.l.l.l.l.k.l.k.k.l.",
"l.l.k.l.l.l.k.k.k.f.l.l.l.j.d.<.>.s.j.a.u.u.t.a.u.u.u.u.t.u.t.t.*.U # f.f.G 6 Q l.g.k.g.l.l.k.k.g.l.k.l.k.l.l.k.k.l.l.k.l.j.j.l.1.,.t.x.a.a.t.t.u.t.t.u.a.a.t.u.t.,.,.t.j.l.l.l.j.l.l.f.l.l.k.l.k.l.k.j.",
"g.l.l.k.k.k.k.k.l.k.k.j.x.s.<.>.d.f.s.u.t.a.u.u.u.u.a.t.u.u.a.t.1.U # a.l.# o.l.k.l.k.l.k.k.k.k.l.g.l.k.k.k.k.k.k.k.l.k.j.j.j.t.*.t.j.s.t.u.t.a.t.u.a.t.t.t.u.u.t.t.,.,.t.j.j.j.l.l.h.l.k.k.k.k.k.k.j.k.",
"g.g.k.k.k.k.k.k.g.f.k.l.s.1.*.a.l.s.t.t.t.t.t.t.t.t.t.t.t.t.u.t.i           +.l.g.k.g.g.k.k.k.k.l.g.k.k.k.k.k.k.k.k.k.k.j.j.u.*.t.f.f.y.t.t.t.u.t.t.t.t.u.t.t.t.t.t.<.,.>.u.j.j.f.g.g.f.k.k.k.k.k.k.k.j.",
"g.l.g.g.k.k.d.k.k.j.j.d.1.>.1.x.i.t.t.t.a.t.t.y.u.t.t.u.y.t.2 # _ H.* }.}.* . Q k.g.g.g.g.g.k.g.g.g.l.g.k.k.k.k.k.k.k.k.f.a.*.,.l.k.t.t.t.u.u.t.u.u.t.t.t.u.u.u.t.u.t.<.>.*.s.j.f.f.g.g.k.g.k.k.k.k.k.k.",
"g.g.g.g.k.d.d.k.k.d.d.,.*.1.x.t.t.r.t.t.t.y.t.r.t.t.t.t.2.y A.H.' V o F F %   I g.g.g.g.f.f.k.d.g.g.g.g.k.d.d.k.d.d.k.k.t.*.=.x.s.t.t.r.r.t.t.r.t.t.t.t.y.t.t.t.t.t.r.t.<.*.*.t.g.d.k.d.d.f.k.k.k.k.k.d.",
"g.d.g.g.d.d.d.d.d.d.*.*.u.j.t.r.r.y.r.t.1.r.r.r.r.t.*.j k . F ` D q 7 q q 7 o 8 o.f.d.d.d.f.d.g.d.d.g.g.d.d.d.d.d.k.d.t.*.>.l.a.t.y.r.r.y.r.r.r.r.r.t.r.r.r.<.<.r.<.<.<.,.=.*.*.2.d.d.f.d.k.d.d.k.d.d.d.",
"i.u.i.i.p.a.p.a.a.-.*.i.d.y.<.<.1.<.<.<.<.<.<.<.{ x v G F F C * * V J ^ ^ ^ q 5 u | p.p.i.u.u.u.i.i.y.i.p.p.p.p.a.a.r.*.<.d.u.<.<.<.<.<.<.r.<.<.>.<.<.=.>.<.>.<.<.>.=.=.>.>.,.*.*.1.p.p.p.u.i.u.y.u.u.p.",
"r.i.u.p.r.p.s.r.<.*.2.f.u.<.<.=.<.>.-.>.<.<.=.#.h : e $X$X%X.XH * * D D ^ ^ G ^ q , =.p.y.p.u.u.r.r.u.p.u.u.p.p.a.r.*.r.s.s.r.r.-.>.<.>.>.<.<.=.>.-.<.>.-.=.<.=.<.,.=.,.=.<.,.*.@.*.2.d.1.2.1.1.u.u.y.p.",
"p.p.p.p.p.d.p.r.*.,.l.u.<.1.<.<.<.=.>.-.<.<.<.2 ` $X$X$X%X%X%X%XXXJ.    ^ ^ ^ ^ J B # p.a.p.d.s.u.p.p.p.p.t.p.p.t.$.=.d.d.r.r.=.<.-.>.-.>.=.<.-.>.<.<.r.<.<.<.>.<.<.,.<.<.<.<.,.>.*.#.1.g.d.h.h.d.p.p.p.",
"p.d.p.d.d.s.r...,.l.2.<.1.1.<.2.<.1.<.<.<.<., H.$X$X$X$X%X%X%X%X%X#XE.  G ^ ^ ^ q       p.d.d.d.p.d.d.p.d.d.s.t.@.*.j.u.-.r.r.r.<.<.<.1.r.<.<.1.<.r.1.<.r.<.<.<.1.<.<.2.2.1.2.<.1.>.*.@.2.h.x.1.p.d.d.d.",
"p.d.d.p.d.*.@.r.l.2.1.<.<.<.<.<.<.1.<.<.<.~ [.oX$X$X$X#X%X%X%X%X%XoXR.  o o o o B ] ' ' # # O.s.d.d.p.d.p.d.r.$.*.j.r.r.r.r.r.=.<.r.<.<.<.r.r.<.<.<.<.<.<.<.<.<.<.<.1.<.<.<.<.<.<.<.,.$.*.2.1.h.p.p.p.p.",
"p.p.p.t.*.$.r.s.2.2.<.<.<.<.<.<.<.<.<.<.<.0 ~.$XL.H F H F oX$X#X%X%X}.] H.H.H.H.L.E.R.D.D F 0 t W p.p.p.d.r.O.*.d.t.r.r.-.-.r.-.<.<.<.<.<.<.<.<.<.<.<.-.>.<.<.<.<.<.<.<.<.<.<.<.<.,.2.>.@.*.<.1.p.p.p.a.",
"p.p.a.r.@.r.p.r.<.<.<.<.<.<.<.<.U y k y p . E.L.( T T T T ` }.#X%X%X%XXX%X$X$X$XoXXX.X!.R.R.` / S n p.s.r.#.r.u.p.,.-.,.,.r.r.,.<.<.<.<.<.<.<.<.<.<.<.<.<.<.<.<.<.<.<.<.<.<.<.<.<.1.<.<.>.@.*.<.d.p.p.p.",
"d.t.r.@.=.p.t.r.<.<.=.<.<.<.<.U h q e V C O D.3.4.`.).`./.Z ` }.%X%X%X%X$X$X$X$X%X$X$X$X.X|.|.|.G.h W r.@.=.r.u.r.<.r.-.-.r.>.,.<.>.<.<.-.<.<.<.<.<.<.<.<.-.>.<.<.<.-.<.2.<.<.<.<.<.<.<.2.*.#.#.y.p.a.p.",
"p.r.@.$.l.r.*.r.<.=.<.<.<.=. .; q _ H.W.!.% D (.].].].]././.9 H.%X%X%X%X$X#X.X|.|..X+X%X%X%X%X%XoXE.V v @.s.a.r.-.-.,.-.,.-.=.r.<.-.<.<.<.=.<.>.-.-.<.<.<.<.<.<.-.<.-.<.,.<.-.<.=.<.=.,.,.,.>.@.#.u.p.-.",
"#.#.*.f.=.*.=.*.*.*.=.=.=.*.;     5 D.D.D.% D (.].OXOXOX]./.9 H.%X%X%X%X%X{.K.S.D.K.{.$X$X$X%X%X%X%X}.  d.2.*.=.*.*.*.=.=.*.*.=.<.=.*.*.*.*.*.*.*.*.*.=.*.*.<.*.=.=.*.*.=.>.*.*.=.=.>.*.*.*.=.=.@.@.O.@.",
"@...$.p.*.$.*.*.*.$.*.*.#.*.*.*.*.I % S.S./ & 4.].OXOXOX]./.9 H.%X%X%X%X{.G.D.D.D.S.G.{.$X$X%X%X%X%X#X[.) :.#.*.*.*.*.*.*.*.*.*.*.*.*.=.=.*.=.*.@.*.=.=.*.*.=.*.*.*.$.*.$.*.*.$.*.*.*.=.=.*.*.*.@...@.@.",
"r.#.#.<.>.*.=.=.=.*.*.*.=.*.=.*.*.<.I % ~.D.] e 3.OX].].].&XXXoX%X%X%X%X( / / ] D.D.D.H.$X%X%X%X%X%X%X#Xo } *.*.*.*.=.*.*.*.*.*.*.*.*.-.>.*.-.=.=.*.=.=.=.*.*.*.*.=.=.=.=.*.*.*.=.=.=.>.=.=.*.@...y.r.#.",
"s.r.@.@.=.=.=.=.=.>.=.=.>.=.=.=.=.=.$.I q 5 H.S.A.3.a w F.XX$X%X%X%X%X%X^ !.Q.A.( ( ( ( %X%X%X%X%X%X%X%XW.3.%.=.=.*.<.*.>.=.=.=.*.<.-.-.-.<.=.=.=.<.-.<.>.=.=.=.=.=.=.>.,.=.,.=.=.>.=.2.=.=.#.@.*.d.a.r.",
"i.u.y.#.@.*.=.,.>.=.=.=.=.<.>.L j y p p     H.~.E.H.( ` R.+X%X%X%X%X%X%X7  X@X[.( C J.7 %X%X%X%X%X%X%X%X%XC } =.=.=.=.<.<.-.-.=.-.=.=.-.-.-.=.-.<.=.-.=.-.=.-.-.-.-.-.-.-.=.=.-.=.=.=.=.-.#.#.=.l.i.i.i.",
"i.u.i.y.@. .#.=.=.=.=.=.=.=.P a Z A a   q q R.+XXX{..X%X$X$X%X%X%X%X%X%XV J.@X&XT.J J.J %X%X%X%X%X%X%X%X%X* c #.=.=.=.=.*.=.=.=.=.=.=.=.*.=.=.=.*.-.*.=.%.=.*.-.=.=.=.=.=.=.=.=.=.=.=.=.#. .-.g.i.i.y.i.",
"y.y.y.y.<.#.@.#.=.=.=.=.=.=.t R ^.'.^.  D.H..X$XoX.X%X%X%X%X%X%X%X%X%X%X|.B J.Q.Q.J.G %X%X%X%X%X%X%X%X+XE.% n  .@.=.-.-.*.=.*.*.*.-.*.%.*.-.*.=.=.=.*.*.=.=.*.=.*.*.=.$.=.=.=.=.=.=.=.#.@.2.p.p.y.i.y.i.",
"y.i.y.i.2.-.@.@.#.>.=.=.=.=.*.2 T ^.I.  D.[.+X$X%X%X%X%X%X%X%X%X#X%X%X%X#X{.q     e %X%X%X%X%X%X%X%X#X[.    U $.@.@.*.*.%.=.*.*.*.&.*.*.*.*.%.*.*.*.=.*.*.*.%.=.*.*.=.*.$.=.*.$.=.*.@.@.2.1.d.p.y.y.y.y.",
"2.g.2.2.1.1.=.#.@.$.*.$.=.*.=.*.y   % D.{.#X%X%X%X%X%X%X%X%X%X%X' * _ _ _ S.|.%X%X%X%X%X%X%X%X%X%X%X%X%X[.* } 2.$. .@.*.*.*.*.=.=.=.=.*.%.*.*.$.=.=.=.$.*.*.*.*.*.*.=.%.*.*.*.=.#.#.@.:.2.i.2.2.y.2.y.y.",
"2.2.2.2.2.2.2.=.@. .$.*.$.*.$.$...l % D.D.[.#X%X%X%X%X%X%X%X%X%XoX}.XXXXXXoX#X%X%X%X%X%X%X%X%X%X%X%X%X%X* Y :.2.2.@. .#.*.= + + w ! $.*.*.$.*.*.*.$.$.=.*.$.%.*.%.*.*.*.*.$.=.$.#. .#.p.i.2.2.2.y.y.y.r.",
"2.2.2.2.2.2.2.2.=. . .#.$.$.@.#.#.b % D.D.K.[.oX%X%X%X%X%X%X%X%X%X%X#X|.D.G.~.oX%X%X%X%X%X%X%X%X%X$X#X|.  O.2.2.2. .= = = M 0.w.0.8.E ^ $.#.#.#.*.#.#.*.#.#.#.$.#.*.*.$.#.#.$... .#.p.2.2.2.2.2.2.2.y.e.",
"-.2.=.=.2.2.=.:.,.$. . .@.#.@.$.@.b % D.D.W.}.#X%X%X%X%X%X%X%X%X%X}.] K.R.R.}.+X%X%X%X%X%X%X%X%X%X$XXX/ y #.-.2.Y i g N N m.7.N 6.8.X.! #...#.#.#.#.#.#.#.@.#.#.$.#.#.#.#.#.#. .%.i.2.2.2.=.:.=.=.=.=.=.",
"2.-.=.-.=.=.=.:.2.2.*. . ...@.*.#.n % S.Y.+X$X%X%X%X%X%X%X%X%X%X|.R.G Y.%X%X%X%X%X%X%X%X%X%X$X$X+X[.D.8 -.<.-.I j m M.B.7.7.d 2 l ! %.$.#.#.#.#.#.#.#.#.#.#.#.#.#.#.#.#.#. . .=.y.2.-.-.-.%.*.%.%.-.<.-.",
"2.2.2.2.2.2.:.2.2.2.2.*... .@.$.$.P % D.Q.XX#X%X%X%X%X%X%X%X%X%X!.T.%X%X%X%X%X%X%X%X%X%X%X%X%XoXW.' 8 2.2.2.2.8 g m.C.5.; = i n b Y +.#.*.*.#.#.#.o.#.#.*.#.#.#.#.#.#.#.#. .#.2.y.-.-.2.y.r.-.%.-.2.2.2.",
"2.2.2.2.2.2.2.2.2.2.2.2.$.}  .#.#.L % D.D.!.XX%X%X%X%X%X%X%X%X%X%X%X%X%X%X%X#X%X%X%X%X%X#X#X}.H.B 2 2.:.2.2.2.8 g m.N.  #...r @ $ 4 ~ X.O.$.*.#.#.#.*.#.$.#.$.#.#.$.#.#.} o.i.2.<.2.:.r.r.:.%.r.2.2.2.2.",
"2.2.-.2.:.:.:.:.:.:.:.:.r.*.} } #.b % D.D.S.!.oX%X%X%X%X%X%X%X%X%X%X%X%X%X%X|.XX%X%X%X#X[.{.q   k :.:.y.:.:.:.8 g m.N.      5.B.Z.V.0.E J O.#.#.$.$.#.%.#.%.#.%.$.#.}  .#.i.2.2.r.e.:.<.e.-.r.r.:.:.:.:.",
"2.:.:.:.:.:.:.:.e.-.r.e.-.-.&.}  ...b % D.|.+X$X%X%X%X%X%X%X%X%XXX.X%X%X%X%X|.{.{.{.W.* * * o l %.:.-.:.+ % + . M C.Z.N.N.N.B.m $ 4 ! O.O.O.O.O.#.#.O.O.$.$.#.$.#.}  .#.y.r.e.r.&.r.:.:.r.e.*.%.:.:.:.:.",
":.:.:.:.:.=.:.:.&.r.&.r.&.r.-.$.}  .U   D.{.+X$X%X%X%X%X%X%X%X%X[.Y.|.%X%X%X+X] q q q K.H.K.5 & - - , - 5.5.5.3 N Z.V.3 r 3 s j I L Q ..O.O.O.O.$.#.O.O.#.#.O.$... .O.:.e.r.-.-.r.&.e.&.%.r.r.e.-.:.-.2.",
":.-.-.2.:.2.:.:.r.&.r.&.-.&.e.r.$.{ n   q H.{.+X%X%X%X%X%X%X%X%X}.D.J %X%X%X%XF 2 t o V V V * s M M M M s s s @ N Z.N.  x x x p 8 2 2 Q ..#.#.O.#.O.#.o.#.#.$.} } o.2.2.r.&.r.&.r.&.-.-.e.%.e.r.:.&.:.:.",
"&.&.:.&.:.=.&.&.&.&.&.r.r.%.-.&.=.W l A A J K..X%X%X%X%X%X%X+XoXE./ * oX%X%X%XH.S y X s s s s g M M M M 8 8 8 O M V.B.s z x x d f g g W j Q #.o.O.@.o.o.o.o...{  .:.:.:.&.&.&.r.&.r.&.-.r.*.%.%.=.:.&.&.",
"&.=.%.%.&.:.$.$.$.*.&.&.%.$.&.&.=.I * '.'.= C R.}.XXoX+X+X~.K.H.V   * H.%X%X%X%X' X s 5.5.5.5.3 = = - = $.&.-.j f 9.B.w.3 3 3 7.n.w.0.E > U  .O.o.@...o.o...Q } 2.:.&.&.=.&.&.&.&.&.&.r.%.&.r.%.&.=.%.%.",
"$.o.o.o.+.$.#.o.O.O.$.%.$.O.$.$.%.I & I.I.5 o D ' S.E.E.R.*   X $ $ $ @ }.%X%X$X] 4 5.+ + + # v %.$.O.O.o.$.$.O.p > 9.9.N.N.N.N.M O , %.O.{ U { { { } } { { { y.&.%.O.$.$.$.%.O.&.&.$.%.O.%.%.%.-.%.$.o.",
"$.%.%.o.$.%.;.*.O.O.$.*.%.$.$.%.%.v       b [ <               M q.q.q.q.  }.$X_.`.U.o o.$.O.o.O.O.$.$.%.$.$.%.%.%.L             j O.O.$.%.O.{ { { ....{ [  .:.:.&.%.$.%.&.$.$.*.*.%.O.O.O.O.$.O.O.O.$.&.",
"=.&.=.%.%.%.:.=.$.%.%.%.%.%.%.=.$.%.| | } ..{ U n i $ 9.9.9.7.s @ @ @ @ | 7 P.`.].U.+ $.%.$.$.$.$.%.=.%.%.%.=.%.%.%.| | | | | | O.%.*.%.%.%.O...U } } U | &.:.=.&.=.%.$.%.%.%.&.&.&.*.%.$.$.%.$.$.$.=.%.",
"&.&.&.&.%.;.=.&.%.&.%.&.&.:.%.;.&.=.&.&.&.&.| [ [ I B > > > > j L I I I &.I u w w a W %.&.&.&.&.&.&.&.&.&.%.%.%.%.%.%.&.&.&.&.&.%.%.&.%.;.-.&.O.} U {  .%.:.&.%.&.&.&.&.-.&.;.%.%.%.&.%.&.&.-.;.%.%.&.&.",
"%.%.%.%.%.%.&.&.%.%.%.%.%.%.%.&.;.%.&.&.%.%.=.} U } +.x z l z | %.%.%.&.%.;.L l l K %.%.%.%.%.&.&.&.&.&.%.%.%.%.;.%.&.&.%.&.&.&.%.%.%.%.%.%.%.&.o.U U :.:.&.%.%.%.&.&.&.&.&.&.%.&.%.%.&.&.&.&.%.%.%.%.%."
};
