/* XPM */
static char *result[] = {
/* columns rows colors chars-per-pixel */
"100 50 223 2 ",
"   c #000000",
".  c #00000D",
"X  c #160500",
"o  c #000012",
"O  c #101211",
"+  c #072A00",
"@  c #292517",
"#  c #04132F",
"$  c #171D24",
"%  c #27122C",
"&  c #092C2F",
"*  c #19252C",
"=  c #15393B",
"-  c #272829",
";  c #2E3C2B",
":  c #262838",
">  c #27343B",
",  c #383938",
"<  c #403F3D",
"1  c #48453C",
"2  c #000550",
"3  c #092F4D",
"4  c #033748",
"5  c #3C274D",
"6  c #263448",
"7  c #373A47",
"8  c #2A2D58",
"9  c #2A3A56",
"0  c #363C54",
"q  c #072E67",
"w  c #323B61",
"e  c #4E125A",
"r  c #663870",
"t  c #1D4C52",
"y  c #005458",
"u  c #264A4C",
"i  c #2A4A56",
"p  c #374559",
"a  c #255858",
"s  c #2A456A",
"d  c #374B69",
"f  c #355366",
"g  c #324F70",
"h  c #395376",
"j  c #117071",
"k  c #2C6666",
"l  c #346B6A",
"z  c #367777",
"x  c #4A4945",
"c  c #52544A",
"v  c #4B4E51",
"b  c #545453",
"n  c #5A5C5B",
"m  c #605F5D",
"M  c #656258",
"N  c #454A65",
"B  c #53466C",
"V  c #48536D",
"C  c #475875",
"Z  c #4B5D7B",
"A  c #545C7A",
"S  c #69476F",
"D  c #6B586B",
"F  c #5E6266",
"G  c #4C6473",
"H  c #4D617E",
"J  c #51627D",
"K  c #59647E",
"L  c #636362",
"P  c #6B6963",
"I  c #6C6C6A",
"U  c #716E69",
"Y  c #74736B",
"T  c #79796E",
"R  c #636A76",
"E  c #726C74",
"W  c #7A7B75",
"Q  c #787977",
"!  c #847776",
"~  c #86847B",
"^  c #3E5D83",
"/  c #435E86",
"(  c #7A4F84",
")  c #4E6382",
"_  c #49648A",
"`  c #4F698B",
"'  c #516684",
"]  c #5A6785",
"[  c #556986",
"{  c #51668A",
"}  c #536B8C",
"|  c #596E8D",
" . c #427E80",
".. c #5C718E",
"X. c #4E6A94",
"o. c #566D92",
"O. c #596E91",
"+. c #5D7294",
"@. c #5E759A",
"#. c #5B759C",
"$. c #70738B",
"%. c #617695",
"&. c #657996",
"*. c #687B97",
"=. c #617699",
"-. c #647A9C",
";. c #697D9C",
":. c #5D79A2",
">. c #657DA1",
",. c #697EA1",
"<. c #637FA8",
"1. c #836784",
"2. c #8B7090",
"3. c #96749A",
"4. c #9F7BA4",
"5. c #3C8787",
"6. c #389296",
"7. c #469696",
"8. c #6B809E",
"9. c #768C91",
"0. c #6680A7",
"q. c #6A81A5",
"w. c #6682AA",
"e. c #6C85AA",
"r. c #6F88AD",
"t. c #7185A6",
"y. c #7E8BA3",
"u. c #7187AA",
"i. c #7189AD",
"p. c #6985B0",
"a. c #6D89B3",
"s. c #758DB2",
"d. c #788FB4",
"f. c #738FBA",
"g. c #7790B6",
"h. c #7991B6",
"j. c #7590BB",
"k. c #7C94BB",
"l. c #4DA2A3",
"z. c #4AA7A9",
"x. c #52A9AB",
"c. c #4DB3B5",
"v. c #55B1B2",
"b. c #59BCBC",
"n. c #75AAAB",
"m. c #5CC7C7",
"M. c #62CACC",
"N. c #69D9DB",
"B. c #6CE5E7",
"V. c #71E7E9",
"C. c #72EAEC",
"Z. c #7BFCFD",
"A. c #848582",
"S. c #8A8A84",
"D. c #8E8E89",
"F. c #929186",
"G. c #92938C",
"H. c #8F8D90",
"J. c #959592",
"K. c #9B9B96",
"L. c #A09F98",
"P. c #A2A195",
"I. c #A3A29C",
"U. c #A6A99A",
"Y. c #828FA5",
"T. c #8793A8",
"R. c #8996AC",
"E. c #939CAD",
"W. c #8495B3",
"Q. c #8B9AB4",
"!. c #8097BD",
"~. c #8199BE",
"^. c #8D9EB9",
"/. c #919FBA",
"(. c #A790AB",
"). c #96A0AF",
"_. c #8FA0BC",
"`. c #96A0B0",
"'. c #99A4B5",
"]. c #92A2BE",
"[. c #9FA8BC",
"{. c #ABABA3",
"}. c #A8A8A7",
"|. c #B7B3A9",
" X c #B4B4AD",
".X c #BABBAD",
"XX c #ABAFB5",
"oX c #B8B8B3",
"OX c #BCBDB4",
"+X c #C1BFB9",
"@X c #C5C5BB",
"#X c #C6C7BB",
"$X c #829BC2",
"%X c #BD98C0",
"&X c #8EA2C3",
"*X c #95A7C5",
"=X c #96A8C7",
"-X c #99AAC9",
";X c #A8B5CE",
":X c #CDA9D2",
">X c #D3A8D9",
",X c #DCB2E2",
"<X c #E6BBED",
"1X c #88DEE0",
"2X c #C6C6C2",
"3X c #CDCDC4",
"4X c #D4D4CB",
"5X c #D7D8CB",
"6X c #DCDCD1",
"7X c gray87",
"8X c #E2E2D5",
"9X c #E5E5DA",
"0X c #EBEBDD",
"qX c #ECC1F2",
"wX c #F4C7FA",
"eX c #EFEEE1",
"rX c #F1E6E9",
"tX c #F5F5E6",
"yX c #F7F7E8",
"uX c #F7F8E8",
"iX c #FBFBEB",
"pX c #FFFFF1",
"aX c #FBFBFA",
/* pixels */
";X&X-X*X*X=X*X=X*X*X-X*X*X*X*X*X*X*X*X*X*X*X*X^.W.~.-X-X*X*X*X*X*X*X*X*X*X*X*X*X=X=X*X*X*X*X*X*X-X*X*X=X*X*X*X*X-X*X*X*X*X*X*X*X*X*X*X*X*X*X*X-X*XW.W.*X-X*X*X*X*X*X*X*X*X*X*X*X=X=X*X*X*X*X*X*X*X*X&X;X",
"*Xp.j.f.f.f.f.f.f.f.f.f.f.f.f.f.f.f.f.f.f.f.a.:.X.X.p.f.f.f.f.f.f.f.f.f.f.f.f.f.f.f.f.f.f.f.j.j.f.f.f.f.f.f.f.f.f.f.f.f.f.f.f.f.f.f.f.f.f.f.f.p.g s ' e.f.f.f.f.f.f.f.f.f.f.f.f.f.f.f.f.f.f.j.j.j.j.a.&X",
"-Xj.k.k.k.~.~.k.~.~.k.k.k.$X$Xk.~.~.$Xk.k.k.e.>.<.,.,.j.$X!.k.$X!.$X!.$X!.!.$X!.k.$Xk.k.k.k.~.k.$Xk.k.k.k.$X$Xk.k.k.$X~.$Xk.k.$X!.!.k.$Xk.~.~.,.N X x V u.~.~.~.k.k.k.~.~.~.~.~.k.$Xk.k.k.k.k.k.$Xk.j.-X",
"=Xf.k.k.h.h.k.k.h.k.k.k.k.h.k.h.k.h.j.k.h.<.@.s.$X<.=.>.<.s.s.h.s.d.k.d.h.i.f.k.k.k.k.k.k.k.k.k.k.k.h.k.h.k.h.h.k.k.h.k.k.h.k.h.k.j.k.h.k.d.e.@.| , . 6 O.e.,.q.k.s.j.k.j.j.s.d.k.k.k.k.k.k.k.k.k.k.f.*X",
"/.0.r.r.i.g.s.a.e.r.s.s.h.k.j.s.s.s.s.r.>.@.d.~.u.e.,.>.>.<.d.d.i.i.s.s.s.i.s.s.s.s.r.a.s.s.i.r.r.r.r.e.r.s.s.s.s.e.i.s.s.h.k.h.s.s.s.s.d.<.=.{ , L * =.e.<.d p s.s.s.s.d.s.i.s.s.s.s.a.i.s.h.i.a.i.w.^.",
"_.w.s.e.r.r.s.s.r.r.r.s.s.s.s.s.r.s.s.>.@.s.k.s.,.e.e.<.=.>.<.d.s.s.f.s.<.s.s.s.g.s.e.e.s.g.s.r.i.a.s.s.e.r.r.s.s.r.r.p.s.s.s.s.d.s.s.s.>.>.} @ R >.0 >.>.O.d   V r.s.s.s.i.i.r.g.g.s.e.e.i.h.i.e.s.w.^.",
"*Xs.h.g.s.s.s.g.s.s.s.s.s.s.s.h.d.s.>.=.e.$Xr.<.e.e.e.e.<.=.>.a.d.k.k.h.s.s.h.k.h.h.s.s.g.j.h.s.s.h.h.h.s.s.s.s.s.s.s.s.s.s.s.s.j.d.s.<.@.u.+.7 e.w.>.>.p - $ O   Z k.h.d.d.s.j.h.h.h.s.s.g.h.h.s.h.s.*X",
"*Xa.h.g.g.g.h.g.h.f.h.h.f.h.k.h.j.>.@.<.$Xe.,.e.<.,.<.,.,.<.#.@.i.j.f.h.h.h.h.h.g.g.g.h.h.g.h.h.h.h.h.h.f.h.s.h.d.j.h.h.j.h.h.f.d.j.e.@.e.=., R e.e.q.p 1 *.V   p e.d.k.d.d.j.d.h.h.j.h.h.g.h.h.g.h.a.*X",
"].s.h.h.h.h.h.h.d.h.h.d.g.g.h.g.,.o.p.~.<.e.e.<.<.<.e.<.,.e.,.@.>.a.s.d.h.h.h.d.h.h.h.d.d.d.d.h.d.h.h.h.h.h.d.h.d.h.h.h.h.h.h.g.h.e.o.>.$X' 7 ,.q.>.p x &.r.d p :.@.r.s.s.j.d.d.h.k.d.d.h.d.h.h.h.h.p.*X",
"*Xi.h.h.d.d.d.d.d.d.h.s.s.h.s.>.O.i.~.e.e.,.,.e.q.e.,.,.e.<.<.,.@.>.a.h.d.h.h.f.d.d.d.d.d.d.d.d.d.d.d.d.d.d.d.g.d.d.s.d.d.s.s.g.w.o.w.k.s.H p <.q.R X | q.q.+.@.e.@.@.e.j.s.d.j.d.d.d.d.h.d.d.d.d.s.s.].",
"].r.h.i.d.s.d.d.d.h.d.s.j.s.>.o.i.j.e.e.<.<.u.<.,.e.<.e.<.,.<.e.>.@.=.<.h.s.d.d.d.d.d.s.d.d.s.s.d.d.h.d.d.d.h.d.d.d.d.h.s.s.g.q.+.e.j.e.s.' 0 j.e.< H >.e.,.e.e.e.<.>.#.e.s.d.s.d.s.d.s.h.h.s.d.d.d.a.].",
"].r.h.d.d.i.s.d.s.s.s.g.s.<.o.r.k.a.>.e.e.,.,.e.<.e.e.,.e.e.e.e.<.>.@.>.e.d.s.d.s.s.d.s.s.d.s.s.s.s.i.d.d.i.h.i.s.s.s.s.f.s.q.#.0.g.g.s.X.# # q 2 * r.r.>.e.0.0.,.<.>.@.@.r.s.s.s.s.d.s.i.d.s.d.s.d.a.^.",
"].e.g.s.d.i.d.s.s.d.s.s.,.@.,.k.e.>.e.,.,.e.,.e.e.e.e.<.<.e.,.,.,.<.>.@.@.a.s.s.s.s.d.s.s.s.s.s.s.s.d.i.s.s.i.h.s.s.s.s.s.e.o.<.h.h.^ q H.~ c |.P.- / ,.e.0.q.e.e.,.e.<.@.@.e.s.s.d.s.s.d.s.s.s.s.d.r._.",
"].r.s.s.s.s.s.i.s.i.s.>.o.<.k.e.,.e.,.<.,.<.e.<.,.,.,.e.,.<.e.<.<.,.,.>.@.@.a.d.s.i.i.s.s.s.s.s.s.s.i.d.g.i.h.i.s.s.i.s.q.+.-.k.g.+.A.~ OX{.P 8X3X    =.e.,.q.q.e.,.q.>.>.@.#.e.s.s.s.s.s.i.s.s.i.d.e.].",
"].e.g.i.s.i.s.i.i.s.>.o.e.k.e.>.,.<.<.,.<.e.>.>.,.>.>.,.>.>.>.>.,.=.>.>.>.O.@.e.d.i.d.i.s.s.s.s.i.i.s.i.i.s.i.s.i.i.s.q.O.q.k.@.O.  OXuX{.  ,     @ O { 0.q.>.>.>.>.@.>.=.@.@.+.q.s.s.i.i.s.i.i.s.s.e._.",
"^.:.u.e.e.e.u.e.u.>.o.q.s.>.>.>.,.>.,.>.,.>.>.>.>.>.@.>.>.>.=.=.>.>.=.=.@.@.o.=.<.u.u.u.e.,.,.q.r.e.e.t.u.e.r.u.e.i.0.o.>.e.-.v x c x   - L L L L F - X } >.@.-.>.@.>.@.@.-.@.#.@.,.e.e.u.u.e.q.0.r.:.Q.",
"Q.#.t.q.0.q.i.r.>.{ ,.W.<.>.>.@.>.@.@.@.>.>.@.@.>.>.=.@.>.=.:.>.>.@.>.>.>.@.+.o.#.,.i.i.,.,.,.<.q.q.q.q.q.q.e.r.e.;.O.<.;.7 x 8XtX0X6X~   v L L L m m m - ' ;.=.>.@.@.=.-.-.=.@.o.O.>.u.<.,.,.<.q.q.:.W.",
"^.w.i.r.e.u.i.-.o.>.k.<.>.,.>.>.=.>.>.>.=.>.>.>.>.,.>.>.>.>.>.,.=.@.>.>.>.>.>.@.O.>.,.,.s.i.h.i.e.e.t.r.e.e.r.i.0.o.r.o.I 8X9XuXiXuXtX0X5XG.  < L D L F m 7 [ 0.-.>.>.>.>.<.>.=.>.O.@.e.i.u.i.i.i.i.<.Q.",
"/.w.i.u.i.a.-.o.>.d.,.>.,.,.<.>.>.>.,.,.>.>.>.>.>.>.>.>.>.,.>.>.>.>.>.>.>.>.>.,.@.O.@.<.s.<.i.i.i.i.i.r.i.i.s.q.o.;._ I 8XpXiXtXtXtXtXiXuX9XG.- I I I P x   o ' r.>.>.,.>.>.>.,.>.>.o.O.u.i.i.i.i.i.e.^.",
"/.0.i.r.i.-.} >.d.>.>.>.>.>.>.>.>.>.>.>.>.>.>.>.>.,.>.>.>.>.>.>.,.,.>.>.>.>.>.>.>.>.O.>.,.i.i.d.i.r.u.r.u.i.>.} @.q.J.6XiXiXiXiXpXuXtXyXyXeX}.          n Y Y F 3 Z e.e.>.>.>.>.>.>.>.o.@.,.u.a.i.i.0.^.",
"^.<.i.r.-.} -.g.,.>.>.>.>.>.>.>.>.>.>.>.>.>.>.=.=.>.>.>.>.=.>.,.>.>.>.>.>.>.=.>.>.>.@.o.@.,.<.,.t.r.r.e.t.q.+.>.~.J P.aXeXU.U.U.U.eXiXtXtXtX3XP..X.X.X.X.XoXK.Y M n 9 h e.>.>.>.>.>.>.@.o.@.>.s.u.i.w.Q.",
"^.w.u.-.} 0.i.e.>.>.>.>.>.>.>.>.>.=.>.>.>.>.>.>.>.>.>.=.>.>.>.=.>.>.=.>.>.>.>.>.>.>.>.@.o.=.,.d.t.r.r.r.q.h d g / o P.tXP.r r r S U.0XiXtXuXtX0XpXpXiXiX9X9X5X X XI.~ Q C ,.>.:.>.>.>.>.=.o.O.,.i.e.<.^.",
"^.0.>.o.=.s.r.@.>.>.>.=.=.>.,.=.>.>.>.>.>.>.>.>.>.>.>.>.>.>.>.>.>.>.>.>.=.>.>.>.>.>.>.>.=.o.@.,.r.r.r.0.H b c U ~ 1 D.+X2.,X,X,X>X( I.0XuXyXtXyXtXtXuXuXiXiXiXeX6X7X9X5XU g >.>.>.>.=.>.>.@.o.O.0.u.w.Q.",
"Q.#.O.+.g.q.=.-.=.=.>.>.>.=.-.,.>.=.>.=.=.>.=.=.>.=.=.>.>.=.,.-.@.>.=.>.>.>.=.>.=.@.>.=.=.O.o.+.q.r.;.Z   Y F. X4XJ.  (.wXqXqXqX>X>Xe .XpXtXuXuXtXeX9X9X9X0XtXuXyXyXyXtX5X~ / @.>.=.=.>.=.>.@.O.+.e.<.T.",
"y._ @.s.>.O.=.=.+.@.=.=.@.=.=.=.@.@.@.+.+.@.+.@.%.@.@.@.=.-.=.=.@.+.@.=.=.@.=.;.=.@.@.=.+.=.@.o.O.o.{ : : : Y D.D.P   (.wXqXqXqXqX>Xe .XiXtXuXuXeX@XG.S.S. X9XtXyXyXuXtXiXtXY [ ,.=.@.@.%.+.=.=.} O.` y.",
"y./ %.u.@.+.@.@.@.+.@.+.+.+.=.@.O.=.-.=.@.=.@.+.+.=.=.+.@.@.+.@.@.O.+.+.@.+.+.@.+.@.=.-.+.@.+.O.} o.} o.e.>.6 M J.S.; $.qXqXqXqXqX,XS OXiXtXiXeX+XS.S.D.D.S. X9XuXyXtXtXuXtX5X! { @.@.=.=.@.+.+.| } / y.",
"Q.X.O.@.=.=.@.@.=.=.=.=.=.=.=.=.=.=.-.=.=.>.=.=.=.=.=.=.=.=.=.=.@.=.=.@.=.=.@.=.=.=.=.=.=.+.{ +.u.,.>.o.#.@.-.3 L. XS.Y ! <XqXqXqXrX0XtXiXtXiX8XI I E S.D.D.S.3XiXtXyXyXyXuXyXW C >.=.&.=.=.@.} } u.:.Y.",
"/.:.=.{ @.=.=.>.=.-.-.=.-.-.=.=.>.=.=.>.=.-.=.-.>.,.=.-.=.=.>.=.=.-.=.>.=.=.*.=.>.=.=.>.=.o.O.,.d.i.,.@.O.=.,.+.R 1 D.oX! J.D B 1.9XiXuXuXtXiX6XQ 7XOXY I P v @XpXtXyXyXtXuXuX9XK.| >.=.>.=.| O.;.d.,.W.",
"Q.>.,.=.o.O.=.=.=.=.=.-.-.-.=.=.=.=.-.-.=.-.=.-.=.=.=.=.*.=.*.=.=.-.=.=.=.=.-.=.@.=.=.=.| O.t.s.,.,.u.i.4     9 #   Q 6X6X.X{.#X5XeXtXtXtXtXiX5XL aXaX7X, 2XH.P.pXtXyXyXyXuXtXpXJ.d t.=.=.O.| ;.d.t.>.W.",
"W.>.u.,.O.} O.>.=.-.=.=.=.=.=.=.=.-.=.=.=.=.&.=.=.=.=.=.=.=.=.=.-.=.-.=.=.-.=.-.>.=.=.} } t.u.t.,.,.>.B 4.%X:XD c U I.yXrX4XtXiXpXuXtXuXtXtXiX9XJ.K.aXaX7X}.}.8XyXyXyXuXtXuXuXpX~ q t.%.o.{ ,.d.,.,.-.Q.",
"Q.>.,.,.,.O.{ O.=.=.=.=.=.=.=.=.=.=.=.=.&.&.=.=.=.=.=.=.=.=.=.%.&.%.%.@.=.=.=.=.>.+.| } u.u.q.8.,.t.;.C 2.,XqX1.c K.3XiXtX9XyXyXtXtXuXuXiXpXpXpX9XJ.}.}. XI.6XpXtXyXtXtXyXtX9X Xc C >.| { ,.i.q.,.,.&.W.",
"Q.=.,.t.,.,.+.{ O.=.=.=.=.=.%.=.=.%.%.+.%.@.+.=.=.%.%.%.=.%.%.@.@.%.@.%.%.%.&.=.O.| } u.i.,.q.q.q.q.q.t.s 1.3.D S.3XeXtXtXyXyXyXyXyXyXuX5X.X#X@X@XoXD.S.~ 0XiXtXyXyXyXyXuXyX8XJ.@ C O.{ ,.u.t.,.i.d.e.Q.",
"Q.>.u.,.,.,.,.O.{ O.+.=.=.=.%.=.%.=.%.=.%.=.%.=.%.=.%.%.%.%.@.=.%.%.@.@.&.@.%.+.} } ,.u.,.,.,.,.,.,.,.,.u.V   Y {.6XyXuXyXtXuXyXtXyXtXiX#XW I.L.I.+XiXpXpXyXtXyXyXyXyXyXyXyXuX3XR g o.&.i.u.u.q.] A V Y.",
"Q.,.,.,.u.,.,.,.O.{ O.+.@.+.%.+.+.+.+.=.+.%.+.%.%.+.%.@.+.@.%.%.@.%.@.=.+.%.O.] } ;.u.,.,.,.,.,.,.u.,.u.q.u.0 Y D.I.4XtXyXyXyXyXyXyXyXyXyXiXpXtX9X9X0XtXtXyXyXtXyXyXyXyXtXyXyXM w O.=.s.,.| O.[ u z j D.",
"R.=.,.,.,.,.,.,.-.} ' O.+.+.O.O.} O.O.+.O.O.+.%.+.O.@.| | +.+.+.%.+.+.O.| +.| { ,.u.,.,.,.,.,.,.,.,.,.,.,.,.0 U G.D.{.8XyXyXtXyXyXyXyXyXiXtX6XOXA.S.4XeXyXyXyXtXyXyXtXtXyXyX3Xb N >.i.,.A = u l b.V.B.M.",
"T.X.=.%.=.-.-.=.;.=.{ ' } | O.+.| O.O.| } | O.O.O.} O.} | } } +.| | | O.| } { ,.t.-.-.&.-.=.*.=.%.%.=.*.+.+.6 T S.#XiXtXyXyXtXyXyXyXyXyXiX@X$ I.tXtXtXyXyXyXyXyXtXyXyXtXuXeXP s ,.t.,.V k M.C.C.V.l   9.",
"R.@.=.>.-.-.=.-.,.,.-.} ) } +.+.O.+.O.+.O.| O.O.} | O.+.+.} | +.} O.O.O.{ { ,.,.-.-.;.-.=.=.&.@.-.,.-.=.-.,.6 P  X7XiXyXyXtXyXyXyXyXtXiX@X{.0XeXyXyXyXyXyXyXyXyXyXyXtXtX3XI d ,.,.,.V k M.V.x.k a ..| Y.",
"Q.@.,.,.,.;.;.>.,.,.,.=.} ) } +.+.+.O.=.+.| +.O.O.O.+.+.+.+.+.} O.+.+.{ { >.,.,.-.-.,.,.;.-.-.>.,.,.,.,.,.,.0 U J.OXeXiXyXyXyXtXyXyXyXuX9X9XpXyXtXyXyXyXyXyXtXtXtXiXeXU.n s =.t.;.,.N k N.N.i | ] N   D ",
"R.=.,.,.,.,.,.,.,.,.,.,.&.} ) } +.| +.+.O.%.%.+.+.%.+.+.+.+.+.+.+.| ' ' =.u.,.,.q.>.,.,.>.,.q.-.,.,.,.,.,.,.6 E G.S.{.9XyXtXyXtXyXyXyXyXiXiXtXtXyXtX6XtXiXtXpXtX9X3XW - d &.u.q.,.s.V a N.N.  5 5 5.m.1X",
"R.+.,.;.,.;.;.;.;.;.;.;.q.-.[ ' | %.O.+.%.| | +...| %.O...+...+.O.] ] =.t.;.,.;.;.;.;.;.;.;.8.-.;.;.;.;.;.,.] b Y  X6X0XyXyXyXyXyXyXyXuX0X0XiXtXyXtX4X6X9XeXOXW ! b   Z ;.i.t.V 0 N X 7.V.V.m.m.m.C.c.n.",
"R.=.,.;.;.;.-.;.&.8.&.8.8.8.&.' ' | +.| +.| ..%.........+.| ....{ ' &.q.8.&.8.8.8.8.-.8.&.8.-.8.-.;.;.;.8.*.t.p M 2XyXyXyXyXyXyXuXuXtXiX4XOXtXtXyXyX6X{.G.J.D.D.J.W * N V N N z 5.7.& l.Z.C.m.m.b.b.f $.",
"R.@.;.-.;.;.-.;.8.&.8.#.8.-.8.@.' Z } ..| +.| | +...+...| +...[ ' &.,.;.-.8.-.-.&.-.-.-.8.&.8.&.;.;.-.;.;.*.q.3 + G.4XeXtXtXtXyXtXtXtXiX5XJ.2XyXtXyXyX1     A.oX.XF.  z z z l 6.7.l.u l.1XM.  5 5 5 h 9.",
"R.O.;.-.;.*.;.;.*.8.*.8.&.8.8.8.%.' Z | ....| %.......| +...) H &.,.;.;.-.-.&.8.-.8.8.&.8.&.&.8.-.;.;.&.;.&.} $.1.E J.4XiXyXyXyXuXiXtXtX8XT ~ tXyXyXtXP.K 7 & y y y z l.l.l.l.p % 7   7.Z.N.f ] ] ] 4 9.",
"R.@.;.&.;.-.=.&.&.&.&.&.&.@.&.&.;.%.' H | | | | | | | | [ ) ) +.q.;.&.-.8.&.&.&.&.&.-.&.&.*.&.&.&.&.;.=.;.;.& %XwX(.  |.eX0XtXtXtX9X@X@XS.  P 3XiXtXyXiXW   7.x.l.x.7.% : - - ..;.8.C k m.B.x.l k l c.1X",
"T.| 8...&.&.%.%.....8.8.+...&.*.&.*...H H [ | | [ [ | | ' G &.8.*.&.&.&.%.&.&.&.&.&.8.%.&.&.8.&.&.&.&.+.%.*.= 3.:X2.  b A.G.#X3X#XP   > = u o Q eXyXyXtX! 6. .X > $ p %.%.....*.=.*.;.B l v.b.V.B.V.B.n.",
"T.H ..[ +.+...| ..[ ....+.| ......%.%...H H J ' [ [ [ ) H &.8.+.....%.........*.@.+.+...&.....8.@.+.....| %.p X % N +.G O - , , < *   5.v.x.v.6.U tXyX:X<X2.t q.| ] ..%.%...&...&.&...&.V & = u u a & $.",
"Y.} &.| ..%.%.%.........&.+...&.....%.&.%.H H ) [ [ ) G +.8.+.+.%...%.%...&.&.+.+.....| ..[ | [ ....+.&.......K [ | %.] | G # 7.z.l.v.z = u u u f U :X<XwX1.f 8.%.%.+...%...%.%.+.+...+.[ J J C Z A C Y.",
"R.+.8.*.8.8.*.*.*.&.8.&.8.8.*.8.*.*.*.*.*.%.[ ' [ [ H &.8.8.8.8.*.&.*.*.*.*.*.*.8.*.*.&.8.&.&.&.%.*.*.8.&.8.8.8.8.8.*.*.8.*.n l l l l G K K K A J s r ! ! K 8.8.;.*.*.*.*.*.*.8.*.*.*.*.*.8.*.8.*.8.&.T.",
"y.^ } } } } ` } ` ` ` } ` ` } ` } ` ` ` ` } _ g s g _ +.o.` ` } ` ` } ` } ` } ` ` } } } } } } ` [ ` ` } ` } ` ` ` ` ` ` ` } J p 9 w 8 H #.} #._ h h 4 4 q _ | ` } ` } } } ` [ ` ` ` } ` } ` ` ` [ [ ^ y.",
"XXE.).).).).).).).'.).).'.).).).`.`.'.).`.`.`.E.T.R.'.`.`.`.`.`.`.).`.`.`.`.`.`.`.`.`.`.`.`.`.`.).).).).).).'.).).).).).).).`.'.'.'.].'.).E.E.`.E.T.R.[.[.`.).).`.).).`.`.`.`.).'.`.).).'.).).).).`.).[."
};
