/* XPM */
static char *result[] = {
/* columns rows colors chars-per-pixel */
"50 100 219 2 ",
"   c #000000",
".  c #0F0000",
"X  c #00010A",
"o  c #160003",
"O  c #0C1404",
"+  c #050217",
"@  c #00191A",
"#  c #2B110A",
"$  c #280417",
"%  c #04231D",
"&  c #003318",
"*  c #2B2302",
"=  c #242218",
"-  c #1A1A28",
";  c #331B27",
":  c #072627",
">  c #182C2B",
",  c #0B3134",
"<  c #272826",
"1  c #342F35",
"2  c #2B3435",
"3  c #373738",
"4  c #433E2C",
"5  c #46443A",
"6  c #524E3F",
"7  c #000042",
"8  c #390042",
"9  c #003742",
"0  c #0B304E",
"q  c #342C4C",
"w  c #253B59",
"e  c #383D55",
"r  c #002C60",
"t  c #4D3E65",
"y  c #0F474F",
"u  c #1A534E",
"i  c #1C5552",
"p  c #1A5C58",
"a  c #37424E",
"s  c #3A475D",
"d  c #225552",
"f  c #275A5A",
"g  c #315957",
"h  c #3D4B65",
"j  c #385564",
"k  c #274E7D",
"l  c #3B5575",
"z  c #08736F",
"x  c #34656A",
"c  c #317471",
"v  c #494948",
"b  c #50514F",
"n  c #494A55",
"m  c #5B5C55",
"M  c #585558",
"N  c #5B5B5C",
"B  c #63565D",
"V  c #64635D",
"C  c #444C68",
"Z  c #48566A",
"A  c #565462",
"S  c #495B76",
"D  c #515C78",
"F  c #6C5071",
"G  c #5D6167",
"H  c #4D617E",
"J  c #52637D",
"K  c #5B677C",
"L  c #646463",
"P  c #6D6C66",
"I  c #696B6A",
"U  c #706F67",
"Y  c #6C736E",
"T  c #737567",
"R  c #72736B",
"E  c #656B74",
"W  c #737473",
"Q  c #7B7B75",
"!  c #7D7B7A",
"~  c #82837B",
"^  c #878B7F",
"/  c #465F84",
"(  c #7B5E80",
")  c #4E6383",
"_  c #48638A",
"`  c #516583",
"'  c #546986",
"]  c #5A6981",
"[  c #526689",
"{  c #556A8C",
"}  c #596D8D",
"|  c #5B708E",
" . c #556D92",
".. c #596E91",
"X. c #526E99",
"o. c #5D7293",
"O. c #5B7498",
"+. c #5D759A",
"@. c #657388",
"#. c #767485",
"$. c #617695",
"%. c #657996",
"&. c #6B7C97",
"*. c #617799",
"=. c #647A9C",
"-. c #697E9D",
";. c #5D78A1",
":. c #657DA1",
">. c #6A7FA1",
",. c #89758B",
"<. c #8C6B93",
"1. c #927794",
"2. c #3D8384",
"3. c #479798",
"4. c #708B89",
"5. c #6C819E",
"6. c #78859D",
"7. c #6580A6",
"8. c #6B81A5",
"9. c #6681A9",
"0. c #6C85AA",
"q. c #6F88AE",
"w. c #7285A5",
"e. c #788AA6",
"r. c #7186AA",
"t. c #728AAD",
"y. c #6E8AB2",
"u. c #758DB2",
"i. c #788FB3",
"p. c #748FB9",
"a. c #7790B6",
"s. c #7991B6",
"d. c #7691BA",
"f. c #7C94BB",
"g. c #7D98BF",
"h. c #4EAAAA",
"j. c #55AFB1",
"k. c #56B3B4",
"l. c #5CB3B4",
"z. c #59B8BA",
"x. c #77BBBA",
"c. c #5CBEC0",
"v. c #5CC1C2",
"b. c #63CBCD",
"n. c #67D6D8",
"m. c #6CDDE0",
"M. c #6DE8EB",
"N. c #74ECEE",
"B. c #74EEF0",
"V. c #76F2F4",
"C. c #79F7F9",
"Z. c #868781",
"A. c #8B8C85",
"S. c #8F8E88",
"D. c #92928B",
"F. c #989D8C",
"G. c #9A869B",
"H. c #999992",
"J. c #9B9B93",
"K. c #9CA190",
"L. c #A2A29C",
"P. c #AAAA9F",
"I. c #838DA4",
"U. c #8692A7",
"Y. c #8894A7",
"T. c #8A95A9",
"R. c #8D9AAD",
"E. c #8F9CB3",
"W. c #8199BE",
"Q. c #899BBA",
"!. c #919EB5",
"~. c #919FB8",
"^. c #AA99A8",
"/. c #AF8BB2",
"(. c #B692BA",
"). c #8FA1BE",
"_. c #94A2BC",
"`. c #A6A7A2",
"'. c #ACACA3",
"]. c #AFAFAA",
"[. c #B4B4AC",
"{. c #B7B8AA",
"}. c #ABADB1",
"|. c #BCBBB4",
" X c #BEC2B1",
".X c #C0C1B5",
"XX c #C4C4BB",
"oX c #CBCABD",
"OX c #829BC1",
"+X c #B89BC1",
"@X c #8DA0C1",
"#X c #94A5C3",
"$X c #99A9C4",
"%X c #99AAC6",
"&X c #A9B6CD",
"*X c #C698CE",
"=X c #D1A7D8",
"-X c #E5BBEB",
";X c #8EEDEF",
":X c #CDCDC4",
">X c #D1CFC2",
",X c #D2D2C5",
"<X c #D4D4CA",
"1X c #D7D8CA",
"2X c #DBDBCE",
"3X c #DEDED1",
"4X c #E1D7D8",
"5X c #E2E2D5",
"6X c #E6E6D9",
"7X c #EAEADE",
"8X c #EDC3F3",
"9X c #F6C9FC",
"0X c #EFE4E7",
"qX c #EEEFE2",
"wX c #F7EAEE",
"eX c #F5F5E7",
"rX c #F7F7E8",
"tX c #FBFBEC",
"yX c #FFFFF3",
/* pixels */
"}.e.R.Y.Y.Y.Y.U.Y.Y.Y.Y.Y.Y.Y.Y.Y.Y.Y.Y.Y.Y.R.6.6.I.R.Y.Y.Y.Y.Y.Y.Y.Y.Y.Y.Y.Y.Y.Y.Y.Y.Y.Y.Y.Y.Y.Y.R.",
"U._ | | | | | | | | | | | | | | | | | |  .| { l l H o.o.| | | | | | | } | | ' | | | | | | | | | ' o.",
"R.o.&.%.%.5.$.$.O.%.%.%.+.4.%.5.&.%.%.5.$.$.J ` H H ' 5.5.%.%.5.$.5.%.5.%.%.5.o.&.%.%.%.5.%.%.%.4.5.",
"R.o.%.$.$.%.$.4.o.$.o.%.$.%.o.o.| $.$.%.o.H H ' } ' H ' 8.%.%.$.o.o.$.o.$.+.4.o.$.| | | | } } } o.5.",
"Y.) | | | $.| | | | o.o.| | $.| o.o.$.| ` ) ` [ ' ' J H ' 5.%.o.%.| | | o.o.$.%.o.o.o.%.$.$.%.*.' o.",
"R.{ %.| %.%.o.| | | %.o.| $.%.%.%.%.| J D ' ' ' ' ' } ' H | -.5.%.| 5.o.$.$.$.5.$.$.%.%.%.%.%.%.$.%.",
"R.O.5.%.5.5.o.o.5.$.%.5.%.=.%.&.%.$.' J { | | @.| } | } ' H | &.5.5.5.o.%.5.%.5.%.5.-.%.%.%.&.%.%.5.",
"R.O.5.O.%.%.5.5.%.5.%.=.5.%.5.%.$.` H } | } | } | | | } | ' H ' 5.5.5.o.5.o.5.%.=.-.%.-.&.=.-.-.%.8.",
"!.+.-.-.-.=.-.-.5.%.-.=.-.5.=.+.` ` ' @...o.} o.| o.o.o.@.o.{ ` ' 8.5.5.-.-.=.=.-.-.-.=.-.=.-.=.=.6.",
"R.$.-.-.-.-.-.=.%.5.-.-.-.-.=.' ` } ..o...o.o.o.o.o.} ........' H | 5.5.-.-.-.-.%.>.-.-.=.-.-.-.5.5.",
"!.+.>.-.-.-.-.-.5.=.5.-.5.=.' ' } o.o.o.| o.@.o.| o.o.@.o.o.o.o.{ ` | 8.8.&.-.-.-.-.-.-.-.-.-.-.=.5.",
"!.+.>.>.>.>.=.>.5.5.7.5.+.{ ) } o...o.o.o.o.o.o.o.o...o.o.$.o.o.o.{ ) o.w.8.-.-.-.5.-.7.-.>.>.>.5.w.",
"!.*.>.>.>.>.-.:.>.>.>.=.' )  .o.o.o.o.o.$...o...} o.o.o.$.......o.o.{ ) +.8.8.-.-.>.>.>.-.=.-.>.7.8.",
"R.O.-.=.-.=.*.=.>.>.=.{ [ } o.o.o.o.o.o.......} } } o.o.....} } } o.o.{ ) $.0.=.*.=.>.=.*.*.*.>.=.5.",
"T. .*.$.$.*.=.=.=.*.{ [ { { ..o...o...{ ..............} ..} ....{ } |  .} [ o.t.=.=.=.*.*.*.*.o.o.%.",
"E.+.>.>.>.>.>.>.=.{ ` ..o.o.....{ ..o.o.} ..o.o...o...} ....$.o.o.+.o.| o.| [ o.t.>.>.>.>.>.>.>.-.w.",
"~.:.w.>.8.>.r.>...[ ..o.*.+.o.o.o.o.$.+...$.$.$.+.$.$...+.$.+.+.*.$.$.o.o.o.} [ =.r.r.>.>.>.>.r.>.w.",
"E.:.w.>.>.r.>...[ ..*.*.+.*.*.*.*.*.$.$.*.$.$.+.$.$.$.*.$.$.$.$.$.*.$.$.*.*.+...[ &.r.>.>.w.>.>.>.w.",
"E.+.8.w.>.>...{ ..*.*.*.$.$.$.o.$.$.*.$.$.+.*.$.$.$.$.*.*.$.*.+.+.$.$.$.*.$.*.$.} [ :.r.t.>.w.>.8.r.",
"!.:.8.8.>...{ ..*.*.*.*.*.*.*.*.*.*.*.$.*.*.*.*.*.*.*.*.$.*.*.*.*.*.*.*.*.*.*.*.*...{ >.i.>.>.w.>.w.",
"@X:.>.>.O.[ ..:.*.*.*.=.*.*.*.*.$.*.*.=.*.*.*.*.*.*.=.*.=.*.=.*.*.$.=.*.=.*.*.*.:.*...{ -.i.>.>.>.w.",
"~.>.>.+.{ O.*.*.*.=.*.:.=.=.*.:.:.=.=.*.=.=.=.=.*.*.*.=.*.*.=.*.=.=.=.=.*.*.=.=.+.*.*... .=.i.>.8.r.",
"#X*.+.[ +.:.=.*.*.=.:.*.=.=.*.*.*.*.*.=.*.:.=.=.*.:.*.:.=.=.=.=.*.:.*.:.*.:.:.*.*.:.*.*...{ =.t.w.w.",
"~. ...+.*.*.+.*.+.*.*.*.*.*.*.$.$.:.:.=.*.=.$.+.*.:.*.*.*.*.*.*.*.*.$.+.*.*.*.*.*.*.*.:.*. .{ 0.8.=.",
"I./ +.>.*...+.+.+.o.+.o...+.+.+.+.*.*.*.o.*.+...*.*.*.+.+.+...+.+...+...+.o.+.o.o.*.:.O.O.*... .{ ..",
"U._ +.W.*.+.*.*.+.+.=.*.+.*.=.=.+.+.*.+.+.+.o.+.$.*.+.+.:.$.*.*.+.+.*.*.+.*.>.*.+.+.*.o.*.*.......$.",
"@XX...+.t.>.*.:.:.*.>.*.*.=.=.:.:.*.>.*.*.=.=.=.>.*.>.*.=.=.=.:.=.*.:.=.*.:.=.*.*.=.=.-.*... .>.0.>.",
"~.:.:. .:.p.>.:.:.:.*.:.:.:.:.:.:.:.:.:.:.:.:.:.:.:.:.:.:.:.:.:.:.:.:.:.>.:.:.:.:.:.:.+... .>.0.r.t.",
"~.>.t.:. .:.t.>.*.>.:.:.:.:.:.:.:.:.:.:.:.=.:.:.:.:.:.:.:.:.:.:.:.:.:.:.:.:.:.:.=.:.=.....:.q.0.0.i.",
"#X>.t.u.:.{ :.t.>.:.:.:.=.:.>.:.:.:.:.:.:.:.:.:.:.:.=.:.:.=.:.:.:.:.:.:.:.:.=.:.>.+.X.O.>.t.t.w.0.t.",
"#X>.p.>.>.:. .:.d.:.:.:.:.:.>.:.:.:.:.>.:.:.:.:.:.:.>.:.>.:.:.:.:.:.:.:.:.:.:.:.:.O. .>.0.0.0.t.w.t.",
"~.>.t.t.t.p.:.{ :.W.:.>.:.:.:.:.>.:.>.:.:.:.>.>.:.:.:.:.:.:.>.:.:.:.>.:.>.>.:.:.O...7.u.0.u.t.t.t.i.",
"~.:.t.0.0.t.q.:. .>.f.>.:.>.:.;.*.:.;.:.:.:.:.:.:.:.:.:.:.:.:.:.=.:.:.:.:.:.+.....>.0.0.0.u.t.w.9.u.",
"~.;.0.>.>.9.t.>.:.X.>.s.>.+.:.:.:.:.+.:.;.:.+.;.:.:.+.+.:.;.;.:.*.*.*.:.:.O.O. .:.r.0.>.>.>.9.>.>.t.",
"~.:.r.0.0.0.r.r.r.:. .>.p.:.:.:.:.:.:.:.:.:.:.:.:.+.:.:.:.+.:.:.:.O.*.;.;.+...:.r.0.r.0.0.>.9.0.8.t.",
"#Xy.u.u.u.u.u.t.t.u.:...q.s.q.>.:.>.:.>.>.>.>.:.>.:.:.>.:.:.:.:.:.:.:.*.+...>.u.u.q.u.u.p.u.u.u.u.i.",
"_.0.i.u.u.t.u.u.u.t.i.:. .>.OX:.0.>.9.0.>.>.:.:.>.>.y.>.:.>.y.y.:.:.:.*.O.>.a.u.u.t.u.t.t.u.u.t.u.i.",
"#X0.i.u.u.t.u.u.i.u.u.u.>.X.>.OX:.0.0.>.y.>.y.y.>.>.>.y.y.>.:.:.q.:.:.;.>.p.u.u.u.i.i.u.i.u.u.u.u.i.",
"#Xq.i.u.u.i.u.u.u.u.u.p.u.:.:.>.f.0.:.0.y.:.>.y.:.>.:.y.y.>.:.:.>.:.+.>.u.u.a.u.u.u.i.u.i.u.i.u.u.i.",
"#Xq.s.i.i.u.i.i.i.i.i.u.a.y.:.X.u.p.y.:.>.y.:.:.y.y.:.>.>.:.y.:.:.;.:.u.i.p.a.i.i.u.i.u.i.i.i.i.u.W.",
"_.u.s.s.s.i.u.s.i.i.i.a.i.a.u.>.X.u.a.q.>.0.0.:.>.:.:.:.y.:.>.:.X.>.a.a.u.d.s.i.i.u.i.s.i.i.i.i.p.U.",
"$Xu.s.s.s.s.i.s.a.a.a.a.a.a.s.a.:. .u.f.0.:.:.0.y.:.y.:.y.:.:.;.:.d.a.a.s.a.s.i.s.s.i.s.i.i.i.s.u.W.",
"$Xy.d.a.a.s.s.s.a.a.a.a.a.a.a.a.i.:.O.q.OX:.0.0.:.:.:.>.>.:.;.:.s.s.d.s.s.a.s.a.d.d.s.a.s.W.s.s.i.f.",
"#Xu.s.u.u.t.a.u.u.u.u.u.u.q.a.a.u.u.:.;.p.OX0.:.y.>.y.>.:.;.:.d.d.s.a.i.u.a.s.a.s.u.t.u.d.d.u.a.i.W.",
"_.9.t.0.0.q.u.u.0.r.q.u.i.i.u.i.y.u.q.:.;.q.OXq.:.q.>.:.:.>.q.u.i.u.u.y.q.t.u.y.u.t.>.u.u.p.>.q.0.u.",
"_.9.t.u.u.i.u.q.t.t.u.d.s.d.a.u.i.u.i.q.>.;.a.a.y.:.:.:.:.q.u.p.q.u.u.i.u.u.u.u.u.u.t.u.u.u.t.t.q.i.",
"%Xd.f.f.d.f.d.f.s.d.f.f.d.f.W.s.d.f.d.W.p.:.+.f.p.:.:.>.p.u.a.a.a.s.f.f.i.a.f.OXd.W.s.d.d.W.d.W.f.W.",
"%Xp.f.f.f.f.f.f.W.f.f.f.d.W.d.W.d.W.f.f.f.p.:.:.;.:.:.f.f.d.f.f.d.OXf.f.d.f.f.f.OXd.d.W.W.d.W.d.f.W.",
"%Xd.f.g.f.f.f.g.f.f.f.f.f.f.f.g.f.g.f.f.f.g.d.>.+.0.f.f.f.W.f.g.f.f.f.f.W.f.f.f.f.f.f.W.f.f.f.f.f.W.",
"%Xp.f.d.s.s.f.f.f.f.f.f.f.f.f.f.f.f.f.f.f.d.f.0.:.p.f.u.s.s.i.i.d.W.f.f.s.s.f.f.f.f.f.s.f.f.f.s.d.W.",
"R.| %.%.@.5.%.5.%.%.%.%.%.%.$.%.&.&.%.%.%.%.%.{ ` o.=.$.%.$.%.#.-.-.%.&.%.%.%.%.%.%.%.%.%.%.%.%.%.-.",
"T.} %.%.$.%.$.@.%.%.%.%.%.$.5.J   : $.%.$.%.} ) S ' %.-.$.%.&.0   Z &.$.%.%.%.%.%.%.%.%.%.%.%.%.$.&.",
"R.| 5.$.%.%.%.%.$.$.$.%.$.%.S W (.1.Z $.&.| H H ` D ) &.8.$.Z <.(.,.l 5.$.%.%.$.%.%.$.%.4.o.o.o.$.&.",
"Y.| %.| $.$.%.%.@.$.@.$.$.5.9 1.9X*X$ j | H ) ' } ' H ' %.S   +X9X/.@ &.$.%.%.$.$.| } | | | } | $.5.",
"T.) | | o.$.| | } } | $.| $.i <.-X*XB ; C H ` ` ` ` D H Z ; n (.-XG.9 $.| } $.%.| o.@.$.| | o.5.} @.",
"R.} $.+.%.%.$.| $.o.$.%.$.| *.@.1.8X-X=XF   +       +   F *X-X8XG.K %.@.L . m @.%.%.%.%.5.o.5.o.$.&.",
"R.O.5.%.%.%.=.$.%.%.%.-.$.5.J X v ^.G.,.! Q Q Q Q Q Q ! ! ,.G.^.L   S $.1 3.g D 5.=.%.=.=.%.o.5.%.5.",
"R.o.%.=.5.=.5.5.-.%.%.=.8.H N V Y Z.R Y Z.D.D.D.D.D.D.D.Z.R R Z.R V G h % k.i Z 5.=.%.5.%.5.5.=.%.5.",
").O.5.=.=.5.5.%.-.-.-.>.| a R H.D.S.D.D.S.A.S.A.D.S.A.A.S.D.D.A.D.H.Q   > j.d D 8.%.&.-.5.5.5.=.=.8.",
"R.o.5.=.5.=.%.%.-.-.-.%.3 Q D.A.S.D.S.S.S.S.D.S.S.S.S.D.S.S.A.S.S.S.Z.M : j.u D 8.-.-.-.5.+.=.5.=.6.",
"E.o.5.5.-.-.8.5.5.5.=.  |.L.Z.S.H.XXD.A.S.Z.Z.S.D.A.^ Z.A.S.A.:XJ.A.D.Q : j.d D 8.-.5.&.-.&.&.-.5.8.",
"_.O.8.8.>.8.C } q.o.A P.6X<XJ.D.XXqXXXS.L.:X2X[.A.].1X,X'.S.|.7X<XJ.J.'.@ j.d D t.$.s 8.>.8.0.7.=.8.",
").+.J H 8.H 5 s J a 3 6XeXqX:X|.qXeX0X[.:XqXeX3X].2XrXeX<X}.6XrXqXXXXX,X  j.d e [ C 3 S =.' S ' 7.6.",
"E.O.3 v }   L b   = A.eXeXeX0X5XtXeXrX3XqXtXeXeX3XeXrXrXqX3XrXrXrX6X7X5X  j.g o O 4 U   H A . a -.5.",
"R._ Y ~   + ~ ~ > ~ yXeXeXeXeXeXeXeXrXeXeXeXrXeXeXrXrXeXrXrXeXrXeXeXtX3XX j.f v I W Z.<   Q P w $.&.",
"_.;.K < N N L Z.m Q tXeXeXeXrXeXrXeXeXeXrXeXeXrXrXeXeXeXeXeXrXrXeXeXtX3XX j.f   L Z.L N m 1 Z 8.-.w.",
"R.7.J * A.L N W v ~ tXeXeXrXeXeXeXeXrXeXrXeXeXrXeXeXrXrXeXrXrXrXeXeXtX3X  j.g   v W N L Z.5 h r.-.w.",
"_.=.$.A Y V Q N   ~ tXeXeXeXeXrXrXeXrXeXeXrXeXeXeXrXeXeXeXrXrXrXeXeXtX2XX l.y U R n ! V T A } 0.>.w.",
"!.:.t.>.> G ,.W = ~ tXeXeXeXeXrXrXrXeXeXeXeXeXrXeXrXrXeXeXeXrXeXeXeXtX3XX k.9 ].`.  Z.E q { q.5.>.t.",
"~.:.>.>.>.*.  ,X|.P tXrXrXrXeXrXrXrXeXeXeXeXeXrXeXeXeXeXrXeXeXeXeXeXtX3XX l.9 `.`.  - =.t.8.8.6.>.w.",
"~.:.>.>.} , oXtX{.T tXtXrXeXtX3X~ m eXtXeXeXeXeXrXeXrXeXeXeXrXeXrXeXtX3XX l., :X|.V 3X2 | a.8.8.>.w.",
"Q.:.>...[   5XyX'.W tX|.eXrXrX7X,X.XJ.5XtXeXeXeXeXeXeXeXrXeXrXeXrXrXtX3X  l., :X.XR eX= ) =.i.8.>.t.",
"#X;.+.[ o.+ 2XyX].P 7X~ 3XrXrXwX0XwX  <XtXeXeXeXrXeXeXeXeXeXeXeXeXeXtX3X  z., ,X.XV eX< ) ..+.u.t.8.",
"E.{ } :.$.X 2XyX|.P  XL.|.7XtX3X*X-Xq 1XtXeXeXeXrXeXeXeXeXeXeXeXeXeXtX3X. h.0 :X|.A.7X< { O.' >.>.*.",
"U./ +.>.+.X 4XtXtX>Xb eXJ.5X4X=X9X-X1 2XtXrXeXeXeXrXeXeXeXeXeXeXeXeXtX5X    (.F K.tX6X1 [ *.} { { ..",
"T.[ *.i.%.  6XtXtX,Xv qX<XT (.9X-XF V 5XtXeXeXtXeXeXeXrXeXtXeXeXeXeXtX3X    =X<.F.yXqX* { :.} o...%.",
"@X;.....u.{ D.4XyX:X< rXqX'.,.1.<.m oXqXrXeXeXeXeXeXeXeXeXeXeXtXeXeXtX3X    -X<.K.rXF.J o. .o.8.w.>.",
"@X:.>. .+.s.r J.7X5XD.,XeXeX{.T ^ .XeXeXeXeXeXeXeXeXeXeXeXeXeXeXeXeXtX3X  p +X^.].{.7 -.o. .7.q.0.t.",
"~.:.t.:.} +.W.r F.rX5X  4XtXrXtXtXtXeXeXeXeXeXeXtXeXeXeXeXeXeXeXeXeXtX3XX z.O XX X+ 0.}  .7.q.r.0.t.",
"#X:.t.t.:.{ =.t.] * < < 6XtXeXeXeXeXtXtXtXeXeXeXeXrXeXtXtXtXtXeXeXeXtX4XX j.j o S =.} O.5.t.r.r.0.i.",
"_.9.t.t.q.>. .:.0.| `   :XeXrXeXeXtX~ V m L.qXtXyXyXeX[.m P P eXtXeXtX4X  k.d C ......9.t.q.t.q.>.i.",
"_.9.t.t.q.t.:.} =.f.8.H #.3XtXrXqX'.P.'.'.J.S.'.P.P.D.D.'.P.P.P.6XtXtX2X  k.d / :. .7.u.q.t.t.q.t.i.",
"_.:.r.w.7.t.t.7. .+.a.y.  oXrXtX5X  eXtXyX<Xm R P R m oXyXtXtX3 ,XtXrX1X+ j.d C +.0.w.0.w.t.t.0.>.i.",
"E.;.0.8.7.8.w.8.5.o.5.t.q L.6XyX6XA.7XeXeXtXtXtXtXtXtXtXeXeXeXS.3XtX6X].% k.i Z >.r.9.>.7.8.8.7.:.r.",
").7.q.q.0.w.q.&.Y W Y W e.0 {.yXeX7XZ.|.7XrXeXeXrXeXeXrXqXXX! 3XeXtX,X  2 j.d M W #.t.q.0.0.0.w.0.t.",
"_.q.a.t.u.t.i.w.6.8.&.} w.7.E {.tXeX2X6XeXrXeXeXeXeXeXrXeX6X1XqXyXoXE S - j.d D e.w.t.u.u.t.u.t.u.s.",
"_.q.t.u.t.u.u.u.i.u.i.:...w.o.E oXtXyXtXeXeXeXeXeXrXeXeXrXtXyXyX,X#.l @.@ j.u } d.u.t.t.u.t.t.t.t.W.",
"$Xq.s.t.u.u.u.u.u.i.e.r.=.E e.:.b 3X2X7XeXeXrXrXrXrXrXrXrX7X3X5XP k 5.V : j.u ] f.t.a.u.u.i.s.a.t.s.",
"_.q.s.t.s.t.s.t.u.e.R W W &.+.9.i.    ].7XeXqXeXeXeXeXrXqX|.    o.:.+.*.: j.i } s.u.i.u.i.u.i.i.u.W.",
"$Xq.s.t.i.i.s.s.a.u.t.t.u.t.:.O.7.t.8.n 6 5 ~ 2XL.<XD.4 v v -.=.+.+.q.:.% j.u ] d.u.i.i.u.i.u.i.i.i.",
"$Xy.s.a.i.u.s.u.i.i.a.a.i.s.i.7.o.u.f.*./ / ' R 5 Y K / _ { 9.>.+.0.g.0.: j.u | OXs.i.i.i.i.i.a.i.W.",
"$Xq.f.a.s.s.s.s.s.s.s.a.s.i.d.i.:. .t.W.u.t.:.w h w +.u.0.0.+.O.w.5.} D . 3.% C | %.f.a.a.i.s.a.i.i.",
"$Xy.a.a.s.s.s.s.i.a.a.a.s.d.s.d.d.:.O.0.OX0.>.p.q.y.0.:.9.*.+.9.u.J & u x f x d & j u.i.a.d.a.a.t.W.",
"$Xy.f.u.r.t.u.a.u.u.q.u.t.t.u.i.u.i.:.+.0.OX0.:.:.0.:.0.=.+.0.f.a 2.z.c.B.V.V.b.l.3.- u.f.a.u.u.i.W.",
").7.q.0.q.q.u.t.0.0.q.u.i.i.i.u.0.p.p.:.;.0.OXq.:.y.>.:.O.0.u.s 2.b.B.V.C.V.C.C.C.n.3.e r.u.0.q.>.u.",
"#X9.u.u.u.u.i.u.t.u.u.f.f.d.d.i.p.i.i.u.>.:.i.f.p.:.:.;.>.p.a.o c.M.v.3.h.B.k.3.z.n.n.@ >.a.u.u.t.i.",
"%Xd.f.f.d.f.f.f.f.f.f.f.f.f.d.f.f.f.f.f.d.>.+.p.u.:.;.:.p.a.d.$ n.b.x 8   V.c # Z j.B.> t.f.OXf.f.OX",
"%Xd.f.f.f.g.f.f.g.f.g.g.f.f.f.f.g.g.f.f.f.g.:.:.:.:.>.f.g.f.f.$ n.j.t W., V.c >.o.c B.> t.OXf.f.f.OX",
"%Xy.f.d.d.d.d.d.d.d.d.d.p.p.f.p.d.d.d.d.p.p.p.:.X.:.g.d.p.d.f.  m.h.q y.  M.z } ' z N.  q.d.d.d.p.f.",
"&X@X#X#X#X#X#X#X#X%X#X#X#X#X#X#X#X#X#X#X%X#X#XOXQ.@X%XOX#X#X@XB N.x.( @XG ;X4.I.I.4.;XL Q.#X#X#X#X#X"
};
