/* XPM */
static char *result[] = {
/* columns rows colors chars-per-pixel */
"50 100 189 2 ",
"   c #000001",
".  c #06080A",
"X  c #0E0E0E",
"o  c #0B0F14",
"O  c #0C1116",
"+  c #0E1218",
"@  c #121211",
"#  c #16191B",
"$  c #1C1B1B",
"%  c #20201D",
"&  c #161E25",
"*  c #191F26",
"=  c #1B2127",
"-  c #1A222D",
";  c #1E2631",
":  c #1C2837",
">  c #242423",
",  c #282827",
"<  c #2B2C2B",
"1  c #30302E",
"2  c #212B34",
"3  c #232E3C",
"4  c #27303C",
"5  c #343432",
"6  c #383939",
"7  c #3F3F3B",
"8  c #42423F",
"9  c #1A3944",
"0  c #263241",
"q  c #2A3645",
"w  c #2E3C4D",
"e  c #323D4A",
"r  c #2E3F52",
"t  c #4E394E",
"y  c #074749",
"u  c #005151",
"i  c #005C5C",
"p  c #145054",
"a  c #3C444C",
"s  c #34455A",
"d  c #34465C",
"f  c #24515E",
"g  c #354861",
"h  c #3B4D62",
"j  c #2B5A64",
"k  c #3D516B",
"l  c #066A6A",
"z  c #007C7C",
"x  c #367F7F",
"c  c #464644",
"v  c #4B4B49",
"b  c #52524F",
"n  c #444D57",
"m  c #594558",
"M  c #48505B",
"N  c #555553",
"B  c #575957",
"V  c #5C5C57",
"C  c #585A5A",
"Z  c #46576C",
"A  c #565D62",
"S  c #535D6A",
"D  c #445974",
"F  c #445A75",
"G  c #445D7C",
"H  c #6A4E6A",
"J  c #6B566A",
"K  c #4C637F",
"L  c #5C6672",
"P  c #5D6875",
"I  c #5E6B7C",
"U  c #47787E",
"Y  c #616161",
"T  c #6A6A65",
"R  c #616569",
"E  c #6D6D69",
"W  c #70706A",
"Q  c #666F7A",
"!  c #7A6478",
"~  c #717170",
"^  c #7C7C75",
"/  c #767879",
"(  c #84847E",
")  c #455F80",
"_  c #456283",
"`  c #4B6685",
"'  c #476388",
"]  c #4A668B",
"[  c #4D6A8C",
"{  c #5A6D85",
"}  c #516E8E",
"|  c #457D84",
" . c #4D7A85",
".. c #57728C",
"X. c #4E6C92",
"o. c #516E92",
"O. c #547194",
"+. c #5B7695",
"@. c #5D7896",
"#. c #56749A",
"$. c #59769C",
"%. c #5C7A9C",
"&. c #627589",
"*. c #717984",
"=. c #727F8F",
"-. c #647992",
";. c #607D9E",
":. c #5677A0",
">. c #5779A2",
",. c #5C7CA2",
"<. c #5E7FA8",
"1. c #617EA2",
"2. c #8C698C",
"3. c #98749A",
"4. c #9B789B",
"5. c #A67CA6",
"6. c #008A8A",
"7. c #009B9B",
"8. c #1E9595",
"9. c #319191",
"0. c #00A7A7",
"q. c #12A0A0",
"w. c #0CB5B5",
"e. c #00BABA",
"r. c #728294",
"t. c #73849A",
"y. c #5F80A9",
"u. c #6481A6",
"i. c #6383AB",
"p. c #6A87A9",
"a. c #6985AB",
"s. c #6988AF",
"d. c #7487A2",
"f. c #7488A2",
"g. c #738CAC",
"h. c #6587B0",
"j. c #6887B0",
"k. c #6788B1",
"l. c #6C8CB4",
"z. c #6E8FB8",
"x. c #708EB5",
"c. c #6F90B9",
"v. c #7090B7",
"b. c #7293BB",
"n. c #7697C1",
"m. c #7798C3",
"M. c #7A9BC5",
"N. c #00C7C7",
"B. c #00D9D9",
"V. c #00E0E0",
"C. c #00EAEA",
"Z. c #00F0F0",
"A. c #00F8F8",
"S. c #878780",
"D. c #8A8A84",
"F. c #909088",
"G. c #9B9B93",
"H. c #A1A199",
"J. c #ABAB9F",
"K. c #B18BB1",
"L. c #B38BB5",
"P. c #B98FB9",
"I. c #AAAAA0",
"U. c #B0B0A6",
"Y. c #B5B5AC",
"T. c #BABAAE",
"R. c #BBBBB2",
"E. c #C1C1B5",
"W. c #C3C3BB",
"Q. c #C796C6",
"!. c #C897C7",
"~. c #D9A8D9",
"^. c #DFBCD9",
"/. c #E9B2E9",
"(. c #EDB5ED",
"). c #CBCBC2",
"_. c #D2D2C6",
"`. c #D3D3CA",
"'. c #D9D2CD",
"]. c #D9D9CC",
"[. c #DDDDD2",
"{. c #E1E1D6",
"}. c #E5E5D9",
"|. c #E9E9DC",
" X c #F8C0F8",
".X c #EEEEE0",
"XX c #F7EAEA",
"oX c #F5F5E6",
"OX c #F8F8E8",
/* pixels */
"b.n.b.n.n.n.n.n.n.m.m.m.n.n.n.n.m.m.n.n.m.n.n.h.y.k.n.n.n.n.k.z.n.m.n.n.n.n.n.n.n.n.m.n.n.n.n.n.n.c.",
"m.m.n.n.n.m.n.m.n.m.n.n.n.n.n.n.n.m.n.n.n.n.n.>.>.h.n.n.n.n.n.n.n.n.n.n.n.n.n.n.n.n.n.n.n.n.n.n.n.n.",
"n.n.n.n.n.n.n.n.m.n.n.n.n.n.n.n.m.n.n.n.n.n.:.>.>.>.y.n.n.n.n.n.n.n.n.n.n.n.n.n.n.n.n.n.n.n.n.n.n.n.",
"b.n.n.n.c.n.n.n.n.n.n.n.n.n.n.n.n.n.n.n.c.<.:.n.z.>.>.>.z.z.n.n.n.n.n.n.n.n.m.n.n.n.n.n.n.n.n.n.n.n.",
"l.l.l.z.z.c.c.z.l.z.z.n.n.n.c.c.c.c.c.k.y.>.z.n.k.h.<.>.y.z.c.c.z.c.c.c.k.z.z.z.c.z.l.c.c.v.z.l.z.z.",
"k.k.l.k.l.l.z.z.k.k.k.z.z.z.c.z.z.z.k.<.>.k.m.h.h.h.y.>.>.y.k.z.z.c.c.z.k.z.z.n.z.l.k.z.c.z.s.s.k.k.",
"c.b.c.z.z.k.c.c.z.z.z.l.z.z.c.b.c.z.>.>.h.M.h.i.h.y.h.h.>.:.h.c.c.n.n.z.z.c.n.z.n.c.c.c.b.b.v.v.c.n.",
"n.n.b.c.c.n.n.c.n.c.n.b.c.b.b.n.c.>.:.z.M.h.h.y.y.h.y.h.y.>.:.y.b.c.c.c.n.c.n.c.b.b.b.b.b.b.b.b.n.c.",
"b.b.b.b.b.b.b.b.c.b.b.b.b.b.b.c.>.#.z.c.h.y.i.h.h.h.y.i.h.<.>.:.y.b.c.n.b.b.b.n.b.b.b.b.b.b.b.b.b.c.",
"b.b.b.v.b.b.b.v.b.b.b.c.b.b.l.<.#.l.z.h.h.y.y.i.<.y.h.h.<.i.<.,.>.y.c.c.b.b.b.b.b.v.b.b.b.b.b.b.b.c.",
"g.b.v.b.v.v.v.v.v.b.v.c.c.k.y.#.l.z.h.i.y.i.i.i.<.i.h.<.y.h.i.<.>.:.i.c.c.b.c.c.b.v.v.v.v.v.v.v.b.v.",
"v.v.v.v.v.v.v.v.v.v.v.c.z.y.>.y.n.i.i.<.y.y.y.i.y.y.<.i.<.<.<.i.y.:.#.h.c.c.c.c.v.v.v.v.v.v.v.v.v.v.",
"v.v.v.v.v.v.v.v.v.v.z.c.>.#.y.M.i.y.y.i.i.&   0 h.i.i.&   * i.h.y.y.#.#.h.c.c.v.v.v.v.v.v.v.v.v.v.v.",
"v.v.v.v.v.v.l.v.v.v.l.>.#.h.n.y.y.<.i.<.O L.~.3.& <.- L.~.4.O <.y.y.y.#.#.y.c.c.v.v.l.v.v.v.z.v.v.v.",
"l.l.x.x.l.v.l.v.l.l.$.#.s.l.y.y.1.i.] 0 4.~./.2.o ,.O 5././.4.0 O.>.,.>.#.#.<.l.l.l.v.v.l.v.l.l.v.l.",
"s.s.s.p.s.s.s.s.i.y.O.h.s.i.>.y.<.` r   /./.5.t . k . m L././.  d ] $.$.#.#.#.>.p.l.s.s.a.i.i.a.i.h.",
"y.y.s.y.y.s.s.y.y.X.y.v.y.y.#.#.#.s X @ !.!.v @ O o @ @ J !.Q.@ X g O.,.>.#.#.#.y.s.p.y.y.u.y.y.i.i.",
"p.s.s.s.p.l.s.y.O.%.b.y.u.y.y.#.2 < E F.F.F.F.F.F.F.F.F.F.F.F.F.T > 3 ,.>.:.#.O.O.y.k.p.s.l.l.k.i.p.",
"l.l.l.l.s.v.#.X.y.v.y.y.y.y.y.= B ( D.F.F.F.F.F.F.F.F.F.F.F.F.F.S.( B = <.R % 6 L X.y.l.l.l.k.k.l.l.",
"s.s.s.l.a 4 f y.l.y.%.y.#.O.2 B ^ F.F.F.F.F.F.F.F.F.F.F.F.F.F.F.F.F.^ B 3 = l p a X.O.y.F 4 a l.s.s.",
"s.s.s.s.o > a K i.h #.$.o.h 5 S.F.G.G.F.F.F.H.H.F.F.F.I.G.F.F.F.H.G.F.S.5   6.i o d X.k a % @ s.s.s.",
"l.s.h.>.- M 8 2 F # h K w < H.F.G.R._.G.F.G.W.W.G.F.G.).R.G.F.G.`.Y.G.F.H.  6.i . # k # b a q s.s.l.",
"s.i.,.X.$.q , c   Y #   > E `.G.R.{..X_.F.W.|.|.).D.)..X.XR.F.`.oX[.T.G._.  6.i # Y . B > 3 y.s.s.i.",
"h.,.o.#.b.4 5 ( J F.E 5 5 G.OX`..XOXOXOX_..XOXOXoX`..XOXOX.X`.OXOXOX|.`.OX  6.i % F.Y D.5 : o.i.p.y.",
"o.X.$.v.:.) n 1 J T < 8 F.).OX.XoXOXOXOX.XoXOXOXoX.XOXOXOXoX.XOXOXOXoX.XOX  6.i $ E J 1 a ` X.X.o.o.",
"[ X.#.h.#.o.g & / Y $ B W.}.OXOXoXOXOXOXOXOXOXOXOXOXOXOXOXOXOXOXOXOXOXOXoX  6.i $ ^ Y . d #.X.X.X.[ ",
",.O.o.$.$.#.k 5 T v @ T }.OXOXOXOXOXOXOXOXOXOXOXOXOXOXOXOXOXOXOXOXOXOXOXOX  6.i $ T v & k X.X.y.y.O.",
"j.<.O.X.$.$.:.D       ^ OXOXOXOXOXOXOXOXOXOXOXOXOXOXOXOXOXOXOXOXOXOXOXOXOX  6.i       ] #.X.#.l.a.y.",
"a.a.1.o.o.#.$.:.%.  G.}.OXOXOXOXOXOXOXOXOXOXOXOXOXOXOXOXOXOXOXOXOXOXOXOXOX  6.i     %.o.o.#.v.p.p.p.",
"a.a.a.1.X.] #.:.%.  U.oXOXOXOXOXOXOXOXOXOXOXOXOXOXOXOXOXOXOXOXOXOXOXOXOXOX  6.i     o.] $.x.p.p.i.u.",
"1.u.u.u.1.X.] o.$.  T.OXOXOXOXOXOXOXOXOXOXOXOXOXOXOXOXOXOXOXOXOXOXOXOXOXOX  6.i     ] 1.s.a.u.p.u.u.",
"i.i.a.u.1.,.o.X.o.  T.OXOXOXOXOXOXOXOXOXOXOXOXOXOXOXOXOXOXOXOXOXOXOXOXOXOX  6.i     ,.a.a.u.u.u.u.i.",
"a.1.1.1.1.a.%.o.]   T.OXOXOXOXOXOXOXOXOXOXOXOXOXOXOXOXOXOXOXOXOXOXOXOXOXOX  6.i     p.a.u.1.1.a.1.a.",
"1.a.1.1.a.1.1.$.o.  T.OXOXOXOXOXOXOXOXoXOXOXOXOXOXOXOXOXOXOXOXOXOXOXOXOXoX  6.i 7 oX  O.u.u.1.1.1.u.",
"1.1.1.1.1.1.G = &   T.OX[.U.OXOXOX|._.J.OXOXOXOXOXOXOXOXOXOXOXOXOXOXOXOXOX  6.i 7 OX  = Z 1.1.1.1.1.",
"#.1.#.#.#.Z n T T   T.OXT.V OXOXOX.XR.v OXOXOXOXOXOXOXOXOXOXOXOXOXOXOXOXOX  6.i 7 OX  V n Z #.$.$.O.",
"1.1.$.1.1.3 b [.).  T.OXT.V G.|.OXOX'.m G.|.OXOXOXOXOXOXOXOXOXOXOXOXOXOXoX  u j m G.V _.b 2 #.@.1.%.",
"1.1.;.1.1.3 V |.`.  Y.oXOX].  ].oXXXXX X  T.OXOXOXOXOXOXOXOXOXOXOXOXOXOXOX    H 4.  OXOXV 2 u.y.1.1.",
"1.1.1.1.1.3 V .X`.  G.}.OX].  ].^.(.(. X  T.OXOXOXOXOXOXOXOXOXOXOXOXOXOXOX    ! P.  OXOXV 3 u.@.1.1.",
";.;.;.;.;.3 V oXoXY.5 D.oXoXY.6 K.(.P.> ^ _.OXOXOXOXOXOXOXOXOXOXOXOXOXOXOX    ! P.  OXOXV 3 u.@.;.;.",
";.;.;.;.;.3 V oXOX|.6 E |.oX|.F.! m J N _.|.OXOXOXOXOXOXOXOXOXOXOXOXOXOXoX  i j ! G.OXOXV 4 u.u.;.;.",
"$.;.%.;.;.h A T.OXOX8 T {.OXOX{.F.V W T.OXOXOXOXOXOXOXOXOXOXOXOXOXOXOXOXOX  6.i 8 OXOXJ.C d u.+.;.;.",
";.;.$.%.%.;.h 7 OXOXV T _.OXOXOXoXOXOXOXOXOXOXOXOXOXOXOXOXOXOXOXOXOXOXOXOX  6.i 7 OXOX% h u.%.@.%.%.",
"$.;.-.%.;.%.h 7 OXOXOX^ V OXOXOXOXOXOXOXOXOXOXOXOXOXOXoXOXOXOXOXOXOXOXOXOX  6.i 7 OXOX% d u.@.u.;.%.",
"@.+.+.O.+.+.[ d % OXOX^ V oXOXoXOXOXOXOXOXOXOXOXoXOXOXoXOXOXOXOXOXOXOXOXoX  6.i 7 OX% D ..+.%.@.+.+.",
"O.} [ } O.+.} ` d V V W W W OXoXOXOXOXOXV V V F.}.oX{.^ V V V OXOXOXOXoXOX  6.i X V d } +.#.@.#.} } ",
"+.#.+.#.+.+.@.+...2 < N v $ |.oXOXOX].G.v V b T ( G.( T B B v G.|.OXOXoX|.  6.i O 2 } O...[ } } +.%.",
"+.@.+.+.%.%.+.@.+.@.Q e @ , T.oXOXOXE.X ]..X}.F.% # % H.}.oX`.o ].OXOXoXY.  6.i & +.+.+.#.+.+.+.+.+.",
"@.+.+.@.+.+.@.@.+.@.@.@.&.Y   ].OXOX`.~ OXOXOXOXoX).oXOXOXOXoX~ |.OXOX].    6.i * +.@.+.@.+.@.+.+.+.",
"+.+.+.+.#.O.+.+.+.+.@.@.@.&.Y < J.OX].~ `..XOXOXOXoXOXOXOX.X`.~ }.OXJ.< Y   6.i & +.+.+.+.+.+.+.+.+.",
"n.b.b.b.n.n.n.n.b.M.r.*.*.*.g.+.S D.].].D.).}.OXOXOXOXOX}.).S.].[.( a %.g.  6.i $ *.m.n.b.n.b.b.n.b.",
"M.M.b.m.n.n.n.n.m.b.f.t.t.t.b.n.S b E ^ Y.]..XOXOXOXOXOX.X].Y.^ T v S m.m.  6.i = t.m.n.m.m.m.n.n.n.",
"n.n.n.n.n.n.n.n.m.m.n.n.m.m.m.v.=.M ; ; Y.T._.oXOX[..XoX_.T.T.; - S t.g.m.  6.i 2 m.m.n.m.m.n.n.n.n.",
"b.n.n.n.c.n.n.n.n.m.b.n.m.b.b./ f.n.b.m.    ( [.|.F.|.[.T     b.b.n.d./ b.  6.i - n.n.b.n.b.m.n.n.n.",
"z.l.l.c.c.c.c.z.z.l.b.b.d.~ ~ x.c.c.c.l.i.>.q           r z.z.z.z.z.D                 u.c.v.z.v.l.l.",
"k.l.l.k.l.l.c.z.j.k.k.z.x.p.f.b.z.c.k.<.>.k.%.] ` ` _ G ] i.l.z.l.M y 6.6.e.e.e.0.6.6.9 K v.k.s.l.l.",
"v.b.b.v.z.l.b.v.z.z.z.z.z.l.c.b.c.z.<.>.h.M.y.h.h.i.h.y.:.:.k.c.k f 6.B.B.Z.A.A.Z.B.B.l f ` v.v.c.n.",
"b.b.b.b.c.b.b.b.b.b.b.b.b.b.b.b.c.>.#.k.M.h.h.h.y.h.i.h.y.:.:.i.+ z B.C.e.e.C.B.e.e.C.N.u q b.b.b.b.",
"b.b.v.b.b.b.b.b.b.b.b.b.b.b.n.c.>.#.c.c.h.h.y.y.h.i.i.h.y.y.>.#.+ 7.V.0.    e.z     e.Z.i q b.b.b.b.",
"b.b.b.b.b.b.b.b.b.b.v.b.c.c.l.<.#.l.c.k.y.y.y.h.h.y.y.h.y.h.y.>.o 7.7.+ b.  e.z - v.  B.i q b.b.b.b.",
"b.v.v.v.v.v.b.v.v.c.c.c.b.k.y.:.k.c.k.i.y.i.i.i.y.y.h.y.i.i.i.y.o 7.7.+ v.  e.z - b.  B.i q v.v.v.x.",
"v.v.v.v.v.v.v.v.v.v.c.c.l.y.>.y.m.i.i.y.y.y.y.y.y.y.y.y.y.y.y.i.+ 7.7.+ z.  e.z - v.  B.i q v.v.x.b.",
"v.v.v.v.v.v.v.v.v.v.v.c.<.#.y.M.i.y.y.y.i.i.i.y.i.y.h.y.y.i.i.i.O 7.7.o j.  e.z ; v.  B.i q x.v.x.b.",
"v.v.v.v.l.z.v.v.v.v.l.>.#.i.n.y.y.y.i.y.i.y.i.y.y.i.y.y.u.<.i.<.+ 7.7.o #.  e.z - v.  B.i q z.z.x.x.",
"l.v.l.v.l.l.v.l.l.z.:.#.k.z.i.u.i.i.y.y.y.y.y.y.y.u.y.y.y.>.y.y.o 7.7.o #.  e.z - l.  B.i q l.l.v.l.",
"i.p.h.s.s.s.s.s.h.<.O.i.a.i.,.,.,.,.,.,.y.#.y.#.y.#.#.y.y. .$.$.C 8.8.C :.N q.9.L l.N w.x P i.h.i.a.",
"y.y.i.h.y.p.s.i.<.o.1.c.i.$.>.>.,.$.$.$.#.y.#.#.#.+.#.#.y.#.>.$... .| ..:.{ |  .-.h.-.U  .-.y.y.i.u.",
"p.s.l.p.k.s.s.y.o.>.n.1.<.,.,.$.>.,.>.$.y.y.#.#.y.y.y.#.y.$.>.y.$.I I ,.>.#.L I o.a.h.R r.l.l.s.i.s.",
"l.l.s.l.l.l.$.X.<.n.1.<.<.1.1.1.,.y.y.y.%.y.y.y.y.#.y.#.y.y.y.%.1.I { u.,.<.I { o.X.y.I u.s.l.l.l.l.",
"s.s.l.l.s.$.#.y.c.1.<.,.,.1.>.,.y.,.%.y.y.%.%.y.y.u.y.u.y.%.%.y.,.,.1.,.,.1.,.,.>.#.X.y.l.s.l.s.s.l.",
"s.s.h.s.y.X.y.s.1.1.1.>.,.,.,.,.%.,.,.,.$.y.$.y.y. .#.y.y.#.$.y.,.,.,.,.,.,.,.,.<.$.O.#.u.p.s.s.p.s.",
"l.s.y.>. .y.s.y.>.,.>.1.>.>.,.,.,.,.,.,.y.$.y.$.y.$.y.#.y.y.y.#.%.,.,.,.,.,.,.,.>.,.#.O.O.y.s.s.s.l.",
"s.h.y.[ #.l.1.,.,.1.:.>.>.>.1.,.y.$.$.y.$.y.y.>.$.y.>.,.$.y.$.>.,.,.:.,.,.,.,.,.>.,.<.#.X.#.y.k.s.i.",
"s.%.X.#.b.1.1.:.:.,.:.1.$.,.,.,.$.%.y.$.$.$.$.$.$.$.$.y.y.%.%.y.,.:.,.,.,.%.:.%.$.>.$.>.#.X.X.i.s.%.",
"X.X.$.v.$.#.:.#.#.#.$.$.#.$.$.,.#.#.$.#.#.#.#.#.#.#.#.#.$.#.$.$.#.#.$.$.#.$.,.,.$.#.#.#.#.$.X.X.X.o.",
"X.[ #.h.#.O.#.#.O.#.#.#.O.#.#.#.O.$.>.#.#.$.O.O.#.$.$.#.#.#.#.O.#.o.#.#.o.#.#.o.#.$.#.#.#.#.X.X.X.X.",
"<.O.o.>.:.$.#.#.#.#.$.$.#.$.$.#.#.%.>.$.#.$.#.#.$.$.#.#.$.$.#.#.$.$.#.$.$.#.$.$.#.$.%.$.:.X.] y.y.#.",
"k.,.o.X.$.$.1.$.$.$.$.$.$.$.$.$.>.$.>.%.%.y.$.y.,.%.>.$.$.$.$.>.$.$.:.$.:.$.$.$.$.,.:.$.X.X.:.k.p.y.",
"a.a.1.o.] #.$.$.,.$.$.,.$.,.$.:.%.$.%.$.$.$.$.$.$.$.$.$.$.$.,.$.$.%.$.%.%.$.$.%.$.:.,.o.X.:.x.x.p.p.",
"i.a.a.1.X.X.o.:.$.$.$.$.$.$.$.$.$.$.$.%.$.$.$.$.%.$.%.%.$.$.%.$.$.$.$.$.$.$.%.$.$.$.o.] :.K.1.g.i.u.",
"1.g.g.1.1.] X.o.:.$.$.+.+.$.+.+.$.$.#.$.%.#.%.%.#.#.%.+.#.%.#.#.%.#.#.#.%.#.#.#.%.o.] 1.x.1.g.1.u.u.",
"<.<.1.<.1.1.X.X.o.$.#.#.#.#.#.#.#.$.#.#.#.#.O.#.#.+.#.#.#.#.#.+.#.#.+.#.#.+.+.$.o.] ,.j.<.x.1.<.u.i.",
"1.g.g.1.1.<.1.X.] o.O.#.$.#.#.#.O.#.#.#.$.O.$.$.#.#.%.#.#.#.#.#.#.+.#.#.#.#.$.o.[ $.a.1.1.1.1.1.u.u.",
"1.1.1.<.1.1.1.#.X.X.O.#.#.#.#.O.#.#.O.+.o.$.o.O.O.#.O.O.#.#.+.+.#.O.$.o.O.O.o.] #.s.a.1.1.1.1.1.u.u.",
"1.1.1.1.1.1.1.1.$.' ' o.#.O.X.X.} } O.o.X.o.o.#.o.o.o.o.} O.O.#.O.$.o.o.O.o.] [ g.1.1.1.1.1.1.1.u.1.",
"$.$.$.#.#.$.;.;.%.#.] ] ] X.o.O.[ o.X.X.o.o.X.o.o.o.o.X.[ o.o.o.o.o.o.o.X.] O.p.1.1.1.$.$.$.+.#.+.O.",
"1.$.;.1.$.;.$.$.1.1.1.] ] ] o.O.O.O.O.O.o.] o.o.[ o.o.O.o.o.o.o.o.o.O.] ' +.u.u.$.$.1.$.$.$.$.%.1.%.",
"1.1.1.1.1.1.1.;.1.1.1.$.[ ] X.O.O.O.O.O.#.o.$.o.o.o.#.O.o.o.o.o.o.o.X.' #.1.u.%.;.1.1.1.;.$.1.1.1.1.",
"1.1.1.1.1.1.1.1.u.y.u.@.#.] ` X.O.o.O.o.O.O.O.O.o.o.O.O.O.O.O.O.o.} ' o.i.u.@.u.@.u.%.u.u.%.u.u.1.1.",
";.1.;.1.;.;.;.;.@.u.@.u.u.#.] ] } O.O.O.o.O.O.O.O.O.O.O.O.O.O.O.} _ } u.u.u.u.y.u.@.u.u.%.u.@.@.;.;.",
";.1.;.%.;.;.;.;.u.@.@.u.@.u.O.` _ o.O.O.O.} O.} O.O.} O.O.O.} ] K [ u.u.@.u.@.%.%.u.@.%.u.@.%.u.;.;.",
";.$.;.;.;.;.;.;.%.%.u.@.u.@.@.+._ ` } o.O.} O.} O.O.O.} O.O.[ ) [ u.u.u.u.@.u.@.y.@.u.@.u.%.u.@.%.;.",
";.%.%.;.;.;.;.$.%.u.@.u.%.u.%.u.O._ ` [ } } } O.O.} o.} } ` ' o.u.r.O.@.@.%.u.%.@.@.@.u.@.%.%.u.%.@.",
"+.;.+.;.+.;.-.O.+.+.@.%.+.%.@.@.%.} _ ` [ } } } } } } } ` ) } ;.u.u.y. .%.%.%.@.@.u.u.#.u.@.%.@.;.%.",
"@.+.O.O.;.+.$.O.O.+.+.%.+.O.+.@.u.#.} _ _ [ [ [ ` [ } ` G } ;.;.#.@.@.#.@.@.+.$.+.u...@.@.%.@.%.+.%.",
"O.} } } ..O.o.} } } O.O.o. .O.}  .+.O.[ _ _ ` ` ` ` _ _ _ ;.%...+.O.O...O.O. .u...O...O.#.$.+.+...} ",
"+.+.#.O.+.+.+.+.O.#...+.+.#.+.@...O.+.#...k _ [ X.) ) ) 1.%.%.O.+.O.+.+.+.+.#.O.O...} } } } } } ..@.",
"+.+.@.+.@.@.+.+.+.#.+.+.#.@.@.#.@.+.@.@.y.#.' k _ x ' 1.;.-.%.+.+.+.#.+.+.-.%.+.+.+.+.+.+.+.+.#.@.+.",
"+.@.@.@.@.@.+.@.+.@.@.+.+.+.@.+.@.@.+.+.+.O.[ K ) ` $.;.+.$.+.+.+.@.+.@.+.+.@.@.%.@.@.@.+.@.+.+.+.+.",
"+.+.+.+.+.@...+.+.+.+.+.+.+.+.+.@...+.+.+.+.@.K G o.;.-.+.$.-.+.+.+.+.+.+...@.@.+.+.+.@.+.+.+.+.+.+."
};
