/* XPM */
static char *result[] = {
/* columns rows colors chars-per-pixel */
"50 100 184 2 ",
"   c #000000",
".  c #07090B",
"X  c #0B0C0C",
"o  c #0A0E13",
"O  c #0D1115",
"+  c #0F1319",
"@  c #001E1E",
"#  c #121211",
"$  c #1C1B1B",
"%  c #21211F",
"&  c #151C25",
"*  c #171E28",
"=  c #002E2E",
"-  c #0C2B2B",
";  c #1C242D",
":  c #1C2632",
">  c #003E3E",
",  c #18363E",
"<  c #242422",
"1  c #2D2D2B",
"2  c #242C35",
"3  c #222D39",
"4  c #392F39",
"5  c #2B343E",
"6  c #353533",
"7  c #37393B",
"8  c #3D3D3A",
"9  c #263345",
"0  c #2A3646",
"q  c #2C3A4A",
"w  c #313A47",
"e  c #2D3D52",
"r  c #313F51",
"t  c #4E394E",
"y  c #14474A",
"u  c #025D5D",
"i  c #334255",
"p  c #3A4451",
"a  c #35465B",
"s  c #36495E",
"d  c #394A5E",
"f  c #3A4C62",
"g  c #394D66",
"h  c #3D5067",
"j  c #3F5674",
"k  c #036F71",
"l  c #454747",
"z  c #4A4A4A",
"x  c #52524F",
"c  c #534B58",
"v  c #475058",
"b  c #4A535C",
"n  c #5C5C57",
"m  c #565758",
"M  c #615D5C",
"N  c #63635F",
"B  c #434C62",
"V  c #594C65",
"C  c #4F5964",
"Z  c #41566E",
"A  c #455A74",
"S  c #495E76",
"D  c #445D7E",
"F  c #5D5F74",
"G  c #684C68",
"H  c #775B77",
"J  c #56696B",
"K  c #4B627D",
"L  c #577277",
"P  c #606060",
"I  c #6B6B65",
"U  c #686A6B",
"Y  c #74746E",
"T  c #646C75",
"R  c #7C607C",
"E  c #7C6C79",
"W  c #6D7175",
"Q  c #717271",
"!  c #7D7B77",
"~  c #7C7C75",
"^  c #83837E",
"/  c #455F80",
"(  c #7D5F81",
")  c #456283",
"_  c #4A6685",
"`  c #4C6785",
"'  c #4A668B",
"]  c #4D6A8C",
"[  c #516884",
"{  c #546A85",
"}  c #5C6D84",
"|  c #516E8D",
" . c #56708C",
".. c #4E6C92",
"X. c #516E92",
"o. c #547194",
"O. c #5B7695",
"+. c #5D7896",
"@. c #56749A",
"#. c #59769C",
"$. c #5C7A9C",
"%. c #62748C",
"&. c #687789",
"*. c #647892",
"=. c #607D9E",
"-. c #5677A1",
";. c #5779A3",
":. c #5C7CA2",
">. c #5E7FA8",
",. c #617EA2",
"<. c #825F82",
"1. c #8C6B8C",
"2. c #9C729C",
"3. c #A177A1",
"4. c #008A8A",
"5. c #009B9B",
"6. c #00A1A1",
"7. c #04ABAB",
"8. c #00B7B7",
"9. c #00B9B9",
"0. c #548282",
"q. c #6B839C",
"w. c #738499",
"e. c #5F80A9",
"r. c #6481A5",
"t. c #6383AB",
"y. c #6985AB",
"u. c #6887AA",
"i. c #6989AE",
"p. c #7189AA",
"a. c #6586B0",
"s. c #6788B1",
"d. c #6B8CB4",
"f. c #6E8FB8",
"g. c #718FB6",
"h. c #6F90B9",
"j. c #7090B7",
"k. c #7293BB",
"l. c #7697C1",
"z. c #7798C3",
"x. c #7A9BC5",
"c. c #00CCCC",
"v. c #00D1D1",
"b. c #00D9D9",
"n. c #00E1E1",
"m. c #00EEEE",
"M. c #00F7F7",
"N. c #00F8F8",
"B. c #878781",
"V. c #898982",
"C. c #909089",
"Z. c #9A9A92",
"A. c #A2A29A",
"S. c #AB81AB",
"D. c #BA90BA",
"F. c #AAAAA1",
"G. c #B0B0A6",
"H. c #B5B5AC",
"J. c #BABAAE",
"K. c #BCBCB3",
"L. c #C3C3B7",
"P. c #C3C3BA",
"I. c #C8C8BC",
"U. c #C89FC7",
"Y. c #D49CD4",
"T. c #CCA2CB",
"R. c #DBA9DA",
"E. c #DEB4DC",
"W. c #EBB5EB",
"Q. c #ECB4EC",
"!. c #CBCBC2",
"~. c #D4CDC8",
"^. c #D2D2C6",
"/. c #D3D3CA",
"(. c #D8D8CB",
"). c #DDDDD2",
"_. c #E2E2D5",
"`. c #E5E5D9",
"'. c #E9E9DC",
"]. c #EECBE8",
"[. c #F8C0F8",
"{. c #EEEEE0",
"}. c #F5F5E5",
"|. c #F8F8E8",
/* pixels */
"k.l.k.l.h.z.z.l.l.x.z.z.l.l.l.l.l.x.l.l.l.l.l.a.a.s.l.d.k.l.f.d.l.x.l.l.l.l.l.z.l.z.z.l.l.l.l.h.l.l.",
"z.z.l.l.l.l.z.z.l.l.l.l.{ + + t.x.x.l.l.l.l.l.;.;.a.l.l.l.l.l.l.x.r O * l.z.l.l.z.l.l.l.l.l.z.l.l.z.",
"l.l.l.l.l.l.l.l.z.l.l.` V <.<.w 0 0 Z l.l.l.-.-.-.;.>.z.z.=.q q q V <.( q z.l.l.l.l.l.l.l.l.l.l.l.l.",
"k.l.l.l.l.k.l.l.l.l.l.f t Y.R.1.H H V s f e e a e e e a f B G H H U.Y.U.4 B &.>.l.l.l.l.l.l.l.l.l.l.",
"d.d.d.f.f.h.f.f.d.d.f.S V 3.E.E.T.S.H $ $ $ $ * ; < $ $ $ 4 2.D.R.E.T.1.t = 7 } h.f.d.h.h.h.d.j.f.d.",
"d.s.d.s.s.f.f.f.s.d.d.f.A # C.C.6   $ P P P ! C.C.C.P P P l     ~ C.n     8.= s h.d.a.d.h.h.s.i.s.s.",
"f.l.h.f.f.s.k.h.f.d.f.a   # C.C.C.C.V.C.C.C.C.C.C.C.C.C.C.C.C.C.C.C.C.~   8.= d l.h.d.h.k.k.j.j.h.h.",
"l.h.k.h.h.l.l.h.k.l.i l I Q C.C.C.C.C.C.C.C.C.C.C.C.C.C.C.C.C.V.C.C.C.~   8.= d k.k.k.k.l.k.j.k.l.l.",
"k.k.k.k.k.k.k.k.k.0 m ~ C.C.C.C.C.C.C.C.C.C.C.C.C.C.C.C.C.V.C.C.C.C.C.~   9.= d k.j.k.k.k.k.k.k.k.k.",
"k.k.k.j.k.k.k.j.k.  I Z.Z.C.C.C.Z.Z.C.C.C.A.Z.C.C.C.F.C.C.C.C.F.C.C.C.~   8.= d k.j.k.j.k.k.k.k.k.k.",
"g.g.j.k.g.k.j.i.,.# Y H.K.C.C.Z.K.H.C.C.Z.P.G.C.C.Z.!.F.C.Z.Z.(.A.C.C.^   8.= r i.j.j.k.j.j.k.j.k.j.",
"k.g.j.g.g.g.h.{   C.P._.{.!.C.!.{.{.K.C.~.{.).K.Z.!.}.).G.Z.!.|.(.F.F.J.  8.=   < j.j.j.j.j.j.j.j.j.",
"j.j.j.j.: S h.{   !.'.}.}.{.!.{.}.}.{.!.}.}.}._.!.}.|.}.).^.}.|.}.(.(./.  9.=   : k.g.; K j.j.j.j.j.",
"j.j.j.j.z J C &   {.}.|.}.}.{.|.|.|.}.{.|.|.|.}.{.|.|.|.}.}.|.|.|.{.}.(.  8.=   . ; T z *.g.d.g.j.j.",
"{ p p a W I 8     |.|.|.|.|.|.|.|.|.|.|.|.|.|.|.|.|.|.|.|.|.|.|.|.|.|.(.  8.=       N Q C a a a d.d.",
"a X % $ ! P 1     |.|.|.|.|.|.|.|.|.|.|.|.|.|.|.|.|.|.|.|.|.|.|.|.|.|.(.  9.=       l ! 8 $ <   a.t.",
"i < V.N J <       |.|.|.|.|.|.|.|.|.|.|.|.|.|.|.|.|.|.|.|.|.|.|.|.|.|.(.  8.=         x J Y ~   r.t.",
"a.` # C.#   n J.  |.|.|.'.^.^.Z.6 ~ |.|.|.|.|.|.|.|.|.|.|.|.|.|.|.|.|.(.  8.=   8 }.  m ~ n + u.u.a.",
"d.r.[ <   I (.J.  |.}.'.(./.{._.L.~ I |.|.|.|.|.|.|.|.|.|.|.|.|.|.|.|.(.  8.= n Z.8 J.6 % 5 o.d.d.d.",
"i.i.r.Z X Z.|.J.  |.|.^.P.'.|.E.].E 8 |.|.|.|.|.|.|.|.|.|.|.|.|.|.|.|.(.  8.- ~ J.  }.% 5 [ i.i.i.i.",
"s.i.i.s.o Z.|.J.  '.}.P.H.}.].Q.W.R 8 |.|.|.|.|.|.|.|.|.|.|.|.|.|.|.|.(.  8.= ! J.  |.% g d.s.d.i.i.",
"s.s.y.;.o Z.|.I.% H.{.I.F.~.R.Q.W.R z |.|.|.|.|.|.|.|.|.|.|.|.|.|.|.|.(.  6.y ! J.% |.% g >.s.i.d.i.",
"i.i.>...# Z.|.|.|.  J.`.^ $ Q.[.c z A.|.|.|.|.|.|.|.|.|.|.|.|.|.|.|.|.(.    2.G 8 |.}.% a ..t.i.i.u.",
"i.$...@.# Z.|.|.|.  J.}.).Z.$ $ M H.'.|.|.|.|.|.|.|.|.|.|.|.|.|.|.|.|.(.    D.R 8 }.|.% a ....t.i.$.",
"....#.f.A B ~ |.|.  A.'.}._.K.K.^.'.|.|.|.|.|.|.|.|.|.|.|.|.|.|.|.|.|.(.    D.H 8 |.8 f ..#.....X...",
"....@.i.@.g b Z.|.~ I G.|.|.}.|.|.|.|.|.|.}.|.|.|.|.|.|.|.|.|.|.|.|.|.(.  u F E ! E r X.o.@.........",
":.@.X.#.@.@.g t J.J.6 ~ |.|.|.|.|.(.J.J.J.J.^.}.|.}.I.J.J.J.J.|.|.|.|.(.  8.= n C.* ,.#.@.....,.e.@.",
"s.:.X...@.#.-.A       ~ |.|.|.|.|.~         ^ ).}.!.$         |.|.|.|.(.  9.=   * #.#.#.X...#.f.i.:.",
"y.y.,.X...@.-.,.#.$.* I ).|.|.|.M 8 C.|.|.(.x       H.'.|.(.Q   (.|.|.(.  8.= q -.#.-.X...O.g.y.u.u.",
"y.,.y.,.....} W W W U 8 I |.|.|.n Y '.|.|.|.'.(.(.(.}.|.|.|.`.  (.|.|.(.  9.= 7 W W X.' #.g.p.u.r.u.",
",.,.y.y.,...] } %.%.%.w x _.|.|.^ Z.|.|.|.|.|.|.|.|.|.|.|.|.|.l _.}.{.L.  9.= w %.} ..,.i.,.r.u.t.r.",
"y.y.t.,.,.;.X...X.#.#.f x C.|.|.I.H.^.'.|.|.|.|.|.|.|.|.}.).P.A.{.|.^.Q   9.= q ..' :.y.y.y.r.r.r.r.",
",.>.,.,.,.>.;.X.'  .O.} z 1 (.|.|.K.Z.(.|.|.|.|.|.|.|.|.`.P.B.|.|.'.C.o   8.= 0 [ #.,.y.,.,.,.,.,.,.",
",.,.,.,.,.,.,.%.Q Q Q Q &._   (.|.}.}.|.|.|.|.|.|.|.|.|.|.|.}.|.|.n 3 `   8.= 7 &.y.y.,.y.,.,.,.,.y.",
",.p.,.,.,.,.,.,.#./ ' X.o.X.X.o Z.|.|.|.|.|.|.|.|.|.|.|.|.|.|.|.% a @.D   8.= q p.,.,.,.,.,.,.,.,.,.",
"#.,.@.#.,.,.=.#.,.#.' ' ] ....j v 8 N ).|.|.|.|.|.|.}.}.{.H.8 8 i ` X.D   8.= i =.:.:.O.=.=.#.@.#.=.",
",.,.#.,.#.#.#.=.,.,.=./ ' ] ..@.g q p I ~ ~ K.(.!.`.B.! Y m 0 9 ' @.X.D   8.= r $.=.,.$.#.$.#.$.,.,.",
",.,.,.,.,.,.,.,.,.,.,.#.] ] ..o.@.X.D & & * Q V.Y Z.; & - 3 X.X.X.X...j   9.= r =.,.,.,.$.$.$.$.,.,.",
",.,.,.,.,.,.,.,.,.,.,.,.o.] ' ..o.X.X.X.o.o.9 o o o ) o.o.o.o.o.X._ A g   6.= 0 | | ,.:.e.=.$.r.,.,.",
",.$.,.$.=.=.=.=.=.,.,.,.$.@.' _ X.o.o.o.| o.X.o.o.o.o.X.o.o.o.o.] :                 =.:.q.$.r.$.=.=.",
"$.*.=.=.=.#.=.=.O.r.q.>.:.:.+._ _ X.o.o.X.| o.o.o.| o.o.X.o.o.] & k 6.7.b.b.b.9.6.6.O | r.q.$.r.=.=.",
",.,.=.=.=.=.=.=.e.@.@.0.=.=.$.O.) _ ] X.o.X.o.| o.o.o.| o.| ] : k 8.n.n.N.N.N.m.n.n.k , j $.$.$.=.=.",
"=.=.O.=.#.,.=.=.r.q.r.O.$.$.=.=.o._ _ ] | o.| | o.| | | | _ )   8.v.c.5.5.N.7.5.8.n.c.@ f q.O.r.#.=.",
"O.=.=.O.=.*.@.O.O.O.O.r.$.+.+.$.$.| ) _ ] | | | | ] | ] ] ) |   b.8.u &   N.> O , 4.M.@ d O.r.O.=.O.",
"$.+.o.O.O.O.O.o.o.o.$.O.o.O.o.r.#.$.] ) ) ] ] ] ' ] ] ] ) ` =.  b.u 3 [   M.> q A   N.@ d +.$.$.O.*.",
"o.| { | o.o.| | | | o.o.o.|  .o.o.O.o.] ) ) _ _ _ _ ) ) ) r.$.  b.u 2 D   M.> q Z   N.@ d o.O.$.X.] ",
"o.O.O.o.O.#.+.+.o.o.o.#.O.O.O.O.o.o.#.+.X.D K ' ] _ ) ) r.+.+.  b.u 3 `   M.> q Z   M.@ a ] | | o.#.",
"O.$.#.#.+.+.+.#.O.O.O.$.0.@.O.O.O.O.$.0.@.| ) D K ) _ :.q.+.=.  b.u 3 [   M.> q A   M.@ d O.O.o.+.O.",
"O.+.O.+.O.O.O.+.O.O.+.O.+.+.O.+.O.O.O.O.O.O.] ) D ] O.=.O.O.O.  b.u 2 }   M.> q S   N.@ d +.O.O.O.O.",
"+.o.+.+.O.@.+.+.O.O.+.O.+.O.O.O.O.O.O.+.O.O.o.) D | =.+.O.o.O.X v.u 5 K X M.y p K X m.- h O.O.O.O.O.",
"k.k.k.k.l.l.l.l.k.z.z.z.z.k.k.k.z.z.x.l.z.z.l.a.a.s.k.f.l.l.f.P 7.0.&.j.N 9.0.w.p.n 8.J q.k.k.k.l.k.",
"z.z.l.z.l.z.z.l.z.z.z.k.z.z.z.z.l.l.l.l.z.k.k.e.-.a.l.l.l.l.l.f.L r.k.z.j.J p.k.x.j.J p.k.x.z.z.l.x.",
"l.l.l.l.l.l.l.l.z.z.z.l.z.z.z.l.x.l.l.l.l.h.;.;.-.;.a.l.z.l.l.l.J w.x.x.l.P i.x.z.z.N j.z.z.z.l.l.l.",
"l.l.l.l.h.l.l.l.l.k.z.z.k.l.z.k.k.l.l.l.h.e.;.x.s.>.;.>.f.f.l.l.*.p.l.k.k.&.j.k.k.z.*.j.l.k.l.l.l.l.",
"d.d.d.h.h.h.h.d.d.d.h.k.z.k.k.h.h.h.f.s.e.;.k.k.s.a.>.-.>.d.f.f.f.h.h.h.f.f.h.h.j.f.j.k.h.h.j.d.f.f.",
"d.d.s.s.d.d.h.h.a.d.d.h.h.k.h.h.d.f.s.e.e.s.k.s.a.y.,.;.-.a.d.f.f.h.h.f.s.f.h.f.f.d.s.d.f.j.s.d.s.s.",
"k.k.j.j.f.h.k.j.h.d.f.f.f.f.h.h.h.h.;.;.a.x.a.a.a.a.t.a.-.-.s.h.k.k.l.h.f.h.l.k.k.j.d.k.k.k.j.j.k.k.",
"k.k.k.k.k.k.k.k.l.k.k.k.h.k.k.k.h.;.-.d.x.a.a.e.e.a.t.a.e.-.@.t.k.k.k.k.h.k.k.k.k.k.k.k.k.k.k.k.l.k.",
"k.k.k.k.j.k.k.k.h.k.k.k.k.k.l.h.;.o.h.h.a.e.a.t.a.t.e.a.e.e.;.-.e.k.k.k.k.h.k.k.k.k.k.k.k.k.k.k.j.k.",
"k.k.j.k.k.j.j.j.k.k.k.h.k.h.s.e.@.f.h.s.e.e.e.a.a.e.t.a.e.a.e.;.;.e.h.k.k.l.k.k.k.k.j.j.k.k.k.k.k.j.",
"k.j.k.j.j.h.j.h.h.h.h.h.k.s.e.-.d.h.s.a.a.e.e.t.e.t.e.t.e.a.t.e.;.-.e.h.h.k.h.k.j.j.j.k.g.k.j.j.j.j.",
"j.j.j.j.j.j.j.j.h.h.h.h.f.e.-.e.k.a.e.e.e.t.e.e.e.e.e.e.t.e.e.t.e.-.-.e.h.h.k.h.j.j.j.j.g.h.j.h.j.j.",
"j.j.j.j.j.j.j.j.j.j.h.h.e.@.e.z.t.e.e.e.e.a.t.e.t.e.a.e.e.e.e.t.e.e.@.@.s.j.h.h.j.j.g.k.j.j.h.g.j.j.",
"j.j.j.j.j.j.d.j.j.j.d.;.o.s.k.t.e.e.e.r.e.e.t.e.e.t.e.e.r.e.t.e.e.e.>.#.@.e.k.j.g.f.f.g.j.g.g.h.j.j.",
"d.d.f.d.d.f.d.d.f.f.#.@.s.d.e.e.r.e.e.e.e.e.e.e.e.e.e.e.e.e.e.#.:.:.;.#.@.-.e.d.f.d.d.j.f.d.d.d.j.d.",
"i.u.u.d.i.i.d.d.s.;.o.t.s.t.;.>.e.$.$.e.e.:.$.$.$.#.#.e.$.#.e.#.;.#.#.#.-.o.@.;.a.s.i.i.u.u.e.i.u.i.",
"e.e.u.e.e.u.u.e.:.o.>.g.e.:.#.#.e.#.#.;.#.;.;.#.;.#.#.#.e.@.-.-.;.#.-.$.-.@.o.-.e.s.u.t.e.u.e.e.e.e.",
"u.d.d.u.u.d.u.e.o.:.k.t.e.:.>.#.#.;.#.#.;.e.@.#.e.e.;.#.e.-.#.e.#.:.:.>.;.@.-...o.t.a.u.u.d.d.u.u.i.",
"i.d.d.d.d.d.e...:.l.,.>.>.,.:.,.e.e.e.#.e.e.>.:.:.e.e.e.e.e.>.>.:.>.>.,.:.,.:.:.....e.d.d.d.d.d.d.d.",
"i.i.d.d.d.#.X.e.f.,.>.:.:.:.:.,.e.#.e.e.e.O.:.>.:.:.$.:.0.;.:.:.>.:.:.:.:.:.:.:.;.o...e.d.d.i.d.i.d.",
"d.i.e.i.e.| e.i.,.>.:.:.:.:.,.-.e.e.e.#.e.@.e.>.:.:.$.:.:.:.:.:.:.:.:.:.:.:.:.:.e.@...-.e.i.i.i.i.i.",
"i.i.e.e.] e.u.e.:.:.:.;.:.:.;.,.$.#.#.e.@.e.0.;.#.:.:.:.;.:.:.:.:.:.:.:.:.:.:.:.e.$.#...o.e.i.i.i.d.",
"i.e.e.] @.d.,.,.;.,.;.;.;.,.;.;.;.:.:.:.;.>.;.:.e.#.:.;.:.:.:.$.:.:.:.:.:.:.:.:.:.:.:.@.@...t.s.i.e.",
"i.e...@.k.,.;.;.,.-.-.,.,.;.,.;.:.:.$.;.$.$.$.;.:.:.$.;.:.:.$.;.-.-.:.:.:.#.,.-.-.:.-.:.@...X.,.u.e.",
"..X.e.u.@.@.-.@.@.@.=.@.@.@.,.-.@.@.@.@.@.@.@.@.@.@.@.@.;.@.$.#.@.@.#.#.@.#.:.-.O.@.@.@.@.-.....X.X.",
"....@.u.@.o.#.o.@.o.@.o.X.@.o.@.o.#.$.@.@.@.o.@.@.#.#.@.@.@.@.@.@.@.X.@.@.X.@.o.@.#.-.@.@.X.......] ",
"e.X...;.-.#.#.@.@.@.#.#.#.#.@.@.#.#.#.#.$.#.#.@.#.#.#.@.@.#.#.#.#.#.#.#.#.#.#.#.#.#.$.#.@.X...,.e.o.",
"u.e.X...#.#.#.#.-.@.#.#.#.#.#.#.#.:.#.:.;.#.#.:.;.$.;.#.#.#.#.#.#.-.#.#.#.#.#.#.-.-.-.#.X...#.d.i.e.",
"t.u.:.X...@.-.,.#.#.,.#.-.#.#.,.#.$.-.$.#.#.#.#.$.$.#.$.#.$.;.#.$.#.#.#.#.#.,.#.#.#.=.X.X.#.g.i.u.u.",
"u.u.u.,...' o.-.#.#.-.#.#.#.#.#.#.#.#.#.#.#.#.#.#.#.#.#.#.#.#.#.#.#.#.#.#.#.-.#.#.#...' +.g.y.t.r.u.",
",.>.>.p.#.....X.#.#.#.#.#.@.@.#.#.@.+.#.@.O.#.#.#.@.#.O.@.#.@.O.@.@.#.O.#.O.#.#.#.X.' ,.d.a.a.,.r.e.",
"d.p.,.,.,.,.X...X.@.#.@.@.O.@.#.@.@.@.@.@.@.@.O.O.@.#.O.@.#.@.@.@.@.@.@.@.#.O.@...' ,.>.S.>.>.t.u.q.",
",.,.p.>.,.>.#.X.' X.@.@.@.#.@.@.o.#.@.#.@.O.@.@.@.@.@.#.@.#.@.#.#.#.#.#.@.@.@.X.' #.y.>.,.>.,.,.e.q.",
">.,.,.,.,.,.,.#.....o.@.o.o.@.@.@.@.o.o.@.o.@.@.@.@.o.X.o.@.o.@.o.#.o.o.X.@.X.' @.d.p.,.,.,.,.,.r.e.",
",.,.,.,.,.,.,.,.#.' ' X.o.X.....] | X.@.X.X.o.o.X.o.o.X.X.X.@.@.@.o.o.X.X.X.] | p.,.,.,.,.,.,.,.r.r.",
",.#.O.#.@.#.,.=.$.@.' ' ' ..X.o...X.........X.X.....X.....| X.X.....X...X.] X.i.,.,.=.#.#.=.#.#.o.o.",
",.=.,.,.,.@.#.#.,.,.$.' ' ' o.o.o.o.o.X.X...X.X.' X.X.o.X...X.X...o.X.../ #.u.=.#.#.,.#.#.#.#.#.,.$.",
",.,.=.=.,.,.,.,.,.,.,.@...' ..o.o.o.@.@.X.X.o.X.X.X.o.@.X.X.X.X.X.o.../ #.,.r.:.,.,.,.,.#.=.=.,.,.$.",
",.,.,.,.,.,.,.,.$.r.r.$.o.' _ ..o.X.o.o.o.o.o.o.o.o.o.o.o.o.o.o.X..._ | t.r.$.:.O.r.e.#.r.O.O.r.,.,.",
"=.=.,.,.=.=.=.=.r.$.+.r.$.O._ ' | o.o.o.o.o.o.o.o.o. .o.o.o.X.o.] _ ..r.q.r.q.e.r.r.$.q.r.r.r.r.,.$.",
"=.=.=.#.=.#.=.=.+.r.r.$.e.$.O._ ) X.o.X.| X.o.X.X.o.X.o.o.X.o...) ] u.r.$.$.q.$.O.r.O.r.O.r.r.$.=.=.",
"#.,.=.=.=.=.=.=.r.+.$.r.+.r.$.+.) _ | | o.X.o.| o. .o.X.X.o.' / ] r.q.+.$.:.$.:.r.O.r.O.r.O.O.r.$.=.",
"$.$.=.=.*.-.,.=.:.$.$.+.$.q.$.r.o.) ) | | o.| o.| o.| | X.' ) X.:.r.+.r.r.O.$.r.O.O.r.O.r.O.$.O.=.$.",
"$.+.+.=.,.*.O.O.;.0.+.r.O.o.r.+.e.] ) ) ] ] ] | | | | ] { / | $.t.0.$.$.o.r.O.+.r.O.>.0.$.$.O.r.$.+.",
"+.+.o.o.=.O.@.o.O.o.o.q.o.o.$.O.;.0.| ) ) ] | ] ' ] ] ] ) ' $.=.q.o.O.r.O.O.$.$.O.$.#.+.$.O.$.$.+.+.",
"o.| | | o.o. .| | | o.o.| | o.o.o.O.o.| ) K _ _ _ _ ) ) ) q.=.o.o.o.| | o. .O.+.o.O.o.o.O.O.O.+.o.| ",
"o.O.O.o.O.+.O.O.o.o.O.o.+.O.o.O. . .O.O.| D ) ] ] _ ) ) q.$.$.O.o.o.$.o.o.O.O.@.o.o.| o.o.| | | O.O.",
"O.$.O.O.+.+.O.O.O.O.+.o.o.O.o.q.O.O.O.e.O.| D ) D D ) e.r.+.O.O.O.O.O.O.o.q.0.:.O.O.O.o.+.o.o.o.O.+.",
"O.+.+.+.O.O.+.O.O.+.+.O.O.O.O.O.O.+.O.+.O.O.| K D _ O.r.+.O.O.O. .q.O.O.O.O.O.O.O.O.O.+.+.+.+.+.O.O.",
"O.O.O.O.O.O.O.O.+.+.O.O.O.o.O.O.+.+.+.O.O.o.O.) D ] q.O.+.O.+.o.O.O.O.O.O.O.O.O.O.+.+.+.O.+.O.O.O.O."
};
