/* XPM */
static char *result[] = {
/* columns rows colors chars-per-pixel */
"100 50 201 2 ",
"   c #000000",
".  c #030A0B",
"X  c #0C0C0C",
"o  c #05070A",
"O  c #0B0E13",
"+  c #001717",
"@  c #0C1116",
"#  c #001818",
"$  c #0E1218",
"%  c #1C1C1B",
"&  c #14151A",
"*  c #1F201E",
"=  c #20201E",
"-  c #151C25",
";  c #181F28",
":  c #002020",
">  c #002E2E",
",  c #0A2629",
"<  c #1B232C",
"1  c #182F2F",
"2  c #1E2732",
"3  c #1E2936",
"4  c #003E3E",
"5  c #242423",
"6  c #2C2C2B",
"7  c #232E3B",
"8  c #202B37",
"9  c #353533",
"0  c #3E303E",
"q  c #3D3D3A",
"w  c #393936",
"e  c #302E3B",
"r  c #41413F",
"t  c #263343",
"y  c #2A3645",
"u  c #27394A",
"i  c #343E49",
"p  c #2E3D51",
"a  c #493B48",
"s  c #513F4F",
"d  c #014445",
"f  c #09494B",
"g  c #005C5C",
"h  c #1C4350",
"j  c #33455B",
"k  c #36495F",
"l  c #38495D",
"z  c #354355",
"x  c #3C4D64",
"c  c #364963",
"v  c #3E546D",
"b  c #3E5066",
"n  c #3C5672",
"m  c #04696A",
"M  c #066F71",
"N  c #017374",
"B  c #027D7D",
"V  c #434546",
"C  c #4C4C4A",
"Z  c #46494A",
"A  c #434757",
"S  c gray33",
"D  c #5B5B56",
"F  c #5C5C5A",
"G  c #555758",
"H  c #564B54",
"J  c #62625D",
"K  c #41556D",
"L  c #425670",
"P  c #435A75",
"I  c #435E7D",
"U  c #495F7A",
"Y  c #495F77",
"T  c #515B65",
"R  c #684C68",
"E  c #745B75",
"W  c #5F6267",
"Q  c #5A6268",
"!  c #4A627E",
"~  c #47607D",
"^  c #5A6779",
"/  c #46787C",
"(  c #606060",
")  c #6A6A64",
"_  c #64676B",
"`  c #71716C",
"'  c #656E79",
"]  c #737372",
"[  c #7B7B75",
"{  c #7D7D79",
"}  c #7C607C",
"|  c #82827D",
" . c #456282",
".. c #4A6584",
"X. c #4A668A",
"o. c #4D6A8C",
"O. c #4A6588",
"+. c #526E8D",
"@. c #546A86",
"#. c #5A718C",
"$. c #4E6B92",
"%. c #516E92",
"&. c #557294",
"*. c #5B7696",
"=. c #5B7897",
"-. c #56749A",
";. c #59769B",
":. c #5C799C",
">. c #607D9F",
",. c #617894",
"<. c #687382",
"1. c #5677A1",
"2. c #5778A2",
"3. c #5C7CA3",
"4. c #5E7FA9",
"5. c #617DA2",
"6. c #825F82",
"7. c #9B759B",
"8. c #008A8A",
"9. c #028586",
"0. c #009C9C",
"q. c #009393",
"w. c #349090",
"e. c #00A1A1",
"r. c #00ADAD",
"t. c #00BABA",
"y. c #00B7B7",
"u. c #18A2A2",
"i. c #6F839E",
"p. c #5F80A9",
"a. c #5F80A6",
"s. c #6381A6",
"d. c #6283AB",
"f. c #6985AB",
"g. c #6988AF",
"h. c #6E86A4",
"j. c #718CAE",
"k. c #6788B1",
"l. c #6C8CB4",
"z. c #6E8FB8",
"x. c #6687B0",
"c. c #708FB5",
"v. c #6F90B9",
"b. c #7090B7",
"n. c #7292BB",
"m. c #7697C1",
"M. c #7798C3",
"N. c #7899C2",
"B. c #7E9FC8",
"V. c #00C2C2",
"C. c #00C9C9",
"Z. c #00D3D3",
"A. c #00D8D8",
"S. c #00E4E4",
"D. c #00F6F6",
"F. c #00F8F8",
"G. c #8D8D86",
"H. c #878780",
"J. c #909189",
"K. c #9B9B93",
"L. c #9D9D99",
"P. c #949592",
"I. c #A3A39B",
"U. c #A8A89D",
"Y. c #B685B6",
"T. c #B58BB5",
"R. c #B992B9",
"E. c #A481A3",
"W. c #A9A9A0",
"Q. c #B6B6AD",
"!. c #BABAAE",
"~. c #BCBCB3",
"^. c #B9B9B9",
"/. c #B0A2A8",
"(. c #C5C5BC",
"). c #C9C9BD",
"_. c #C1C1B5",
"`. c #D098D0",
"'. c #DBA3DB",
"]. c #D5A3D3",
"[. c #D0ADCD",
"{. c #EDB5ED",
"}. c #F4BDF4",
"|. c #CBCBC2",
" X c #D3D3CA",
".X c #D9D9CC",
"XX c #DDDDD2",
"oX c #D8D8D8",
"OX c #E7D9DD",
"+X c #E4E4D6",
"@X c #E4E4D8",
"#X c #EBEBDD",
"$X c #F8C0F8",
"%X c #F7C0F7",
"&X c #ECC5E6",
"*X c #EEEEE0",
"=X c #F4F4E5",
"-X c #F8F8E8",
";X c #F8F8E7",
":X c #F8F8F8",
">X c None",
/* pixels */
">X>X>X>X>X>X>X>X>X>X>X>X>X>X>X>X>X>X>X>X>X>X>X>X>X>X>X>X>X>X>X>X>X>X>X>X>X>X>X>X>X>X>X>X>X>X>X>X>X>X>X>X>X>X>X>X>X>X>X>X>X>X>X>X>X>X>X>X>X>X>X>X>X>X>X>X>X>X>X>X>X>X>X>X>X>X>X>X>X>X>X>X>X>X>X>X>X>X>X>X",
"M.M.m.m.m.M.M.M.M.M.M.m.m.m.M.M.M.M.M.M.m.m.m.d.2.4.m.M.m.m.M.M.M.M.m.m.m.m.m.M.m.m.m.m.M.M.M.m.M.n.i.! U z.m.M.M.M.m.M.m.N.m.M.m.M.M.M.m.M.m.m.z.2.2.z.M.m.M.M.M.M.M.m.M.M.M.M.M.m.M.M.m.m.M.M.M.m.m.M.",
"m.m.m.m.M.m.m.m.M.m.m.m.m.m.m.M.M.m.m.m.M.M.4.2.2.2.2.m.M.m.m.m.M.M.M.m.m.m.M.m.m.M.M.M.M.M.m.m.n.@.C   - c.m.m.m.N.N.m.m.m.m.m.M.M.m.M.M.M.m.k.2.2.2.2.z.M.M.M.M.M.M.M.m.m.m.M.m.m.M.m.m.N.M.m.m.m.M.m.",
"m.M.n.m.n.n.m.m.m.m.m.m.m.m.n.m.n.m.m.m.n.p.2.z.m.d.2.2.k.z.v.m.z.m.m.m.n.v.m.m.m.m.m.n.m.l.>.m.h.8   & @.l.m.m.m.n.m.m.n.m.m.m.m.n.m.m.m.n.d.3.d.M.k.2.2.d.z.v.m.v.n.m.m.m.v.n.M.m.M.m.m.n.m.m.M.m.M.m.",
"l.l.z.z.v.v.v.z.l.z.v.n.n.m.n.n.v.v.v.v.k.2.l.v.l.d.4.2.4.k.z.v.z.v.n.z.n.l.v.z.n.n.z.z.g.K y v.z.3.  _ & +.v.v.z.z.z.v.n.m.n.n.n.v.v.v.v.k.3.d.z.m.x.4.2.2.d.z.v.z.z.z.z.z.z.z.v.v.v.v.z.n.n.n.z.z.l.z.",
"k.l.k.k.l.l.z.z.k.k.z.z.n.n.v.v.l.z.z.p.1.p.m.z.d.x.d.2.2.4.k.z.z.z.z.z.l.l.v.v.z.z.x.x.j   t k.g.:.  l._ X @.z.z.k.k.k.z.v.n.n.v.v.v.v.x.2.p.z.m.d.d.x.4.2.1.x.z.z.z.z.z.l.l.z.v.v.v.k.g.z.b.n.k.k.l.l.",
"v.n.v.z.l.z.v.v.z.l.z.z.z.z.v.n.v.v.p.2.3.B.k.x.d.x.x.x.2.1.4.z.n.n.n.z.l.z.n.m.n.n.z.y         $ v.n.n.l.@ o.z.v.z.z.l.z.z.z.z.n.v.v.k.1.2.m.v.d.x.d.x.k.4.1.2.l.v.n.m.n.l.l.z.n.m.n.v.l.v.n.n.z.z.n.n.",
"n.n.m.v.v.v.m.v.m.v.n.n.v.n.n.n.n.p.2.p.B.x.x.x.d.d.d.x.x.2.1.2.v.n.m.n.n.n.n.n.n.n.n.n.l   y h.S $ n.n.n._ & #.m.v.n.n.n.v.n.n.n.n.k.2.2.M.v.x.d.d.x.d.x.d.4.1.1.l.v.m.n.n.m.n.n.n.n.n.n.n.n.n.n.n.n.n.",
"n.n.n.n.n.n.n.n.v.n.n.n.n.n.n.n.p.-.p.m.k.d.x.p.p.x.x.p.x.p.3.1.2.z.n.v.n.n.n.n.n.n.n.n.g.K y n.i.C @ b.n.j.< #.n.n.n.n.n.n.n.n.n.x.1.2.m.l.k.p.p.p.p.x.d.d.d.p.-.2.k.m.n.n.n.z.n.n.n.n.n.n.b.n.n.n.n.n.",
"c.n.n.n.n.n.n.n.n.n.n.n.n.v.v.d.1.p.v.v.d.p.p.d.x.d.p.x.p.p.p.3.1.p.z.v.n.n.n.n.n.n.b.n.b.s.i.n.c.,.  ' j.b.< +.n.n.b.n.n.n.n.n.x.2.2.z.v.d.p.p.x.x.d.x.d.d.d.d.2.2.3.x.v.n.n.m.n.n.n.n.n.b.n.b.b.n.b.n.",
"n.c.n.b.b.b.v.v.n.v.n.v.v.z.x.1.p.z.l.d.p.x.p.d.p.p.x.p.x.p.d.p.2.1.4.z.n.n.n.n.n.n.b.n.b.b.b.b.b.f.#.% s.b.< #.c.b.n.b.v.v.n.k.1.3.l.v.d.x.p.x.p.p.d.p.p.x.d.d.p.4.2.2.k.v.n.v.n.n.v.c.b.n.b.b.b.b.v.n.",
"n.c.b.b.b.b.b.b.c.c.c.v.v.p.-.2.m.z.p.p.p.d.p.p.p.p.p.p.p.p.p.d.4.1.-.4.z.v.v.n.c.b.c.c.b.b.b.b.b.b.b.  8 y $ < +.c.b.b.n.v.l.-.1.l.n.d.p.p.p.p.p.p.p.p.p.p.p.p.d.p.2.1.1.l.v.v.b.v.v.v.b.b.b.b.b.b.c.v.",
"c.b.b.b.b.b.c.c.v.c.v.v.p.-.2.M.k.p.p.d.p.d.d.d.d.p.d.p.p.d.d.d.d.p.;.-.3.z.v.v.c.v.b.b.b.b.b.b.b.f.l   ` [ = D T l #.b.v.l.-.-.n.z.d.d.p.p.p.d.x.d.p.d.d.p.d.d.p.d.p.2.;.1.l.v.c.v.b.b.b.b.b.b.b.b.b.b.",
"c.c.c.c.c.b.c.c.c.z.c.a.-.p.v.x.d.p.p.a.d.d.p.p.p.d.p.d.d.d.p.a.4.d.d.2.-.3.l.z.b.c.c.c.z.c.b.z.b.>.    ) [ = D [ [ W ! d.2.-.m.k.d.d.3.d.d.p.p.p.p.p.p.d.p.p.d.p.p.d.p.3.-.1.k.c.c.c.c.c.c.c.b.b.b.b.b.",
"b.b.b.c.l.l.c.c.z.l.3.-.d.l.k.p.s.a.a.d.a.a.p.a.p.p.a.p.d.3.3.s.3.3.3.2.1.$.2.k.c.c.l.l.l.c.z.l.f.b   5 5 5 5 = ) K.C < x n l.k.g.a.d.d.a.a.a.a.a.p.p.a.a.a.a.a.p.5.3.3.2.;.-.2.f.l.z.z.z.l.c.l.c.c.l.b.",
"g.g.g.j.g.l.k.k.g.d.-.3.g.k.a.a.d.3.3.3.a.3.3.3.3.3.;.3.3.2.:.2.2.1.;.;.-.-.-.4.g.k.l.l.g.g.g.5.K & % ( ( J J C & % w q i Z +.~ 3.3.3.3.3.a.a.3.3.3.a.;.3.3.2.2.2.2.2.:.;.2.-.%.;.g.k.k.k.l.g.g.g.g.g.g.",
"a.a.a.x.a.g.g.x.4.%.1.z.g.1.;.1.3.3.2.2.3.2.;.:.2.:.2.2.;.2.:.2.2.2.2.;.2.-.-.$.2.d.g.d.d.s.:.U % ( ( ( ( S S 9 % ] @X-X-X).= * o.2.3.2.;.3.2.:.;.2.2.;.;.2.2.;.2.;.;.2.2.;.-.-.%.1.p.x.x.d.4.p.a.s.a.a.",
"x.g.g.x.x.g.g.a.-.-.n.x.4.5.4.;.1.;.:.2.:.3.;.1.3.3.3.:.3.2.2.3.:.;.3.3.a.2.2.%.&.3.k.g.d.s.x @ S F ( ( ( X % I.#X-X-X-X-X-X-X=X% o.:.;.2.1.3.3.;.2.a.3.2.:.a.;.a.3.2.2.a.a.2.;.-.$.-.k.x.x.k.k.k.g.f.g.",
"g.b.g.l.l.k.a.%.1.v.5.5.4.5.4.3.4.3.3.3.3.3.3.3.3.a.s.3.a.a.3.a.3.3.3.a.3.a.3.3.-.%.;.k.k.K     X ( ( ( ( X K.=X-X-X-X-X-X-X-X-X;X  %.5.3.3.3.3.3.3.3.a.a.3.a.3.3.a.3.3.a.3.3.3.4.2.%.-.d.l.x.x.l.l.l.l.",
"g.g.g.b.g.a.-.:.k.x.5.4.3.3.3.3.3.3.5.3.3.a.3.3.a.3.3.3.3.3.3.3.3.a.3.a.a.2.a.a.2.1.%.7   w G.J.[           K.#X-X-X-X-X-X-X-X-X-X-X| ,.3.3.s.3.3.a.3.3.3.3.3.a.3.3.3.a.3.a.a.3.3.2.1.%.1.d.m.E.l.g.g.k.",
"g.l.l.g.a.&.1.p.l.4.3.3.2.5.3.3.3.3.3.3.3.3.3.3.3.3.3.3.3.3.3.3.3.3.3.3.3.3.a.3.3.2 @ G [ H.I.|.|..X.X.X.X~.+X=X-X-X;XU.= = = = -X;X6 ..3.3.3.3.3.3.3.:.3.3.3.3.3.3.3.3.3.3.:.3.3.3.3.-.$.1.4.4.g.g.g.g.",
"l.g.g.p.$.-.x.l.5.2.3.3.5.5.;.3.3.:.3.3.3.3.3.3.3.3.3.:.3.3.3.:.3.3.3.a.3.3.3.:.2 P.Q.~.|. X*X=X=X-X-X-X;X=X=X-X-X-XH.H Y.Y.Y.Y.= -X= o @ @ @ j 3.3.3.3.2.3.3.3.3.3.:.a.3.3.a.3.3.3.a.2.1.$.1.4.l.l.g.k.",
"g.g.a.$.$.g.x.a.2.5.5.2.2.5.;.5.3.3.3.3.3.3.3.3.2.3.3.3.3.3.3.3.3.2.:.2.3.3.3.7 { .X*X*X*X=X-X-X-X;X-X=X;X-X-X-X-XK.R T.'.{.{.{.R.J.O ] K.{ ) V z 3.3.3.3.3.:.3.3.3.3.3.3.3.3.3.3.3.:.a.3.-.$.%.g.g.g.g.",
"g.a.-.%.n.a.a.-.5.2.2.5.2.2.3.3.:.3.2.3.:.2.3.3.:.3.3.2.:.3.3.3.:.3.3.3.3.2.7 P.|.=X-X-X-X-X*X X!.Q.Q.+X=X;X-X-X;X[ R '.{.$X$X$X%X` O [ U.K.G % O c 3.3.3.3.3.2.2.:.3.2.2.3.:.3.2.3.2.;.2.1.-.%.&.f.l.3.",
"-.-.-.d.5.;.;.;.-.-.;.;.;.;.;.3.:.-.-.;.-.-.-.-.-.;.;.;.:.2.;.2.;.;.;.:.2.<.| @X-X-X-X-X-X*X|.I.J.J.J.W..X=X-X-X;X[ R '.$X$X$X$X}.6 q ] J.D i c c P ;.;.;.;.3.-.:.:.-.;.;.1.;.;.;.;.;.-.;.-.-.-.$.-.;.-.",
"$.$.&.b.-.%.;.1.-.-.;.1.%.-.;.1.-.-.;.;.-.;.-.-.-.-.-.-.-.-.-.;.-.-.-.-.-.w @X;X-X-X-X-X-XXXI.J.J.G.[ ] P.#X-X-X;X!./.&X$X$X$X$X} C ` I.J i U -.&.-.-.;.-.-.;.-.;.-.-.-.-.-.&.;.-.-.-.-.;.-.-.-.$.$.$.$.",
"-.%.%.a.-.-.-.-.-.-.-.%.-.-.%.-.-.1.2.:.;.;.-.-.;.;.1.-.-.-.-.-.-.-.-.&.#.F -X-X-X-X-X-X-X).{ { { | G.K.` +X-X-X;X-X-XOXR.7.E.[.w U.) ] A P ;.;.&.1.;.;.-.-.-.-.-.-.-.-.-.-.-.-.-.-.-.3.;.-.-.%.o.;.-.$.",
"l.3.$.$.5.1.;.1.;.5.;.;.3.;.;.;.;.;.:.;.:.2.;.:.1.;.1.;.1.;.;.:.;.;.;.;.S -X-X-X-X-X-X-X-X~.D [ Z P.oX:X( XX-X-X;X;X-X|.{ w C I.U.|.%   z Y P P  .1.:.2.;.:.2.;.;.2.;.;.;.;.1.;.3.;.;.1.;.3.-.$.%.b.k.;.",
"f.d.5.$.$.-.;.;.1.;.;.;.3.;.;.;.:.1.2.:.:.:.:.;.:.1.;.;.;.;.:.:.:.;.;.o.  ;X;X;X-X-X-X-X-XW.{ L.F :X:X^.9 +X-X-X-X-X-X-X;X=X.X X-X.X0 5 o % 0 0 s  .;.;.:.:.;.:.:.2.;.:.1.:.;.;.;.;.;.5.;.%.%.%.c.g.f.f.",
"f.f.s.3.$.$.-.-.;.;.;.;.;.;.;.;.;.;.-.;.;.;.;.;.;.:.;.;.;.;.;.;.;.;.;.@.  .X=X-X-X-X-X-X-X-XW.q oXoXoX% ^.=X-X-X-X-X-X-X;X;X=X X-X-XI.J.5 7.}.`.<.t ;.;.;.-.-.;.;.;.;.;.;.;.;.;.;.;.;.;.-.$.;.j.f.f.f.s.",
"s.f.s.f.-.$.$.-.;.;.;.;.;.;.;.;.;.;.;.-.-.;.;.=.;.;.-.;.-.;.;.-.;.-.;...     X=X-X-X-X-X-X-X-X!.       X=X-X;X;X-X-X-X-X-X-X-X-X-X-X.XL.5 6.`.R 8 ;.;.;.-.;.-.-.-.;.-.-.;.;.;.:.;.;.-.-.$.-.4.c.s.f.s.s.",
"s.s.s.s.5.&.$.%.-.;.1.;.;.-.-.-.-.-.*.*.-.-.-.;.-.*.-.*.;.-.*.-.-.;.;.o.  |.;X;X-X-X-X-X-X-X-X-X-X-X-XJ.] ` ] % K.-X-X-X-X-X-X-X-X-X-X.XL.9 o y ;.;.&.;.*.;.-.*.;.-.*.-.*.-.;.-.-.-.-.$.-.5.c.5.s.s.f.h.",
"7.4.5.5.4.4.;.X.o.-.-.-.-.*.-.-.-.-.*.-.-.-.-.-.-.W X     k -.*.-.;.-.:.-.  -X-X;X-X-X-X-X-X-X-X-X=X-X-X-X-X-X-X-X-X-X-X-X-X-X-X-X-X XI.J.9 c *.-.-.-.-.-.-.*.-.-.*.-.*.;.;.-.-.-.%.$.%.5.f.5.f.s.s.s.s.",
"k.5.4.5.5.5.5.-.X.$.%.-.-.-.-.;.-.&.-.-.*.-.#.W W u.Z.A.r.d O O t &.-.-.*.   X=X;X;X-X-X-X-X-X-X-X=X).i.{ |.*X-X-X-X-X-X-X-X-X-X-X.XI.J.J.9 l -.&.-.*.-.-.-.-.-.-.-.-.*.-.&.;.*.%.o.$.f.f.5.5.5.s.s.s.s.",
"4.x.5.5.5.5.5.5.-.X.$.%.&.&.%.%.%.%.%.-.%.%.&.#.@./ f 4 t.C.t.e.M t *.%.%.n 9  X;X;X;X;X-X-X-X-X;X;X=X.X.XK.C ).-X-X-X-X-X-X-X-X-X*XXXI.J.9 l &.-.&.%.-.%.%.%.&.*.-.-.-.&.%.%.%.$.%.f.5.f.5.5.5.5.s.s.s.",
";.1.5.5.5.5.5.5.3.%.X.o.%.%.%.%.o.%.%.%.%.%.%.%.%.@.K b f 4 9.A.V.M 7 %.%.$.x C Q.=X;X;X-X-X-X-X;X;X;X;X;X.X_.L.|.-X-X-X-X-X-X-X-X-X;X|.K.9 j %.%.%.%.%.%.%.%.%.%.%.&.%.&.$.%.$.%.5.5.5.5.5.5.5.5.,.=.*.",
";.;.;.;.-.-.>.;.5.;.%.X.X.$.$.&.%.%.%.%.%.%.$.$.' e 8 8 z j h 0.S.8.- %.$.X.%.L V I..X;X-X-X-X-X;X;X;X;X;X;X;X X#X-X-X-X-X-X-X-X-X-X+XQ.K.9 p $.%.%.%.%.%.%.%.$.%.%.$.%.%.$.X.%.5.s.:.:.3.-.*.*.-.*.;.;.",
"5.5.5.5.5.>.;.>.5.5.5.%.X.X.&.&.&.-.%.-.&.%.^ ^ w.9.B g h y - B S.8.- $.O.$.g.5.c V ) ~.+X#X-X-X;X;X+X;X-X;X;X;X-X-X-X-X-X-X-X-X;X@XQ.P.J.9 c %.%.o.%.%.%.%.%.%.X.$.%.&.%.O.X.5.s.=.3.5.5.:.;.=.:.5.5.5.",
"5.5.5.5.5.5.5.5.5.5.5.5.%.O.o.$.&.&.&.&.%.&.^ ^ w.B B V.q.B B t.S.e.o t y z 5.5.a.x & r _ ` I.+X+X+X X;X-X-X-X#X*X-X-X-X-X-X-X-X-X@X).L.D i U %.&.-.%.%.-.-.%.%.%.&.%.%.O.@.5.4.5.5.5.5.s.5.=.a.5.5.5.5.",
"5.5.5.5.5.5.5.5.5.5.5.5.:.&.O.o.%.&.&.%.%.*.%.&.^ 7 7 N 0.0.0.C.F.t.+ d d d x K x x < 9 C C ) H.| J.XX;X-X-X#X(.+X-X-X-X-X-X-X-X;X;X#XI.5 j &.&.&.&.%.&.%.*.%.*.&.&.$.X.X.j.5.5.s.>.5.>.5.:.*.i.5.5.5.5.",
">.>.5.>.:.>.>.>.>.>.>.s.>.=.*.O.X.%.%.%.&.%.*.%.n K K 3 < & X B F.t.: 8.8.8.> > > > + ) K.K.F . < = -X-X;X;XQ.I..X-X-X-X-X-X-X-X-X*X).[ % j %.%.&.%.&.&.%.&.&.&.%.%.O.@.=.h.a.s.=.>.>.>.i.*.a.a.>.>.>.>.",
">.>.>.>.>.>.>.:.:.>.>.>.>.>.:.+.O.@.+.%.&.%.! +.: : # k !  .h 8.D.y.o O @ X e.e.e.e.d + # # . & Y q -X-X;X*Xq | .X=X=X=X-X-X-X-X-X).H.a = x @.&.+.&.+.&.&.%.+.&.%.O.$.;.s.s.=.>.>.>.>.:.a.s.*.a.>.:.>.>.",
">.;.>.>.>.3.>.>.5.>.5.:.:.>.>.:.X. .O.%.%.~ % W A.A.C.f : : M Z.Z.9.3 :.=.a.@ X O @ M e.e.e.N . % ;X-X-X-X~.9   ] Q.).#X=X=X=X#X#X[ & T.{.H p %.&.%.%.%.+.%.%.o.O.O.>.5.>.>.s.:.:.=.:.>.a.#.=.a.:.,.3.3.",
"*.>.,.:.=.,.:.:.:.=.:.=.>.=.>.:.>.o. . .+.%.+.+.    A.F.F.F.A.y.N ; :.>.a.=.:.a.:.:.7       d 8.* ;X-X-X=X*           C |. X).J.J.    7.`.s c %.+.%.+.%.+.+.o.~  .>.5.>.=.>.=.>.,.s.:.=.a.#.a.#.>.:.:.,.",
":.:.=.=.>.:.*.*.*.*.=.:.#.a.#.a.a.=.+.~ O.o.+.+.o.o.@           7 ,.:.,.:.:.:.=.,.:.:.=.:.=.x 0 }.].-X;X* e.t.t.t.g               =.=.-     j %.+.%.o.o.%.@.O...>.>.=.:.=.:.:.=.:.a.=.a.=.=.a.a.=.=.=.=.",
"*.#.&.&.*.*.&.%.+.+.*.*.+.+.#.a.+.=.&.o.~ O...X.X...P n n U +.@.+.*.&.=.&.*.*.:.=.=.*.*.=.=.l w }.{.].* K , # # # g e.e.e.N O ../ *.;.+.~ n P ........o... .O.;.>.,.*.&.*.&.&.&.=.=.*.*.*.=.*.*.>.=.*.&.",
"&.&.&.+.&.&.&.#.*.+.+.@.&.&.&.&.&.&.&.&.X. . ...o..... .o.*.>.*.&.&.&.&.#.&.*.=.*.&.#.&.*.&.o.k % = & ! +.! @...! u # # + 1 G &.&.&.&.&.*.o. . .....o./  ...*.5.*.%.*.#.&.&.&.*.*.#.&.&.&.&.&.&.*.*.%.+.",
"*.=.*.&.=.=.;.*.#.#.w.a.#.a.+.a.#.&.=.=.-. . ...o.O.~ ..:.>.*.:.*.&.*.*.*.*.*.&.&.*.&.&.&.+.+...K K P =.&.*.*.=.=...K K K ~ #.&.*.*.&.*.=.=.X. . .X.X. . .%.5.*.:.*.&.*.*.*.=.=.*.*.*.&.+.&.+.+.o.+.*.:.",
"=.=.=.=.=.=.=.=.*.=.=.=.=.*.*.,.=.=.*.,.;.=. . .I  .I 5.>.*.:.,.=.=.:.=.=.=.=.,.=.=.=.=.:.,.=.=.*.*.:.*.:.*.*.*.:.*.*.*.*.=.=.*.*.>.*.=.=.=.,.@. .I  . .&.5.,.*.*.*.*.>.=.=.*.=.*.*.,.*.*.>.=.*.;.*.=.*.",
"*.*.*.*.=.=.=.*.*.*.*.,.*.*.=.=.*.,.*.*.*.=.*.o.I ..5.,.*.*.*.*.*.*.*.,.=.*.=.*.*.*.,.*.*.*.*.*.*.,.*.*.,.*.*.*.*.,.*.*.,.*.,.*.*.*.=.=.*.*.*.*.+.I I *.>.*.:.*.,.*.*.*.*.,.*.*.,.*.*.=.=.*.*.,.*.*.*.*."
};
