/* XPM */
static char *result[] = {
/* columns rows colors chars-per-pixel */
"50 50 193 2 ",
"   c #000000",
".  c #0C0C0C",
"X  c #04090B",
"o  c #0B0F14",
"O  c #0D1116",
"+  c #0E1319",
"@  c #001F1F",
"#  c #141313",
"$  c #1B1B1A",
"%  c #11171E",
"&  c #21211F",
"*  c #141A22",
"=  c #191E23",
"-  c #002E2E",
";  c #1B232D",
":  c #1C2026",
">  c #1B2632",
",  c #1F2936",
"<  c #003E3E",
"1  c #242423",
"2  c #2A2A2A",
"3  c #25292C",
"4  c #222B36",
"5  c #262A38",
"6  c #342634",
"7  c #332F33",
"8  c #26353C",
"9  c #343432",
"0  c #3F3F3C",
"q  c #39343E",
"w  c #42423F",
"e  c #253343",
"r  c #2B3545",
"t  c #2C3B4D",
"y  c #2A3748",
"u  c #333A43",
"i  c #383C4C",
"p  c #2D3D52",
"a  c #303E51",
"s  c #4E3A4E",
"d  c #433A43",
"f  c #035B5C",
"g  c #0A575A",
"h  c #1C4A50",
"j  c #39424D",
"k  c #314255",
"l  c #34465B",
"z  c #3D4A58",
"x  c #2E4155",
"c  c #3C4E64",
"v  c #364C65",
"b  c #3D526B",
"n  c #3F5573",
"m  c #3F5977",
"M  c #007C7C",
"N  c #006F6F",
"B  c #4D4D4B",
"V  c #464745",
"C  c #544555",
"Z  c #5D485D",
"A  c gray33",
"S  c #5B5B56",
"D  c #4A5257",
"F  c #61615C",
"G  c #42546D",
"H  c #495665",
"J  c #415772",
"K  c #445975",
"L  c #445D7D",
"P  c #4B5C73",
"I  c #525E6A",
"U  c #684C68",
"Y  c #6D596F",
"T  c #55686C",
"R  c #4E637B",
"E  c #5A6879",
"W  c #606060",
"Q  c #6A6A65",
"!  c #6C6C6A",
"~  c #626E6E",
"^  c #7B617B",
"/  c #6D737A",
"(  c #727271",
")  c #7B7B75",
"_  c #7D7D7B",
"`  c #71757A",
"'  c #82827E",
"]  c #446181",
"[  c #4B6484",
"{  c #4B668B",
"}  c #4E6A8C",
"|  c #4C6687",
" . c #526D8D",
".. c #566C86",
"X. c #55708E",
"o. c #4E6C92",
"O. c #516E94",
"+. c #557293",
"@. c #597696",
"#. c #55749A",
"$. c #59769C",
"%. c #5D7A9C",
"&. c #657785",
"*. c #717A85",
"=. c #607D9E",
"-. c #697E93",
";. c #5C7CA2",
":. c #5779A2",
">. c #617EA2",
",. c #9B789B",
"<. c #008A8A",
"1. c #078383",
"2. c #009A9A",
"3. c #319999",
"4. c #01A0A0",
"5. c #00ABAB",
"6. c #00BABA",
"7. c #38B4B4",
"8. c #68809D",
"9. c #6481A5",
"0. c #6584AB",
"q. c #6985AB",
"w. c #6988AF",
"e. c #6885A7",
"r. c #6788B1",
"t. c #6C8CB4",
"y. c #6E8FB8",
"u. c #718FB6",
"i. c #6F90B9",
"p. c #7090B7",
"a. c #7293BB",
"s. c #7088A9",
"d. c #7697C1",
"f. c #7798C3",
"g. c #7A9BC5",
"h. c #00D8D8",
"j. c #00D0D0",
"k. c #18D1D1",
"l. c #2AC5C5",
"z. c #00E9E9",
"x. c #00E4E4",
"c. c #00F5F5",
"v. c #00F8F8",
"b. c #848481",
"n. c #8C8C85",
"m. c #8D8D8A",
"M. c #909088",
"N. c #99958F",
"B. c #948294",
"V. c #9B9B93",
"C. c #9B9B9B",
"Z. c #969895",
"A. c #A3A39B",
"S. c #ABAB9F",
"D. c #AC89AC",
"F. c #A980A9",
"G. c #B68AB6",
"H. c #B593B3",
"J. c #ACACA4",
"K. c #B2B2AB",
"L. c #BABAAE",
"P. c #BCBCB3",
"I. c #BEBEBE",
"U. c gray69",
"Y. c #C096BE",
"T. c #C5C5BC",
"R. c #C6C6BA",
"E. c #C799C7",
"W. c #D29AD2",
"Q. c #D9A6D9",
"!. c #E5ADE5",
"~. c #EAB3EA",
"^. c #E7B6E7",
"/. c #F5BDF5",
"(. c #CCCCC3",
"). c #D3D3C9",
"_. c #D9D9CC",
"`. c #D2D2C6",
"'. c #DCDCD2",
"]. c #DFD5D4",
"[. c #D0C9C9",
"{. c #E4E4D7",
"}. c #E5E5D8",
"|. c #EAEADC",
" X c #F8C0F8",
".X c #EDDFE1",
"XX c #EEEEE0",
"oX c #EEE0E2",
"OX c #F5E6E9",
"+X c #F4F4E5",
"@X c #F8F8E8",
"#X c #F8F8F6",
"$X c None",
/* pixels */
"a.d.a.d.y.f.f.f.d.f.f.f.d.d.d.d.d.f.d.d.g.%.8 . X = W w.9.=.-.( d.g.g.-.&.d.d.f.d.f.f.d.d.d.i.d.d.i.",
"f.f.d.d.f.f.f.f.f.f.f.d.d.d.f.f.d.f.f.d.q.= V 7 = >.T s.r 9 ~ &.e.f.u.-.&.u.f.d.f.f.d.d.f.d.f.d.d.d.",
"d.d.d.d.d.d.d.d.f.f.d.d.d.d.d.f.f.d.d.d.  A X.p * W 6.T 1   - 4.  e.*.3.3.` f.d.f.f.f.d.d.d.f.d.d.d.",
"d.d.a.d.i.d.d.d.i.d.d.d.d.d.d.i.d.d.d.d.   .:.d. .                s.*.7.l.` d.d.d.d.a.d.d.d.d.d.d.f.",
"t.t.t.y.y.y.y.y.t.t.i.d.a.d.d.i.i.i. .# A $.p.a.|   A .     < 6.  >.5 1.4.= a.y.y.y.y.y.i.y.y.y.y.y.",
"t.t.r.r.t.t.y.t.r.r.t.i.i.i.i.i.t.y.|   @.r.g.G 5 V k.@     < h.  >.> M 2.+ y.y.y.t.r.t.y.y.r.r.r.r.",
"d.d.i.y.y.t.d.y.i.y.y.y.i.y.i.a.i.i.]   w.g.0.l X & c.@ 4 > < h.  >.4 M 2.% a.a.a.i.y.y.d.d.y.y.i.d.",
"i.y.i.d.i.i.d.i.a.d.i.a.a.a.a.a.i.:.m   g.0.n 8 2   c.- b x < h.X >.= M 2.+ d.a.a.a.i.d.a.i.i.a.d.a.",
"i.a.a.a.a.a.a.a.a.a.a.a.a.a.d.y.:.m e   l p * u H   c.N h ; < h.  k g 5.2.+ a.a.a.p.a.a.a.a.a.a.i.a.",
"i.i.a.a.a.a.a.a.p.a.a.a.a.i.t.m v D 9   B B $ , k   x.j.<.f M z.f f 5.h.<.+ a.a.a.p.p.a.a.a.a.p.a.a.",
"a.p.a.a.p.p.p.p.a.p.p.a.a.t.R j 9 Q (   V.C.9   . = <.h.z.c.v.v.v.z.x.6.f y a.a.p.p.a.p.p.p.p.a.p.p.",
"p.p.p.p.p.p.p.p.p.p.a.e.%.O.  ' U.) . . . . . X * +.+ <.4.6.h.h.h.5.4.f a a.a.a.p.p.p.p.p.p.p.p.p.y.",
"p.p.p.p.p.p.p.u.p.p.p.K           1 W W W W W 9     9.O               t r.y.y.y.p.p.p.p.p.p.p.p.p.p.",
"t.y.p.p.p.p.p.p.p.;   B _.@X@X_.B   $ W W W S W W W   O.>.k - 4.  O.>.$.9.9.i.r.p.p.p.p.p.p.t.p.u.p.",
"u.p.p.p.t.p.p.t.; V.R.{.+X@X@X+X{.(.' . . A W W W W A * J p - 4.   .:.$.o.3.9.0.p.p.p.p.t.t.t.t.t.r.",
"q.0.0.0.0.r.9.; ' _.+X@X@X@X@X@X@X+X_.V.  A W W W W $   * O - 4.  { :.#.$.O.8.9.w.w.w.e.0.r.0.0.w.w.",
"9.0.0.q.9.=.*.' ].+X@X@X@X@X@X@X@X@X+X|.  $ 1 1 1 1 S A S 2 X <   | ;.:.$.#.#.O.9.r.0.0.9.9.0.0.0.9.",
"r.w.r.q.q...B }.+XV.) ) ) ) @X@X@X@X@X@XQ ) ) ) ) ) K.K.V.Q w w   y O.;.:.$.:.O.o.r.r.0.r.t.w.r.w.r.",
"r.t.t.t.t.G $ @XS.Y s s s s V.|.@X@X@X@X{.+X@X@X@X@X{.'.R.J.S.A.B B k | 9.9.;.:.o.o.9.r.t.t.t.w.r.r.",
"w.w.w.t.t.v & ).d G.Q.W.Q.W.6 N._.@X@X@X@X@X@X@X@X@X@X@X@X|._._._._.F z [ ;.;.;.:.#.o.9.w.t.w.r.t.r.",
"t.w.w.w.$.l o ( ^. X X X/.W.W.6 V.@X@X@X@X@X@XXX|.|.|.+X@X@X@X@X@X@X{.) r o.;.;.9.:.o.#.9.r.r.r.w.w.",
"w.w.0.:.o.c . ( ^. X X X X XW.6 V.@X@X@X@X@X'.J.M.M.M.T.|.@X@X@X@X@X+X@XN.O ;.;.9.:.:.o.o.9.r.r.w.t.",
"r.0.9.o.$.y.+.  Q. X X X X XW.6 V.@X@X@X@X).S.M.M.M.M.M.L.{.@X@X@X@X@X@X|.T.( ;.:.$.9.#.o.o.0.r.w.q.",
"0.:.o.#.a.>.%.| 7 E. X X/./.[.'.|.@X@X@X@XA.N.M.M.M.M.M.N.R.@X@X@X@X@X@X+X`.. %.:.:.:.$.:.o.o.0.w.%.",
"O.o.$.y.$.#.$.$.n i d u s ,.XX@X@X@X@X@X@X) ! ! ! ! ! ! ! K.@X@X@X@X@X@X@X|.L./ +.$.#.#.$.%.o.o.o.o.",
"o.o.#.w.+.#.#.#.+.J = 1 S ' '.+X@X@X@X@X@X0 8.I.I.I.1 U.T n.@X@X@X@X@X@X@X+X@X2 [ $.:.+.#.O.o.o.o.o.",
"9.+.O.:.#.#.+.$.$.#.p 9 M.M.`.XX@X@X@X@X@X' _ I.#X#X_ _ ) L.@X@X@X@X@X@X@X@X@X  J =.%.$.+.o.O.>.;.#.",
"r.:.O.o.#.$.$.:.$.$.a 9 M.M.`.|.@X@X@X@X@X@XC._ C.C.C.F L.@X@X@X@X@X@X@X+X_.V.  K $.:.:.O.o.@.u.w.>.",
"q.q.>.O.] J K K +.%.p 9 M.A._.XX@X|.R._.)._.].M.0 0 0 |.@X@X@X@X@X@X@X@X|.I.9   J $.$.O.o.#.u.q.q.q.",
">.q.q.>.y X # . K | r 9 N.`.@X@X@XS.9 ' ' ' M.(.@X@X@X@X@X@X@X@X@X@X@X@X@X+XL.o K ;.O.{ $.u.e.e.q.9.",
">.q.>.e.a 9 n.W .     9 N.`.@X@X@X@X@X@X@X@X@X@X@X@X@X@X@X@X@X@X@X@X@X@X@X_.  :.$.O.{ >.t.q.9.9.9.9.",
">.q.>.G V _ W W b.! 9   $ `.@X@X@X@X@X+X[.) ( A._.@X@X@X@X@X@X@X@X@X@X@X|.K.  #.o.o.>.>.q.0.9.q.9.9.",
"q.q.>.J 9 W W W Q ' ( A V $ ).XX@X@XL.& _ _.}.XX+X@X@X@X@X@X@X@X@X@X@X@XS.3 [ O.{ $.q.>.q.e.>.>.>.9.",
">.>.>.&.w $ & b.2 & = B K.L.XX@X+X_.V.L.).@X@X@X@X@X@X@X@X@X@X@X@X@X{.n.u K O.{ +.q.e.>.>.>.q.>.9.9.",
">.>.>.R j c H 9 0 ( ' A.|.@X@X@X@X|.[.@X@X@X@X@X@X@X@X@X@X@X@X@X@XQ A j J O.{  .u.>.>.>.>.>.>.>.>.>.",
"#.$.$.P u t r   b.T._.XX@X@X@X@X@X@X@X@X@X@X@X@X@X@X@X@X@XXX_.J.) a y G O.{ O.w.%.%.>.$.$.$.#.>.+.$.",
">.>.$...s Z s   A.L._.+X|.@X@X@XXXXX@X@XT.XX@X@X@X@XR.XX@XXX`.'   [ O.{ { +.9.>.$.$.>.$.=.$.$.=.%.%.",
">.>.>.G Y E.Q.  _ M.P.'.T.XX@X+X).).XX@X( ].|.OXOX.XA _.+X@XXXP.  [ o.[ $.>.9.>.=.>.>.>.$.=.=.>.9.=.",
">.>.>.>.z C G.. ) M.J.L.N.T.+X).A.A.).+X_ ,.E.!./.W.  J.{.+X+X`.  L { O.9.9.>.>.>.>.>.>.>.>.>.>.9.;.",
"=.=.=.=.>.c o ( n.M.M.M.M.M.`.C.M.M.C.).).& ,. X/./.  ' L.{.XXL.  n } 9.>.=.>.=.=.=.=.=.=.>.=.=.:.8.",
"=.=.=.=.=.=...    Q n.M.M.M.M.M.M.M.A.`.M.M.9       M.M.M.K.V.    m e.9.9.%.%.%.=.=.=.=.=.=.=.=.8.%.",
"%.=.%.=.=.;.%... .: O 0 n.( ) H.E.H.M.N.M.M.' ) ) ) M.M.0 # h <.  X.9.%.%.%.8.8.=.=.=.=.=.=.=.=.%.=.",
"%.=.%.=.%.%.=.=.=.R P D 2 ( Q.^.~.!.G.E.& Q ) ` ) ) ) 7 r > - 4.  X.8.%.%.%.%.%.=.=.@.@.=.@.@.=.%.=.",
"%.%.%.%.%.%.=.@.@.%.%. .l 3 C ,.E.!.~.!.,.9 ^ D.D.D.D.# x e - 2.  ..%.%.%.%.%.%.$.=.=.=.=.=.=.@.%.%.",
"%.@.@.+.8.3.X.+.+.+.@.@. .t t q C Y ^ ^ ^ u C U U U U y v z 8 f 9 X.%.%.@.%.%.@.%.%.@.%.@.=.=.@.@.@.",
"X. . . .o.}  . .X.X.+.+.X.X.X.x 4 4 4 4 4 T j > > > > m ] &.T 8 T +.X. .+.X.@.%.X.+.+.@.+.+.@.@.+.} ",
"@.@.@.+.o.8.+.8.+.+.@.@.@.+.@.@.+.+.@.@. .L ] { } [ ] ] 9.%.@.@.X.@.@.@.@.@.@.+.+.X. .+.+... . .@.%.",
"@.%.@.@.8.8.+.+.+.8.@.@.@.@.+.8.@.%.@.@.@.+.] ] ] ] | >.%.%.%.%.@.@.@.@.@.%.%.%.@.@.@.@.@.@.@.+.@.@.",
"$X$X$X$X$X$X$X$X$X$X$X$X$X$X$X$X$X$X$X$X$X$X$X$X$X$X$X$X$X$X$X$X$X$X$X$X$X$X$X$X$X$X$X$X$X$X$X$X$X$X",
"$X$X$X$X$X$X$X$X$X$X$X$X$X$X$X$X$X$X$X$X$X$X$X$X$X$X$X$X$X$X$X$X$X$X$X$X$X$X$X$X$X$X$X$X$X$X$X$X$X$X"
};
