/* XPM */
static char *result[] = {
/* columns rows colors chars-per-pixel */
"50 100 182 2 ",
"   c #000001",
".  c #04090B",
"X  c #10100E",
"o  c #0B0F13",
"O  c #0C1015",
"+  c #041618",
"@  c #001F1F",
"#  c #121211",
"$  c #1D1D1C",
"%  c #21211F",
"&  c #151C25",
"*  c #171F29",
"=  c #002E2E",
"-  c #17292E",
";  c #1E2936",
":  c #003E3E",
">  c #17363F",
",  c #232424",
"<  c #2A2B2B",
"1  c #222D3B",
"2  c #362836",
"3  c #2B323B",
"4  c #363633",
"5  c #3E323E",
"6  c #3D3D3A",
"7  c #41413F",
"8  c #263242",
"9  c #293646",
"0  c #27374C",
"q  c #2B3A4D",
"w  c #34394A",
"e  c #2D3D51",
"r  c #333F52",
"t  c #4D394D",
"y  c #154F4F",
"u  c #0C555A",
"i  c #005D5D",
"p  c #37414D",
"a  c #384554",
"s  c #34465D",
"d  c #394A5E",
"f  c #3B4C62",
"g  c #3B4D66",
"h  c #395167",
"j  c #3D526C",
"k  c #3C5370",
"l  c #0C6161",
"z  c #007474",
"x  c #424547",
"c  c #484846",
"v  c #4A4949",
"b  c #51514D",
"n  c #474C58",
"m  c #58495B",
"M  c #545454",
"N  c #5C5C56",
"B  c #575A5D",
"V  c #61615D",
"C  c #414F68",
"Z  c #435569",
"A  c #42566E",
"S  c #575E64",
"D  c #465A73",
"F  c #445C7A",
"G  c #495E78",
"H  c #614A65",
"J  c #684C68",
"K  c #6C536B",
"L  c #745874",
"P  c #5B6568",
"I  c #49617B",
"U  c #5E6977",
"Y  c #5D6A7B",
"T  c #616161",
"R  c #6B6B65",
"E  c #616468",
"W  c #6B6C69",
"Q  c #71716B",
"!  c #7C607C",
"~  c #7C6E78",
"^  c #727270",
"/  c #7C7C75",
"(  c #7E7E79",
")  c #82827E",
"_  c #455F80",
"`  c #456283",
"'  c #4A6585",
"]  c #476388",
"[  c #4A668B",
"{  c #4D6A8C",
"}  c #526984",
"|  c #5B6D83",
" . c #516D8D",
".. c #56718E",
"X. c #4E6C92",
"o. c #516E92",
"O. c #547194",
"+. c #5B7695",
"@. c #5D7896",
"#. c #56749A",
"$. c #59769C",
"%. c #5C799C",
"&. c #657487",
"*. c #707B89",
"=. c #607D9E",
"-. c #5677A0",
";. c #5779A3",
":. c #5C7CA3",
">. c #5E7FA8",
",. c #617EA2",
"<. c #96739C",
"1. c #A67CA6",
"2. c #008787",
"3. c #009292",
"4. c #009B9B",
"5. c #3C8181",
"6. c #06A7A7",
"7. c #00B7B7",
"8. c #00B8B8",
"9. c #548282",
"0. c #5F80A9",
"q. c #6381A6",
"w. c #6D86A6",
"e. c #6383AB",
"r. c #6985AB",
"t. c #6788AD",
"y. c #6988AF",
"u. c #728AA8",
"i. c #6587B0",
"p. c #6788B1",
"a. c #6C8CB4",
"s. c #6E8FB8",
"d. c #718FB6",
"f. c #6F90B9",
"g. c #7090B7",
"h. c #7293BB",
"j. c #7697C1",
"k. c #7798C3",
"l. c #7A9BC5",
"z. c #00C8C8",
"x. c #02D1D1",
"c. c #00D9D9",
"v. c #00E4E4",
"b. c #00F7F7",
"n. c #00F8F8",
"m. c #868480",
"M. c #8B8B84",
"N. c #909088",
"B. c #98988F",
"V. c #9B9B92",
"C. c #A2A29A",
"Z. c #ABAB9F",
"A. c #B385B3",
"S. c #BA90BA",
"D. c #ABABA3",
"F. c #B4B4AB",
"G. c #BABAAE",
"H. c #BCBCB3",
"J. c #C4C4BA",
"K. c #C6C6BB",
"L. c #C291C2",
"P. c #D29AD2",
"I. c #DAA4DA",
"U. c #E4ACE4",
"Y. c #ECB4EC",
"T. c #F3BBF3",
"R. c #CBCBC1",
"E. c #D1D1C6",
"W. c #D3D3C9",
"Q. c #D8D8CA",
"!. c #DCDCD1",
"~. c #E6CEDD",
"^. c #E1E1D5",
"/. c #E5E5D8",
"(. c #EAEADC",
"). c #F0D4E8",
"_. c #F8C0F8",
"`. c #EEEEE0",
"'. c #F3ECE5",
"]. c #F5F5E5",
"[. c #F8F8E7",
"{. c #F8F8E8",
/* pixels */
"h.j.h.j.f.j.k.j.j.k.k.k.j.j.j.j.j.k.j.j.k.j.j.i.i.p.j.p.j.f.a.a.j.l.j.j.j.j.j.k.j.k.k.j.j.j.j.f.j.j.",
"k.k.j.j.j.j.k.k.k.k.j.j.j.j.j.j.j.l.k.j.j.j.f.0.;.i.j.j.k.k.k.k.k.j.j.j.j.j.j.j.k.j.k.j.j.j.j.j.j.j.",
"j.j.j.j.j.j.j.j.k.j.j.j.j.j.j.j.j.j.j.j.j.j.;.;.;.;.i.j.k.k.j.j.j.j.j.j.j.j.j.j.j.j.k.k.j.j.j.j.j.j.",
"h.j.j.j.j.h.j.j.j.j.j.j.j.j.j.j.j.j.j.j.f.;.;.j.p.;.;.0.f.f.f.j.j.j.j.j.j.j.k.j.j.j.j.j.j.j.j.j.j.j.",
"a.a.s.s.s.f.s.s.a.s.f.h.j.h.h.f.f.f.f.p.0.0.f.f.p.i.0.;.0.a.f.f.f.f.f.f.p.s.s.s.f.s.a.f.f.f.a.a.a.a.",
"p.p.p.p.p.s.s.s.p.p.a.s.s.s.f.f.f.f.p.0.;.p.l.p.i.i.0.;.-.i.p.f.f.f.f.a.p.s.f.f.f.a.p.a.f.f.p.a.p.p.",
"f.h.f.s.s.s.f.f.s.s.a.s.s.s.f.j.f.a.0.;.p.l.p.0.i.i.0.0.;.-.i.f.f.j.j.s.a.f.j.j.h.f.f.h.h.h.g.g.j.j.",
"j.j.h.f.f.h.j.f.j.f.j.h.f.f.j.h.f.;.-.a.l.0.p.0.0.i.i.i.0.-.-.0.j.f.f.f.j.j.f.f.j.f.h.h.h.h.h.h.j.f.",
"h.h.h.h.h.h.h.h.f.h.h.h.h.h.j.f.;.-.s.f.p.0.i.0.e.p.p.0.t.0.-.$.0.f.f.j.h.h.h.j.h.g.h.h.h.h.h.h.h.f.",
"g.h.h.h.g.h.g.h.h.h.h.f.h.f.a.:.#.a.f.0.i.0.0.t.0.0.0.p.0.0.0.;.-.0.f.f.h.h.h.h.h.h.g.g.h.h.g.h.f.f.",
"g.g.g.g.g.h.g.f.f.h.g.f.f.p.0.-.p.g.t.e.0.0.p.0.0.p.e.0.0.i.e.0.;.-.0.f.f.h.h.f.h.g.h.g.g.g.g.g.h.g.",
"g.g.g.g.g.g.g.g.g.g.g.f.a.0.-.0.j.t.0.e.0.0.0.0.0.0.0.0.0.0.e.e.0.-.#.p.g.f.f.f.g.g.g.g.g.g.g.g.g.g.",
"g.g.g.g.g.g.g.g.g.f.g.f.;.-.0.l.0.0.0.0.0.e.e.e.0.e.0.e.e.0.e.e.0.0.-.#.p.a.g.g.g.g.g.g.g.g.g.g.g.g.",
"g.g.g.g.g.g.a.g.g.a.a.-.#.p.h.0.0.0.q.0.e.e.0.0.0.0.0.e.0.0.0.0.0.0.0.#.#.0.f.a.g.g.a.g.g.g.g.g.g.g.",
"d.d.d.d.g.a.g.a.a.g.$.#.y.a.0.0.0.0.0.0.0.0.0.0.0.0.0.0.0.:.:.>.;.;.:.-.#.#.;.a.a.a.a.g.a.a.a.a.a.a.",
"e.t.t.t.t.t.t.t.t.0.#.t.y.0.:.0.0.%.%.q.0.%.;.:.%.;.$.:.:.-.%.:.:.$.$.$.#.-.#.0.y.a.y.y.t.t.e.t.t.t.",
"q.0.e.t.e.y.y.e.>.o.>.h.,.:.%.$.:.-.-.:.%.:.$.-.:.:.$.$.-.$.%.-.;.-.;.%.-.#.#.#.>.i.i.,.>.,.r.,.0.e.",
"t.y.t.t.e.y.a.%.o.:.h.e.:.>.>.%.$.-.$.$.;.:.-.$.:.,.:.-.0.-.:.%.%.%.:.%.-.-.#.X.o.r.i.i.a.d.d.>.e.y.",
"y.a.y.d.p.s.$.X.>.h.,.:.>.>.:.:.>.0.:.:.0.0.0.0.>.:.,.:.0.0.:.0.:.0.0.0.>.>.:.:.X.X.,.s.a.a.a.a.a.a.",
"y.a.a.a.a.$.O.0.a.,.>.>.:.:.:.:.:.:.:.0.%.%.0.%.:.:.:.:.:.:.0.%.0.:.:.:.:.:.:.:.;.#.#.,.y.a.y.y.y.y.",
"y.p.t.t.$.X.0.t.,.,.;.:.:.>.,.,.%.0.:.:.;.%.0.%.:.:.;.:.:.:.:.:.%.:.:.:.:.:.:.:.:.-.X.#.;.a.p.a.y.y.",
"a.t.t.;.X.0.t.t.,.-.>.:.j o o o.:.:.:.:.0.%.0.;.:.:.:.:.:.:.;.:.:.9 o - :.:.:.:.:.:.#.#.#.,.p.y.y.y.",
"t.t.0.X.%.t.0.0.:.:.-.F n J J r p e h %.;.%.%.;.;.:.:.:.$. .q e e m H H q :.:.:.-.:.:.#.#.X.>.>.y.e.",
"t.:.X.#.f.0.%.#.-.,.;.q t P.I.t w 2 w k I F F F F D F F F C < t w 1.P.A.$ D  .$.%.:.:.;.#.o.#.,.y.:.",
"X.X.$.a.$.#.-.#.#.#.:.w t P.T.T.T.U.<.                    2 P.T.T.T.Y.L.V   v Y #.#.#.#.#.$.X.X.O.O.",
"X.{ #.p.#.O.#.#.#.o.#.#.s # B.N.4   $ V V K ( N.N.N.E V T v     ( B.N     7.= q #.$.:.#.o.#.X.X.X.{ ",
">.#.O.$.$.#.#.#.#.#.#.g & # N.N.R N V ( ( ( M.N.N.N.) ( ( ^ N N ) N.( b   7.= q #.$.$.$.#.X.X.,.>.O.",
"r.>.o.X.#.$.$.$.$.-.A w 4 6 N.N.N.N.N.N.N.N.N.N.N.N.N.N.N.N.N.N.N.N.N.(   7.= q $.:.-.$.#.X.#.d.y.>.",
"r.r.,.o.X.#.-.,.;.{ 3 b N.N.N.N.N.N.N.N.N.N.N.N.N.N.N.N.N.N.N.N.N.N.N.(   8.= e -.$.,.o.o.$.g.y.r.r.",
",.r.r.,.X.[ O.-.=.  R N.N.N.N.N.N.N.N.N.N.N.N.N.N.N.N.N.N.N.N.N.N.N.N.(   8.= q -.#.X.[ $.d.w.w.q.w.",
",.,.e.r.,.X.[ o.$.  R D.D.N.N.N.D.D.N.N.N.F.C.N.N.N.G.V.N.M.N.H.B.N.N.(   7.= e #.X.[ ,.y.r.q.q.q.q.",
"r.r.e.q.,.:.o._ 0 c B.R.E.D.N.D.E.K.Z.N.D.Q.J.C.N.F.!.H.C.B.F./.G.V.V.V.  7.= & f [ ,.r.y.,.e.q.q.q.",
",.r.r.,.} +.$.k   V.R.(.(.E.C.W.`.(.R.C.!.`./.J.D.!.].^.H.F.!.{.!.F.F.H.  8.=   & $.r.} O.,.q.q.q.q.",
",.,.,.,.O C ,.G   E.`.{.{.].E.'.{.{.`.W.{.{.{.(.W.{.{.{./.Q.[.{.[.^.^.Q.  8.=   * r.w.o C r.,.q.,.q.",
",.,.,.,.S S x O   ].[.{.{.{.].{.{.{.{.`.{.{.{.{.`.{.{.{.].].{.{.[.[.].Q.  7.=     O E M | q.,.,.,.,.",
"C 3 1 1 ^ W 6     {.{.{.{.{.{.{.{.{.{.{.{.{.{.{.{.{.{.{.{.{.{.{.{.{.{.Q.  7.=       V ( n 1 1 1 +.O.",
"r X 2 , ^ M ,     {.{.{.{.{.{.{.{.{.{.{.{.{.{.{.{.{.{.{.{.{.{.{.{.{.{.Q.  7.=       6 ^ c < <   ,.=.",
"f , / E M % X X   {.{.{.{.'.].(.^./.{.{.{.{.{.{.{.{.{.{.{.{.{.{.{.{.{.Q.  8.=   X $   M V Q R O ,.,.",
"=.G X N.#   N G.  {.{.{.(.E.E.B.4 / {.{.{.{.{.{.{.{.{.{.{.{.{.{.{.{.{.Q.  7.=   7 [.  M ( N O 0.,.,.",
"=.+.I ,   W Q.G.  {.{.(.W.W.`.!.J./ W {.{.{.{.{.{.{.{.{.{.{.{.{.{.{.{.Q.  7.= N V.6 G.4 % 3 I @.=.=.",
"=.=.@.p . V.[.G.  [.{.W.J./.[.~.).~ 6 {.{.{.{.{.{.{.{.{.{.{.{.{.{.{.{.Q.  7.= / G.  [.$ - j q.q.=.=.",
"=.=.%.=.O B.[.G.  `.[.J.G.[.(.I.Y.! 6 {.{.{.{.{.{.{.{.{.{.{.{.{.{.{.[.Q.  7.= / G.  [.% f +.q.@.=.=.",
"%.=.=.%.O V.{.G.  E.`.J.F.'.P.T._.! 6 {.{.{.{.{.{.{.{.{.{.{.{.{.{.{.{.Q.  7.= / G.  [.$ d q.+.q.%.%.",
"@.%.@.@.O V.{.{.Q.$ K.^.N.5 T._.K b B.[.{.{.{.{.{.{.{.{.{.{.{.{.{.{.[.Q.  + <.K N Q.[.% d q.+.%.=.%.",
"%.+.+.O.o V.[.[.{.  G.`.K.) H m b B.Q.{.{.{.{.{.{.{.{.{.{.{.{.{.{.{.[.Q.    A.L 6 {.{.% d $.%.@.+.+.",
" . . . .3 W G.{.{.  D.].`.W.N N N.Q.{.{.{.{.{.{.{.{.{.{.{.{.{.{.{.{.[.Q.    S.! 7 {.V.3 A O.%.+. . .",
"O.+.+.O.@.; N {.{.  V./.{.{.{.{.{.{.{.{.{.{.{.{.{.{.{.{.{.{.[.[.{.{.{.Q.    S.! 7 [.  I O.{  . .+.%.",
"O.q.%.+.%.%.d 6 {.{.6 / {.{.{.{.{.{.{.{.{.{.{.{.{.{.{.{.{.{.[.[.{.{.{.Q.  7.= ( G.  +.+.@.+.+.+.+.+.",
"+.+.+.9.+.+.} C 6 6 X ( [.{.{.{.[.V.6 7 6 6 V./.[.Q.N 6 6 6 7 [.{.{.[.Q.  7.= % p D @.@.@.@.@.@.+.+.",
"+.+.@.@.$.&.+.} q w O Q (.[.{.{.Z.N c / / R V Q / V R / / R 4 ( (.{.{.Q.  7.= * d +.+.@.+.O.+.@.+.+.",
"j.j.h.j.h.j.h.g.g.h.3 V W.{.{.{.N p V.{.[.^.V % % % H.(.{.!.)   Q.[.{.Q.  7.= d g.g.k.h.h.j.j.f.j.h.",
"j.j.j.j.k.l.u.^ Q Q ^ 6 N {.{.{.B ( {.{.[.[.[.[.[.{.[.[.{.[.[.  Q.[.[.Q.  7.= 4 Q Q k.k.k.k.k.j.j.j.",
"j.j.j.j.j.j.h.h.h.h.h.d b Q.{.{.V.F.{.{.{.{.{.{.[.{.{.{.{.{.].K /.[.(.H.  7.= d h.h.h.l.l.j.j.j.j.j.",
"j.j.j.j.j.j.j.j.h.h.j.| x V {.{.W.F.F.!.{.{.{.{.{.{.{.{.(.R.D.K.].[.F.7   7.= f h.l.h.h.h.k.j.k.j.j.",
"p.a.a.s.s.f.s.a.u.u.u.*.M p G.(.{.J.C.!.{.{.{.{.{.{.{.{.(.R.N.{.[.Q.^ -   7.= a u.a.h.h.f.f.g.g.a.a.",
"p.a.p.p.p.a.f.w.^ ^ ^ ^ *.,.  Q.{.{.{.{.{.{.{.{.{.{.{.{.{.{.{.{.[.N 9 =.  7.= 6 *.a.p.d.a.g.p.y.a.a.",
"h.h.h.g.a.a.h.h.d.a.a.s.s.s.f.O V.].{.{.{.{.{.{.{.{.{.{.{.{.{.{.% D j.,.  7.= d h.g.a.h.h.h.g.a.h.j.",
"h.h.h.h.h.h.h.h.h.h.h.h.h.h.j...S 6 T !.[.[.{.{.{.{.{.{.(.F.6 6 D d.h.,.  7.= d h.h.h.h.k.h.h.h.h.h.",
"h.h.h.h.h.h.h.h.h.h.h.h.h.h.h.s.j 0 C R / / H.Q.K./.M./ Q S e 0 $.j.h.q.  7.= d h.g.h.h.h.h.h.h.h.h.",
"h.h.g.h.h.h.g.h.h.h.h.h.h.h.a.>.$.a.O.O O O ( C.m.F.< o O ; >.;.-.,.s.,.  8.= d h.h.h.g.h.h.h.h.h.h.",
"g.g.g.h.g.h.g.g.h.h.f.f.s.a.>.-.p.f.p.e.e.e.8       #.e.0.i.e.>.;.-.e.,.  8.= d h.g.g.h.g.g.h.g.g.g.",
"g.g.g.g.g.g.g.g.g.a.h.h.a.>.;.>.j.e.e.0.>.>.:.o.#.O.0.>.e.0.0.i.0.8 o O   + . . O O g.g.g.g.g.g.d.h.",
"g.g.g.g.g.g.d.g.g.g.s.s.:.-.>.l.e.0.0.0.e.0.0.e.0.e.e.e.e.0.0.r.q u z z 4.4.4.2.z z 9 t.g.g.h.g.g.g.",
"g.a.g.g.g.g.a.g.g.a.s.;.X.e.j.e.>.e.0.e.0.e.e.e.>.e.0.>.e.>.e.G = 3.z.x.b.b.b.v.z.z.= } q.a.a.d.g.a.",
"a.g.a.a.f.a.g.a.d.a.;.o.p.s.e.>.e.>.,.e.0.0.0.0.0.0.0.0.0.0.0.  4.v.b.b.b.n.n.n.n.n.8.+ D g.a.g.a.a.",
"t.t.t.t.y.y.p.p.y.;.#.r.a.,.:.:.>.:.:.>.0.;.%.%.%.%.#.0.#.%.%.  c.x.z     b.:   = 8.b.= Z e.e.e.e.y.",
"0.q.e.e.e.y.y.e.;.#.>.j.,.:.-.$.:.:.$.$.%.;.;.%.;.$.#.$.;.$.$.  c.2.> j   b.: ; h = b.+ j q.e.q.e.e.",
"t.y.a.t.e.a.y.:.o.:.h.,.>.>.:.-.$.-.-.$.;.0.#.#.0.0.0.#.0.$.0.  c.i 3  .  b.: q j   b.@ A a.a.y.e.y.",
"a.a.a.a.a.a.%.X.>.j.,.,.>.,.:.:.:.:.0.0.:.0.0.%.0.%.0.0.0.0.%.  c.i 1 o.  b.: q k   b.@ A y.a.a.y.a.",
"y.y.y.a.a.$.X.e.s.,.>.;.,.:.:.,.0.:.:.:.:.%.0.%.%.0.%.%.q.%.0.  c.i 1 o.  b.: e F   b.@ A y.y.y.y.y.",
"y.y.t.t.$.X.e.t.>.,.,.;.;.,.:.:.:.:.:.:.:.0.%.0.;.0.:.0.0.:.%.  c.i 1  .  b.: e F   n.+ Z p.p.a.y.y.",
"a.y.t.:.X.0.t.e.;.,.;.;.,.;.:.;.:.:.:.:.:.%.;.:.;.%.;.%.%.:.:.  c.i 1 o.  b.: r F   n.= f :.p.y.y.a.",
"t.t.:.X.-.>.>.,.:.:.:.:.:.:.:.:.:.:.;.:.:.:.;.:.0.%.;.:.;.:.:.$ c.l p  .$ v.y f I $ v.- j X.,.y.y.e.",
"t.:.X.#.d.,.,.,.:.$.:.-.;.$.$.,.:.:.:.$.$.%.:.$.;.%.%.:.:.%.-.V 6.5.U %.V 7.9.&...P 8.P | X.X.e.y.=.",
"X.X.$.g.#.#.$.$.#.#.$.#.#.#.,.$.#.#.$.#.#.#.#.#.#.#.#.#.$.#.%.$.P | $.$.#.P ..$.$.#.V +.$.$.X.X.O.O.",
"X.X.#.t.#.#.#.#.#.#.#.#.#.#.#.#.O.#.$.#.#.$.#.O.$.$.#.#.#.#.#.#.K } #.#.#.V | #.#.$.S o.#.#.o.X.X.X.",
":.#.X.-.#.#.#.#.#.#.$.$.$.#.$.$.$.$.$.$.$.%.$.$.$.%.$.$.$.$.#.#.Y ..$.$.$.U ..$.$.$.U $.#.o.X.,.:.#.",
"y.:.#.X.$.;.$.:.$.$.$.$.$.$.$.$.$.:.$.:.%.;.$.;.-.-.$.$.$.$.%.-.$.$.$.$.:.$.$.$.$.%.$.$.o.X.$.a.y.:.",
"r.r.,.#.X.#.$.$.$.$.:.$.;.$.$.$.%.%.$.;.$.$.$.%.%.%.%.$.$.%.-.%.$.$.$.$.$.$.$.$.-.$.$.o.o.#.d.y.r.w.",
",.y.,.,.X.[ #.#.$.$.$.$.$.$.$.$.#.$.$.$.$.$.$.$.#.$.$.$.$.$.$.$.%.#.%.%.%.$.$.$.$.$.X.X.$.d.r.t.q.q.",
"r.,.,.r.,.X.[ o.$.%.$.#.%.+.$.#.$.$.+.#.$.#.#.$.$.#.$.$.$.$.+.$.$.#.#.$.$.#.$.$.$.X.[ ,.A.0.0.e.q.q.",
",.r.r.,.,.,.o.X.X.#.+.$.#.#.#.+.#.#.$.#.$.$.#.+.#.#.O.%.O.$.+.#.#.$.#.+.$.#.+.#.X.X.;.r.>.d.0.0.q.0.",
"r.,.,.r.,.>.,.X.[ #.O.#.#.#.#.#.#.#.+.#.$.O.$.#.#.%.O.#.+.$.#.#.#.+.+.#.O.+.#.o.[ -.r.,.,.,.,.,.q.q.",
"r.,.r.,.,.,.,.#.X.[ O.O.#.#.#.O.O.#.O.+.O.O.O.#.O.#.#.O.O.#.#.O.O.#.#.O.O.#.o.[ O.u.r.,.,.,.,.,.q.q.",
",.,.,.,.,.,.,.,.$.[ [ o.#.O.X.X.X.X.o.o.o.o.O.O.o.O.o.o.X.O.O.#.#.O.O.o.O.o.{  .d.,.,.,.,.,.,.,.q.q.",
"$.O.$.$.#.=.=.=.$.#.[ [ [ X.X.O.{ o.o.X.o.o. .o.X.X.o.o.X.X.o.o.o.o.o.X.o.[ o.w.,.,.$.#.#.,.$.O...+.",
",.$.=.,.$.$.$.%.,.,.%.[ [ { X.O.O.O.#.o.o.o.o.o.{  .o.O.o.o.o.o.o.o.o.[ ] #.q.=.=.=.,.$.$.%.$.=.,.%.",
",.,.,.,.,.,.,.,.,.,.:.#.{ [ o.O.O.O.o.#.o.o.O.o.o.O.O.O.o.o.o.o.o.o.o.] #.,.q.=.$.,.,.,.%.%.=.,.q.%.",
",.,.,.,.,.,.,.,.q.q.+.+. .{ [  .o. .O.O.O.o.O.O.O.O.O.O.O.O.O.O.X.{ [ { q.q.=.=.%.q.q.%.+.q.q.q.=.,.",
"=.=.=.=.=.=.=.=.+.q.q.q.q.#.] ] O.O.O.O.O.O.O.O.O.O.O.o.O.O.O.O. .'  .t.q.q.q.q.q.q.@.q.q.q.%.@.q.%.",
"=.=.=.=.=.=.=.=.+.q.+.q.q.+.+.I `  .O.O.O. .O. .o.o.o...o...O.[ ` { w.q.@.@.q.%.@.%.q.+.+.q.@.q.%.=.",
"=.=.=.$.=.=.=.=.q.+.q.q.+.q.q.O.` ` { O.o. .O.O.o.O.o...O.o.{ ]  .q.@.q.%.q.%.=.@.q.q.+.q.+.q.+.=.=.",
"=.%.=.%.+.,.=.$.q.q.+.+.:.9.+.q.#.I ` {  . .o.o.X. . .O.o.[ '  .=.q.%.%.q.%.q.%.@.q.+.q.@.%.q.q.%.%.",
"%.@.%.+.=.+.+.%.+.+.+.q.$.O.q.+.0.{ ` '  .{  . . . . .{ ' `  .%.q.%.@.=.+.@.@.%.q.+.+.+.q.%.+.+.=.@.",
"@.@.+.O.%.+.+...O.+.$.@.+.O.+.q.#.%. .I ` {  . .{ { { [ ` } =.=.9.%.0.+.+.+.%.%.+.q.+.q.%.+.@.%.@.@.",
"O. . . .+.O. .o. . .O.+. ...O.O.O.-.9.{ ` I ` ' ' ' ` I ` q.+.+.O.O. . .O...$.9. .+. . .+.+.@.@.O.{ ",
"O.@.+.O.+.+.@.+.O.O.O.+.+.+.O.+.O.O.+.@.X.F [ [  .[ F ] q.@.@.+.O.+.+.#.+.+.+.O.O... . .O.{  . .+.@.",
"+.@.$.+.@.@.+.+.+.+.+.+.+.+.O.q.@.+.@.+.+.O.k ` ` F ] q.%.%.%.@.+.+.+.+.@.%.$.@.@.@.+.@.@.+.#.+.@.+.",
"@.+.+.@.@.@.+.@.+.@.@.@.+.+.+.+.@.@.%.9.+.+.{ ` I ' +.q.@.@.+.+.%.9.+.+.+.@.+.@.@.@.@.@.+.+.+.+.+.@.",
"+.+.+.+.+.+.+.+.+.+.+.+...+.+.+.+.+.@.+.+.+.$.I F } q.+.$.+.+.+.+.+.+.+.+.+.+.+.@.O.+.+.+.+.+.+.+.+."
};
