/* XPM */
static char *result[] = {
/* columns rows colors chars-per-pixel */
"50 50 194 2 ",
"   c #000001",
".  c #020B0B",
"X  c #0D0D0D",
"o  c #100E0F",
"O  c #0B0F13",
"+  c #001717",
"@  c #0D1116",
"#  c #0E1318",
"$  c #141413",
"%  c #16171E",
"&  c #1C1B1B",
"*  c #21211F",
"=  c #141C25",
"-  c #181E27",
";  c #171E28",
":  c #181F29",
">  c #072C2E",
",  c #1A242A",
"<  c #1B222C",
"1  c #1D2835",
"2  c #003636",
"3  c #003D3D",
"4  c #242424",
"5  c #2A2B2B",
"6  c #262C34",
"7  c #222D3B",
"8  c #372A37",
"9  c #28343B",
"0  c #333332",
"q  c #3E303E",
"w  c #37393A",
"e  c #3D3D3B",
"r  c #263241",
"t  c #2A3646",
"y  c #293749",
"u  c #2D3B4C",
"i  c #353C45",
"p  c #313D4D",
"a  c #313F51",
"s  c #493949",
"d  c #0F4747",
"f  c #005C5C",
"g  c #38414C",
"h  c #2D4F55",
"j  c #304156",
"k  c #36465B",
"l  c #394859",
"z  c #3A4A5C",
"x  c #334A61",
"c  c #3B4D61",
"v  c #3E526B",
"b  c #066767",
"n  c #007373",
"m  c #007C7C",
"M  c #444543",
"N  c #484949",
"B  c #4D4D4C",
"V  c #52524E",
"C  c #404E5D",
"Z  c #5D485D",
"A  c #4A525B",
"S  c #555553",
"D  c #5B5B56",
"F  c #5D5D5B",
"G  c #63635F",
"H  c #4A4E61",
"J  c #455468",
"K  c #585C62",
"L  c #455B73",
"P  c #465C79",
"I  c #684C68",
"U  c #6E576D",
"Y  c #6A5B75",
"T  c #785B78",
"R  c #5A626C",
"E  c #4E706B",
"W  c #4A6077",
"Q  c #4A617C",
"!  c #58687A",
"~  c #606060",
"^  c #6B6B65",
"/  c #696B6B",
"(  c #73736D",
")  c #656D77",
"_  c #7C647C",
"`  c #6D7278",
"'  c #727171",
"]  c #7C7C75",
"[  c #7C7C7A",
"{  c #83837D",
"}  c #455F80",
"|  c #4A6382",
" . c #4A6588",
".. c #5D6F84",
"X. c #536D8C",
"o. c #5A718D",
"O. c #4E6C92",
"+. c #516E94",
"@. c #557294",
"#. c #5B7695",
"$. c #5D7896",
"%. c #55749A",
"&. c #59769C",
"*. c #5D7A9B",
"=. c #697584",
"-. c #61758C",
";. c #727A85",
":. c #667B94",
">. c #617D9E",
",. c #5677A1",
"<. c #5779A3",
"1. c #5C7BA3",
"2. c #5E7FA8",
"3. c #627EA3",
"4. c #8B768B",
"5. c #9A799A",
"6. c #0E8282",
"7. c #008A8A",
"8. c #009B9B",
"9. c #338F8F",
"0. c #00A2A2",
"q. c #18A2A2",
"w. c #03B5B5",
"e. c #00B9B9",
"r. c #6D829E",
"t. c #5F80A9",
"y. c #6481A5",
"u. c #6F86A2",
"i. c #6484AB",
"p. c #6885AB",
"a. c #6988AF",
"s. c #7289A7",
"d. c #6586B0",
"f. c #6788B1",
"g. c #6C8CB3",
"h. c #6E8FB8",
"j. c #718FB6",
"k. c #6F90B9",
"l. c #7090B7",
"z. c #7293BB",
"x. c #7697C1",
"c. c #7798C3",
"v. c #7A9BC5",
"b. c #00CBCB",
"n. c #00D8D8",
"m. c #00E6E6",
"M. c #00F5F5",
"N. c #868681",
"B. c #8C8C84",
"V. c #909089",
"C. c #98988F",
"Z. c #979796",
"A. c #9A9A93",
"S. c #A2979E",
"D. c #A2A29B",
"F. c #AAAB9F",
"G. c #A582A5",
"H. c #B685B6",
"J. c #B98DB9",
"K. c #BC94BB",
"L. c #AAAAA1",
"P. c gray67",
"I. c #B4B4AB",
"U. c #BABAAE",
"Y. c #BBBBB2",
"T. c gray73",
"R. c #C4C4BA",
"E. c #C9C9BC",
"W. c #C197C1",
"Q. c #D199D1",
"!. c #CDA3CB",
"~. c #D6ACD6",
"^. c #DDA5DD",
"/. c #E6AEE6",
"(. c #ECB4EC",
"). c #F7BFF7",
"_. c #CBCBC3",
"`. c #CACACA",
"'. c #D1D1C6",
"]. c #D4D4CB",
"[. c #D9D9CC",
"{. c #DDDCD2",
"}. c #D8D8D8",
"|. c #E8D1DE",
" X c #E2E2D6",
".X c #E5E5D9",
"XX c #EAEADC",
"oX c #F8C0F8",
"OX c #EAE5E6",
"+X c #EEEEE0",
"@X c #F5F5E5",
"#X c #F8F8E8",
"$X c gray97",
"%X c #F8F8F8",
/* pixels */
"z.x.z.x.k.c.c.c.x.v.c.c.x.x.x.x.c.c.x.x.c.x.z.d.d.f.h.h.x.x.h.f.z.v.c.c.c.x.x.c.x.c.c.x.x.x.k.z.x.x.",
"c.c.x.x.c.c.c.c.x.x.x.x.x.x.c.y w ;.c.x.x.x.x.<.<.d.x.x.x.u.~     o.c.r.) c.x.x.=.:.x.x.c./ a.x.x.x.",
"x.x.x.x.x.c.x.x.x.x.x.x.x.x.#       X ' l.z.<.<.<.<.d.x.v.P O '   #.` 9.q.~ x./ 9.9.;.p.  8.> c x.x.",
"x.x.z.x.x.z.x.x.x.x.x.x.x.x.X.9 5 K X.& ) >.<.x.f.2.<.2.L 6 K s.  o.C b w.& z.6 8.6.i 3.  b.3 c x.x.",
"h.h.h.k.g.k.k.h.g.h.k.z.z.x.z.X.g l f.L 5 R r.z.f.d.2.=.i 9 u.k.L 1.t f e.  k.# 0.m < 3.  n.3 k h.h.",
"f.f.f.f.f.g.h.h.f.f.g.k.z.k.k.k.Q l f.2.y w ..a.d.d.3.A i v g.k.j.z.t f e.  k.# 8.m < 3.  n.3 k f.f.",
"k.x.x.f.g.g.k.k.k.h.h.h.k.h.k.z.j.h.1.1.d.7 p y.d.i.3.< u %.d.k.z.z.t f e.  z.$ 8.m < 3.  n.3 k z.z.",
"k.z.k.h.x.z.z.x.z.z.z.z.z.z.z.k.z.<.%.f.v.< w =.i.i.` = a ,.,.i.z.z.u f e.  z.# 8.m < 3.  n.3 c x.z.",
"z.z.z.z.z.z.z.z.z.z.z.z.z.z.z.h.<.%.h.h.d.d.a r d.3.O | i.2.<.,.t.k.t f e.  z.# 8.m 4 y.  n.3 z z.z.",
"z.z.z.l.z.l.z.l.l.z.z.l.z.z.l.1.%.h.k.d.t.t.a r i.` X | i.i.2.<.%.t.t f m.0.#   8.m   > 0.M.3 z z.z.",
"z.l.l.l.l.l.l.l.l.l...t u t 9 J >.h.d.d.t.t.a r &.5 v +.i.i.i.2.=.j # d n.m.8.8.n.b.8.0.n.n.2 l l.l.",
"l.l.l.l.l.l.l.l.L R r.^ ] ] ^ ^ K v i.t.-.c , = u   y ! $.i.<.a ' / ' E m n.n.M.M.M.M.n.n.b h X.l.j.",
"l.l.l.l.l.h.h.X.g ( I. X@X#X{.F.~ g Q Q N 4 % $ $ & $ e J | v 0 V._.XXF.h 7.7.w.e.e.w.7.7., @.l.l.l.",
"j.j.j.h.l.l.h.X D.+X#X#X#X#X#X#XOXL.&   X N ~ ~ R ~ ~ 4   o w ].#X#X#X#XE.* &   . . . # @ y.l.l.j.j.",
"j.j.j.j.l.h.l.' [.#X#X#X#X#X#X#X#X+XI.  S F ~ ~ G G F ~ 0 V ].#X#X#X#X#X#X#X@X* n f < k.l.j.l.h.h.g.",
"i.d.i.a.i.#.O R..X#X#X#X#X#X#X#X.XD.4 S ~ ~ ~ ~ G F U K D M 0 ].#X#X#X#X#X#X#X* n f < a.i.i.t.i.i.i.",
"y.i.i.i.i.&.  +XG e e ^ #X#X#X#X.XA.O ~ G G F ~ ~ ~ F ~ ~ e & '.#X#X#X#XE.e q   n f : p.y.i.t.y.t.t.",
"d.a.a.a.i.*.  ] U I I U [ #X#X#X+XR.G 0 5 0 0 5 0 0 0 0 5 M ] .X#X#X#XE.( I I o n f < p.i.l.l.i.i.i.",
"g.g.g.g.g.*.  Z J.^.^.H.s A..X#X#X@X_.B B e 0 0 0 0 0 B B N.{.#X#X#XU.' I Q./.& n f < g.a.g.g.g.g.g.",
"a.a.a.g.g. .  oXoXoX(.Q.Q.4 ].#X#X#X@X].].F.C.V.V.V.A.R.]. X#X#X#X#X^ Z Q.Q.).& n f ; 3.j.a.a.a.a.a.",
"a.a.a.a.%.|   ).oXoXoX(.Q.#X#X#X#X#X#X#X#X{.P.V.V.V._.XX#X#X#X#X#X#X#X|.Q.).).& n f = %.<.g.g.a.a.a.",
"g.a.i.1.@.>.' ' ~.oX/.~.'.#X#X#X#X#X#X#X#X#XR.V.V.V.XX#X#X#X#X#X#X#X#X#XOXQ.).* n f ; +.%.1.a.a.a.g.",
"g.i.1.O.*.f.>.& W./.K.S.+X#X{.R.L.F.L.[.@X#X[.I.V.R.@X#XXX_.L.L.F.'.XX#X|.4.oX& n f ; &.@.O.t.d.a.d.",
"d.1.O.%.z.1.*.a U U _ U.#X XU.A.V.V.C.P.{.@X+XR.A. X@XXX_.D.V.V.V.L.'.XXXXI.T o n f ; ,.%.O.O.i.a.*.",
"O.O.%.j.,.%.&.&.a O S .X#XU.V.V.V.V.V.V.U.XX#X{.Y.#X#XE.D.V.V.V.V.V.D.'.#X#X    n f ; %.%.&.O.O.O.@.",
"O.O.%.a.%.@.%.%.%.7 D @X#XN.B.B.B.B.N.N.B.{.#X#X#X#X#XD.B.B.B.{ B.B.B.I.#X@X    n f ; %.%.@.O.O.O.O.",
"*.%.+.&.&.&.%.%.&.7 D #X#X~ ~ ~ ~ ~ ~ G ~ '.#X#X#X#X#XN.G ~ G ~ ~ ~ G A.#X#X    n f ; &.%.+.O.3.y.@.",
"f.3.+.O.%.&.&.&.&.7 D #X#X  }.%X[ e $X$X* U.#X#X#X#X#Xe [ %X}.  $X$XF F #X#X    n f - %.+.O.&.j.i.y.",
"3.a.3.+.O.%.,.&.y K R.#X#XA.D P.}.`.OXg {  X#X#X#X#X#XE.] [ OXT.%X/ [ }.#X#XA.& n f = +.+.%.j.a.p.i.",
"a.a.3.3.+.} 7 7 M [ D._.#XXXV.( F F D { [.@XXXL.^ {.#X#XE.[ F F ~ A.}.#X.XI.Z.$ n f =  .$.l.u.p.y.i.",
"3.3.3.p.1. .1 1 w N.L.R.#X#X XV.D D ^  X#X#XXXL.^ {.@X#X#XU.F F F _.#X#XXXU.D.$ n f = 1.a.p.y.i.y.y.",
"3.a.p.3.3.1.+.O.9 A.[..X#X#X#X#X#X#X#X#X#X#X#X#X#X#X#X#X#X#X#X#X#X#X#X#X+X{.].$ n f : a.a.i.y.y.y.y.",
"3.3.p.3.y.y.&.+.) ( [ L.#X#X#X#X#X#X#X@X#X#X#X#X#X#X#X#X#X#X#X#X#X#X#X#X XV.( X n f < p.3.3.3.y.y.y.",
"p.3.3.p.y.+.      { {.#X#X#X#X#X#X#XXX( XX#X#XXX].#X#X#XU.D.#X#X#X#X#X#X#X#X_.& n f , y.3.i.3.y.y.y.",
"3.3.3.3.y.y.X.X.X.6 ^ #X#X#X#X#X#X#X[.o U.XX.XV.0 ].@X[.( G #X#X#X#X#X#X#X#X] X . Y 5.: 3.3.3.y.y.y.",
"%.%.&.>.L 7 7 7  .7 S .X#X#X#X#X#X@XXXA.V D S ( A.V D V ( U.#X#X#X#X#X#X{.D.5 .   _ J.O &.&.&.$.@.@.",
"3.>.&.3.C X N 0 u % 5 N..X#X#X#X#X#X#X#X{ ] ] F.XX] ] ] U.@X#X#X#X#X#X+X].D.] o   T 5.@ &.>.&.>.*.&.",
"3.3.3.X.p 8 { F 0 * o 0 '.#X#X#X#X#X#X#X#X#X#X#X#X#X#X#X#X#X#X#X#X#X#XXX{.[.#X& + H 4.0 P @.&.3.y.*.",
"3.3.3.a 0 { ~ ^ ] ^ w 0 ].#X#X#X@X+X#X#X#X#X#X#X#X#X#X#X#X#X#X#X#X#X#X#X#X#X@X* n f * (   X.3.3.t.y.",
">.>.>.u 4 I ~ V./ 4   e #X#X#X#XE.F.#X#X#X#X#X#X#X#X#X#X#X#X#X#X#X#X#X#X#X#X_.& n f & S   X.>.3.*.y.",
">.*.6 M V . X G 4 z l e #X@X#X#X{ V @X#X#X#X#X#X#X#X#X#X#X#X#X#X#X#X#X#X+X].&   n f   & [ 4 | >.*.$.",
"*.*., o 9 W W X z #.z e #XC..X|.!.5.B [.@X#X#X+X{.#X#X#XXX.X#X#X#X XXX#XR.0 L @ n f % P 4   L >.y.*.",
"*.*.h u J y.y.j X.*.c w  XD.{ K.(.K.$ P.{.@X+X].I..X@XXX_.R.XX#X.XY.'..XF.  *.@ n f ; o.p p X.*.$.y.",
"*.*.y.@.y.#.#.y.$.$.L i { U.M U 5.4.e V.I.{.E.F.V.Y..XR.D.A.Y.XXU.A.L.D.] 7 *.O n f ; >.*.*.*.*.$.y.",
"*.$.#.@.$.*.@.@.@.@.$.W X ] V.e @ 5 V.V.V.Y.L.V.V.V.R.S.V.V.C.E.V.V.N.S , $.$.O n f , $.*.$.*.*.@.$.",
"@.X.X.X.@.@.X.X.X.X.@.o.'   [ V.V.B.V.V.B.V.V.B.V.V.V.V.V.V.V.V.V.V.w 5 ` @.#.@ n f = @.#.@.$.$.@.X.",
"@.@.*.@.@.*.*.#.@.@.k q oXoXoX^.G.V                         O ' Q.(.oXoXJ.  $.X n f , O.X.O.O.X.@.$.",
"*.*.*.#.*.*.#.&.#.$.! B q q q 8 H ..L L L L x x k x c W L L P -.8 8 q q s S $.B d 9 A #.*.#.#.#.$.$.",
"#.#.#.$.#.#.#.#.$.$...E u u u u J $.$.#.#.#. .Q }  .&.>.$.#.#.$.u u u u l ` $.! z A ..$.$.$.#.#.#.#.",
"#.#.#.#.#.#.#.#.#.#.r.o.#.#.#.#.$.$.#.#.#.#.&.| P X.>.$.#.#.$.#.#.#.#.#.#.#.$.$.$.$.$.$.$.@.#.#.#.#."
};
