/* XPM */
static char *result[] = {
/* columns rows colors chars-per-pixel */
"50 100 186 2 ",
"   c #000101",
".  c #06080B",
"X  c #0C0C0C",
"o  c #0A0E13",
"O  c #051617",
"+  c #0D1116",
"@  c #001F1F",
"#  c #121211",
"$  c #1D1D1C",
"%  c #20201E",
"&  c #161D25",
"*  c #171F28",
"=  c #201920",
"-  c #002E2E",
";  c #1F2326",
":  c #1B222C",
">  c #1E2834",
",  c #003E3E",
"<  c #242422",
"1  c #30302C",
"2  c #232C37",
"3  c #232E3C",
"4  c #343536",
"5  c #3B353D",
"6  c #3D3D3A",
"7  c #40403F",
"8  c #253241",
"9  c #2A3545",
"0  c #273549",
"q  c #2D3B4C",
"w  c #313943",
"e  c #313F51",
"r  c #49374A",
"t  c #084346",
"y  c #015D5D",
"u  c #3B424A",
"i  c #314255",
"p  c #384657",
"a  c #34455A",
"s  c #35495C",
"d  c #39495D",
"f  c #354962",
"g  c #3C4D62",
"h  c #3A4E68",
"j  c #3F5066",
"k  c #3D526C",
"l  c #3F5572",
"z  c #0B7073",
"x  c #434445",
"c  c #444949",
"v  c #4C4C4A",
"b  c #54435A",
"n  c #5D485D",
"m  c #4A535F",
"M  c #545453",
"N  c #5C5C57",
"B  c #5D5E5C",
"V  c #62625D",
"C  c #435468",
"Z  c #42546B",
"A  c #545D65",
"S  c #445A73",
"D  c #485C77",
"F  c #435D7E",
"G  c #4A5E7A",
"H  c #604A64",
"J  c #684C68",
"K  c #715771",
"L  c #5A666A",
"P  c #58687A",
"I  c #4A7575",
"U  c #616161",
"Y  c #6C6C66",
"T  c #6C6D6C",
"R  c #72726F",
"E  c #626C7A",
"W  c #7C607C",
"Q  c #7C6C79",
"!  c #63707D",
"~  c #6A727C",
"^  c gray44",
"/  c #7C7C75",
"(  c #7C7D79",
")  c #83837D",
"_  c #455F80",
"`  c #456282",
"'  c #496686",
"]  c #4B6686",
"[  c #4A668B",
"{  c #4D6A8C",
"}  c #536A85",
"|  c #596E85",
" . c #516E8E",
".. c #4F7585",
"X. c #56738A",
"o. c #5C738D",
"O. c #4E6C92",
"+. c #516E92",
"@. c #547294",
"#. c #5B7695",
"$. c #5D7896",
"%. c #56749A",
"&. c #59769C",
"*. c #5C7A9C",
"=. c #627183",
"-. c #6A7A8D",
";. c #76788A",
":. c #607D9E",
">. c #5677A0",
",. c #5779A3",
"<. c #5C7CA2",
"1. c #5E7FA8",
"2. c #617DA2",
"3. c #825F82",
"4. c #9C729C",
"5. c #A87EA8",
"6. c #008A8A",
"7. c #009292",
"8. c #03A6A6",
"9. c #00B7B7",
"0. c #00BABA",
"q. c #548282",
"w. c #6A809B",
"e. c #5F80A9",
"r. c #6481A5",
"t. c #6B85A5",
"y. c #6383AB",
"u. c #6985AB",
"i. c #6788AD",
"p. c #6988AF",
"a. c #708CAE",
"s. c #6586B0",
"d. c #6788B1",
"f. c #6C8CB4",
"g. c #6E8FB8",
"h. c #708FB5",
"j. c #6F90B9",
"k. c #7090B7",
"l. c #7293BB",
"z. c #7697C1",
"x. c #7798C3",
"c. c #7A9BC5",
"v. c #00C6C6",
"b. c #00C9C9",
"n. c #00D1D1",
"m. c #00D9D9",
"M. c #00E8E8",
"N. c #00F7F7",
"B. c #00F8F8",
"V. c #878780",
"C. c #8B8B84",
"Z. c #8E8E89",
"A. c #909088",
"S. c #9A9A91",
"D. c #A2A299",
"F. c #AAAA9E",
"G. c #B389B3",
"H. c #B889B8",
"J. c #AAAAA1",
"K. c #B4B4AB",
"L. c #BABAAE",
"P. c #BBBBB2",
"I. c #C2C2B9",
"U. c #CACABE",
"Y. c #C696C6",
"T. c #D19AD1",
"R. c #DBA7DA",
"E. c #E6B2E6",
"W. c #EBBAEA",
"Q. c #F3BBF3",
"!. c #CCCCC2",
"~. c #D2D2C6",
"^. c #D3D3CA",
"/. c #D9D9CB",
"(. c #DEDED3",
"). c #E6CEDD",
"_. c #E3E3D5",
"`. c #E5E5D9",
"'. c #EAEADC",
"]. c #F0D4E8",
"[. c #F8C0F8",
"{. c #EEE0E2",
"}. c #EEEEE0",
"|. c #F3ECE5",
" X c #F4F4E5",
".X c #F8F8E8",
/* pixels */
"l.z.l.z.z.z.z.z.z.c.z.z.z.z.z.z.x.x.z.z.x.z.z.s.s.s.j.g.z.z.d.d.z.c.z.z.z.z.x.x.z.x.x.z.z.z.z.j.z.z.",
"x.x.z.z.z.x.z.z.z.z.z.z.z.z.z.z.x.x.x.z.z.z.j.e.e.e.z.z.z.z.x.x.x.x.z.z.z.z.z.z.x.z.z.x.z.z.z.z.z.z.",
"z.z.z.z.z.z.z.z.c.z.z.z.z.z.z.z.x.z.z.z.z.j.e.>.>.>.s.z.x.z.z.z.z.z.z.z.z.z.x.z.z.z.z.z.z.z.z.z.z.z.",
"l.z.z.z.j.z.z.z.z.z.z.z.z.z.z.z.z.l.z.z.j.e.>.z.s.e.,.e.j.j.j.z.z.z.z.z.j.z.z.z.z.z.z.z.z.z.z.z.z.z.",
"f.f.f.g.g.j.j.g.f.g.j.l.z.z.j.j.g.j.j.d.e.e.j.l.s.s.e.>.e.d.j.j.g.j.l.j.g.g.j.j.j.g.f.j.j.k.k.f.g.f.",
"f.d.f.d.d.g.j.g.s.d.f.g.g.g.j.j.g.g.d.e.e.d.c.d.s.s.e.,.,.s.d.g.g.j.j.d.d.g.j.j.j.f.d.f.j.k.d.p.d.d.",
"g.z.j.g.g.d.j.j.g.g.g.g.g.g.j.l.g.g.e.e.e.c.e.d.s.s.e.s.>.>.s.j.l.z.z.g.g.j.z.j.z.j.g.l.l.l.k.k.j.j.",
"z.j.l.j.j.z.z.j.j.z.l.l.l.l.l.z.j.,.%.f.c.e.d.e.e.s.s.s.e.,.>.e.l.l.l.l.z.j.j.z.l.l.l.l.l.l.l.l.z.z.",
"l.l.l.l.l.l.l.l.l.l.l.l.l.l.l.j.e.O.f.j.e.e.e.d.e.d.e.d.e.e.>.>.e.l.j.z.l.l.l.l.l.l.l.l.l.l.l.l.l.l.",
"l.l.l.k.l.l.l.k.l.l.l.l.j.l.f.1.>.f.j.s.d.e.e.d.e.e.s.e.e.e.e.e.>.e.j.j.l.l.l.l.l.l.k.l.l.l.k.l.l.j.",
"h.l.k.l.k.k.k.l.j.k.l.j.j.d.e.%.d.j.e.e.e.e.d.e.e.d.e.s.e.e.i.e.e.>.e.j.j.l.l.j.k.l.k.k.k.l.k.k.j.l.",
"k.a.k.k.k.k.k.k.k.k.k.j.g.e.>.e.c.i.e.e.e.e.e.e.e.e.e.e.i.e.e.e.e.>.>.s.j.j.j.j.k.k.k.k.k.k.k.k.k.k.",
"k.k.k.k.k.k.k.k.k.k.g.j.,.%.e.c.e.e.e.e.e.r.e.e.e.i.e.e.e.e.e.i.e.e.@.%.e.j.j.j.k.k.k.k.k.k.k.k.k.k.",
"k.k.a.k.k.k.k.f.k.g.f.>.%.s.z.e.e.e.r.e.e.e.e.e.e.e.e.e.e.e.e.e.e.e.e.%.e.e.j.f.k.k.k.k.k.k.f.k.k.k.",
"k.f.k.k.k.f.k.f.f.f.&.%.p.f.e.e.r.r.r.e.e.r.e.e.e.e.e.e.e.&.e.e.>.e.%.>.@.%.e.d.h.k.f.k.f.f.p.f.f.f.",
"u.i.p.p.i.i.i.i.i.e.%.i.p.e.<.e.e.e.%.r.e.e.e.&.e.&.&.e.e.&.&.&.>.>.&.>.>.@.@.e.i.p.p.i.i.i.i.i.i.i.",
"r.e.y.i.y.i.i.y.<.%.1.l.2.<.&.&.<.,.,.&.<.,.&.,.<.*.,.,.&.&.&.&.<.&.<.&.>.%.%.%.1.s.d.1.2.2.u.1.y.r.",
"i.p.f.i.y.p.i.<.+.>.l.2.1.1.1.&.&.>.&.%.<.<.&.&.*.e.<.&.e.<.e.&.&.,.<.*.<.&.%.O.+.u.s.s.f.h.g.2.i.i.",
"f.f.f.f.d.g.&.O.<.z.2.<.1.1.1.<.1.1.<.1.e.*.e.e.<.<.e.<.e.e.e.e.e.e.<.e.e.1.r.<.O.O.2.f.f.f.h.f.f.f.",
"p.p.p.a.f.&.%.e.g.2.1.1.<.<.<.<.<.<.<.r.*.e.<.<.e.<.*.e.<.<.*.<.e.&.e.<.<.<.<.<.<.%.%.2.f.d.p.p.p.i.",
"f.i.i.i.&.O.e.i.2.1.<.2.<.<.<.<.&.e.&.e.e.e.&.e.<.<.*.<.<.<.<.<.&.e.e.&.<.<.<.<.<.&.O.%.,.f.d.f.i.f.",
"i.d.i.&.O.e.i.i.2.,.,.<.<.<.<.<.e.&.e.e.&.<.e.&.<.>.<.<.<.&.<.<.e.&.&.e.<.<.<.<.<.<.,.O.>.2.d.d.p.p.",
"d.i.e.O.&.p.e.e.,.2.>.2.&.2.<.<.&.e.e.&.e.e.&.e.<.<.<.<.<.<.1.<.&.e.e.&.>.<.<.<.>.1.1.%.+.+.1.1.i.y.",
"i.<.O.%.l.e.&.&.&.2.,.&.<.>.<.<.e.&.&.&.&.&.&.%.<.<.>.*.<.<.>.>.&.&.&.e.<.<.&.<.*.&.>.,.%.+.&.1.p.<.",
"O.O.&.f.>.%.&.&.%.%.&.&.%.&.>.&.@.%.%.%.%.%.%.%.%.%.%.%.&.&.&.&.>.%.>.&.%.&.e.%.%.%.%.%.&.&.O.O.O.@.",
"O.{ %.d.%.+.%.%.%.%.%.%.+.%.&.%.O.&.&.%.&.&.@.%.%.&.%.%.%.%.%.%.%.O.@.%.%.O.%.@.%.&.>.&.+.%.O.O.O.{ ",
"1.%.@.&.&.%.&.%.&.%.%.%.%.&.&.&.%.e.e.%.&.>.&.&.&.&.%.%.%.&.&.&.&.&.&.>.&.&.%.&.&.&.>.&.%.+.O.2.e.%.",
"u.1.+.O.%.&.&.%.&.&.&.&.&.&.&.&.#.&.&.&.&.>.>.<.<.*.,.&.,.&.&.&.&.&.&.&.&.&.&.&.&.2.&.%.+.O.&.f.p.<.",
"u.u.2.O.O.%.&.2.>.&.&.&.<.&.&.&.&.&.e.%.%.#.q.,.&.*.&.*.&.*.&.&.#.e.&.&.&.e.@.&.&.&.2.+.+.&.k.u.u.u.",
"2.u.u.2.O.O.%.>.&.&.&.&.&.&.&.&.&.&.@.e.&.&.@.r.&.%.&.&.&.&.*.*.&.&.&.&.&.&.r.%.>.&.O.[ %.h.t.u.t.r.",
"2.y.2.t.2.O.[ +.&.&.&.&.&.%.&.&.&.#.&.#.%.&.&.%.&.&.&.&.&.#.%.%.%.%.#.&...r.@.%.%.+.O.2.a.u.y.r.r.y.",
"u.y.u.r.2.>.+.O.+.&.&.&.&.&.%.&.%.%.%.%.%.#.%.%.%.%.@.&.%.%.%.#.%.%.%.%.%.%.%.%.O.[ <.u.p.2.t.r.r.r.",
"2.1.2.2.2.1.&.+.O.+.%.%.&.%.%.%.&.@.&.&.@.@.&.&.@.&.%.%.#.%.%.%.#.%.%.%.%.%.@. .{ *.u.u.2.2.u.2.2.2.",
"2.2.2.2.1.2.2.&.O.[ +.%.@.%.@.%.@.+.%.@.@.%.%.@.@.%.%.@.@.%.%.%.%.%.%.@.#.%.@.[ @.u.u.2.2.t.2.2.u.2.",
"2.2.2.2.2.2.2.2.&._ [ +.@.+.+.+.+.+.%.+.+.+.+.@.+.@.@.+.+.@.@.@.#.%.@.O.@.+.[ O.h.2.r.2.2.2.2.2.2.2.",
"2.2.%.#.2.2.:.&.2.%.[ [ { +.+.+.+.+.+.[ +.+.+.+.+.+.+.{ O.{ @.@.O.{  .O. .[ @.p.*.*.*.&.&.*.&.%.&.&.",
"2.2.2.2.2.@.&.2.2.2.&.[ [ O.O.@.+.+.@.@.+.+.+.+.{ +.+.@.O.O. .O.+.@.+.[ [ %.u.2.*.*.e.*.%.%.%.%.2.:.",
"2.2.*.2.:.2.2.2.2.2.2.%.{ ' O.@.%.+.@.&.@.+.@.+.+.+.@.@.@.O.@.O.+.+.+.` @.2.2.*.&.$.r.*.*.#.r.e.2.2.",
"2.2.2.2.2.2.2.2.2.2.2.2.@.' ' O.@.+.@.@.@.@.@.@.%.@.@.%.@.@.@.@.+.+.[ +.r.r.2.2.r.r.&.w.r.r.r.w.2.2.",
":.2.:.2.2.:.:.:.:.:.:.2.r.%.' ' +.@.@.+.+.+.@.@.@.+.@.+.@.@.@.@.{ '  .t.2.:.2.2.$.r.e.e.&.w.%.e.:.:.",
":.:.2.2.:.:.$.2.#.r.#.r.r.@.#.` _ +.+.+.+. .@.+.@.@. .@.O.@.%.{ _ { u.:.w.*.*.*.r.w.*.*.r.r.#.w.:.:.",
"2.$.$.:.*.2.:.:.r.r.r.#.e.w.e.@._ [  .+.@.+.X.@. .@.@. .@. .' ' O.u.2.:.*.r.r.*.*.*.*.r.#.e.r.#.:.:.",
"$.*.2.2.:.:.:.:.r.#.e.#.@.<.*.w.#._ [  .@.+.+. . .@.@. . .' '  .*.r.*.*.*.$.*.*.r.$.*.*.w.&.*.$.*.:.",
"$.*.$.$.:.#.:.@.#.#.#.r.q.*.*.*.:.{ _ [ {  . . . . . .{ ' `  .&.! =.$.:.$.E $.*.#.w.P $.#.r.$.r.:.&.",
"*.#.#.@.#.:.@.o.@.@.r.#.#.%.#.#.#.#. .F `  .{ { ' {  .{ ` { :.:.U o.*.#.#.L o.*.#.$.L o.*.#.*.$.#.#.",
"X. . .+.+.@. .{  . ...@. . .#...#.#.#.{ F ` ' ] ' ' ` F ` w.*.| I ..X.X.| I X.-.#...I X.X.#.$.%. . .",
"@.&.%.@.%.$.&.#.#.@.X.#.%.#.@.r.@.@.#.%.@.` F {  .' ` ` r.$.$.U 8.q.P X.B 9.q.=.| V 9.L P  . . .@.$.",
"#.*.$.$.$.$.$.#.#.%.#.%.#.#.%.#.#.#.#.$.%.X.F F F ` ' w.*.*.*.  m.y 3 ]   N., q S   B.@ f #.%.#.$.#.",
"#.#.$.$.#.#.#.$.#.#.:.o.#.#.$.#.#.#.#.#.#.#. ._ F ] #.:.:.o.#.  m.y 2 }   N., q S   N.@ d #.$.#.#.#.",
"#.#.o.#.#.@.#.#.#.#.#.$.#.#.o.#.#.#.#.#.#.#.&.` F +.:.:.&.%.#.  m.y 2 G   N., q S   N.@ d #.#.#.#.#.",
"l.z.l.l.z.z.z.z.z.c.z.z.z.z.l.z.x.x.z.z.x.z.z.s.1.f.h.g.z.l.l.  m.y q t.  N., g X.  N.O G l.l.l.z.l.",
"x.x.x.x.z.x.z.z.z.z.z.z.z.x.z.x.x.x.z.z.z.z.l.,.,.s.z.z.z.x.z.  m.y q y.  N., g @.  N.- G c.x.x.x.x.",
"z.z.z.z.z.z.z.z.x.x.z.z.z.x.x.z.x.x.z.z.z.z.,.,.,.,.1.x.x.x.z.  m.y q y.  B., g o.  N.@ G x.x.c.z.z.",
"z.z.z.z.j.z.z.z.z.l.z.z.z.l.z.z.z.z.z.z.g.<.,.x.f.1.,.1.j.j.l.  m.v.z +   B., . t 8.N.@ G l.x.l.z.x.",
"f.f.g.g.g.j.j.g.f.f.j.z.l.l.l.l.j.j.j.f.e.,.j.l.d.1.1.>.1.g.j.  9.m.n.0.9.B.b.9.v.M.v.O S j.k.f.f.g.",
"d.f.d.d.f.f.j.g.d.d.f.j.l.l.j.l.g.j.d.1.,.d.x.s.1.d.u.1.,.1.f.f y 8.m.m.B.B.B.M.m.m.y a #.k.d.p.f.d.",
"l.l.l.k.f.f.l.l.g.g.f.g.g.g.j.j.j.g.<.,.s.c.s.y.s.s.y.y.,.%.d.j.3 z 6.7.0.0.0.8.6.6.: p.l.l.k.k.l.l.",
"l.l.l.l.l.l.l.l.z.l.l.l.l.l.z.l.j.,.>.d.x.s.s.y.y.y.y.i.e.>.>.e.l.w                 l.l.c.l.l.l.z.l.",
"l.l.l.k.l.l.l.l.l.l.l.l.l.j.l.j.,.%.f.h.s.y.8       %.y.y.e.,.%.2.l.l.r.  9.- d l.k.l.k.l.l.l.l.l.l.",
"l.l.l.l.l.l.k.l.l.l.k.l.l.j.f.1.&.f. .+ + + ( D.V.K.2 + + 8 e.<.>.y.j.2.  9.- d l.l.l.l.l.l.l.l.l.k.",
"k.k.k.k.k.l.k.l.k.l.k.l.l.d.<.>.h q m ) S.S.!._.^.'.F.S.A.U 8 3 %.>.y.:.  9.- d k.k.l.k.l.k.k.l.k.k.",
"k.k.k.k.k.k.k.k.k.k.k.l.g.e.,.l L V / (..X.X.X.X.X.X.X.X'.I.N V k [ %.%.  9.- d k.k.k.k.h.k.k.k.k.k.",
"k.k.k.k.k.k.k.h.a.a.p.a.,.%.@.4 F..X.X.X.X.X.X.X.X.X.X.X.X.X.X.X6 Z +.'   9.- p a.k.l.h.k.k.k.k.k.k.",
"k.k.k.k.f.h.h.t.^ ^ ^ ^ =.%.  /..X.X.X.X.X.X.X.X.X.X.X.X.X.X.X.X.XN 3 [   9.- 5 ;.f.f.h.l.f.h.h.k.h.",
"a.k.f.f.j.f.k.f.f.h.,.=.x % .X.X.XK.C.~..X.X.X.X.X.X.X.X`.P.^ .X.X.XS.    9.- s f.f.k.f.f.f.f.p.f.f.",
"i.i.i.i.i.d.f.d.u.<.@.g 7 K..X.XP.K.(.}..X.X.X.X.X.X.X.X X`./.A.`..X~.A.  9.- i p.p.f.p.i.u.i.i.i.i.",
"r.r.y.i.y.p.t.-.-.=.=.e M `..X.X( S..X.X.X.X.X.X.X.X.X.X.X.X.X5 _..X}.I.  9.- w -.-.i.y.y.y.y.y.y.y.",
"i.p.f.y.y.p.w.~ ~ ~ B x ) .X.X.XN Y (..X.X}.~.L.L.L._. X.X}.^.  /..X.X/.  9.- 5 ~ ~ i.y.p.f.p.i.y.i.",
"f.f.d.f.f.f.&.[  .2.< Y _..X.X.XY 7 ( /./.I.v % $ $ S.~./.I.V % /..X.X/.  9.- 9 [ O.e.g.d.f.f.f.f.p.",
"p.p.f.f.f.*.O.S       ( .X.X.X.X.X/         ) (. X~.$         .X.X.X.X/.  9.-   : @.O.e.f.i.p.f.p.p.",
"p.p.d.i.&.O.l v /./.1 / .X.X.X.X.X`././././.`..X.X X/././././..X.X.X.X/.  9.- R S.o O.%.e.i.i.p.p.p.",
"f.p.i.,.O.f L J..XN V.P..X.X.X X.X.X.X.X.X.X.X.X.X X.X.X.X.X.X.X.X.X.X/.  t ;.Q / S.> O.@.e.p.p.f.p.",
"i.y.<.O.h A S..X.X  J.'. X/.S.S.I.`..X.X.X.X.X.X.X.X.X.X.X.X.X.X.X.X.X/.    H.3.6  XN C ` O.r.u.p.i.",
"i.<.O.%.# S..X.X.X  L. X^.) r 5 U D._..X.X.X.X.X.X.X.X.X.X.X.X.X.X.X.X/.    G.K 7 .X.X$ f O.O.y.p.*.",
"O.O.&.l.# S..X.X.X  L.`.) & [.[.n v J..X.X.X.X.X.X.X.X.X.X.X.X.X.X.X.X^.    4.J 6 .X.X$ f ,.O.O.@.O.",
"O.{ %.p.X S..XL.  ~.}.I.L.|.T.Q.Q.W 6 .X.X.X.X.X.X.X.X.X.X.X.X.X.X.X.X/.  9.- ( L.  .X$ a %.O.O.O.{ ",
"1.%.+.>.o S..XL.  }. XI.L. X{.R.W.W 6 .X.X.X.X.X.X.X.X.X.X.X.X.X.X.X.X/.  9.- / L.  .X% f +.O.2.e.%.",
"p.>.[ 0 . S..XL.  .X.X~.I.`..X).].Q 6 .X.X.X.X.X.X.X.X.X.X.X.X.X.X.X.X/.  9.- / L.  .X% : f &.h.p.<.",
"u.<.h < . / U.L.  .X.X'./.^.|._.U./ Y .X.X.X.X.X.X.X.X.X.X.X.X.X.X.X.X/.  9.- N S.6 L.% $ e | u.u.u.",
"2.P < C.= . v F.  .X.X.X}.^.^.F.v C..X.X.X.X.X.X.X.X.X.X.X.X.X.X.X.X.X/.  9.-   1 /.  M ( B < #.r.t.",
"i < V.U U <       .X.X.X.X.X.X.X.X.X.X.X.X.X.X.X.X.X.X.X.X.X.X.X.X.X.X/.  9.-         M U ^ (   t.r.",
"i   # X R Y 5     .X.X.X.X.X.X.X.X.X.X.X.X.X.X.X.X.X.X.X.X.X.X.X.X.X.X/.  9.-       M ) 6 X #   y.y.",
"} C Z Z T Y 6     .X.X.X.X.X.X.X.X.X.X.X.X.X.X.X.X.X.X.X.X.X.X.X.X.X.X^.  9.-       U T H h C C r.r.",
"2.2.2.2.x A C *   '. X.X.X X'. X.X.X X'..X.X.X X'..X.X.X}.|..X.X.X}.}./.  9.-   + 8 E x } 2.2.2.e.w.",
"2.2.2.2.2 D 2.D   I._. X X'.I.`. X X_.I.'. X X(.I.}..X}./.!.'..X X~.~.!.  9.-   : r.2.2 D 2.2.2.<.:.",
"%.%.&.%.%.*.&.D   Z.P._.'.U.A.U.'._.I.A.^.'.(.P.S.~. X/.K.D.~..X^.F.F.K.  9.-   & :.:.&.%.&.%.%.%.%.",
"2.:.:.:.:.&.&.*.2.  T K.K.A.A.A.L.K.C.A.A.I.J.A.Z.Z.!.D.A.Z.Z.~.S.A.A.(   9.- q *.:.2.&.&.&.@.2.2.*.",
"2.2.2.2.<.2.2.2.2.  Y S.S.A.A.A.S.S.A.A.A.S.A.A.Z.Z.D.A.A.Z.Z.D.A.A.A.(   9.- e <.2.2.:.:.:.2.2.2.2.",
"2.2.2.2.2.2.2.2.2.i x Y A.A.A.A.A.A.A.A.A.A.A.A.A.A.A.A.A.A.A.A.A.A.A./   9.- e *.e.r.*.e.<.r.e.2.2.",
":.:.:.:.:.:.:.:.:.:.a u N V A.A.A.A.A.A.A.A.A.A.A.A.A.A.A.A.A.A.A.A.A.(   9.- i *.w.*.e.*.w.*.*.:.:.",
":.:.:.:.:.:.:.:.:.:.:.d . # A.A.) ) ) C.) C.A.A.A.A.C.C.C.) ( ( A.A.V.Y   9.- q w.*.w.*.*.w.*.w.:.:.",
"&.:.:.:.:.:.*.:.:.:.*.*.j # A.A.4   # L U V / A.A.A.U U U v     ( A.N     9.- i e.*.*.e.*.*.*.r.*.:.",
"*.:.*.*.$.:.:.*.:.*.:.p r Y.W.).E.Y.3.X X X X # # # X X X r G.R.W.W.R.5.M O c P $.w.&.r.*.*.w.*.:.*.",
"$.*.*.#.*.*.$.$.$.$.*.q r T.R.J n b b q i s s i a i a i q 9 r b n G.T.H.; g P #.*.*.#.#.*.*.*.$.*.*.",
"$.$.#.#.*.#.@.@.@.@.&.S r J J q q q i F ` { { { ' {  .] ` D e e q b J A i X.$.$.#.r.#.e.*.#.*.*.$.#.",
"@. . . .@.@. .+.+.+.+.@.h * : { X.$.@. .` F ] ' ' ' ' F ` :.:.@.@.9 & > %.X.%.*...@. .X.#.@.#.*.X. .",
"@.#.#.@.%.$.$.#.@.#.%.#.#.%.@.r.#.X.%.X. .F ` {  .' F ' r.*.$.#.@.@.#.#.#.#.@.%...@. ...@.{  . .#.#.",
"#.*.$.$.#.#.%.$.#.#.#.#.#.#.#.X.#.#.#.e.#.@.` ` F F ' r.*.*.$.$.#.*.#.%.w.#.#.#.$.&.#.$.%.$.@.#.#.@.",
"$.$.#.$.$.$.#.#.#.#.#.$.#.#.#.#.#.#.#.#.#.$.{ F F ' #.w.#.#.$.$.#.$.#.#.$.$.#.#.$.$.$.$.#.#.$.$.$.$.",
"X.#.#.$.$.$.#.#.#.#.#.X.#.#.#.#.o.$.$.#.%.#.#.F F  .w.%.#.#.#.#.$.#.#.#.#.#.#.o.%.#.#.$.#.#.X.$.$.$."
};
