/* XPM */
static char *result[] = {
/* columns rows colors chars-per-pixel */
"50 100 189 2 ",
"   c #000101",
".  c #080B0B",
"X  c #10100E",
"o  c #0B0E13",
"O  c #001717",
"+  c #091317",
"@  c #011817",
"#  c #001F1F",
"$  c #121211",
"%  c #141A1F",
"&  c #1D1D1C",
"*  c #20201E",
"=  c #141A22",
"-  c #201920",
";  c #002929",
":  c #1B222C",
">  c #1B2734",
",  c #003232",
"<  c #003F3F",
"1  c #252523",
"2  c #2C2C2B",
"3  c #29282C",
"4  c #30302E",
"5  c #262D36",
"6  c #232E3A",
"7  c #362736",
"8  c #2C3137",
"9  c #353534",
"0  c #3F303F",
"q  c #3E3E3B",
"w  c #163F47",
"e  c #253242",
"r  c #283648",
"t  c #2D3B4B",
"y  c #323C4C",
"u  c #2B3C52",
"i  c #503E4F",
"p  c #4C3C50",
"a  c #1D4851",
"s  c #005D5D",
"d  c #3E4348",
"f  c #274757",
"g  c #324154",
"h  c #35465B",
"j  c #384658",
"k  c #394A5E",
"l  c #3B4D63",
"z  c #384C65",
"x  c #3F546E",
"c  c #3E5470",
"v  c #006868",
"b  c #007474",
"n  c #337373",
"m  c #45484A",
"M  c #494948",
"N  c #52504F",
"B  c #5D485D",
"V  c #4A5058",
"C  c #535352",
"Z  c #555855",
"A  c #5C5D57",
"S  c #55585D",
"D  c #60605E",
"F  c #485565",
"G  c #4D5464",
"H  c #41556D",
"J  c #405570",
"K  c #465A74",
"L  c #4A5D76",
"P  c #435D7D",
"I  c #675871",
"U  c #5E6469",
"Y  c #4A6D73",
"T  c #4A617E",
"R  c #586779",
"E  c #616160",
"W  c #696A65",
"Q  c #616569",
"!  c #62686B",
"~  c #6D6D6A",
"^  c #6B706F",
"/  c #72726F",
"(  c #78677A",
")  c #7A7672",
"_  c #7C7C75",
"`  c #7E7E79",
"'  c #82827C",
"]  c #455F81",
"[  c #456283",
"{  c #4A6585",
"}  c #4E6886",
"|  c #476388",
" . c #4A668B",
".. c #4E6A8C",
"X. c #546A84",
"o. c #576C85",
"O. c #516D8D",
"+. c #53728B",
"@. c #5C738D",
"#. c #4E6C92",
"$. c #516E92",
"%. c #547194",
"&. c #5B7695",
"*. c #5D7896",
"=. c #56749A",
"-. c #59769C",
";. c #5C7A9C",
":. c #60758A",
">. c #707882",
",. c #617995",
"<. c #607D9E",
"1. c #707F90",
"2. c #5677A1",
"3. c #5779A3",
"4. c #5C7CA2",
"5. c #5E7FA8",
"6. c #617EA2",
"7. c #9B749B",
"8. c #008585",
"9. c #008A8A",
"0. c #33898A",
"q. c #12A8A8",
"w. c #00B7B7",
"e. c #00BABA",
"r. c #718194",
"t. c #71859E",
"y. c #5F80A9",
"u. c #6481A5",
"i. c #6383AB",
"p. c #6985AB",
"a. c #6887AA",
"s. c #6988AF",
"d. c #7189A6",
"f. c #6586B0",
"g. c #6788B1",
"h. c #6C8CB4",
"j. c #6E8FB8",
"k. c #718FB5",
"l. c #6F90B9",
"z. c #7090B7",
"x. c #7293BB",
"c. c #7697C1",
"v. c #7798C3",
"b. c #7A9BC5",
"n. c #00C2C2",
"m. c #00C8C8",
"M. c #00D1D1",
"N. c #00E0E0",
"B. c #00ECEC",
"V. c #00F7F7",
"C. c #00F8F8",
"Z. c #878780",
"A. c #8D8D85",
"S. c #909088",
"D. c #99998F",
"F. c #9B9493",
"G. c #9A9A91",
"H. c #A3A39A",
"J. c #ABAB9F",
"K. c #B589B5",
"L. c #BA90BA",
"P. c #ADADA4",
"I. c #B4B4AC",
"U. c #B9B9AD",
"Y. c #BDBDB4",
"T. c #C1C1B7",
"R. c #CACABD",
"E. c #C796C7",
"W. c #D098D0",
"Q. c #D2AFCD",
"!. c #D7A4D7",
"~. c #D9A8D9",
"^. c #E4ACE4",
"/. c #EAB7E9",
"(. c #CECEC4",
"). c #D4D4C7",
"_. c #D4D4CA",
"`. c #D9D9CB",
"'. c #DDDDD2",
"]. c #E4C1DE",
"[. c #E4E4D6",
"{. c #E5E5D9",
"}. c #E9E9DC",
"|. c #F1D5E9",
" X c #F8C0F8",
".X c #EEEEE0",
"XX c #F1E6E3",
"oX c #F4F4E5",
"OX c #F8F8E8",
/* pixels */
"x.c.x.c.c.c.c.c.c.v.v.v.c.c.c.c.v.v.c.c.v.c.c.y.f.f.l.j.c.c.g.g.c.b.c.c.c.c.c.v.c.v.v.c.c.c.c.x.c.x.",
"v.v.c.c.c.v.c.v.c.v.c.c.c.c.c.c.c.c.c.v.c.c.g.y.y.y.c.c.v.v.v.v.v.v.c.c.c.c.c.c.c.c.c.c.c.c.v.c.c.c.",
"c.c.c.c.c.c.c.c.v.c.c.c.c.c.c.c.c.c.c.c.c.x.y.y.2.2.f.c.v.c.c.c.c.c.c.c.c.c.v.c.c.c.c.c.c.c.c.c.c.v.",
"c.x.c.c.l.c.c.c.c.c.c.c.c.c.c.c.c.c.c.c.l.y.y.j.f.y.y.y.l.l.l.c.c.c.c.c.l.c.v.c.c.c.c.c.c.c.c.c.c.c.",
"h.h.h.j.j.l.l.j.h.j.l.x.x.c.l.l.x.x.l.g.y.y.l.x.f.y.y.2.y.g.l.l.j.l.x.l.j.j.j.l.x.h.j.l.l.z.j.j.j.h.",
"g.g.h.g.h.h.j.j.f.g.h.j.j.l.l.l.h.j.g.y.y.g.b.g.f.f.y.y.y.f.g.j.j.l.j.h.g.j.l.l.h.h.g.j.l.z.s.s.h.g.",
"l.c.l.j.j.g.l.l.j.j.h.j.j.j.x.x.h.h.y.y.y.b.a.y.f.f.y.y.2.2.y.l.x.c.c.j.j.l.c.l.x.l.h.x.x.x.z.z.l.x.",
"c.x.x.l.l.c.c.l.c.l.c.x.l.x.x.c.j.y.#.j.b.y.f.f.y.f.f.f.y.2.2.y.x.x.x.l.c.l.c.l.x.x.c.x.x.x.x.x.c.x.",
"x.x.x.x.x.x.x.x.l.x.x.x.x.x.x.l.y.#.h.l.f.y.f.y.f.y.f.y.y.y.y.=.y.j.j.l.x.x.x.x.x.x.x.x.x.x.x.x.x.x.",
"k.x.x.x.z.x.x.z.x.x.x.l.x.l.h.y.2.j.j.f.f.y.y.f.y.f.y.f.y.y.y.y.y.y.l.l.x.x.x.x.x.l.z.x.x.x.x.z.x.x.",
"k.x.x.z.z.z.z.z.z.z.x.x.l.g.y.=.g.z.s.y.y.y.f.y.y.f.a.y.y.y.y.y.y.2.f.j.l.x.x.l.z.z.z.x.z.l.z.z.l.l.",
"k.k.z.z.z.z.z.z.l.z.z.l.j.y.2.y.c.s.y.y.y.y.y.y.y.y.y.y.y.y.y.y.y.2.2.f.l.l.l.l.z.z.z.z.z.z.z.z.l.l.",
"x.k.k.z.z.z.z.z.z.j.l.j.3.=.y.b.y.y.y.y.y.y.y.y.y.a.y.y.y.y.y.y.y.y.#.2.f.h.j.l.z.z.z.z.z.z.z.z.z.z.",
"k.k.z.k.z.z.h.z.z.j.h.-.=.f.c.y.y.y.y.y.y.y.y.y.y.y.y.y.y.y.u.y.y.y.y.#.y.y.l.j.z.z.j.z.z.h.j.j.j.z.",
"h.z.k.k.h.z.j.h.h.h.4.=.s.h.y.y.y.y.u.y.u.y.y.y.y.u.y.y.y.y.y.y.=.y.=.y.%.=.y.g.z.k.h.z.h.j.h.g.h.h.",
"s.s.a.a.f.s.s.s.a.y.%.f.s.y.4.y.y.+.u.y.u.y.2.y.+.u.y.y.y.=.%.y.y.%.2.=.=.=.#.y.s.s.s.s.s.a.a.a.a.f.",
"y.y.y.s.y.s.s.y.3.=.4.l.i.3.3.-.4.3.-.4.4.2.-.2.y.=.2.=.y.=.-.2.2.y.y.-.2.=.#.=.5.f.p.i.6.i.i.6.y.y.",
"s.a.g.s.s.s.s.y.=.4.x.i.6.4.4.-.-.-.-.-.4.4.2.-.+.y.y.=.y.=.y.+.-.-.-.-.4.2.2.%.$.i.p.i.g.h.h.s.a.s.",
"h.h.h.z.g.h.y...4.x.6.6.5.6.5.5.y.y.4.y.-.y.y.y.y.y.y.=.y.y.y.y.y.y.y.y.y.y.y.;.$.$.5.h.h.h.k.s.h.h.",
"s.s.s.s.s.2.+.y.j.5.5.4.4.4.4.4.4.4.y.;.y.y.y.-.&.y.y.y.y.y.&.y.-.y.y.-.y.-.4.4.3.=.=.6.h.h.s.h.s.s.",
"s.s.s.y.y.#.y.a.6.4.4.4.4.4.6.3.=.y.y.-.;.y.-.y.-.y.-.y.y.-.4.4.y.=.y.y.4.4.4.4.3.-.%.=.3.h.g.g.s.s.",
"s.s.y.y.#.y.s.y.4.4.3.6.4.6.2.6.y.y.-.y.-.y.y.-.y.-.y.2.-.y.-.4.-.y.y.=.4.4.4.4.3.5.2.#.2.6.g.g.s.h.",
"h.s.y...y.s.y.y.4.4.4.3.3.3.6.3.2.y.y.-.-.y.-.y.y.y.-.2.y.-.y.4.y.y.=.y.4.3.4.4.4.3.3.-.#.#.6.g.s.y.",
"y.y.#.%.k.y.+.y.-.6.2.6.2.6.2.6.y.=.-.y.-.;.-.=.-.-.y.y.-.y.-.4.+.=.&.y.4.4.-.4.;.-.4.4.=.#.=.6.s.y.",
"+.#.-.j.2.=.-.-.=.=.2.-.=.=.-.-.+.=.=.=.=.=.=.=.=.=.=.=.4.=.-.-.=.=.=.-.2.-.y.=.2.=.=.=.=.-.#.#.+.#.",
"#...=.s.=.$.=.=.$.=.=.=.=.%.=.=.$.-.-.-.=.-.$.=.=.-.=.=.=.=.=.=.=.#.=.=.=.$.=.%.%.-.-.=.=.=.#.#.#.+.",
"y.=.#.-.-.-.-.-.=.2.=.=.-.2.-.-.-.-.-.-.-.-.=.%.-.-.-.=.=.-.=.=.-.-.-.2.-.-.=.=.=.-.6.2.=.#.#.6.y.=.",
"f.3.=.#.-.-.-.-.-.-.-.-.-.-.-.-.-.-.-.y.=.y.-.&.y.3.-.-.-.=.;.;.-.-.-.-.-.-.-.-.-.6.-.2.$.#.-.h.a.y.",
"a.a.6.$.#.=.2.2.-.-.-.-.-.4.-.-.-.y.-.-.-.-.=.y.-.-.-.y.=.=.y.=.y.&.y.-.-.y.=.=.-.2.-.$.O.&.z.a.i.a.",
"i.a.p.u.#. .$.-.-.-.-.-.-.-.-.-.=.=.&.&.y.-.&.y.=.=.-.;.;.&.&.+.%.=.=.&.-.-.y.=.-.-.$. .-.k.a.a.u.i.",
"u.p.u.i.6.#. .=.-.-.-.-.-.-.=.-.=.=.&.y.%.=.=.=.&.-.=.&.-.=.=.y.=.&.y.+.-.&.&.%.=.$. .6.s.p.a.u.u.a.",
"u.u.u.u.6.4.$.#.=.-.-.=.=.=.=.-.=.=.=.=.=.=.&.=.-.=.=.=.=.=.=.=.=.=.=.=.=.=.=.=.#.#.4.p.p.i.u.u.u.u.",
"d.6.6.6.5.6.2.#.| =.=.=.-.=.=.=.%.-.=.-.%.=.=.-.=.&.-.&.=.=.&.=.=.&.-.=.-.=.%.%. .-.p.p.p.6.6.6.p.6.",
"5.6.5.6.5.6.6.-.#. .$.=.%.-.%.=.%.=.%.-.=.=.%.%.$.=.=.%.$.=.=.=.=.=.=.%.%.%.#. .&.s.6.6.6.6.6.6.6.6.",
"6.6.6.6.6.6.6.6.-.| | %.%.%.#.#.$.$.$.$.$.$.%.=.$.$.%.#.$.=.&.=.=.=.%.$.$.$...#.s.6.6.6.6.6.6.6.6.6.",
"-.6.-.-.,.6.<.-.;.-...| ..#.#.%.$.$.$. .#.$.#.$.#.$.$. .#.#.$.$.+...#.#.$. .%.s.6.;.4.-.6.<.-.=.-.6.",
"6.6.,.6.;.-.-.<.6.6.2. . ...$.%.$.$.$.$.$.$.$.$.#.$.$.%.$.$.$.$.$.=.$. .| =.p.6.;.;.6.;.-.-.&.;.6.6.",
"6.6.6.6.6.6.6.6.6.6.6.&... .#.%.$.-.%.-.$.$.%.$.$.$.%.=.$.$.$.$.$.$.$.| =.6.6.6.;.6.6.6.;.;.;.;.6.6.",
"6.6.6.6.6.6.6.6.6.6.6.6.+. .{ $.%.%.$.=.%.=.$.%.%.%.%.%.%.=.$.$.$.$.| $.u.u.6.6.6.6.6.<.u.6.u.y.6.6.",
";.6.6.;.<.6.;.6.<.<.<.6.y.=. .{ $.%.$.%.%.$.=.%.%.$.%.%.$.=.! o...[ O.Q ,.6.6.:.Q <.<.u.;.<.;.u.<.<.",
"6.;.<.<.<.<.<.<.&.u.&.u.u.&.+.[ ] $.%.$.$.$.@.%.%.$.%.%.O.%.U Y [ O.p.E ,.,.;.:.E u.u.*.u.*.u.*.<.<.",
",.6.<.<.-.<.<.<.u.&.u.&.&.u.u.+.| | O.$.$.$.$.$.$.$.$.%.%.R 0.+.o.<.:.0.:.,.:.+.0.o.*.<.*.u.*.u.<.<.",
"6.6.<.<.<.;.<.-.u.y.u.*.y.&.u.u.@.] | ..O.%.$.O.$.O.$.$.O.M q.n G @.M n.Y R U n m.M @.;.;.;.;.;.-.<.",
"-.,.=.,.;.;.,.&.&.&.&.u.+.u.&.&.;.$.| { X.$.O.O.O.O.O...}   e.s 6 K   V.# z t < C.  X.;.*.u.;.;.-.,.",
";.*.%.%.*.*.-.&.=.%.&.*.%.%.&.y.&.u...[ | ...... ...+.#.[   e.s 6 K   C.# k t < C.  } *.*.*.-.;.&.*.",
"%...%.+.$.%.O.O.+.+.%.%.+.+.+.%.+.%.%...] [ { { {  .[ n [   e.s 6 H   C.# h t < C.  { &.*.%.*.*.$.O.",
"%.&.&.%.-.*.-.&.%.%.%.&.;.=.&.&.+.=.&.;.%.c T  .$. .T { u.  w.s > H   C.# k t < C.  T +.%...%.+.%.;.",
"&.;.&.-.*.*.&.&.=.&.&.&.&.&.&.&.&.&.&.;.-.#.T [ c [ { <.<.  w.s 6 K   C.# k t < C.  { &.&.%.%.&.*.&.",
"&.&.&.*.&.&.*.&.&.&.&.&.,.*.&.&.&.&.&.&.&.&.$.] P } &.6.*.  e.b a g   V.# t a s C.  X.*.&.*.&.&.&.&.",
"&.&.*.&.&.%.&.&.&.&.&.&.&.@.&.&.&.&.&.&.&.&.*.] P $.<.&.&.  w.M.8.@ ; V.< ; v m.B.  T &.&.&.&.&.&.&.",
"x.x.x.x.c.c.c.c.x.b.v.v.c.c.x.x.v.v.c.c.v.c.c.f.f.h.x.j.x.  9.N.C.C.C.C.V.V.C.B.e.  p.c.x.c.c.x.c.x.",
"b.b.b.x.c.v.c.c.v.v.v.v.c.v.v.b.c.v.c.c.c.c.x.3.3.5.c.c.c.a.> 9.n.M.C.V.V.M.n.9.@ p.c.c.v.v.v.v.v.v.",
"c.c.c.c.c.c.c.c.v.c.v.c.c.v.c.c.v.c.v.c.v.v.3.3.3.3.f.c.c.c.;.f ; , < < w , ; a &.v.c.v.c.c.c.c.c.c.",
"c.c.c.c.x.c.c.c.c.c.c.c.x.c.x.c.c.v.c.c.6.u u h 2.4.3.5.j.j.c.{ k t   s . 6 l L x.v.c.x.c.x.c.c.c.v.",
"h.h.h.l.l.l.l.j.j.h.z.x.x.c.x.x.z.*.O.X.K 9 1 4 K T L P 6.h.j.j.j.O.  w.O K j.j.j.j.j.l.l.l.z.h.h.j.",
"g.h.g.g.h.h.l.h.a.p.s.l.x.z.s.u.6.3 & & M (.G.(.C - & 3  .-.h.j.j.o.  w.O K j.j.j.h.s.h.z.z.g.s.g.h.",
"x.x.z.k.j.j.z.d./ ~ / p.z.h.O.    I..XOXOXOXOXOXOXOX}.I.    } j.z.O.  e.@ K x.x.x.z.j.z.x.x.z.z.x.x.",
"x.x.x.x.z.x.x.z.k.k.z.>.d.F N `.`.oXOXOXOXOXOXOXOXOXOXoX`.`.9 L d.S   w.@ L x.x.x.x.x.x.c.x.x.x.c.x.",
"x.x.x.x.x.x.z.x.x.x.x.p.l ^ R.OXOXOXOXOXOXOXOXOXOXOXOXOXOXOXR.U g R   w.O L x.x.z.x.x.x.x.x.x.x.l.x.",
"x.x.x.z.x.t.r.r.r.r.x.F ! U.OXOXI.'..XOXOXOXOXOXOXOXoX'.I.OXOXP.Q e   e.O V r.d.x.x.x.x.x.x.x.x.x.x.",
"z.x.z.x.z.1.>.>.>.>.X.9 I.OXoX_.S._..XOXOXOXOXOXOXOX}.(.S.`..XOXJ.3   w.O m >.1.z.z.z.z.z.z.z.z.k.z.",
"z.z.z.z.z.z.z.z.z.l.  Y..XOX(.E OXOXOX}.`.`.`.`._.{.OXOXOXE `.OX}.G.  w.O K x.x.z.z.z.z.z.z.z.k.k.k.",
"z.z.z.z.k.l.l.k.z.k.  `.OXOXU.  OXOXOX_           _ OXOXOX  Y.OXOXU.  w.O K x.j.z.z.z.z.z.z.k.l.z.k.",
"h.z.z.z.k.j.k.l.o.+ I.oXOXOXOX`.* * * W T.`.`.`.Y.W & 1 * `.{.OXOXU.  w.O H l.j.z.z.j.z.z.z.k.l.k.l.",
"z.h.z.h.z.z.l : =   }.OXOXOXOXOXU.U.U.`.oXOXOXOX.X).U.U.U.OXOXOXOXU.  w.@ % x h.h.h.k.j.z.z.h.h.h.h.",
"a.a.f.s.a.H ! _ A   OXOXOXOXOXOXOXOXOXOXOXOXOXOXOXOXOXOXOXOXOXOXOXU.  w.@ M S H s.s.s.s.f.i.i.a.f.a.",
"u.i.i.f.T m U.}.G.q OX.X).U.T.'.OXOXOXOXOXOXOXOXOXOXOXOXOXOXOXOXOXU.  9.8 F._ m L s.f.i.u.i.u.i.u.i.",
"f.s.s.&.* U.OXG.q OXoXY.N - 2 _ }.OXOXOXOXOXOXOXOXOXOXOXOXOXOXOXOXU.    ~.B _ R.* =.i.s.f.h.h.a.i.f.",
"h.h.;.  OXOXOXG.q OX(.& 7. XL.  S.}.OXOXOXOXOXOXOXOXOXOXOXOXOXOXOXU.    ~.B _ OXOX  %.h.h.h.h.h.s.z.",
"s.s.;.  OXOXOXG.q OXD.R.Q.^. X~.$ `.OXOXOXOXOXOXOXOXOXOXOXOXOXOXOXU.    L.i _ OXOX  [ 5.h.s.s.h.s.s.",
"s.s.;.  OXOXA.C H.J.T.oXXX].^. X  `.OXOXOXOXOXOXOXOXOXOXOXOXOXOXOXU.  9.y ) _ W OX  [ =.-.h.s.s.s.s.",
"h.s.&.  OXOXA C (.S.[.OXOXXX|.|.  `.OXOXOXOXOXOXOXOXOXOXOXOXOXOXOXU.  w.@ G._ q OX  | =.=.5.s.s.h.s.",
"s.p.$.  OXOXA A [.J.OXOXOX}.).U.q {.OXOXOXOXOXOXOXOXOXOXOXOXOXOXOXU.  w.@ G._ q OX  ..-.=.$.6.s.s.a.",
"s.;.] + `.OXA A OXOXOXOXOXR.' * OXOXOXOXOXOXOXOXOXOXOXOXOXOXOXOXOXU.  w.@ D._ 2 `.o ..3.=.#.#.i.s.;.",
"#.#.-.k.  U.A A OXOXOXOXOXOXOXOXOXOXOXOXOXOXOXOXOXOXOXOXOXOXOXOXOXU.  w.@ ' W     =.2.=.=.2.#.#.#.$.",
"#.z = Q _ 2 X A OXOXOXOXOXOXOXOXOXOXOXOXOXOXOXOXOXOXOXOXOXOXOXOXOXU.  w.@ ' W 1 _ Q = z $.=.$.#.#.#.",
"z 8 ~ E ~ N * A OXOXOXOXOXOXOXOXOXOXOXOXOXOXOXOXOXOXOXOXOXOXOXOXOXU.  w.O 1 q N ~ E E d h #.#.6.y.=.",
"j 2 ) E E / 2 A OXOXOXOXOXOXOXOXOXOXOXOXOXOXOXOXOXOXOXOXOXOXOXOXOXU.  w.O   q / E E ) 2 r $.-.h.s.4.",
"d 9 M M ~ ` 4 D OXOXOXOXOXOXOXOXOXOXOXOXOXOXOXOXOXOXOXOXOXOXOXOXOXU.  w.O X N _ ~ M m 3 r L x.d.a.p.",
"y A $   Z.D & M }.OXOXOXOXoXOXOXOXoXOXOXOXOXoXOXOXOXOXoXOXOXOXOXoXY.  w.O 9 Z E Z.  o Z p 3 5.s.u.a.",
"  e &.  E &     q OXOXOX[.{.OXOXOX_.{.OXOXoX).oXOXOX.X_.OXOXOX'.'.U.  e.O     % E   P >   : 6.6.u.u.",
"@.6.6.*.. L ] u 9 _.OX`.P.I.'.OX_.H.T.{..X(.F.(..X{.Y.G._.OX'.I.P.H.  e.O g } z . K 4.6.-.,.6.s.u.y.",
"6.p.6.s.L 6.6.] h 9 `.P.S.G.P.'.H.S.G.H.H.G.A.H.J.J.D.D.G.'.P.S.F.)   w.O z %.} z &.p.p.6.d.6.6.u.u.",
"6.6.6.6.6.6.6.-.] e Q A.S.S.D.I.S.S.S.S.S.S.S.S.A.S.A.A.S.I.G.S.Z.A   w.O h $. .&.p.p.6.5.6.6.6.u.u.",
"6.6.6.6.6.6.6.6.;.] = ! ` S.S.S.S.S.S.S.S.S.S.S.S.S.S.S.S.S.S.S.) 9   w.O h  .O.h.6.6.6.6.6.6.6.u.u.",
"-.&.-.-.=.-.6.-.;.&.#.= Z ` ' S.Z.Z.A.S.S.S.S.S.S.S.S.Z.A.S.` ` C .   w.O g $.s.6.6.,.=.-.6.-.=.%.%.",
"6.<.2.6.6.=.-.-.6.6.4. .>   1 S.E E ` S.A.S.S.S.S.S.` E E S.:   6 c   w.O z p.<.-.-.6.2.-.-.-.-.4.*.",
"6.6.6.6.6.6.6.6.6.6.4.&.{ G ( /./.E.i $ X $ X $ $ X i E.^./.) K  .o.C O M @.u.<.6.6.6.6.6.-.6.6.u.u.",
"6.6.6.6.6.6.6.6.u.*.u.*.f ( !.!.0 7 t x x x J c H J F 7 0 !.!.I r ..Y x ,.u.;.<.*.u.u.;.u.u.;.u.6.;.",
"<.<.<.<.<.6.<.<.y.u.*.u.5 ( /.W.  e K %.%.%.%.%.%.%.P 6   W./.B > [ #.a.u.<.u.<.u.u.;.y.*.*.u.y.<.6.",
"<.<.<.<.<.<.<.<.u.*.u.y.t I K.7.= { %.%.%.+.%...$.O.%.T = 7.K.p r ..u.u.<.<.<.<.*.;.u.*.;.;.u.*.<.<.",
"<.<.-.<.<.-.<.<.&.u.&.&.;.h o o [ { ..%.%.#.%.%.%.%.$.%.#.o . h } u.u.u.;.<.;.<.*.u.*.u.*.u.;.u.;.<.",
";.<.;.;.,.<.<.;.u.*.u.u.u.;.;.u.%.| { ..O.%.O.$.$.$.$.$.%.{ [ %.*.u.*.&.&.u.u.;.;.*.u.*.;.u.*.;.<.;.",
";.;.;.*.;.;.*.*.;.&.&.&.&.@.u.*.-.+.{ { ..O...+.O.O.O.O. .[ ..*.u.u.*.u.&.&.&.u.u.*.u.*.;.;.;.*.;.;.",
"*.*.&.%.*.*.=.%.%.%.&.*.+.%.*.;.&.;...[ [ ......} ..$...T } ;.u.;.&.;.&.&.y.&.&.y.*.%.&.;.*.;.*.&.*.",
"%.+.O.$.%.%.O.O.%.+.%.%.%.+.%.%.%.%.%...[ [ { { { { ] n [ u.;.%.+.%.%.+.+.+.&.&.+.=.+.&.*.%.*.&.%.+.",
"%.*.-.%.&.*.*.;.%.%.%.&.&.+.%.&.%.%.&.&.+.c ]  ...| ] | 6.,.;.-.%.&.&.%.&.&.&.&.%.%.+.%.+...O.O.&.;.",
"&.*.&.&.;.*.&.&.%.&.&.&.&.y.+.y.&.&.&.y.=.%.] ] n ] | 6.<.;.*.*.&.-.&.&.*.*.;.&.&.&.&.&.-.&.%.&.&.*.",
"&.*.&.*.*.@.&.&.*.*.*.&.&.*.*.*.&.*.*.*.&.&.+.T ] } &.<.&.&.&.&.&.*.*.&.&.&.&.&.*.*.*.&.*.&.&.&.*.*.",
"&.&.&.&.*.*.&.&.&.&.@.&.&.&.&.@.&.&.@.&.&.&.&.[ ] O.<.,.&.,.&.&.&.&.&.&.@.*.&.&.&.&.&.&.&.&.&.&.@.&."
};
