/* XPM */
static char *result[] = {
/* columns rows colors chars-per-pixel */
"100 50 197 2 ",
"   c #000000",
".  c #04080A",
"X  c #0D0C0C",
"o  c #0A0E12",
"O  c #001717",
"+  c #0C1015",
"@  c #0E131A",
"#  c #001E1E",
"$  c #121211",
"%  c #14151B",
"&  c #1B1A1A",
"*  c #0D1D24",
"=  c #141B24",
"-  c #181D24",
";  c #062527",
":  c #002E2E",
">  c #18262A",
",  c #1F2934",
"<  c #003737",
"1  c #003F3F",
"2  c #11393F",
"3  c #242423",
"4  c #27262A",
"5  c #2E2E2C",
"6  c #222D3B",
"7  c #2E2E3D",
"8  c #352735",
"9  c #25303F",
"0  c #2F3338",
"q  c #343433",
"w  c #38343F",
"e  c #3D3D3C",
"r  c #253242",
"t  c #2A3645",
"y  c #2D3B4C",
"u  c #3A3B45",
"i  c #313C4A",
"p  c #2E3E54",
"a  c #4A3A4A",
"s  c #014444",
"d  c #194E57",
"f  c #135353",
"g  c #294455",
"h  c #324153",
"j  c #33455C",
"k  c #35475C",
"l  c #374A62",
"z  c #3A4D64",
"x  c #3C5166",
"c  c #3D526C",
"v  c #3E5874",
"b  c #006B6B",
"n  c #10626A",
"m  c #007474",
"M  c #007C7C",
"N  c #484845",
"B  c #4A4A4A",
"V  c #53534E",
"C  c #474B59",
"Z  c #564855",
"A  c #4D545A",
"S  c #545453",
"D  c #5A5156",
"F  c #5D5D57",
"G  c #5D5D5A",
"H  c #60605C",
"J  c #435670",
"K  c #445A73",
"L  c #435D7C",
"P  c #495E7A",
"I  c #715975",
"U  c #5C6368",
"Y  c #47607C",
"T  c #4B627D",
"R  c #586677",
"E  c #616161",
"W  c #686864",
"Q  c #666869",
"!  c #74756F",
"~  c #616975",
"^  c #6A727B",
"/  c #717270",
"(  c #7B7B74",
")  c #82827C",
"_  c #455F80",
"`  c #456282",
"'  c #4A6585",
"]  c #4F6884",
"[  c #4A668A",
"{  c #4D6A8D",
"}  c #516A86",
"|  c #526D8D",
" . c #53708F",
".. c #5C728D",
"X. c #4E6C92",
"o. c #516E92",
"O. c #547294",
"+. c #5B7696",
"@. c #5C7896",
"#. c #55749A",
"$. c #59769C",
"%. c #5C799C",
"&. c #616F82",
"*. c #627082",
"=. c #62758D",
"-. c #607C9E",
";. c #5677A0",
":. c #5778A2",
">. c #5C7CA3",
",. c #5E7FA8",
"<. c #617EA2",
"1. c #825F82",
"2. c #886588",
"3. c #987397",
"4. c #088181",
"5. c #008A8A",
"6. c #029899",
"7. c #36888B",
"8. c #00A1A1",
"9. c #00AAAA",
"0. c #18A2A2",
"q. c #00B6B6",
"w. c #01B9B9",
"e. c #548282",
"r. c #5F80A6",
"t. c #5F80A9",
"y. c #6381A6",
"u. c #6383AB",
"i. c #6985AC",
"p. c #6788AE",
"a. c #6988AF",
"s. c #6687B0",
"d. c #6788B1",
"f. c #6C8CB4",
"g. c #6E8FB8",
"h. c #708FB6",
"j. c #708FB8",
"k. c #6F90B9",
"l. c #7090B7",
"z. c #7293BB",
"x. c #7898BF",
"c. c #7697C2",
"v. c #7798C3",
"b. c #7899C4",
"n. c #7F9FCA",
"m. c #00C8C8",
"M. c #00D9D9",
"N. c #00E3E3",
"B. c #00F4F4",
"V. c #00F8F8",
"C. c #868681",
"Z. c #8F8F87",
"A. c #919189",
"S. c #969493",
"D. c #9B9B92",
"F. c #9B9B9B",
"G. c #A2A29B",
"H. c #AAAA9E",
"J. c #AF87B2",
"K. c #BA90BA",
"L. c #AAAAA3",
"P. c #AFAFA8",
"I. c #B0B0A6",
"U. c #B4B4AC",
"Y. c #BABAAE",
"T. c #B6B6B6",
"R. c #BDBDB5",
"E. c #BCBCBC",
"W. c #C1C1B6",
"Q. c #C4C4BB",
"!. c #C9C9BD",
"~. c #C08FC0",
"^. c #CF98CF",
"/. c #D49CD4",
"(. c #D6A5D5",
"). c #D9A4D9",
"_. c #E5B4E5",
"`. c #E9B1E9",
"'. c #F7BFF7",
"]. c #CBCBC1",
"[. c #CECECA",
"{. c #D2D2C7",
"}. c #D2D2C9",
"|. c #D9D9CB",
" X c #DCDCD1",
".X c #E6CEDD",
"XX c #E2E2D5",
"oX c #E5E5D9",
"OX c #EAEADC",
"+X c #F8C0F8",
"@X c #F8D5F2",
"#X c #EEEEE0",
"$X c #EAEAEA",
"%X c #F4F4E4",
"&X c #F8F8E7",
"*X c #F8F8E8",
"=X c #F7F7F7",
/* pixels */
"c.v.b.v.v.c.v.v.v.v.v.v.v.v.v.v.v.c.v.v.c.v.c.s.;.t.n.c.c.c.c.c.c.c.c.c.c.b.v.v.v.v.c.v.v.v.v.v.v.v.v.v.c.v.v.v.v.v.v.v.v.v.v.v.c.v.c.v.v.c.v.c.g.:.:.v.c.c.c.b.b.c.c.c.b.b.c.b.v.c.v.v.v.v.v.v.v.v.v.v.",
"c.c.c.v.c.c.c.c.c.v.v.c.c.c.v.c.c.v.v.c.c.c.k.t.;.t.g.c.c.c.c.c.v.c.c.c.c.c.c.c.c.v.c.v.c.v.v.v.v.v.v.c.v.z.c.c.c.v.v.v.v.v.c.c.v.c.c.c.c.c.c.z.d.:.:.g.c.c.c.c.c.c.c.c.c.c.c.c.v.c.c.c.c.c.v.v.v.v.c.c.",
"c.c.c.c.v.c.c.c.v.c.c.c.v.v.c.c.v.v.c.c.v.c.:.t.:.:.:.c.c.c.c.c.c.c.c.c.c.c.v.v.c.c.c.c.c.v.v.b.v.v.k.v.v.c.v.v.c.v.c.v.v.v.c.c.v.v.c.c.v.c.c.p.` v :.:.d.c.c.c.c.c.c.c.c.c.c.c.c.c.v.c.c.c.c.b.v.v.v.c.",
"z.z.c.z.z.z.c.c.c.z.c.c.c.z.c.z.v.k.c.c.k.:.:.k.b.t.;.;.s.g.k.k.k.c.c.k.k.g.c.c.v.c.k.c.k.v.k.v.z.v.v.k.v.z.c.z.v.z.c.z.v.z.v.k.z.c.z.z.c.z.,.O.t p d.:.:.,.f.f.c.g.g.c.z.c.f.c.c.c.c.z.z.c.z.z.v.v.z.c.",
"d.d.s.d.g.g.g.f.d.d.g.k.z.z.z.k.k.g.f.d.>.:.b.k.d.d.t.:.:.d.g.g.f.k.k.k.g.f.k.g.k.k.f.f.k.f.f.f.d.d.s.s.d.f.k.k.d.d.d.f.k.z.z.c.g.g.g.g.g.,.' C 4 r s.u.,.;.,.g.g.g.f.g.f.g.f.g.g.g.g.d.d.g.l.f.d.d.d.d.",
"g.g.g.f.d.f.k.g.f.d.f.g.k.k.k.z.g.k.d.>.:.k.k.f.s.d.u.t.:.:.u.k.k.k.k.k.f.d.k.k.k.k.f.d.k.z.f.f.f.f.k.f.f.f.f.k.k.f.f.f.f.k.f.k.z.g.g.g.,.:.y @ X i o.s.,.>.;.,.f.g.g.g.g.f.d.g.z.z.g.g.d.l.z.l.d.g.g.l.",
"z.z.z.g.g.g.g.k.k.k.k.k.g.k.z.z.k.f.r.:.s.v.s.s.s.s.t.s.t.;.:.s.k.z.z.k.k.k.k.c.z.z.k.k.z.z.z.z.k.k.z.v.k.k.k.k.c.g.k.k.k.k.k.k.z.z.g.#.$.u.z.p 0 e , <.s.u.:.;.s.g.z.c.z.g.g.c.z.z.z.k.g.k.x.z.k.k.z.v.",
"z.z.z.z.z.c.z.z.z.z.z.z.k.c.z.z.k.>.:.s.b.s.s.u.t.t.s.u.u.,.:.:.g.k.c.z.z.z.z.k.z.z.k.z.z.z.z.z.z.v.z.z.k.k.k.z.c.k.z.z.z.z.z.z.z.j.#.  o.c.f.u.l y -.U #.u.,.:.;.s.g.c.z.z.c.g.z.z.z.z.z.z.z.z.z.z.z.z.",
"l.z.z.z.z.z.z.z.z.z.z.z.z.z.z.k.>.#.s.c.s.t.s.t.u.s.t.t.s.t.t.#.:.g.k.k.z.z.z.z.z.z.z.z.z.z.l.z.l.z.z.z.z.z.z.z.k.k.z.z.z.z.z.z.z.#.    p.d.u.u.u.u.p.` @ s.u.u.#.;.s.g.z.z.c.z.z.z.z.j.z.z.z.l.z.z.l.z.",
"x.z.l.z.z.z.l.l.z.k.z.k.z.k.g.>.#.d.k.s.s.t.t.u.t.t.s.s.u.u.t.t.;.:.d.k.k.z.z.z.g.z.l.l.l.z.z.l.l.z.z.z.l.z.l.l.k.k.l.l.z.l.k.z.`         N E =.u.u.u.-.S   t.t.,.:.:.,.k.k.z.g.z.z.j.j.z.z.z.z.l.l.l.l.",
"l.l.l.l.l.l.l.l.l.z.l.g.k.d.>.#.g.g.d.u.t.s.t.u.t.s.u.u.t.u.u.t.>.;.:.d.k.z.k.k.z.l.l.l.l.l.l.l.l.z.l.l.l.z.l.l.k.k.l.z.z.z.k.t.#.O.    #.u.R 3   r u.t.O.  u.u.u.,.:.:.,.g.g.z.z.j.j.z.l.l.l.l.l.l.l.z.",
"l.l.l.l.l.l.l.l.l.l.g.z.f.,.;.s.z.d.t.t.t.t.t.t.t.t.t.t.t.t.t.u.t.:.;.>.d.k.z.k.l.l.l.l.l.l.l.l.l.l.l.l.l.l.l.l.l.l.l.l.k.k.t.#.,.g.%.  O.u.<.@.R u r t.O.  u.t.u.<.,.;.;.s.g.g.g.j.j.h.l.l.l.l.l.l.l.l.",
"l.l.h.l.l.g.f.l.l.g.g.g.,.;.,.c.p.t.t.t.t.u.t.u.t.t.t.u.u.u.t.u.u.t.:.$.:.g.k.k.l.h.h.h.h.h.l.l.l.l.l.l.h.h.l.l.l.l.l.k.f.d.;.:.z.g.t.O.t.u.t.u.>.z   + o   + #.,.u.u.>.#.;.d.g.g.h.h.h.h.h.l.l.l.h.l.l.",
"h.h.h.h.l.f.l.f.f.g.f.:.#.,.v.t.t.t.y.t.t.t.u.r.t.u.t.t.t.t.t.t.t.t.r.>.#.#.f.k.h.h.g.h.g.h.f.h.l.h.h.l.l.l.f.f.f.l.f.f.t.#.#.v.p.r.y.,.t.r.u.t.x + 5 Y.H.  Y.u > v ,.,.>.#.#.u.g.g.h.h.f.g.l.f.l.l.h.l.",
"h.h.h.h.g.f.f.g.f.f.$.#.u.z.u.r.y.r.r.r.r.r.r.r.r.r.>.r.r.>.>.>.>.>.$.:.#.#.#.s.g.g.f.f.f.f.f.h.f.f.h.h.l.f.f.l.f.l.d.r.#.%.z.p.,.y.r.r.r.r.t.r.p   $ e 5   e D.T.Q c >.;.;.#.#.<.g.f.g.f.h.f.f.f.f.f.h.",
"u.y.i.i.i.p.p.p.p.%.O.p.d.r.>.>.>.>.>.>.r.>.:.>.%.:.$.>.>.%.:.:.:.$.:.$.:.#.#.#.y.p.p.p.i.i.u.u.u.i.u.i.p.p.p.p.p.p.r.#.r.f.t.r.>.>.,.>.>.r.>.z % & e e e e e V G & = r l ;.$.#.#.>.p.p.p.p.i.u.y.u.i.u.",
"y.u.p.u.u.p.a.u.:.#.<.g.,.<.>.;.:.:.:.$.>.>.$.$.%.>.:.$.:.$.$.>.:.$.$.:.>.#.#.#.$.r.d.u.t.u.t.,.y.r.u.i.u.u.p.p.p.>.#.r.d.d.>.>.$.:.>.:.%.:.p 0 e N U E E E 3 . W A.D.D.Q 6 r #.#.#.>.d.u.u.u.i.u.u.y.u.",
"p.p.a.p.p.a.p.r.#.:.c.<.,.<.>.>.:.$.$.:.>.>.:.;.:.r.>.>.r.>.:.r.:.:.>.r.r.:.#.o.o.$.p.s.s.d.g.s.p.p.a.p.p.p.p.p.u.O.#.f.f.>.>.r.>.$.:.$.:.l 0 V H H E S 5 q W ( !.%X*X*X!.( ! k #.#.#.t.p.p.p.f.f.p.p.p.",
"f.f.a.f.f.f.$.o.;.j.,.>.,.,.>.>.<.>.,.,.>.,.,.>.>.r.r.>.>.>.r.>.r.r.r.>.>.r.r.r.#.#.#.s.f.d.d.c.f.f.f.f.p.f.d.t.o.#.f.u.>.r.r.>.r.>.>.r.k + 3 V E G E N X W oX%X*X*X*X*X*X*XoX/ p #.#.X.u.d.d.f.f.f.f.f.",
"a.f.f.a.d.#.o.r.c.<.<.>.>.>.,.>.<.>.>.<.>.>.>.>.>.>.>.>.r.>.>.>.>.>.>.r.>.>.r.>.:.;.X.#.u.g.d.J.p.f.a.p.f.f.r.#.#.k.u.r.,.r.>.>.>.#.z z q q q q e e u 5 & }.*X*X*X*X*X*X*X*X&XoXF +.%.o.O.r.f.d.a.a.a.a.",
"f.p.p.p.#.o.t.f.<.<.<.<.>.>.>.>.>.>.>.>.>.>.>.>.>.>.>.%.>.>.>.>.>.%.r.>.>.>.>.>.r.>.#.o.;.,.,.,.p.a.p.a.a.r.o.#.f.i.>.>.%.>.>. .l z q q ) G.L.( G G G S H XX*X*X*X&XY.D.D.D.L.&X%XN O.$.o.#.>.d.a.a.a.a.",
"p.d.p.:.o.r.p.t.>.>.:.>.>.>.>.>.>.>.>.>.>.>.>.>.:.>.>.>.>.:.>.>.>.>.>.>.>.>.r.%.:.>.:.#.o.:.,.j.p.f.f.a.>.O.>.u.p.>.>.>.>.>.O.h q N G.G.H.[.|.#X*X%X*X%X X&X*X*X*X|.D 8 8 8 Z Y.&X  | >.;.o.#.>.f.p.f.p.",
"a.p.r.X.%.d.t.r.>.>.>.>.>.$.>.>.>.>.>.>.>.>.>.>.>.>.>.>.%.>.>.>.>.>.>.:.:.>.>.>.r.:.r.:.#.o.:.,.p.p.p.y.X.#.s.d.%.>.>.>.>.| h (  X X X X&X*X*X*X*X*X*X*X*X*X*X*X!.D 3./.).).~.D }.  { ,.>.#.o.#.r.p.p.i.",
"p.>.X.#.k.r.%.%.>.$.>.$.>.>.>.>.%.>.>.$.>.%.%.%.%.>.>.%.>.>.>.:.>.%.>.%.>.>.%.:.$.%.>.%.$.o.X.#.p.a.i.{ o.d.p.%.:.%.%.%.#.k H XX*X*X%X*X*X%XOXOXOX#X%X*X*X*X*X&Xe 1./.`.+X+X+X_./   { %.;.;.#.o.X.i.f.%.",
"X.X.$.g.$.;.$.#.#.#.$.$.#.#.$.$.#.#.#.#.#.#.#.#.#.#.#.$.$.$.$.$.#.#.#.#.%.$.$.>.$.#.#.$.#.$.$.X.X.X.o.X.j.<.#.#.%.#.#.;.6 ( *X*X*X*X*X*X*X XG.Z.Z.L. X%X*X*X*X*Xe 1.`.+X+X+X+X`./   ' $.#.#.#.$.X.X.o.o.",
"X.{ #.p.#.o.#.#.o.#.#.#.#.#.#.#.O.$.$.$.#.$.#.o.#.$.$.#.#.#.#.#.#.O.#.#.#.X.#.#.#.$.;.$.o.#.X.X.X.X.X.X.a.;.o.#.#.#.o.^ L.oX*X*X*X*X*X*X}.G.Z.A.A.Z.F. X*X*X*X*Xe 1.`.'.+X+X+X).    ' $.:.#.o.#.X.{ X.X.",
">.#.o.%.$.;.#.#.$.$.$.;.$.$.$.#.$.>.:.$.$.$.$.#.$.$.:.#.$.$.#.#.#.$.$.#.#.$.#.#.$.$.:.$.$.#.X.#.<.<.:.X.;.$.#.$.#.$.#.= D.*X*X*X*X*X*X*XF.Z.Z.Z.( E G C.*X*X*X*X&X&X@X'.+X+X).$ Z.Z.$ K $.$.#.X.{ y.:.#.",
"a.>.o.X.$.$.$.$.$.$.$.#.$.$.$.$.$.$.$.:.$.>.$.%.:.>.$.%.%.:.$.$.$.$.$.:.$.$.$.$.$.$.$.$.#.X.X.$.z.,.<.#.o.o.$.$.$.$.^ ].OX*X*X*X*X*X*X*X( W W W S.[.].C.*X*X*X*X&X&XL.B & a A.W ].].Y.5 J $.o.X.O.h.p.r.",
"i.<.<.X.X.#.$.<.$.$.$.$.:.>.$.$.$.$.$.%.%.$.%.%.%.$.$.$.%.%.%.%.$.%.%.%.%.%.$.%.$.$.$.$.X.X.,.F.<.f.<.f.o.X.o.;.$.$.- W.*X*X*X*X*X*X*X%X4 T.e D.$X=XT.B *X*X*X*X*X&X#XXX].) 5 R.D.D.A.3 X + X t z.i.i.i.",
"<.a.i.i.{ { o.;.$.$.$.$.$.$.$.$.$.$.$.$.$.$.$.$.%.#.$.$.$.$.$.$.$.$.$.$.$.$.$.$.$.$.$.X.X.,.c.<.i.<.,.<.i.o.X.X.$.$.+ Y.*X*X*X*X*X*X*X*XR.G F.$X=XE.S U.*X*X*X*X*X&X&X*X%X|.F.e W.A.q X I ^.3.&.i i.y.i.",
"i.i.<.<.<.X.X.o.$.$.$.$.$.$.$.$.$.$.$.$.#.$.$.$.#.$.$.$.$.#.@.@.$.#.$.#.$.$.#.$.>.$.o.$.,.,.h.<.i.<.<.h.i.<.o.{ o.$.o 5 D.OX*X*X*X*X*X*X&X!.H e e V P.#X*X*X*X&X*X*X*X*X&X%X|.S ( 3 D.q 1.).1.u } i.y.y.",
"i.<.i.u.<.;.X.X.o.;.$.$.$.#.O.$.$.$.O.$.#.#.O.$.#.#.O.$.#.#.#.#.#.#.#.$.O.#.#.$.o.o.o.,.,.j.<.i.<.i.<.<.<.u.<.#.[ o.o Q Q.#X*X*X*X*X*X*X&X&XY.D.D.F.G.G.G.G.F OX*X*X*X*X&X&XoXW W.D.{.2.Z a C ] y.y.y.y.",
"<.h.<.<.<.<.$.o.[ #.o.#.#.#.#.#.#.$.+.$.#.#.$.$.#.+.#.+.O.+.#.#.#.+.#.O.$.$.#.O.X.X.<.i.<.i.<.&.i r r J u.<.i.<.#.[ l a P.*X*X*X*X*X*X*X*X*X*X*X*XOX{.Q.!.Q.D.OX&X&X*X*X*X*X#X!.&X XI.D.q 6 } <.y.<.y.y.",
"<.<.<.<.,.<.<.#.X.{ o.#.#.+.O.#.#.o.#.$.#.$.o.$.#.#.#.#.#.O.#.#.#.#.$.#.O.#.O.{ { -.i.<.<.*.&.7.4.M b g i p k i.<.X.{ = Z.#X*X*X*X*X*X*X*X*X*X*X#X{.U.W.oX&X&X&X&X&X*X*X*X*X*X%XoXI.A.A.q J <.<.y.y.y.y.",
"<.<.<.<.<.<.<.<.$.[ [ o.o.o.o.o.| o.o.o.| o.o.$.o.o.#.o.o.#.#.O.+.O.O.O.o.#.{ [ <.i.<.<.<.&.&.7.4.M 9.9.M m f p <.<.{ p A P.*X*X*X*X*X*X*X*X*X*X#X{.U.I.F.( *X*X&X*X*X*X*X*X*X&XoXQ.D.A.q J -.<.-.y.<.<.",
"%.<.$.$.<.<.<.$.$.#.{ [ | o.| #.X.o.o.X.| o.o.o.o.| o.X.{ | o.O. .X.o.X.X.{ [ y.<.<.<.$.<.-.$.~ i , n 6.q.M.m.1 z #.$.{ p U U.#X*X*X*X*X*X*X*X*X*X*X&XoXF.G Q.#X&X&X*X*X*X*X*X*X*X%XI.S.q k $.-.+.@.$.$.",
"<.%.$.<.-.#.$.-.<.<.#.[ [ { X.o.o.o.o.o.o.o.o.o.{ { o.o.X.X.o.o.o.o.o.o.[ [ <.<.$.-.<.$.+.$.*.J z z p 6 d 6.B.q.  | <.%.o.j C D.|.&X*X*X*X*X*X*X*X*X*X*X*X*XG.#X*X*X*X*X*X*X*X*X*XOXW.D.q z +.$.$.<.$.$.",
"<.<.<.<.<.-.-.<.<.<.<.#.{ [ X.#.o.$.#.+.o.o.o.o.o.o.#.o.#.O.X.o.o.o.o.{ [ $.i.<.<.$.<.<.=...e.s 1 < g P t 1 B.w.  | <.<.$.| j u ) Y.#X#X%X*X*X*X%X%X*X*X*X*X*X*X*X*X*X*X*X*X*X*X#XW.A.A.q z $.$.$.<.<.<.",
"<.<.<.<.<.<.<.<.<.<.<.<.#.{ { X.o.o.o.o.o.+.o.$.+.o.o.O.O.O.O.o.o.o.[ [ O.i.<.<.<.<.-.-.~ U 0.w.w.w.4.1 1 b B.m.  J P P | %.{ j @ & F.D.Y.XX#X#X XXX*X*X*X*X#X%X*X*X*X*X*X*X*X%X|.L.D.! q P <.<.<.<.<.<.",
"<.-.-.-.<.-.-.-.-.-.-.-.%.O.' { o.O.O.O.+.o.O.o.o.o.+.o.O.O.O. .#.[ ' +.i.y.-.-.-.-.-.<.<.<.Q & + 6.M.M.M.N.V.V.  O O O x | | v j   & & & ) U.U.Q.XX*X*X*X%X].%X*X*X*X*X*X*X*X*X&X%XD.3 z <.-.<.-.<.-.<.",
"-.-.-.-.-.-.-.-.-.-.-.r.-.@.$.' ' o.O.O.{ O.O.O. .O. .O. .O.O. .' ' $.y.r.-.-.-.-.r.-.-.-.-.}  .} 9 + + . 1 V.V.  5.8.8.s O O O . & Y.Y.U.q o . ( *X*X*X%XU.D.OX*X*X*X*X*X*X*X*X%X].) 3 k $.-.-.-.-.-.-.",
"-.%.-.-.$.-.-.-.-.r.@.-.-.r.@.+.' [ { o.O. .O.{ O.O.X.O.O.X. .[ ' $.y.-.-.-.-.@.-.@.-.-.r.@.      z -.%.z 1 V.V.        m q.q.w.5.          c 6 ( *X*X*X|.  [.%X*X*X*X*X*X&X*X%X{.Z.$     z -.%.-.-.-.-.",
"%.-.$.-.$.-.-.-.y.%.-.%.-.-.@.-.o.' [ { X. . . . .X.X.X. .{ [ '  .y.-.%.r.-.%.-.@.y.@.}   H V.V.m.s     s m.B.q.  } -.-.9       : w.w.w.q.:   D.*X*X*X#XU.    U.}.OX*X*X&X&X&XOXA.  ).+XD C r.%.-.-.%.%.",
"-.-.@.-.-.-.+.+.@.@.%.r.@.@.r.@.-.} ` ' {  . .{ |  . . .{ ' ' [ y.y.@.@.%.@.-.%.%.@.@.-.r.r.    w.V.V.V.N.w.8.  %.%.%.-.@.@.%.@.K         5.: D.*X*X*XY.            ) }.{.W.A.(     J.^.a z @.@.+.%.-.@.",
"@.%.+.+.+.-.+.o.+.+.#.e.+.O.@.%.+.r.O.Y ` {  .{ { }  . .' ` | <.y.+.@.@.+.%.$.@.@.%.#.@.@.%.T } > # # # # O ; } +.O.#.@.%.@.O.@.@.} } ] v * J.(..X&XY.d 8.8.8.8.;   X & & & $ > } } 4 & X l $.$.%.%.$.%.",
"O.| { | +.O.o.|  . .O.O. .| +.O. .+.O.| Y ` ' ' ' ' ' ` _ +.<.O... .+. . .O.#.e.@.@.+.+.+.+.+.r. .' Y Y T T ]  .|  .|  .+.O. .O.O.+.+.O.O.= K.'._.3.q h O O O O 5.8.8.8.b = ' T @.%.T ' ] | @.@.@.@. .} ",
"O.+.+.o.+.$.+.+. . .O.#.+.O.O.@. .O.#.+.O.L ` ' { { ` L +.-.-.+.+.O.+.+.O.+.+.+.O.O. . .O. . . . .O.#.+.O.O.+.+.+. . . .+.+.O.O.+.O.O.O.O.Y u w 8 7 v Y l z T J 2 : : : > A +.+.@.O.O.O.| O. .}  . .O.+.",
"+.@.$.+.+.=.$.+.O.+.+.+.+.+.#.$.$.e.+.+.+.{ ` ` ' ` ` | -.%.$.-.#.O.+.+.+.+.r.O.@.#.+.O.+.O. .O.O.+.@.@.#.+.+.+.@.#.+.O.+.#.@.+.@.+.+.O.@.@.L x l v ` Y } @.-.+.Y K J J T ..@.@.@.+.@.O.O.+.+.O.O.O.+.+.",
"+.@.@.@.@.@.@.+...@.+.+.+.@.@.@.=.@.@.@.+.+.' _ _ _ [ <.-.+.+.=.@.@.@.+.@.@.+.+.@.@.@.@.@.@.@.@.+.e.-.+.@.@.@.@.@.+.@.@.@.@.@.@.@.@.@.@.@.@.@.| ' L _ ' =.<.+.-.+.+.@.@.@.@.@.@.@.=.@.@.@.@.@.@.@.+.+.+.",
"@.+.@.+.+.@.@.@.+.+.+.+.=.@.@.@.+.+.@.+.+.+.-.' L ' <.=.+.-.+.+.+.+.@.@.+.@.=.@.+.+.@.+.@.@.+...+.+.%.+.@.@.@.@.@.+.=.+.+.+.+.@.@.=.@.@.+.+.+.@.o.L L -.-.+.+.$.+.+.+.+.+.@.@.@.@.+.+.+.+.+.@.@.+.+.@.=."
};
