/* XPM */
static char *result[] = {
/* columns rows colors chars-per-pixel */
"50 100 180 2 ",
"   c #000101",
".  c #06080A",
"X  c #0C0C0C",
"o  c #0A0E13",
"O  c #001717",
"+  c #0E1217",
"@  c #001F1F",
"#  c #121211",
"$  c #1D1D1C",
"%  c #20201E",
"&  c #161E26",
"*  c #171E28",
"=  c #201920",
"-  c #002E2E",
";  c #1B232D",
":  c #1F2937",
">  c #1F2B39",
",  c #003E3E",
"<  c #242422",
"1  c #272A2C",
"2  c #30302C",
"3  c #222C37",
"4  c #222C3A",
"5  c #373738",
"6  c #3F313F",
"7  c #3D3D3A",
"8  c #40403F",
"9  c #0A3C41",
"0  c #283442",
"q  c #2C3B4E",
"w  c #323B45",
"e  c #2D3D51",
"r  c #323F52",
"t  c #49374A",
"y  c #004545",
"u  c #05575A",
"i  c #005D5D",
"p  c #364353",
"a  c #34465C",
"s  c #3B4B5D",
"d  c #394D65",
"f  c #3F526A",
"g  c #3E5775",
"h  c #0A6A6E",
"j  c #056F71",
"k  c #444444",
"l  c #44494A",
"z  c #4C4C4A",
"x  c #424757",
"c  c #53445C",
"v  c #5D485D",
"b  c #545453",
"n  c #5C5C57",
"m  c #565B5E",
"M  c #62625D",
"N  c #44556A",
"B  c #405570",
"V  c #455A74",
"C  c #435D7D",
"Z  c #4A5F79",
"A  c #614A65",
"S  c #684C68",
"D  c #54666D",
"F  c #5C6269",
"G  c #4A637E",
"H  c #576679",
"J  c #5C6A7B",
"K  c #4A7575",
"L  c #616161",
"P  c #6C6C66",
"I  c #6D6E6C",
"U  c #72726F",
"Y  c #7C607C",
"T  c #7C6C79",
"R  c #697077",
"E  c #6A7179",
"W  c #717170",
"Q  c #7D7D75",
"!  c #7C7D79",
"~  c #83837D",
"^  c #455F80",
"/  c #456283",
"(  c #4A6585",
")  c #4B6688",
"_  c #4A668B",
"`  c #4D6A8D",
"'  c #566C87",
"]  c #526D8D",
"[  c #55738B",
"{  c #5C738C",
"}  c #4E6C92",
"|  c #516E92",
" . c #547195",
".. c #5B7695",
"X. c #577892",
"o. c #5D7896",
"O. c #56749A",
"+. c #59769C",
"@. c #5C799C",
"#. c #657384",
"$. c #6A7581",
"%. c #637992",
"&. c #607D9E",
"*. c #7C7793",
"=. c #5677A0",
"-. c #5779A3",
";. c #5C7CA2",
":. c #5E7FA8",
">. c #617EA2",
",. c #825F82",
"<. c #9C729C",
"1. c #A87EA8",
"2. c #008A8A",
"3. c #009292",
"4. c #3C8181",
"5. c #03A6A6",
"6. c #00B7B7",
"7. c #00BABA",
"8. c #548282",
"9. c #5F80A9",
"0. c #6481A6",
"q. c #6885A7",
"w. c #6383AB",
"e. c #6985AB",
"r. c #6788AD",
"t. c #6988AF",
"y. c #6586B0",
"u. c #6788B1",
"i. c #6C8CB3",
"p. c #6E8FB8",
"a. c #718FB6",
"s. c #6F90B9",
"d. c #7090B7",
"f. c #7293BB",
"g. c #7697C1",
"h. c #7798C3",
"j. c #7A9BC5",
"k. c #00C6C6",
"l. c #00C9C9",
"z. c #00D1D1",
"x. c #00D9D9",
"c. c #00E8E8",
"v. c #00F7F7",
"b. c #00F8F8",
"n. c #878780",
"m. c #8B8B84",
"M. c #8E8E89",
"N. c #909088",
"B. c #9A9A91",
"V. c #A2A299",
"C. c #AAAA9E",
"Z. c #B389B3",
"A. c #B889B8",
"S. c #AAAAA1",
"D. c #B4B4AB",
"F. c #BABAAE",
"G. c #BBBBB2",
"H. c #C2C2B9",
"J. c #C6C6BB",
"K. c #D19AD1",
"L. c #DBA7DA",
"P. c #E6B2E6",
"I. c #EBBAEA",
"U. c #F3BBF3",
"Y. c #CCCCC2",
"T. c #D3D3C7",
"R. c #D3D3CA",
"E. c #D9D9CB",
"W. c #DEDED3",
"Q. c #E6CEDD",
"!. c #E3E3D5",
"~. c #E5E5D9",
"^. c #EAEADC",
"/. c #F0D4E8",
"(. c #F8C0F8",
"). c #EEE0E2",
"_. c #EEEEE0",
"`. c #F3ECE5",
"'. c #F4F4E5",
"]. c #F8F8E8",
/* pixels */
"f.g.f.g.g.g.g.g.g.h.h.h.g.g.g.g.h.h.g.g.h.g.g.y.y.u.g.u.g.s.p.u.g.j.g.g.g.g.g.h.g.h.h.g.g.g.g.s.g.s.",
"h.h.g.g.g.h.g.h.g.h.g.g.g.g.g.g.g.g.h.g.g.g.s.9.-.y.g.g.g.h.g.h.h.g.g.g.g.g.h.g.h.g.g.g.g.g.h.g.h.h.",
"g.g.g.g.g.g.g.g.h.g.g.g.g.g.g.g.g.g.h.g.g.g.-.-.-.-.y.g.h.g.h.h.g.g.g.g.g.g.g.h.h.g.g.h.g.h.h.g.h.h.",
"g.f.g.g.s.g.g.g.g.g.g.g.g.g.g.g.g.g.g.g.s.-.-.g.u.-.-.9.p.p.g.s.g.g.g.g.s.g.g.g.g.g.g.h.g.f.g.g.g.h.",
"i.i.i.p.p.s.s.p.i.p.s.g.s.g.f.s.s.s.s.u.r.-.s.s.u.y.:.=.9.u.s.s.s.s.s.s.p.p.p.p.s.s.p.s.s.d.i.d.p.i.",
"u.u.i.u.i.i.p.p.u.u.u.s.s.s.s.s.s.s.u.9.-.u.j.y.y.y.y.-.=.y.p.s.s.s.s.p.u.p.s.p.s.u.y.u.s.s.u.t.u.u.",
"s.f.s.p.p.u.s.s.p.p.p.u.p.i.s.g.s.i.9.-.r.j.y.y.y.y.9.9.=.=.y.s.s.g.s.s.p.s.g.s.g.s.s.s.f.f.d.d.s.s.",
"g.g.f.s.s.g.g.s.f.f.g.f.s.g.f.f.s.=.=.u.j.y.y.9.9.y.y.y.9.-.O.9.f.s.g.s.s.g.s.g.f.f.f.f.f.f.f.f.g.g.",
"f.f.f.f.f.f.d.f.f.f.f.f.f.f.f.s.-.O.p.s.y.9.9.y.y.9.y.9.9.9.+.O.9.g.s.s.f.f.f.f.f.f.f.f.f.d.f.f.f.f.",
"d.f.d.f.f.d.f.f.f.f.f.s.f.f.i.:.=.i.s.y.9.9.9.r.9.y.9.y.9.9.9.9.=.9.s.f.f.f.f.f.f.f.f.d.f.f.f.f.f.f.",
"d.f.d.f.d.d.d.d.f.d.d.s.s.u.9.=.u.s.r.r.9.y.9.y.9.r.y.9.y.9.9.9.-.O.y.s.s.f.f.s.d.d.d.f.s.d.d.s.d.f.",
"d.d.d.d.d.d.d.d.d.d.d.s.i.:.=.9.f.r.9.9.9.9.9.9.9.9.9.9.9.9.r.9.9.=.=.w.d.s.s.s.d.d.d.d.d.d.d.d.d.d.",
"d.d.d.d.d.d.i.d.s.s.s.s.-.=.9.j.q.9.9.9.q.9.9.9.9.r.9.9.9.9.9.r.9.9.O.O.y.s.s.d.d.d.d.d.d.d.d.d.d.d.",
"a.a.a.a.d.d.d.d.d.i.i.+.O.y.f.9.9.9.9.9.9.9.9.9.9.9.9.9.9.9.9.9.9.9.9.+.=.9.d.p.d.d.d.d.d.d.d.s.d.i.",
"a.i.a.a.d.d.i.i.d.i.-.O.t.i.w.9.9.9.0.9.9.9.9.9.9.9.9.9.9.9.9.9.;.;.;.=.O.O.9.i.d.i.d.i.i.d.i.i.i.i.",
"r.r.r.r.r.t.t.r.r.9. .r.t.9.;.9.9.+.X.9.9.9.9.+.9.+.+.9.+.+.+.-.=.=.+.+.=.} O.-.r.t.t.t.r.q.w.q.t.r.",
"0.9.r.r.9.r.r.w.-.O.;.f.>.-.;.+.:.+.+.;.;.+.=.+.+.-.+.+.-.+.X.+.-.+.+.+.+.=. .O.;.r.r.w.9.w.w.0.0.w.",
"r.t.t.q.r.t.t.;.O.;.g.>.;.:.;.-.-.=.+.O.+.:.+.-.@.9.9.+.9.-.9.+.+.+.9.9.=.=.O.|  .w.r.w.r.i.i.r.r.r.",
"i.i.t.i.i.i.+.} ;.f.>.>.>.;.;.;.;.;.9.9.9.9.9.9.9.;.9.;.9.9.9.9.9.9.9.@.9.:.9.;.} } 0.i.i.t.i.i.i.i.",
"t.i.i.i.i.+. .9.i.:.:.:.:.:.;.;.;.9.@.9.@.-.9.@.@.9.;.;.9.@.+.9.+.9.9.;.;.;.;.;.-.O. .9.i.t.t.t.t.t.",
"u.t.u.r.+.} 9.u.>.>.;.;.>.-.>.-.9.+.9.+.9.9.9.+.;.;.;.;.;.;.;.;.9.9.@.@.;.;.;.;.:.+. .O.:.u.u.i.t.t.",
"t.t.r.+.} 9.r.9.>.=.;.-.-.>.-.>.+.9.@.9.+.+.+.9.;.;.;.;.;.;.;.;.H X.+.9.;.J o.;.-.;.H } O.:.i.r.r.i.",
"u.r.9.} +.t.9.9.=.>.=.-.-.>.>.-.9.+.9.+.+.9.9.X.;.;.;.;.=.;.;.;.F [ 9.+.;.M ..;.;.;.F  . .} >.y.r.q.",
"r.;.} O.f.9.X.9.>.=.>.>.-.-.+.>.+.9.-.;.+.@.-.+.+.;.-.@.;.;.;.{ K [ X.9.X.K { o.+.{ K X. .} } w.t.;.",
"} } +.d.+.O.+.O.O.O.=.O.O.O.+.+.X.=.O.O.O.O.O.=.O.O.O.O.-.O.+.L 5.4.J ..M 6.8.#.{ L 6.D ' @.} } } } ",
"} ` O.r.O. .O.O.O.O.O.O.O.O.O.O. .+.+.O.+.+. . .O.O.O.O.O.O.O.  x.i 4 (   v., q g   b.@ a O.} } } } ",
";.O.} -.O.O.+.+.+.O.O.O.O.+.+.O.+.@.+.+.+.@.+.+.+.;.O.O.+.+.O.  x.i 4 (   v., q V   b.@ d } } >.;.O.",
"i.;.| } +.+.+.=.=.+.+.+.+.+.+.+.+.-.+.=.-.+.+.@.+.+.=.=.@.+.+.  x.i 4 '   v., q V   b.@ a _ @.i.i.>.",
"e.e.>.| } O.=.+.+.+.+.+.;.+.+.+.@.=.+.+.+.-.@.+.+.;.@.@.O.@.@.  x.i 4 ]   v., q V   b.@ a ..d.e.q.e.",
">.e.e.>.} _ O.=.+.+.+.+.+.+.+.+.+.+.@.@.O.@.+.+.+.O.+.+.@.O.@.  x.i 4 (   b., q V   b.@ N a.e.e.w.e.",
"e.w.>.e.>.} _ | +.-.+.+.+.+.+.+.O.@.O.O.O.O.O.+.+.O.O.+.O.@...  x.i 4 (   v., e B   v.@ B >.q.0.0.0.",
">.e.e.0.>.;.| } | +.+.+.+.O.O.O.O.O.O...O.@...O...O.O.+.O.O.O.  x.k.j o   v., . 9 5.v.@ N e.0.0.0.0.",
":.>.>.>.>.:.+.| _ |  .O.O.+.+.O. .+.O.+.O.O.O.O.O.O.O.O.O.O.O.  6.z.z.7.7.b.l.7.k.c.k.O f >.>.w.>.>.",
">.>.>.>.>.>.>.+.} _  .O.O.O. . . .+.| +... .O.O.O.O.O.| ..O. .q u 5.x.x.b.b.b.c.x.x.i p ' >.>.>.q.>.",
">.>.>.>.>.>.>.>.=._ _ | | | | | | | | | ] | | O.| ..| | |  . .O.; h 2.3.7.7.7.5.2.2.* ..>.>.>.>.>.>.",
">.>.+.+.>.>.+.+.>. ._ _ ` | |  .` | | ` ` } | | ` ] | ` | } | | } :                 ;.+.O.@.+.+.+...",
">.>.>.>.&.+.+.&.>.>.=._ _ ` |  .| | |  .| | 3       / | | } } | |  .| C   6.- e @.>.>.@.@.@.+.@.>.;.",
">.>.&.&.>.>.>.>.>.>.>.+.` _ } | | +.B o o o ! V.n.D.1 o o : | | | | } g   6.- r @.>.>.>.@.@.o.0.>.>.",
">.>.>.>.>.>.>.>.>.>.>.&. .` _ } a 3 x ~ B.B.Y.!.R.^.C.B.M.L > 4 ` ] ( C   6.- r >.>.>.>.>.>.0.@.>.>.",
"@.@.>.>.&.&.&.&.&.&.&.>.;.X._ a m M U !.].].].].].].].]._.J.n n s g ` ..  6.- r @.&.&.&.&.>.&.&.>.&.",
">.%.&.@.&.&.&.@.o.&.&.%.&.@.( 2 C.].].].].].].].].].].].].].].].7 d &.'   6.- r &.&.&.&.&.&.&.&.&.&.",
">.>.&.&.&.&.&.%.W U U U $.'   E.].].].].].].].].].].].].].].].].].n 4 '   6.- 5 E &.&.&.@.&.&.&.&.&.",
"@.@.@.>.&.&.&.&.&.&.@.$.l < ].].].D.m.Y.].].].].].].].].!.G.W ].].].B.    6.- q &.@.o.@.@.&.&.@...&.",
"o.@.@.%.%.+.o...+.+.o.s 8 S.].].G.D.W._.].].].].].].].].'.~.R.N.~.].T.M.  6.- r o.&.@.&.&.@.o.&.&...",
"o...O...+.%.{ #.E #.#.w b ~.].].~ B.].].].].].].].].].].].].].7 W.]._.J.  6.- w $.#...+.+.o.@.@.+.o.",
" .] ] ]  . .' E R R m k ~ ].].].n P W.].].`.T.G.F.F.W.].].^.E.  E.].].E.  6.- 5 E E  .X...X.X.+.| ] ",
" ...O.O.+...+.] G ( & P !.].].].P 8 ! E.E.G.z $ $ $ B.Y.E.H.M % E.].].E.  6.- 0 ` [ ]  . .` ` ] O.o.",
"..o.......@.%.V       Q ].].].].].Q         ~ !.'.T.$         ].].].].E.  6.-   ; X.........X.......",
"X.o...o.....N z E.E.2 Q ].].].].].~.E.E.E.E.~.].].'.E.E.E.E.E.].].].].E.  6.- P B.o o.o.o.o...o.o.o.",
"o.o.......s m C.].n n.G.].].].].].].].].].].].].].].].].].].].].].].].E.  y *.T Q B.3 ] ............",
"f.g.f.f.( F B.].].  C.^.].E.B.B.H.!.].].].].].].].].].].].].].].].].].E.    A.Y 7 ].n H >.g.g.f.g.f.",
"h.h.g.g.+ B.].].].  F.'.R.! 6 t L C.!.].].].].].].].].].].].].].].].].E.    Z.Y 7 ].].% Z g.h.g.g.g.",
"g.g.g.g.+ B.].].].  F.~.~ = (.(.v k C.].].].].].].].].].].].].].].].].E.    <.S 7 ].].% Z g.g.g.g.g.",
"g.g.g.g.+ B.].F.  T._.H.D._.K.U.(.Y 8 ].].].].].].].].].].].].].].].].E.  6.- Q F.  ].$ Z g.g.g.g.g.",
"i.i.i.p.+ B.].G.  _.'.H.F.].).L.I.Y 7 ].].].].].].].].].].].].].].].].E.  6.- Q F.  ].$ V p.p.p.i.i.",
"u.i.>.a . B.].G.  ].].R.H.^.].Q./.T 7 ].].].].].].].].].].].].].].].].E.  6.- Q F.  ].$ 4 Z y.u.i.i.",
"f.i.V < . Q J.F.  ].].^.E.R.`.!.Y.Q P ].].].].].].].].].].].].].].].].E.  6.- n B.7 F.< $ p ] p.p.f.",
"i.' < m.$ . z C.  ].].].^.R.R.C.z m.].].].].].].].].].].].].].].].].'.E.  6.-   2 E.  b Q M < 0.g.g.",
"s < n.M M <       ].].].].].].].].].].].].].].].].].].].].].].].].].].E.  6.-         b M U Q   f.f.",
"s   # # U P 5     ].].].].].].].].].].].].].].].].].].].].].].].].].].E.  6.-       b ~ 5 # #   d.f.",
"..V V V I L w     ].].].].].].].].].].].].].].].].].].].].].].].].].].E.  6.-       L I F V V V d.d.",
"a.a.d.d.l F m :   ^.'.].].].^.'.].].`.^.].].].'.^.].].].'._.].].]._._.E.  7.-   # 0 $.l { d.d.d.a.f.",
"d.d.d.d.4 ' d.]   G.!.'.].~.G.^.'.`.~.G._.].'.W.J._.]._.R.Y._.]._.R.T.Y.  6.-   ; d.d.4 ' d.f.d.d.d.",
"a.d.a.a.f.i.a.'   N.H.~.~.Y.M.Y._.~.G.M.R._.W.D.B.Y.'.W.D.B.R.].R.S.S.D.  6.-   ; d.i.d.f.i.i.a.d.i.",
"i.i.i.i.a.i.i.i.i.  P D.D.M.N.N.F.D.M.N.N.H.S.N.N.N.Y.V.N.N.N.T.B.M.N.Q   6.- a i.i.i.a.i.i.i.i.i.d.",
"r.t.r.t.t.i.i.i.t.  P B.B.M.N.N.B.B.N.N.N.B.N.N.N.N.V.N.N.N.N.B.N.N.N.Q   6.- p t.i.i.t.r.r.r.w.r.r.",
"w.w.w.w.w.t.r.w.;.q k P M.M.N.N.N.N.N.N.N.N.N.N.N.N.N.N.N.N.N.N.N.N.N.Q   6.- q ;.r.q.w.9.q.0.9.9.w.",
"r.t.t.r.q.i.t.-.| ;.N r n M N.N.N.N.N.N.N.N.N.N.N.N.N.N.N.N.N.N.N.N.N.Q   6.- q } w.r.r.t.i.i.r.w.r.",
"i.i.i.i.i.i.O.} ;.g.>.d . # M.M.~ Q ~ n.n.m.m.N.M.M.m.n.m.~ Q ~ M.N.n.P   6.- q } O.9.i.i.u.i.i.i.i.",
"t.t.t.i.i.O. .w.p.:.;.;.d # M.M.5   $ M L L ! N.N.m.P M F k     ! M.n     6.- e -.} } :.i.i.i.t.t.t.",
"t.t.r.u.+.} 9.u.>.>.>.d t A.U.P.P.K.,.X X X X # # # . X X t A.L.I.I.L.1.b O l J :.+.| =.;.t.t.t.t.t.",
"t.i.r.-.| :.r.w.>.-.-.r t K.P.S v t c d d d d d d d d d d r t v A 1.L.A.< d G o.:.-.+. .O.9.t.t.i.t.",
"t.q.:.} O.:.:.;.;.>.-.^ x S S r q r d ;.-.;.;.;.;.;.;.-.;.` r e r c S A q -.-.>.;.;.;.O.O.} w.t.r.q.",
"r.;.} O.g.>.>.>.+.+.;.+.B = * | ;.=.;.;.@.;.+.-.;.@.;.-.;.;.-.@.=.q * 0 >.=.-.>.@.;.-.-.O.} } >.t.@.",
"} } O.s.=.O.+.+.O.O.+.=.O.+.-.+.O.O.O. . .O.O.O.O.O.O. .-.O.@.+.+.O.+.=. .+.-.+.O.O.O. .O.=.} } | } ",
"} } O.r.O.| O.O.O.O.O.O.O.O.O.O.| =.=.+.O.+.| O.+.@.O.O.+.O.O. .O. . . . .O.O. . .+.-.O.O. .} } } } ",
"-.O.} =.+.O.+.+.O.O.+.+.O.O.+.+.=.=.&.O.+.-.+.+.=.+.+.O.+.+.O.O.O.+.O.+.+.O.O.+.=.+.+.+.O.| } >.9.O.",
"i.;.O.} +.+.=.+.+.+.+.+.+.+.+.+.&.+.&.=.@.-.+.@.@.@.=.+.+.+.+.=.+.+.=.=.+.+.+.+.=.>.=.+.| } +.i.t.;.",
"e.e.>.O.} O.=.+.+.+.-.+.+.;.+.+.+.&.+.=.+.+.@.+.+.@.@.@.+.@.;.+.=.&.+.+.=.&.=.&.+.+.+.| } +.a.r.q.t.",
">.t.>.>.} _ O.+.+.+.;.+.+.+.+.+.+.+.+.+.+.+.+.+.+.+.+.+.+.+.+.+.+...+.+.+.+.+.+.+.+.} } +.a.t.q.q.w.",
">.>.>.>.>.} } | +.+.+.+.O...O.+. .+.+.+.+.+.+.+.+.+.+.+.+.+.O.O.+.+.O.O...O.@.+.O.| _ >.Z.9.9.w.0.0.",
"a.>.a.a.>.+.| } | +.O.+.O.+.O.+.+. .+.+.+.+. .+.+. . .+.+.+.O.O.O.O.O.O.O.O.+. .} _ ;.y.:.a.9.w.0.0.",
">.>.>.>.>.:.>.| _ | O.O.O.O.+. .| +. .+.+. .+.O. . .+.+.O.O.O.O.+.+.+.+.O.O. .| ^ &.e.>.>.>.>.>.0.0.",
">.>.>.:.>.>.>.O.} _ | O.O.X.O. .+.+. . . . . . . .+. . ...O...O. .+. . .O.O.{ _ O.i.e.>.>.>.>.>.0.0.",
">.>.>.>.>.>.>.>.=.^ _  .O.| | | ` |  .| | | O. .| | | } ] |  . . . . .|  .| ` ] a.>.>.>.>.>.>.>.>.&.",
">.@...+. .+.>.>.+.+._ _ _ } | | } | | } } | | | | | | } ` } |  .| | | } ] _  .t.>.>.@.+. .>.O.O.O.O.",
">.+.@.>.+.+.O.>.>.>.>._ _ ` |  .|  . . .| } | | } }  . .| } | | | | | ` _ O.0.@.+.+.>.+.+.+.+.>.&.&.",
">.>.>.>.>.>.>.>.>.>.>.O.` _ |  . . . . .| |  .| | |  . . .| | | | | } / O.>.0.@.&.>.>.>.>.@.@.>.>.>.",
">.>.>.>.>.>.>.>.0.&.0.&. .` ( | X.|  . . .X. . . . . . . . . . . .` ( | 0.0.o.0.&.0.0.>.&.0.&.0.>.>.",
">.>.>.>.&.&.&.&.@.0.&.&.&.X._ _ }  .|  .| ]  . .|  . .{  . . . .` ( ` q.0.0.0.9.&.&.@.&.@.&.&.&.&.&.",
"@.@.&.>.&.&.&.&.&.&.&.&.&.@.O./ / |  .} | | |  .| {  . .|  .| _ ( ` q.0.@.o.0.o.&.&.&.&.&.&.&.&.&.&.",
"@.>.%.>.&.&.&.&.@.&.&.&.@.>.&.../ ( [ ]  .|  .} | | | |  . .` ^ ( q.0.@.@.0.o.0.&.@.&.&.@.&.@.&.&.&.",
"&.@.&.o.o.>.&.&.@.&.@.@.@.@.;.@.X./ ( ` ] ] | }  .]  .] ] ( ( | &.0.o.o.0.@.@.&.@.&.o.@.&.@.&.&.&.@.",
"o.@.o.o.&.o.%. ...o.@.&.@.o.&.o.+.| / ( ` ] [ [ ] ` ] ` ) / ] &.0.@.o.0.X.&.o.@.&.@.o.&.@.@.@.@.@...",
"@.o. .O.&... . .X. .o.O...X.X.+.@.O.` / / ` ` ` ) ` ] _ / ` &.&.o.+.o.+.o.o.o.+.o.O.o.@.o.o.@.o.o.O.",
" .] ] '  . .| |  .]  .X.] ]  .X.X.X.X.] / G ( ( ( ) ( C / 0...[  . .X.] [  ...+...X.X.X.O.X.o.o. .] ",
"X.+...X...o.X.O... . ...X....... .X...o. .C ^ ` ` ( C / 0.&.o... .X.O.O...O...X. . .] [  .` ] ] ..o.",
"..O.O...o.o...o...........+.O.X.O.....O.X.] ^ ^ / / ) &.&.........o...o.o.o.o.o.O...........O.X.o...",
"....o.o.......%...o.........o.o.%.o.........| ^ C ' X.>.o...o.o...o.o.o.o.......o.o.o.o.....o.......",
"..............................o.{ ............^ C | &...O.o...............{ ........................"
};
