/* XPM */
static char *result[] = {
/* columns rows colors chars-per-pixel */
"100 50 194 2 ",
"   c #000000",
".  c #050A0B",
"X  c #0D0D0D",
"o  c #050709",
"O  c #0B0E12",
"+  c #001717",
"@  c #0C1115",
"#  c #001E1E",
"$  c #0F1218",
"%  c #1D1D1C",
"&  c #15161B",
"*  c #141C24",
"=  c #191F26",
"-  c #201920",
";  c #002E2E",
":  c #002323",
">  c #1E2936",
",  c #1D2934",
"<  c #003E3E",
"1  c #0D3338",
"2  c #252524",
"3  c #25282A",
"4  c #232E3B",
"5  c #292E39",
"6  c #362936",
"7  c #333433",
"8  c #3E3E3B",
"9  c #3D333D",
"0  c #2F3336",
"q  c #42423F",
"w  c #073E42",
"e  c #2B3643",
"r  c #2B3A4C",
"t  c #273749",
"y  c #343B48",
"u  c #2A3C51",
"i  c #4E394E",
"p  c #513F4F",
"a  c #004545",
"s  c #015C5C",
"d  c #055255",
"f  c #184E4E",
"g  c #2F4157",
"h  c #34455B",
"j  c #374658",
"k  c #3D4246",
"l  c #155A63",
"z  c #354961",
"x  c #3A4D64",
"c  c #3E536E",
"v  c #3D5672",
"b  c #2D4C61",
"n  c #007C7C",
"m  c #007070",
"M  c #006868",
"N  c #444444",
"B  c #484844",
"V  c #4D4D4B",
"C  c #545454",
"Z  c #5C5C57",
"A  c #5C5C5B",
"S  c #4E5153",
"D  c #62625D",
"F  c #41556D",
"G  c #515C69",
"H  c #435974",
"J  c #435E7E",
"K  c #445A74",
"L  c #695966",
"P  c #604A64",
"I  c #5E6368",
"U  c #4A627D",
"Y  c #46607E",
"T  c #596779",
"R  c #4B737A",
"E  c #606060",
"W  c #6A6A65",
"Q  c #6A6C6A",
"!  c #626C79",
"~  c #737372",
"^  c #7C7C75",
"/  c #7D7D79",
"(  c #706D77",
")  c #82827D",
"_  c #475F80",
"`  c #456282",
"'  c #4A6585",
"]  c #4A668A",
"[  c #4D6A8C",
"{  c #476388",
"}  c #536A87",
"|  c #526E8D",
" . c #596E89",
".. c #55718D",
"X. c #4E6B92",
"o. c #516E92",
"O. c #557294",
"+. c #5B7696",
"@. c #5B7897",
"#. c #56749A",
"$. c #59769B",
"%. c #5C799C",
"&. c #667485",
"*. c #607D9F",
"=. c #637792",
"-. c #5677A1",
";. c #5778A2",
":. c #5C7CA3",
">. c #5E7FA9",
",. c #617DA2",
"<. c #977796",
"1. c #A97BA9",
"2. c #008B8B",
"3. c #098383",
"4. c #009C9C",
"5. c #328F91",
"6. c #00A1A1",
"7. c #00B7B7",
"8. c #00B9B9",
"9. c #5F80A9",
"0. c #5F80A6",
"q. c #6381A6",
"w. c #6283AB",
"e. c #6985AB",
"r. c #6988AF",
"t. c #718CAF",
"y. c #6788B1",
"u. c #6C8CB4",
"i. c #6E8FB8",
"p. c #6687B0",
"a. c #708EB4",
"s. c #6F90B9",
"d. c #7090B7",
"f. c #7292BB",
"g. c #7697C1",
"h. c #7798C3",
"j. c #7899C2",
"k. c #7E9FC8",
"l. c #00C4C4",
"z. c #02CACA",
"x. c #0CC6C6",
"c. c #00D8D8",
"v. c #00E4E4",
"b. c #00E8E8",
"n. c #00F8F8",
"m. c #00F4F4",
"M. c #868682",
"N. c #8C8C85",
"B. c #8E8E8C",
"V. c #919189",
"C. c #9B9B93",
"Z. c #9A9A99",
"A. c #A3989B",
"S. c #A3A39B",
"D. c #ABAB9F",
"F. c #B685B6",
"G. c #B98FB9",
"H. c #BB9ABA",
"J. c #A88BA7",
"K. c #AAAAA2",
"L. c gray67",
"P. c #B4B4AC",
"I. c #BABAAE",
"U. c #BDBDB4",
"Y. c #B9B9B5",
"T. c #C3C3BA",
"R. c #CACABD",
"E. c #C1C1B5",
"W. c #CF97CF",
"Q. c #CF9BCF",
"!. c #D59DD5",
"~. c #DAA4DA",
"^. c #EDB5ED",
"/. c #E4B0E3",
"(. c #F4BCF4",
"). c #CCCCC4",
"_. c gray80",
"`. c #D2D2C6",
"'. c #D5D5CA",
"]. c #D9D9CB",
"[. c #DCDCD1",
"{. c gray85",
"}. c #E4C8DC",
"|. c #E2E2D6",
" X c #E5E5D9",
".X c #EAEADC",
"XX c #F8C0F8",
"oX c #E9C6E3",
"OX c #EEEEE0",
"+X c #E4E4E0",
"@X c #F4F4E5",
"#X c #F8F8E8",
"$X c #F4EFEE",
"%X c None",
/* pixels */
"%X%X%X%X%X%X%X%X%X%X%X%X%X%X%X%X%X%X%X%X%X%X%X%X%X%X%X%X%X%X%X%X%X%X%X%X%X%X%X%X%X%X%X%X%X%X%X%X%X%X%X%X%X%X%X%X%X%X%X%X%X%X%X%X%X%X%X%X%X%X%X%X%X%X%X%X%X%X%X%X%X%X%X%X%X%X%X%X%X%X%X%X%X%X%X%X%X%X%X%X",
"h.h.g.g.g.h.h.h.h.g.h.g.g.g.h.h.h.h.h.h.g.g.g.w.;.>.g.g.g.g.h.h.h.h.g.g.g.g.g.g.g.g.h.h.h.h.h.h.} J =.a.h.h.g.g.h.h.g.h.g.h.g.g.g.h.h.h.h.h.g.g.i.-.>.i.g.g.h.h.h.h.g.g.h.g.g.g.g.g.h.h.g.g.h.h.h.g.g.h.",
"g.g.g.g.g.g.g.g.h.g.g.g.g.h.g.g.h.h.g.g.h.h.>.;.-.-.>.g.g.g.g.g.g.g.g.g.g.g.g.g.g.h.g.g.g.h.h.h.5 o 7 G *.h.h.h.g.h.h.h.g.g.g.g.h.h.g.g.h.h.g.u.-.>.-.-.u.g.h.h.h.g.g.g.g.g.g.g.g.h.h.h.g.h.h.g.g.h.h.h.",
"g.h.f.g.s.g.g.g.g.g.g.g.g.f.g.g.s.g.g.g.f.9.;.i.i.>.-.>.y.u.g.g.g.g.g.g.f.s.g.h.h.h.f.g.g.f.h.g.*.5 X $ F g.f...g.f.g.g.h.g.f.g.f.g.g.g.g.f.w.:.>.h.w.;.>.w.s.s.g.s.g.g.g.g.s.g.h.g.g.g.g.f.g.g.g.g.g.g.",
"u.u.i.s.s.s.s.i.i.i.s.g.g.f.f.f.s.s.s.s.p.;.p.g.u.p.>.-.>.p.i.i.i.i.f.s.f.i.i.i.s.s.i.s.f.f.i.q.= V 3 h s.f.q.  ,.i.i.s.f.g.f.f.s.s.s.s.s.u.;.w.i.g.p.>.>.-.w.s.i.i.i.i.i.i.i.i.s.s.s.s.i.f.f.d.u.s.u.i.",
"y.u.y.y.y.i.s.i.y.y.y.i.f.s.s.f.i.s.i.9.-.9.h.i.p.p.w.>.-.>.p.i.i.i.i.i.u.u.s.i.s.i.y.y.u.i.%.  C *.e h p.u.%.    $.y.y.u.f.f.f.s.s.s.s.w.;.9.s.g.w.p.p.>.-.;.w.i.i.i.i.i.u.u.i.s.s.s.y.y.u.d.f.y.y.u.y.",
"i.f.f.i.i.i.s.s.i.u.i.i.i.i.s.f.s.s.w.;.;.k.y.p.p.p.p.p.;.-.>.u.f.f.g.i.u.i.f.f.f.f.s.s.f.f.q.  ,.s.f.f.K           H i.u.i.i.i.s.s.s.i.;.;.g.s.p.w.p.p.w.>.-.-.u.s.f.g.f.u.u.i.f.h.f.s.u.s.f.f.s.s.s.g.",
"f.f.f.f.s.s.f.s.f.s.f.f.s.f.f.f.s.9.-.9.k.y.p.w.>.>.p.,.p.>.#.-.s.f.f.f.f.f.f.g.f.f.f.f.f...X D a.f.f.j 2 ! ,.    q.f.f.f.f.f.f.g.s.p.;.;.h.s.w.9.9.w.w.w.p.9.-.-.u.s.g.f.f.g.f.f.f.f.f.f.f.f.f.f.f.f.f.",
"f.f.f.f.f.f.f.f.f.f.f.f.f.f.f.f.9.#.w.g.y.w.w.w.9.p.p.w.w.9.:.-.:.i.s.s.f.f.f.f.f.f.f.f.f. .$ r.f.f.g 7 ! t.q.  q.f.f.f.f.f.f.f.g.w.;.;.h.u.p.w.w.w.p.w.w.w.w.9.#.-.p.s.f.f.f.f.g.f.f.s.f.f.f.f.f.f.f.f.",
"f.f.d.d.f.f.d.f.f.f.f.f.f.s.s.w.-.9.s.i.w.9.w.w.w.w.9.w.w.9.9.:.-.>.i.s.f.f.f.f.f.f.f.f.i...@ f.f.&.2 k t.f.r. .f.f.f.f.f.f.f.f.w.:.;.i.s.w.w.w.p.w.w.w.w.w.w.w.>.-.>.y.s.f.f.f.f.f.f.s.d.f.f.f.f.f.f.f.",
"f.a.d.f.f.d.d.d.f.d.f.s.s.i.w.-.9.s.u.9.9.w.w.w.w.9.w.w.w.w.w.9.;.-.>.i.s.f.s.f.f.a.a.f.d. .$ d.d.e j q.d.d.d.d.d.d.d.d.s.f.d.y.-.:.y.s.w.w.w.w.9.9.w.w.w.w.9.w.9.:.-.;.p.i.f.f.f.f.f.a.d.d.f.d.d.d.f.d.",
"d.d.d.d.d.d.d.d.d.d.d.f.s.w.#.;.f.i.w.w.9.9.w.w.w.9.9.w.w.w.9.w.9.-.#.>.s.s.f.s.f.f.a.a. .4 . e e $ K d.d.d.d.d.d.d.f.d.s.f.u.#.-.u.f.w.9.9.9.9.w.9.9.w.9.9.w.9.w.w.;.-.-.u.i.f.f.s.s.a.d.d.d.d.d.d.i.s.",
"d.d.d.d.i.a.a.d.d.i.s.s.9.-.-.h.y.9.9.9.9.9.9.w.w.w.w.w.9.w.w.w.9.w.$.#.:.i.f.s.a.a.U j G Z X ^ ^ % 5  .d.d.d.d.d.d.d.d.f.u.-.#.f.s.w.w.9.9.9.w.w.w.w.w.w.9.w.w.9.w.9.:.#.-.u.s.a.s.f.a.f.u.d.d.d.d.d.d.",
"a.d.a.d.i.i.i.a.d.i.i.0.#.>.f.w.9.q.w.9.w.w.w.9.9.9.9.w.w.w.9.9.9.9.w.;.#.:.u.u.a.K E ^ ^ Z X ^ ^ %   j i.i.i.d.a.i.d.i.w.#.#.s.y.w.9.0.w.w.9.9.9.9.9.9.w.9.w.0.9.9.w.9.:.#.-.y.s.a.a.a.d.a.a.d.d.d.d.d.",
"d.d.d.a.a.a.a.d.u.u.:.#.w.u.y.w.w.0.0.9.0.0.0.0.9.9.;.9.q.:.:.0.:.:.:.;.-.#.-.H K * Z C.W 2 2 2 2 2 X 4 [ u.a.i.u.a.u.w.;.#.i.y.w.w.q.w.0.0.9.0.0.9.9.;.0.0.0.0.9.:.:.:.:.-.O.;.w.u.u.u.u.a.u.d.i.a.t.u.",
"r.r.r.t.r.u.r.r.r.w.#.:.r.y.0.:.0.0.:.0.0.:.:.:.:.9.;.;.,.;.;.;.;.;.$.#.X.v v 8 8 8 8 % % V D L D D 7 & k ..r.r.r.u.r.;.$.w.s.:.:.0.:.:.:.0.0.:.:.:.9.;.:.:.;.;.:.;.;.%.-.#.-.X.$.e.u.u.u.y.y.r.r.r.r.r.",
"0.0.w.e.0.p.p.e.,.#.-.i.p.-.$.-.:.:.%.;.:.%.%.;.%.;.%.$.;.;.%.%.;.$.%.O.F % % #X#X#X|.^ % - C C D D A E N * O.r.e.w.#.#.e.f.;.:.%.:.:.$.;.:.;.%.$.;.;.%.$.;.;.$.;.%.%.;.$.:.;.#.X.-.w.p.p.>.>.>.q.0.q.0.",
"r.r.r.r.e.u.r.0.o.#.f.p.>.,.>.$.;.$.;.;.;.:.;.$.:.:.:.;.:.;.;.:.;.-.O.j W #X#X#X#X#X#X#XOXK.%   S I E E A N $ %.p.O.#.y.i.:.0.:.;.;.$.;.;.$.:.;.$.;.0.:.;.:.0.$.:.;.;.;.0.:.;.$.#.X.#.p.p.p.y.y.u.r.w.r.",
"r.r.u.u.y.y.0.O.-.f.>.,.>.,.>.:.:.:.:.:.:.:.:.:.:.0.0.:.0.0.:.0.:.:.5 ^ #X#X#X#X#X#X#X#X#XOXP.  C E E E 8       O.#.u.y.w.w.0.:.:.:.:.:.:.:.0.0.:.0.:.0.:.:.0.:.:.0.:.0.:.:.:.:.>.-.X.#.p.y.p.p.u.u.u.u.",
"r.u.r.u.u.0.#.$.p.p.,.>.:.:.:.:.:.:.,.:.:.:.0.:.0.:.:.:.:.:.:.:.9.( R.#X#X#X#X#X#X#X#X#X#XOXP.          7 V.V.N.    c :.:.:.:.:.,.:.:.,.:.:.:.:.:.:.:.:.0.:.:.:.:.:.:.:.0.0.:.0.:.;.-.X.-.p.g.J.r.r.r.r.",
"r.r.r.u.0.#.-.9.u.>.:.,.;.,.,.;.:.:.:.%.:.:.:.:.:.:.:.:.:.:.:.>.0., C.#XD.% % - % R.#X#X#X#XOXY.'.].].].'.R.U.V.^ / 7 @ t :.:.:.:.%.:.:.:.:.:.:.:.:.:.:.%.0.:.:.:.:.:.:.%.:.:.%.:.:.:.#.o.-.>.>.r.u.r.r.",
"r.y.u.9.O.o.9.y.,.;.;.:.,.;.,.,.:.:.:.:.:.:.0.:.:.:.%.:.F O O O @ o C.N.V F.F.F.F.6 D.#X#X#X#X@X#X#X#X#X#X@X#X.X).).E.P./ 4 :.:.:.:.:.:.:.:.:.,.:.:.:.;.%.:.:.:.:.:.:.:.:.:.:.0.:.:.:.:.#.o.-.>.r.r.r.r.",
"r.r.9.X.X.r.y.0.;.,.;.;.;.;.;.,.:.:.:.:.:.:.%.:.;.:.:.x 7 Q W C.C.3 D A.~.^.^.^.!.1.L C.#X#X#X#X#X#X#X#X#X#X#X#X.XOX.XOX)./ , :.:.;.:.:.:.:.:.;.:.:.:.:.:.:.:.:.:.:.:.:.;.:.:.:.:.:.:.:.;.#.o.o.r.u.r.r.",
"r.0.O.X.f.0.0.0.,.;.,.,.;.,.;.,.:.%.:.;.%.:.;.:.:.:.x & @ 8 V.K.D.3 N G.XXXXXXXX^.!.i / #X#X#X#X#X|.R.P.P.E.|.#X#X#X#X#X@X[.V.4 :.:.%.:.;.%.:.:.:.:.%.:.:.;.:.%.:.;.%.:.:.:.;.%.:.;.:.%.;.;.#.X.o.r.u.0.",
"$.#.#.p.,.$.,.-.#.-.$.$.#.$.%.$.$.#.#.#.#.#.#.#.#.$.H z z x 7 V.V.C 7 <.XX(.XXXX(.~.i / #X#X#X#X|.P.C.B.V.V.P.].#X#X#X#X#X#X X) &.$.#.#.$.#.#.#.#.$.$.$.#.$.;.#.%.$.#.$.-.;.%.%.-.$.$.#.$.#.#.#.X.#.$.O.",
"X.X.#.u.#.o.#.#.o.$.-.$.#.#.$.-.#.#.#.%.#.$.#.#.#.#.#.#.#.o.r B S.) Z L J.(.XXXX(.oXA.U.#X#X#X#XS.) ~ M.V.V.V.P.#X#X#X#X#X#X#X|.8 [ #.$.$.#.#.#.o.#.#.$.#.#.%.#.#.#.O.#.#.#.o.#.$.#.#.#.$.#.#.#.X.X.X.X.",
"#.o.o.0.#.#.#.o.#.#.#.#.#.o.#.#.#.;.;.%.$.$.#.#.#.%.#.#.#.#.#.5 / W N.Q ~ H.<.<.H.OX#X#X#X#X#X#X~ V.V.M./ ) / / #X#X#X#X#X#X#X#XZ &.$.;.$.$.$.$.#.#.$.$.#.#.#.#.#.O.#.#.#.#.#.#.#.#.#.$.-.$.#.o.[ $.#.X.",
"r.:.X.X.-.-.,.$.$.$.$.$.$.$.$.$.$.#.%.%.;.$.%.;.%.;.%.[ H H K K .   ) U.D.M.7 q N.[.#X#X#X#X#X#XE _.+XL.^ C M.B #X#X#X#X#X#X#X#X#XQ  .%.$.-.;.%.,.-.-.$.*.;.$.%.%.%.-.;.$.;.$.%.$.,.$.-.$.$.#.X.o.d.r.;.",
"r.w.,.X.X.#.-.*.$.%.$.$.$.,.$.$.%.;.%.%.%.#.%.#.-.%.] y 9 i y   % 2 C..X.X'.[.#X#X#X#X#X#X#X#X#XB Z.{.$XL.G A.q #X#X#X#X#X#X#X#X#X% K %.%.$.$.$.$.-.$.,.#.%.#.$.%.%.#.%.$.%.;.%.$.,.$.,.$.#.X.#.d.r.e.e.",
"w.e.q.*.[ X.o.$.$.%.$.$.$.$.$.$.$.$.$.@.%.$.%.$.$.$.e P W.^.(.  ^ C.`.#X.X[.#X#X#X#X#X#X#X#X#X#X[.V Z.{.{.Y.q #X#X#X#X#X#X#X#X@X].- H @.#.%.$.$.$.$.$.#.%.#.$.%.#.#.%.%.$.$.$.$.$.$.$.$.o.] $.t.e.e.e.e.",
"q.e.q.e.#.X.X.#.$.$.$.#.$.$.$.$.$.#.$.$.#.%.#.@.#.$.$.r i W.W.  ^ E..X$X#X#X#X#X#X#X#X#X#X#X#X#X#X].S     8 #X#X#X#X#X#X#X#XOX`.    K #.%.#.$.$.$.$.$.#.#.%.#.$.#.%.#.$.#.#.#.%.$.$.$.o.X.#.>.t.e.e.q.q.",
"e.q.q.q.,.#.X.X.#.$.-.#.#.#.$.#.#.+.#.#.#.#.#.#.$.#.+.#.h     V.R.OX#X#X#X#X#X#X#X#X#X#XC.% Q ~ ~ N.`.#X#X#X#X#X#X#X#X#X#X#X#X#X).% K $.#.#.#.+.#.O.$.#.#.+.$.#.#.#.#.+.$.#.+.#.$.#.o.X.$.>.t.e.q.q.q.q.",
"J.>.,.>.>.>.#.] ] #.#.#.#.#.#.#.#.#.#.#.O.#.#.#.#.#.#.+.$.'   V.N.E..X#X#X#X#X#X#X#X#X#X#X#X#X#X#X#X#X#X#X#X#X#X#X#X#X#X#X#X#X#X  ] $.#.#.$.$.$.$.O     2 T #.#.#.O.$.#.$.#.+.#.$.o.X.o.e.e.e.>.q.q.q.,.",
">.,.,.,.,.,.,.#.] X.O.#.#.#.#.#.O.#.O.#.#.#.#.#.O.+.#.#.#.'   V.V.V.E. X#X#X#X#X#X#X#X#X#X#X@X'.N.&.I..X#X#X#X#X#X#X#X#X#X#X@X`.  ' O.$.#.F O O O 2.z.c.z.5.I I #.+.#.#.#.#.#.+.o.] X.,.e.,.>.,.q.q.q.q.",
">.,.,.,.,.,.,.,.#.] [ o.#.O.O.O.O.O.o.O.o.O.o.$.#.o.#.o.o.'   V.V.R..X@X#X#X#X#X#X#X#X#X#XR.q N.R.'..X@X#X#X#X#X#X#X#X#X#X@X X7 c o.o.X.H 1 2.8.8.b.M w g R  . .#.#.O.O.O.o.O.o.[ o.e.,.,.,.,.,.,.q.,.q.",
";.;.,.,.,.,.,.,.;.o.] [ o.| X.X.[ o.o.o.o.o.o.o.o.o.o.o.| J   V.Y..X#X#X#X#X#X#X#X#X#X#X'.C.E.'.#X#X#X#X#X#X#X#X#X#X#X#XOXP.7 c o.o.X.h < 6.b.z.< < b c K } o.o.O.O.O.o.O.X.o.[ #.,.,.,.,.,.,.,.*.*.$.%.",
",.$.$.#.#.$.*.$.,.,.o.] ] [ o.O.o.o.o.o.o.o.o.o.| [ o.o.o.J   V.A.`.OX#X#X#X#X#X#X#X#X#X X).#X#X#X#X#X#X#X#X#X#X#X#X#X].N.C x X.o.O.o.r a z.v.a h h 3 > > u ! [ o.o.o.o.o.X.[ o.,.e.%.$.%.$.+.@.+.$.$.#.",
",.,.,.,.,.*.$.*.,.,.,.X.] ] O.O.o.#.O.#.o.o.o.o.X.X.o.o.O.`   V.V.K.`.OX#X#X#X#X#X#X#X#X#X#X#X#X#X#X.XOX#X#X#X#X X XS.E k u { o.O.O.O.r a z.c.  t t d m n 3.5.T T | o.o.o.{ [ ,.,.%.%.,.,.:.$.@.$.,.,.*.",
",.,.,.,.,.,.,.,.,.,.,.,.| ' [ O.O.o.O.O.O.o.#.o.o.#.#.O.O.[ r B M.I.].OX#X#X#X#X#X#X#X#X@X X#X#X#X#X[.]. X X].^ W W 3 = H $.] { r r r = d c.b.n n n l.4.n 3.5.! T o.o.o.{ ] e.,.,.,.,.,.,.,.q.*.,.,.,.,.",
",.,.,.,.,.,.*.,.,.,.,.,.0.O.{ ' o.O.O.O.O.O.O.O.O.O.O.o.O.O.O.  ^ `.@X#X#X#X#X#X#X#X#X#X|.R..X#X#X#X XP.) ) ) V V V & 3 x x x u a a a : s n.b.4.4.4.4.l 5 e T o.o.o.[ ] [ ,.e.,.,.*.,.,.*.,.@.q.,.,.,.,.",
"*.*.*.*.*.,.*.*.+.q.q.q.q. ...U ] o.o.O.O.o.o.O.O.O.| O.O.O.#.  D K.[.@X#X#X#X#X#X#X#X#X'.C.S.#X#X#X#X) . & % C.C.C.7 + ; ; ; ; 2.2.2.a s n.c.  * * * h c F c O.O.| ' | =.q.q.q.0.q.0.@.@.q.q.q.*.*.*.*.",
"*.*.*.*.*.%.%.*.0.q. .q.0.q.0.} { } | o.O.o.O.o.O.| O.X.O.| U % - Z K.[.#X#X#X#X#X#X#X@X].V.% #X#X#X#X) e F   + + + + s 6.6.6.4.@ . X o s m.c.+ ` U U > # # ; ..J ] [ $.q.q.0.@.@.=.@.q.q.@.@.@.*.*.%.*.",
"$.*.*.*.%.:.*.*.0.+.0...0.=.q.@.] _ { o.O.O.| o.O.O.O.o.X.Y   XX(.9 C P..XOX@X@X@X].E.P.~   % P.@X#X#X#XC.o ; 6.6.6.6.s @ O $ $ @...` t < 7.b.7.# # # 2.l.c.x.I X H %.q.@.0.0.@.@.@.@.q.@.0.0.@.*.%.,.*.",
"=.-.=.;.*.=.%.%.0...0.0.R q.0.+.*.[ _ { } o.| | X.| | | O.v   Q.W.6   B V.C.`.`.`.7             ].#X#X#XC.; 6.        u =.%.@.*.0.0.O.Y g ; 7.8.n.n.n.n.4.  . ` ` *.q.*.@.0.=.q.q.q.@.@.0.@.@.@.$.=.%.%.",
"@.@.@.@.%.*.+.+.O.+.0.0.@.+.@.0.0.@.| Y ' [ ..[ [ [ | | ' v       K @.g               s 8.8.8.7.+ I.#X}.~.G.@ @.+.+.@.@.%.@.@.%.0.@.@.+.` x             , ] ' ' %.*.@.@.@.0.@.@.+.@.0.@.@.@.@.0.@.*.+.*.",
"@.O.O...+.O.O.| O.| ..O.O.....@...@.O.[ ` ' ' ] ' ' [ ' ` [  .} ' } +.} ' j   6.6.6.6.s + + + + F 3 <./.XXG.@ O...o...O.+.O...O.O.@.+...o.` v v H H H J Y ` ' @.*.@.+.O.@...O.O.@.@.@.O.O.@.@.@.@.@.O.o.",
"#...O...O.O.O.O.O...O.O.O.....O...O.O...[ ` ' ' ] [ ' ' [ @.*.O.O.O.O.O... .C + + + + t ' ' U ' O.} 5 % % y ' O.O.| ....O.O.O.O.....O.O.O.[ Y ` ' ' ] ' ` ' O.q.@.O.O.O.O...@.#.+.O.O...+.O.O.O.+.O.o.O.",
"+.@.@.O.@.+.@.@.O.+.O.@.@.@...0.O.O.#.@.@.` J { [ ' Y ' %.%.+.%.+.O.@.@.+.O. .K H F H U ....| | ..O.U F F U @.@.@.#.O.O.+.@.@.O.0.O.+.O.@.@.[ ` ` [ ' ` '  .q.+.@.@.O.@.@.O.@.@.+.+.@.+.......| | ..+.+.",
"@.@.+.@.@.@.@.@.@.+.@.@.+.@.+.@.=.@.+.@.+.@.' U J _ ` *.*.+.+.%.@.@.@.@.@.@.@.@.+.+.@.@.@.@.@.+.@.@.@.@.+.@.@.@.@.@.@.@.@.@.@.@.@.@.@.+.@.@.%.} _ v { ` O.*.=.+.@.+.@.%.@.@.+.@.%.@.@.@.@.@.=.@.@.+.@.@.",
"@.@.+.@.+.@.+.=.@.+.@.+.+.@.+.=.+.+.@.@.+.@.O.' J ' *.%.+.+.+.=.+.@.@.@.=.+.@.@.@.=.+.@.@.=.+.+.@.@.+.+.@.+.@.@.+.@.+.+.=.@.+.+.+.+.@.@.=.+.+.+.| J J $.*.%.%.+.=.+.+.+.+.=.+.+.+.+.=.@.+.+.@.+.@.+.+.+."
};
