/* XPM */
static char *result[] = {
/* columns rows colors chars-per-pixel */
"50 100 179 2 ",
"   c #000101",
".  c #04080A",
"X  c #0C0C0C",
"o  c #0B0E14",
"O  c #0C1115",
"+  c #001818",
"@  c #121416",
"#  c #1B1B1A",
"$  c #21211F",
"%  c #161D25",
"&  c #171E27",
"*  c #181F28",
"=  c #032425",
"-  c #1C232C",
";  c #1E2A38",
":  c #252524",
">  c #2C2C2B",
",  c #30302F",
"<  c #232D3B",
"1  c #25303F",
"2  c #2F3438",
"3  c #353533",
"4  c #3E3E3B",
"5  c #40403F",
"6  c #263343",
"7  c #2A3644",
"8  c #2E3946",
"9  c #2B394A",
"0  c #2D3E52",
"q  c #483548",
"w  c #004747",
"e  c #1A4650",
"r  c #065757",
"t  c #005C5C",
"y  c #3C444C",
"u  c #2B4352",
"i  c #34475D",
"p  c #3A4D64",
"a  c #3E546E",
"s  c #006464",
"d  c #007575",
"f  c #007C7C",
"g  c #307D7D",
"h  c #444546",
"j  c #464849",
"k  c #4D4D4A",
"l  c #55554F",
"z  c #4D5155",
"x  c #565655",
"c  c #5B5B56",
"v  c #61615E",
"b  c #465468",
"n  c #555D69",
"m  c #455A75",
"M  c #495E76",
"N  c #435D7D",
"B  c #6E5C71",
"V  c #5E656F",
"C  c #4A617B",
"Z  c #5C6877",
"A  c #54667B",
"S  c #5C6A7B",
"D  c #606060",
"F  c #696965",
"G  c #6B6C6A",
"H  c #73736F",
"J  c #7A6378",
"K  c #6E7175",
"L  c #67717E",
"P  c #6A727C",
"I  c #747470",
"U  c #7B7B74",
"Y  c #83837E",
"T  c #455F80",
"R  c #456283",
"E  c #4A6685",
"W  c #476388",
"Q  c #4A668B",
"!  c #4D6A8D",
"~  c #516781",
"^  c #5C6D83",
"/  c #586B85",
"(  c #526E8E",
")  c #487380",
"_  c #58728E",
"`  c #4E6C92",
"'  c #516E92",
"]  c #557194",
"[  c #5B7695",
"{  c #5D7896",
"}  c #56749A",
"|  c #59769C",
" . c #5C7A9C",
".. c #617285",
"X. c #627489",
"o. c #647A93",
"O. c #607D9E",
"+. c #5677A0",
"@. c #5779A3",
"#. c #5C7CA2",
"$. c #5E7FA8",
"%. c #617EA2",
"&. c #876687",
"*. c #967096",
"=. c #9B789A",
"-. c #A57BA5",
";. c #008A8A",
":. c #009B9B",
">. c #1B9898",
",. c #2A8E8E",
"<. c #39868A",
"1. c #00A3A3",
"2. c #12A8A8",
"3. c #06B3B3",
"4. c #00BABA",
"5. c #418087",
"6. c #4A8089",
"7. c #5F80A9",
"8. c #6481A6",
"9. c #6383AB",
"0. c #6985AB",
"q. c #6887AA",
"w. c #6988AF",
"e. c #6586B0",
"r. c #6788B1",
"t. c #6C8CB3",
"y. c #6E8FB8",
"u. c #708FB6",
"i. c #6F90B9",
"p. c #7090B7",
"a. c #7293BB",
"s. c #7697C1",
"d. c #7798C3",
"f. c #7A9BC5",
"g. c #00C7C7",
"h. c #00C8C8",
"j. c #00D0D0",
"k. c #00D9D9",
"l. c #00E0E0",
"z. c #00EBEB",
"x. c #00F0F0",
"c. c #00F8F8",
"v. c #878780",
"b. c #8D8D85",
"n. c #909088",
"m. c #98988F",
"M. c #9C9C93",
"N. c #9E9E98",
"B. c #A3A39B",
"V. c #AF85AF",
"C. c #B98FB9",
"Z. c #B795B4",
"A. c #B990B9",
"S. c #AAAAA3",
"D. c #B3B3AB",
"F. c #BABAAE",
"G. c #BCBCB4",
"H. c #C1C1B7",
"J. c #C4C4BA",
"K. c #CACABD",
"L. c #D2A8D0",
"P. c #E4ACE4",
"I. c #E9B3E9",
"U. c #F7BFF7",
"Y. c #CDCDC4",
"T. c #D2D2C6",
"R. c #D3D3CA",
"E. c #D9D9CB",
"W. c #DDDDD2",
"Q. c #E9D9DE",
"!. c #E3E3D5",
"~. c #E6E6D9",
"^. c #EAEADC",
"/. c #ECC8E5",
"(. c #F8C5F7",
"). c #EEEEE0",
"_. c #F5F5E6",
"`. c #F8F8E7",
"'. c #F8F8E8",
/* pixels */
"a.s.a.s.s.s.s.s.s.d.d.d.s.s.s.s.d.d.s.d.d.s.s.7.e.r.i.y.s.s.r.r.s.f.s.s.s.s.s.d.s.d.d.s.s.a.s.i.s.s.",
"d.d.s.s.s.d.s.d.s.d.s.s.s.s.s.s.s.d.s.s.s.s.i.7.7.7.d.s.s.s.s.s.d.s.s.s.s.s.s.s.d.d.s.s.d.d.d.s.s.d.",
"s.s.s.s.s.s.s.s.d.s.s.s.s.s.s.s.s.s.s.s.s.i.7.@.+.@.e.s.s.s.s.s.s.s.s.s.s.s.s.s.d.s.d.d.s.s.s.s.s.s.",
"a.s.s.s.i.s.s.s.s.s.s.s.s.s.s.s.s.s.s.s.y.7.+.s.e.7.@.7.y.y.s.s.s.s.s.s.s.s.d.s.d.s.a.a.s.s.s.s.s.s.",
"t.t.t.y.y.i.i.y.t.y.i.s.i.s.a.i.y.i.i.r.7.7.i.a.e.e.7.@.7.r.i.i.i.i.i.i.r.y.i.i.i.y.t.i.a.y.y.y.y.t.",
"r.r.t.r.t.t.y.y.r.r.r.i.i.i.i.i.y.y.r.7.| r.f.r.e.e.7.@.@.e.r.i.y.i.i.y.r.y.i.i.y.y.e.y.y.y.w.w.t.r.",
"i.a.i.y.y.r.s.i.y.y.y.r.y.t.i.s.y.t.7.7.e.f.e.e.e.e.7.7.@.+.e.i.i.s.i.i.y.y.s.s.a.a.t.a.a.a.p.p.i.a.",
"s.s.a.i.i.s.i.i.s.a.s.a.i.s.a.a.y.7.` y.f.7.e.7.7.e.e.e.7.@.+.7.s.i.s.i.i.s.i.i.a.a.a.a.a.a.a.a.i.s.",
"a.a.a.a.a.a.a.a.i.a.a.a.a.a.a.i.7.` y.i.e.7.7.e.7.e.7.e.7.7.@.} 7.i.i.s.a.a.a.a.a.a.a.a.a.a.a.a.a.a.",
"a.a.p.p.p.a.a.a.a.a.a.i.a.a.t.$.} t.y.e.7.7.7.e.e.e.7.e.7.7.7.7.+.7.i.i.a.a.a.a.a.a.p.p.p.a.a.a.a.i.",
"a.p.p.a.p.p.p.p.p.p.p.i.i.r.7.} t.i.q.7.e.7.7.7.7.7.e.7.7.e.7.7.7.+.7.i.i.a.a.i.p.p.a.p.a.p.p.p.a.a.",
"p.p.p.p.p.p.p.p.p.p.i.a.y.7.+.7.a.q.7.7.7.7.7.e.7.7.7.7.7.7.7.q.7.+.+.e.y.i.i.i.p.p.p.p.p.p.p.p.i.i.",
"p.p.p.p.p.p.p.p.p.p.p.y.@.} 7.f.7.7.7.7.q.7.q.7.e.7.q.7.8.7.7.7.7.7.] } e.y.y.i.p.p.p.p.p.p.p.p.p.p.",
"p.u.u.p.p.p.p.t.p.p.t.@.} e.s.7.7.7.8.7.7.7.7.7.7.7.7.7.7.7.q.7.7.7.7.} +.7.i.y.p.p.t.p.p.p.t.y.p.p.",
"p.p.u.u.y.t.t.y.t.t.@.] w.t.7.7.7.8.7.7.7.7.7.7.7.7.7.7.7.7.7.7.| 7.| +.} } 7.r.p.p.t.p.p.y.t.y.t.y.",
"q.q.q.q.w.w.w.w.q.7.] e.w.9.@.7.7.7.[ 7.7.7.| 7.| | } 7.@.| | @.| +.+.+.+.] ] 7.w.w.w.w.q.q.7.q.q.q.",
"7.7.q.q.7.e.w.7.@.} $.p.8.@.| | $.| | @.@.| | | #.@.| | #.| @.| #.@.} } +.} } ] $.r.q.9.9.8.8.8.7.7.",
"q.w.t.q.q.w.q.7.' #.a.9.8.#.#.| | @.| | #.7.| @. .7.#.@.7.@. .| @.6.7.7.@.+.} ` ' 9.q.q.r.t.t.0.q.e.",
"t.t.t.t.t.y.| ` $.a.%.%.$.$.#.7.7.#.7.#.| 7.7.7.#.#.%.#.7.#.7.7.#.8.7.| 7.7.7.7.` ` 9.t.t.t.t.t.w.t.",
"t.w.t.w.t.| ] 7.t.$.$.#.#.#.#.#.#.7. .7.7.7.| 7.7.#.#.$. .7. .7.#.#.7.7.| 7.|  .@.} ` $.t.r.w.w.w.t.",
"w.w.w.e.} ` 7.r.%.%.$.%.+.%.@.%.#.#.#.#.7.| 7.6.#.#.#. .#.#.#.#.#.#.#.#.7. . .7.$.} ' } @.t.r.t.w.w.",
"w.w.e.#.` 7.r.7.@.%.@.#.%.@.%.@.#.#.#.#.} 7.@.$.#.#.@.#.#.#.#.#.#.#.#.#.@.#.7.@.#.#.} } +.$.r.r.w.t.",
"t.q.$.` | t.7.7.@.@.@.@.@.%.%.@.#.#.@.#.@.#.#.#.@.#.#.#.@.#.#.@.#.#.#.#.@.7.| 7.| 7.@.} ' ' %.r.w.8.",
"w.@.` } a.8.#.6.O.| %.%.+.+.@.%.#.#. .#. .#.|  .#. .#.#.#. . .@.| #.| #. .#. .@.| #.@.@.+.` ' %.w.7.",
"` ` | t.| } | +.} } @.| } | @.| } } } } } } } } } } } } @.} | | } } | | | | @.@.| | } ] } +.` ` ' ' ",
"` ! } t.} ' } } ' } } } } ' } } ] | | | | | ' } } | } } } } } } } } ] } } ` } } } | | | } ] ` ` ` ) ",
"$.} ' | } | | | } | } } | | | | | | +.|  .| | }  .+.+.} } | | | } S S | | | V ^ | | @.V / ` ` %.7.} ",
"0.$.' ` | | | +.| | | | | | | | @.| #.| @.| | #.|  .+.| @.| | | | Z Z | | | V S | O.@.D / ` | t.w.#.",
"0.0.%.' ' } | +.+.+.| | | | | |  . . .@.| | | | +. .{  .| | | | ^ 5.5.^ | S <.6.X.| ^ <.) ^ p.0.q.0.",
"%.0.0.%.` ` ] | | | | | | | | | | | }  . .|  .} | | | | | |  . .z >.>.j | j 2.,.n | j 3.g n 0.0.q.8.",
"%.%.9.8.%.` ` ' | | | | | | | } } } | { } } {  .| } } | |  .} } O :.:.O |   4.f & '   k.t 6 q.8.8.9.",
"0.0.9.8.%.@.` ` ' | | | | | | | } } } } } } } } | ] } } } } } [ O :.:.O }   4.f % !   k.t 1 8.8.8.8.",
"u.%.%.%.%.$.+.' Q ' } } } } } } } [ | | } } [ | } } } } [ } | | O :.:.O }   4.f % }   k.t 1 8.8.%.%.",
"%.%.%.%.0.%.%.| ` ! ' ] } } } } } ] } ] ] } } ] [ } } ' ] } ] ] O :.:.O ]   4.f * 0.  k.t 1 %.%.8.8.",
"%.%.%.%.%.%.%.%.| Q Q ' ] ] ` ' ` ' ' ' ' ' ' ] ' ] ' ' ' ' ' | o :.:.O }   4.f - 9.  k.t 1 %.%.%.%.",
"|  .| [ | %.| O. .| Q Q ! ! ` ] ` ' ' Q ' ` ' ' ( ' ' ` ` ' ' ' o :.1.= T   4.f @ ( + k.t < | | [ | ",
"%.%. .%. .|  .| %.%.| Q Q ! ' ] ' ] ] ] ' ` ' ' ! ' ' } ' ' ' ( o :.l.1.    4.f     4.x.t < |  .%.O.",
"%.%.%.%.%.%.%.%.%.%.%.} ! Q ` ] ' ] } } ] ' } ' ' ' } ' } ' ' ' o d j.z.k.k.z.z.k.k.z.h.w < O.%.%.%.",
"%.%.%.%.%.%.%.%.%.%.%.%.] Q Q ' ] ' ' ] ] ] ] ] ' ' ' ] ] ] ' ] a e s g.g.c.c.c.z.g.g.w u ' 8.O.%.%.",
"O. .%. .O.O.O.O.O.O.O.%.o...S E ' ] ] ' ] ' p 9 9 9 9 9 a ] ] ] ! i e t t f f f d t t u ~ O.O.O.%.O.",
"O.O.O.O.O.O.O.O.8. .8.8.o.K P ~ ~ ' ' ' m b 2 3 4 : 3 3 y a a ! R ! M # -   = + . & & [ O.O.O.O.O.O.",
" .O.O.O.O. . .O. .{ {  .8. .{ K Z W ( '     8.!.^.n.^.W.F     R ! 8.o.K O.  ;.t & O.O.O.O.O. .O.O.O.",
" . .O.O.[ O.O.O. .8. . . . . . ...3     `.`.`.`.'.'.'.'.'.'.'.    j P O. .  ;.t -  .{  .O.{ [ 8.| O.",
"o. . .[ O.O.[ [  .{ P I K K { 8.2 D J.E.Y H.^.`.'.'.'.'.~.G.v.R.G.j 7 { {   ;.t # K { O.O.O.6.[ O.{ ",
"{ [ [ ] [ o.} ' ] [ _ X.....L 7 G H.T.B.S.E._.`.'.'.'.'.).W.S.B.!.D.F 7 L   ;.t & X.[ {  .[ 8.[ [ | ",
"] ( ( ( ] ] ' ( ( ' _ ] ( Z j l F.'.E.I !.).`.`._.~.'.'.'._.W.H ~.`.F.l h   ;.t % [ ] ] } [ | { ( ( ",
"] [ [ ] [ | o.| ' ] _ ( A l # E.'.'.Y.v _.`._.!.R.F.R._.'._._.D ^.`.`.E.#   ;.t % _ ( ] ( ( ( ( ] { ",
"[ { | { { | [ [ [ [ K 4   # Y._.'.'.F.  Y.).!.Y       M.~.).T.  E.`.`._.T.  ;.t % [ [ [ { } [ ] { { ",
"[ { { { { { [ { {     F Y $ `.`.'.'.'.'.      k E.`.R.3       '.'.'.'.'.'.  ;.t     [ [ [ [ [ { { [ ",
"[ [ [ [ [ o.[ M & F.F.U l K.'.`.'.'.'.'.F.F.F.R._._.).J.F.F.F.'.'.'.'.'.'.  ;.t > F.& A [ [ [ [ [ [ ",
"a.s.a.a.a.d.O.b U '.'.U c '.'.'.`.'.`.`.'.'.'.'.'.'.`.'.'.'.'.'.'.'.'.'.'.  ;.t 5 `.U b { s.s.a.s.a.",
"d.d.s.s.a.d.C 5 `.`.K.I Y '.'.'.`.`.`.`.'.'.'.'.'.'.'.'.'.'.'.'.'.'.'.'.'.  ;.t 5 `.'.$ M s.s.s.s.s.",
"s.s.s.s.s.t.A k `.`.4 F !.'.'._.~.E.!.^.'.'.'.'.'.'.'.'.'.'.'.'.'.'.'.'.'.  ;.t 4 `._.4 A a.s.s.s.s.",
"s.s.s.s.a.9 c '.`.`.4 F W.'.'.R.k   $ n.'.'.'.'.'.'.'.'.'.'.'.'.'.'.'.'.'.  ;.t 5 `.`.`.c 9 s.s.s.s.",
"t.t.y.y.y.9 c '.'.R.3 U _._.R.3 =.L.=.@ M.!.'.'.'.'.'.'.'.'.'.'.'.'.'.'.'.  . B =.$ `.`.c 7 p.t.t.t.",
"r.t.r.r.t.6 c ).!.k Y G._.~.k m.L.I.I.=.3 Y.'.'.'.'.'.'.'.'.'.'.'.'.'.'.'.    J A.  `._.c 7 r.e.t.t.",
"a.a.a.t.t.7 c ).Y.  S.^.`.E.  E.Q./.(.(.  F.'.'.'.'.'.'.'.'.'.'.'.'.'.'.'.    B V.  `.`.c 7 p.p.y.a.",
"a.a.a.a.a.7 c ~.R.  F.'.^.M.4 ~.'.'.Q.A.4 K.'.'.'.'.'.'.'.'.'.'.'.'.'.'._.  = b &.4 F.W.x 8 a.a.s.s.",
"a.a.a.a.a.7 k R.Y.  G.'.M.$ `.`.'.'.F.  '.'.'.'.'.'.'.'.'.'.'.'.'.'.'.'.'.  ;.r 5 `.  F.k 7 a.a.a.a.",
"a.a.a.a.a.a.m       F._.T.M.'.'.'.!.H.n.'.'.'.'.'.'.'.'.'.'.'.'.'.'.'.'.'.  ;.t 4 _.    M a.a.a.a.a.",
"p.a.p.a.a.p.%./ /   F.'.^.!.`.`.'._.^.W.'.'.'.'.'.'.'.'.'.'.'.'.'.'.'.'.'.  ;.t 5 `.  M w.p.p.a.u.a.",
"p.p.p.p.p.p.p.p.a.  F.'.`.`.'.`.'.'.'.'.'.'.'.'.'.'.'.'.'.'.'.'.'.'.'.'.'.  ;.t $ U i 0.p.p.p.p.u.u.",
"p.p.p.p.a.p.p.p.p.  F.'.'.'.'.'.'.'.'.'.'.'.'.'.'.'.'.'.'.'.'.'.'.'.'.'.'.  ;.t     p.p.p.p.p.p.p.p.",
"t.p.p.p.t.u.u.t.p.  F.'.'.'.'.'.'.'.'.'.'.'.'.'.'.'.'.'.'.'.'.'.'.'.'.'._.  ;.t     t.p.p.p.t.u.p.t.",
"p.t.p.t.p.p.t.p.t.  F.'.'.'.'.'.'.'.'.'.'.'.'.'.'.'.'.'.'.'.'.'.'.'.'.'.'.  ;.t     t.t.y.t.t.t.y.t.",
"q.q.e.w.q.e.w.w.0.  N.~.'.'.'.'.'.'.'.'.'.'.'.'.'.'.'.'.'.'.'.'.'.'.'.'.'.  ;.t     t.t.q.q.9.q.e.q.",
"8.9.9.q.8.e.w.( 2   3 B.'.'.'.'.'.'.'.'.'.'.'.'.'.'.'.'.'.'.'.'.'.'.'.'.'.  ;.t     1  .7.8.7.8.8.9.",
"e.e.w.e.q.t.[ b 3 :   H _._.'.'.'.'.'.'.'.'.'.'.'.'.'.'.'.'.'.'.'.'.'.'._.  ;.t @ 3 : p  .t.t.q.9.r.",
"t.t.t.t.t.t.p $ Y v # v T.^.`.`.'.'.'.'.'.'.'.'.'.'.'.'.'.'.'.'.'.'.'.'.`.  ;.t $ Y D X b t.t.t.t.t.",
"w.w.t.t.t.| i # n D # h B.E.`.`.'.'.'.'.'.'.'.'.'.'.'.'.'.'.'.'.'.'.'.'.`.  ;.t # v D X b t.w.t.e.t.",
"w.w.r.w.} ; 3 Y D n.G > 3 B.`.R.^._.'.'.R.).'.'._.Y._.'.'.).R.'.'.'.^.R.`.  ;.t : n.D b.3 6 t.w.w.w.",
"w.t.7.@.} < > x # G > X > U Q.B.J.^._.R.N.Y.^.).R.N.R.).~.Y.M.W._.~.J.S.E.  ;.t # G @ v : 6 r.w.w.w.",
"w.q.7.` 0 q h 2 0 , 9 0 8 5 D.m.B.K.R.D.n.S.T.T.S.n.S.E.Y.S.n.D.Q.H.B.m.D.  ;.t X , 0 , 4 y p e.w.q.",
"q.#.` } O 3 y 0  .< E +.m < x Y n.B.D.n.n.n.B.S.n.n.n.S.B.n.n.b.D.N.n.Y c   ;.t o < +.6 h 3 o 0.w.#.",
"' ` } y.* o 6 | } |  .| | Q o F v.n.n.n.n.n.n.n.n.n.n.n.n.n.n.n.n.n.v.F o X d r - | | } 6 o % ` ' ] ",
"` ` ] e.} ' } } ' ' } } ' } | o x n.n.n.n.n.n.n.n.n.n.n.n.n.n.n.n.n.c o ] D @ , V | +.} ' } ` ` ` Q ",
"$.' ` @.| } | | | } | | | } | Q < 4 H n.n.n.n.n.n.n.n.n.n.n.n.n.G 3 < Q | [ ( ' [  .+.| } ` ` %.7.} ",
"w.$.} ` | +.@.| | +.+.| | | | | m 8 : 3 Z.Z.D 3 3 3 3 3 J Z.Z.3 : 8 m | | | [ | | +.@.| ' ! | t.w.#.",
"q.8.%.' ` ] +.| @.%.| | +.| O.| @.m <   P.P.*.q X 0 . q -.P.P.  6 T | %.+.O.| | | O.| ' ` | a.q.q.0.",
"9.0.0.%.` ` ' | | | | | | | | |  . .M * C.I.P.&.O } o -.I.I.C.& ' | | | ] | | | | +.` ! | u.0.q.9.8.",
"%.0.0.%.%.` ` ' | | [ } | [ | [ | | | |   C.U.=.o | o A.(.C.  } | | | | | [ | | | ' Q $.V.e.7.9.8.q.",
"0.%.0.%.%.@.` ` ` | | } | } } } | ] | ] } %   < | [ } %   & } } } | ' | } } | | ! ! @.0.%.u.7.7.8.8.",
"%.0.u.%.%.%.%.' Q ] } } } } } } } } } [ ] ' ~ ' } | ] ( E E | } [ | | } } | ' ' Q O.0.%.%.%.%.%.8.8.",
"%.%.%.$.%.%.%.| ` Q ] ] } } } } ] ] } ] } } } | ] } } ] | ] | [ ] } ] } ] ] ' ! ' w.0.%.$.%.%.%.8.8.",
"%.%.%.%.%.%.%.%.| W Q ' } ' ` ` ` ' ' ' ' ' ' ] ' ' ' ' ' ' ] | } ] ] ' ' ' Q ( u.%.%.%.%.%.%.%.7.8.",
"O.[ } | } O.%.| @.| Q Q Q ` ` ] ` ' ' ! ' ' ! ' ` ' ' ' ! ' ' ' ` ' ' ` ' ! ] w.O.%.| | } %.] ] ] ] ",
"%.| %.%.| | |  .%. . .! Q ! ' ] ' | ' ' ' ` ' ' ! ' ' ' ' ' ' ' ' ' ' Q W } 8.%.O.| %.| [ | | %.%. .",
"%.%.%.%.%.%.%.%.%.%.%.| ! Q ' ] ] ' ] | ] ' } ' ' ' } ] ' ' ' ' ' ' ( W | %.8.%.O.%.%.%.%.| %.%.%.O.",
"%.%.%.%.%.%.%.%.8.8. .8.( Q W ` ] ] ] ] ] ] ] ] ] ] ] ] ] ] ] ] ] ! W ' 8.8.O.O.{ 8.8.{ { 8.8.8.%.%.",
"O.O.%.O.O.O.O.O. .8.{ 8.8.} E E ` ] ] ] ( ] ] ] ] ] ] ] ] ] _ ] ! E ! q.8.O.8. .8.{ 7.8.8.7.{ { O.O.",
"O.O.O.O.O.O.O.O.8.{  .8.{ { } R R ( ] ( ] ` ] ( ' ] _ ' ' ] ' Q R ! 0.8.O.8.{ 8.{ 8.8.{ { 8.{ 8.O.O.",
" .O.O. .o.O.O.O. .8.{  .8. .8.[ R W ' ) ] ] ( ] ] ' ' ' ] ' Q E / 8.8.6.O.{ O. .8. .{ 7. .{ 8.{  .O.",
"O. .O. .O.O.o.+.8. . .8.[ 8.7.{ ] W W ! ` ( ( ] ( ] ] ' ( E E ' { 8.[ 8.{ 8.O. .{ 7.[ 8.8. . .7.O. .",
" .{ { o.| O.O.[ { [ { { 6.[ [ [ 7.) R E ( ` ( ` ( ! ` ) E R ( { 8.7.8._ {  .{ O.{  .[ [ {  .{  .{ { ",
"{  .] ] O.[ ] ] ] [ [ [ { [ | 8.| { ! C Q ( ! ( E ! ( Q C !  .8.{  . .{  . .6.{ [ 7.[ 8.{ {  .{  .[ ",
"] ( ( ( ] ] ( ( ( ( ] ] ] ( ] _ ] [ ] ( a R E E E E R C R 8.{ ] _ ] ] ( ] ( [ | _ _ ( _ } [  .[ ] ( ",
"] [ [ } [ [  .} ] ] ( { | [ [ [ ] ] [  .( N R Q ! W C R 8.o.{ [ ] } [ ] [ [ } [ ] ( ( ( _ ) ] ( ( { ",
"[ [ [ [ { [ [ [ [ [ [ _ | [ [ | { { [ [ [ ( T T C R E 8.O.|  .[ [ [ [ [ [ { { { | { [ _ | [ ] } [ [ ",
"[ { [ { { { { { [ { { { 6.[ [ [ { [ { { [ } ( T N E } { | { { [ { { { [ [ { { { [ [ { 8.{ { { [ { { ",
"[ [ [ [ [ { _ [ [ [ { { o._ [ [ ] { { { [ [ { T N _ O. .[ { [ [ [ [ [ [ [ [ _ { [ [ [ _ _ { { [ { [ "
};
