/* XPM */
static char *result[] = {
/* columns rows colors chars-per-pixel */
"50 100 189 2 ",
"   c #000001",
".  c #06080A",
"X  c #0E0E0D",
"o  c #050709",
"O  c #0B0F13",
"+  c #0D1115",
"@  c #0E1419",
"#  c #001F1F",
"$  c #001717",
"%  c #121211",
"&  c #1E1E1C",
"*  c #14191E",
"=  c #21211F",
"-  c #141B23",
";  c #181E26",
":  c #002E2E",
">  c #002020",
",  c #1D252D",
"<  c #1C2633",
"1  c #1E2B39",
"2  c #1F2A36",
"3  c #003C3C",
"4  c #242423",
"5  c #2F2F2C",
"6  c #222D3B",
"7  c #262B32",
"8  c #343432",
"9  c #3D3D3A",
"0  c #3E303E",
"q  c #42423F",
"w  c #253242",
"e  c #2A3645",
"r  c #2D3B4B",
"t  c #2C3748",
"y  c #2B3D52",
"u  c #353D44",
"i  c #533E53",
"p  c #004848",
"a  c #005C5C",
"s  c #0A595A",
"d  c #2E4155",
"f  c #314357",
"g  c #34465C",
"h  c #38495E",
"j  c #304D5E",
"k  c #3D4A4B",
"l  c #354C62",
"z  c #3B4C62",
"x  c #3A4F6C",
"c  c #3D526B",
"v  c #3E5267",
"b  c #3E5673",
"n  c #2E5D68",
"m  c #007C7C",
"M  c #007373",
"N  c #307D7D",
"B  c #41474B",
"V  c #4D4D4A",
"C  c #444443",
"Z  c #484557",
"A  c #564855",
"S  c #545453",
"D  c #5C5C56",
"F  c #5A5A57",
"G  c #4E5558",
"H  c #44586F",
"J  c #435974",
"K  c #425D7E",
"L  c #475B75",
"P  c #684C68",
"I  c #635871",
"U  c #5E646B",
"Y  c #4B627F",
"T  c #426178",
"R  c #596779",
"E  c #636262",
"W  c #696967",
"Q  c #6D6A6C",
"!  c #74746E",
"~  c #636B75",
"^  c #7C607C",
"/  c #756C74",
"(  c #707170",
")  c #7C7C75",
"_  c #7E7E79",
"`  c #63707F",
"'  c #82827C",
"]  c #455F80",
"[  c #456282",
"{  c #496585",
"}  c #4A668B",
"|  c #4D6A8C",
" . c #4F6986",
".. c #516D8D",
"X. c #546A85",
"o. c #4D7881",
"O. c #57708F",
"+. c #4E6B92",
"@. c #516E92",
"#. c #557294",
"$. c #5B7695",
"%. c #5D7896",
"&. c #56749A",
"*. c #59769B",
"=. c #5C7A9C",
"-. c #6A7583",
";. c #687688",
":. c #617995",
">. c #607C9E",
",. c #687C96",
"<. c #616F82",
"1. c #5677A1",
"2. c #5779A2",
"3. c #5C7CA2",
"4. c #5E7FA8",
"5. c #617EA2",
"6. c #825F82",
"7. c #9B789B",
"8. c #008A8A",
"9. c #068484",
"0. c #338888",
"q. c #12A8A8",
"w. c #00BABA",
"e. c #00B7B7",
"r. c #4E848E",
"t. c #6A819D",
"y. c #65839A",
"u. c #5F80A8",
"i. c #6481A6",
"p. c #6383AB",
"a. c #6985AB",
"s. c #6988AF",
"d. c #718BAC",
"f. c #6587B0",
"g. c #6788B1",
"h. c #6C8CB4",
"j. c #6E8FB8",
"k. c #708EB4",
"l. c #6F90B9",
"z. c #7090B7",
"x. c #7293BB",
"c. c #7697C1",
"v. c #7798C3",
"b. c #7A9BC4",
"n. c #00C2C2",
"m. c #00C9C9",
"M. c #00E6E6",
"N. c #00F6F6",
"B. c #00F8F8",
"V. c #8C8C84",
"C. c #888684",
"Z. c #909088",
"A. c #98988F",
"S. c #9B9B92",
"D. c #958F90",
"F. c #A3A39A",
"G. c #B88CB8",
"H. c #BC94BC",
"J. c #AC90AC",
"K. c #ACACA3",
"L. c #AFAFA8",
"P. c #B3B3AB",
"I. c #BABAAE",
"U. c #B2B2A7",
"Y. c #BABAB1",
"T. c #C1C1B9",
"R. c #CACABC",
"E. c #D098D0",
"W. c #DFA7DF",
"Q. c #D7A6D6",
"!. c #DFB5DB",
"~. c #E5ADE5",
"^. c #EEB6EE",
"/. c #CCCCC3",
"(. c #D2D2C9",
"). c #D9D9CB",
"_. c #D1D1C4",
"`. c #DDDDD1",
"'. c #E4E4D6",
"]. c #E6E6D9",
"[. c #E9E9DC",
"{. c #F8C0F8",
"}. c #EEDBE4",
"|. c #EEEEE0",
" X c #F6F6E6",
".X c #F8F8E8",
"XX c #F8F8E7",
"oX c #F3ECE5",
"OX c None",
/* pixels */
"c.x.x.c.c.c.c.c.v.v.v.c.c.c.c.c.v.c.c.v.v.c.j.f.u.c.j.c.c.j.j.j.v.v.c.c.c.c.c.v.v.v.v.c.c.c.l.c.c.OX",
"c.c.c.c.v.c.v.v.c.c.c.c.c.c.c.c.v.v.c.v.c.c.g.1.2.c.c.c.c.v.c.c.v.v.c.c.c.c.v.c.c.c.c.v.c.c.c.c.c.OX",
"c.c.c.c.v.v.c.c.v.c.c.c.c.c.c.c.c.c.c.c.c.f.2.1.2.2.j.c.v.c.c.c.v.v.c.c.c.c.c.c.v.v.c.c.v.c.c.c.v.OX",
"x.c.c.c.x.c.c.c.c.c.c.c.c.c.x.c.c.c.c.c.u.2.f.c.f.2.2.f.j.j.c.l.c.c.c.c.j.c.c.c.v.l.c.c.c.c.c.c.v.OX",
"h.h.j.j.j.x.j.h.h.j.x.c.x.c.l.l.j.x.j.f.2.f.j.h.f.4.2.4.f.j.j.h.j.c.x.j.h.c.h.j.l.h.l.l.l.l.j.z.h.OX",
"h.g.g.g.h.j.j.g.f.h.h.l.l.l.l.l.j.j.p.1.p.j.c.f.f.f.4.1.2.f.j.j.j.j.j.h.h.j.j.j.l.g.f.l.l.h.f.s.h.OX",
"c.l.j.h.h.j.l.j.j.j.j.j.h.j.x.l.j.f.1.4.v.j.f.f.4.p.f.2.1.2.h.c.x.c.x.h.j.l.c.c.x.j.l.x.x.l.z.z.x.OX",
"l.c.l.c.l.c.x.c.x.x.x.x.x.x.l t c 1.2.b.h.p.4.f.p.f.p.f.4.x 6 x l.c.l.c.x.c.j.j.x.c.x.x.x.x.x.x.x.OX",
"x.x.x.x.x.x.x.x.x.x.x.l.x.{ I A Z K b.g.p.5.f.u.f.f.f.5.J Z i Z J x.l.x.x.x.x.x.x.x.x.z.x.x.x.x.x.OX",
"x.x.z.z.x.x.z.x.x.x.x.x.x.@ G.~.6.; ..p.f.4.p.p.4.5.f...- P W.G.  h.l.x.x.x.x.x.x.x.z.x.z.x.x.x.x.OX",
"z.z.z.x.z.z.z.z.z.x.z.l.j.@ G.~.6.o   p.5.f.4.p.4.f.5.@   P W.G.  4.g.x.l.x.x.z.x.z.z.z.x.z.z.z.x.OX",
"z.z.z.z.z.z.z.z.z.z.l.l.g.&.U J.^.^.E.  o           o G.^.^.H.~ 2.&.E * 5 -.l.x.z.z.z.z.z.z.z.z.z.OX",
"z.z.z.z.z.z.z.z.k.j.j.h.&.- + S C./ Q _ ) _ ) _ _ _ _ / Q C.E X + 2.- 9.s t x.z.z.z.z.z.z.z.z.z.z.OX",
"k.z.z.k.h.z.z.z.h.j.p.&.1 F F ( V._ _ Z.Z.Z.Z.Z.Z.Z.Z.' _ C._ F F w o 8.a e z.z.z.k.z.z.z.k.z.l.z.OX",
"z.z.k.k.h.z.k.h.z.p. .l 8 ' Z.Z.Z.Z.Z.Z.Z.Z.Z.Z.Z.Z.Z.Z.Z.Z.Z.Z.Z.4 o 8.a 1 g.h.k.h.h.h.h.h.h.h.h.OX",
"a.a.s.s.a.h.g.g.4.@.v 8 Z.Z.Z.S.S.Z.Z.Z.Z.Z.Z.Z.Z.Z.Z.Z.Z.A.S.Z.Z.Q X 8.a 7 3.p.s.h.s.a.a.a.a.p.a.OX",
"i.i.p.p.p.s.s.u.&.l 8 /.Z.Z.Z.L.Y.Z.Z.Z.Z.Z.Z.Z.Z.Z.Z.Z.Z.L.Y.Z.Z.Z.% 8.a 1 +.2.p.f.a.p.p.p.i.p.p.OX",
"s.s.s.p.$.  *.#.r V `..X/.A.T.].|.Y.Z.(. X).K.K.`.XX_.A.T.].[.T.Z._.* 8.a 1 &.+.  *.a.a.s.h.g.a.a.OX",
"h.+ d X., S * O . D  X.X X/.[. X X|./.oX.X X`.). XXXoX/.]. X X[.R.oX= 8.a . O O S * #.z + e h.h.h.OX",
"s.8 C 1 X _ C X V I.XX.X.X|. X X.X X]. X.X.X|.|..XXXXX|.oX.X.X X[. X= 8.a * 9 9 _ X ; k 8 , s.h.s.OX",
"h.B 9 5 8 ! ) & ) XXXX.X.X.X.X.X.X.X.X.X.X.X.X.X.X.X.X.X.X.X.X.X.X X= 8.a % C ) ) 8 8 9 B H g.g.s.OX",
"f.e 4 W E E _ = ) .X.X.X.X.X.X.X.X.X.X.X.X.X.X.X.X.X.X.X.X.X.X.X.XXX& 8.a   = ' U D Q 8 6 p.h.a.g.OX",
"h.t 8 ) E W S * ) XX.X.X.X.X.X.X.X.X.X.X.X.X.X.X.X.X.X.X.X.X.X.X.X X= 8.a X = S E E ! C w 1.p.g.s.OX",
"f.@.g * E Z.%   ) .X.X.X.X.X.X.X.X.X.X.X.X.X.X.X.X.X.X.X.X.X.X.X.XXX& 8.a V S.  Z.W * r @.+.*.g.a.OX",
"+.+.i.#.] % Y.5 ) .X.X.X.X.X.X.X.X.X.X.X.X.X.X.X.X.X.X.X.X.X.X.X.XXX= 8.a V S.  % K O.@.*.@.+.+.#.OX",
"| +.p. .4 I..X9 ) .X.X.X.XXXY.! ) .X.X.X.X.X.X.X.X.X.X.X.X.X.X.X.X X& 8.a S U.  I.u K $.&.&.+.+.+.OX",
"1.+.&.J = XX.X9 ) ]._..XXXXX_.F.) S..X.X.X.X.X.X.X.X.X.X.X.X.X.X.XXX& 8.a D I.  .X= J &.@.| &.5.2.OX",
"a.&.+.b = .X.X9 ! R.F.[.XXXX}.}.D.u .X.X.X.X.X.X.X.X.X.X.X.X.X.X.X.X= 8.a D I.   X; J &.+.&.5.k.p.OX",
"a.a.&.x = .X.XD W P.F./. XoX!.^.7.9 .X.X.X.X.X.X.X.X.X.X.X.X.X.XXXXX= M s D Y.= XX& H +.@.a.k.i.a.OX",
"a.5.a.L & .X.X.X) D `.Z. XQ.^.^.7.9 .XXX.X.X.X.X.X.X.X.X.X.X.X.XXXXX&   P 6.q .X X= x | d.a.a.a.a.OX",
"5.5.a.L & .X.X.X) D |._.  W.{.^ 8 K.XXXX.X.X.X.X.X.X.X.X.X.X.X.X.XXX=   ^ 7.9 XXXX= x k.a.a.i.a.i.OX",
"a.p.i.>.X.9 )..X) D XX|.S.A 0 S S.].XXXX.X.X.X.X.X.X.X.X.X.X.X.X.XXX=   ^ 7.9 XX9 g >.a.p.p.i.i.i.OX",
"a.5.5.5.=.H S ).R.) V..X[.F.S.P.`..X.X.X.X.X.X.X.X.X.X.X.X.X.X.X.XXX& a n / ) D g *.a.5.5.a.5.5.5.OX",
"5.a.5.5.5.5.t ( S.D 9 XX.XXXXX.X.X.X.X.X.X.X.X.X.X.X.X.X.X.X.X.X.X X= 8.a 9 C.6 5.d.5.5.5.5.5.5.5.OX",
"5.5.5.5.5.5.5.t , + 9 |..X.XXXXX[.I.I.I.'. X.X.XXX[.I.I.Y.)..X.X.X X= 8.a o 6 5.a.5.5.5.5.5.5.5.5.OX",
"&.3.&.$.$.5.=.=.*.f 8 (..X.XXXXXS.      Y.[..XXX X(.      ) .X.X.XXX& 8.a < a.p.>.*.3.&.5.5.*.&.5.OX",
"5.5.3.:.=.*.=.5.i.=.J   XX.X.X) D .X.X.X&            X.XXX) D .X X X& 8.a e 5.>.5.5.3.$.*.*.=.5.5.OX",
"5.5.5.5.5.5.3.5.i.=.L   (. X.XL.S..X.X.X).).).).).)..X.XXXL.S..X.X(.& 8.a 6 5.>.=.5.5.>.=.=.5.5.5.OX",
"5.5.5.5.5.5.-.-.-.-.<.z V [..X).P.P.'..X.X.X.X.X.X.X.X'.L.P.(.XX XV X 8.a 5 -.-.5.5.5.5.5.5.3.5.5.OX",
":.3.5.5.5.y.-.-.` -.;.5.6 Z.[.XX).L.`..X.X.X.X.X.X.X.X'.P._.XX).S.6 o 8.a 7 ` -.>.5.=.>.>.5.y.>.5.OX",
"5.3.>.>.>.>.>.>.>.>.>.y.:., Z.)..X.X.X.X.X.X.X.X.X.X.X.X.X.X[.Z.- :.% 8.a 6 >.>.>.>.>.>.>.>.>.>.5.OX",
"3.:.>.>.=.>.>.=.>.=.>.=.( :., ) .X.X.X.X.X.X.X.XXXXX.X.X.X.XA.- 5.Q X 8.a 6 >.>.>.>.=.:.>.>.=.>.5.OX",
">.:.=.>.>.:.>.>.;.( ( ( 3.>.>.r   8 /..X.X X.X.XXXXX.X(.8   < =.>.5.O 8.a 6 =.3.=.>.>.=.>.=.>.=.>.OX",
"*.>.=.=.=.=.&.$.$.%.%.%.=.=.%.$. .f & = & L.Y.P.F.= ; & v J ..>.>.:.O 8.a 6 =.:.%.=.>.=.=.%.=.=.:.OX",
"$.$.$.$.=.%.#.#.#.$.$.$.#.$.*.*.$...d y y k q 9 G d f y J O.5.=.%.%.O 8.a 7 =.=.%.=.$.%.$.=.>.=.=.OX",
"@.| ..#.#.#.....| #.$.#...#.$.#.$.#.#.{ ] y w w d { [ T ..i.#.{ t t o p : @ r r $.$.$.*.#.$.r.$...OX",
"$.$.$.#.$.$.%.$.#.$.&.r.$.#.$.#.#.$.*.$.{ K [ | | [ T #.y.=.@.g : : 3 p 3 3 : : c  ...#...| | ..$.OX",
"$.=.$.%.*.*.$.$.$.$.%.$.$.$.$.$.$.$.$.$.$.{ [ K [ ] %.>.=.#.l 3 n.n.M.B.B.M.n.w.$ H $.$.$.$.$.&.*.OX",
"$.%.%.%.$.$.%.%.%.$.$.%.$.%.$.$.$.$.%.$.&.#.} K ] @.:.>.:.r p n.B.B.B.B.B.B.N.N.e.$ H $.$.$.%.$.%.OX",
"$.$.$.$.$.$.$.$.$.$.$.%.$.$.$.$.$.$.$.$.$.%.@.b ] >.=.%.:.t a M.n.> > m.8.> p n.N.> H $.$.$.$.$.$.OX",
"c.x.x.l.c.v.v.c.x.b.c.c.c.x.x.b.v.c.c.v.v.c.j.f.5.c.j.l.c.g a n.: $.@ w.m 2 L : N.# $.x.x.v.l.c.x.OX",
"v.c.c.c.c.c.v.v.b.c.c.c.c.v.x.b.v.v.c.v.c.x.g.2.4.l.v.v.v.x a w.  x.@ w.m r $.  N.# O.v.v.b.c.b.v.OX",
"c.c.c.c.c.c.c.v.b.v.c.c.v.v.c.c.c.v.c.v.c.f.2.1.2.2.c.c.c.z a w.  v.% w.m t O.  N.> O.v.b.c.c.c.v.OX",
"c.c.c.c.x.c.c.c.x.x.c.b.x.c.c.c.c.v.c.c.u.2.f.c.4.2.2.f.j.l a w.  v.@ w.m t $.  N.> O.x.c.x.c.c.c.OX",
"h.h.j.l.l.l.l.h.j.l.x.x.v.x.l.l.l.l.l.f.2.g.l.j.g.4.2.4.4.z a w.  x.@ w.m e ..  N.# ..x.j.j.z.h.h.OX",
"h.g.g.g.h.l.l.g.g.g.j.l.l.l.l.l.j.g.f.1.u.c.l.f.g.f.4.1.5.y a w.  x.@ w.m e ..  N.#  .k.j.j.s.s.h.OX",
"x.x.z.z.j.z.z.z.l.j.j.j.j.z.l.l.j.f.1.4.v.j.f.p.f.u.p.4.*.T N q.C c.G q.0.<.t.V m.G :.x.x.l.z.x.x.OX",
"x.x.z.x.l.x.x.x.x.l.x.x.x.l.x.x.f.1.1.b.j.p.p.p.u.f.p.f.u.$.Y r.t.x.t.o.r.s.z.t.N y.k.x.x.x.x.x.c.OX",
"x.x.x.x.x.x.x.x.x.x.x.x.x.x.x.f.1.1.v.f.u.p.f.p.f.p.p.p.i.u.X.R h.x.x.~ ;.x.x.x.U d.x.x.x.x.x.x.x.OX",
"x.x.z.x.x.x.x.x.x.x.l.l.x.l.u.2.2.c.j.f.u.u.u.f.f.u.p.p.u.p.$.R 4.h.x.;.t.x.x.x.Q z.x.x.x.x.x.x.x.OX",
"x.z.z.x.z.z.z.x.l.x.l.l.l.u.1.u.g.j.u.p.u.f.u.p.u.f.u.u.f.4.p.4.1.4.g.l.x.z.x.z.z.z.z.z.x.z.z.x.z.OX",
"z.z.z.z.z.z.z.z.z.l.l.l.h.1.3.l.c.u.u.u.u.u.u.u.u.u.u.p.p.4.p.4.1.1.2.h.x.x.x.z.z.z.z.z.z.z.z.k.z.OX",
"z.z.z.z.z.z.z.z.z.z.j.g.&.1.c.h.u.p.u.u.p.u.p.p.p.p.p.p.f.4.4.f.5.4.&.2.z.z.z.z.z.z.z.z.z.z.x.z.z.OX",
"z.k.z.z.h.z.z.z.j.z.u.&.&.b.g.u.u.4.p.p.u.p.u.u.u.u.u.u.5.p.4.4.5.4.1.&.1.h.z.z.z.z.h.z.z.h.z.h.k.OX",
"k.k.z.z.k.h.z.k.j.5.1.1.x.p.u.i.u.i.i.u.u.u.u.u.u.=.u.u.u.u.u.*.3.3.*.&.&.&.h.h.h.h.z.h.h.k.h.k.h.OX",
"s.p.s.s.s.s.s.s.5.*.1.h.a.3.4.5.4.2.3.4.2.u.u.=.u.&.*.u.*.*.u.2.1.=.1.*.&.&.3.u.f.h.s.f.s.s.u.s.s.OX",
"u.p.p.p.u.s.s.u.&.2.f.j.2.2.*.2.3.2.&.3.*.*.*.*.*.&.*.&.u.*.&.*.1.1.1.1.&.&.+.2.i.f.f.i.u.p.p.u.u.OX",
"p.s.s.p.s.h.f.+.&.g.h.4.p.3.3.*.2.*.*.2.u.2.2.&.u.u.2.u.u.*.u.2.1.3.5.4.1.1.&.+.=.s.p.f.s.k.s.p.s.OX",
"s.h.h.g.h.f.#.#.l.g.5.5.4.5.5.5.3.u.3.u.=.u.3.u.3.u.u.3.u.*.u.u.5.4.3.5.4.5.4.&.@.&.h.g.h.h.k.h.h.OX",
"s.h.s.s.u.#.+.l.4.5.5.4.3.2.4.2.3.3.u.3.3.3.u.=.3.3.=.u.1.u.4.r.3.3.3.3.3.3.3.3.1.+.*.g.g.g.s.g.s.OX",
"s.h.f.u.1.&.h.f.3.3.3.3.3.4.2.5.3.3.u.3.=.u.=.u.3.=.2.3.=.3.2.3.3.3.3.3.3.3.3.3.2.&.+.*.s.s.s.s.s.OX",
"s.s.u.&.&.u.h.r.3.3.3.3.3.2.5.2.3.3.=.3.3.3.2.3.3.3.3.3.3.3.3.3.3.3.3.3.3.3.3.3.u.2.&.+.u.u.s.s.h.OX",
"h.u.$.&.5.x.5.5.3.5.2.3.*.5.2.5.3.3.3.2.3.3.3.3.3.3.3.=.2.3.3.3.3.3.3.3.3.3.3.3.3.3.2.@.@.2.5.g.s.OX",
"s.+.&.u.4.1.*.*.2.*.2.3.1.5.5.*.3.3.3.*.=.3.1.2.3.3.2.3.3.3.2.=.1.3.3.*.*.3.3.1.1.3.3.1.@.+.3.g.a.OX",
"+.@.g.u.&.&.*.&.&.&.*.*.&.1.5.*.@.*.&.&.&.&.&.&.&.*.&.&.2.&.=.*.&.*.*.*.&.1.5.*.$.&.*.&.2.&.@.+.#.OX",
"+.| p.3.&.&.&.&.@.&.&.&.&.@.&.&.*.*.*.&.*.&.@.&.*.*.&.&.&.#.&.&.+.&.&.&.@.&.&.@.#.1.1.@.&.@.+.+.+.OX",
"2.+.1.&.1.&.*.*.*.&.*.*.&.&.1.*.*.=.1.*.1.*.&.$.*.*.*.&.&.&.&.*.*.&.*.*.*.*.*.1.*.*.*.&.#.+.&.5.3.OX",
"p.*.+.@.&.3.*.1.*.1.*.1.1.*.*.*.*.1.3.*.=.1.=.3.3.2.*.1.*.=.*.1.*.*.*.*.*.*.*.*.3.3.3.#.@.*.5.k.p.OX",
"a.a.&.| @.*.*.*.*.*.5.*.*.=.=.*.*.3.*.*.=.*.=.*.*.=.*.=.*.=.2.=.3.*.*.5.*.*.*.*.*.*.*.+.@.5.k.5.a.OX",
"p.a.p.$.} +.*.*.1.*.*.*.*.*.*.*.*.*.=.*.*.*.*.=.&.&.*.=.*.*.*.*.*.*.*.*.*.*.*.*.*.&.+.} h.h.a.f.a.OX",
"4.5.5.5.*.} } *.*.=.*.&.=.&.&.*.$.$.&.*.$.*.*.*.*.*.*.*.*.*.*.*.*.&.*.&.*.*.*.*.&.+.+.h.4.4.7.5.i.OX",
"d.d.4.d.5.1.+.+.*.&.&.#.&.&.&.&.&.*.&.&.&.$.&.#.*.#.#.*.*.#.&.$.&.$.&.$.&.&.1.@.| @.5.a.k.5.g.f.i.OX",
"5.5.4.5.5.5.&.} +.&.&.&.&.$.$.&.&.&.&.$.&.&.&.*.&.*.#.&.&.&.*.&.&.&.$.*.&.$.@.| &.5.h.5.5.4.5.5.i.OX",
"4.5.4.5.5.4.5.} } +.#.&.#.*.#.&.&.@.&.&.#.&.&.&.&.#.&.#.@.&.&.$.&.$.&.@.&.@.| @.5.k.5.5.5.5.5.5.i.OX",
"5.5.5.5.5.5.5.5.+.} } #.@.@.@.@.| @.&.@.@.#.@.@.@.#.@.@.@.&.#.#.&.@.@.@.@.} | 5.5.5.5.5.5.5.5.5.i.OX",
"5.=.*.*.#.5.5.5.=.+.} } +.+.@.@.@.@.+.} @.} @.@.+.+.+.@.@.@.#.@.@.@.@.@.@.} a.i.5.5.*.&.=.*.*.*.#.OX",
"5.5.>.>.*.*.*.5.5.5.&.] } +.&.#.@.@.&.#.@.@.@.@.@.@.@.#.@.+.+.+.@.@.@.} } i.5.=.5.5.*.&.=.*.*.5.5.OX",
"5.*.5.5.5.5.5.5.5.5.*.&.} } @.#.$.&.#.#.@.&.@.@.@.O.@.&.@.@.@.@.@.@.} | =.a.5.=.5.5.5.5.=.=.5.5.i.OX",
"5.5.5.5.5.5.5.5.5.5.5.=.+.} | #.+.#.#.+.#.#.#.#.@.&.#.&.#.#.#.#.#.} } $.a.u.5.5.i.5.5.5.5.5.5.4.5.OX",
">.>.>.5.>.>.>.5.5.>.>.>.>.| { | #.#.#.#.#.+.#.#.@.O.#.#.@.#.@.O.{ { $.a.y.=.>.i.=.>.5.=.>.>.=.y.>.OX",
">.>.>.>.>.>.>.>.=.5.=.u.=.>.| { { #.#.#.+.#.#.#.@.#.@.@.@.O.@.] { =.i.=.=.=.y.>.>.>.>.>.>.>.i.=.>.OX",
"*.>.>.>.>.>.=.>.y.=.>.=.>.>.=.| [ { #...#.....#.#.@.@.O.@.@.} } =.u.y.u.3.>.3.=.=.>.>.>.=.>.=.=.=.OX",
"=.=.=.>.=.=.5.5.=.y.=.y.=.>.=.$...[ | ....@...#.....#.....{ ] =.y.*.=.*.=.=.=.=.>.>.=.=.*.=.=.y.=.OX",
">.:.=.>.=.:.$.$.*.$.*.*.%.=.>.=.&.{ N | ............| | { { #.5.u.y.*.y.=.y.*.y.=.=.=.:.y.*.=.%.>.OX",
"$.$.#.:.$.$.#.#.$.$.$.$.#.$.%.%.=.$.] ] | ..| | | | | { { O.5.:.$.$.$.$.*.%.$.*.$.$.%.=.$.*.=.*.$.OX",
"@...@.@.#.O.@.O.....#.$...#.#.#.#.@.$.{ b { { { { { [ [ ..i.$.#.O.#.#.#.#.#.=.$.#.$.$.%.$.$.%.$...OX",
"$.%.#.$.%.$.$.#.$.#.$.$.$.$.$.#.#.$.$.$.[ [ [ | | [ [ #.5.=.=.#.#.$.$.#.$.$.$.$.#.....#.........*.OX",
"&.%.%.&.%.%.$.$.#.$.$.$.$.$.$.=.$.$.%.$.#.{ [ T [ T $.3.:.=.%.$.$.=.$.$.%.%.$.$.$.$.$.%.$.$.$.$.%.OX",
"$.$.%.%.:.$.$.$.$.%.%.%.$.%.$.$.$.%.$.$.%.#.{ K ] #.:.=.$.$.%.%.%.%.$.$.$.$.%.$.$.%.$.%.$.$.$.$.%.OX",
"$.$.$.$.$.$.$.$.$.$.$.$.$.$.$.$.$.$.$.$.$.$...K ] :.=.=.$.$.%.%.$.$.$.$.$.$.$.$.$.$.$.$.$.$.$.$.$.OX"
};
