/* XPM */
static char *result[] = {
/* columns rows colors chars-per-pixel */
"50 100 230 2 ",
"   c #000000",
".  c #050306",
"X  c #170102",
"o  c #0B130F",
"O  c #040419",
"+  c #270C0D",
"@  c #012D1C",
"#  c #2F2B17",
"$  c #00062F",
"%  c #0B2423",
"&  c #082626",
"*  c #092D2E",
"=  c #172929",
"-  c #00343D",
";  c #00383E",
":  c #2A2927",
">  c #2D2B2F",
",  c #38362C",
"<  c #282933",
"1  c #383936",
"2  c #41352F",
"3  c #1E403C",
"4  c #49473E",
"5  c #504B39",
"6  c #000D4C",
"7  c #003940",
"8  c #16324F",
"9  c #393A44",
"0  c #362053",
"q  c #2F3353",
"w  c #460054",
"e  c #493B49",
"r  c #482750",
"t  c #543D63",
"y  c #134B4D",
"u  c #175353",
"i  c #334E52",
"p  c #39465A",
"a  c #255756",
"s  c #375368",
"d  c #3C5475",
"f  c #006B66",
"g  c #2E6666",
"h  c #367373",
"j  c #484545",
"k  c #4F4D53",
"l  c #585855",
"z  c #5B5C5B",
"x  c #63555E",
"c  c #63625B",
"v  c #6B735E",
"b  c #454C66",
"n  c #45556A",
"m  c #56576E",
"M  c #565969",
"N  c #475976",
"B  c #4C5C74",
"V  c #4B5E7B",
"C  c #675968",
"Z  c #5C6369",
"A  c #4C627E",
"S  c #57667C",
"D  c #517075",
"F  c #626363",
"G  c #6B6B64",
"H  c #6B6C6C",
"J  c #6D7266",
"K  c #72726C",
"L  c #74796D",
"P  c #686A7A",
"I  c #746C73",
"U  c #737472",
"Y  c #7C7B75",
"T  c #7B7A7A",
"R  c #83657F",
"E  c #1C807C",
"W  c #83837E",
"Q  c #868A7E",
"!  c #3C5B85",
"~  c #485F82",
"^  c #4E6383",
"/  c #4A648A",
"(  c #526583",
")  c #556985",
"_  c #5D6A83",
"`  c #526689",
"'  c #556A8C",
"]  c #596E8D",
"[  c #5B708E",
"{  c #486791",
"}  c #566D92",
"|  c #596E91",
" . c #556F99",
".. c #567194",
"X. c #5D7293",
"o. c #5D759B",
"O. c #5D769D",
"+. c #63738B",
"@. c #6A738B",
"#. c #617695",
"$. c #647996",
"%. c #6B7B95",
"&. c #617799",
"*. c #647A9C",
"=. c #697D9D",
"-. c #5E7BA4",
";. c #657DA1",
":. c #697EA1",
">. c #627FA8",
",. c #84678A",
"<. c #857487",
"1. c #8F7894",
"2. c #9F7AA5",
"3. c #3D8384",
"4. c #479798",
"5. c #6E8B8A",
"6. c #6C809E",
"7. c #798497",
"8. c #73849D",
"9. c #6B81A5",
"0. c #6682AA",
"q. c #6C84AA",
"w. c #6F88AD",
"e. c #7285A5",
"r. c #7789A3",
"t. c #798AA5",
"y. c #7187AA",
"u. c #7289AD",
"i. c #7B8DAA",
"p. c #7F91AE",
"a. c #6C89B3",
"s. c #758DB2",
"d. c #788FB3",
"f. c #728EB9",
"g. c #7790B6",
"h. c #7991B5",
"j. c #7691BA",
"k. c #7C94BB",
"l. c #7F98BE",
"z. c #49AAAA",
"x. c #54ABAC",
"c. c #55AEB1",
"v. c #5AB1B2",
"b. c #57B6B8",
"n. c #76BAB9",
"m. c #7F9BC2",
"M. c #5CBDC0",
"N. c #5ECDCE",
"B. c #63CDCF",
"V. c #67D6D7",
"C. c #6CDEE0",
"Z. c #6DE8EA",
"A. c #74EBED",
"S. c #76F2F4",
"D. c #79F7F9",
"F. c #868782",
"G. c #8C8C85",
"H. c #8F8F89",
"J. c #909386",
"K. c #92928B",
"L. c #988A97",
"P. c #999892",
"I. c #9C9C94",
"U. c #A3A49A",
"Y. c #A6A69C",
"T. c #828BA3",
"R. c #8995A7",
"E. c #8995A8",
"W. c #8A95AA",
"Q. c #8295B5",
"!. c #8499BB",
"~. c #879ABB",
"^. c #959EB0",
"/. c #AA92AB",
"(. c #B38DB7",
"). c #97A0B2",
"_. c #93A0B7",
"`. c #9BA4B5",
"'. c #9CA7B9",
"]. c #9FA9BD",
"[. c #A5A6A2",
"{. c #ACACA3",
"}. c #B2B1A5",
"|. c #B3B3AC",
" X c #BAB9AD",
".X c #A0AABE",
"XX c #ADB4BF",
"oX c #BBBBB2",
"OX c #BCBCB6",
"+X c #C4C2B5",
"@X c #C4C4BB",
"#X c #CBCBBD",
"$X c #849BC0",
"%X c #8A9EC1",
"&X c #BF97C6",
"*X c #8FA2C2",
"=X c #92A4C3",
"-X c #9EABC2",
";X c #A1ADC3",
":X c #A4B1C6",
">X c #A6B3CB",
",X c #A8B5CE",
"<X c #B2BDD1",
"1X c #CB9DD2",
"2X c #C7A4CC",
"3X c #D4AADB",
"4X c #DCB3E2",
"5X c #E4BAEA",
"6X c #EABFF0",
"7X c #8CECEE",
"8X c #C7C7C1",
"9X c #CBCBC1",
"0X c #D2D2C5",
"qX c #D5D5CA",
"wX c #DBDBCE",
"eX c #D8C3D5",
"rX c #DCDBD2",
"tX c #E3E3D6",
"yX c #E4E4D9",
"uX c #E7E8D9",
"iX c #EAEADD",
"pX c #EEF0DF",
"aX c #F5C9FB",
"sX c #EDEDE1",
"dX c #F3EBE8",
"fX c #F5F5E7",
"gX c #F7F7E8",
"hX c #F8F8E9",
"jX c #FBFCEC",
"kX c #FFFFF2",
/* pixels */
"-X*X=X*X=X=X=X=X=X=X=X=X=X=X=X=X=X=X=X=X=X=X=X~.Q.*X=X*X*X=XQ.F 7X5.T.T.5.7XZ ~.@.n.C.x =X=X%X=X%X<X",
"$Xf.j.j.f.f.k.f.j.k.j.j.k.f.f.m.j.f.k.f.f.m.f. . .q.k.h.f.m.q.  Z.3.` ] f Z.. s.0 z.V.. m.f.f.m.a.,X",
"%Xj.l.l.l.l.k.k.m.k.k.k.k.k.k.m.Q.l.l.k.k.h.>.;.;.;.a.!.k.l.s.< Z.E $.=.h A.3 k.t c.C.+ m.k.!.Q.f.,X",
"%Xj.k.k.j.k.k.k.k.k.k.k.k.k.h.j.k.k.j.j.s.>.&.k.>.;.;.>.d.j.q.= Z.b.n + g Z.  w d V.V.+ f.k.k.m.f.,X",
"Q.w.s.s.s.f.d.s.a.s.h.h.h.h.j.d.d.d.f.s.:.O.g.k.s.:.;.;.>.s.:.o B.C.b.4.b.S.z.4.N.C.b.+ g.g.s.s.>.:X",
"h.q.w.q.w.w.s.u.q.q.u.s.j.d.d.s.u.s.w.;.-.s.$Xq.:.>.:.;.;.a.:.p 4.C.S.S.D.S.D.S.S.B.E k u.u.q.y.-.-X",
"!.f.h.s.u.u.d.d.s.s.a.s.a.u.s.j.s.s.;.o.u.!.:.9.a.:.:.>.o.o.s.h.: 4.v.N.S.S.S.M.b.3.q k.k.g.s.h.a.>X",
"~.d.h.h.d.f.j.d.h.d.h.h.h.h.h.d.d.;. .f.!.>.u.s.u.a.:.w.:.o.o.>.s.s @ a g a g y @ D d.g.g.g.h.h.a.,X",
"!.s.g.g.g.h.h.h.h.j.d.h.h.g.h.d.;...d.k.a.s.X.8 s q ;.a.w.q.o.O.u.=.[ b @ {   S [ 6.k.g.h.h.g.h.>.>X",
"!.s.h.d.h.d.d.d.d.d.h.h.d.j.s.;...g.k.] ~ ~ P v j L A ~ ~ } 9.*.O.u.m.+.a v.* r.l.h.s.h.d.h.s.h.a.:X",
"!.s.d.d.s.s.s.h.d.d.u.u.i.u.;. .q.i.*.j k 4 P.qX[.rXU 5 5 M ;.&.&.O.s.) y x.% :.p.s.g.s.d.d.s.h.a.:X",
"Q.s.d.s.i.d.s.s.s.8.I U U *. .s.9.  O @XiXfXpXpXfXfXfXfXyXU.  O *.O.;.( u c.% :.g.s.s.s.s.s.s.s.w.:X",
"!.s.s.s.s.u.s.s.s.i.e.y.*.H p.{ U uXwXiXfXhXhXhXfXfXfXhXfXyXrXwX9 { %.k a c.% :.h.u.s.s.s.s.g.g.>.:X",
"Q.w.g.u.s.s.s.s.f.f.g.;. .t.A @.qXkXjXjXhXfXfXfXfXfXfXfXfXjXkXhX+XS ^ m u c.% :.g.g.s.s.g.u.i.d.a.:X",
"Q.u.i.s.s.u.i.e.8.8.$.+.u.6.K #XkXsXqXuXfXhXfXfXhXfXfXhXfXtXwXhXkX}.P p a x.% @.r.e.s.i.u.u.s.s.>.:X",
"h.0.w.q.q.w.w.@.K U J T u.$ 0XkXfXtXT @XfXfXfXfXfXfXfXhXsX|.F.sXfXkX}.  g x.% G K %.u.q.q.q.q.y.>.;X",
"i.9.9.q.9.q.q.9.*...9.e.< |.iXjXqXK.fXfXfXfXjXjXjXjXjXgXfXfXuXF.iXhXtXP.y c.% ' 9.e.q.9.9.0.9.q. .;X",
"p.0.u.0.9.y.w.6...*.k.9.  rXhXjX8Xj kXkXkXoXl G G G z wXkXjXiX  iXhXjX X; v.% ^ o.q.q.0.y.u.y.y.-.;X",
"h.q.y.u.w.w.*.} 9.k.$.n H.iXhXhXyX{.Y.Y.{.K.K.{.{.{.G.I.{.Y.Y.|.sXhXjX@X- v.= } X...w.u.y.u.u.u.>.;X",
"Q.q.y.u.u.;.' 9.6.[ d 5 rXfXhXfXjXpXG J z |.fXkXjXjXiXI.c c J.jXhXfXjX+X- v.% B *...X.q.u.q.y.u.;.;X",
"h.q.u.u.*.} ;.u.B + o l fXhXfXgXfXfXjXjXjXhXfXfXfXfXfXjXjXjXjXfXhXfXjX+X- v.< X ) -.{ o.9.u.y.u.-.;X",
"Q.q.q.*...*.l.$ {.kX#X. pXhXjXjXjXhXfXfXfXhXfXfXfXgXfXfXfXfXfXgXhXfXjX+X7 v.  uXK.8 q.' O.:.u.y.>.;X",
"p.9.;.} &.d.6 }.fXqXK.qXfXiXY.v J.#XhXhXgXfXgXfXgXfXfXfXfXfXfXfXfXfXjX@X  D 2XL.+XI.6 >.} o.q.y.-.;X",
"h.O.} &.u.( P.sXkX}.c kXuXU.1.2.@.v 0XfXhXfXgXfXfXfXgXgXfXfXgXfXhXhXjX@X  e aXw #XyXF.~ X.} X.y.;._.",
"8.' &.d.' # fXhXjXoXJ hX@XG 2XaX3Xk R pXhXhXhXhXfXhXfXfXfXfXgXgXfXfXjX#X  j 5Xt +XkXqX  *.o.] #.{ ).",
"%.^ &.s.( 1 iXfXjX XK fXK.pXeX3XaX4X, pXhXfXfXfXfXfXhXfXgXfXfXfXfXfXjX@X  e 2Xr +XkX0X. &.X.} ] ! ^.",
"i.} } ;.' 1 iXkXY.R OXU.@XsXhXeX1X4X, uXjXfXfXfXfXfXfXfXgXfXfXgXfXfXjX+X* x.9 rXK. XwX  &.' } e. .^.",
"Q.;.| } ` 1 iXkXJ.H.tXW iXfXhXsXdXyX  uXhXfXfXhXfXhXfXfXfXgXfXfXfXfXjX+X7 v.  iXG.Y.rX  X.] :.h.;.'.",
"i.;.:.&.~ , sXkXJ.I.gX+XgXhXhXuX0X XU.pXhXhXfXfXfXhXgXfXfXgXgXfXfXfXkX+X7 v.  iXG.}.tX. ] :.Q.:.O.;X",
"Q.;.:.:./ e qXjXP.J.jXhXgXfXjX0XK R jXhXfXhXfXhXfXfXfXfXfXfXfXgXfXfXjX+X7 v.  tXG.P.#XO :.s.:.y.-.'.",
"i.:.:.:.:.]   tXI.J.jXfXfXfXfXgXhXhXfXfXfXfXfXfXfXfXfXfXgXfXfXfXfXfXjX+X; v.O +XF.  9 :.u.:.:.y.o.;X",
"i.*.y.| = P W K   U.jXgXfXgXgXfXhXhXfXfXhXfXhXfXfXhXfXhXfXgXgXfXfXfXkX+X- v.. #XF.j F.M q :.:.:.;.'.",
"i.0._ M J F T l   U.jXfXfXhXfXfXfXfXfXgXgXfXfXfXfXhXfXhXhXfXhXfXfXfXjX+X; v.& Y c z U c K n $.e.O.'.",
"i.q.n 2 F.F z T : I.kXfXfXfXfXfXfXgXfXfXfXfXgXfXfXfXfXfXfXfXfXfXfXfXkX+X; v.=   z K z H F.X ] y.o..X",
"i.6.B , z z F F.1 I.jXfXfXhXfXfXgXfXfXfXfXfXfXfXfXhXfXfXfXfXfXfXfXdXjX+X- v.= . Y W F z l , ( e. ..X",
"r./ U Y   > F.T   U.kXfXfXfXfXfXhXfXgXfXfXgXfXfXfXfXhXfXfXhXfXfXfXfXjX+X- v.% z F T Y   o G.j n } ).",
"t.X.# b (   H 4   # U.jXfXhXyXiXjXfXhXrXfXfXfXfXrXfXfXhXsXtXhXfXjXrXfX@X- v.% +   l c   ' j   S O.`.",
"i.=.B ) =.B 1 n ( 6 c iXfXsXoX@XsXfXyX|.qXfXfXqX|.tXfXfX@XOXsXfXiX|.qXoX; v.% b V k 9 ( *.V n +.-.'.",
"i.=.e.9.6.9.p X.u.] F |.iX8XK.P.0XiXoXH.[.qXqX{.G.oXwX9XI.K.8XiX@XH.{.P.y c.% +.u.( n e.:.9.0.9. ..X",
"e.*.=.=.6.6.6.6.=.9.[ > +XP.G.G.U.@XF.H.H.F.F.H.H.G.F.F.J.G.P.8XK.G.K.c y c.% [ 6.=.9.=.=.=.=.6. ..X",
"t.=.=.=.=.=.*.6.=.=.=.#.: Q K.G.H.K.H.H.H.H.H.H.H.J.H.H.H.H.H.K.H.H.T j a c.% +.9.*.=.=.=.=.=.6.X.`.",
"e.*.=.=.*.=.6.*.=.=.*.=._ i Y P.H.H.K.K.H.G.H.H.J.J.H.H.H.K.K.H.K.P.G   a x.% [ 6.=.=.=.=.=.*.6. .`.",
"t.$.=.=.$.6.*.*.=.=.=.%.%.B z c U F.K L J.K.H.K.J.J.J.P.F.J L F.G c Z q a b.@ ] 6.=.*.*.=.$.=.=.} `.",
"t.$.*.$.6.$.$.$.$.$.$.*.$.=.N   C [.1.<.T Y T Y Y Y Y R T <.L./.1 O ) ) i 4.> +.6.$.=.$.=.$.$.6...`.",
"7.X.$.$.X.6.X.[ #.+.$.$.X.+.$.S /.aX6X1Xx . O . . . O   ,.4X6X5X<.+.#.+.l X F $.X.$.$.6.$.$.*.$.' ).",
"8.) [ [ X.X.[ [ ] ] #.X.] #.- /.5X(.e > b ~ A ^ A ( A A b + x &X5XI s #.] ] +.#.X.X.[ $.X.X.#.5./ ^.",
"8.X.[ [ $.$.$.$.+.[ #.#.$.=.  (.6X(.  B ] A ^ ' [ ) A ] =.q r 1XaXR i *.+.*.#.#.X.[ [ [ [ ) [ [ ' `.",
"8.X.6.X.$.$.$.$.#.#.#.$.$.$.d 1.(.,.n $.$.] V A A V ) =.9.X.m 1.(.@.~ &.$.$.$.$.$.$.$.$.$.$.$.$.' `.",
"r.X.5.$.$.$.+.$.$.$.$.$.$.$.6.n   8 %.$.#.#.] V V _ *.%.@.&.X.%   ) =.#.+.$.$.$.%.$.$.$.$.$.$.%.' `.",
"7.X.$.X.#.$.$.$.$.$.$.$.$.+.$.$.=.%.%.%.$.$.&.` ( #.=.#.&.&.#.$.=.%.$.$.%.$.$.$.$.$.$.$.$.$.#.%.' `.",
"!.g.j.g.j.k.k.k.k.k.k.k.j.g.k.h.j.j.k.k.h.j.h.:.>.f.h.d.s.j.f.s.k.!.j.k.j.j.j.j.h.k.k.j.h.h.g.j.a.>X",
"%Xk.l.l.l.k.k.k.k.k.k.k.l.l.l.k.k.m.k.k.!.k.f.>.&.u.k.m.k.$Xk.$Xk.k.l.k.l.!.m.k.k.k.k.l.l.k.l.l.f.>X",
"%Xj.k.k.k.k.k.k.k.k.k.k.k.l.k.k.k.k.k.k.k.f.;.O.;.&.>.$Xk.k.k.k.k.k.k.k.k.k.k.k.k.k.k.k.k.k.k.l.f.>X",
"%Xj.k.k.k.j.k.k.k.k.k.k.h.j.k.k.j.k.k.k.s.;.O.m.a.;.;.>.s.s.k.s.d.k.k.j.g.g.k.k.k.k.k.k.k.k.k.l.f.>X",
"k.q.i.s.s.g.g.u.u.u.d.j.k.j.d.s.d.s.s.a.;.;.h.h.y.>.:.;.:.s.s.a.a.d.d.d.w.s.s.s.d.u.u.s.s.u.u.u.0.;X",
"h.q.w.q.q.w.s.w.q.q.w.s.s.s.d.s.u.s.y.O.;.s.m.q.:.>.:.;.;.>.s.s.s.s.s.a.w.s.s.s.a.w.q.u.g.g.q.u.0.-X",
"!.g.h.u.s.u.g.g.s.s.s.s.w.u.g.g.s.s.;.&.s.$X>.9.q.q.9.q.&.o.w.d.h.k.g.s.s.g.j.h.g.g.u.g.k.h.u.h.a.>X",
"~.g.h.g.g.g.h.s.g.g.h.h.g.j.g.h.s.;. .d.!.>.q.9.:.>.9.q.>.-.o.q.h.g.h.h.g.d.j.h.h.h.h.g.h.h.h.k.a.>X",
"!.d.h.h.g.g.h.h.h.h.g.g.h.g.j.s.;. .k.h.>.>.q.q.>.9.q.>.q.:.;.O.q.g.g.g.d.h.h.h.h.h.g.h.h.g.g.h.a.:X",
"!.s.h.d.h.s.d.g.g.g.s.g.d.h.u.;. .s.h.u.:.q.:.:.q.>.9.:.>.9.:.*.o.q.g.g.d.f.d.d.s.d.s.g.g.g.s.h.a.:X",
"!.s.g.s.d.s.d.h.d.s.s.s.g.w.*.o.s.j.:.:.q.>.9.q.:.>.q.:.>.q.9.>.&.&.q.s.d.f.d.d.s.p.g.g.s.s.s.h.a.:X",
"Q.s.s.s.s.s.s.s.s.s.s.f.s.-.o.w.Q.q.>.q.9.q.9.9.q.q.9.q.q.:.9.9.>.o.o.q.d.d.f.d.s.s.g.u.p.s.s.s.0.:X",
"Q.s.s.i.s.s.s.s.s.d.s.s.O.o.w.k.;.>.9.q.q.9.q.:.>.q.9.q.q.q.>.q.q.:.o.o.u.s.s.s.s.s.g.g.g.u.g.g.0.:X",
"Q.w.s.s.u.s.u.s.s.i.s.*.} u.j.:.q.>.9.>.9.9.q.:.q.:.q.>.9.9.q.:.:.>.;.o.o.q.s.s.g.u.u.u.h.u.s.h.0.:X",
"!.w.s.i.s.s.s.u.j.s.O.o.s.d.>.:.:.:.:.>.:.:.9.:.9.;.;.9.:.;.:.;.&.:.;.&.o.o.:.d.s.s.s.u.s.s.u.s.q.:X",
"p.0.e.q.q.q.q.q.:.&.| :.s.:.;.:.:.>.:.:.>.;.;.;.;.O.&.;.;.O.O.;.O.;.o.O.o.X.o.:.:.s.s.:.q.q.:.u.-.-X",
"i.;.0.q.9.q.w.0.o.X.:.d.:.;.;.&.;.o.;.;.;.&.o.;.;.;.O.O.;.O.;.&.O.&.;.;.O.&.|  .:.s.:.:.:.:.:.:.-.'.",
"h.q.y.q.9.u.w.=. .:.$X>.>.:.;.o.&.;.;.&.;.;.&.*.;.:.*.;.:.*.;.;.;.O.;.;.&.;.O.X.o.>.u.>.y.s.s.y.-.-X",
"k.q.u.u.u.u.*.} :.j.:.:.:.;.:.:.;.;.:.;.;.;.:.;.;.:.:.;.:.:.;.>.:.>.:.;.;.:.:.&.| X.:.s.s.a.y.s.>.;X",
"Q.q.u.y.u.O.' 9.d.;.:.;.;.:.;.:.;.;.;.;.;.:.;.;.;.;.;.;.;.;.:.:.:.:.;.:.;.:.:.;.;.X.o.:.s.:.a.y.>.-X",
"p.0.u.y.o.' 0.i.:.;.;.;.;.;.;.*.;.;.;.;.;.;.;.;.;.;.*.;.*.;.;.;.;.*.*.;.;.;.;.;.;.o.} X.:.u.y.i.-.;X",
"p.q.q.O.] 0.w.q.;.;.*.-.;.;.;.;.;.:.;.;.;.;.*.:.;.;.;.;.;.;.;.;.;.;.;.;.-.;.;.;.;.;.o.} o.:.a.y.>.;X",
"p.0.*.] O.d.:.O.:.;.&.;.:.;.*.;.;.;.;.:.;.;.;.;.;.;.;.;.;.;.;.;.;.*.;.*.;.-.*.;.;.:.:.o.} X.:.u.-.;X",
"h.*.} o.d.:.&.;.&.;.;.;.*.*.;.*.&.:.&.*.&.*.*.*.*.*.*.*.*.*.;.&.*.&.;.:.*.*.:.*.O.&.&.;.o.} o.y.-.).",
"=.' *.s.&.o.;.&.X.#.&.&.o.o.:.&.o.o.o.#.o.o.&.&.o.o.X.&.*.&.&.&.&.o.&.&.o.&.:.&.o.o.o.X.&.&.' X.~ ^.",
"=.` &.y.X.X.o.X.X.X.o.o.X.X.&.X.X.&.*.o.&.&. .X.&.*.&.o.&.X.o.o.X.X.o.o.X.o.X.X.o.&.;.X.o.X.} ] ! ^.",
"i.} } &.&.&.&.&.&.&.o.o.&.o.&.&.&.;.*.&.&.*.&.&.&.*.&.&.&.&.&.&.&.&.&.&.&.&.&.&.&.&.*.&.&.] ' i.-.^.",
"Q.;.X.} o.;.&.&.*.&.*.*.*.*.&.:.*.&.&.;.*.*.*.*.;.*.*.*.&.*.;.*.&.*.*.*.*.*.&.*.%.&.*.&.| | :.d.-.'.",
"i.>.:.X.` X.&.;.&.*.*.&.&.:.&.&.*.&.*.*.&.*.*.*.&.*.&.*.*.*.&.&.&.*.*.&.*.&.&.*.&.&.&.| | :.d.:.-.;X",
"i.:.e.:.| ' X.O.&.*.*.&.&.&.&.&.&.*.&.&.&.&.&.&.&.&.&.&.&.&.&.&.&.*.&.*.&.&.&.&.*.&.} ' :.s.:.e.O.'.",
"Q.:.t.:.:.} ' X.&.&.*.&.&.*.&.&.&.&.&.#.&.&.#.&.&.&.#.&.&.#.&.&.&.#.&.&.#.&.&.&.&.} ' e.s.:.:.e.O.].",
"T.:.:.:.:.:.| '  .&.&.#.X.X.#.#.&.#.#.&.&.X.&.X.#.#.&.&.#.&.#.#.&.X.#.&.&.X.&.#.' ' :.u.y.:.q.e.O.].",
"Q.:.y.:.:.:.:.X.` | &.#.*.X.&.&.&.&.&.#.&.&.&.o.&.&.#.&.&.#.&.X.#.&.#.#.&.&.X.' ] :.u.:.a.q.:.:.O..X",
"i.:.:.u.:.:.:.*.} ' ..X.*.X.#.X.X.X.X.X.#.X.X.&.X.#.#.| X.&.X.&.&.#.&.#.X.X.' ' *.y.:.:.1.:.:.:.O.].",
"y.=.:.=.:.:.*.:.*.` ` | ......] ] ] X.X.] | X.X.} #.| ' } #.X.X.X.o.| } X.] ' $.y.:.:.:.:.:.:.:...'.",
":.X.o.X.&.&.*.*.=.#.` ` ] ' [ X.] | | ' | | | | ] | } ] } ] #.} ] ] | ] } ^ *.q.*.*.*.#.&.&.#.=.{ '.",
"T.&.%.:.*.*.&.=.:.:.=.` ^ ] X...o.X.X.X.X.] | ] ] } X.#.#.} ] ] } #.X.` ^ *.9.$.*.*.:.&.&.&.&.:...'.",
"i.*.:.:.:.:.=.=.:.:.:.*.' ` [ X.X.X.X.X.X.| X.X.| | | #.| | | } | o.` ( *.9.9.O.=.:.:.:.=.=.%.:.o.].",
"i.;.:.:.:.:.:.:.6.6.;.=.o.' ` ] #.| #.] X.X.X.X.#.X.#.| #.#.X.#.X.) / #.e.6.6.6.9.6.=.9.6.6.=.9. .].",
"t.&.=.=.=.=.=.%.=.6.6.=.6.X.) ` ] | +.#.[ X.X.+.+.X.[ X.X.] #.] ) ) X.u.6.6.6.*.=.*.6.*.*.=.=.6...'.",
"t.&.:.:.=.=.=.=.6.*.*.6.6.=.X.` ( ] X.[ X.[ [ X.| #.] X.X.X.] ) ^ X.9.6.*.6.*.6.=.*.6.=.=.=.6.6...'.",
"t.&.=.*.=.=.=.=.*.=.6.=.=.=.6.X.^ ( ] [ [ X.[ [ | | +.| +.X.) ~ X.9.6.6.6.*.*.6.=.=.*.=.=.*.*.6...].",
"r.o.=.*.&.=.$.=.6.=.=.$.*.=.6.$.#.^ ( ] [ [ [ [ [ [ [ [ ] ) V #.6.6.*.$.X.6.6.$.$.6.*.6.X.6.6.*.[ '.",
"r.$.%.$.=.=.$.$.$.$.$.=.$.$.$.6.*.X.( A ] [ [ [ ] ] [ ] ( ~ #.=.6.$.6.$.6.6.X.6.*.$.$.$.6.6.X.5...'.",
"8.X.+.#.$.$.X.+.[ [ #.$.[ X.$.$.#.=.] A ^ ) ) ] ) ) ] ( ^ ] =.=.#.$...5.[ [ 6.$.X.6.X.6.6.[ $.6./ `.",
"6.] ] ] #.#.| ] [ [ +.#.[ [ [ #.[ +.#.] ^ A ( ) ) ) A A ] 8.$.[ X.[ X._ 6.[ [ 6.[ X.[ X.$.[ X.$./ ).",
"7.X.$.X.X.$.X.X.X.[ X.#.$.#.#.$.X.X.$.$.[ A ^ ] ) ( A ) 9.$.$.$.X.#.$.#.X.$.X.[ X.[ [ [ [ [ [ [ ' `.",
"8.$.$.6.6.$.6.$.$.5.$.=.$.$.$.6.$.$.$.6.$.[ A ) ) A [ 6.6.$.%.$.$.$.$.$.6.*.6.$.*.5.$.*.$.$.$.%.[ `.",
"6.' [ [ [ [ [ ] ..[ ] ] ] ] [ [ ..[ [ ] [ ] ^ d d ( X.X.] } ..] [ [ [ [ [ [ [ [ [ [ [ [ [ [ [ [ / ^.",
"^.R.R.R.R.R.R.R.R.R.E.R.R.R.R.R.R.R.R.R.R.R.W.7.7.W.W.W.R.W.R.R.R.R.R.R.R.R.R.R.R.R.E.R.R.R.R.R.T.XX"
};
