/* XPM */
static char *result[] = {
/* columns rows colors chars-per-pixel */
"50 50 206 2 ",
"   c #170001",
".  c #2E0000",
"X  c #3B160B",
"o  c #31002E",
"O  c #00303C",
"+  c #322727",
"@  c #332F38",
"#  c #490100",
"$  c #470800",
"%  c #5B0000",
"&  c #491603",
"*  c #581603",
"=  c #641300",
"-  c #492504",
";  c #522505",
":  c #5A3900",
">  c #4C2517",
",  c #4C2619",
"<  c #48291A",
"1  c #5D2F10",
"2  c #692700",
"3  c #6F3800",
"4  c #703B00",
"5  c #762D1A",
"6  c #4A2927",
"7  c #483528",
"8  c #522F36",
"9  c #4D353A",
"0  c #71382D",
"q  c #683D3B",
"w  c #5C4119",
"e  c #725213",
"r  c #7B651C",
"t  c #504022",
"y  c #47423E",
"u  c #6E4422",
"i  c #101148",
"p  c #343649",
"a  c #4E3D47",
"s  c #41305C",
"d  c #7C3A46",
"f  c #3F5478",
"g  c #474D5A",
"h  c #524D50",
"j  c #694947",
"k  c #724D54",
"l  c #636E50",
"z  c #594B6C",
"x  c #43536A",
"c  c #58596B",
"v  c #4A5775",
"b  c #575E75",
"n  c #6F5763",
"m  c #4E627A",
"M  c #5C6174",
"N  c #56647C",
"B  c #5B6778",
"V  c #5D657B",
"C  c #63606B",
"Z  c #666674",
"A  c #64667C",
"S  c #66697B",
"D  c #6F717F",
"F  c #8E0000",
"G  c #AC0000",
"H  c #993500",
"J  c #963610",
"K  c #BA2D0D",
"L  c #B82B11",
"P  c #923D22",
"I  c #84263A",
"U  c #D0310F",
"Y  c #C6341F",
"T  c #904E09",
"R  c #A4670F",
"E  c #935429",
"W  c #A84020",
"Q  c #BC542A",
"!  c #8E6B37",
"~  c #BA6A33",
"^  c #A97736",
"/  c #C34D1F",
"(  c #CA5E2D",
")  c #D75529",
"_  c #D45A32",
"`  c #CA6633",
"'  c #D46C36",
"]  c #DC6A35",
"[  c #DA733D",
"{  c #895E4E",
"}  c #975A41",
"|  c #826257",
" . c #C77E41",
".. c #DD7D41",
"X. c #B5863B",
"o. c #B88642",
"O. c #A69B53",
"+. c #A4A456",
"@. c #BAA556",
"#. c #B4B370",
"$. c #CA8748",
"%. c #D98847",
"&. c #CC9146",
"*. c #DB934D",
"=. c #DF9C54",
"-. c #E58C4A",
";. c #E19953",
":. c #DAA759",
">. c #CAB75F",
",. c #E4A457",
"<. c #E2AC5C",
"1. c #E4B15E",
"2. c #DDBC6F",
"3. c #E4B460",
"4. c #E8BC66",
"5. c #F2BB67",
"6. c #D1C96B",
"7. c #EAC067",
"8. c #EAC66B",
"9. c #ECCA6D",
"0. c #F6CB6F",
"q. c #EDD473",
"w. c #EED976",
"e. c #F8D876",
"r. c #F3DE79",
"t. c #EDE27C",
"y. c #F2E57D",
"u. c #4C6386",
"i. c #526685",
"p. c #5C6A83",
"a. c #5B6884",
"s. c #526689",
"d. c #556A8D",
"f. c #5A6E8C",
"g. c #5D718E",
"h. c #566D92",
"j. c #596E92",
"k. c #536F99",
"l. c #5D7294",
"z. c #5E759A",
"x. c #5E7E9C",
"c. c #646E83",
"v. c #666F86",
"b. c #647082",
"n. c #6E7385",
"m. c #64748C",
"M. c #6B768C",
"N. c #6C798D",
"B. c #717A8A",
"V. c #627694",
"C. c #687591",
"Z. c #647996",
"A. c #6B7C94",
"S. c #61769A",
"D. c #647A9C",
"F. c #697D9C",
"G. c #717E95",
"H. c #707F9A",
"J. c #657DA1",
"K. c #697EA1",
"L. c #65809E",
"P. c #6D819D",
"I. c #748195",
"U. c #73839C",
"Y. c #79869C",
"T. c #7C8A9E",
"R. c #6780A0",
"E. c #6B81A5",
"W. c #6C84AA",
"Q. c #7385A2",
"!. c #7887A4",
"~. c #7688A4",
"^. c #7B8BA3",
"/. c #7087AB",
"(. c #7289AD",
"). c #7C8DA9",
"_. c #7E91AE",
"`. c #6F89B0",
"'. c #758DB2",
"]. c #788FB4",
"[. c #728EBA",
"{. c #7991B6",
"}. c #7691B9",
"|. c #7C94BB",
" X c #828E9E",
".X c #828FA4",
"XX c #808FA9",
"oX c #8392A7",
"OX c #8A95A6",
"+X c #8392AC",
"@X c #8896AA",
"#X c #8D99AC",
"$X c #9099A6",
"%X c #8395B3",
"&X c #8799B6",
"*X c #8097BE",
"=X c #8499BB",
"-X c #8A9CBB",
";X c #F4ED81",
":X c #FAF586",
">X c #839BC1",
",X c #8C9FC0",
"<X c #8EA1C2",
"1X c #91A3C4",
"2X c #99AAC8",
"3X c #A2AFC9",
/* pixels */
"2X,X<X,X<X1X1X1X1X1X1X1X1X<X1X1X1X1X1X1X1X1X,X=X].-X,X>X,X,X>X,X<X2X1X1X1X,X1X1X1X1X1X,X1X1X,X<X>X3X",
"<X}.|.|.}.}.}.}.|.}.}.}.}.}.}.}.}.}.}.}.}.}.}.z.k.W.*X[.|.|.|.|.|.{.}.}.}.|.}.}.}.}.[.|.}.}.}.*X[.1X",
"<X}.|.|.*X*X>X|.>X|.|.*X>X|.|.*X*X*X>X|.*X}.J.J.J.J.K.*X|.>X|.|.|.*X>X|.*X*X*X*X*X|.>X|.|.*X|.*X|.2X",
"<X}.|.*X|.|.|.|.|.|.|.|.|.|.|.|.|.|.|.|.[.J.z.|.`.J.J.K.].[.|.|.].|.|.}.}.}.*X|.*X*X|.*X|.|.>X*X}.1X",
"=X`.'.].'.].].'.'.'.].{.|.|.{.'.].].].`.K.J.'.|.[.K.J.z.K.[.}.'.'.].].].(.'.'.].[.'.`.].].].'.'./.-X",
"{.W.W.W././.'.'.W.W.`.'.{.{.'.].'.'./.J.z.`.>X`.K.`.J.J.z.K.`.].'.].'.`./.'.'.'.`.`./.`.].`././.K.&X",
"&X}.{.].(.'.].].].'.'.'.'.(.'.{.'.'.J.z.`.>XK.W.K.K.`.K.J.k./.].{.|.}.'.'.].|.{.{.}.`.].*X{.].].[.,X",
"=X].{.].].}.}.].{.{.'.{.{.{.}.|.].J.k.'.>XK.W.W.K.`.K.K.K.J.z./.{.{.{.{.{.].].|.{.{.{.{.].{.].{.}.-X",
"=X].{.{.{.{.{.{.{.{.{.{.|.{.{.'.J.k.[.[.[.K.K.K.K.`.[.J.K.J.k.J.`.}.}.].}.{.}.].{.{.{.{.{.{.{.{.].-X",
"=X].{.].].{.{.{.'.{.'.{.'.}.].J.k.`.|.[.J.J.[.K.K.J.K.K.K.[.J.z.z.K.}.].].}.].].{.'.'.{.{.{.{.{.'.-X",
"&X'.{.].].].].].{.'.{.'.'.'.J.l./.*X[.J.K.K.[.J.K.K.K.J.[.K.K.K.J.z.W.[.].].'.}.'._.'.{.'.{.].{.`.-X",
"&X(.{.(.].(.].].'.{.'.'.].J.k.W.>XK.K.K.J.[.K.K.[.J.K.[.J.J.J.[.J.z.z.`.].].].'.'.'.'.'.'.'.'._.`.-X",
"=X'.].'.'.'.'.'.'.{.'.'.J.k.W.*XJ.K.K.K.[.J.K.J.K.K.[.K.J.[.J.K.W.J.z.z.(.'.'.'.{.'.'.'.].'.'.'.`.-X",
"%X`.'.(.(.'.].(.'.'.].D.h.W.|.E.K.K.K.`.K.K.K.[.[.K.J.K.K.K.[.K.K.K.J.z.l.W.{.'.'.'.'.'.].(.'.'.`.-X",
"%X(.'.'.{.(.'.'.'.`.L.h./.{.E.E.[.K.K.K.K.K.J.J.J.J.J.J.J.J.J.J.J.J.J.Z.l.l.R.'.(.'.'.'.(.].(.].`.&X",
"{.W./././././.(./.L.h.W.'.W.D.J.J.J.J.K.J.J.J.J.J.J.z.J.J.J.z.J.S.z.x.x.z.z.x.R./././././.W.W.W.K.&X",
").J.W.E.W.W.W.W.S.l.J.{.E.S.J.x.J.J.z.z.D.S.S.z.J.z.z.z.J.S.J.S.J.x.S.J.S.z.l.j.J.W.W.E.R.E.W.E.x.+X",
"{.W.(.W.W.(.(.J.k.D.|.E.J.J.J.S.J.z.z.J.J.J.S.J.J.E.J.J.J.S.J.J.S.S.J.K.J.S.z.k.l.W.W.W.(.(.(./.J.%X",
"+XW.(.(./.(.S.h.D.|.E.E.J.x.x.D.x.J.J.J.J.x.x.J.x.J.J.J.J.J.J.J.J.J.D.x.x.x.J.J.h.l.W.(.(.(.(.(.`.&X",
"%XW.(.(.(.D.d.K.'.R.J.J.J.R.R.L.J.J.J.J.R.R.J.J.K.W.x.x J.E.K.E.E.R.R.L.D.J.J.J.J.l.l.E.(./.(./.W.%X",
"%XW././.S.h.J.'.E.J.J.J.K.E.!.Q.W.Q.H.K.H.).Q.Q.m.i.b E A D.Q.Q.P.E.P.K.H.J.J.F.J.z.h.l.E.(././.W.%X",
"{.W.(.D.d.J.(.W.D.J.J.D.D.Q.!.^.!.F.H.H.H.).!.H.j ; ! =.4 p.~.!.!.Q.E.D.J.J.J.J.J.J.S.h.z.E.(.(.W.%X",
"{.W.J.d.S.'.E.J.J.J.D.J.K.+X.X+Xm.. 7 C.XX!.H.y G 1.t.( = p.).~.^.!.Q.H.J.J.J.J.J.J.J.z.h.k.E.(.W.%X",
"%XS.d.z.}.K.S.D.S.S.J.S.F.OX#XV ! $.K 8 j.).!.o 2.e.=.H n.~.).U.g S./.J.J.S.J.S.S.S.S.J.z.d.l.E.W.).",
"U.s.S.].S.S.S.S.S.S.S.z.D.OX#XB.| o.4.X.k f m   +.@.} v A M b z H n j.J.z.S.J.S.S.l.z.V.S.S.d.l.d.Q.",
"D.u.S.`.l.j.l.S.j.l.S.j.Z.OXOX#Xv.: y.:.X.r 2 X.5 % j m.6 2 r ! ' J x S.j.j.V.j.z.S.S.S.j.V.j.d.u.H.",
"!.h.h.S.S.S.S.S.S.S.S.S.D.OX$XOXn.2 ) % #.y._ y.:.) ( ; X ~ 8.y.;.e v D.S.S.S.S.S.S.S.S.S.s.d.K.z.!.",
"%XJ.j.s.S.S.S.S.S.S.S.S.H.#X#X@X!.M.0   ^ 5.y.1.%.4.w.*.t W -.<.3 v.Q.P.S.S.S.S.S.S.S.S.j.j.S.].W.).",
"%XK.K.j.s.S.S.S.S.S.S.S.K.@Xb g p.U.< J ` 1.y.*.8.w.1.[ ~ P T E V P.~.P.S.S.S.S.S.S.S.j.s.S.]./.J.%X",
").K./.K.j.s.j.S.S.S.S.S.A.n.! H d B < ` <.w.:X8.q.4.%.' ) J O b !.!.U.U.S.C.S.S.S.S.j.s.J.'.K.!.J.+X",
").J.K.K.D.h.s.l.S.S.S.S.m.6 $.*.~ 3 < $.9.y.y.:X1.;.<.<.%.T g H.A.U.U.Q.F.S.S.S.S.l.s.K.(.Q.K.E.J.+X",
").J.!.K.K.D.h.d.j.S.S.V.D.Y.o 6.r. .7 Q ) ' ,.y.1.7.:Xy.:XO.. > - M.Q.H.H.Z.S.l.j.s.J./.~.E.E.W.J.+X",
").K.K.K.K.K.K.j.s.j.C.z.C..X+ Q 5.t.- / ] :.y.1.w.9.=.%.*.E l #.L 0 c.H.H.D.V.f.s.S.!.K.K./.K.K.J.+X",
").J.K.K.K.K.K.K.h.s.j.l.S.H.v.I R @.Z I :.e.1.%.r.;X7.[ W % ! 2.9.e v !.H.Z.d.s.l.(.K.K.K.K.K.H.S.+X",
").J.K.K.K.K.K.K.S.s.s.j.D.U.!.B p s ~.i +.>.U 3.w.t.9.&.1 p { &.r.^ n m.U.V.i.j.(.K.K.K.K.K.K./.D.+X",
"H.l.D.D.C.J.S.S.D.z.s.s.f.A.H.Y.T.^.G.j - 5 ' y.3.' L < & V i.* Y *.^ s Q.m.j.~.F.Z.F.S.C.D.S.D.h.!.",
"H.J.C.J.D.S.C.J.K.F.S.s.s.C.U.T.^.Y.@ ~ w.6.# w u < 0 &.3 v V.a.1 * Z I.A.A.W.D.S.D.J.C.S.S.C.J.z.^.",
"XXJ.K.J.J.J.D.F.K.K.K.l.s.f.A.!.M.j K q.0.[ + b @ T :.;Xe v Z.g.p.V A.I.^.!.K.D.J.J.K.J.J.D.D.K.D.).",
"H.J.K.K.F.K.K.K.F.K.K.K.V.s.a.P.V = ..>.X.F 7 F.i.| &.q.^ d u.V.D.P.A.Y.@X~.D.K.F.K.K.F.K.K.K.K.Z._.",
"XXJ.F.F.F.F.F.F.F.F.F.F.F.V.i.V.p.j %.q O h 6 N.P.m u $.( P f l.g.p.A.oX).U.K.F.F.F.F.F.F.F.F.F.Z.oX",
"~.Z.F.F.F.D.F.F.F.F.F.F.D.F.V.a.V.M.& N.^.b.> G.U.U.M.< X N F.g.f.m.Q.P.P.P.F.F.F.F.F.F.D.F.F.F.z.).",
"~.z.F.F.F.F.F.A.F.D.F.F.F.F.D.V.p.V.A.I.U.c.> A.T.S $ , M g.g.a.f.E.J.F.D.D.Z.F.D.F.F.F.F.D.F.F.Z.oX",
"!.Z.D.F.Z.F.L.L.D.F.D.D.Z.F.F.F.g.p.V.I.Y.c.> I.T.I.Z > m.g.N g.F.R.D.Z.D.L.F.Z.C.D.Z.D.F.D.Z.F.l.^.",
"^.l.Z.Z.F.Z.Z.Z.Z.Z.A.D.Z.Z.F.Z.P.g.g.I.U.c.> I.T.I.c - c N g.P.P.Z.F.A.Z.F.Z.F.D.F.F.Z.Z.Z.Z.F.x.^.",
"Y.l.l.l.L.Z.g.g.l.g.V.Z.l.g.Z.F.Z.L.N.N.A.B , A.oXD & 9 # c E.L.Z.Z.Z.V.Z.Z.Z.Z.Z.Z.Z.Z.Z.S.S.A.l.T.",
"I.d.g.g.l.g.g.g.g.g.g.l.g.g.g.g.g.V.V.I.Z.M , N. XT.A.p.6 c.P.l.l.V.g.f.l.g.l.Z.l.V.g.V.C.V.A.D.i.Y.",
"I.g.l.g.l.Z.Z.Z.g.g.g.Z.V.l.l.Z.l.g.Z.U.I.M < I.oXn.9 9 # B P.V.g.l.Z.l.V.Z.V.l.g.g.f.g.g.f.d.f.g.^.",
"Y.x.Z.Z.Z.Z.Z.Z.l.Z.V.Z.Z.Z.Z.Z.V.V.Z.U.T.b.# C C 9 ; Z Z m.Z.Z.V.V.Z.Z.Z.Z.Z.Z.Z.Z.V.V.V.V.V.V.l.T.",
"U.g.g.l.Z.g.Z.l.m.g.Z.l.V.V.V.V.V.V.V.I.P.N.a 9 6 9 c Q.L.Z.l.V.V.Z.V.V.V.l.V.V.V.Z.V.V.V.V.l.Z.g.T.",
"T.Z.I.P.I.Z.L.I.L.N.I.Z.Z.I.N.L.N.I.L.P.Y.T.T.m.V.Y._.P.U.I.A.A.A.A.A.A.A.I.N.P.Z.A.I.Z.Z.I.Z.I.Z.T."
};
