/* XPM */
static char *result[] = {
/* columns rows colors chars-per-pixel */
"50 50 206 2 ",
"   c #1F0000",
".  c #080011",
"X  c #220000",
"o  c #380000",
"O  c #321407",
"+  c #3E241B",
"@  c #3D1B37",
"#  c #3D2520",
"$  c #3D393B",
"%  c #470000",
"&  c #490000",
"*  c #5C0000",
"=  c #4B1200",
"-  c #6B0000",
";  c #780A00",
":  c #4A2100",
">  c #4C220C",
",  c #592804",
"<  c #563703",
"1  c #472918",
"2  c #652B00",
"3  c #693800",
"4  c #7A3100",
"5  c #65032B",
"6  c #4B2A28",
"7  c #5A3923",
"8  c #483336",
"9  c #543934",
"0  c #72393C",
"q  c #7D4500",
"w  c #73681E",
"e  c #7C4527",
"r  c #654732",
"t  c #301153",
"y  c #12304C",
"u  c #303950",
"i  c #4A3E4B",
"p  c #7B2642",
"a  c #7E3E4D",
"s  c #473D66",
"d  c #394E72",
"f  c #574247",
"g  c #484B57",
"h  c #544855",
"j  c #584C57",
"k  c #535059",
"l  c #6A4C4F",
"z  c #775958",
"x  c #6F6556",
"c  c #4A5A6F",
"v  c #5B596B",
"b  c #43597E",
"n  c #4C5F7C",
"m  c #585B75",
"M  c #775D6A",
"N  c #4C617E",
"B  c #586377",
"V  c #61657D",
"C  c #696979",
"Z  c #8B0000",
"A  c #B20B0A",
"S  c #863201",
"D  c #9D3201",
"F  c #BA2A12",
"G  c #A03A1A",
"H  c #D13311",
"J  c #93540D",
"K  c #A74600",
"L  c #BD4619",
"P  c #876716",
"I  c #8E6A17",
"U  c #9E4924",
"Y  c #87572E",
"T  c #904130",
"R  c #B04B26",
"E  c #8D6734",
"W  c #B86F3A",
"Q  c #A9753C",
"!  c #C75D2B",
"~  c #D1532E",
"^  c #D95428",
"/  c #CB6733",
"(  c #D76735",
")  c #C5753B",
"_  c #D5733A",
"`  c #89534F",
"'  c #8C615C",
"]  c #B57D40",
"[  c #826C6D",
"{  c #D07A44",
"}  c #E37E41",
"|  c #A68339",
" . c #B68337",
".. c #928D47",
"X. c #B3924B",
"o. c #B1A457",
"O. c #B1B161",
"+. c #C58A4B",
"@. c #DC8244",
"#. c #D98B4A",
"$. c #DE944E",
"%. c #DE9953",
"&. c #E28545",
"*. c #E29853",
"=. c #C9A956",
"-. c #DEA55A",
";. c #DDA85A",
":. c #CFBC5F",
">. c #E4AB5B",
",. c #E4B05E",
"<. c #D8BA65",
"1. c #DFB673",
"2. c #EAB663",
"3. c #E6BB64",
"4. c #E9BB64",
"5. c #DEDE79",
"6. c #E9C36A",
"7. c #EACA6D",
"8. c #EECE71",
"9. c #F3CF71",
"0. c #EDD372",
"q. c #EDD976",
"w. c #F4DA77",
"e. c #EBE37D",
"r. c #F2E57D",
"t. c #F7E77F",
"y. c #4B5F82",
"u. c #4E6382",
"i. c #4C6588",
"p. c #516584",
"a. c #5A6686",
"s. c #546986",
"d. c #5C6B84",
"f. c #526689",
"g. c #556A8C",
"h. c #596D8D",
"j. c #5C708E",
"k. c #566D91",
"l. c #596E91",
"z. c #5D7293",
"x. c #5F7499",
"c. c #646C85",
"v. c #657286",
"b. c #64718C",
"n. c #6C7689",
"m. c #69758C",
"M. c #767B8D",
"N. c #617695",
"B. c #697791",
"V. c #647996",
"C. c #6D7B95",
"Z. c #617699",
"A. c #657A9B",
"S. c #697D9D",
"D. c #737E94",
"F. c #667CA1",
"G. c #697EA1",
"H. c #6C819E",
"J. c #758197",
"K. c #73839D",
"L. c #7A869B",
"P. c #7C899D",
"I. c #6680A6",
"U. c #6C81A4",
"Y. c #6D85AA",
"T. c #7386A3",
"R. c #7887A0",
"E. c #7689A5",
"W. c #7B8BA4",
"Q. c #7086AA",
"!. c #7289AD",
"~. c #7C8DAB",
"^. c #7F91AD",
"/. c #758DB2",
"(. c #788EB4",
"). c #758FB9",
"_. c #6D91B2",
"`. c #7492B6",
"'. c #7991B6",
"]. c #7792B9",
"[. c #7D95BB",
"{. c #7F9ABF",
"}. c #B1B484",
"|. c #818EA4",
" X c #8090A7",
".X c #8393AC",
"XX c #8996AA",
"oX c #9099A8",
"OX c #8395B3",
"+X c #8699B6",
"@X c #8A9BB6",
"#X c #8197BC",
"$X c #8499BC",
"%X c #899CBA",
"&X c #929FB4",
"*X c #8DA1BD",
"=X c #98A4B7",
"-X c #9AA5B6",
";X c #94A3B9",
":X c #F4EB81",
">X c #F6F385",
",X c #FBF686",
"<X c #859CC2",
"1X c #8EA1C0",
"2X c #92A3C3",
"3X c #9CABC0",
/* pixels */
"2X).].).[.[.[.[.<X[.[.[.).).`.`.].[.`.].[.`.`.Y.I._.].].'.'.).(.).#X].`._.`.#X[.[.{.#X[.[.[.].].[.[.",
"2X].<X#X[.#X[.<X[.[.[.<X[.[.[.#X[.[.{.[.].[.].H.x._.].m ].<X#X<X#X#X[.[.].].[.[.#X[.[.#X[.#X<X[.).<X",
"2X).[.[.[.[.[.[.[.[.[.[.[.$X%X%X%X%X%X%X%X$XE.U.z.p.V I M.(.#X#X$X$X#X#X$X$X[.{.[.[.[.[.#X[.[.[.[.[.",
"2X].#X[.].[.[.[.[.[.[.[.[.$X%X%X%X'.^.+X+XE.K.'.M , E *.4 c.%X@X+X%X#X#X].'.[.[.<X[.].[.).[.<X[.<X[.",
"<X!.!.)./.)./././.!.(.).[.;X&X*XK.o 1 L.W.K.@Xk A >.:X( ; n.%X.X+X+XOXOX/./.(.(././.!././././.!.!./.",
"OXG.!.G.!.!./.!.Y.Y.!./.'.&X=Xv.Y #.F 5 i.*X1X@ :.w.-.4 c.W.%X$Xj G.#X/.Y././.(./.!.Y.!././.Y.Q.!.!.",
"<X(.[./././.).(././././.(.&X=X|.[ X.3.+.' h.B . ..o.` C B m n m D M U.(.!.).'.'.).(./.(.[.(././.(.[.",
"<X(.].(.(.(.[.(.(.].(.].OX-X=X3XE.: q.;.| I ; ..e - 0 J.8 2 P Q } S n <X(.).'.].).).(.[.).[.).[.[.].",
"%X/.[.(.'.'.'.'.'.'.'.`.OX=X-X=XM., ~ * O.t.( r.>.^ / 2 O Q 4.:X%.Y a.$X`.(.'.'.'.'.'.'.'.'.'.'.(.).",
"%X/.(.(.'.'.(.'.'./.'.(.'.=X=XXXR.T.r   Q 3.r.,.#.3.r.%.r G } >.4 m.OX[.'.(.).`.~.'./.'.'.'.'.'.(.(.",
"$X/.(.(.(./.(.(.(.(./.(.OX;XV u c.$X8 D / >.>X%.6.q.,._ R U S J c.S.(.OX(.(.).(.`./.'.'./.'././.(.(.",
"$X/.(././.(././.(././.`.E.C Q D a d.+ / >.q.t.7.0.3.@._ ^ S y a.~.Q.D. X(.(.(./././././.'.!././.(.(.",
"+X/./././././././.(././.A.8 +.*.) 3 1 ) 6.e.w.,X3.$.3.2.*.I h W.S.W.T.S.Q././././././.`././././.(.(.",
"+XY././.!././.!./././.F.z.OXt :.t.#.7 R ^ ( %.t.3.3.>X:X,Xo.X , = x.~.G.H.U.'././././.!./././././.(.",
"+X/././././././././.x.k.!.&X$ K ,.r.< L ( >.:X,.0.0.$._ &.U x }.~ 4 B T.K.N.S./././.!././.!././././.",
"(.G.Y.Y.Q.Q.Q.Q.Y.A.k.Y.(.W.B.l J o.n.p =.w.;.@.q.>X7.#.R & E 1.0.P d ~.K.A.k.I.Q.Q.Y.Q.Y.U.U.Y.Y.Y.",
"~.F.U.Y.I.Y.Y.Y.x.z.U.'.Y.P.~.v.k s W.y ..:.H 3.0.q.6.X.< u ' ) 9.X.` b.T.S.l.k.F.Y.Y.G.I.Y.U.G.H.H.",
"'.Y.!.Y.Y.!.!.F.k.F.].U.S.W.W.~.XX|.D.z 3 e / q.<./ H 7 = c.l.6 F #.] u |.G.x.l.l.Y.Y.Y.Y././.Y.I._.",
"OXY.!.!.!./.x.k.F.].I.F.I.U.W.~..XR.8 W 8.5.% , 7 1 7 $.q B Y.S.9 & C ^.W.R.F.F.k.k.G./.!.!.!.!._.!.",
"OXY.!.Y./.x.g.F.'.G.I.F.S.H.T.W.D.l F q.9.) 1 B.u J >.t.w d !.S.N.m.J.XX.XT.F.F.F.x.k.G.!.!.Y.!.Q.!.",
"OXY.Q.Q.x.g.U./.U.F.F.F.F.F.F.E.c.* &.=.| Z 1 K.N.M  .7.W ` u.G.U.E.W.W.W.Y.F.F.F.F.k.k.F.!.Y.Y.Q.!.",
"'.Y.Q.A.k.G.!.Y.A.F.F.A.A.F.F.Y.C.j +.l u g 1 H.~.l.f { ! T c G.S.U.Q.T.T.U.x.F.F.F.F.k.x.F./.Y.Y.!.",
"OXI.A.k.F./.Y.x.F.F.F.F.F.F.A.H.T.H.@ J.^.C.> T.W.E.D.# O c.Q.G.U.U.F.A.S.U.F.F.F.F.F.x.k.k.F.Y.Q.Y.",
"OXx.k.x.).F.x.A.A.x.F.x.F.x.F.I.S.T.L.P.E.m.= K.^.n.& > c.S.S.G.A.A.F.F.A.A.F.A.x.F.x.F.x.k.k.I.Q.A.",
"S.f.Z./.Z.x.Z.Z.x.x.x.x.z.x.x.A.N.S.K.T.P.b.> J.W.P.v.> V.U.A.S.x.x.x.x.x.x.F.A.x.x.x.x.Z.Z.k.k.k.k.",
"S.i.Z.Q.x.l.l.x.z.x.x.x.x.z.x.x.z.A.H.P.T.b.> J.XXL.v = v d.A.z.z.x.z.z.l.x.z.z.x.x.Z.x.z.z.k.f.g.h.",
".Xk.k.Z.Z.Z.Z.Z.x.A.x.x.x.x.x.x.A.A.H.R.E.m.> J.XXM.6 h & v F.Z.x.x.x.x.x.x.x.x.x.Z.A.Z.x.k.g.T.Y.z.",
"OXF.x.f.x.F.Z.Z.x.A.A.A.x.x.F.A.A.Z.S.T.E.m.> K.XXXXP.T.i m I.A.A.A.A.A.F.A.A.x.Z.A.Z.Z.l.g.S.!.Q.I.",
"OXG.G.x.f.x.x.F.A.x.A.x.A.x.A.A.Z.Z.A.T.K.m.1 P.+XM.6 9 & m U.A.x.A.A.x.Z.Z.Z.Z.Z.F.Z.k.k.A.(.Q.U.Y.",
".XG.Q.G.l.f.l.x.x.A.x.A.x.A.z.x.x.A.A.K.E.m.& j v f = V C b.A.N.A.x.z.A.Z.A.Z.Z.Z.Z.l.f.A./.G.U.U.U.",
"~.F.Q.G.G.l.f.l.A.x.N.x.x.A.N.A.z.A.z.S.K.J.k h h h v U.H.A.N.Z.N.A.Z.Z.N.Z.Z.x.Z.l.f.G.~.U.U.U.U.U.",
" XF.G.G.G.G.l.f.h.A.x.x.x.z.x.z.Z.z.N.A.V.H.H.H.H.H.H.N.x.A.z.z.x.N.z.z.N.N.Z.Z.k.f.F.Q.Q.U.H.U.U.U.",
" XF.G.G.G.G.G.x.a.l.x.x.z.x.x.N.x.N.Z.Z.z.Z.z.N.z.N.z.Z.Z.Z.z.Z.z.Z.N.Z.x.x.z.a.f.F.E.G.G.G.Q.G.I.H.",
" XF.G.G.G.G.G.G.k.a.l.x.x.z.z.z.z.z.z.z.z.z.z.Z.z.x.z.z.z.z.z.Z.Z.z.Z.l.z.N.l.f.A.G.G.G.G.G.G.G.H.H.",
" XZ.G.G.G.G.G.G.F.a.f.k.z.l.l.l.g.h.z.k.h.l.z.N.l.z.z.k.h.z.z.N.z.z.l.l.z.g.f.x.!.G.G.G.G.G.G.G.I.I.",
"G.x.Z.Z.Z.Z.Z.Z.Z.Z.a.f.g.a.l.l.g.l.l.g.k.h.g.l.h.g.k.g.l.g.l.z.h.h.l.g.h.f.z.E.A.A.A.x.x.A.Z.A.z.j.",
" XZ.C.Z.F.Z.Z.A.G.G.A.g.f.k.l.z.z.z.z.z.k.k.j.k.g.h.l.N.l.h.g.g.k.l.z.f.y.Z.Q.A.Z.A.G.Z.Z.Z.Z.F.H.s.",
" XF.G.F.G.G.F.F.G.G.G.Z.a.y.h.x.z.z.z.z.z.z.z.j.l.z.l.N.z.l.l.l.l.z.g.y.A.G.G.S.A.S.G.G.A.C.F.G.H.I.",
"~.F.G.G.G.G.G.G.S.G.G.S.Z.a.y.l.z.z.z.z.z.z.z.z.z.z.z.l.z.z.z.l.b.k.y.z.G.G.G.G.G.G.S.G.G.G.C.G.H.I.",
"W.x.G.F.C.F.C.G.S.S.S.S.G.Z.a.p.h.j.j.z.j.l.j.j.h.z.b.l.z.l.z.b.a.y.z.T.T.S.S.S.G.C.S.S.S.S.A.G.H.H.",
"R.H.H.H.H.H.H.H.A.S.S.S.A.S.N.s.N j.j.j.j.z.j.j.j.z.j.j.j.j.I.s.N j.H.H.z.H.H.H.S.S.S.S.A.S.S.S.s.H.",
"P.z.z.H.z.H.z.z.S.S.S.A.S.S.S.N.i.N s.j.j.j.j.j.j.j.j.j.j.j.N N j.T.z.H.H.H.z.H.S.A.S.S.S.V.S.A.H.H.",
"W.z.H.j.H.z.V.H.S.S.A.A.V.A.A.A.j.N N s.j.j.j.j.j.j.j.j.j.s.N s.H.H.z.H.H.z.H.z.A.A.A.A.S.V.V.A.H.H.",
"L.I.H.j.H.H.H.H.B.N.V.C.V.V.V.H.H.H.N N s.j.j.g.h.g.j.s.i.N s.H.H.H.H.H.z.H.z.H.C.A.C.V.V.S.V.V.H.H.",
"L.j.z.j.H.j.j.j.j.j.z.V.j.z.V.V.H.H.N N N s.j.s.i.s.s.s.c s.H.H.j.z.H.j.z.B.H.H.V.V.x.B.V.V.V.V.H.N ",
"K.i.j.j.z.z.j.j.j.j.z.z.j.j.N.j.j.j.H.s.N N N s.s.s.N N N H.H.s.j.j.j.j.j.j.j.z.j.z.j.N.N.j.N.V.H.N ",
"L.j.H.j.j.z.V.j.j.z.j.V.V.N.N.V.d.j.j.H.H.N N s.s.s.N s.H.H.H.j.j.j.H.j.z.H.B.N.z.j.j.j.j.d.h.j.H.v.",
"P.j.H.z.B.H.V.H.V.B.V.B.V.V.V.V.H.j.H.j.H.j.N N N N s.H.H.j.H.H.H.z.H.z.z.B.H.V.V.V.N.V.V.N.V.V.H.H.",
"K.s.z.z.j.H.s.j.H.s.j.H.s.j.H.s.H.s.H.s.h.H.N b d N H.H.h.j.I.s.j.j.j.j.H.j.j.j.H.j.j.H.s.H.H.N H.N ",
"oXP.P.P.L.L.L.L.L.L.L.L.L.L.L.L.L.J.L.L.K.L.K.J.v.J.P.L.L.L.L.L.L.L.L.L.J.L.L.L.L.L.J.L.J.J.L.J.P.W."
};
