/* XPM */
static char *result[] = {
/* columns rows colors chars-per-pixel */
"50 50 208 2 ",
"   c #160000",
".  c #1B0011",
"X  c #3F0400",
"o  c #2A0013",
"O  c #341919",
"+  c #110F3D",
"@  c #390031",
"#  c #0E2C3B",
"$  c #333038",
"%  c #450000",
"&  c #480000",
"*  c #490D00",
"=  c #5A0000",
"-  c #4A1100",
";  c #4C1C00",
":  c #511C09",
">  c #620000",
",  c #670900",
"<  c #651D00",
"1  c #7B1D15",
"2  c #492000",
"3  c #563800",
"4  c #4C2514",
"5  c #4D271B",
"6  c #432B1B",
"7  c #4A2A19",
"8  c #52291C",
"9  c #6C2F0E",
"0  c #732000",
"q  c #733C00",
"w  c #672C15",
"e  c #4B2A27",
"r  c #4D3925",
"t  c #4A3636",
"y  c #503638",
"u  c #6E3931",
"i  c #775709",
"p  c #60441D",
"a  c #6B5715",
"s  c #6B4B31",
"d  c #100A4B",
"f  c #373248",
"g  c #602B43",
"h  c #4E4C55",
"j  c #584951",
"k  c #66494B",
"l  c #784B56",
"z  c #675259",
"x  c #5F684D",
"c  c #475062",
"v  c #575869",
"b  c #475876",
"n  c #4B5E7B",
"m  c #585972",
"M  c #695968",
"N  c #4E6073",
"B  c #4C617F",
"V  c #5C647C",
"C  c #5E697C",
"Z  c #6D656F",
"A  c #65697A",
"S  c #940000",
"D  c #A90000",
"F  c #B51F00",
"G  c #812900",
"H  c #8F3000",
"J  c #963000",
"K  c #8F3A17",
"L  c #953713",
"P  c #B3290A",
"I  c #AE3E1F",
"U  c #8A2639",
"Y  c #CF2807",
"T  c #844C03",
"R  c #954407",
"E  c #89560A",
"W  c #AC6E1C",
"Q  c #835A2A",
"!  c #985B2C",
"~  c #AA4521",
"^  c #BA552A",
"/  c #896B33",
"(  c #B96328",
")  c #B46C37",
"_  c #AB7736",
"`  c #C34D1E",
"'  c #D05329",
"]  c #D6582C",
"[  c #C86432",
"{  c #D76936",
"}  c #D9743B",
"|  c #935B45",
" . c #8A6546",
".. c #856457",
"X. c #AA7C42",
"o. c #C97E42",
"O. c #DC7C42",
"+. c #BB8230",
"@. c #AE9149",
"#. c #A6A756",
"$. c #B2B05F",
"%. c #B2B170",
"&. c #CA8947",
"*. c #D98A48",
"=. c #CE944C",
"-. c #D9934B",
";. c #D19450",
":. c #E68A4A",
">. c #E7974F",
",. c #E29A54",
"<. c #D9A658",
"1. c #E2A155",
"2. c #E2A459",
"3. c #E2AC5C",
"4. c #E6B35F",
"5. c #D1BC62",
"6. c #DCBA78",
"7. c #E5B561",
"8. c #E6BB64",
"9. c #F3BE69",
"0. c #CFCD6E",
"q. c #E0C66C",
"w. c #EBC269",
"e. c #EBCD6E",
"r. c #F7CD70",
"t. c #EDD473",
"y. c #EFD977",
"u. c #EEDF79",
"i. c #F7D775",
"p. c #F2DE79",
"a. c #ECE27C",
"s. c #F3E57D",
"d. c #4D5F82",
"f. c #4E6382",
"g. c #4C6489",
"h. c #516585",
"j. c #586780",
"k. c #546986",
"l. c #5D6B84",
"z. c #526689",
"x. c #556A8C",
"c. c #596E8D",
"v. c #5B718E",
"b. c #566D92",
"n. c #596E91",
"m. c #536E99",
"M. c #5D7293",
"N. c #5A7598",
"B. c #5E759A",
"V. c #636C83",
"C. c #696E84",
"Z. c #687185",
"A. c #65728B",
"S. c #6C758A",
"D. c #73788A",
"F. c #627694",
"G. c #6A7791",
"H. c #647995",
"J. c #6C7B94",
"K. c #61769A",
"L. c #657A9C",
"P. c #697D9C",
"I. c #707E95",
"U. c #5A77A0",
"Y. c #657CA1",
"T. c #697EA1",
"R. c #6D819E",
"E. c #73839C",
"W. c #78859A",
"Q. c #78869D",
"!. c #6582A5",
"~. c #6B81A5",
"^. c #6C84AA",
"/. c #6D8AAD",
"(. c #7386A3",
"). c #7887A3",
"_. c #7689A6",
"`. c #7A8BA4",
"'. c #7187AB",
"]. c #7289AD",
"[. c #7A8CAA",
"{. c #7D90AE",
"}. c #6F8BB0",
"|. c #758DB2",
" X c #788FB4",
".X c #738EBA",
"XX c #7590B4",
"oX c #7991B6",
"OX c #7691BA",
"+X c #7C94BC",
"@X c #818EA3",
"#X c #8594AA",
"$X c #8D99AC",
"%X c #919CAC",
"&X c #8295B5",
"*X c #8297BA",
"=X c #8599B9",
"-X c #8A9CBD",
";X c #909DB1",
":X c #93A2B8",
">X c #F3ED81",
",X c #F6F485",
"<X c #FAF586",
"1X c #849BC1",
"2X c #8C9FC1",
"3X c #8EA1C2",
"4X c #90A3C4",
"5X c #98A9C7",
/* pixels */
"5X2X4X2X3X2X4X4X4X4X4X4X4X4X4X4X4X4X4X4X4X4X4X&X&X-X2X2X2X2X1X1X4X5X4X4X4X4X4X4X4X4X4X4X4X3X3X3X2X5X",
"1XOXOXOX+X+XOXOXOXOXOXOX+XOXOXOXOXOXOXOX.XOX.XU.m.T.+XOX+X+X+X+XOX.XOXOX+XOXOXOXOXOXOX+XOXOXOX+X.X2X",
"2X+X+X*X+X+X*X1X1X+X+X*X1X*X+X*X*X+X*X1X1XOXY.Y.Y.Y.T.1X1X*X1X+X+X1X*X+X+X+X*X+X+X1X1X+X+X1X+X1X+X2X",
"2X+X+X+X+X+X+X+X*X+X+X+XOX+X+X+X+X+X+X+X.XY.N.+X.XK.Y.T.|.|.+X.XoX+X+X+X+X X+X1X+X+X+X+X*X+X+X*X+X2X",
"&X}.|.|. X X X|.|.|. XOX+X+XoX X X X|..XT.K..XOX.XT.Y.U.Y..X.X|.]. X X.X/.|. X X|.|..X|.|.|..X|.'.*X",
" X^.'.'.'.|.|./.^.^./.|. X X X X]..X'.Y.B.].1X.XT.T.T.Y.B.T.|.|.|. X|.}.'.|. X X|.'.^.].|.].^.'.T.&X",
"*XOXoX|.|.]. X|.|.|.|.|.|./.XXoX.X|.Y.B.].1XT.^.T.T.T..XY.B.T.+X+XoX+X|.]..X+XoX+X|.]. X*XoX|. X.X1X",
"=X X XOX XOXoXOXoXOX X X X+XoXoX|.Y.n..X1XT.^.T.T..XT.T.T.Y.U.T. X+X X X+X XoXoXOXoXoX+XOXoXoXoX X-X",
"=XOX X XXX+X XoXoXoXoXOXoXoX+XXXY.M.XXoX/.!.^.~.T.T.T.T.T.T.U.U.^.+XXXXX+XoXoXoXoXoXoXOXoXoXoXXX X=X",
"&X|.+X XXX X XXXoXoX XoXXX}./.!.b./.XX/.!.!.!.!.Y.}.T.}..XT.T.Y.B.^.|././.}.oXXXXXoXXXXXXXoXXX X.X*X",
"&X|. X X X|. X X XXX X XoX].!.B./.oX(.!.^.^.~.~.}.}.Y.b T.T.T.T.L.B.^.|.XXXXXXXX X X X X X X X X X*X",
"oX|. X|. X|.|. X X|.|. X X^.P.].-X[.'.'.'._._./.Y.m.C.E G.T.'..X'.L.K.'.oXoXXXXX X X|.|. X X|. X].&X",
"&X X|.|.|.|. X X|. X|.|.Y.L.#X:X[.(.(.'.[.{.`.E.z : Q ,.9 V.#X[.[._.P.B./.oX|.|.|. X|.|. X X|. X|.*X",
"oX|.|.|. X].].|.|.|.|.Y.B.#X:X#XH.o r E.{.`.`.h D <.>X] , C.#X_.@X[.(.T.B.^. X|. X].].|.|.].]. X].&X",
"&X|.|.|.|.|.|.|.|.].Y.b.].:X%XC | &.F g M.&X`.@ 5.i.3.G D.I. X(.c H.^.Y.M.M.~. X X].|.|.|.|.|.|.].&X",
"[.^.^.'.'.'.^.'./.Y.b.^.oX%X$XD...@.7.+.l d.A . #.$.| m C.V.n m J M c.Y.B.M.M.~.^.'././.^.^.^.'.^. X",
"].Y.^.T.T.^./.!.Y.b.T.oX_.#X$X;XA.3 s.3._ a 0 x 9 , k J.e < i / { G b T.Y.K.N.n.Y.'.^.T.Y.^.T.T.Y.[.",
"[.^.'.^.^.'.'.Y.b.P.+XT.E.%X%X#XZ.< ] > 5.p.' >X>.' ' 2 O ) w.,X,.T n T.K.Y.K.n.B.T.'.^.^.|.|.^.!.{.",
"oX'.'.|.].|.L.b.Y.oX!.Y.'.$X$X;X[.S.u   X.w.s.7.:.7.a.-.r ~ :.3.i C.(.~.Y.Y.Y.Y.n.n.T..X'.].'.|./.oX",
" X/.'.^.|.Y.b.Y. X!.!.P.(.#XV v A.(.6 L [ 4.>X-.w.t.7.} ^ ~ R ! C E._.(.Y.Y.Y.Y.Y.N.B.T.|.'.'.'.^.&X",
"#X^.'.'.L.x.Y.].^.L.Y.Y.P.D.! H l V 7 [ ,.t.,X8.y.w.O.{ ] L # c [.`._.E.L.Y.Y.Y.Y.B.x.m.T.].'.'.~.[.",
" X^.'.Y.x.Y.|.^.K.Y.P.Y.F.5 ;.*.^ 3 7 &.e.>Xs.<X7.,.<.2.*.R c (.J.`._.(.T.Y.Y.Y.Y.Y.Y.x.B.T.'.'.^.oX",
" X^.Y.x.B. X^.B.Y.Y.Y.U.P.`.@ 0.p.o.r ` ] { <.>X7.8.<X>X>X#.  5 e J.`.(.(.Y.Y.Y.Y.Y.Y.B.n.N.Y.'./.[.",
"[.B.b.B.+XY.K.L.K.Y.L.L.P.E.$ ( w.p.; ` { 1.s.4.t.e.,.*.>.! x %.P u V.(.(.P.K.Y.K.Y.K.Y.B.x.m.'.^.).",
"P.x.K.].Y.B.Y.K.n.K.Y.K.K.Q.V.U W $.Z U <.t.7.*.a.>X8.} I ,  .6.9.i b ].E.P.K.L.B.B.B.B.K.K.n.n.b.P.",
"F.g.Y.'.n.n.B.n.N.M.B.n.K.E.`.C f f `.d #.q.Y 3.t.s.t.=.p #  .-.p.X.M A.E.H.B.M.M.B.K.B.n.B.n.x.g.J.",
"_.b.x.B.K.K.B.K.B.K.B.B.K.E.Q.`.@X@XQ.z X 1 } >X8.{ ` e * V.k.: ` >._ f ).P.M.K.K.K.K.K.B.x.x.T.K.P.",
"&XY.b.b.K.K.K.K.K.L.K.Y.P.P.).@X@X`.f ) e.0.= a s 8 9 *.q m P.C.w < Z ).Q.E.K.L.L.K.Y.L.n.x.L. X'._.",
"&XT.T.F.b.n.Y.K.K.K.K.K.L.P.E.`.I.z P e.r.&.O m $ T <.u.a b !.Y.V.j.I.@X@XP.K.K.K.K.Y.n.x.H.|.T.T.[.",
"@XT.T.T.b.z.n.K.K.K.K.K.K.K.P.).A , } 0.@.S r (.h. .=.t.) l x.L.T.(.).@X@XP.K.K.K.K.n.z.K. XT._.T.[.",
"T.T.T.T.Y.x.b.n.K.K.K.F.K.K.K.P.A.s =.u + t e J.(.h.u &.[ K c P.J.P.I.T.I.T.K.K.K.n.z.Y.'.'.T.^.T.[.",
"&XT.T.T.T.K.b.b.M.K.B.B.B.F.B.P.T.J.- D.`.C.4 E.E.E.J.8 * V P.L.P.P.P.K.K.J.K.K.n.z.Y.T.'.T.(.^.T.[.",
"T.T.T.T.T.T.T.n.z.B.K.K.K.M.K.G.P.I.J.Q.).C.4 E.`.A 4 5 V H.L.J.K.H.B.B.B.H.M.c.z.K._.T.T.T.T.[.P._.",
"&XT.T.T.T.T.T.T.z.z.n.K.M.K.B.n.H.J.(.Q.(.C.4 E.@XW.v 4 G.!.H.L.F.B.B.M.M.F.n.z.M.'.T.T.T.T.T.T.!.[.",
"T.Y.T.T.T.T.T.T.K.d.z.n.M.n.n.n.c.M.P.(.E.V.4 W.@XQ.A ; m A.K.F.K.M.M.c.M.n.z.n._.T.T.T.T.T.T.T.L._.",
"T.B.G.L.K.G.L.L.T.B.z.z.n.x.n.n.x.F.H.I.R.V.4 I.@XA % y & m K.n.x.b.c.c.n.z.M.'.Y.L.L.K.K.P.K.Y.N.R.",
").P.L.L.L.G.K.L.T.Y.K.z.d.l.n.B.M.M.K.I.R.A 4 J.@X@XI.P.y v K.x.x.n.n.x.h.K.T.T.K.L.Y.K.K.K.M.J.N.E.",
").T.J.T.Y.Y.L.Y.J.T.T.K.z.z.n.B.M.M.F.I.Q.V.7 W.#XD.j j % m M.x.n.K.x.f.M.T.T.L.L.P.T.P.L.L.L.T.R.E.",
").T.T.T.T.T.T.T.T.T.T.T.M.d.d.n.M.M.M.R.(.Z.* m A j & v v V.M.F.n.x.d.c.(.(.T.T.T.T.Y.T.T.T.T.T.R.E.",
"T.T.P.T.T.T.J.Y.P.T.T.J.T.K.j.z.v.v.v.J.R.S.y t y y v J.P.F.n.F.c.h.x.(.T.P.P.P.T.J.P.P.T.J.T.T.!.E.",
"(.L.L.R.R.L.H.H.P.P.P.P.P.P.K.d.g.v.v.M.R.M.H.R.H.H.F.M.M.v.M.k.f.x.^.R.L.P.P.L.P.P.P.L.P.P.L.P.R.R.",
"Q.N.R.L.L.L.R.R.P.P.P.L.P.P.L.F.f.f.v.v.v.v.v.v.v.M.v.v.v.v.x.B x.R.R.R.P.P.L.P.L.P.P.Y.L.P.P.P.!.E.",
"(.B.R.H.L.R.R.H.L.L.L.L.P.P.P.K.v.B f.v.v.c.c.v.v.v.v.v.v.k.B x.R.R.L.H.L.H.P.P.L.L.L.L.P.K.L.P.v.R.",
"Q.H.H.H.R.M.F.R.K.G.J.L.H.H.H.P.R.v.B f.v.v.v.c.c.v.v.v.k.B k.R.R.N.L.H.H.R.H.P.L.L.G.J.H.P.K.J.R.W.",
"E.M.M.M.R.M.M.v.M.v.F.H.M.A.L.H.R.R.C B B v.v.k.k.k.v.k.B k.R.R.H.H.H.H.H.H.H.H.H.H.H.J.H.F.H.L.R.R.",
"R.k.v.v.M.v.v.v.v.v.M.M.c.c.M.v.M.M.v.k.B B B k.h.h.h.B B R.H.M.M.v.v.v.M.v.F.H.F.M.v.H.H.F.H.H.k.R.",
"E.M.F.v.F.H.F.F.v.v.M.F.H.M.F.F.v.v.F.M.v.B B k.k.h.B B R.H.H.F.M.M.H.M.M.F.F.M.v.v.x.v.v.x.c.c.v.E.",
"E.M.H.H.H.H.H.H.F.H.F.H.H.F.F.H.F.F.F.R.M.c.B B B B h.R.R.H.H.H.F.H.H.F.H.H.H.H.H.H.F.F.F.F.F.F.v.W.",
"E.v.v.R.v.v.R.v.R.v.R.v.R.v.v.R.v.R.v.v.R.R.C B B k.N.R.F.F.H.F.F.H.R.v.R.F.F.R.A.R.v.R.v.R.R.v.v.W.",
"W.v.R.M.A.R.R.A.v.v.l.R.R.v.R.C R.l.R.l.v.v.M.B N v.R.M.F.F.F.F.F.F.A.F.v.A.A.v.v.R.R.v.v.l.v.R.v.W."
};
