/* XPM */
static char *result[] = {
/* columns rows colors chars-per-pixel */
"50 50 56 1 ",
"  c #75777E",
". c #78777E",
"X c #76797E",
"o c #78787E",
"O c #777780",
"+ c #797780",
"@ c #767980",
"# c #787981",
"$ c #7B8085",
"% c #7E8289",
"& c #81848B",
"* c #85898F",
"= c #878B91",
"- c #8A8C93",
"; c #8E9399",
": c #93969C",
"> c #97999F",
", c #979AA1",
"< c #9CA1A7",
"1 c #A5AAAE",
"2 c #A6ABB1",
"3 c #A9AFB5",
"4 c #AAB2B5",
"5 c #AFB4BA",
"6 c #B6BCC2",
"7 c #B8BCC3",
"8 c #BEC4CA",
"9 c #C1C5CB",
"0 c #C2CACE",
"q c #C6CCD1",
"w c #CACDD4",
"e c #C6D2D3",
"r c #CBD1D6",
"t c #CDD3D9",
"y c #CFD9DC",
"u c #D1D6DB",
"i c #D3DADE",
"p c #D6DCE2",
"a c #DADDE4",
"s c #D7E1E4",
"d c #DBE1E6",
"f c #DDE6EA",
"g c #DDE8EB",
"h c #E1E4EB",
"j c #E5EAEE",
"k c #E6EBF1",
"l c #ECEEF5",
"z c #EFEFF9",
"x c #F1EFF7",
"c c #F1EFF8",
"v c #EEF1F6",
"b c #EFF1F9",
"n c #F1F1F7",
"m c #F1F1F9",
"M c #F8F7FB",
"N c #F7F8FA",
/* pixels */
"mcbbvbbbbbbbbbvbbvbbbmmvnnvnnnmmzzbbbcbzmbbmzzzvvN",
"nzblvvlvvzvbvvzzvvllzbvzllvvvvvxzzzzzzzzllllzzlzbN",
"znltrtrrrrrrrrtwttrrtrrrrrwrrrrrtreerrrrrqerttwkzN",
"zvjq9776777767777770q8880000qqq0866877666677777hvN",
"zzkw3%%&%%&%&%%%%&,ttrpppfsssspt8%%%%%%%$%%%%%:hzN",
"nzkq3@+@@#@#@#@@@@;typpagfgggssi8@%@@@@@##+#O@-avN",
"zvkw2 +@ +#+#.@@@ ;tafffgffgffgae@@@@@@@#@@+#@=fvN",
"zvkq2@+.#+ @+#@@@o;pdgfhffgfgfffe@@@@@@@#@+@#@=hxM",
"mzjq2O+##+#@++@@@O,aagfgfsffgsgft@@@@@@@.+++++-hvN",
"zzlq2O+O@+++@#@ OO:agffgggffggfft$@@@@@@o+++++-hnN",
"zzkq2O+@#+@+@+ @@O,agsfffdggggfft@@@@@@@+#++++-hxN",
"cckw2@+@+@+#++#@#@,fggfgggggggggy$@@@@@@o#++++-hxN",
"zzkq2+@@@+@@@+@@@+,fffffggffffffr@@@@@@X##.#++;hxN",
"czkq2+@@+#o@@+@@@+,affsfggggfffde$@@@@@@@@#+++;hxN",
"znjq2ooo@@@o@@ o#+,affggggggfffpe@@XXX@@@o.#++-hxM",
"vnjq1oooo o  ooo# :addffggggfffp8XXX X oooo.++-hnM",
"mzkq1 @ #@@@@@@@o@:iaffhhhfdsiii9#OO OOOOO@@+#-hvN",
"bbke3%%%%%%%=%%%%%:0ruuiiiiiurwq7*%*%$&%%*&%&%-hnN",
"mzk88800qrtttttrw85**========***,789qwtttttrq97anN",
"xvkqeyiipffffffasp7@@@  Xoo@+...=tyyafffhfjapp9anN",
"zvj0qtsdfffghfghfa9o.o+##+#.+o+o*tpfffffffsfgs8anN",
"xvj0eisgffggfgghfh9oo.#o.#+#+.oo=ysggffffffgggeanM",
"mvj0esdfgfgffgghhh9#o.oooooooo.o=pffffffffffsg8smM",
"mvj0efffjhffggghhh9##o#++#+#oooo=afhffffffffggysmM",
"nmk0ejggfffffghhjh0#+##@#..#@#@#-ffhghfffffffhwacM",
"nmk0eghgffffggggfh9#@#o#+##+++##-dfghffffffffhwamM",
"mmk8egghhfffggfhff9#+#o@##+@+++@-dggffffffffffwacM",
"mvk0eghghfhffffgga8@#.@o#.#+@@# -fhgfffffffffaqanN",
"vvk8rdgdfffffgggjp7#XXXoooo@.oo@-aggffgfgggffa9pcM",
"vNj8esghffffffhhgt6@XXXooooXooX@%pfffffggggffp9pzN",
"Nvje0isdfffffdsapt6$XXX XX X  X@;ipdsfffffdapu9anN",
"vvj00eiiafafaaptre5$$@$$$$$$#$$#%ttisffaaayytw8ivN",
"mvj04==--;-;-=-=-*<888qqwrrrrq907-=-=---;===-=,anN",
"vmk02o@#####+#+# X;ryipsfffhhfdiq...++##@@@@@@*hnN",
"xnl02 #@@#+#@@@oo ;usggfffffghhiq+..@@@#@##+++-avN",
"xnlq2@@@.+@+@@ooo :isggfffffghhdw+@@o@+o#@+#++-hvN",
"xxl01o@oooooo  o@ :igggfffgggdghu.oooooooo++++-hvN",
"xvk01oooooo.ooXX  >aggggfggddgghuoo#ooo.ooo+++-hnN",
"xxk01 @@oo+@@o@o@ ,fffffgffgggfhr++#o@#@o+++++;hnN",
"nxkq1o@@#@#@@@@@OO,fgffffgggggfhu+##o@#o++++++-hvN",
"xxjq2@##o@.+#+@@@ ,ffffgfffffffhu##+##@@+#####;hnN",
"xxjq1o##++@@@+@@@ ,fjgffffgffffsw##@#@@#+oX#o@=hvN",
"nnjq1 ##@@#o@@oOoo>dfgfffgfffgfp0#@@@@#@##X#@#-hnN",
"mnjq1 #Xooooo o oo:pagffffffhfdi0+ooo@@#XXXX@@=hvN",
"zvj02 o#@@@# XXXo :issggffffddat9$oo####@ @@XX;fmN",
"vvkq2###@####$@$+#:etpaaddfaautr9@$##@$#$$@#$X=dmN",
"vvvhpqqwwwrwwwrwrwuaddajhhfdhaaaprqwrwrwwrqrqqrkvN",
"mnnvzzcmmmmmmmmmmcmmmmccccczmmmmbbbbbbbbbbbbbbbbvN",
"mmbbmvmmmmmnnnnnnnnnMxncMccnnnMcbbbbbbbbbbbbbbbvvN",
"nnnnmmmmmmmmNnnnnmnnnnnnnnnnnnnnmmmmmmmmmmmmvvvmvN"
};
